<?xml version="1.0" standalone="no"?><!DOCTYPE svg PUBLIC "-//W3C//DTD SVG 1.1//EN" "http://www.w3.org/Graphics/SVG/1.1/DTD/svg11.dtd" ><svg xmlns="http://www.w3.org/2000/svg"><metadata></metadata><defs><font id="Founder:FZYouHeiS_512B" horiz-adv-x="1000"><font-face font-family="FZYouHeiS 512B" font-weight="700" font-stretch="normal" units-per-em="1000" panose-1="2 0 0 0 0 0 0 0 0 0" ascent="902" descent="-235" x-height="0" bbox="-71 -235 1007 850" underline-thickness="50" underline-position="-185" unicode-range="U+0022-ffe5" /><missing-glyph horiz-adv-x="1000" d="M169 217 l-102 0 l-16 497 l134 0 l-16 -497 ZM182 0 l-128 0 l0 125 l128 0 l0 -125 Z" /><glyph glyph-name="" unicode="&quot;" d="M34 725 l118 0 l-19 -227 l-80 0 l-19 227 ZM198 725 l118 0 l-19 -227 l-80 0 l-19 227 Z" /><glyph glyph-name="" unicode="#" d="M67 0 l25 187 l-50 0 l0 100 l63 0 l20 149 l-58 0 l0 100 l72 0 l24 178 l106 0 l-24 -178 l78 0 l24 178 l106 0 l-24 -178 l48 0 l0 -100 l-62 0 l-20 -149 l57 0 l0 -100 l-70 0 l-25 -187 l-106 0 l25 187 l-78 0 l-25 -187 l-106 0 ZM231 436 l-20 -149 l78 0 l20 149 l-78 0 Z" /><glyph glyph-name="" unicode="$" d="M26 55 l32 110 q79 -37 154 -36 q122 0 121 73 q4 65 -113 111 q-194 82 -194 214 q2 145 159 172 l0 119 l111 0 l0 -116 q69 -6 129 -32 l-33 -112 q-76 27 -138 26 q-99 -1 -100 -55 q-3 -47 118 -101 q192 -84 189 -224 q-4 -149 -165 -187 l0 -121 l-111 0 l0 115 q-78 4 -159 44 Z" /><glyph glyph-name="" unicode="%" d="M192 725 q164 -10 171 -207 q-6 -199 -171 -207 q-167 5 -171 207 q6 199 171 207 ZM192 625 q-61 0 -61 -107 q-1 -108 61 -107 q61 -1 61 107 q0 107 -61 107 ZM261 -10 l-105 0 l405 735 l104 0 l-404 -735 ZM632 404 q164 -10 171 -207 q-6 -199 -171 -207 q-167 5 -171 207 q6 199 171 207 ZM632 304 q-61 0 -61 -107 q-1 -108 61 -107 q61 -1 61 107 q0 107 -61 107 Z" /><glyph glyph-name="" unicode="&#39;" d="M34 725 l118 0 l-19 -227 l-80 0 l-19 227 Z" /><glyph glyph-name="" unicode="(" d="M187 798 l112 0 q-132 -209 -133 -464 q1 -251 133 -460 l-111 0 q-137 218 -136 461 q4 275 135 463 Z" /><glyph glyph-name="" unicode=")" d="M113 -126 l-111 0 q132 209 133 460 q-1 255 -133 464 l112 0 q131 -188 135 -463 q1 -243 -136 -461 Z" /><glyph glyph-name="" unicode="*" d="M265 736 l98 -60 l-100 -109 l139 30 l0 -112 l-139 31 l100 -112 l-99 -59 l-49 142 l-46 -142 l-99 59 l99 112 l-140 -31 l0 112 l140 -30 l-99 109 l98 60 l47 -139 l50 139 Z" /><glyph glyph-name="" unicode="+" d="M200 582 l120 0 l0 -164 l164 0 l0 -120 l-164 0 l0 -163 l-120 0 l0 163 l-164 0 l0 120 l164 0 l0 164 Z" /><glyph glyph-name="" unicode="," d="M170 58 l0 -41 q-2 -73 -48 -146 l-59 0 q31 55 36 101 q3 27 -28 28 l-29 0 l0 124 l61 0 q64 -3 67 -66 Z" /><glyph glyph-name="" unicode="-" d="M484 418 l0 -120 l-448 0 l0 120 l448 0 Z" /><glyph glyph-name="" unicode="." d="M170 0 l-128 0 l0 124 l128 0 l0 -124 Z" /><glyph glyph-name="" unicode="/" d="M90 -10 l-107 0 l280 735 l108 0 l-281 -735 Z" /><glyph glyph-name="" unicode="0" d="M268 725 q234 -10 240 -369 q-6 -355 -240 -366 q-233 10 -240 366 q7 359 240 369 ZM268 605 q-112 0 -112 -249 q-1 -249 112 -246 q113 -1 112 246 q0 250 -112 249 Z" /><glyph glyph-name="" unicode="1" d="M206 0 l0 567 l-120 -56 l0 121 l182 82 l66 0 l0 -714 l-128 0 Z" /><glyph glyph-name="" unicode="2" d="M473 0 l-432 0 l0 79 q106 141 217 269 q87 99 84 175 q0 82 -86 82 q-71 -1 -165 -54 l-28 112 q102 62 202 62 q198 -7 205 -202 q3 -122 -116 -251 q-73 -80 -127 -152 l246 0 l0 -120 Z" /><glyph glyph-name="" unicode="3" d="M43 35 l33 108 q73 -32 150 -33 q117 1 118 109 q-5 96 -103 101 l-78 0 l0 120 l78 0 q86 3 88 92 q1 73 -80 73 q-79 0 -147 -30 l-31 110 q87 40 183 40 q196 -7 203 -186 q0 -98 -90 -159 q106 -55 105 -165 q-9 -216 -234 -225 q-104 0 -195 45 Z" /><glyph glyph-name="" unicode="4" d="M441 0 l-128 0 l0 148 l-292 0 l0 102 l289 464 l131 0 l0 -446 l67 0 l0 -120 l-67 0 l0 -148 ZM156 268 l157 0 l0 255 l-157 -255 Z" /><glyph glyph-name="" unicode="5" d="M449 714 l0 -119 l-250 0 l-6 -138 q16 4 50 4 q230 -7 238 -233 q-6 -232 -256 -238 q-85 0 -172 42 l32 108 q82 -30 141 -30 q125 2 127 118 q1 114 -122 113 q-67 0 -155 -23 l18 396 l355 0 Z" /><glyph glyph-name="" unicode="6" d="M440 725 l15 -116 q-218 3 -286 -199 q63 46 132 47 q196 -15 210 -229 q-13 -224 -232 -238 q-232 12 -241 295 q15 424 402 440 ZM279 110 q100 6 104 118 q-2 107 -105 109 q-63 -3 -112 -65 q6 -158 113 -162 Z" /><glyph glyph-name="" unicode="7" d="M51 714 l429 0 l0 -76 l-242 -638 l-138 0 l248 594 l-297 0 l0 120 Z" /><glyph glyph-name="" unicode="8" d="M36 197 q1 106 124 182 q-103 70 -104 164 q12 172 212 182 q204 -9 214 -182 q-1 -98 -107 -165 q129 -68 126 -180 q-14 -194 -233 -208 q-219 13 -232 207 ZM266 104 q104 6 111 95 q-1 83 -124 126 q-91 -46 -93 -126 q4 -91 106 -95 ZM268 613 q-85 -3 -90 -70 q3 -65 102 -112 q77 45 80 112 q-3 68 -92 70 Z" /><glyph glyph-name="" unicode="9" d="M92 -10 l-17 119 q229 5 289 198 q-59 -48 -125 -49 q-199 12 -210 229 q14 225 229 238 q229 -6 234 -299 q-12 -422 -400 -436 ZM258 605 q-97 -4 -101 -118 q1 -107 101 -109 q68 1 106 59 q-3 163 -106 168 Z" /><glyph glyph-name="" unicode=":" d="M170 0 l-128 0 l0 124 l128 0 l0 -124 ZM170 333 l-128 0 l0 124 l128 0 l0 -124 Z" /><glyph glyph-name="" unicode=";" d="M170 17 l0 41 q-3 63 -67 66 l-61 0 l0 -124 l29 0 q31 -1 28 -28 q-5 -46 -36 -101 l59 0 q46 73 48 146 ZM170 333 l-128 0 l0 124 l128 0 l0 -124 Z" /><glyph glyph-name="" unicode="&lt;" d="M67 297 l0 106 l451 203 l0 -132 l-307 -124 l307 -124 l0 -132 l-451 203 Z" /><glyph glyph-name="" unicode="=" d="M540 512 l0 -120 l-479 0 l0 120 l479 0 ZM540 309 l0 -120 l-479 0 l0 120 l479 0 Z" /><glyph glyph-name="" unicode="&gt;" d="M518 297 l-451 -203 l0 132 l307 124 l-307 124 l0 132 l451 -203 l0 -106 Z" /><glyph glyph-name="" unicode="?" d="M235 217 l-128 0 l0 53 q1 87 71 158 q78 76 76 125 q0 52 -61 52 q-55 0 -124 -23 l-28 111 q80 32 158 32 q175 -7 183 -170 q5 -94 -101 -197 q-48 -49 -46 -89 l0 -52 ZM235 0 l-128 0 l0 124 l128 0 l0 -124 Z" /><glyph glyph-name="" unicode="@" d="M438 345 l21 112 q-19 5 -36 5 q-120 -14 -133 -148 q0 -53 49 -53 q77 9 99 84 ZM516 127 l32 -96 q-81 -40 -191 -41 q-316 14 -328 340 q33 360 386 395 q311 -15 327 -313 q-9 -230 -195 -243 q-66 1 -87 65 q-51 -63 -128 -65 q-128 7 -134 144 q26 220 243 241 q63 -1 122 -38 l-35 -193 q-8 -58 30 -62 q77 8 80 151 q-7 204 -223 211 q-256 -25 -282 -293 q3 -233 225 -237 q83 0 158 34 Z" /><glyph glyph-name="" unicode="a" d="M464 0 l-57 197 l-210 0 l-57 -197 l-138 0 l239 714 l122 0 l239 -714 l-138 0 ZM302 572 l-74 -255 l148 0 l-74 255 Z" /><glyph glyph-name="" unicode="b" d="M63 19 l0 677 q97 28 185 29 q247 -2 250 -200 q-1 -88 -91 -148 q118 -56 117 -169 q-10 -215 -272 -218 q-91 2 -189 29 ZM191 602 l0 -168 l71 0 q111 -2 108 86 q4 92 -108 89 q-35 -1 -71 -7 ZM191 318 l0 -206 q29 -5 71 -6 q136 -1 134 104 q1 109 -134 108 l-71 0 Z" /><glyph glyph-name="" unicode="c" d="M538 134 l31 -111 q-85 -33 -174 -33 q-354 16 -368 368 q18 350 360 367 q95 1 171 -33 l-28 -109 q-72 22 -141 22 q-222 -13 -234 -247 q8 -239 242 -248 q60 0 141 24 Z" /><glyph glyph-name="" unicode="d" d="M65 16 l0 682 q92 26 206 27 q375 -13 389 -367 q-11 -357 -389 -368 q-121 2 -206 26 ZM193 596 l0 -478 q44 -7 84 -8 q248 8 255 248 q-8 238 -256 246 q-52 0 -83 -8 Z" /><glyph glyph-name="" unicode="e" d="M396 436 l0 -120 l-205 0 l0 -196 l273 0 l0 -120 l-401 0 l0 714 l390 0 l0 -120 l-262 0 l0 -158 l205 0 Z" /><glyph glyph-name="" unicode="f" d="M63 0 l0 714 l385 0 l0 -120 l-257 0 l0 -158 l205 0 l0 -120 l-205 0 l0 -316 l-128 0 Z" /><glyph glyph-name="" unicode="g" d="M623 396 l0 -351 q-104 -52 -227 -55 q-354 17 -369 368 q17 351 382 367 q101 0 183 -35 l-30 -113 q-75 29 -154 28 q-239 -13 -253 -247 q10 -237 241 -248 q58 1 99 12 l0 154 l-100 0 l0 120 l228 0 Z" /><glyph glyph-name="" unicode="h" d="M63 714 l128 0 l0 -278 l290 0 l0 278 l128 0 l0 -714 l-128 0 l0 316 l-290 0 l0 -316 l-128 0 l0 714 Z" /><glyph glyph-name="" unicode="i" d="M77 714 l128 0 l0 -714 l-128 0 l0 714 Z" /><glyph glyph-name="" unicode="j" d="M207 205 l0 509 l128 0 l0 -517 q0 -207 -184 -207 q-77 2 -137 19 l17 114 q53 -13 93 -13 q50 -1 65 18 q18 20 18 77 Z" /><glyph glyph-name="" unicode="k" d="M193 0 l-128 0 l0 714 l128 0 l0 -257 l212 257 l155 0 l-284 -335 l300 -379 l-158 0 l-225 300 l0 -300 Z" /><glyph glyph-name="" unicode="l" d="M62 0 l0 714 l128 0 l0 -594 l269 0 l0 -120 l-397 0 Z" /><glyph glyph-name="" unicode="m" d="M644 0 l-16 510 l-166 -510 l-110 0 l-167 510 l-15 -510 l-126 0 l47 714 l136 0 l180 -547 l180 547 l136 0 l47 -714 l-126 0 Z" /><glyph glyph-name="" unicode="n" d="M191 0 l-128 0 l0 714 l130 0 l293 -498 l0 498 l128 0 l0 -714 l-130 0 l-293 498 l0 -498 Z" /><glyph glyph-name="" unicode="o" d="M359 725 q313 -22 332 -367 q-19 -345 -332 -368 q-315 20 -332 368 q19 345 332 367 ZM359 605 q-193 -13 -204 -247 q9 -236 204 -248 q194 13 204 248 q-11 234 -204 247 Z" /><glyph glyph-name="" unicode="p" d="M62 0 l0 695 q102 28 199 30 q259 -4 264 -229 q-5 -218 -264 -222 q-37 0 -71 5 l0 -279 l-128 0 ZM190 598 l0 -199 q33 -5 78 -5 q128 1 129 101 q1 110 -129 110 q-42 -1 -78 -7 Z" /><glyph glyph-name="" unicode="q" d="M709 -31 l-19 -123 q-42 -3 -99 -3 q-245 -4 -293 152 q-261 58 -271 363 q19 345 332 367 q313 -22 332 -367 q-10 -286 -249 -358 q32 -38 140 -37 q63 0 127 6 ZM359 605 q-193 -13 -204 -247 q9 -236 204 -248 q194 13 204 248 q-11 234 -204 247 Z" /><glyph glyph-name="" unicode="r" d="M63 0 l0 694 q100 29 189 31 q265 -3 269 -217 q-2 -111 -108 -168 q59 -43 78 -127 q11 -42 37 -133 q16 -58 22 -80 l-132 0 q-4 14 -14 51 q-26 97 -38 140 q-27 92 -92 94 l-83 0 l0 -285 l-128 0 ZM191 599 l0 -194 l83 0 q117 2 119 103 q-2 96 -119 97 q-33 0 -83 -6 Z" /><glyph glyph-name="" unicode="s" d="M30 35 l32 111 q86 -35 155 -36 q118 0 117 90 q8 66 -121 118 q-185 80 -182 219 q9 183 230 188 q94 0 166 -36 l-29 -111 q-77 29 -139 28 q-95 -3 -100 -66 q-10 -58 112 -108 q197 -85 191 -234 q-7 -203 -245 -208 q-93 -1 -187 45 Z" /><glyph glyph-name="" unicode="t" d="M208 0 l0 594 l-197 0 l0 120 l522 0 l0 -120 l-197 0 l0 -594 l-128 0 Z" /><glyph glyph-name="" unicode="u" d="M62 714 l128 0 l0 -420 q-1 -186 143 -184 q143 0 143 184 l0 420 l128 0 l0 -413 q-2 -308 -271 -311 q-270 2 -271 308 l0 416 Z" /><glyph glyph-name="" unicode="v" d="M357 0 l-116 0 l-236 714 l134 0 l160 -545 l160 545 l134 0 l-236 -714 Z" /><glyph glyph-name="" unicode="w" d="M297 0 l-114 0 l-181 714 l132 0 l109 -525 l138 525 l112 0 l138 -525 l109 525 l132 0 l-181 -714 l-114 0 l-140 542 l-140 -542 Z" /><glyph glyph-name="" unicode="x" d="M565 0 l-142 0 l-140 274 l-141 -274 l-142 0 l218 364 l-205 350 l140 0 l130 -259 l129 259 l140 0 l-204 -350 l217 -364 Z" /><glyph glyph-name="" unicode="y" d="M350 0 l-128 0 l0 298 l-222 416 l142 0 l144 -299 l144 299 l142 0 l-222 -414 l0 -300 Z" /><glyph glyph-name="" unicode="z" d="M13 0 l0 76 l339 518 l-314 0 l0 120 l485 0 l0 -76 l-340 -518 l345 0 l0 -120 l-515 0 Z" /><glyph glyph-name="" unicode="[" d="M279 798 l0 -110 l-101 0 l0 -704 l101 0 l0 -110 l-215 0 l0 924 l215 0 Z" /><glyph glyph-name="" unicode="\" d="M263 -10 l-280 735 l107 0 l281 -735 l-108 0 Z" /><glyph glyph-name="" unicode="]" d="M21 798 l215 0 l0 -924 l-215 0 l0 110 l101 0 l0 704 l-101 0 l0 110 Z" /><glyph glyph-name="" unicode="_" d="M447 -10 l0 -120 l-447 0 l0 120 l447 0 Z" /><glyph glyph-name="" unicode="a" d="M442 349 l0 -186 q1 -65 8 -163 l-115 0 l-6 48 q-57 -57 -148 -58 q-152 5 -158 150 q7 159 295 195 l0 15 q-2 42 -74 43 q-59 0 -140 -34 l-37 107 q101 43 185 43 q186 -4 190 -160 ZM318 179 l0 44 q-163 -22 -171 -82 q2 -38 53 -39 q100 11 118 77 Z" /><glyph glyph-name="" unicode="b" d="M184 746 l0 -284 q55 47 128 47 q221 -15 233 -259 q-10 -246 -233 -260 q-80 1 -140 58 l-7 -48 l-115 0 q9 97 10 180 l0 566 l124 0 ZM184 298 l0 -96 q4 -94 114 -97 q120 5 123 145 q-5 138 -123 144 q-103 -8 -114 -96 Z" /><glyph glyph-name="" unicode="c" d="M398 127 l30 -106 q-72 -31 -136 -31 q-258 10 -268 260 q13 246 264 259 q68 -1 133 -32 l-27 -106 q-65 23 -112 22 q-126 -9 -134 -143 q6 -137 138 -144 q51 0 112 21 Z" /><glyph glyph-name="" unicode="d" d="M386 746 l124 0 l0 -566 q1 -83 10 -180 l-115 0 l-7 48 q-60 -57 -140 -58 q-223 14 -233 260 q12 244 233 259 q73 0 128 -47 l0 284 ZM386 202 l0 96 q-11 88 -114 96 q-118 -6 -123 -144 q3 -140 123 -145 q110 3 114 97 Z" /><glyph glyph-name="" unicode="e" d="M490 204 l-339 0 q23 -96 137 -98 q80 0 142 26 l31 -105 q-84 -37 -173 -37 q-255 7 -261 260 q17 240 232 259 q218 -14 231 -239 l0 -66 ZM151 313 l215 0 q-14 82 -107 86 q-90 -7 -108 -86 Z" /><glyph glyph-name="" unicode="f" d="M199 0 l-124 0 l0 382 l-63 0 l0 116 l63 0 l0 56 q5 166 176 171 q45 0 98 -18 l-18 -107 q-38 9 -74 9 q-59 2 -58 -62 l0 -49 l101 0 l0 -116 l-101 0 l0 -382 Z" /><glyph glyph-name="" unicode="g" d="M64 -192 l36 112 q94 -36 160 -38 q131 -3 128 114 l0 51 q-52 -45 -137 -47 q-217 13 -227 254 q14 239 228 255 q89 0 148 -58 l8 47 l112 0 q-7 -109 -8 -186 l0 -325 q-3 -218 -254 -221 q-92 1 -194 42 ZM388 209 l0 89 q-9 89 -119 95 q-115 -7 -121 -139 q2 -135 121 -138 q112 6 119 93 Z" /><glyph glyph-name="" unicode="h" d="M57 0 l0 746 l124 0 l0 -295 q54 56 139 58 q178 -14 189 -223 l0 -286 l-124 0 l0 280 q1 116 -93 114 q-103 -8 -111 -114 l0 -280 l-124 0 Z" /><glyph glyph-name="" unicode="i" d="M181 0 l-124 0 l0 498 l124 0 l0 -498 ZM184 598 l-130 0 l0 116 l130 0 l0 -116 Z" /><glyph glyph-name="" unicode="j" d="M-55 -234 l-16 115 q135 -5 128 87 l0 530 l124 0 l0 -537 q1 -196 -236 -195 ZM184 598 l-130 0 l0 116 l130 0 l0 -116 Z" /><glyph glyph-name="" unicode="k" d="M183 0 l-124 0 l0 746 l124 0 l0 -406 l142 158 l151 0 l-205 -220 l223 -278 l-154 0 l-157 212 l0 -212 Z" /><glyph glyph-name="" unicode="l" d="M60 0 l0 746 l124 0 l0 -746 l-124 0 Z" /><glyph glyph-name="" unicode="m" d="M57 0 l0 325 q-1 73 -7 173 l111 0 l8 -55 q53 65 144 66 q88 -4 139 -89 q62 87 164 89 q174 -13 183 -229 l0 -280 l-124 0 l0 280 q1 114 -87 113 q-92 -9 -99 -113 l0 -280 l-124 0 l0 280 q1 115 -88 113 q-90 -7 -96 -113 l0 -280 l-124 0 Z" /><glyph glyph-name="" unicode="n" d="M58 0 l0 323 q-1 84 -8 175 l114 0 l6 -55 q56 67 158 66 q171 -15 181 -229 l0 -280 l-124 0 l0 280 q2 116 -91 114 q-105 -7 -112 -114 l0 -280 l-124 0 Z" /><glyph glyph-name="" unicode="o" d="M272 509 q233 -15 247 -259 q-14 -244 -247 -260 q-234 14 -247 260 q12 246 247 259 ZM272 393 q-118 -4 -123 -143 q4 -140 123 -144 q119 4 123 144 q-5 138 -123 143 Z" /><glyph glyph-name="" unicode="p" d="M183 -224 l-124 0 l0 540 q-1 85 -10 182 l117 0 l7 -46 q59 56 141 57 q220 -13 230 -260 q-10 -246 -230 -259 q-78 1 -131 48 l0 -262 ZM183 297 l0 -96 q6 -90 116 -95 q119 4 121 143 q-2 142 -121 144 q-106 -7 -116 -96 Z" /><glyph glyph-name="" unicode="q" d="M386 -224 l0 262 q-53 -47 -131 -48 q-220 13 -230 259 q10 247 230 260 q82 -1 141 -57 l7 46 l117 0 q-9 -97 -10 -182 l0 -540 l-124 0 ZM386 201 l0 96 q-10 89 -116 96 q-119 -2 -121 -144 q2 -139 121 -143 q110 5 116 95 Z" /><glyph glyph-name="" unicode="r" d="M57 0 l0 319 q-1 74 -7 179 l112 0 l6 -50 q31 60 90 61 q43 0 75 -19 l-23 -116 q-34 10 -59 10 q-70 -1 -70 -107 l0 -277 l-124 0 Z" /><glyph glyph-name="" unicode="s" d="M27 23 l31 106 q68 -23 124 -24 q76 1 75 38 q4 29 -78 58 q-153 61 -151 164 q11 137 186 144 q81 -2 152 -29 l-26 -106 q-77 22 -127 22 q-60 -1 -61 -30 q-4 -31 83 -59 q147 -51 146 -163 q-5 -150 -196 -154 q-82 1 -158 33 Z" /><glyph glyph-name="" unicode="t" d="M81 615 l124 35 l0 -152 l113 0 l0 -116 l-113 0 l0 -227 q-1 -50 41 -49 q23 0 66 9 l8 -111 q-45 -14 -94 -14 q-142 4 -145 156 l0 236 l-66 0 l0 116 l66 0 l0 117 Z" /><glyph glyph-name="" unicode="u" d="M504 498 l0 -325 q1 -86 6 -173 l-112 0 l-8 51 q-53 -59 -146 -61 q-180 8 -187 215 l0 293 l124 0 l0 -284 q-3 -114 84 -109 q109 6 115 109 l0 284 l124 0 Z" /><glyph glyph-name="" unicode="v" d="M8 498 l132 0 l110 -335 l110 335 l132 0 l-192 -498 l-100 0 l-192 498 Z" /><glyph glyph-name="" unicode="w" d="M9 498 l128 0 l79 -357 l111 357 l102 0 l110 -357 l80 357 l128 0 l-154 -498 l-106 0 l-109 353 l-109 -353 l-106 0 l-154 498 Z" /><glyph glyph-name="" unicode="x" d="M9 498 l138 0 l92 -163 l96 163 l138 0 l-166 -242 l172 -256 l-140 0 l-100 171 l-96 -171 l-140 0 l173 256 l-167 242 Z" /><glyph glyph-name="" unicode="y" d="M4 498 l132 0 l114 -328 l106 328 l132 0 l-216 -569 q-55 -158 -232 -153 l-18 110 q123 -6 148 77 l29 70 l-195 465 Z" /><glyph glyph-name="" unicode="z" d="M13 0 l0 78 l231 304 l-210 0 l0 116 l382 0 l0 -78 l-231 -304 l237 0 l0 -116 l-409 0 Z" /><glyph glyph-name="" unicode="{" d="M26 282 l0 110 l36 0 q35 0 35 73 q0 53 -6 83 q-9 42 -11 88 q-1 160 158 162 l41 0 l0 -110 l-41 0 q-47 3 -44 -52 q1 -46 9 -84 q10 -42 10 -87 q-2 -85 -62 -129 q58 -45 59 -129 q0 -48 -10 -88 q-8 -35 -9 -81 q-2 -57 44 -54 l44 0 l0 -110 l-44 0 q-159 -1 -158 164 q0 35 10 89 q7 40 7 80 q0 75 -32 75 l-36 0 Z" /><glyph glyph-name="" unicode="}" d="M274 282 l-36 0 q-32 0 -32 -75 q0 -40 7 -80 q10 -54 10 -89 q1 -165 -158 -164 l-44 0 l0 110 l44 0 q46 -3 44 54 q-1 46 -9 81 q-9 40 -10 88 q1 84 59 129 q-60 44 -62 129 q0 45 10 87 q8 38 9 84 q3 55 -44 52 l-41 0 l0 110 l41 0 q159 -2 158 -162 q-2 -46 -11 -88 q-6 -30 -6 -83 q0 -73 35 -73 l36 0 l0 -110 Z" /><glyph glyph-name="" unicode="~" d="M150 197 l-113 0 q3 192 140 196 q63 1 128 -44 q54 -38 83 -36 q32 -1 32 80 l114 0 q-2 -193 -142 -196 q-57 -1 -128 44 q-58 39 -83 36 q-31 1 -31 -80 Z" /><glyph glyph-name="" unicode="¥" d="M785 714 l-147 -275 l124 0 l0 -111 l-184 0 l-15 -28 l0 -31 l199 0 l0 -111 l-199 0 l0 -158 l-128 0 l0 158 l-199 0 l0 111 l199 0 l0 29 l-16 30 l-183 0 l0 111 l124 0 l-147 275 l143 0 l143 -298 l143 298 l143 0 Z" /><glyph glyph-name="" unicode="§" d="M408 417 q-4 -36 76 -65 q47 -20 75 -35 q28 22 30 58 q2 40 -63 67 q-9 4 -27 12 q-31 13 -45 22 q-43 -20 -46 -59 ZM673 750 l-30 -104 q-56 28 -117 31 q-70 5 -80 -33 q-17 -48 97 -92 q168 -64 171 -165 q4 -87 -57 -127 q47 -44 43 -113 q-12 -157 -204 -159 q-106 1 -188 49 l41 95 q75 -32 135 -34 q72 0 80 40 q16 60 -101 104 q-193 76 -184 178 q-1 80 76 118 q-41 39 -40 104 q14 143 203 143 q90 -2 155 -35 Z" /><glyph glyph-name="" unicode="¨" d="M455 547 l-101 0 l0 109 l101 0 l0 -109 ZM646 547 l-101 0 l0 109 l101 0 l0 -109 Z" /><glyph glyph-name="" unicode="°" d="M222 557 q61 3 64 64 q-3 61 -64 64 q-60 -4 -64 -64 q3 -60 64 -64 ZM222 496 q-117 9 -125 125 q10 116 125 125 q116 -9 125 -125 q-8 -116 -125 -125 Z" /><glyph glyph-name="" unicode="±" d="M439 641 l120 0 l0 -159 l164 0 l0 -120 l-164 0 l0 -159 l-120 0 l0 159 l-164 0 l0 120 l164 0 l0 159 ZM724 179 l0 -120 l-448 0 l0 120 l448 0 Z" /><glyph glyph-name="" unicode="·" d="M564 286 l-127 0 l0 126 l127 0 l0 -126 Z" /><glyph glyph-name="" unicode="×" d="M382 148 l-85 85 l120 120 l-120 120 l85 84 l120 -120 l119 120 l85 -85 l-120 -119 l120 -120 l-84 -85 l-120 120 l-120 -120 Z" /><glyph glyph-name="" unicode="à" d="M532 566 l-138 135 l121 0 l94 -135 l-77 0 ZM738 359 l0 -177 q1 -83 11 -182 l-116 0 l-8 48 q-51 -57 -139 -58 q-223 13 -233 260 q12 245 233 259 q83 -3 128 -49 l14 37 l120 0 q-10 -68 -10 -138 ZM614 202 l0 96 q-11 88 -114 96 q-118 -6 -123 -144 q3 -140 123 -145 q110 3 114 97 Z" /><glyph glyph-name="" unicode="á" d="M608 701 l-138 -135 l-77 0 l94 135 l121 0 ZM738 359 l0 -177 q1 -83 11 -182 l-116 0 l-8 48 q-51 -57 -139 -58 q-223 13 -233 260 q12 245 233 259 q83 -3 128 -49 l14 37 l120 0 q-10 -68 -10 -138 ZM614 202 l0 96 q-11 88 -114 96 q-118 -6 -123 -144 q3 -140 123 -145 q110 3 114 97 Z" /><glyph glyph-name="" unicode="è" d="M732 204 l-339 0 q23 -96 137 -98 q80 0 142 26 l31 -105 q-84 -37 -173 -37 q-255 7 -261 260 q17 240 232 259 q218 -14 231 -239 l0 -66 ZM393 313 l215 0 q-14 82 -107 86 q-90 -7 -108 -86 ZM532 566 l-138 135 l121 0 l94 -135 l-77 0 Z" /><glyph glyph-name="" unicode="é" d="M732 204 l-339 0 q23 -96 137 -98 q80 0 142 26 l31 -105 q-84 -37 -173 -37 q-255 7 -261 260 q17 240 232 259 q218 -14 231 -239 l0 -66 ZM393 313 l215 0 q-14 82 -107 86 q-90 -7 -108 -86 ZM608 701 l-138 -135 l-77 0 l94 135 l121 0 Z" /><glyph glyph-name="" unicode="ê" d="M666 568 l-83 0 l-83 81 l-79 -81 l-87 0 l94 133 l144 0 l94 -133 ZM732 204 l-339 0 q23 -96 137 -98 q80 0 142 26 l31 -105 q-84 -37 -173 -37 q-255 7 -261 260 q17 240 232 259 q218 -14 231 -239 l0 -66 ZM393 313 l215 0 q-14 82 -107 86 q-90 -7 -108 -86 Z" /><glyph glyph-name="" unicode="ì" d="M532 566 l-138 135 l121 0 l94 -135 l-77 0 ZM562 0 l-124 0 l0 498 l124 0 l0 -498 Z" /><glyph glyph-name="" unicode="í" d="M608 701 l-138 -135 l-77 0 l94 135 l121 0 ZM562 0 l-124 0 l0 498 l124 0 l0 -498 Z" /><glyph glyph-name="" unicode="ò" d="M532 566 l-138 135 l121 0 l94 -135 l-77 0 ZM500 509 q239 -18 255 -259 q-15 -242 -255 -260 q-240 16 -255 260 q14 243 255 259 ZM500 393 q-123 -7 -131 -143 q6 -137 131 -144 q125 7 131 144 q-7 136 -131 143 Z" /><glyph glyph-name="" unicode="ó" d="M608 701 l-138 -135 l-77 0 l94 135 l121 0 ZM500 509 q239 -18 255 -259 q-15 -242 -255 -260 q-240 16 -255 260 q14 243 255 259 ZM500 393 q-123 -7 -131 -143 q6 -137 131 -144 q125 7 131 144 q-7 136 -131 143 Z" /><glyph glyph-name="" unicode="÷" d="M744 409 l0 -120 l-488 0 l0 120 l488 0 ZM564 474 l-128 0 l0 126 l128 0 l0 -126 ZM564 99 l-128 0 l0 126 l128 0 l0 -126 Z" /><glyph glyph-name="" unicode="ù" d="M532 566 l-138 135 l121 0 l94 -135 l-77 0 ZM722 498 l0 -325 q1 -86 6 -173 l-112 0 l-8 51 q-53 -59 -146 -61 q-180 8 -187 215 l0 293 l124 0 l0 -284 q-3 -114 84 -109 q109 6 115 109 l0 284 l124 0 Z" /><glyph glyph-name="" unicode="ú" d="M608 701 l-138 -135 l-77 0 l94 135 l121 0 ZM722 498 l0 -325 q1 -86 6 -173 l-112 0 l-8 51 q-53 -59 -146 -61 q-180 8 -187 215 l0 293 l124 0 l0 -284 q-3 -114 84 -109 q109 6 115 109 l0 284 l124 0 Z" /><glyph glyph-name="" unicode="ü" d="M722 498 l0 -325 q1 -86 6 -173 l-112 0 l-8 51 q-53 -59 -146 -61 q-180 8 -187 215 l0 293 l124 0 l0 -284 q-3 -114 84 -109 q109 6 115 109 l0 284 l124 0 ZM454 547 l-101 0 l0 109 l101 0 l0 -109 ZM645 547 l-101 0 l0 109 l101 0 l0 -109 Z" /><glyph glyph-name="" unicode="ý&#x101;" d="M738 359 l0 -177 q1 -83 11 -182 l-116 0 l-8 48 q-51 -57 -139 -58 q-223 13 -233 260 q12 245 233 259 q83 -3 128 -49 l14 37 l120 0 q-10 -68 -10 -138 ZM614 202 l0 96 q-11 88 -114 96 q-118 -6 -123 -144 q3 -140 123 -145 q110 3 114 97 ZM355 672 l290 0 l0 -79 l-290 0 l0 79 Z" /><glyph glyph-name="" unicode="þ&#x113;" d="M732 204 l-339 0 q23 -96 137 -98 q80 0 142 26 l31 -105 q-84 -37 -173 -37 q-255 7 -261 260 q17 240 232 259 q218 -14 231 -239 l0 -66 ZM393 313 l215 0 q-14 82 -107 86 q-90 -7 -108 -86 ZM355 672 l290 0 l0 -79 l-290 0 l0 79 Z" /><glyph glyph-name="" unicode="ÿ&#x11b;" d="M334 700 l83 0 l83 -81 l79 81 l87 0 l-94 -133 l-144 0 l-94 133 ZM732 204 l-339 0 q23 -96 137 -98 q80 0 142 26 l31 -105 q-84 -37 -173 -37 q-255 7 -261 260 q17 240 232 259 q218 -14 231 -239 l0 -66 ZM393 313 l215 0 q-14 82 -107 86 q-90 -7 -108 -86 Z" /><glyph glyph-name="" unicode="&#x12b;" d="M562 0 l-124 0 l0 498 l124 0 l0 -498 ZM355 672 l290 0 l0 -79 l-290 0 l0 79 Z" /><glyph glyph-name="" unicode="&#x144;" d="M280 0 l0 323 q-1 84 -8 175 l114 0 l6 -55 q56 67 158 66 q171 -15 181 -229 l0 -280 l-124 0 l0 280 q2 116 -91 114 q-105 -7 -112 -114 l0 -280 l-124 0 ZM608 701 l-138 -135 l-77 0 l94 135 l121 0 Z" /><glyph glyph-name="" unicode="&#x148;" d="M334 700 l83 0 l83 -81 l79 81 l87 0 l-94 -133 l-144 0 l-94 133 ZM280 0 l0 323 q-1 84 -8 175 l114 0 l6 -55 q56 67 158 66 q171 -15 181 -229 l0 -280 l-124 0 l0 280 q2 116 -91 114 q-105 -7 -112 -114 l0 -280 l-124 0 Z" /><glyph glyph-name="" unicode="&#x14d;" d="M355 672 l290 0 l0 -79 l-290 0 l0 79 ZM500 509 q239 -18 255 -259 q-15 -242 -255 -260 q-240 16 -255 260 q14 243 255 259 ZM500 393 q-123 -7 -131 -143 q6 -137 131 -144 q125 7 131 144 q-7 136 -131 143 Z" /><glyph glyph-name="" unicode="&#x16b;" d="M355 672 l290 0 l0 -79 l-290 0 l0 79 ZM722 498 l0 -325 q1 -86 6 -173 l-112 0 l-8 51 q-53 -59 -146 -61 q-180 8 -187 215 l0 293 l124 0 l0 -284 q-3 -114 84 -109 q109 6 115 109 l0 284 l124 0 Z" /><glyph glyph-name="" unicode="&#x1ce;" d="M334 700 l83 0 l83 -81 l79 81 l87 0 l-94 -133 l-144 0 l-94 133 ZM738 359 l0 -177 q1 -83 11 -182 l-116 0 l-8 48 q-51 -57 -139 -58 q-223 13 -233 260 q12 245 233 259 q83 -3 128 -49 l14 37 l120 0 q-10 -68 -10 -138 ZM614 202 l0 96 q-11 88 -114 96 q-118 -6 -123 -144 q3 -140 123 -145 q110 3 114 97 Z" /><glyph glyph-name="" unicode="&#x1d0;" d="M334 700 l83 0 l83 -81 l79 81 l87 0 l-94 -133 l-144 0 l-94 133 ZM562 0 l-124 0 l0 498 l124 0 l0 -498 Z" /><glyph glyph-name="" unicode="&#x1d2;" d="M334 700 l83 0 l83 -81 l79 81 l87 0 l-94 -133 l-144 0 l-94 133 ZM500 509 q239 -18 255 -259 q-15 -242 -255 -260 q-240 16 -255 260 q14 243 255 259 ZM500 393 q-123 -7 -131 -143 q6 -137 131 -144 q125 7 131 144 q-7 136 -131 143 Z" /><glyph glyph-name="" unicode="&#x1d4;" d="M334 700 l83 0 l83 -81 l79 81 l87 0 l-94 -133 l-144 0 l-94 133 ZM722 498 l0 -325 q1 -86 6 -173 l-112 0 l-8 51 q-53 -59 -146 -61 q-180 8 -187 215 l0 293 l124 0 l0 -284 q-3 -114 84 -109 q109 6 115 109 l0 284 l124 0 Z" /><glyph glyph-name="" unicode="&#x1d6;" d="M355 792 l290 0 l0 -79 l-290 0 l0 79 ZM722 498 l0 -325 q1 -86 6 -173 l-112 0 l-8 51 q-53 -59 -146 -61 q-180 8 -187 215 l0 293 l124 0 l0 -284 q-3 -114 84 -109 q109 6 115 109 l0 284 l124 0 ZM454 547 l-101 0 l0 109 l101 0 l0 -109 ZM645 547 l-101 0 l0 109 l101 0 l0 -109 Z" /><glyph glyph-name="" unicode="&#x1d8;" d="M608 836 l-138 -135 l-77 0 l94 135 l121 0 ZM722 498 l0 -325 q1 -86 6 -173 l-112 0 l-8 51 q-53 -59 -146 -61 q-180 8 -187 215 l0 293 l124 0 l0 -284 q-3 -114 84 -109 q109 6 115 109 l0 284 l124 0 ZM454 547 l-101 0 l0 109 l101 0 l0 -109 ZM645 547 l-101 0 l0 109 l101 0 l0 -109 Z" /><glyph glyph-name="" unicode="&#x1da;" d="M454 547 l-101 0 l0 109 l101 0 l0 -109 ZM645 547 l-101 0 l0 109 l101 0 l0 -109 ZM334 828 l83 0 l83 -81 l79 81 l87 0 l-94 -133 l-144 0 l-94 133 ZM722 498 l0 -325 q1 -86 6 -173 l-112 0 l-8 51 q-53 -59 -146 -61 q-180 8 -187 215 l0 293 l124 0 l0 -284 q-3 -114 84 -109 q109 6 115 109 l0 284 l124 0 Z" /><glyph glyph-name="" unicode="&#x1dc;" d="M527 701 l-138 135 l131 0 l94 -135 l-87 0 ZM722 498 l0 -325 q1 -86 6 -173 l-112 0 l-8 51 q-53 -59 -146 -61 q-180 8 -187 215 l0 293 l124 0 l0 -284 q-3 -114 84 -109 q109 6 115 109 l0 284 l124 0 ZM454 547 l-101 0 l0 109 l101 0 l0 -109 ZM645 547 l-101 0 l0 109 l101 0 l0 -109 Z" /><glyph glyph-name="" unicode="&#x1f9;" d="M532 566 l-138 135 l121 0 l94 -135 l-77 0 ZM280 0 l0 323 q-1 84 -8 175 l114 0 l6 -55 q56 67 158 66 q171 -15 181 -229 l0 -280 l-124 0 l0 280 q2 116 -91 114 q-105 -7 -112 -114 l0 -280 l-124 0 Z" /><glyph glyph-name="" unicode="&#x251;" d="M738 359 l0 -177 q1 -83 11 -182 l-116 0 l-8 48 q-51 -57 -139 -58 q-223 13 -233 260 q12 245 233 259 q83 -3 128 -49 l14 37 l120 0 q-10 -68 -10 -138 ZM614 202 l0 96 q-11 88 -114 96 q-118 -6 -123 -144 q3 -140 123 -145 q110 3 114 97 Z" /><glyph glyph-name="" unicode="&#x261;" d="M293 -192 l36 112 q94 -36 160 -38 q131 -3 128 114 l0 51 q-52 -45 -137 -47 q-217 13 -227 254 q14 239 228 255 q89 0 148 -58 l8 47 l112 0 q-7 -109 -8 -186 l0 -325 q-3 -218 -254 -221 q-92 1 -194 42 ZM617 209 l0 89 q-9 89 -119 95 q-115 -7 -121 -139 q2 -135 121 -138 q112 6 119 93 Z" /><glyph glyph-name="" unicode="&#x2c7;" d="M334 700 l83 0 l83 -81 l79 81 l87 0 l-94 -133 l-144 0 l-94 133 Z" /><glyph glyph-name="" unicode="&#x2c9;" d="M355 672 l290 0 l0 -79 l-290 0 l0 79 Z" /><glyph glyph-name="" unicode="&#x3a8;" d="M693 714 l131 0 l0 -188 q-4 -292 -259 -333 l0 -193 l-131 0 l0 193 q-254 41 -258 333 l0 188 l131 0 l0 -191 q-1 -173 127 -202 l0 393 l131 0 l0 -393 q128 29 128 202 l0 191 Z" /><glyph glyph-name="" unicode="&#x3a9;" d="M697 120 l121 0 l0 -120 l-268 0 l0 105 q126 116 128 278 q-2 218 -179 222 q-175 -6 -178 -222 q2 -161 127 -279 l0 -104 l-268 0 l0 120 l117 0 q-102 111 -104 263 q10 330 306 343 q296 -13 306 -343 q-2 -152 -108 -263 Z" /><glyph glyph-name="" unicode="&#x2014;" d="M-3 405 l1006 0 l0 -110 l-1006 0 l0 110 Z" /><glyph glyph-name="" unicode="&#x2016;" d="M333 849 l114 0 l0 -1000 l-114 0 l0 1000 ZM554 849 l114 0 l0 -1000 l-114 0 l0 1000 Z" /><glyph glyph-name="" unicode="&#x2018;" d="M683 517 l0 37 q0 99 66 196 l63 0 q-47 -78 -55 -132 q-2 -28 30 -31 l31 0 l0 -133 l-67 0 q-67 1 -68 63 Z" /><glyph glyph-name="" unicode="&#x2019;" d="M318 687 l0 -37 q0 -99 -66 -196 l-63 0 q47 78 55 132 q2 28 -30 31 l-31 0 l0 133 l67 0 q67 -1 68 -63 Z" /><glyph glyph-name="" unicode="&#x201c;" d="M745 517 l0 37 q0 99 66 196 l63 0 q-47 -78 -55 -132 q-2 -28 30 -31 l31 0 l0 -133 l-67 0 q-67 1 -68 63 ZM535 517 l0 37 q0 99 66 196 l63 0 q-47 -78 -55 -132 q-2 -28 30 -31 l31 0 l0 -133 l-67 0 q-67 1 -68 63 Z" /><glyph glyph-name="" unicode="&#x201d;" d="M255 687 l0 -37 q0 -99 -66 -196 l-63 0 q47 78 55 132 q2 28 -30 31 l-31 0 l0 133 l67 0 q67 -1 68 -63 ZM465 687 l0 -37 q0 -99 -66 -196 l-63 0 q47 78 55 132 q2 28 -30 31 l-31 0 l0 133 l67 0 q67 -1 68 -63 Z" /><glyph glyph-name="" unicode="&#x2026;" d="M564 286 l-128 0 l0 126 l128 0 l0 -126 ZM894 286 l-128 0 l0 126 l128 0 l0 -126 ZM233 286 l-128 0 l0 126 l128 0 l0 -126 Z" /><glyph glyph-name="" unicode="&#x2030;" d="M160 725 q145 -9 151 -207 q-6 -198 -151 -207 q-148 5 -151 207 q5 200 151 207 ZM160 617 q-47 2 -46 -99 q-2 -103 46 -99 q47 -3 46 99 q2 101 -46 99 ZM191 -13 l-110 0 l404 735 l110 0 l-404 -735 ZM518 403 q145 -9 151 -207 q-6 -198 -151 -207 q-148 5 -151 207 q5 200 151 207 ZM518 295 q-47 2 -46 -99 q-2 -103 46 -99 q47 -3 46 99 q2 101 -46 99 ZM838 403 q145 -9 151 -207 q-6 -198 -151 -207 q-148 5 -151 207 q5 200 151 207 ZM838 295 q-47 2 -46 -99 q-2 -103 46 -99 q47 -3 46 99 q2 101 -46 99 Z" /><glyph glyph-name="" unicode="&#x2032;" d="M214 725 l126 0 l-124 -177 l-78 0 l76 177 Z" /><glyph glyph-name="" unicode="&#x2033;" d="M308 725 l126 0 l-124 -177 l-78 0 l76 177 ZM143 725 l126 0 l-124 -177 l-78 0 l76 177 Z" /><glyph glyph-name="" unicode="&#x2103;" d="M223 557 q61 3 64 64 q-3 61 -64 64 q-60 -4 -64 -64 q3 -60 64 -64 ZM223 496 q-117 9 -125 125 q10 116 125 125 q116 -9 125 -125 q-8 -116 -125 -125 ZM874 134 l31 -111 q-85 -33 -174 -33 q-354 16 -368 368 q18 350 360 367 q95 1 171 -33 l-28 -109 q-72 22 -141 22 q-222 -13 -234 -247 q8 -239 242 -248 q60 0 141 24 Z" /><glyph glyph-name="" unicode="&#x2160;" d="M437 714 l128 0 l0 -714 l-128 0 l0 714 Z" /><glyph glyph-name="" unicode="&#x2161;" d="M330 714 l128 0 l0 -714 l-128 0 l0 714 ZM540 714 l128 0 l0 -714 l-128 0 l0 714 Z" /><glyph glyph-name="" unicode="&#x2162;" d="M437 714 l128 0 l0 -714 l-128 0 l0 714 ZM223 714 l128 0 l0 -714 l-128 0 l0 714 ZM649 714 l128 0 l0 -714 l-128 0 l0 714 Z" /><glyph glyph-name="" unicode="&#x2163;" d="M170 714 l128 0 l0 -714 l-128 0 l0 714 ZM685 0 l-116 0 l-236 714 l134 0 l160 -545 l160 545 l134 0 l-236 -714 Z" /><glyph glyph-name="" unicode="&#x2164;" d="M557 0 l-116 0 l-236 714 l134 0 l160 -545 l160 545 l134 0 l-236 -714 Z" /><glyph glyph-name="" unicode="&#x2165;" d="M452 0 l-116 0 l-236 714 l134 0 l160 -545 l160 545 l134 0 l-236 -714 ZM708 714 l128 0 l0 -714 l-128 0 l0 714 Z" /><glyph glyph-name="" unicode="&#x2166;" d="M384 0 l-116 0 l-236 714 l134 0 l160 -545 l160 545 l256 0 l0 -714 l-128 0 l0 696 l-230 -696 ZM808 714 l128 0 l0 -714 l-128 0 l0 714 Z" /><glyph glyph-name="" unicode="&#x2167;" d="M353 0 l-116 0 l-226 714 l134 0 l150 -545 l150 545 l217 0 l0 -714 l-128 0 l0 572 l-181 -572 ZM852 714 l128 0 l0 -714 l-128 0 l0 714 ZM692 714 l128 0 l0 -714 l-128 0 l0 714 Z" /><glyph glyph-name="" unicode="&#x2168;" d="M164 714 l128 0 l0 -714 l-128 0 l0 714 ZM894 0 l-142 0 l-140 274 l-141 -274 l-142 0 l218 364 l-205 350 l140 0 l130 -259 l129 259 l140 0 l-204 -350 l217 -364 Z" /><glyph glyph-name="" unicode="&#x2169;" d="M782 0 l-142 0 l-140 274 l-141 -274 l-142 0 l218 364 l-205 350 l140 0 l130 -259 l129 259 l140 0 l-204 -350 l217 -364 Z" /><glyph glyph-name="" unicode="&#x216a;" d="M719 714 l128 0 l0 -714 l-128 0 l0 714 ZM672 0 l-142 0 l-140 274 l-141 -274 l-142 0 l218 364 l-205 350 l140 0 l130 -259 l129 259 l140 0 l-204 -350 l217 -364 Z" /><glyph glyph-name="" unicode="&#x216b;" d="M602 0 l-142 0 l-140 274 l-141 -274 l-142 0 l218 364 l-205 350 l140 0 l130 -259 l129 259 l140 0 l-204 -350 l217 -364 ZM614 714 l128 0 l0 -714 l-128 0 l0 714 ZM808 714 l128 0 l0 -714 l-128 0 l0 714 Z" /><glyph glyph-name="" unicode="&#x2170;" d="M562 0 l-124 0 l0 498 l124 0 l0 -498 ZM565 598 l-130 0 l0 116 l130 0 l0 -116 Z" /><glyph glyph-name="" unicode="&#x2171;" d="M459 0 l-124 0 l0 498 l124 0 l0 -498 ZM462 598 l-130 0 l0 116 l130 0 l0 -116 ZM667 0 l-124 0 l0 498 l124 0 l0 -498 ZM670 598 l-130 0 l0 116 l130 0 l0 -116 Z" /><glyph glyph-name="" unicode="&#x2172;" d="M562 0 l-124 0 l0 498 l124 0 l0 -498 ZM565 598 l-130 0 l0 116 l130 0 l0 -116 ZM372 0 l-124 0 l0 498 l124 0 l0 -498 ZM375 598 l-130 0 l0 116 l130 0 l0 -116 ZM752 0 l-124 0 l0 498 l124 0 l0 -498 ZM755 598 l-130 0 l0 116 l130 0 l0 -116 Z" /><glyph glyph-name="" unicode="&#x2173;" d="M327 0 l-124 0 l0 498 l124 0 l0 -498 ZM330 598 l-130 0 l0 116 l130 0 l0 -116 ZM348 498 l132 0 l110 -335 l110 335 l132 0 l-192 -498 l-100 0 l-192 498 Z" /><glyph glyph-name="" unicode="&#x2174;" d="M258 498 l132 0 l110 -335 l110 335 l132 0 l-192 -498 l-100 0 l-192 498 Z" /><glyph glyph-name="" unicode="&#x2175;" d="M800 0 l-124 0 l0 498 l124 0 l0 -498 ZM803 598 l-130 0 l0 116 l130 0 l0 -116 ZM172 498 l132 0 l110 -335 l110 335 l132 0 l-192 -498 l-100 0 l-192 498 Z" /><glyph glyph-name="" unicode="&#x2176;" d="M711 0 l-124 0 l0 498 l124 0 l0 -498 ZM714 598 l-130 0 l0 116 l130 0 l0 -116 ZM81 498 l132 0 l110 -335 l110 335 l132 0 l-192 -498 l-100 0 l-192 498 ZM878 0 l-124 0 l0 498 l124 0 l0 -498 ZM881 598 l-130 0 l0 116 l130 0 l0 -116 Z" /><glyph glyph-name="" unicode="&#x2177;" d="M641 0 l-124 0 l0 498 l124 0 l0 -498 ZM644 598 l-130 0 l0 116 l130 0 l0 -116 ZM20 498 l132 0 l110 -335 l110 335 l132 0 l-192 -498 l-100 0 l-192 498 ZM798 0 l-124 0 l0 498 l124 0 l0 -498 ZM801 598 l-130 0 l0 116 l130 0 l0 -116 ZM956 0 l-124 0 l0 498 l124 0 l0 -498 ZM959 598 l-130 0 l0 116 l130 0 l0 -116 Z" /><glyph glyph-name="" unicode="&#x2178;" d="M336 0 l-124 0 l0 498 l124 0 l0 -498 ZM339 598 l-130 0 l0 116 l130 0 l0 -116 ZM379 498 l138 0 l92 -163 l96 163 l138 0 l-166 -242 l172 -256 l-140 0 l-100 171 l-96 -171 l-140 0 l173 256 l-167 242 Z" /><glyph glyph-name="" unicode="&#x2179;" d="M268 498 l138 0 l92 -163 l96 163 l138 0 l-166 -242 l172 -256 l-140 0 l-100 171 l-96 -171 l-140 0 l173 256 l-167 242 Z" /><glyph glyph-name="" unicode="&#x2192;" d="M0 368 l820 0 q-72 72 -76 178 q102 -135 256 -192 q-153 -58 -256 -196 q-5 81 76 178 l-820 0 l0 32 Z" /><glyph glyph-name="" unicode="&#x2208;" d="M807 92 l0 -55 l-359 0 q-252 5 -256 304 q4 298 256 303 l359 0 l0 -56 l-365 0 q-182 -12 -185 -218 l532 0 l0 -54 l-532 0 q0 -222 181 -224 l369 0 Z" /><glyph glyph-name="" unicode="&#x220f;" d="M792 628 l0 -626 q-4 -87 97 -81 l0 -23 l-306 0 l0 23 q100 -6 96 81 l0 693 l-358 0 l0 -693 q-4 -87 97 -81 l0 -23 l-307 0 l0 23 q101 -6 97 81 l0 626 q-1 98 -95 99 l0 23 l773 0 l0 -23 q-93 -1 -94 -99 Z" /><glyph glyph-name="" unicode="&#x2211;" d="M762 743 l6 -159 l-20 0 q-1 5 -4 13 q-15 107 -149 101 l-263 0 l273 -358 l-294 -339 l371 0 q57 -1 82 22 q26 19 53 91 l23 0 q-32 -121 -43 -224 q-8 1 -24 4 q-35 7 -53 7 l-503 0 q-10 0 -29 -2 q-19 -1 -29 -1 l349 398 l-347 454 q13 -1 38 -3 q45 -4 66 -4 l497 0 Z" /><glyph glyph-name="" unicode="&#x221a;" d="M485 -9 l498 859 l17 0 l0 -40 l-532 -924 l-21 0 l-321 612 l-113 -63 l-13 32 l185 103 l300 -579 Z" /><glyph glyph-name="" unicode="&#x221d;" d="M185 322 q9 178 162 185 q108 -3 160 -139 q65 136 195 132 q97 -3 108 -29 q-1 -15 -15 -16 q-9 0 -27 2 q-19 1 -28 1 q-130 10 -192 -148 q-5 -10 -8 -15 q66 -107 190 -102 q25 0 59 7 q2 1 3 1 q24 1 23 -13 q-25 -43 -111 -49 q-127 -2 -177 131 q-63 -142 -177 -137 q-157 6 -165 189 ZM215 313 q5 -115 117 -120 q91 -5 153 135 q6 12 9 18 q-49 101 -146 101 q-126 -7 -133 -134 Z" /><glyph glyph-name="" unicode="&#x221e;" d="M677 308 q40 3 43 43 q-3 40 -43 43 q-41 1 -89 -42 q45 -45 89 -44 ZM323 308 q49 0 88 44 q-42 42 -88 43 q-41 -3 -44 -44 q3 -40 44 -43 ZM310 195 q-151 9 -156 156 q7 144 156 155 q101 3 190 -85 q88 86 189 85 q148 -14 157 -155 q-6 -147 -157 -156 q-107 4 -189 91 q-85 -88 -190 -91 Z" /><glyph glyph-name="" unicode="&#x2220;" d="M159 2 l475 628 l33 -26 l-423 -560 l596 0 l0 -42 l-681 0 Z" /><glyph glyph-name="" unicode="&#x2225;" d="M423 -126 l-38 0 l492 976 l38 0 l-492 -976 ZM123 -126 l-38 0 l492 976 l38 0 l-492 -976 Z" /><glyph glyph-name="" unicode="&#x2227;" d="M781 -31 l-51 0 l-218 727 l-242 -719 l-51 0 l261 782 l63 0 l238 -790 Z" /><glyph glyph-name="" unicode="&#x2228;" d="M269 751 l230 -731 l235 731 l47 0 l-250 -793 l-63 0 l-250 793 l51 0 Z" /><glyph glyph-name="" unicode="&#x2229;" d="M748 -1 l0 362 q-6 223 -248 230 q-242 -7 -248 -230 l0 -362 l-58 0 l0 361 q9 279 306 289 q297 -10 306 -289 l0 -361 l-58 0 Z" /><glyph glyph-name="" unicode="&#x222a;" d="M748 267 l0 362 l58 0 l0 -355 q-7 -287 -306 -294 q-299 7 -306 294 l0 355 l58 0 l0 -362 q5 -223 248 -229 q243 6 248 229 Z" /><glyph glyph-name="" unicode="&#x222b;" d="M477 136 l12 330 q10 222 102 227 q28 -2 31 -28 q-1 -19 -21 -20 q-11 0 -23 14 q-6 8 -10 8 q-37 9 -43 -198 l-12 -336 q-10 -343 -105 -326 q-28 2 -31 28 q1 19 21 20 q11 0 23 -14 q6 -8 10 -8 q37 -17 46 303 Z" /><glyph glyph-name="" unicode="&#x222e;" d="M521 346 l-7 -185 q77 11 82 93 q-4 76 -75 92 ZM478 163 l7 184 q-75 -14 -79 -93 q3 -75 72 -91 ZM525 469 l-2 -99 q92 -19 97 -116 q-6 -103 -107 -117 l0 -4 q-5 -136 -21 -220 q-22 -104 -84 -106 q-28 2 -31 28 q1 19 21 20 q11 0 23 -14 q6 -8 10 -8 q39 -2 44 229 l2 76 q-90 21 -95 116 q5 100 103 117 l6 95 q12 227 100 227 q28 -2 31 -28 q-1 -19 -21 -20 q-11 0 -23 14 q-6 8 -10 8 q-41 4 -43 -198 Z" /><glyph glyph-name="" unicode="&#x2234;" d="M231 71 l0 127 l127 0 l0 -127 l-127 0 ZM645 71 l0 127 l127 0 l0 -127 l-127 0 ZM438 441 l0 127 l127 0 l0 -127 l-127 0 Z" /><glyph glyph-name="" unicode="&#x2235;" d="M231 441 l0 127 l127 0 l0 -127 l-127 0 ZM645 441 l0 127 l127 0 l0 -127 l-127 0 ZM437 68 l0 127 l127 0 l0 -127 l-127 0 Z" /><glyph glyph-name="" unicode="&#x2236;" d="M564 474 l-128 0 l0 126 l128 0 l0 -126 ZM564 99 l-128 0 l0 126 l128 0 l0 -126 Z" /><glyph glyph-name="" unicode="&#x2237;" d="M669 547 q45 -5 50 -50 q-5 -45 -50 -50 q-45 5 -50 50 q5 45 50 50 ZM669 193 q45 -5 50 -50 q-5 -45 -50 -50 q-45 5 -50 50 q5 45 50 50 ZM331 547 q45 -5 50 -50 q-5 -45 -50 -50 q-45 5 -50 50 q5 45 50 50 ZM331 193 q45 -5 50 -50 q-5 -45 -50 -50 q-45 5 -50 50 q5 45 50 50 Z" /><glyph glyph-name="" unicode="&#x223d;" d="M883 193 l-42 0 q-9 207 -157 213 q-69 0 -168 -101 q-74 -98 -196 -113 q-193 -2 -204 256 l42 0 q5 -210 156 -214 q108 12 175 103 q70 97 195 111 q188 -5 199 -255 Z" /><glyph glyph-name="" unicode="&#x2248;" d="M830 462 l0 -54 q-87 -70 -167 -67 q-63 0 -173 42 q-98 38 -149 38 q-77 2 -171 -75 l0 54 q87 70 167 67 q63 0 173 -42 q98 -38 149 -38 q77 -2 171 75 ZM830 311 l0 -54 q-87 -70 -167 -67 q-63 0 -173 42 q-98 38 -149 38 q-77 2 -171 -75 l0 54 q87 70 167 67 q63 0 173 -42 q98 -38 149 -38 q77 -2 171 75 Z" /><glyph glyph-name="" unicode="&#x224c;" d="M891 47 l-799 0 l0 42 l799 0 l0 -42 ZM891 189 l-799 0 l0 42 l799 0 l0 -42 ZM883 339 l-42 0 q-9 207 -157 213 q-69 0 -168 -101 q-74 -98 -196 -113 q-193 -2 -204 256 l42 0 q5 -210 156 -214 q108 12 175 103 q70 97 195 111 q188 -5 199 -255 Z" /><glyph glyph-name="" unicode="&#x2260;" d="M396 224 l-229 0 l0 46 l265 0 l79 104 l-344 0 l0 46 l379 0 l177 232 l51 0 l-177 -232 l236 0 l0 -46 l-271 0 l-79 -104 l350 0 l0 -46 l-386 0 l-174 -236 l-51 0 l174 236 Z" /><glyph glyph-name="" unicode="&#x2261;" d="M830 434 l-660 0 l0 46 l660 0 l0 -46 ZM830 160 l-660 0 l0 46 l660 0 l0 -46 ZM830 297 l-660 0 l0 46 l660 0 l0 -46 Z" /><glyph glyph-name="" unicode="&#x2264;" d="M839 229 l0 -60 l-678 187 l0 61 l678 189 l0 -60 l-594 -158 l0 -2 l594 -157 ZM839 46 l0 -59 l-678 191 l0 60 l678 -192 Z" /><glyph glyph-name="" unicode="&#x2265;" d="M839 238 l0 -60 l-678 -191 l0 59 l678 192 ZM839 417 l0 -61 l-678 -187 l0 60 l594 157 l0 2 l-594 158 l0 60 l678 -189 Z" /><glyph glyph-name="" unicode="&#x2299;" d="M500 298 q-52 6 -58 58 q6 52 58 58 q52 -6 58 -58 q-6 -52 -58 -58 ZM500 34 q293 27 320 322 q-27 295 -320 322 q-293 -27 -320 -322 q27 -295 320 -322 ZM500 720 q332 -32 364 -364 q-32 -332 -364 -364 q-332 32 -364 364 q32 332 364 364 Z" /><glyph glyph-name="" unicode="&#x22a5;" d="M202 44 l276 0 l0 586 l44 0 l0 -586 l276 0 l0 -42 l-596 0 l0 42 Z" /><glyph glyph-name="" unicode="&#x2312;" d="M916 227 l-4 -8 q-14 0 -55 44 q-71 126 -347 173 q-11 2 -24 0 q-276 -47 -344 -173 q-40 -44 -54 -44 l-4 8 q143 282 414 281 q281 4 418 -281 Z" /><glyph glyph-name="" unicode="&#x2460;" d="M500 -46 q362 33 395 395 q-33 362 -395 395 q-362 -33 -395 -395 q33 -362 395 -395 ZM442 62 l0 445 l-92 -43 l0 104 l146 66 l57 0 l0 -572 l-111 0 ZM500 -128 q-438 41 -479 478 q41 438 479 479 q437 -41 478 -479 q-41 -437 -478 -478 Z" /><glyph glyph-name="" unicode="&#x2461;" d="M500 -128 q-438 41 -479 478 q41 438 479 479 q437 -41 478 -479 q-41 -437 -478 -478 ZM500 -46 q362 33 395 395 q-33 362 -395 395 q-362 -33 -395 -395 q33 -362 395 -395 ZM673 63 l-348 0 l0 69 q65 86 172 213 q65 74 65 136 q0 58 -64 58 q-55 -1 -132 -44 l-24 97 q83 51 163 51 q163 -6 168 -162 q2 -97 -93 -202 q-47 -52 -95 -112 l188 0 l0 -104 Z" /><glyph glyph-name="" unicode="&#x2462;" d="M325 96 l28 93 q60 -26 122 -27 q87 1 88 80 q-3 72 -74 76 l-66 0 l0 104 l66 0 q60 3 62 67 q-1 54 -59 54 q-62 0 -118 -24 l-26 94 q70 33 148 33 q160 -5 165 -152 q1 -75 -68 -124 q80 -45 80 -131 q-7 -174 -189 -181 q-80 0 -159 38 ZM500 -46 q362 33 395 395 q-33 362 -395 395 q-362 -33 -395 -395 q33 -362 395 -395 ZM500 -128 q-438 41 -479 478 q41 438 479 479 q437 -41 478 -479 q-41 -437 -478 -478 Z" /><glyph glyph-name="" unicode="&#x2463;" d="M624 63 l-111 0 l0 116 l-231 0 l0 83 l232 372 l110 0 l0 -351 l51 0 l0 -104 l-51 0 l0 -116 ZM396 283 l117 0 l0 187 l-117 -187 ZM500 -46 q362 33 395 395 q-33 362 -395 395 q-362 -33 -395 -395 q33 -362 395 -395 ZM500 -128 q-438 41 -479 478 q41 438 479 479 q437 -41 478 -479 q-41 -437 -478 -478 Z" /><glyph glyph-name="" unicode="&#x2464;" d="M648 634 l0 -104 l-198 0 l-4 -101 q18 3 41 3 q182 -8 188 -186 q-5 -186 -207 -191 q-68 0 -140 35 l27 92 q66 -24 114 -24 q95 1 96 88 q1 84 -90 83 q-57 0 -129 -19 l14 324 l288 0 ZM500 -46 q362 33 395 395 q-33 362 -395 395 q-362 -33 -395 -395 q33 -362 395 -395 ZM500 -128 q-438 41 -479 478 q41 438 479 479 q437 -41 478 -479 q-41 -437 -478 -478 Z" /><glyph glyph-name="" unicode="&#x2465;" d="M631 644 l13 -100 q-172 3 -226 -148 q47 33 101 34 q159 -12 171 -183 q-10 -179 -188 -191 q-189 10 -197 238 q12 336 326 350 ZM502 160 q75 3 77 87 q-1 78 -78 79 q-47 -2 -86 -47 q4 -117 87 -119 ZM500 -46 q362 33 395 395 q-33 362 -395 395 q-362 -33 -395 -395 q33 -362 395 -395 ZM500 -128 q-438 41 -479 478 q41 438 479 479 q437 -41 478 -479 q-41 -437 -478 -478 Z" /><glyph glyph-name="" unicode="&#x2466;" d="M327 634 l347 0 l0 -66 l-192 -505 l-118 0 l196 467 l-233 0 l0 104 ZM500 -46 q362 33 395 395 q-33 362 -395 395 q-362 -33 -395 -395 q33 -362 395 -395 ZM500 -128 q-438 41 -479 478 q41 438 479 479 q437 -41 478 -479 q-41 -437 -478 -478 Z" /><glyph glyph-name="" unicode="&#x2467;" d="M311 225 q3 85 97 145 q-80 57 -81 131 q9 138 173 145 q167 -6 174 -145 q-1 -78 -82 -132 q98 -55 97 -144 q-11 -156 -189 -167 q-179 10 -189 167 ZM498 154 q77 5 83 75 q-1 62 -93 94 q-68 -36 -70 -94 q4 -72 80 -75 ZM500 552 q-65 -3 -69 -54 q3 -50 78 -84 q58 34 61 84 q-3 52 -70 54 ZM500 -46 q362 33 395 395 q-33 362 -395 395 q-362 -33 -395 -395 q33 -362 395 -395 ZM500 -128 q-438 41 -479 478 q41 438 479 479 q437 -41 478 -479 q-41 -437 -478 -478 Z" /><glyph glyph-name="" unicode="&#x2468;" d="M363 55 l-14 103 q172 4 227 145 q-45 -32 -93 -33 q-162 9 -170 183 q11 180 185 190 q186 -4 190 -237 q-7 -343 -325 -351 ZM498 539 q-72 -3 -75 -86 q1 -78 75 -79 q50 1 80 41 q-3 122 -80 124 ZM500 -46 q362 33 395 395 q-33 362 -395 395 q-362 -33 -395 -395 q33 -362 395 -395 ZM500 -128 q-438 41 -479 478 q41 438 479 479 q437 -41 478 -479 q-41 -437 -478 -478 Z" /><glyph glyph-name="" unicode="&#x2469;" d="M626 646 q189 -9 195 -295 q-6 -283 -195 -293 q-189 10 -195 293 q6 286 195 295 ZM626 542 q-85 -1 -85 -191 q-1 -190 85 -189 q85 0 85 189 q-1 190 -85 191 ZM287 64 l0 445 l-92 -43 l0 104 l146 66 l57 0 l0 -572 l-111 0 ZM500 -46 q362 33 395 395 q-33 362 -395 395 q-362 -33 -395 -395 q33 -362 395 -395 ZM500 -128 q-438 41 -479 478 q41 438 479 479 q437 -41 478 -479 q-41 -437 -478 -478 Z" /><glyph glyph-name="" unicode="&#x2474;" d="M155 810 l102 0 q-133 -211 -134 -463 q2 -250 134 -461 l-102 0 q-138 224 -136 462 q3 267 136 462 ZM844 -114 l-102 0 q132 211 134 461 q-1 252 -134 463 l102 0 q133 -195 136 -462 q2 -238 -136 -462 ZM436 0 l0 567 l-120 -56 l0 121 l182 82 l66 0 l0 -714 l-128 0 Z" /><glyph glyph-name="" unicode="&#x2475;" d="M155 810 l102 0 q-133 -211 -134 -463 q2 -250 134 -461 l-102 0 q-138 224 -136 462 q3 267 136 462 ZM844 -114 l-102 0 q132 211 134 461 q-1 252 -134 463 l102 0 q133 -195 136 -462 q2 -238 -136 -462 ZM716 0 l-432 0 l0 79 q106 141 217 269 q87 99 84 175 q0 82 -86 82 q-71 -1 -165 -54 l-28 112 q102 62 202 62 q198 -7 205 -202 q3 -122 -116 -251 q-73 -80 -127 -152 l246 0 l0 -120 Z" /><glyph glyph-name="" unicode="&#x2476;" d="M155 810 l102 0 q-133 -211 -134 -463 q2 -250 134 -461 l-102 0 q-138 224 -136 462 q3 267 136 462 ZM844 -114 l-102 0 q132 211 134 461 q-1 252 -134 463 l102 0 q133 -195 136 -462 q2 -238 -136 -462 ZM286 35 l33 108 q73 -32 150 -33 q117 1 118 109 q-5 96 -103 101 l-78 0 l0 120 l78 0 q86 3 88 92 q1 73 -80 73 q-79 0 -147 -30 l-31 110 q87 40 183 40 q196 -7 203 -186 q0 -98 -90 -159 q106 -55 105 -165 q-9 -216 -234 -225 q-104 0 -195 45 Z" /><glyph glyph-name="" unicode="&#x2477;" d="M155 810 l102 0 q-133 -211 -134 -463 q2 -250 134 -461 l-102 0 q-138 224 -136 462 q3 267 136 462 ZM844 -114 l-102 0 q132 211 134 461 q-1 252 -134 463 l102 0 q133 -195 136 -462 q2 -238 -136 -462 ZM676 0 l-128 0 l0 148 l-292 0 l0 98 l292 468 l128 0 l0 -446 l67 0 l0 -120 l-67 0 l0 -148 ZM388 268 l160 0 l0 257 l-160 -257 Z" /><glyph glyph-name="" unicode="&#x2478;" d="M155 810 l102 0 q-133 -211 -134 -463 q2 -250 134 -461 l-102 0 q-138 224 -136 462 q3 267 136 462 ZM844 -114 l-102 0 q132 211 134 461 q-1 252 -134 463 l102 0 q133 -195 136 -462 q2 -238 -136 -462 ZM681 714 l0 -119 l-250 0 l-6 -138 q16 4 50 4 q230 -7 238 -233 q-6 -232 -256 -238 q-85 0 -172 42 l32 108 q82 -30 141 -30 q125 2 127 118 q1 114 -122 113 q-67 0 -155 -23 l18 396 l355 0 Z" /><glyph glyph-name="" unicode="&#x2479;" d="M155 810 l102 0 q-133 -211 -134 -463 q2 -250 134 -461 l-102 0 q-138 224 -136 462 q3 267 136 462 ZM844 -114 l-102 0 q132 211 134 461 q-1 252 -134 463 l102 0 q133 -195 136 -462 q2 -238 -136 -462 ZM666 725 l15 -116 q-218 3 -286 -199 q63 46 132 47 q196 -15 210 -229 q-13 -224 -232 -238 q-232 12 -241 295 q15 424 402 440 ZM505 110 q100 6 104 118 q-2 107 -105 109 q-63 -3 -112 -65 q6 -158 113 -162 Z" /><glyph glyph-name="" unicode="&#x247a;" d="M155 810 l102 0 q-133 -211 -134 -463 q2 -250 134 -461 l-102 0 q-138 224 -136 462 q3 267 136 462 ZM844 -114 l-102 0 q132 211 134 461 q-1 252 -134 463 l102 0 q133 -195 136 -462 q2 -238 -136 -462 ZM285 714 l433 0 l0 -83 l-239 -631 l-148 0 l245 584 l-291 0 l0 130 Z" /><glyph glyph-name="" unicode="&#x247b;" d="M155 810 l102 0 q-133 -211 -134 -463 q2 -250 134 -461 l-102 0 q-138 224 -136 462 q3 267 136 462 ZM844 -114 l-102 0 q132 211 134 461 q-1 252 -134 463 l102 0 q133 -195 136 -462 q2 -238 -136 -462 ZM267 197 q1 106 124 182 q-103 70 -104 164 q12 172 212 182 q204 -9 214 -182 q-1 -98 -107 -165 q129 -68 126 -180 q-14 -194 -233 -208 q-219 13 -232 207 ZM497 104 q104 6 111 95 q-1 83 -124 126 q-91 -46 -93 -126 q4 -91 106 -95 ZM499 613 q-85 -3 -90 -70 q3 -65 102 -112 q77 45 80 112 q-3 68 -92 70 Z" /><glyph glyph-name="" unicode="&#x247c;" d="M155 810 l102 0 q-133 -211 -134 -463 q2 -250 134 -461 l-102 0 q-138 224 -136 462 q3 267 136 462 ZM844 -114 l-102 0 q132 211 134 461 q-1 252 -134 463 l102 0 q133 -195 136 -462 q2 -238 -136 -462 ZM334 -10 l-17 119 q229 5 289 198 q-59 -48 -125 -49 q-199 12 -210 229 q14 225 229 238 q229 -6 234 -299 q-12 -422 -400 -436 ZM500 605 q-97 -4 -101 -118 q1 -107 101 -109 q68 1 106 59 q-3 163 -106 168 Z" /><glyph glyph-name="" unicode="&#x247d;" d="M618 725 q234 -10 240 -369 q-6 -355 -240 -366 q-233 10 -240 366 q7 359 240 369 ZM223 0 l0 567 l-81 -38 q-19 -86 -19 -182 q2 -250 134 -461 l-102 0 q-138 224 -136 462 q3 267 136 462 l102 0 q-42 -64 -73 -141 l101 45 l66 0 l0 -714 l-128 0 ZM844 -114 l-102 0 q132 211 134 461 q-1 252 -134 463 l102 0 q133 -195 136 -462 q2 -238 -136 -462 ZM618 605 q-112 0 -112 -249 q-1 -249 112 -246 q113 -1 112 246 q0 250 -112 249 Z" /><glyph glyph-name="" unicode="&#x247e;" d="M155 810 l102 0 q-133 -211 -134 -463 q2 -250 134 -461 l-102 0 q-138 224 -136 462 q3 267 136 462 ZM844 -114 l-102 0 q132 211 134 461 q-1 252 -134 463 l102 0 q133 -195 136 -462 q2 -238 -136 -462 ZM292 0 l0 567 l-105 -49 l0 121 l167 75 l66 0 l0 -714 l-128 0 ZM605 0 l0 567 l-105 -49 l0 121 l167 75 l66 0 l0 -714 l-128 0 Z" /><glyph glyph-name="" unicode="&#x247f;" d="M844 -114 l-102 0 q34 52 61 114 l-421 0 l0 86 q102 132 216 266 q80 94 81 170 q0 73 -80 73 q-69 -1 -165 -55 l-30 121 q105 64 204 64 q202 -7 209 -203 q3 -123 -116 -252 q-72 -80 -119 -140 l236 0 l0 -93 q58 152 58 310 q-1 252 -134 463 l102 0 q133 -195 136 -462 q2 -238 -136 -462 ZM235 0 l0 567 l-94 -44 q-18 -84 -18 -176 q2 -250 134 -461 l-102 0 q-138 224 -136 462 q3 267 136 462 l102 0 q-43 -67 -75 -148 l115 52 l66 0 l0 -714 l-128 0 Z" /><glyph glyph-name="" unicode="&#x2480;" d="M235 0 l0 567 l-94 -44 q-18 -84 -18 -176 q2 -250 134 -461 l-102 0 q-138 224 -136 462 q3 267 136 462 l102 0 q-43 -67 -75 -148 l115 52 l66 0 l0 -714 l-128 0 ZM393 35 l33 108 q73 -32 150 -33 q117 1 118 109 q-5 96 -103 101 l-78 0 l0 120 l78 0 q86 3 88 92 q1 73 -80 73 q-79 0 -147 -30 l-31 110 q87 40 183 40 q196 -7 203 -186 q0 -98 -90 -159 q106 -55 105 -165 q-9 -216 -234 -225 q-104 0 -195 45 ZM844 -114 l-102 0 q132 211 134 461 q-1 252 -134 463 l102 0 q133 -195 136 -462 q2 -238 -136 -462 Z" /><glyph glyph-name="" unicode="&#x2481;" d="M785 0 l-128 0 l0 148 l-292 0 l0 98 l292 468 l128 0 l0 -446 l67 0 l0 -120 l-67 0 l0 -148 ZM226 0 l0 567 l-84 -39 q-18 -86 -19 -181 q2 -250 134 -461 l-102 0 q-138 224 -136 462 q3 267 136 462 l102 0 q-42 -66 -74 -143 l105 47 l66 0 l0 -714 l-128 0 ZM844 -114 l-102 0 q132 211 134 461 q-1 252 -134 463 l102 0 q133 -195 136 -462 q2 -238 -136 -462 ZM497 268 l160 0 l0 257 l-160 -257 Z" /><glyph glyph-name="" unicode="&#x2482;" d="M844 -114 l-102 0 q132 211 134 461 q0 175 -67 335 l0 -87 l-250 0 l-6 -138 q16 4 50 4 q230 -7 238 -233 q-6 -232 -256 -238 q-85 0 -172 42 l32 108 q82 -30 141 -30 q125 2 127 118 q1 114 -122 113 q-67 0 -155 -23 l18 396 l341 0 q-24 51 -53 96 l102 0 q133 -195 136 -462 q2 -238 -136 -462 ZM235 0 l0 567 l-94 -44 q-18 -84 -18 -176 q2 -250 134 -461 l-102 0 q-138 224 -136 462 q3 267 136 462 l102 0 q-43 -67 -75 -148 l115 52 l66 0 l0 -714 l-128 0 Z" /><glyph glyph-name="" unicode="&#x2483;" d="M777 725 l15 -116 q-218 3 -286 -199 q63 46 132 47 q196 -15 210 -229 q-13 -224 -232 -238 q-232 12 -241 295 q15 424 402 440 ZM230 0 l0 567 l-89 -42 q-18 -84 -18 -178 q2 -250 134 -461 l-102 0 q-138 224 -136 462 q3 267 136 462 l102 0 q-46 -72 -74 -145 l109 49 l66 0 l0 -714 l-128 0 ZM844 -114 l-102 0 q132 211 134 461 q-1 252 -134 463 l102 0 q133 -195 136 -462 q2 -238 -136 -462 ZM616 110 q100 6 104 118 q-2 107 -105 109 q-63 -3 -112 -65 q6 -158 113 -162 Z" /><glyph glyph-name="" unicode="&#x2484;" d="M404 714 l391 0 q-24 51 -53 96 l102 0 q133 -195 136 -462 q2 -238 -136 -462 l-102 0 q132 211 134 461 q0 143 -47 281 l-238 -628 l-138 0 l248 594 l-297 0 l0 120 ZM235 0 l0 567 l-94 -44 q-18 -84 -18 -176 q2 -250 134 -461 l-102 0 q-138 224 -136 462 q3 267 136 462 l102 0 q-43 -67 -75 -148 l115 52 l66 0 l0 -714 l-128 0 Z" /><glyph glyph-name="" unicode="&#x2485;" d="M377 197 q1 106 124 182 q-103 70 -104 164 q12 172 212 182 q204 -9 214 -182 q-1 -98 -107 -165 q129 -68 126 -180 q-14 -194 -233 -208 q-219 13 -232 207 ZM235 0 l0 567 l-94 -44 q-18 -84 -18 -176 q2 -250 134 -461 l-102 0 q-138 224 -136 462 q3 267 136 462 l102 0 q-43 -67 -75 -148 l115 52 l66 0 l0 -714 l-128 0 ZM844 -114 l-102 0 q132 211 134 461 q-1 252 -134 463 l102 0 q133 -195 136 -462 q2 -238 -136 -462 ZM607 104 q104 6 111 95 q-1 83 -124 126 q-91 -46 -93 -126 q4 -91 106 -95 ZM609 613 q-85 -3 -90 -70 q3 -65 102 -112 q77 45 80 112 q-3 68 -92 70 Z" /><glyph glyph-name="" unicode="&#x2486;" d="M444 -10 l-17 119 q229 5 289 198 q-59 -48 -125 -49 q-199 12 -210 229 q14 225 229 238 q229 -6 234 -299 q-12 -422 -400 -436 ZM235 0 l0 567 l-94 -44 q-18 -84 -18 -176 q2 -250 134 -461 l-102 0 q-138 224 -136 462 q3 267 136 462 l102 0 q-43 -67 -75 -148 l115 52 l66 0 l0 -714 l-128 0 ZM844 -114 l-102 0 q132 211 134 461 q-1 252 -134 463 l102 0 q133 -195 136 -462 q2 -238 -136 -462 ZM610 605 q-97 -4 -101 -118 q1 -107 101 -109 q68 1 106 59 q-3 163 -106 168 Z" /><glyph glyph-name="" unicode="&#x2487;" d="M504 0 l-308 0 q27 -62 61 -114 l-102 0 q-138 224 -136 462 q3 267 136 462 l102 0 q-38 -58 -67 -127 q64 44 135 42 q169 -7 176 -200 q38 200 174 200 q187 -2 188 -369 q-1 -364 -188 -366 q-186 2 -188 366 q0 31 0 47 q1 18 2 33 q-12 -54 -74 -164 q-59 -104 -91 -152 l180 0 l0 -120 ZM844 -114 l-102 0 q132 211 134 461 q-1 252 -134 463 l102 0 q133 -195 136 -462 q2 -238 -136 -462 ZM193 557 l-19 86 q-51 -142 -51 -296 q0 -135 43 -267 q119 185 166 268 q61 103 59 175 q0 82 -73 82 q-51 3 -125 -48 ZM675 605 q-80 6 -78 -249 q-3 -254 78 -246 q80 -6 78 246 q2 255 -78 249 Z" /><glyph glyph-name="" unicode="&#x2488;" d="M436 0 l0 567 l-120 -56 l0 121 l182 82 l66 0 l0 -714 l-128 0 ZM807 0 l0 128 l128 0 l0 -128 l-128 0 Z" /><glyph glyph-name="" unicode="&#x2489;" d="M807 0 l0 128 l128 0 l0 -128 l-128 0 ZM716 0 l-432 0 l0 79 q106 141 217 269 q87 99 84 175 q0 82 -86 82 q-71 -1 -165 -54 l-28 112 q102 62 202 62 q198 -7 205 -202 q3 -122 -116 -251 q-73 -80 -127 -152 l246 0 l0 -120 Z" /><glyph glyph-name="" unicode="&#x248a;" d="M807 0 l0 128 l128 0 l0 -128 l-128 0 ZM286 35 l33 108 q73 -32 150 -33 q117 1 118 109 q-5 96 -103 101 l-78 0 l0 120 l78 0 q86 3 88 92 q1 73 -80 73 q-79 0 -147 -30 l-31 110 q87 40 183 40 q196 -7 203 -186 q0 -98 -90 -159 q106 -55 105 -165 q-9 -216 -234 -225 q-104 0 -195 45 Z" /><glyph glyph-name="" unicode="&#x248b;" d="M807 0 l0 128 l128 0 l0 -128 l-128 0 ZM676 0 l-128 0 l0 148 l-292 0 l0 98 l292 468 l128 0 l0 -446 l67 0 l0 -120 l-67 0 l0 -148 ZM388 268 l160 0 l0 257 l-160 -257 Z" /><glyph glyph-name="" unicode="&#x248c;" d="M807 0 l0 128 l128 0 l0 -128 l-128 0 ZM681 714 l0 -119 l-250 0 l-6 -138 q16 4 50 4 q230 -7 238 -233 q-6 -232 -256 -238 q-85 0 -172 42 l32 108 q82 -30 141 -30 q125 2 127 118 q1 114 -122 113 q-67 0 -155 -23 l18 396 l355 0 Z" /><glyph glyph-name="" unicode="&#x248d;" d="M807 0 l0 128 l128 0 l0 -128 l-128 0 ZM666 725 l15 -116 q-218 3 -286 -199 q63 46 132 47 q196 -15 210 -229 q-13 -224 -232 -238 q-232 12 -241 295 q15 424 402 440 ZM505 110 q100 6 104 118 q-2 107 -105 109 q-63 -3 -112 -65 q6 -158 113 -162 Z" /><glyph glyph-name="" unicode="&#x248e;" d="M807 0 l0 128 l128 0 l0 -128 l-128 0 ZM287 714 l429 0 l0 -76 l-242 -638 l-138 0 l248 594 l-297 0 l0 120 Z" /><glyph glyph-name="" unicode="&#x248f;" d="M807 0 l0 128 l128 0 l0 -128 l-128 0 ZM267 197 q1 106 124 182 q-103 70 -104 164 q12 172 212 182 q204 -9 214 -182 q-1 -98 -107 -165 q129 -68 126 -180 q-14 -194 -233 -208 q-219 13 -232 207 ZM497 104 q104 6 111 95 q-1 83 -124 126 q-91 -46 -93 -126 q4 -91 106 -95 ZM499 613 q-85 -3 -90 -70 q3 -65 102 -112 q77 45 80 112 q-3 68 -92 70 Z" /><glyph glyph-name="" unicode="&#x2490;" d="M807 0 l0 128 l128 0 l0 -128 l-128 0 ZM334 -10 l-17 119 q229 5 289 198 q-59 -48 -125 -49 q-199 12 -210 229 q14 225 229 238 q229 -6 234 -299 q-12 -422 -400 -436 ZM500 605 q-97 -4 -101 -118 q1 -107 101 -109 q68 1 106 59 q-3 163 -106 168 Z" /><glyph glyph-name="" unicode="&#x2491;" d="M579 725 q234 -10 240 -369 q-6 -355 -240 -366 q-233 10 -240 366 q7 359 240 369 ZM579 605 q-112 0 -112 -249 q-1 -249 112 -246 q113 -1 112 246 q0 250 -112 249 ZM807 0 l0 128 l128 0 l0 -128 l-128 0 ZM176 0 l0 567 l-120 -56 l0 121 l182 82 l66 0 l0 -714 l-128 0 Z" /><glyph glyph-name="" unicode="&#x2492;" d="M807 0 l0 128 l128 0 l0 -128 l-128 0 ZM216 0 l0 567 l-120 -56 l0 121 l182 82 l66 0 l0 -714 l-128 0 ZM571 0 l0 567 l-120 -56 l0 121 l182 82 l66 0 l0 -714 l-128 0 Z" /><glyph glyph-name="" unicode="&#x2493;" d="M835 0 l0 128 l128 0 l0 -128 l-128 0 ZM796 0 l-432 0 l0 79 q106 141 217 269 q87 99 84 175 q0 82 -86 82 q-71 -1 -165 -54 l-28 112 q102 62 202 62 q198 -7 205 -202 q3 -122 -116 -251 q-73 -80 -127 -152 l246 0 l0 -120 ZM189 0 l0 567 l-120 -56 l0 121 l182 82 l66 0 l0 -714 l-128 0 Z" /><glyph glyph-name="" unicode="&#x2494;" d="M835 0 l0 128 l128 0 l0 -128 l-128 0 ZM189 0 l0 567 l-120 -56 l0 121 l182 82 l66 0 l0 -714 l-128 0 ZM392 35 l33 108 q73 -32 150 -33 q117 1 118 109 q-5 96 -103 101 l-78 0 l0 120 l78 0 q86 3 88 92 q1 73 -80 73 q-79 0 -147 -30 l-31 110 q87 40 183 40 q196 -7 203 -186 q0 -98 -90 -159 q106 -55 105 -165 q-9 -216 -234 -225 q-104 0 -195 45 Z" /><glyph glyph-name="" unicode="&#x2495;" d="M835 0 l0 128 l128 0 l0 -128 l-128 0 ZM189 0 l0 567 l-120 -56 l0 121 l182 82 l66 0 l0 -714 l-128 0 ZM760 0 l-128 0 l0 148 l-292 0 l0 98 l292 468 l128 0 l0 -446 l67 0 l0 -120 l-67 0 l0 -148 ZM472 268 l160 0 l0 257 l-160 -257 Z" /><glyph glyph-name="" unicode="&#x2496;" d="M835 0 l0 128 l128 0 l0 -128 l-128 0 ZM189 0 l0 567 l-120 -56 l0 121 l182 82 l66 0 l0 -714 l-128 0 ZM769 714 l0 -119 l-250 0 l-6 -138 q16 4 50 4 q230 -7 238 -233 q-6 -232 -256 -238 q-85 0 -172 42 l32 108 q82 -30 141 -30 q125 2 127 118 q1 114 -122 113 q-67 0 -155 -23 l18 396 l355 0 Z" /><glyph glyph-name="" unicode="&#x2497;" d="M835 0 l0 128 l128 0 l0 -128 l-128 0 ZM189 0 l0 567 l-120 -56 l0 121 l182 82 l66 0 l0 -714 l-128 0 ZM759 725 l15 -116 q-218 3 -286 -199 q63 46 132 47 q196 -15 210 -229 q-13 -224 -232 -238 q-232 12 -241 295 q15 424 402 440 ZM598 110 q100 6 104 118 q-2 107 -105 109 q-63 -3 -112 -65 q6 -158 113 -162 Z" /><glyph glyph-name="" unicode="&#x2498;" d="M835 0 l0 128 l128 0 l0 -128 l-128 0 ZM189 0 l0 567 l-120 -56 l0 121 l182 82 l66 0 l0 -714 l-128 0 ZM377 714 l429 0 l0 -76 l-242 -638 l-138 0 l248 594 l-297 0 l0 120 Z" /><glyph glyph-name="" unicode="&#x2499;" d="M835 0 l0 128 l128 0 l0 -128 l-128 0 ZM189 0 l0 567 l-120 -56 l0 121 l182 82 l66 0 l0 -714 l-128 0 ZM357 197 q1 106 124 182 q-103 70 -104 164 q12 172 212 182 q204 -9 214 -182 q-1 -98 -107 -165 q129 -68 126 -180 q-14 -194 -233 -208 q-219 13 -232 207 ZM587 104 q104 6 111 95 q-1 83 -124 126 q-91 -46 -93 -126 q4 -91 106 -95 ZM589 613 q-85 -3 -90 -70 q3 -65 102 -112 q77 45 80 112 q-3 68 -92 70 Z" /><glyph glyph-name="" unicode="&#x249a;" d="M835 0 l0 128 l128 0 l0 -128 l-128 0 ZM189 0 l0 567 l-120 -56 l0 121 l182 82 l66 0 l0 -714 l-128 0 ZM434 -10 l-17 119 q229 5 289 198 q-59 -48 -125 -49 q-199 12 -210 229 q14 225 229 238 q229 -6 234 -299 q-12 -422 -400 -436 ZM600 605 q-97 -4 -101 -118 q1 -107 101 -109 q68 1 106 59 q-3 163 -106 168 Z" /><glyph glyph-name="" unicode="&#x249b;" d="M644 725 q218 -2 219 -369 q-1 -364 -219 -366 q-217 1 -219 366 q2 367 219 369 ZM644 605 q-94 6 -91 -249 q-4 -254 91 -246 q93 -6 91 246 q2 255 -91 249 ZM862 0 l0 128 l128 0 l0 -128 l-128 0 ZM401 0 l-395 0 l0 79 q8 10 25 33 q122 164 170 236 q72 105 69 175 q0 82 -86 82 q-60 3 -145 -48 l-28 112 q92 59 182 56 q198 -7 205 -202 q5 -99 -101 -251 q-64 -98 -105 -152 l209 0 l0 -120 Z" /><glyph glyph-name="" unicode="&#x25a1;" d="M900 -64 l-800 0 l0 800 l800 0 l0 -800 ZM144 692 l0 -712 l712 0 l0 712 l-712 0 Z" /><glyph glyph-name="" unicode="&#x25b2;" d="M865 0 l-730 0 l365 736 l365 -736 Z" /><glyph glyph-name="" unicode="&#x25cf;" d="M500 720 q332 -32 364 -364 q-32 -332 -364 -364 q-332 32 -364 364 q32 332 364 364 Z" /><glyph glyph-name="" unicode="&#x2640;" d="M323 504 q14 -162 177 -177 q163 15 177 177 q-14 162 -177 177 q-163 -15 -177 -177 ZM330 76 l0 44 l148 0 l0 165 q-184 32 -199 219 q19 202 221 221 q202 -19 221 -221 q-15 -187 -199 -219 l0 -165 l148 0 l0 -44 l-148 0 l0 -121 l-44 0 l0 121 l-148 0 Z" /><glyph glyph-name="" unicode="&#x2642;" d="M323 178 q14 -162 177 -177 q163 15 177 177 q-14 162 -177 177 q-163 -15 -177 -177 ZM328 536 l-12 17 q6 5 19 14 q120 88 156 157 l20 0 q39 -75 174 -164 l-11 -23 q-88 37 -152 98 l0 -237 q184 -33 199 -220 q-19 -202 -221 -221 q-202 19 -221 221 q15 186 199 220 l0 236 q-65 -56 -150 -98 Z" /><glyph glyph-name="" unicode="&#x3001;" d="M309 -34 l-171 207 l75 61 l175 -204 l-79 -64 Z" /><glyph glyph-name="" unicode="&#x3002;" d="M250 25 q86 6 91 91 q-6 86 -91 92 q-85 -6 -92 -92 q6 -85 92 -91 ZM250 -47 q-152 12 -164 163 q13 152 164 164 q151 -12 163 -164 q-11 -150 -163 -163 Z" /><glyph glyph-name="" unicode="&#x3003;" d="M275 161 l125 376 l143 0 l-172 -376 l-96 0 ZM455 161 l125 376 l143 0 l-172 -376 l-96 0 Z" /><glyph glyph-name="" unicode="&#x3005;" d="M754 12 l-67 -112 q-205 158 -467 306 l95 86 q86 -47 159 -92 q139 148 221 272 l-347 0 q-79 -104 -180 -193 q-43 44 -120 65 q219 186 351 458 l115 -65 q-38 -77 -83 -148 l428 0 l0 -105 q-111 -175 -272 -354 q86 -57 167 -118 Z" /><glyph glyph-name="" unicode="&#x3008;" d="M600 -53 l-160 404 l160 403 l114 0 l-160 -403 l160 -404 l-114 0 Z" /><glyph glyph-name="" unicode="&#x3009;" d="M285 -53 l160 404 l-160 403 l114 0 l160 -403 l-160 -404 l-114 0 Z" /><glyph glyph-name="" unicode="&#x300a;" d="M704 -53 l-160 404 l160 403 l114 0 l-160 -403 l160 -404 l-114 0 ZM496 -53 l-160 404 l160 403 l115 0 l-160 -403 l160 -404 l-115 0 Z" /><glyph glyph-name="" unicode="&#x300b;" d="M177 -53 l160 404 l-160 403 l123 0 l160 -403 l-160 -404 l-123 0 ZM385 -53 l160 404 l-160 403 l122 0 l160 -403 l-160 -404 l-122 0 Z" /><glyph glyph-name="" unicode="&#x300c;" d="M430 -53 l0 807 l253 0 l0 -107 l-139 0 l0 -700 l-114 0 Z" /><glyph glyph-name="" unicode="&#x300d;" d="M558 754 l0 -807 l-253 0 l0 107 l139 0 l0 700 l114 0 Z" /><glyph glyph-name="" unicode="&#x300e;" d="M403 -54 l0 810 l304 0 l0 -189 l-106 0 l0 -621 l-198 0 ZM530 13 l0 621 l110 0 l0 55 l-169 0 l0 -676 l59 0 Z" /><glyph glyph-name="" unicode="&#x300f;" d="M597 756 l0 -810 l-304 0 l0 189 l106 0 l0 621 l198 0 ZM470 689 l0 -621 l-110 0 l0 -55 l169 0 l0 676 l-59 0 Z" /><glyph glyph-name="" unicode="&#x3010;" d="M443 -53 l0 807 l247 0 q-128 -151 -132 -403 q-2 -257 133 -404 l-248 0 Z" /><glyph glyph-name="" unicode="&#x3011;" d="M310 754 l247 0 l0 -807 l-248 0 q135 147 133 404 q-4 252 -132 403 Z" /><glyph glyph-name="" unicode="&#x3014;" d="M693 -53 l-250 71 l0 669 l250 67 l0 -111 l-136 -37 l0 -506 l136 -41 l0 -112 Z" /><glyph glyph-name="" unicode="&#x3015;" d="M558 19 l-250 -71 l0 112 l135 41 l0 506 l-135 37 l0 111 l250 -67 l0 -669 Z" /><glyph glyph-name="" unicode="&#x3016;" d="M402 -53 l0 807 l321 0 q-126 -154 -127 -403 q3 -249 127 -404 l-321 0 ZM469 5 l132 0 q-66 157 -72 346 q3 199 72 346 l-132 0 l0 -692 Z" /><glyph glyph-name="" unicode="&#x3017;" d="M596 755 l0 -807 l-321 0 q124 155 127 404 q-1 249 -127 403 l321 0 ZM397 6 l132 0 l0 692 l-132 0 q69 -147 72 -346 q-6 -189 -72 -346 Z" /><glyph glyph-name="" unicode="&#x3105;" d="M406 773 q5 28 32 12 q41 -36 67 -81 q0 -12 -21 -22 q-2 -1 -3 -2 q-17 -2 -95 -107 q-72 -97 -107 -133 q235 46 418 92 q2 1 7 3 q10 5 17 5 q98 -48 120 -104 q0 -11 -16 -20 q-24 -14 -36 -36 q-178 -452 -320 -444 q-11 3 -12 12 q-1 10 4 40 q-5 39 -71 102 q-16 16 -21 22 q-5 31 24 32 q2 -2 7 -5 q72 -56 101 -59 q121 36 204 328 q1 27 -14 33 q-11 8 -62 7 q-246 -27 -372 -84 q-3 -2 -12 -8 q-23 -16 -32 -16 q-37 26 -51 64 q-9 29 19 40 q187 138 225 329 Z" /><glyph glyph-name="" unicode="&#x3106;" d="M191 -52 q-23 12 -8 32 q189 63 337 205 q-94 81 -205 147 q-12 12 -7 23 q8 13 23 9 q137 -62 239 -123 q90 109 121 227 q0 3 0 7 q1 12 -8 13 q-211 -25 -312 -68 q-22 -14 -32 -16 q-44 29 -48 84 q129 82 176 252 q-15 54 16 52 q61 -38 84 -80 q0 -16 -33 -32 q-5 -3 -7 -4 q-27 -29 -64 -86 q-44 -68 -80 -102 q351 70 312 80 q6 4 12 4 q64 -21 116 -96 q0 -12 -25 -29 q-18 -11 -23 -19 q-60 -135 -141 -226 q85 -56 129 -102 q58 -63 49 -117 q-22 -60 -77 -15 q-78 90 -163 172 q-148 -132 -381 -192 Z" /><glyph glyph-name="" unicode="&#x3107;" d="M260 668 l30 0 q148 1 364 52 q6 1 16 6 q16 6 24 6 q67 -20 132 -100 q0 -8 -12 -22 q-16 -20 -16 -34 l0 -21 q0 -50 6 -148 q6 -109 6 -163 l0 -157 q-4 -90 -46 -110 q-57 15 -66 71 q0 12 7 41 q17 42 21 211 l0 146 q2 160 -27 186 q-15 18 -45 19 q-26 2 -92 -13 q-26 -6 -91 -22 q-108 -28 -131 -28 l-8 0 q-16 8 -29 18 q0 -5 -1 -15 q-4 -46 -4 -67 l0 -160 q0 -91 -12 -256 q-5 -128 -40 -132 q-60 34 -72 84 q0 11 12 42 q40 56 52 322 l0 44 q0 119 -44 216 q1 13 16 14 q19 -4 51 -32 q0 2 -1 2 Z" /><glyph glyph-name="" unicode="&#x3108;" d="M285 626 l0 -30 q0 -27 -2 -82 q-2 -36 -2 -54 q0 -10 0 -28 q-4 -222 -4 -344 l0 -20 q-3 -16 16 -16 q172 2 364 44 q34 7 76 4 q45 -6 72 -52 q21 -49 -20 -48 q-9 1 -27 3 q-89 9 -132 9 l-41 0 q-76 0 -280 -35 q-54 -9 -60 -9 q-38 16 -56 68 q0 2 4 20 q28 117 28 203 l0 161 q-4 199 -32 276 q3 7 16 7 q23 -4 45 -22 q174 9 351 67 q41 14 56 12 q52 -9 66 -46 q7 -33 -42 -38 q-195 -13 -334 -52 q-16 -4 -18 -4 q-15 0 -46 19 q2 -6 2 -13 Z" /><glyph glyph-name="" unicode="&#x3109;" d="M528 406 q12 -14 4 -28 q-3 -4 -15 -11 q-12 -7 -14 -11 q-4 -8 -11 -23 q-115 -276 -326 -361 q-28 -12 -26 12 q1 11 -6 8 q261 157 280 447 q-69 -12 -88 -19 q-18 -7 -43 -24 q-22 -16 -33 -16 q-15 6 -43 46 q-18 29 -9 34 q118 67 196 232 q12 27 19 71 q3 18 5 25 q3 12 20 8 q81 -62 76 -100 q-6 -7 -18 -11 q-16 -5 -26 -17 q-9 -11 -34 -42 q-86 -110 -126 -150 q37 7 109 19 q171 29 267 49 q5 1 18 4 q28 8 42 8 q52 -11 120 -84 q1 -12 -18 -33 q-4 -5 -6 -7 q-17 -22 -59 -145 q-74 -287 -217 -335 q-7 0 -10 19 q-2 18 -6 25 q-4 37 -87 87 q-8 5 -9 6 q-14 22 12 31 q6 -2 23 -9 q58 -26 81 -27 q106 25 168 344 q10 51 -56 48 q-57 -2 -205 -26 q29 -21 51 -44 Z" /><glyph glyph-name="" unicode="&#x310a;" d="M159 444 l8 0 q78 0 268 28 q20 101 20 184 q0 38 -16 76 q-4 9 -4 12 q0 1 -1 3 q-4 13 11 15 q99 -19 130 -74 q0 -9 -13 -21 q-14 -13 -15 -23 q-8 -66 -31 -160 q132 23 183 36 q5 1 14 4 q24 8 38 8 q65 -13 92 -76 q-5 -29 -20 -32 q-14 1 -41 4 q-40 4 -60 4 l-47 0 q-79 0 -176 -11 q-61 -216 -136 -357 l12 0 q141 17 290 49 q-16 24 -51 68 q-15 21 -23 31 q-8 18 16 24 q200 -114 196 -202 q-3 -45 -56 -58 q-19 1 -31 43 q-4 13 -6 17 q-5 11 -17 34 q-3 5 -4 7 q-175 -38 -298 -89 q-9 -4 -26 -22 q-20 -22 -30 -22 q-52 30 -76 92 q83 47 163 372 q-55 -10 -132 -29 q-43 -11 -51 -11 q-56 23 -80 76 Z" /><glyph glyph-name="" unicode="&#x310b;" d="M190 736 q26 -3 80 -4 q157 1 356 44 q64 -4 112 -60 q1 -24 -12 -28 q-34 -4 -64 -32 q-46 -42 -159 -171 q-20 -22 -29 -33 q211 34 207 48 q8 4 13 4 q58 -19 116 -92 q10 -15 0 -24 q-2 -11 -22 -18 q-26 -9 -34 -26 q-207 -398 -316 -392 q-28 0 -28 12 q14 47 -76 136 q-18 17 -12 28 q11 11 32 0 q12 -7 30 -23 q35 -27 70 -45 q87 -16 236 320 q22 52 -24 52 q-92 0 -175 -41 q-22 -11 -29 -11 q-59 11 -76 52 q0 13 23 32 q4 3 5 4 q136 132 176 228 q0 3 2 8 q3 6 -6 4 q-256 -38 -283 -56 q-25 -8 -37 -8 q-27 3 -60 40 q-27 33 -16 52 Z" /><glyph glyph-name="" unicode="&#x310c;" d="M305 392 q-1 -1 -4 -4 q-22 -25 -36 -24 q-46 21 -64 64 q0 11 14 19 q10 5 14 9 q36 43 61 131 q20 77 11 141 q6 16 24 16 q57 -34 88 -72 q5 -12 -4 -20 q-42 -9 -104 -196 q89 13 198 34 q33 111 30 214 q0 4 -4 21 q-8 32 -8 43 q6 17 20 16 q67 -25 108 -60 q8 -9 0 -28 q-4 -7 -14 -16 q-8 -8 -10 -12 q-12 -81 -39 -161 q81 17 99 25 q4 1 11 5 q15 7 25 7 q91 -41 116 -96 q0 -18 -27 -29 q-18 -7 -21 -15 q-5 -20 -17 -71 q-77 -380 -219 -393 q-40 -7 -36 36 q-12 46 -59 88 q-21 20 -21 28 q-3 22 20 21 q4 -3 13 -9 q61 -42 85 -44 q111 -3 162 376 q3 29 -24 28 q-69 -10 -129 -18 q-131 -323 -371 -478 q-13 -9 -23 2 q-10 14 -1 26 q205 153 315 438 q-163 -22 -179 -42 Z" /><glyph glyph-name="" unicode="&#x310d;" d="M440 740 q66 -29 84 -76 q0 -10 -14 -19 q-1 -1 -2 -1 q-17 -8 -97 -112 q-118 -153 -183 -216 q61 -60 148 -138 q133 -107 120 -170 q-4 -38 -48 -48 q-25 -3 -60 60 q-67 119 -212 293 q-1 4 0 8 q195 221 244 395 q-2 24 20 24 ZM492 348 l0 8 q222 216 224 340 q3 22 28 24 q59 -44 80 -92 q1 -14 -17 -19 q-21 -7 -31 -21 q-83 -115 -228 -240 q280 -230 276 -316 q3 -50 -52 -64 q-21 4 -44 44 q-102 203 -236 336 Z" /><glyph glyph-name="" unicode="&#x310e;" d="M174 688 l44 0 q127 0 442 63 q85 17 94 17 q41 -4 75 -41 q23 -30 -11 -39 q-36 7 -80 8 q-20 2 -261 -35 q32 -28 45 -53 q2 -4 1 -8 q-1 -2 -1 -4 q0 -9 -27 -28 q-4 -3 -5 -4 q-16 -16 -98 -140 q21 4 61 9 q107 14 165 39 q4 1 11 5 q13 7 21 7 q89 -30 120 -80 q0 -11 -14 -20 q-14 -8 -18 -16 q-6 -11 -25 -56 q-158 -382 -263 -376 q-10 1 -13 18 q-3 14 -7 22 q-1 2 -3 7 q-13 34 -81 81 q-7 8 -1 22 q6 10 17 8 q6 -3 16 -10 q38 -26 76 -32 q104 13 204 328 q1 25 -20 24 q-162 -15 -216 -40 q-58 -32 -68 -32 q-38 16 -60 68 q-1 13 16 20 q60 44 112 172 q4 13 7 37 q3 17 5 26 q-53 -8 -140 -21 q-66 -10 -68 -10 q-26 2 -53 32 q-23 31 1 32 Z" /><glyph glyph-name="" unicode="&#x310f;" d="M335 696 l19 4 q293 14 380 51 q33 9 40 9 q40 -6 75 -48 q22 -31 -11 -40 q-18 -5 -82 3 q-12 1 -14 1 q-107 -4 -288 -32 q-4 -1 -12 -3 q-26 -7 -40 -7 q-15 -1 -36 16 q-1 -14 -1 -11 q-1 -512 -193 -663 q-11 -9 -23 -1 q-10 9 -3 23 q144 132 140 514 q0 5 0 17 q3 110 -16 187 q6 7 12 8 q19 1 53 -28 Z" /><glyph glyph-name="" unicode="&#x3110;" d="M704 608 l0 -588 q-9 -46 -32 -51 q-46 30 -60 75 q0 4 4 17 q24 73 24 167 l0 60 q-203 -87 -264 -124 q-8 -5 -20 -20 q-17 -20 -28 -20 q-46 29 -64 72 q0 12 16 29 q16 17 20 31 q17 100 20 264 q-1 53 -15 82 q-5 11 -5 18 q2 8 17 10 q80 -27 87 -66 q-1 -4 -6 -13 q-15 -22 -18 -47 q-3 -42 -13 -133 q-12 -114 -11 -135 q40 13 118 36 q110 32 166 53 l0 312 q0 60 -21 106 q-7 15 -7 21 q3 15 17 18 q103 -29 107 -62 q0 -6 -9 -18 q-27 -38 -23 -94 Z" /><glyph glyph-name="" unicode="&#x3111;" d="M232 300 l0 12 q296 272 308 440 q1 0 2 1 q13 13 22 7 q48 -36 76 -92 q4 -11 -8 -24 q-7 -6 -17 -8 q-12 -3 -19 -10 q-162 -198 -308 -314 q32 -15 109 -50 q381 -164 371 -234 q-1 -74 -68 -58 q-12 11 -34 32 q-112 118 -434 298 Z" /><glyph glyph-name="" unicode="&#x3112;" d="M535 464 l0 -155 q-1 -69 14 -251 q2 -28 2 -30 q-4 -39 -32 -48 q-46 30 -68 108 q0 8 5 23 q17 12 23 249 l0 269 q-162 -22 -212 -37 q-4 -1 -14 -5 q-20 -7 -30 -7 q-38 12 -64 68 q6 5 12 4 q162 0 520 72 q6 1 18 4 q28 8 42 8 q41 -3 78 -46 q28 -38 -6 -46 q-14 -3 -45 2 q-35 6 -59 6 q-60 0 -185 -15 q-5 -40 -1 -122 q2 -34 2 -51 Z" /><glyph glyph-name="" unicode="&#x3113;" d="M492 228 l0 19 q-115 -16 -136 -39 q-18 -20 -32 -20 q-44 19 -64 72 q0 7 10 15 q22 17 22 49 l0 161 q1 49 -31 124 q-9 22 -9 27 q64 23 116 -40 q-1 -7 -9 -19 q-13 -19 -11 -37 l0 -256 q75 3 144 14 l0 289 q1 78 -24 139 q-6 15 -8 22 q-5 15 3 19 q1 1 1 1 q64 9 120 -56 q0 -1 -4 -8 q-14 -26 -16 -40 q-10 -113 -12 -264 l0 -93 q12 2 37 6 q61 11 95 15 q8 1 22 -15 q5 16 6 31 q6 74 8 188 q0 37 -15 68 q-4 9 -5 12 q3 22 16 20 q86 -28 92 -60 q-1 -6 0 -6 q1 0 -3 -4 q0 -1 -1 -2 q-1 -1 -3 -3 q-21 -23 -21 -41 q-8 -264 -36 -316 l-13 0 q-35 45 -35 68 q0 1 0 2 q-70 -5 -144 -14 l0 -37 q-1 -55 3 -161 q105 14 209 30 q7 1 19 0 q6 0 9 0 q47 -2 78 -45 q24 -43 -18 -47 q-2 0 -8 2 q-72 14 -112 14 q-139 0 -476 -51 q-63 -9 -68 -9 q-22 2 -51 31 q-24 26 -9 33 q29 3 88 8 q172 14 262 24 q1 5 2 14 q14 109 12 166 Z" /><glyph glyph-name="" unicode="&#x3114;" d="M588 772 l10 0 q69 -51 76 -88 q0 -15 -25 -19 q-18 -3 -23 -9 q-166 -184 -366 -290 q-19 -9 -28 1 q-9 16 6 25 q233 156 328 332 q3 5 6 17 q5 21 16 31 ZM626 268 l0 -142 q-1 -161 -31 -180 q-46 11 -69 82 q0 2 5 12 q24 45 23 86 l0 136 q0 22 -1 43 q-179 -148 -329 -201 q-27 7 -12 28 q312 160 486 460 q2 3 4 12 q7 27 20 26 q39 -21 72 -72 q3 -6 0 -18 q-1 -8 -20 -13 q-16 -6 -20 -11 q-57 -81 -156 -172 q30 -17 40 -28 q10 -13 -7 -39 q-3 -6 -5 -9 Z" /><glyph glyph-name="" unicode="&#x3115;" d="M720 684 q7 36 -16 36 q-130 -6 -363 -45 q-37 -7 -41 -7 q-53 23 -72 84 q6 4 12 4 q65 -3 138 -2 q71 2 139 8 q134 13 223 42 q94 -41 104 -84 q-2 -9 -15 -17 q-32 4 -73 -151 q-16 -66 -49 -83 q-14 4 -25 25 q-52 -3 -153 -32 q-70 -20 -91 -20 q-15 0 -42 16 q-6 -328 -208 -514 q-11 -8 -25 2 q-11 10 -3 22 q156 181 152 452 q0 30 -10 80 q-4 21 -4 26 q15 26 76 -31 q65 5 198 40 q48 13 54 13 q17 1 52 -23 q6 23 18 65 q17 62 24 94 Z" /><glyph glyph-name="" unicode="&#x3116;" d="M737 628 l0 -119 q1 -50 5 -265 q3 -124 3 -132 q-3 -86 -48 -104 q-18 0 -38 36 l-30 0 q-48 11 -191 -14 q-58 -10 -73 -10 q-10 0 -30 19 q-10 10 -14 12 q-3 1 -8 6 q-3 2 -4 3 l0 -4 q-4 -55 -24 -72 q-42 20 -56 84 q0 5 5 15 q25 -9 35 313 l0 144 q0 37 -16 113 q-8 35 -8 43 q2 11 12 8 q2 -1 6 -4 q17 -12 26 -19 q304 33 376 79 q87 -27 108 -68 q0 -10 -15 -24 q-22 -21 -21 -40 ZM419 466 q-1 6 14 12 q3 1 4 2 q132 -84 136 -144 q1 -33 -26 -57 q-26 -18 -42 5 q-22 69 -67 140 q-20 32 -19 42 ZM309 92 l40 0 q80 -6 235 24 q19 4 21 4 q20 -1 47 -17 q2 11 7 36 q21 107 18 157 l0 177 q1 130 -8 163 q-12 34 -52 32 q-69 1 -272 -48 q-1 0 -20 12 l0 -73 q2 -169 -12 -399 q-4 -53 -4 -68 Z" /><glyph glyph-name="" unicode="&#x3117;" d="M417 464 l0 -401 q-7 -77 -36 -97 q-34 25 -44 82 q0 12 5 50 q12 67 15 222 l0 165 q0 86 -13 152 q-4 0 -7 -1 q-15 -4 -41 -11 q-34 -10 -43 -9 q-47 14 -65 75 q3 5 9 5 q257 7 452 60 q3 1 8 3 q23 9 36 9 q89 -33 120 -92 q0 -9 -16 -21 q-17 -12 -20 -23 q-98 -352 -196 -364 q-10 0 -17 21 q-6 16 -11 23 q-1 2 -3 4 q-9 18 -73 60 q-22 12 -22 25 q1 16 20 19 q6 -3 20 -9 q64 -28 74 -27 q78 -6 128 268 q4 32 -44 36 q-63 -1 -270 -43 q47 -44 50 -73 q0 -7 -4 -18 q-12 -31 -12 -90 Z" /><glyph glyph-name="" unicode="&#x3118;" d="M831 468 l-72 0 q-117 3 -227 -17 q-11 -45 -33 -133 q-10 -44 -16 -66 l0 -8 q44 7 121 26 q29 7 43 10 q2 1 7 4 q30 16 37 16 q39 -14 84 -64 q5 -6 4 -13 q-1 -2 -1 -4 q0 -9 -26 -21 q-14 -7 -17 -10 q-3 -4 -26 -41 q-81 -136 -122 -179 q-15 -15 -29 -10 q-15 10 -7 26 q51 73 92 192 q15 41 -16 40 q-126 -11 -156 -40 q-6 -4 -19 -14 q-27 -20 -33 -18 q-37 16 -51 63 q0 12 17 25 q31 25 42 60 q14 43 36 144 q-71 -15 -167 -48 q-9 -3 -13 -4 q-2 -1 -8 -3 q-26 -9 -40 -9 q-19 0 -67 60 q-7 9 -9 12 q-4 5 -3 9 q2 3 7 3 q68 0 313 41 q23 115 23 179 q0 40 -18 78 q-2 5 -2 6 q0 1 0 2 q2 15 8 14 q129 -23 136 -48 q-1 -11 -4 -16 q-4 -5 -16 -15 q-11 -10 -12 -13 q-4 -15 -11 -45 q-21 -85 -33 -130 q128 24 168 35 q5 1 16 5 q21 7 32 7 q34 -3 69 -44 q25 -35 -1 -44 Z" /><glyph glyph-name="" unicode="&#x3119;" d="M451 747 q20 14 65 -39 q48 -50 32 -80 q-3 -7 -22 -39 q-8 -13 -10 -17 q-24 -42 -113 -192 q-131 -222 -163 -280 q163 17 360 40 q87 6 88 10 q-8 30 -40 103 q-19 44 -24 59 q-4 12 2 17 q7 5 18 -1 q85 -60 160 -212 q56 -137 -32 -148 q-40 0 -53 81 q-5 34 -11 39 q-182 -20 -384 -54 q-15 -2 -47 -15 q-43 -18 -57 -13 q-50 35 -68 94 q-1 19 32 52 q6 6 8 8 q105 136 240 432 q5 12 9 37 q3 32 1 47 q-10 57 9 71 Z" /><glyph glyph-name="" unicode="&#x311a;" d="M545 440 l-6 -170 l0 -224 q-8 -72 -38 -86 q-47 28 -60 76 q-1 9 11 48 q26 80 26 126 l4 214 q-4 58 -27 81 q-42 45 -230 168 q-42 29 -9 73 q25 23 73 -7 q33 -21 155 -159 q66 -74 70 -74 q115 106 174 201 q9 15 16 39 q5 25 17 23 q54 -13 91 -81 q0 -14 -22 -21 q-15 -5 -20 -10 q-26 -22 -70 -59 q-183 -151 -155 -158 Z" /><glyph glyph-name="" unicode="&#x311b;" d="M538 596 l0 -64 q1 -27 12 -68 q7 -27 8 -40 q-6 -21 -40 -32 q-6 0 -16 3 q-19 5 -44 5 q-163 -10 -172 -180 q13 -169 192 -184 q78 -1 107 13 q31 12 69 63 q15 29 39 16 q20 -18 5 -48 q-60 -120 -220 -120 q-241 20 -256 264 q14 222 260 232 q0 16 -1 48 q2 106 -18 160 q-4 0 -11 -1 q-81 -8 -98 -11 q-10 -1 -44 -8 q-61 -12 -76 -12 q-36 11 -72 64 q0 8 4 12 q300 7 508 44 q10 2 32 7 q36 9 52 9 q39 -5 73 -51 q22 -36 -17 -37 q-4 0 -19 2 q-35 6 -53 6 q-73 -2 -227 -18 q39 -18 39 -34 q0 -10 -10 -27 q-4 -9 -6 -13 Z" /><glyph glyph-name="" unicode="&#x311c;" d="M490 404 l0 28 q0 51 -2 101 q-80 -9 -196 -30 q-59 -11 -70 -11 q-37 13 -64 60 q0 18 16 20 q71 -5 143 -1 q66 3 169 18 q-2 36 -7 110 q-1 11 -1 17 q-1 8 -14 45 q-6 17 -6 19 q-1 20 47 8 q57 -16 61 -36 q0 -8 -9 -21 q-10 -14 -11 -23 q0 -7 0 -20 q-2 -64 -2 -91 q54 8 114 15 q9 1 31 5 q37 7 53 7 q80 -14 100 -72 q-2 -20 -16 -20 q-11 1 -33 4 q-56 8 -107 8 q-74 0 -140 -5 q3 -94 18 -148 q2 -8 2 -11 q-5 -37 -40 -44 q-2 0 -15 1 q-33 3 -49 3 q-144 -7 -152 -144 q10 -156 184 -164 q96 -2 140 44 q21 32 37 13 q12 -24 -9 -57 q-66 -89 -180 -96 q-216 26 -240 244 q15 208 248 224 Z" /><glyph glyph-name="" unicode="&#x311d;" d="M417 402 l0 -171 q0 -105 33 -144 q31 -40 115 -39 q42 0 84 8 q16 3 24 4 q51 -13 72 -68 q7 -29 -104 -28 q-183 -2 -237 72 q-29 37 -40 104 q-11 63 -7 184 l0 69 q-4 -1 -12 -2 q-9 -1 -24 -3 q-42 -6 -89 -21 q-21 -7 -27 -7 q-56 22 -68 64 q115 11 220 26 l0 211 q1 21 -12 58 q-3 7 -4 10 q-4 23 12 23 q70 -9 100 -49 q0 -2 0 -5 q2 -1 -4 -11 q-2 -3 -7 -9 q-25 -28 -25 -94 l0 -126 q9 1 26 4 q113 18 162 27 q12 91 12 159 q-2 36 -16 96 q1 15 12 16 q57 -7 104 -40 q4 -4 4 -14 q0 -1 0 -2 q0 -4 -10 -16 q-12 -15 -14 -24 q-9 -82 -26 -165 q86 17 114 17 q44 -6 74 -52 q16 -36 -26 -44 q-12 1 -53 9 q-32 7 -39 7 q-39 0 -86 -4 q-47 -186 -106 -288 q-8 -9 -16 -6 q-9 5 -9 15 q46 134 71 273 q-76 -9 -178 -24 Z" /><glyph glyph-name="" unicode="&#x311e;" d="M308 624 l12 8 q48 -26 72 -64 q4 -10 -4 -20 q-5 -7 -21 -16 q-9 -5 -11 -8 q-6 -10 -16 -30 q-31 -60 -56 -94 q-1 0 22 3 q116 13 170 22 q34 121 40 256 q-80 -11 -194 -36 q-41 -9 -46 -9 q-66 23 -68 84 l52 0 q373 16 431 52 q26 8 33 8 q35 -9 70 -54 q21 -33 -6 -42 q-7 1 -28 2 q-74 6 -84 6 q-60 0 -118 -6 q70 -45 70 -66 q0 -7 -9 -14 q-23 -18 -31 -62 q-11 -54 -29 -106 q125 22 133 26 q5 2 13 6 q19 10 31 10 q47 -21 92 -72 q5 -7 5 -14 q0 -1 0 -2 q0 -12 -15 -22 q-18 -11 -26 -26 q-54 -185 -196 -340 q-49 -40 -61 -15 q143 174 177 375 q-7 41 -36 40 q-51 -6 -136 -19 q-139 -330 -336 -421 q-22 2 -12 24 q179 134 267 385 q-148 -24 -179 -37 q-15 -5 -39 -23 q-16 -13 -21 -13 q-37 20 -52 76 q1 16 20 24 q38 -14 112 164 q2 7 4 30 q2 23 4 30 Z" /><glyph glyph-name="" unicode="&#x311f;" d="M148 691 q4 15 32 13 q241 18 288 48 q2 1 7 5 q14 11 21 11 q83 -26 111 -65 q0 -1 0 -4 q1 -9 -4 -14 q-4 -4 -14 -11 q-28 -20 -25 -34 q50 -498 254 -578 q32 -27 34 -34 q7 -33 -30 -50 q-42 -16 -74 6 q-248 214 -244 672 q1 45 -32 40 q-74 -15 -195 -49 q-54 -15 -61 -15 q-54 28 -68 59 Z" /><glyph glyph-name="" unicode="&#x3120;" d="M295 372 l218 -8 q144 187 134 232 q8 16 20 14 q65 -49 88 -90 q-4 -12 -12 -20 q-6 -4 -26 -11 q-21 -8 -26 -13 q-221 -261 -380 -412 q88 19 250 56 q70 17 106 25 q-20 39 -38 67 q-25 37 -22 51 q5 14 32 -4 q166 -142 180 -219 q0 -52 -47 -61 q-41 -1 -55 53 q-7 27 -31 76 q-353 -101 -419 -164 q-4 -4 -20 -4 q-12 -2 -64 100 q-5 14 4 24 q5 2 23 8 q41 12 55 22 q81 67 213 226 q-26 -3 -65 -7 q-92 -5 -170 -37 q-33 15 -58 90 q0 17 27 23 q38 10 59 31 q210 215 206 328 q3 12 16 20 q48 -19 90 -72 q5 -10 -4 -20 q-11 -11 -32 -20 q-163 -200 -252 -280 q-3 -1 -3 -3 q0 -1 3 -1 Z" /><glyph glyph-name="" unicode="&#x3121;" d="M219 708 l48 0 q337 17 346 60 q13 8 18 8 q105 -50 104 -84 q1 -9 -15 -19 q-1 -1 -1 -1 q-2 -1 -5 -4 q-13 -8 -15 -16 q-41 -159 -118 -295 q237 -244 234 -317 q-8 -43 -43 -51 q-34 -1 -73 67 q-67 109 -161 227 q-109 -162 -255 -267 q-67 -47 -92 -36 q-10 11 0 20 q173 115 300 341 q-95 113 -192 211 q-20 19 -19 34 q5 17 23 6 q89 -53 224 -181 q47 95 80 213 q21 73 -54 54 q-4 -2 -6 -2 q-196 -42 -272 -52 q-43 17 -68 60 q-10 23 12 24 Z" /><glyph glyph-name="" unicode="&#x3122;" d="M375 655 l0 1 q-2 0 -4 0 q-30 -6 -67 31 q-41 48 -13 53 l128 0 q137 3 242 42 q5 2 6 2 q71 -17 120 -80 q5 -18 -8 -28 q-2 -2 -9 -5 q-19 -9 -23 -15 q-13 -18 -44 -69 q-44 -73 -68 -103 q-9 -9 -22 -9 q-18 2 -18 9 q65 135 72 204 q-3 25 -16 24 q-76 -3 -217 -43 q-18 -5 -26 -7 q50 -54 51 -86 q0 -14 -18 -31 q-15 -14 -22 -25 q-20 -31 -67 -90 q-38 -49 -49 -66 q-2 -4 -8 -10 q-11 -13 -12 -22 q228 22 356 52 q15 3 40 19 q16 9 20 9 q84 -44 110 -86 q0 -4 1 -8 q3 -2 -5 -10 q-5 -6 -18 -13 q-21 -11 -26 -23 q-95 -205 -174 -296 q-13 -16 -27 -11 q-14 9 -9 27 q79 143 110 264 q0 2 2 7 q18 61 -12 61 q-261 -37 -320 -48 q-19 -5 -50 -17 q-15 -7 -18 -7 q-39 9 -72 76 q0 11 23 22 q13 6 17 10 q132 156 144 295 Z" /><glyph glyph-name="" unicode="&#x3123;" d="M225 772 q0 12 12 16 q69 -16 120 -56 q8 -7 8 -18 q0 -1 0 -2 q0 -5 -14 -20 q-16 -16 -18 -24 q-12 -36 -36 -288 q329 34 376 56 q3 1 11 8 q17 12 25 12 q57 -26 102 -74 q8 -13 0 -26 q-4 -5 -19 -16 q-10 -8 -15 -12 q-91 -321 -144 -372 q-25 -13 -28 8 q73 209 80 348 q5 48 -44 44 q-241 -6 -348 -52 q-3 -2 -9 -7 q-8 -9 -15 -9 q-48 19 -84 72 q0 9 17 25 q20 21 23 35 q26 151 20 260 q0 17 -16 76 q-4 15 -4 16 Z" /><glyph glyph-name="" unicode="&#x3124;" d="M542 324 l0 -200 q0 -45 20 -61 q17 -16 72 -15 q59 0 118 20 q24 8 34 8 q51 -14 65 -60 q-4 -36 -139 -39 l-132 0 q-101 4 -102 94 l0 245 q2 39 -15 81 q-4 8 -5 12 q-65 -303 -284 -453 q-14 -4 -21 3 q-6 8 1 21 q199 174 241 473 q-68 -15 -146 -37 q-14 -4 -15 -4 q-25 4 -56 32 q-21 22 -12 36 q139 14 236 30 q8 76 8 166 q0 22 -11 65 q-4 17 -5 23 q1 17 12 20 q4 -1 15 -4 q103 -25 93 -48 q-2 -5 -9 -14 q-10 -13 -11 -22 q-5 -92 -16 -173 q100 18 189 43 q20 6 23 6 q53 -14 74 -61 q6 -29 -54 -27 q-105 4 -241 -18 q-3 -15 -5 -31 q95 -16 110 -43 q1 -15 -14 -29 q-18 -17 -18 -39 Z" /><glyph glyph-name="" unicode="&#x3125;" d="M592 758 q4 16 24 14 q45 -22 100 -88 q8 -12 -5 -26 q-1 -1 -11 -6 q-14 -7 -18 -10 q-177 -291 -390 -570 q313 13 401 29 q21 3 23 3 q40 -3 76 -47 q28 -42 0 -57 q-6 1 -19 4 q-120 25 -233 20 q-230 -6 -259 -44 q-10 -8 -17 -11 q-16 -11 -24 -1 q-32 44 -44 89 q-4 16 4 22 q6 4 17 10 q16 8 23 15 q226 251 352 588 q3 6 0 66 Z" /><glyph glyph-name="" unicode="&#x3126;" d="M308 660 q-3 20 10 22 q91 -17 112 -56 q0 -1 0 -3 q1 -6 -1 -9 q-3 -7 -11 -19 q-8 -10 -8 -13 q20 -447 -233 -631 q-12 -10 -25 -2 q-10 9 0 21 q199 187 186 550 q-1 75 -25 124 q-5 12 -5 16 ZM596 617 l0 -361 q3 -186 152 -196 q11 0 28 6 q6 2 8 2 q46 -8 70 -54 q-1 -43 -70 -46 q-241 13 -248 288 l0 387 q-2 38 -20 74 q-8 17 -8 25 q-3 17 16 19 q68 -17 104 -66 q0 -2 0 -4 q1 -12 -3 -17 q0 0 -2 -3 q-27 -28 -27 -54 Z" /><glyph glyph-name="" unicode="&#x3127;" d="M536 684 l0 -496 q-1 -29 1 -72 q0 -39 0 -65 q-3 -100 -41 -101 q-30 25 -53 125 q0 6 8 18 q14 23 13 43 q5 106 6 169 q2 66 2 159 l0 192 q1 53 -23 119 q-7 17 -7 21 q3 17 15 19 q75 -20 102 -69 q0 -2 0 -5 q1 -7 -2 -10 q-21 -28 -21 -47 Z" /><glyph glyph-name="" unicode="&#x3128;" d="M187 -36 q-14 -3 -20 6 q-5 9 4 19 q179 146 312 348 q-127 131 -276 255 q-10 10 -6 18 q5 8 18 6 q147 -91 302 -220 q124 216 126 376 q-1 19 18 22 q44 -18 98 -74 q8 -9 1 -25 q-1 -2 -1 -3 q-2 -4 -9 -10 q-16 -14 -23 -34 q-45 -140 -154 -299 q252 -224 258 -321 q-3 -40 -38 -53 q-31 -7 -50 29 q-75 130 -216 282 q-167 -214 -344 -322 Z" /><glyph glyph-name="" unicode="&#x3129;" d="M770 656 l0 -93 q0 -118 26 -369 q10 -90 10 -106 q-2 -57 -24 -104 q-4 -7 -14 -8 q-2 0 -2 0 q-43 19 -60 88 q0 2 0 6 q-1 4 -1 6 q-206 -29 -343 -57 q-48 -9 -76 -37 q-14 -14 -28 -14 q-32 11 -64 83 q-1 16 16 29 q13 10 21 19 q63 146 71 480 q0 77 -23 122 q-6 10 -6 15 q-4 21 16 24 q113 -40 117 -80 q0 -7 -8 -13 q-12 -11 -16 -31 q-27 -338 -92 -524 q224 11 413 22 q-1 38 -2 135 q1 308 -27 407 q-7 34 -40 76 q-2 17 12 24 q101 -16 136 -48 q4 -4 4 -12 q0 -6 -8 -20 q-8 -14 -8 -20 Z" /><glyph glyph-name="" unicode="&#x3220;" d="M155 810 l102 0 q-133 -211 -134 -463 q2 -250 134 -461 l-102 0 q-138 224 -136 462 q3 267 136 462 ZM844 -114 l-102 0 q132 211 134 461 q-1 252 -134 463 l102 0 q133 -195 136 -462 q2 -238 -136 -462 ZM836 304 l-675 0 l0 100 l675 0 l0 -100 Z" /><glyph glyph-name="" unicode="&#x3221;" d="M155 810 l102 0 q-133 -211 -134 -463 q0 -139 44 -271 l0 96 l669 0 l0 -84 q40 128 40 259 q-1 252 -134 463 l102 0 q133 -195 136 -462 q2 -238 -136 -462 l-102 0 q53 82 88 186 l-662 0 q32 -97 89 -186 l-102 0 q-138 224 -136 462 q3 267 136 462 ZM230 633 l544 0 l0 -99 l-544 0 l0 99 Z" /><glyph glyph-name="" unicode="&#x3222;" d="M155 810 l102 0 q-133 -211 -134 -463 q0 -133 41 -261 l0 61 l675 0 l0 -49 q37 125 37 249 q-1 252 -134 463 l102 0 q133 -195 136 -462 q2 -238 -136 -462 l-102 0 q47 74 80 163 l-646 0 q32 -85 81 -163 l-102 0 q-138 224 -136 462 q3 267 136 462 ZM211 656 l581 0 l0 -98 l-581 0 l0 98 ZM260 415 l483 0 l0 -97 l-483 0 l0 97 Z" /><glyph glyph-name="" unicode="&#x3223;" d="M155 810 l102 0 q-133 -211 -134 -463 q2 -250 134 -461 l-102 0 q-138 224 -136 462 q3 267 136 462 ZM844 -114 l-102 0 q132 211 134 461 q-1 252 -134 463 l102 0 q133 -195 136 -462 q2 -238 -136 -462 ZM201 639 l597 0 l0 -608 l-100 0 l0 57 l-396 0 l0 -57 l-101 0 l0 608 ZM302 252 l0 -72 l396 0 l0 58 q-37 -3 -69 0 q-107 4 -105 99 l0 210 l-51 0 l0 -111 q6 -162 -133 -231 q-16 24 -38 47 ZM698 547 l-77 0 l0 -180 q0 -32 30 -35 q28 -1 47 -1 l0 216 ZM302 547 l0 -251 q43 26 58 61 q16 33 16 98 l0 92 l-74 0 Z" /><glyph glyph-name="" unicode="&#x3224;" d="M253 428 l131 0 l23 140 l-203 0 l0 93 l591 0 l0 -93 l-282 0 l-23 -140 l230 0 l0 -297 l116 0 l0 -43 q40 128 40 259 q-1 252 -134 463 l102 0 q133 -195 136 -462 q2 -238 -136 -462 l-102 0 q44 69 76 152 l-638 0 q29 -76 77 -152 l-102 0 q-138 224 -136 462 q3 267 136 462 l102 0 q-133 -211 -134 -463 q0 -130 40 -258 l0 42 l172 0 l34 206 l-116 0 l0 91 ZM618 337 l-144 0 l-34 -206 l178 0 l0 206 Z" /><glyph glyph-name="" unicode="&#x3225;" d="M844 -114 l-102 0 q132 211 134 461 q-1 252 -134 463 l102 0 q133 -195 136 -462 q2 -238 -136 -462 ZM155 810 l102 0 q-133 -211 -134 -463 q0 -145 48 -284 q109 106 177 256 l94 -44 q-75 -164 -178 -269 q-40 32 -90 49 q33 -90 83 -169 l-102 0 q-138 224 -136 462 q3 267 136 462 ZM170 483 l659 0 l0 -96 l-659 0 l0 96 ZM558 273 l92 48 q93 -99 182 -237 l-78 -79 q-95 159 -196 268 ZM385 638 l96 55 q65 -49 130 -124 l-86 -71 q-68 83 -140 140 Z" /><glyph glyph-name="" unicode="&#x3226;" d="M155 810 l102 0 q-133 -211 -134 -463 q2 -250 134 -461 l-102 0 q-138 224 -136 462 q3 267 136 462 ZM844 -114 l-102 0 q132 211 134 461 q-1 252 -134 463 l102 0 q133 -195 136 -462 q2 -238 -136 -462 ZM398 680 l106 0 l0 -224 l324 49 l17 -94 l-341 -53 l0 -187 q0 -52 50 -50 l99 0 q46 -1 61 47 q13 46 18 76 q41 -41 93 -60 q-1 -5 -4 -16 q-4 -20 -13 -49 q-28 -100 -139 -97 l-129 0 q-145 -4 -142 141 l0 180 l-226 -35 l-16 95 l242 36 l0 241 Z" /><glyph glyph-name="" unicode="&#x3227;" d="M844 -114 l-102 0 q56 90 89 188 q-49 -27 -73 -56 q-197 210 -211 653 l105 14 q5 -382 191 -571 q33 115 33 233 q-1 252 -134 463 l102 0 q133 -195 136 -462 q2 -238 -136 -462 ZM155 810 l102 0 q-133 -211 -134 -463 q0 -126 38 -250 q173 177 168 549 l105 -18 q0 -420 -193 -613 q-22 17 -67 40 q33 -90 83 -169 l-102 0 q-138 224 -136 462 q3 267 136 462 Z" /><glyph glyph-name="" unicode="&#x3228;" d="M202 548 l166 0 q3 69 2 60 q0 16 0 35 q0 17 0 49 l107 -6 q0 -54 -2 -138 l204 0 l-16 -377 q-3 -48 36 -46 l10 0 q32 -1 42 45 l15 79 q36 -34 84 -48 l-9 -58 q-21 -123 -120 -117 l-42 0 q-68 0 -96 35 q-28 34 -24 119 l11 273 l-101 0 q-18 -330 -236 -447 q-26 27 -58 46 q34 -92 82 -166 l-102 0 q-138 224 -136 462 q3 267 136 462 l102 0 q-133 -211 -134 -463 q0 -131 40 -259 q185 106 200 365 l-161 0 l0 95 ZM844 -114 l-102 0 q132 211 134 461 q-1 252 -134 463 l102 0 q133 -195 136 -462 q2 -238 -136 -462 Z" /><glyph glyph-name="" unicode="&#x3229;" d="M155 810 l102 0 q-133 -211 -134 -463 q2 -250 134 -461 l-102 0 q-138 224 -136 462 q3 267 136 462 ZM844 -114 l-102 0 q132 211 134 461 q-1 252 -134 463 l102 0 q133 -195 136 -462 q2 -238 -136 -462 ZM447 690 l106 0 l0 -260 l284 0 l0 -99 l-284 0 l0 -323 l-106 0 l0 323 l-284 0 l0 99 l284 0 l0 260 Z" /><glyph glyph-name="" unicode="&#x4e00;" d="M42 321 l0 126 l916 0 l0 -126 l-916 0 Z" /><glyph glyph-name="" unicode="&#x4e01;" d="M65 608 l0 123 l866 0 l0 -123 l-351 0 l0 -532 q3 -180 -179 -177 q-39 0 -97 6 q-4 71 -32 132 q62 -11 108 -11 q69 -2 67 71 l0 511 l-382 0 Z" /><glyph glyph-name="" unicode="&#x4e03;" d="M50 309 l-19 118 l332 51 l0 334 l132 0 l0 -314 l450 70 l21 -117 l-471 -73 l0 -268 q-3 -70 68 -67 l151 0 q67 -2 84 64 q16 52 24 101 q50 -51 115 -75 q-14 -59 -22 -86 q-35 -130 -180 -127 l-189 0 q-187 -4 -183 181 l0 256 l-313 -48 Z" /><glyph glyph-name="" unicode="&#x4e07;" d="M57 635 l0 117 l889 0 l0 -117 l-504 0 q-2 -104 -6 -157 l410 0 l-13 -385 q-8 -183 -179 -184 q-47 0 -111 6 q-2 65 -30 129 q71 -11 117 -11 q72 0 74 77 l9 252 l-287 0 q-37 -307 -261 -482 q-49 52 -120 78 q246 170 261 498 q3 56 5 179 l-254 0 Z" /><glyph glyph-name="" unicode="&#x4e08;" d="M875 -104 q-248 58 -402 162 q-120 -98 -342 -171 q-32 62 -86 107 q215 60 329 146 q-105 101 -184 265 l101 70 q71 -150 173 -244 q77 104 89 270 l-476 0 l0 121 l480 0 q1 38 1 84 q0 22 0 47 q0 23 0 61 l129 -9 q0 -66 0 -103 q0 -43 -1 -80 l235 0 l0 -121 l-240 0 q-14 -216 -115 -348 q150 -90 396 -127 q-56 -52 -87 -130 Z" /><glyph glyph-name="" unicode="&#x4e09;" d="M109 608 l0 121 l782 0 l0 -121 l-782 0 ZM45 -67 l0 121 l910 0 l0 -121 l-910 0 ZM174 290 l0 121 l651 0 l0 -121 l-651 0 Z" /><glyph glyph-name="" unicode="&#x4e0a;" d="M44 -80 l0 119 l361 0 l0 774 l132 0 l0 -297 l334 0 l0 -117 l-334 0 l0 -360 l421 0 l0 -119 l-914 0 Z" /><glyph glyph-name="" unicode="&#x4e0b;" d="M59 642 l0 119 l881 0 l0 -119 l-395 0 l0 -212 l85 53 q139 -120 246 -234 l-84 -104 q-88 103 -247 252 l0 -512 l-132 0 l0 757 l-354 0 Z" /><glyph glyph-name="" unicode="&#x4e0d;" d="M73 641 l0 115 l860 0 l0 -115 l-335 0 q-30 -85 -75 -165 l49 0 l0 -591 l-130 0 l0 467 q-124 -161 -297 -269 q-54 60 -115 85 q314 195 427 473 l-384 0 ZM889 83 q-144 156 -315 310 l103 71 q165 -131 292 -275 l-80 -106 Z" /><glyph glyph-name="" unicode="&#x4e0e;" d="M700 -110 q-49 0 -117 8 q-5 65 -29 125 q74 -13 121 -13 q84 -4 85 92 l11 241 l-576 0 l40 471 l129 -9 l-10 -106 l567 0 l0 -112 l-577 0 l-11 -132 l572 0 l-17 -375 q-10 -191 -188 -190 ZM53 112 l0 112 l654 0 l0 -112 l-654 0 Z" /><glyph glyph-name="" unicode="&#x4e10;" d="M65 655 l0 108 l870 0 l0 -108 l-371 0 l0 -107 l308 0 l0 -104 l-308 0 l0 -110 l326 0 l-17 -253 q-9 -187 -192 -186 q-54 0 -127 8 q-3 63 -33 120 q72 -10 141 -11 q83 -2 87 85 l10 129 l-616 0 l35 365 l122 -8 l-23 -249 l164 0 l0 321 l-376 0 Z" /><glyph glyph-name="" unicode="&#x4e11;" d="M164 298 l0 114 l183 0 l21 234 l-224 0 l0 115 l690 0 l-26 -726 l150 0 l0 -115 l-915 0 l0 115 l269 0 l25 263 l-173 0 ZM466 298 l-24 -263 l238 0 l9 263 l-223 0 ZM701 646 l-203 0 l-21 -234 l216 0 l8 234 Z" /><glyph glyph-name="" unicode="&#x4e13;" d="M134 596 l0 108 l263 0 q8 32 21 91 q5 21 7 30 l129 -23 q-5 -22 -15 -65 q-5 -22 -8 -33 l343 0 l0 -108 l-373 0 q-13 -46 -28 -90 l474 0 l0 -110 l-510 0 q-7 -20 -22 -56 q-8 -20 -12 -30 l426 0 l0 -92 q-48 -82 -147 -193 q47 -20 91 -38 l-29 -118 q-264 109 -505 176 l57 105 q99 -24 262 -80 q69 71 112 132 l-413 0 l0 93 q22 45 42 101 l-244 0 l0 110 l283 0 q15 43 28 90 l-232 0 Z" /><glyph glyph-name="" unicode="&#x4e14;" d="M39 -80 l0 114 l173 0 l0 730 l577 0 l0 -730 l172 0 l0 -114 l-922 0 ZM340 168 l0 -134 l320 0 l0 134 l-320 0 ZM340 653 l0 -135 l320 0 l0 135 l-320 0 ZM340 410 l0 -133 l320 0 l0 133 l-320 0 Z" /><glyph glyph-name="" unicode="&#x4e16;" d="M34 432 l0 115 l136 0 l0 240 l126 0 l0 -240 l135 0 l0 265 l126 0 l0 -265 l130 0 l0 265 l126 0 l0 -265 l153 0 l0 -115 l-153 0 l0 -287 l-382 0 l0 287 l-135 0 l0 -397 l626 0 l0 -115 l-752 0 l0 512 l-136 0 ZM557 259 l130 0 l0 173 l-130 0 l0 -173 Z" /><glyph glyph-name="" unicode="&#x4e18;" d="M32 -72 l0 116 l162 0 l0 681 q353 10 582 72 l73 -103 q-212 -55 -526 -72 l0 -171 l579 0 l0 -113 l-179 0 l0 -294 l245 0 l0 -116 l-936 0 ZM323 338 l0 -294 l272 0 l0 294 l-272 0 Z" /><glyph glyph-name="" unicode="&#x4e19;" d="M681 73 q-102 121 -179 202 q-50 -112 -181 -220 q-31 38 -84 64 l0 -234 l-121 0 l0 657 l323 0 q1 41 3 116 l-391 0 l0 110 l899 0 l0 -110 l-388 0 q-1 -63 -4 -116 l327 0 l0 -490 q-2 -155 -151 -157 q-56 0 -101 5 q-3 58 -31 116 q55 -9 94 -9 q66 1 67 67 l0 88 l-82 -89 ZM237 142 q171 135 192 291 l-192 0 l0 -291 ZM541 392 q131 -120 222 -228 l0 269 l-215 0 q-3 -22 -7 -41 Z" /><glyph glyph-name="" unicode="&#x4e1a;" d="M219 195 q-75 214 -164 392 l126 28 q71 -136 136 -317 l0 514 l129 0 l0 -775 l109 0 l0 775 l129 0 l0 -509 q91 183 131 316 l116 -54 q-65 -196 -161 -365 q-40 22 -86 34 l0 -197 l278 0 l0 -115 l-923 0 l0 115 l278 0 l0 214 l-98 -56 Z" /><glyph glyph-name="" unicode="&#x4e1b;" d="M876 73 q-147 138 -203 314 q-51 -187 -217 -320 q-43 51 -113 77 q245 173 250 467 q3 120 3 200 l120 -1 q0 -83 -3 -174 q47 -308 273 -472 q-62 -30 -110 -91 ZM422 285 q-45 67 -91 124 q-45 -185 -199 -325 q-48 47 -112 71 q208 166 218 452 q3 57 4 102 q1 43 1 102 l120 -2 q1 -126 -7 -229 q0 -5 -1 -14 q0 -9 -1 -14 q107 -120 155 -185 l-87 -82 ZM69 -81 l0 119 l862 0 l0 -119 l-862 0 Z" /><glyph glyph-name="" unicode="&#x4e1c;" d="M70 587 l0 113 l285 0 q30 61 57 129 l125 -39 q-28 -61 -41 -90 l436 0 l0 -113 l-493 0 q-62 -113 -125 -199 l174 0 l0 141 l126 0 l0 -141 l270 0 l0 -113 l-270 0 l0 -225 q2 -162 -153 -160 q-36 0 -103 9 q-2 66 -24 125 q49 -12 94 -13 q62 -3 60 67 l0 197 l-333 0 l0 111 q71 83 139 201 l-224 0 ZM172 -81 q-61 43 -122 58 q143 122 216 259 l105 -55 q-76 -151 -199 -262 ZM881 -77 q-109 143 -211 239 l102 58 q116 -106 198 -217 l-89 -80 Z" /><glyph glyph-name="" unicode="&#x4e1d;" d="M550 102 l-49 104 q44 15 79 51 q42 48 107 142 l-96 -6 q-30 -2 -66 -13 l-46 87 q40 20 67 58 q85 128 160 296 l107 -46 q-67 -144 -154 -277 l97 5 q40 62 83 139 l102 -56 q-115 -199 -231 -349 l175 16 l26 -103 l-286 -27 q-47 -6 -75 -21 ZM140 105 l-54 105 q46 17 81 54 q40 45 94 127 l-83 -5 q-30 -2 -65 -14 l-48 88 q42 20 68 58 q91 142 160 300 l108 -45 q-75 -158 -154 -279 l83 3 q47 78 88 153 l102 -52 q-122 -215 -222 -353 l163 14 l26 -100 l-273 -29 q-39 -6 -74 -25 ZM51 -78 l0 116 l901 0 l0 -116 l-901 0 Z" /><glyph glyph-name="" unicode="&#x4e22;" d="M176 634 q-18 58 -59 107 q407 2 677 50 l70 -101 q-127 -22 -303 -37 l0 -109 l279 0 l0 -108 l-279 0 l0 -105 l381 0 l0 -110 l-455 0 q-63 -86 -146 -173 l310 15 q-39 44 -80 87 l102 51 q118 -115 220 -244 l-83 -86 q-22 31 -70 88 l-472 -26 q-58 -5 -100 -18 l-49 104 q52 16 106 69 q58 57 118 133 l-285 0 l0 110 l381 0 l0 105 l-279 0 l0 108 l279 0 l0 100 q-129 -8 -263 -10 Z" /><glyph glyph-name="" unicode="&#x4e24;" d="M64 654 l0 110 l873 0 l0 -110 l-260 0 q-1 -58 -4 -114 l213 0 l0 -490 q-1 -158 -148 -159 q-30 0 -85 6 q-3 62 -28 115 q47 -6 82 -6 q60 -2 58 61 l0 73 l-60 -47 q-37 66 -78 126 q-33 -107 -86 -194 q-56 27 -115 35 q54 76 83 157 l-62 -59 l-46 65 q-29 -89 -87 -171 q-40 22 -78 33 l0 -197 l-121 0 l0 652 l218 0 q1 20 1 46 q0 13 0 29 q0 13 0 39 l-270 0 ZM236 432 l0 -288 q73 103 90 288 l-90 0 ZM765 432 l-98 0 q-1 -8 -2 -22 q-4 -37 -7 -57 q60 -79 107 -153 l0 232 ZM443 432 q-4 -45 -11 -84 q54 -61 86 -105 q28 82 35 189 l-110 0 ZM452 654 q0 -13 -1 -38 q-1 -50 -2 -76 l109 0 q2 53 2 114 l-108 0 Z" /><glyph glyph-name="" unicode="&#x4e25;" d="M117 660 l0 106 l813 0 l0 -106 l-255 0 l0 -221 l263 0 l0 -106 l-690 0 l0 -44 q5 -258 -125 -412 q-48 36 -110 59 q120 133 115 360 l0 143 l244 0 l0 221 l-255 0 ZM798 450 q-49 31 -103 49 q55 65 105 152 l101 -48 q-43 -78 -103 -153 ZM245 449 q-40 75 -106 159 l108 40 q52 -67 93 -139 l-95 -60 ZM486 660 l0 -221 l76 0 l0 221 l-76 0 Z" /><glyph glyph-name="" unicode="&#x4e27;" d="M113 609 l0 107 l325 0 l0 97 l124 0 l0 -97 l327 0 l0 -107 l-156 0 l97 -56 q-54 -82 -124 -154 l249 0 l0 -107 l-150 0 l93 -73 q-90 -72 -181 -123 q92 -65 248 -102 q-51 -39 -87 -106 q-337 94 -445 404 l-122 0 l0 -231 l128 62 l62 -92 l-205 -105 q-4 -3 -16 -10 q-48 -30 -65 -45 l-61 104 q35 33 35 95 l0 222 l-145 0 l0 107 l248 0 q-56 80 -126 150 l98 55 q75 -75 125 -146 l-71 -59 l120 0 l0 210 l-325 0 ZM607 456 q69 69 124 153 l-169 0 l0 -210 l133 0 q-38 33 -88 57 ZM556 292 q37 -76 78 -122 q101 58 169 122 l-247 0 Z" /><glyph glyph-name="" unicode="&#x4e2a;" d="M910 310 q-262 122 -411 325 q-143 -217 -389 -345 q-40 55 -108 93 q337 163 460 447 l119 -43 q-5 -10 -13 -28 q-5 -12 -8 -18 q160 -212 441 -313 q-52 -44 -91 -118 ZM434 -115 l0 584 l132 0 l0 -584 l-132 0 Z" /><glyph glyph-name="" unicode="&#x4e2d;" d="M435 -115 l0 305 l-224 0 l0 -77 l-126 0 l0 523 l350 0 l0 177 l129 0 l0 -177 l351 0 l0 -523 l-126 0 l0 77 l-225 0 l0 -305 l-129 0 ZM789 518 l-225 0 l0 -211 l225 0 l0 211 ZM211 518 l0 -211 l224 0 l0 211 l-224 0 Z" /><glyph glyph-name="" unicode="&#x4e30;" d="M108 560 l0 113 l328 0 l0 140 l129 0 l0 -140 l328 0 l0 -113 l-328 0 l0 -118 l278 0 l0 -114 l-278 0 l0 -125 l391 0 l0 -115 l-391 0 l0 -203 l-129 0 l0 203 l-391 0 l0 115 l391 0 l0 125 l-278 0 l0 114 l278 0 l0 118 l-328 0 Z" /><glyph glyph-name="" unicode="&#x4e32;" d="M440 -115 l0 167 l-217 0 l0 -55 l-118 0 l0 352 l335 0 l0 82 l-290 0 l0 279 l290 0 l0 103 l121 0 l0 -103 l290 0 l0 -279 l-290 0 l0 -82 l334 0 l0 -352 l-118 0 l0 55 l-216 0 l0 -167 l-121 0 ZM223 254 l0 -106 l217 0 l0 106 l-217 0 ZM777 254 l-216 0 l0 -106 l216 0 l0 106 ZM262 522 l178 0 l0 95 l-178 0 l0 -95 ZM739 617 l-178 0 l0 -95 l178 0 l0 95 Z" /><glyph glyph-name="" unicode="&#x4e34;" d="M438 -115 l0 501 l308 0 q-78 78 -159 140 l79 62 l-87 0 q-56 -100 -124 -175 q-50 27 -86 35 l0 -563 l-113 0 l0 928 l113 0 l0 -332 q136 160 187 342 l109 -31 q-15 -51 -35 -100 l316 0 l0 -104 l-272 0 q74 -51 144 -121 l-60 -81 l165 0 l0 -501 l-110 0 l0 66 l-265 0 l0 -66 l-110 0 ZM78 14 l0 693 l111 0 l0 -693 l-111 0 ZM813 283 l-79 0 l0 -230 l79 0 l0 230 ZM548 283 l0 -230 l78 0 l0 230 l-78 0 Z" /><glyph glyph-name="" unicode="&#x4e38;" d="M505 64 q-66 55 -126 99 q-77 -169 -251 -281 q-53 52 -122 80 q194 111 263 279 q-43 30 -130 86 q-21 14 -32 21 l91 80 q13 -8 38 -24 q46 -28 69 -44 q15 69 20 152 l-220 0 l0 117 l223 0 q1 70 1 184 l130 -7 q0 -67 0 -102 q0 -40 -1 -75 l301 0 l-21 -527 q-4 -65 45 -64 l21 0 q41 -1 54 62 q11 51 18 105 q53 -50 107 -63 q-7 -50 -14 -84 q-26 -147 -151 -143 l-55 0 q-164 -2 -154 192 l16 405 l-170 0 q-8 -127 -35 -229 q45 -32 131 -99 q5 -4 8 -6 l-54 -114 Z" /><glyph glyph-name="" unicode="&#x4e39;" d="M40 255 l0 112 l182 0 l0 404 l575 0 l0 -404 l164 0 l0 -112 l-164 0 l0 -200 q0 -161 -159 -161 q-41 0 -88 5 q-5 67 -30 122 q45 -9 90 -9 q64 -3 62 68 l0 175 l-331 0 q-10 -216 -152 -374 q-59 47 -129 70 q139 129 156 304 l-176 0 ZM344 660 l0 -293 l328 0 l0 293 l-328 0 ZM505 398 q-52 103 -102 177 l110 37 q60 -83 95 -161 l-103 -53 Z" /><glyph glyph-name="" unicode="&#x4e3a;" d="M616 126 q-65 94 -143 173 q-90 -261 -322 -413 q-47 55 -117 86 q296 169 352 491 l-302 0 l0 111 l318 0 q14 109 15 243 l131 -9 q-7 -146 -17 -234 l376 0 l-17 -494 q-6 -178 -182 -177 q-64 1 -109 5 q-4 70 -33 125 q72 -9 118 -9 q75 -1 77 81 l14 358 l-260 0 q-15 -87 -42 -162 l103 58 q73 -75 130 -154 l-90 -79 ZM274 588 q-51 66 -123 129 l100 64 q65 -56 114 -118 l-91 -75 Z" /><glyph glyph-name="" unicode="&#x4e3b;" d="M83 539 l0 115 l376 0 q-37 63 -96 136 l141 35 q64 -76 102 -145 l-66 -26 l378 0 l0 -115 l-352 0 l0 -187 l287 0 l0 -115 l-287 0 l0 -200 l390 0 l0 -115 l-911 0 l0 115 l390 0 l0 200 l-290 0 l0 115 l290 0 l0 187 l-352 0 Z" /><glyph glyph-name="" unicode="&#x4e3d;" d="M712 132 q-27 76 -73 181 l0 -427 l-114 0 l0 696 l371 0 l0 -566 q2 -126 -118 -124 q-33 0 -68 5 q-2 53 -25 106 q37 -5 59 -5 q41 -2 39 45 l0 125 l-71 -36 ZM283 138 q-30 102 -65 193 l0 -445 l-114 0 l0 696 l366 0 l0 -555 q1 -136 -121 -135 q-35 0 -64 5 q-5 63 -26 102 q24 -5 52 -6 q48 -4 45 54 l0 125 l-73 -34 ZM49 654 l0 110 l904 0 l0 -110 l-904 0 ZM639 475 l0 -99 l62 19 q42 -82 82 -185 l0 265 l-144 0 ZM218 475 l0 -98 l72 17 q40 -91 66 -178 l0 259 l-138 0 Z" /><glyph glyph-name="" unicode="&#x4e3e;" d="M72 474 l0 104 l210 0 q-75 84 -154 151 l93 63 q72 -59 154 -148 l-59 -66 l276 0 q104 115 176 229 l101 -61 q-55 -78 -135 -168 l192 0 l0 -104 l-240 0 q123 -123 312 -187 q-56 -48 -85 -96 q-84 34 -168 95 l0 -67 l-187 0 l0 -81 l341 0 l0 -104 l-341 0 l0 -149 l-119 0 l0 149 l-338 0 l0 104 l338 0 l0 81 l-186 0 l0 68 q-81 -60 -167 -98 q-34 45 -87 77 q179 77 308 208 l-235 0 ZM558 407 l0 -87 l141 0 q-83 68 -147 154 l-112 0 q-63 -86 -144 -154 l143 0 l0 87 l119 0 ZM506 598 q-57 87 -139 178 l102 48 q70 -79 122 -158 l-85 -68 Z" /><glyph glyph-name="" unicode="&#x4e43;" d="M707 -97 q-43 0 -100 6 q-9 72 -41 129 q65 -9 108 -9 q100 -4 103 93 l14 203 l-121 0 q-31 0 -78 -6 l-29 89 q35 18 51 68 l57 174 l-210 0 q-8 -537 -312 -762 q-53 51 -125 78 q307 189 311 684 l-207 0 l0 112 l679 0 l0 -99 l-80 -227 l196 0 l-20 -350 q-13 -182 -196 -183 Z" /><glyph glyph-name="" unicode="&#x4e45;" d="M164 -118 q-48 61 -115 96 q442 176 553 570 l-209 0 q-80 -164 -175 -254 q-55 36 -126 51 q183 183 267 469 l119 -41 q-14 -53 -35 -109 l299 0 l0 -100 q-36 -150 -109 -274 q126 -193 353 -280 q-71 -44 -119 -112 q-192 100 -309 284 q-153 -194 -394 -300 Z" /><glyph glyph-name="" unicode="&#x4e48;" d="M845 -122 q-11 16 -34 50 q-11 17 -17 25 l-494 -29 q-67 -4 -126 -22 l-54 117 q81 25 150 100 q214 221 387 499 l118 -65 q-193 -294 -404 -506 l341 19 q-58 75 -109 135 l114 57 q115 -133 224 -296 l-96 -84 ZM147 253 q-52 50 -123 68 q257 213 417 499 l119 -59 q-170 -301 -413 -508 Z" /><glyph glyph-name="" unicode="&#x4e49;" d="M881 -101 q-218 88 -372 213 q-151 -132 -378 -225 q-38 58 -106 100 q240 91 386 216 q-181 185 -289 465 l119 55 q99 -260 265 -426 q151 172 219 454 l122 -52 q-77 -299 -242 -490 q162 -123 373 -189 q-63 -50 -97 -121 ZM480 544 q-49 123 -114 243 l119 30 q57 -100 106 -220 l-111 -53 Z" /><glyph glyph-name="" unicode="&#x4e4b;" d="M120 -115 l-96 89 q61 97 115 159 q40 43 89 45 q9 0 27 -4 q254 167 422 321 l-579 0 l0 117 l371 0 q-56 75 -133 153 l138 55 q77 -75 136 -160 l-72 -48 l334 0 l0 -99 q-181 -205 -502 -414 q72 -47 206 -53 q188 -10 400 4 q-35 -66 -36 -135 q-249 0 -384 10 q-201 6 -300 105 q-16 14 -24 14 q-10 0 -24 -16 q-42 -57 -88 -143 Z" /><glyph glyph-name="" unicode="&#x4e4c;" d="M729 -105 q-43 0 -89 5 q-4 65 -28 114 q57 -8 97 -8 q80 -3 81 73 l7 160 l-596 0 l0 477 l157 0 q38 54 60 111 l130 -29 q-18 -43 -43 -82 l293 0 l-10 -205 q-12 -127 -145 -133 q-61 1 -110 7 q-3 54 -25 111 q57 -8 99 -9 q58 -2 59 48 l4 75 l-344 0 l0 -265 l601 0 l-14 -290 q-2 -165 -184 -160 ZM59 64 l0 106 l669 0 l0 -106 l-669 0 Z" /><glyph glyph-name="" unicode="&#x4e4d;" d="M161 321 q-43 41 -125 62 q187 184 276 450 l126 -56 q-15 -37 -42 -95 l565 0 l0 -116 l-448 0 l0 -135 l342 0 l0 -113 l-342 0 l0 -136 l395 0 l0 -112 l-395 0 l0 -185 l-131 0 l0 681 l-46 0 q-87 -152 -175 -245 Z" /><glyph glyph-name="" unicode="&#x4e4e;" d="M37 231 l0 115 l410 0 l0 276 q-137 -9 -313 -11 q-18 66 -52 115 q458 -1 730 58 l77 -111 q-129 -24 -313 -41 l0 -286 l388 0 l0 -115 l-388 0 l0 -166 q4 -175 -170 -171 q-42 0 -96 7 q-8 70 -34 125 q70 -9 100 -9 q73 -2 71 72 l0 142 l-410 0 ZM714 353 q-40 41 -98 61 q97 80 177 192 l93 -62 q-74 -106 -172 -191 ZM310 352 q-89 104 -181 178 l100 62 q82 -67 158 -152 l-77 -88 Z" /><glyph glyph-name="" unicode="&#x4e4f;" d="M117 -99 l-94 84 q54 76 108 130 q36 39 88 40 q16 0 31 -5 q162 74 385 209 l-521 0 l0 112 l363 0 q-54 68 -112 127 l131 51 q62 -61 116 -137 l-61 -41 l316 0 l0 -93 q-194 -161 -490 -302 q70 -34 199 -38 q174 -9 398 4 q-33 -61 -35 -125 q-216 -3 -380 6 q-212 7 -311 96 q-18 14 -24 13 q-10 0 -24 -16 q-36 -45 -83 -115 ZM136 637 q-17 63 -48 109 q483 -2 759 50 l74 -99 q-346 -57 -785 -60 Z" /><glyph glyph-name="" unicode="&#x4e50;" d="M126 320 l40 428 q391 7 645 55 l63 -107 q-253 -45 -588 -56 l-21 -206 l204 0 l0 169 l128 0 l0 -169 l305 0 l0 -114 l-305 0 l0 -263 q4 -170 -155 -166 q-46 0 -99 8 q-4 73 -27 126 q66 -11 91 -11 q64 -2 62 64 l0 242 l-343 0 ZM163 -65 q-52 40 -119 56 q135 139 200 276 l109 -50 q-67 -152 -190 -282 ZM868 -56 q-104 147 -208 263 l111 54 q107 -112 194 -235 l-97 -82 Z" /><glyph glyph-name="" unicode="&#x4e52;" d="M41 168 l0 109 l170 0 l0 483 q336 0 572 46 l71 -102 q-211 -42 -517 -49 l0 -118 l550 0 l0 -108 l-168 0 l0 -152 l241 0 l0 -109 l-919 0 ZM185 -124 q-46 54 -102 89 q166 75 278 189 l103 -75 q-118 -118 -279 -203 ZM337 429 l0 -152 l260 0 l0 152 l-260 0 Z" /><glyph glyph-name="" unicode="&#x4e53;" d="M41 168 l0 109 l168 0 l0 483 q337 1 570 46 l72 -102 q-211 -42 -517 -49 l0 -118 l546 0 l0 -108 l-158 0 l0 -152 l238 0 l0 -109 l-919 0 ZM334 429 l0 -152 l266 0 l0 152 l-266 0 ZM843 -123 q-146 108 -299 185 l88 87 q159 -84 266 -161 l-55 -111 Z" /><glyph glyph-name="" unicode="&#x4e54;" d="M197 644 q-14 55 -53 108 q164 -4 334 3 q172 8 311 26 l58 -102 q-144 -19 -289 -28 q-10 -52 -28 -99 l397 0 l0 -108 l-245 0 q117 -107 313 -158 q-49 -38 -81 -107 q-97 35 -181 87 l0 -373 l-125 0 l0 406 l79 0 q-85 64 -146 145 l-64 0 q-51 -82 -129 -145 l88 0 l0 -79 q7 -236 -223 -351 q-42 49 -103 76 q118 60 159 119 q44 57 43 156 l0 51 q-84 -58 -198 -105 q-31 54 -94 95 q217 73 312 183 l-256 0 l0 108 l325 0 q18 43 31 94 q-120 -5 -235 -2 Z" /><glyph glyph-name="" unicode="&#x4e56;" d="M177 666 q-18 57 -50 102 q399 -5 664 36 l70 -97 q-115 -15 -301 -29 l0 -81 l389 0 l0 -102 l-389 0 l0 -610 l-121 0 l0 610 l-387 0 l0 102 l387 0 l0 74 q-143 -6 -262 -5 ZM743 24 q-117 0 -118 125 l0 297 l109 0 l0 -106 q67 28 137 74 l66 -84 q-86 -51 -203 -94 l0 -72 q-1 -40 38 -39 l19 0 q40 -3 49 38 q9 37 13 66 q44 -35 90 -47 q-4 -28 -14 -71 q-22 -90 -120 -87 l-66 0 ZM80 279 l0 94 l181 0 l0 73 l108 0 l0 -423 l-108 0 l0 76 l-168 -62 l-49 100 l217 63 l0 79 l-181 0 Z" /><glyph glyph-name="" unicode="&#x4e58;" d="M893 -82 q-240 96 -344 259 l5 -30 l0 -261 l-117 0 l0 261 l5 28 q-111 -161 -320 -262 q-36 48 -93 88 q185 75 295 184 l-58 0 l0 35 l-162 -47 l-48 89 l210 48 l0 52 l-178 0 l0 92 l178 0 l0 51 l105 0 l0 -268 q37 44 66 107 l0 189 l-372 0 l0 95 l372 0 l0 51 q-139 -6 -254 -5 q-12 49 -48 96 q389 -5 639 34 l69 -90 q-122 -16 -289 -28 l0 -58 l372 0 l0 -95 l-372 0 l0 -189 q110 -242 426 -322 q-53 -44 -87 -104 ZM729 181 q-105 5 -111 113 l0 210 l105 0 l0 -77 q80 30 143 65 l67 -72 q-96 -49 -210 -78 l0 -27 q0 -41 37 -41 l36 0 q39 -3 48 38 q6 22 11 52 q46 -33 90 -46 q-6 -30 -14 -53 q-23 -87 -118 -84 l-84 0 Z" /><glyph glyph-name="" unicode="&#x4e59;" d="M340 -80 q-211 5 -217 166 q-2 110 112 208 q162 144 401 328 l-516 0 l0 119 l730 0 l0 -108 q-311 -249 -519 -430 q-64 -59 -63 -101 q1 -61 100 -61 l315 0 q103 -4 123 93 q1 4 3 13 q12 52 18 88 q51 -56 118 -80 q-5 -27 -19 -75 q-25 -90 -71 -125 q-46 -36 -138 -35 l-377 0 Z" /><glyph glyph-name="" unicode="&#x4e5d;" d="M756 -91 q-90 -1 -125 45 q-36 43 -32 151 l16 392 l-151 0 q-26 -453 -328 -614 q-54 54 -123 82 q300 144 319 532 l-227 0 l0 116 l234 0 q3 93 3 200 l132 -7 q0 -105 -3 -193 l280 0 l-23 -518 q-3 -64 50 -63 l23 0 q45 -3 58 61 q6 29 20 105 q45 -44 105 -62 q-6 -41 -13 -77 q-25 -156 -154 -150 l-61 0 Z" /><glyph glyph-name="" unicode="&#x4e5e;" d="M383 -89 q-183 3 -188 128 q0 79 74 137 q106 82 293 187 q17 7 42 16 l-364 0 l0 111 q-55 -69 -98 -106 q-52 41 -116 63 q189 181 263 382 l119 -43 q-12 -37 -31 -76 l539 0 l0 -113 l-602 0 q-33 -56 -74 -106 l571 0 l0 -105 q-324 -196 -432 -274 q-36 -26 -36 -53 q-1 -33 60 -33 l321 0 q88 -7 104 80 q8 27 16 71 q42 -47 104 -71 q-12 -50 -19 -68 q-38 -132 -183 -127 l-363 0 Z" /><glyph glyph-name="" unicode="&#x4e5f;" d="M374 -80 q-189 -2 -187 171 l0 303 l-126 -31 l-29 111 l155 38 l0 217 l126 0 l0 -186 l144 35 l0 235 l127 0 l0 -204 l280 68 l-11 -357 q-4 -151 -133 -150 q-23 0 -65 6 q-7 60 -31 112 q32 -5 58 -5 q47 -3 46 55 l7 191 l-151 -38 l0 -392 l-127 0 l0 361 l-144 -36 l0 -315 q2 -66 68 -68 l357 0 q78 -2 102 81 q10 31 20 82 q47 -53 111 -76 q-6 -31 -19 -75 q-37 -139 -209 -133 l-369 0 Z" /><glyph glyph-name="" unicode="&#x4e60;" d="M684 -92 q-56 0 -127 6 q-1 63 -30 131 q75 -13 127 -13 q91 -3 91 101 l11 482 l-648 0 l0 120 l781 0 l-16 -618 q-3 -210 -189 -209 ZM136 9 l-71 110 q283 99 582 249 l64 -99 q-293 -150 -575 -260 ZM403 306 q-84 94 -203 188 l101 77 q117 -94 187 -169 l-85 -96 Z" /><glyph glyph-name="" unicode="&#x4e61;" d="M202 168 l-44 113 q70 14 132 61 q72 53 143 111 l-151 -8 q-74 -5 -107 -12 l-42 109 q65 14 110 56 q98 80 220 225 l120 -54 q-129 -146 -221 -219 l195 10 q84 77 156 152 l111 -61 q-199 -206 -417 -358 l273 14 q51 79 85 182 l111 -64 q-125 -420 -701 -546 q-33 58 -97 105 q353 72 509 215 l-264 -15 q-58 -2 -121 -16 Z" /><glyph glyph-name="" unicode="&#x4e66;" d="M884 514 q-19 18 -62 57 q-20 18 -30 27 l-14 -247 l148 0 l-10 -241 q-4 -170 -174 -170 q-52 0 -103 6 q-4 69 -29 121 q73 -9 108 -9 q73 -3 74 73 l6 109 l-295 0 l0 -355 l-125 0 l0 355 l-315 0 l0 111 l315 0 l0 178 l-261 0 l0 112 l261 0 l0 172 l125 0 l0 -172 l239 0 q-72 57 -116 89 l95 73 q107 -75 229 -187 l-66 -102 ZM663 529 l-160 0 l0 -178 l150 0 l10 178 Z" /><glyph glyph-name="" unicode="&#x4e70;" d="M49 176 l0 112 l282 0 q-107 64 -228 120 l69 86 q115 -51 211 -112 l-50 -94 l157 0 q2 5 3 11 q27 117 22 332 l126 -9 q1 -213 -23 -331 q0 0 0 -1 q-1 -1 -1 -2 l334 0 l0 -112 l-368 0 q-104 -228 -472 -291 q-24 61 -73 113 q303 46 399 178 l-388 0 ZM866 485 q-50 15 -118 16 l51 154 l-710 0 l0 111 l833 0 l0 -102 l-56 -179 ZM889 -120 q-171 99 -342 168 l74 87 q169 -63 311 -143 l-43 -112 ZM420 443 q-112 71 -220 117 l64 78 q106 -46 202 -103 l-46 -92 Z" /><glyph glyph-name="" unicode="&#x4e71;" d="M98 635 q-19 58 -53 98 q235 11 412 54 l63 -94 q-61 -17 -161 -32 l0 -125 l192 0 l0 -103 l-192 0 l0 -111 l145 0 l0 -405 l-119 0 l0 57 l-173 0 l0 -79 l-119 0 l0 427 l145 0 l0 111 l-198 0 l0 103 l198 0 l0 109 q-71 -7 -140 -10 ZM747 -88 q-148 -5 -144 158 l0 742 l122 0 l0 -725 q-1 -58 49 -57 l28 0 q48 -4 62 62 q1 4 3 13 q9 47 12 69 q42 -40 104 -62 q-3 -23 -14 -69 q-33 -137 -156 -131 l-66 0 ZM212 223 l0 -148 l173 0 l0 148 l-173 0 Z" /><glyph glyph-name="" unicode="&#x4e73;" d="M64 83 l-36 99 l233 36 l0 57 q62 34 101 70 l-277 0 l0 94 l433 0 l0 -84 q-61 -61 -141 -112 l0 -6 l170 26 l32 -93 l-202 -34 l0 -98 q-1 -144 -135 -145 q-33 0 -85 6 q-2 54 -27 108 q45 -8 83 -8 q49 -1 48 51 l0 66 l-197 -33 ZM751 -89 q-141 -1 -140 153 l0 746 l115 0 l0 -728 q1 -56 52 -57 l32 0 q51 -2 65 65 q12 47 17 80 q49 -46 98 -60 q-5 -30 -15 -66 q-21 -76 -54 -104 q-32 -30 -95 -29 l-75 0 ZM89 648 q-15 54 -53 99 q281 2 469 48 l65 -90 q-225 -45 -481 -57 ZM474 447 q-30 22 -90 39 q58 84 93 170 l94 -47 q-37 -81 -97 -162 ZM141 440 q-43 81 -96 151 l100 37 q38 -51 81 -132 l-85 -56 ZM291 474 q-28 87 -68 158 l105 19 q28 -55 55 -137 l-92 -40 Z" /><glyph glyph-name="" unicode="&#x4e7e;" d="M533 432 q-3 2 -8 7 q-25 25 -40 35 l0 -285 l-142 0 l0 -66 l171 0 l0 -97 l-171 0 l0 -141 l-112 0 l0 141 l-195 0 l0 97 l195 0 l0 66 l-143 0 l0 364 l143 0 l0 67 l-181 0 l0 97 l181 0 l0 95 l112 0 l0 -95 l168 0 l0 -97 l-168 0 l0 -67 l142 0 q91 123 133 269 l104 -43 q-16 -48 -34 -92 l268 0 l0 -106 l-319 0 q-36 -66 -69 -106 l322 0 l0 -92 q-151 -193 -209 -281 q-21 -29 -21 -49 q0 -33 54 -33 l62 0 q59 -5 75 65 q8 29 17 77 q43 -48 98 -65 q-8 -48 -17 -80 q-31 -107 -148 -106 l-115 0 q-142 4 -148 120 q-1 60 38 118 q63 93 165 221 l-186 0 l0 88 q-6 -8 -20 -23 q-1 -2 -2 -3 ZM196 461 l0 -49 l181 0 l0 49 l-181 0 ZM196 281 l181 0 l0 49 l-181 0 l0 -49 Z" /><glyph glyph-name="" unicode="&#x4e86;" d="M406 -104 q-35 0 -93 6 q-9 73 -36 130 q58 -9 110 -9 q70 -2 68 72 l0 364 q128 79 238 177 l-579 0 l0 117 l771 0 l0 -104 q-141 -143 -300 -251 l0 -336 q3 -168 -179 -166 Z" /><glyph glyph-name="" unicode="&#x4e88;" d="M418 -107 q-47 0 -111 6 q-4 71 -30 129 q74 -12 112 -12 q64 1 65 62 l0 245 l-385 0 l0 116 l428 0 q-125 79 -224 128 l88 76 q68 -35 146 -82 q89 55 144 99 l-489 0 l0 111 l686 0 l0 -101 q-116 -95 -236 -175 q16 -10 39 -27 l-27 -29 l313 0 l0 -101 l-77 -179 q-51 20 -123 22 l64 142 l-218 0 l0 -268 q-3 -159 -165 -162 Z" /><glyph glyph-name="" unicode="&#x4e89;" d="M127 446 q-55 50 -101 68 q224 137 324 311 l108 -47 q-7 -12 -23 -36 q-6 -9 -9 -14 l343 0 l0 -92 l-102 -80 l196 0 l0 -171 l103 0 l0 -103 l-103 0 l0 -223 l-119 0 l0 51 l-193 0 l0 -89 q-4 -127 -142 -131 q-43 0 -96 7 q-4 62 -23 109 q49 -8 92 -8 q47 0 47 49 l0 63 l-296 0 l0 99 l296 0 l0 73 l-393 0 l0 103 l393 0 l0 72 l-231 0 l0 35 q-35 -27 -71 -46 ZM352 635 q-26 -30 -77 -79 l228 0 l96 79 l-247 0 ZM551 282 l0 -73 l193 0 l0 73 l-193 0 ZM744 457 l-193 0 l0 -72 l193 0 l0 72 Z" /><glyph glyph-name="" unicode="&#x4e8b;" d="M56 669 l0 87 l382 0 l0 57 l120 0 l0 -57 l386 0 l0 -87 l-386 0 l0 -43 l276 0 l0 -195 l-276 0 l0 -42 l311 0 l0 -127 l97 0 l0 -85 l-97 0 l0 -171 l-115 0 l0 43 l-196 0 l0 -20 q3 -144 -147 -141 q-39 0 -90 7 q-3 52 -28 106 q54 -9 91 -9 q57 -3 54 56 l0 1 l-319 0 l0 85 l319 0 l0 43 l-403 0 l0 85 l403 0 l0 43 l-313 0 l0 84 l313 0 l0 42 l-275 0 l0 195 l275 0 l0 43 l-382 0 ZM558 177 l0 -43 l196 0 l0 43 l-196 0 ZM754 305 l-196 0 l0 -43 l196 0 l0 43 ZM720 553 l-162 0 l0 -50 l162 0 l0 50 ZM277 503 l161 0 l0 50 l-161 0 l0 -50 Z" /><glyph glyph-name="" unicode="&#x4e8c;" d="M132 586 l0 122 l737 0 l0 -122 l-737 0 ZM46 -39 l0 124 l909 0 l0 -124 l-909 0 Z" /><glyph glyph-name="" unicode="&#x4e8e;" d="M126 644 l0 119 l749 0 l0 -119 l-288 0 l0 -206 l378 0 l0 -120 l-378 0 l0 -248 q5 -181 -178 -176 q-41 0 -88 5 q-7 78 -33 133 q60 -11 98 -11 q71 -2 69 71 l0 226 l-419 0 l0 120 l419 0 l0 206 l-329 0 Z" /><glyph glyph-name="" unicode="&#x4e8f;" d="M38 410 l0 115 l925 0 l0 -115 l-572 0 l-28 -111 l485 0 l-25 -234 q-14 -170 -192 -168 q-56 0 -122 7 q-1 69 -31 136 q85 -12 141 -12 q69 -1 76 67 l10 92 l-499 0 l54 223 l-222 0 ZM147 647 l0 115 l706 0 l0 -115 l-706 0 Z" /><glyph glyph-name="" unicode="&#x4e91;" d="M50 354 l0 113 l899 0 l0 -113 l-412 0 q-87 -158 -193 -293 l329 17 q-55 68 -115 131 l111 57 q147 -154 244 -279 l-91 -98 q-7 10 -23 31 q-25 34 -39 52 l-440 -28 q-59 -3 -137 -29 l-67 124 q62 18 99 62 q88 105 173 253 l-338 0 ZM173 632 l0 113 l657 0 l0 -113 l-657 0 Z" /><glyph glyph-name="" unicode="&#x4e92;" d="M88 650 l0 111 l822 0 l0 -111 l-487 0 l-22 -126 l395 0 l-51 -492 l215 0 l0 -112 l-918 0 l0 112 l573 0 l14 128 l-423 0 l88 490 l-206 0 ZM655 414 l-273 0 l-26 -144 l284 0 l15 144 Z" /><glyph glyph-name="" unicode="&#x4e94;" d="M100 646 l0 115 l801 0 l0 -115 l-387 0 l-34 -204 l318 0 l0 -407 l161 0 l0 -115 l-917 0 l0 115 l240 0 l49 294 l-165 0 l0 113 l183 0 l34 204 l-283 0 ZM672 329 l-211 0 l-49 -294 l260 0 l0 294 Z" /><glyph glyph-name="" unicode="&#x4e95;" d="M111 522 l0 116 l174 0 l0 175 l126 0 l0 -175 l202 0 l0 175 l127 0 l0 -175 l157 0 l0 -116 l-157 0 l0 -186 l218 0 l0 -116 l-218 0 l0 -335 l-127 0 l0 335 l-215 0 q-32 -206 -203 -344 q-53 54 -121 75 q170 125 195 269 l-222 0 l0 116 l237 0 q0 7 0 22 q1 18 1 27 l0 137 l-174 0 ZM411 391 q0 -10 -1 -30 q0 -17 0 -25 l203 0 l0 186 l-202 0 l0 -131 Z" /><glyph glyph-name="" unicode="&#x4e9a;" d="M96 649 l0 111 l809 0 l0 -111 l-233 0 l0 -387 q79 129 134 258 l112 -56 q-76 -170 -164 -296 q-39 24 -82 38 l0 -174 l287 0 l0 -112 l-917 0 l0 112 l285 0 l0 201 l-94 -61 q-66 154 -159 309 l120 37 q75 -117 133 -253 l0 384 l-231 0 ZM450 649 l0 -617 l100 0 l0 617 l-100 0 Z" /><glyph glyph-name="" unicode="&#x4e9b;" d="M68 235 l-46 109 l87 18 l0 342 l119 0 l0 -317 l75 16 l0 410 l119 0 l0 -149 l112 0 l0 -104 l-112 0 l0 -132 l92 19 l41 -91 l-487 -121 ZM725 288 q-145 -5 -139 132 l0 393 l119 0 l0 -174 q94 47 169 105 l81 -79 q-123 -86 -250 -140 l0 -79 q-2 -53 51 -51 l43 0 q53 -3 65 48 q1 3 2 8 q9 37 15 66 q47 -47 96 -62 q-1 -6 -4 -18 q-7 -35 -13 -54 q-30 -96 -142 -95 l-93 0 ZM60 -89 l0 108 l881 0 l0 -108 l-881 0 ZM178 113 l0 105 l643 0 l0 -105 l-643 0 Z" /><glyph glyph-name="" unicode="&#x4ea1;" d="M50 502 l0 118 l442 0 q-41 65 -123 157 l139 51 q65 -70 119 -153 l-105 -55 l430 0 l0 -118 l-623 0 l0 -452 l572 0 l0 -119 l-708 0 l0 571 l-143 0 Z" /><glyph glyph-name="" unicode="&#x4ea4;" d="M875 -108 q-218 50 -368 162 q-139 -112 -380 -170 q-31 55 -87 97 q254 60 378 153 q-93 96 -152 220 q-49 -43 -103 -78 q-51 55 -97 75 q139 84 252 219 l-240 0 l0 106 l387 0 q-37 53 -85 106 l120 44 q45 -47 94 -119 l-64 -31 l396 0 l0 -106 l-251 0 q133 -101 224 -189 l-66 -101 q-127 130 -264 231 l77 59 l-303 0 l76 -53 q-51 -70 -135 -148 l84 37 q56 -119 135 -196 q73 81 118 209 l107 -41 q-50 -141 -134 -240 q136 -89 371 -130 q-61 -45 -90 -116 Z" /><glyph glyph-name="" unicode="&#x4ea5;" d="M53 575 l0 111 l388 0 q-45 66 -72 100 l130 37 q49 -64 92 -137 l359 0 l0 -111 l-441 0 q-62 -76 -135 -143 l229 8 q55 51 94 110 l92 -71 q-231 -284 -617 -384 q-40 55 -98 89 q222 46 390 150 l-176 -8 q-64 -5 -109 -20 l-46 97 q63 14 106 51 q59 52 116 121 l-302 0 ZM849 -119 q-110 90 -246 176 q-186 -120 -435 -179 q-28 53 -96 103 q482 88 703 393 l88 -78 q-70 -90 -156 -162 q118 -71 213 -142 l-71 -111 Z" /><glyph glyph-name="" unicode="&#x4ea6;" d="M73 545 l0 113 l392 0 q-38 67 -90 132 l130 33 q49 -55 96 -137 l-82 -28 l409 0 l0 -113 l-233 0 l0 -491 q6 -163 -156 -157 q-50 0 -84 3 q-4 70 -28 121 q37 -8 88 -9 q61 -4 58 63 l0 470 l-123 0 l0 -152 q6 -352 -247 -508 q-50 38 -121 59 q142 87 195 188 q54 97 53 270 l0 143 l-257 0 ZM119 93 l-106 61 q99 121 152 288 l103 -47 q-56 -163 -149 -302 ZM885 97 q-68 163 -162 300 l111 40 q83 -129 147 -270 l-96 -70 Z" /><glyph glyph-name="" unicode="&#x4ea7;" d="M73 604 l0 112 l378 0 q-10 18 -31 53 q-10 16 -15 24 l144 27 q37 -58 61 -104 l341 0 l0 -112 l-259 0 l97 -30 q-31 -68 -75 -138 l239 0 l0 -111 l-691 0 q11 -298 -123 -449 q-55 52 -117 76 q76 84 96 180 q12 50 15 121 q3 69 -2 183 l209 0 q-45 88 -80 136 l102 32 l-289 0 ZM465 462 l-62 -26 l166 0 q63 93 93 168 l-278 0 q48 -72 81 -142 Z" /><glyph glyph-name="" unicode="&#x4ea9;" d="M132 -113 l0 611 l737 0 l0 -611 l-122 0 l0 64 l-493 0 l0 -64 l-122 0 ZM42 576 l0 115 l389 0 q-36 56 -63 94 l142 38 q44 -56 85 -132 l363 0 l0 -115 l-916 0 ZM560 170 l0 -108 l187 0 l0 108 l-187 0 ZM254 170 l0 -108 l186 0 l0 108 l-186 0 ZM747 386 l-187 0 l0 -107 l187 0 l0 107 ZM254 386 l0 -107 l186 0 l0 107 l-186 0 Z" /><glyph glyph-name="" unicode="&#x4eab;" d="M49 59 l0 97 l410 0 l0 22 q93 26 152 57 l-443 0 l0 84 l668 0 l0 -67 q-76 -46 -204 -96 l320 0 l0 -97 l-368 0 l0 -30 q0 -141 -134 -140 q-79 1 -115 7 q-2 50 -33 105 q48 -9 104 -11 q55 -2 53 57 l0 12 l-410 0 ZM185 363 l0 231 l631 0 l0 -231 l-631 0 ZM68 637 l0 97 l362 0 q-21 31 -47 66 l148 23 q26 -33 60 -89 l341 0 l0 -97 l-864 0 ZM309 448 l383 0 l0 61 l-383 0 l0 -61 Z" /><glyph glyph-name="" unicode="&#x4eac;" d="M180 211 l0 315 l643 0 l0 -315 l-238 0 l0 -184 q-2 -133 -138 -135 q-56 0 -106 6 q-1 66 -24 117 q64 -10 97 -10 q45 -1 45 49 l0 157 l-279 0 ZM54 589 l0 109 l388 0 q-12 18 -37 55 q-19 28 -29 43 l140 26 q45 -59 79 -124 l352 0 l0 -109 l-893 0 ZM305 314 l392 0 l0 109 l-392 0 l0 -109 ZM132 -89 q-48 56 -98 82 q144 84 246 204 l95 -69 q-104 -129 -243 -217 ZM895 -85 q-128 118 -257 204 l88 79 q117 -74 231 -176 l-62 -107 Z" /><glyph glyph-name="" unicode="&#x4ead;" d="M62 163 l0 176 l877 0 l0 -177 l-91 0 l0 -63 l-265 0 l0 -71 q-2 -137 -148 -139 q-57 0 -106 7 q-5 58 -31 111 q66 -9 108 -10 q54 0 54 51 l0 51 l-307 0 l0 64 l-91 0 ZM179 381 l0 218 l643 0 l0 -218 l-643 0 ZM58 640 l0 90 l375 0 q-19 36 -42 71 l147 19 q27 -45 52 -90 l353 0 l0 -90 l-885 0 ZM184 247 l0 -55 l633 0 l0 55 l-633 0 ZM300 465 l401 0 l0 49 l-401 0 l0 -49 Z" /><glyph glyph-name="" unicode="&#x4eae;" d="M116 -123 q-27 56 -79 98 q237 19 248 120 q8 79 6 111 l418 0 l0 -152 q-2 -46 45 -44 l46 0 q42 -3 54 46 q9 36 14 71 q37 -38 100 -59 q-1 -5 -3 -14 q-6 -30 -9 -41 q-17 -59 -50 -81 q-32 -23 -100 -23 l-82 0 q-137 -3 -134 124 l0 78 l-182 0 q0 -20 -9 -57 q-29 -149 -283 -177 ZM203 386 l0 216 l594 0 l0 -216 l-594 0 ZM78 172 l0 172 l845 0 l0 -171 l-126 0 l0 77 l-593 0 l0 -78 l-126 0 ZM76 644 l0 95 l353 0 q-7 9 -19 27 q-17 25 -26 37 l148 21 q33 -44 58 -85 l334 0 l0 -95 l-848 0 ZM328 466 l344 0 l0 54 l-344 0 l0 -54 Z" /><glyph glyph-name="" unicode="&#x4eb2;" d="M134 615 l0 105 l314 0 q-9 18 -30 51 q-12 19 -17 28 l142 23 q39 -61 60 -102 l270 0 l0 -105 l-181 0 l84 -39 q-36 -58 -68 -100 l240 0 l0 -106 l-373 0 l0 -81 l311 0 l0 -107 l-311 0 l0 -157 q-4 -130 -136 -134 q-38 0 -90 4 q-4 75 -34 125 q51 -10 90 -10 q46 -2 44 50 l0 122 l-315 0 l0 107 l315 0 l0 81 l-392 0 l0 106 l263 0 q-32 47 -81 106 l92 33 l-197 0 ZM162 -85 q-40 45 -102 68 q136 85 222 184 l96 -56 q-90 -101 -216 -196 ZM875 -81 q-130 104 -250 174 l85 71 q104 -58 217 -147 l-52 -98 ZM452 507 l-46 -31 l153 0 q47 64 94 139 l-286 0 q48 -53 85 -108 Z" /><glyph glyph-name="" unicode="&#x4eba;" d="M879 -98 q-270 148 -376 444 q-89 -302 -370 -453 q-51 59 -122 97 q370 167 405 581 q4 38 6 96 q0 28 1 62 q0 31 0 86 l140 -11 q-2 -128 -11 -233 q105 -406 446 -560 q-64 -38 -119 -109 Z" /><glyph glyph-name="" unicode="&#x4ebf;" d="M574 -88 q-186 3 -188 166 q3 74 46 140 q108 165 308 399 l-319 0 l0 113 l481 0 l0 -107 q-223 -268 -346 -443 q-36 -53 -36 -89 q1 -61 91 -61 l142 0 q84 -7 103 94 q7 31 13 70 q56 -48 108 -66 q-5 -26 -15 -68 q-34 -155 -192 -148 l-196 0 ZM112 285 q-42 57 -106 93 q187 199 261 439 l117 -57 q-41 -128 -125 -270 l38 0 l0 -605 l-122 0 l0 475 q-38 -49 -63 -75 Z" /><glyph glyph-name="" unicode="&#x4ec0;" d="M367 363 l0 117 l234 0 l0 325 l127 0 l0 -325 l239 0 l0 -117 l-239 0 l0 -478 l-127 0 l0 478 l-234 0 ZM184 -115 l0 470 q-8 -11 -24 -32 q-8 -12 -41 -54 q-50 56 -116 85 q184 202 265 463 l122 -56 q-48 -135 -114 -259 l32 0 l0 -617 l-124 0 Z" /><glyph glyph-name="" unicode="&#x4ec1;" d="M175 -114 l0 472 q-41 -54 -62 -74 q-44 60 -106 93 q184 198 260 438 l117 -57 q-39 -115 -116 -254 l30 0 l0 -618 l-123 0 ZM338 -53 l0 117 l631 0 l0 -117 l-631 0 ZM404 578 l0 118 l517 0 l0 -118 l-517 0 Z" /><glyph glyph-name="" unicode="&#x4ec5;" d="M894 -103 q-148 78 -242 180 q-102 -108 -263 -187 q-44 59 -97 96 q175 84 276 193 q-104 150 -158 367 l110 53 q45 -194 128 -319 q90 141 121 352 l-375 0 l0 114 l501 0 l0 -103 q-37 -284 -162 -468 q99 -102 257 -172 q-57 -39 -96 -106 ZM167 -115 l0 496 q-31 -42 -66 -78 q-33 48 -93 88 q165 161 247 422 l110 -51 q-36 -123 -109 -248 l32 0 l0 -629 l-121 0 Z" /><glyph glyph-name="" unicode="&#x4ec6;" d="M890 178 q-82 120 -221 284 l0 -577 l-127 0 l0 928 l127 0 l0 -327 l95 47 q125 -133 217 -265 l-91 -90 ZM195 -115 l0 495 q-35 -51 -81 -103 q-41 49 -106 77 q178 185 265 461 l115 -46 q-42 -133 -106 -250 l34 0 l0 -634 l-121 0 Z" /><glyph glyph-name="" unicode="&#x4ec7;" d="M107 308 q-43 43 -103 73 q171 185 252 436 l110 -55 q-44 -131 -121 -261 l38 0 l0 -552 q197 177 202 551 l-143 0 l0 113 l145 0 l0 200 l121 -7 q0 -113 -1 -193 l235 0 l-28 -535 q-4 -57 25 -54 l10 0 q25 -3 37 51 q10 43 18 107 q40 -41 91 -55 q-8 -48 -17 -86 q-28 -131 -128 -127 l-30 0 q-139 -4 -127 153 l22 433 l-110 0 q-5 -428 -210 -617 q-53 40 -112 56 l0 -54 l-121 0 l0 492 q-20 -27 -55 -69 Z" /><glyph glyph-name="" unicode="&#x4eca;" d="M898 328 q-243 113 -398 310 q-155 -206 -387 -325 q-41 53 -104 88 q332 172 462 431 l116 -48 l-22 -43 q170 -202 431 -302 q-58 -43 -98 -111 ZM515 -132 q-55 44 -122 65 q187 141 259 252 l-475 0 l0 109 l626 0 l0 -95 q-90 -177 -288 -331 ZM502 311 q-44 71 -116 160 l109 53 q55 -58 108 -144 l-101 -69 Z" /><glyph glyph-name="" unicode="&#x4ecb;" d="M898 328 q-249 105 -400 308 q-152 -204 -385 -323 q-41 53 -104 88 q336 170 462 431 l117 -51 q-5 -11 -17 -31 q-5 -8 -7 -12 q164 -207 430 -299 q-55 -40 -96 -111 ZM214 -124 q-44 44 -120 65 q112 78 152 151 q41 71 40 188 l0 136 l128 0 l0 -129 q12 -264 -200 -411 ZM595 -104 l0 521 l128 0 l0 -521 l-128 0 Z" /><glyph glyph-name="" unicode="&#x4ecd;" d="M109 312 q-37 45 -103 74 q170 184 251 433 l110 -55 q-42 -126 -120 -258 l38 0 l0 -561 q119 128 160 276 q41 135 41 426 l-101 0 l0 108 l495 0 l0 -98 l-62 -214 l134 0 l-20 -352 q-13 -183 -190 -187 q-35 0 -79 6 q-3 74 -36 132 q58 -11 99 -12 q87 -4 87 86 l12 219 l-71 0 q-31 0 -58 -6 l-28 88 q33 20 47 70 l47 160 l-154 0 q13 -538 -212 -763 q-47 41 -111 57 l0 -55 l-121 0 l0 495 q-27 -36 -55 -69 Z" /><glyph glyph-name="" unicode="&#x4ece;" d="M887 -106 q-151 164 -211 382 q-56 -227 -223 -391 q-49 54 -114 79 q245 214 258 585 q2 79 2 127 q1 43 0 132 l123 -1 q0 -105 -1 -147 q0 -52 -2 -102 q45 -357 278 -567 q-69 -42 -110 -97 ZM425 172 q-49 78 -96 142 q-44 -229 -206 -405 q-51 51 -116 75 q214 204 222 541 q2 76 2 135 q1 55 0 146 l123 -1 q0 -173 -5 -316 q0 -2 0 -5 q-1 -4 -1 -6 q122 -146 169 -216 l-92 -90 Z" /><glyph glyph-name="" unicode="&#x4ed1;" d="M899 365 q-245 104 -400 283 q-91 -112 -226 -204 l98 0 l0 -162 q182 67 326 156 l87 -86 q-178 -107 -413 -185 l0 -66 q0 -69 69 -69 l212 0 q77 -1 93 69 q11 42 20 92 q46 -47 108 -68 q-4 -24 -12 -51 q-2 -11 -4 -17 q-36 -142 -177 -139 l-253 0 q-187 -5 -182 169 l0 338 q-66 -41 -134 -73 q-41 52 -92 90 q322 153 452 383 l116 -45 q-4 -8 -14 -23 q-5 -9 -8 -14 q160 -177 427 -272 q-54 -45 -93 -106 Z" /><glyph glyph-name="" unicode="&#x4ed3;" d="M902 373 q-82 33 -152 73 l0 -182 q-3 -139 -137 -142 q-48 0 -91 5 q-4 54 -28 107 q52 -7 84 -7 q52 -2 51 57 l0 62 l-278 0 l0 -248 q-2 -70 66 -68 l268 0 q71 -2 91 69 q12 34 20 83 q46 -46 106 -69 q-10 -50 -21 -73 q-42 -125 -172 -122 l-305 0 q-181 -5 -176 166 l0 337 q-57 -30 -121 -60 q-32 53 -92 94 q335 141 463 371 l115 -46 q-5 -9 -16 -25 q-6 -10 -9 -15 q163 -175 426 -261 q-55 -40 -92 -106 ZM502 648 q-86 -109 -222 -195 l458 0 q-137 80 -236 195 Z" /><glyph glyph-name="" unicode="&#x4ed4;" d="M346 285 l0 113 l258 0 l0 100 q79 61 152 144 l-340 0 l0 111 l504 0 l0 -100 q-81 -104 -193 -203 l0 -52 l240 0 l0 -113 l-240 0 l0 -226 q-1 -164 -155 -165 q-33 0 -94 7 q-4 74 -37 129 q70 -13 102 -13 q64 -3 61 65 l0 203 l-258 0 ZM162 -115 l0 498 q-35 -40 -70 -73 q-36 57 -85 93 q176 156 269 413 l106 -69 q-50 -136 -140 -262 l40 0 l0 -600 l-120 0 Z" /><glyph glyph-name="" unicode="&#x4ed6;" d="M558 -85 q-160 -2 -158 157 l0 328 l-59 -13 l-33 106 l92 21 l0 235 l115 0 l0 -207 l86 20 l0 251 l115 0 l0 -223 l203 48 l-6 -337 q-3 -135 -115 -135 q-25 0 -47 3 q-3 62 -27 111 q23 -3 39 -3 q40 -2 38 43 l2 176 l-87 -21 l0 -367 l-115 0 l0 340 l-86 -20 l0 -341 q1 -60 61 -60 l209 0 q61 -4 80 56 q7 19 19 67 q0 -3 2 6 q39 -43 95 -66 q-6 -28 -18 -63 q-37 -114 -160 -112 l-245 0 ZM172 -114 l0 501 q-33 -45 -66 -79 q-42 50 -101 71 q172 183 251 440 l110 -48 q-36 -119 -105 -242 l26 0 l0 -643 l-115 0 Z" /><glyph glyph-name="" unicode="&#x4ed7;" d="M895 -105 q-158 56 -265 143 q-83 -85 -231 -151 q-31 49 -97 84 l0 -86 l-122 0 l0 511 q-32 -42 -65 -77 q-42 55 -102 85 q181 187 252 417 l110 -54 q-36 -111 -111 -242 l38 0 l0 -548 q168 70 238 146 q-100 111 -173 293 l106 58 q53 -147 137 -249 q45 97 49 278 l-312 0 l0 109 l314 0 q0 80 0 122 q-1 47 -2 80 l125 -7 q0 -126 -1 -195 l166 0 l0 -109 l-169 0 l0 -2 q-5 -235 -79 -366 q112 -89 291 -141 q-59 -33 -97 -99 Z" /><glyph glyph-name="" unicode="&#x4ed8;" d="M376 487 l0 115 l351 0 l0 202 l126 0 l0 -202 l116 0 l0 -115 l-116 0 l0 -438 q-3 -147 -159 -150 q-60 0 -104 7 q-2 70 -28 124 q56 -8 102 -9 q66 -3 63 62 l0 404 l-351 0 ZM185 -115 l0 476 q-4 -5 -12 -15 q-35 -48 -56 -72 q-46 54 -114 85 q182 198 262 458 l122 -56 q-46 -130 -109 -248 l30 0 l0 -628 l-123 0 ZM540 145 q-63 116 -138 211 l114 51 q70 -87 129 -191 l-105 -71 Z" /><glyph glyph-name="" unicode="&#x4ed9;" d="M374 -51 l0 671 l118 0 l0 -556 l101 0 l0 749 l120 0 l0 -749 l101 0 l0 556 l117 0 l0 -735 l-117 0 l0 64 l-440 0 ZM107 311 q-47 51 -102 73 q170 181 252 431 l110 -52 q-43 -126 -124 -263 l40 0 l0 -614 l-120 0 l0 495 q-27 -37 -56 -70 Z" /><glyph glyph-name="" unicode="&#x4edf;" d="M442 616 q-12 59 -54 110 q255 3 471 64 l68 -103 q-87 -25 -195 -43 l0 -229 l236 0 l0 -114 l-236 0 l0 -416 l-125 0 l0 416 l-244 0 l0 114 l244 0 l0 212 q-88 -10 -165 -11 ZM183 -115 l0 474 q-33 -45 -67 -87 q-44 52 -113 82 q184 203 262 465 l122 -57 q-48 -139 -118 -264 l36 0 l0 -613 l-122 0 Z" /><glyph glyph-name="" unicode="&#x4ee3;" d="M364 340 l-21 106 l176 28 q-17 144 -24 329 l126 13 q3 -170 20 -321 l294 49 l19 -106 l-298 -50 q33 -194 89 -283 q35 -64 69 -66 q25 1 39 50 q11 34 20 90 q44 -51 96 -76 q-10 -49 -22 -86 q-44 -120 -128 -120 q-96 5 -166 116 q-81 131 -118 355 l-171 -28 ZM184 -115 l0 469 q-5 -7 -15 -20 q-34 -45 -52 -67 q-44 51 -114 84 q183 203 263 466 l122 -56 q-47 -136 -112 -257 l31 0 l0 -619 l-123 0 ZM785 559 q-65 90 -136 164 l103 50 q72 -71 124 -148 l-91 -66 Z" /><glyph glyph-name="" unicode="&#x4ee4;" d="M663 -133 q-240 134 -458 223 l78 91 q126 -52 215 -95 q115 89 185 160 l-540 0 l0 111 l357 0 q-58 62 -125 117 l95 71 q67 -50 132 -122 l-65 -66 l309 0 l0 -104 q-98 -118 -230 -225 q21 -11 62 -33 q23 -12 34 -18 l-49 -110 ZM918 373 q-271 105 -418 283 q-154 -185 -405 -293 q-30 57 -89 101 q341 137 470 371 l117 -45 q-10 -21 -24 -39 q157 -180 427 -261 q-49 -50 -78 -117 Z" /><glyph glyph-name="" unicode="&#x4ee5;" d="M899 -101 q-89 111 -184 214 q-91 -134 -278 -233 q-45 55 -106 89 q326 147 381 478 q26 138 25 340 l130 -15 q-1 -199 -28 -345 q-23 -115 -60 -199 q119 -118 205 -222 l-85 -107 ZM153 -66 l-70 117 q41 47 41 111 l0 580 l128 0 l0 -563 l182 138 l78 -87 l-290 -231 q-26 -20 -69 -65 ZM527 490 q-126 178 -213 266 l116 54 q106 -114 192 -237 l-95 -83 Z" /><glyph glyph-name="" unicode="&#x4eea;" d="M161 -114 l0 494 q-25 -32 -66 -75 q-34 48 -93 87 q168 165 248 421 l111 -59 q-43 -136 -121 -262 l42 0 l0 -513 q168 83 270 187 q-150 183 -211 460 l112 54 q56 -252 183 -414 q118 169 152 445 l117 -38 q-42 -316 -181 -503 q113 -101 278 -171 q-66 -46 -99 -106 q-161 84 -262 180 q-105 -104 -264 -189 q-42 52 -95 81 l0 -79 l-121 0 ZM613 544 q-42 112 -111 235 l115 35 q59 -103 101 -214 l-105 -56 Z" /><glyph glyph-name="" unicode="&#x4eec;" d="M789 -107 q-48 0 -98 5 q-4 68 -29 119 q59 -9 100 -9 q58 -3 56 64 l0 559 l-208 0 l0 111 l328 0 l0 -695 q0 -154 -149 -154 ZM153 -115 l0 503 q-25 -37 -51 -63 q-43 56 -89 84 q141 160 218 409 l104 -56 q-31 -111 -98 -238 l36 0 l0 -639 l-120 0 ZM359 -114 l0 691 l120 0 l0 -691 l-120 0 ZM517 563 q-67 80 -161 160 l89 68 q79 -71 144 -143 l-72 -85 Z" /><glyph glyph-name="" unicode="&#x4ef0;" d="M607 -115 l0 238 l-158 -88 q-30 -16 -60 -44 l-56 91 q35 30 33 96 l0 568 q114 15 215 55 l40 -64 l312 0 l0 -584 q0 -113 -115 -113 q-40 0 -57 2 q-7 56 -37 114 l0 -271 l-117 0 ZM150 -115 l0 483 q-24 -33 -46 -59 q-35 46 -97 80 q151 173 228 428 l106 -51 q-34 -117 -102 -248 l30 0 l0 -633 l-119 0 ZM484 180 l81 43 l42 -67 l0 533 q-63 -25 -123 -36 l0 -473 ZM724 625 l0 -467 q35 -5 58 -5 q37 1 38 39 l0 433 l-96 0 Z" /><glyph glyph-name="" unicode="&#x4ef2;" d="M584 -115 l0 273 l-100 0 l0 -77 l-113 0 l0 544 l213 0 l0 188 l123 0 l0 -188 l213 0 l0 -544 l-112 0 l0 77 l-101 0 l0 -273 l-123 0 ZM166 -115 l0 495 q-27 -37 -56 -69 q-44 49 -101 76 q158 172 247 431 l110 -50 q-37 -125 -118 -264 l35 0 l0 -619 l-117 0 ZM808 517 l-105 0 l0 -251 l105 0 l0 251 ZM484 517 l0 -251 l104 0 l0 251 l-104 0 Z" /><glyph glyph-name="" unicode="&#x4ef6;" d="M331 198 l0 110 l287 0 l0 192 l-130 0 q-28 -74 -63 -136 q-55 28 -120 32 q96 152 136 365 l111 -36 q-11 -59 -29 -118 l95 0 l0 206 l123 0 l0 -206 l192 0 l0 -107 l-192 0 l0 -192 l229 0 l0 -110 l-229 0 l0 -313 l-123 0 l0 313 l-287 0 ZM158 -114 l0 492 q-26 -37 -56 -73 q-37 48 -98 79 q167 207 230 433 l116 -46 q-37 -127 -106 -256 l33 0 l0 -629 l-119 0 Z" /><glyph glyph-name="" unicode="&#x4ef7;" d="M160 -113 l0 495 q-33 -37 -67 -68 q-36 58 -85 92 q175 153 269 409 l106 -66 q-50 -133 -136 -256 l33 0 l0 -85 q224 157 292 411 l115 -32 q-7 -25 -16 -47 q126 -203 325 -282 q-57 -37 -93 -98 q-46 25 -88 55 l0 -527 l-119 0 l0 536 l107 0 q-109 85 -180 202 q-56 -112 -144 -204 l82 0 l0 -166 q5 -257 -163 -372 q-44 43 -104 66 q154 88 148 313 l0 124 q-33 -30 -66 -54 q-43 44 -96 71 l0 -517 l-120 0 Z" /><glyph glyph-name="" unicode="&#x4efb;" d="M418 618 q-19 62 -51 108 q311 9 486 56 l69 -96 q-93 -24 -214 -41 l0 -240 l261 0 l0 -113 l-261 0 l0 -259 l224 0 l0 -111 l-565 0 l0 111 l222 0 l0 259 l-256 0 l0 113 l256 0 l0 226 q-81 -10 -171 -13 ZM106 309 q-40 47 -101 69 q172 188 250 441 l110 -47 q-34 -114 -106 -245 l29 0 l0 -642 l-116 0 l0 504 q-33 -44 -66 -80 Z" /><glyph glyph-name="" unicode="&#x4efd;" d="M904 316 q-34 31 -61 62 l-12 -313 q-2 -168 -162 -164 q-38 0 -86 6 q-2 56 -28 117 q52 -11 91 -11 q65 -2 67 68 l8 234 l-119 0 q-7 -298 -227 -433 q-43 45 -95 70 l0 -66 l-120 0 l0 486 q-29 -33 -59 -61 q-35 53 -88 90 q173 158 257 417 l108 -65 q-48 -142 -140 -278 l42 0 l0 -69 q152 150 207 382 l112 -37 q-48 -189 -143 -322 l343 0 q-111 137 -152 345 l111 35 q43 -250 236 -407 q-51 -28 -90 -86 ZM366 320 q-30 38 -86 69 l0 -427 q201 114 203 353 l-63 0 l0 66 q-29 -37 -54 -61 Z" /><glyph glyph-name="" unicode="&#x4eff;" d="M709 -104 q-46 0 -88 6 q-1 60 -30 119 q55 -9 105 -10 q70 -3 71 70 l10 235 l-182 0 q-26 -275 -208 -434 q-45 42 -102 62 l0 -59 l-120 0 l0 499 q-27 -37 -59 -72 q-39 45 -102 73 q170 183 253 431 l109 -52 q-40 -121 -114 -250 l33 0 l0 -554 q184 138 196 419 q3 71 5 155 l-120 0 l0 108 l274 0 q-55 60 -116 114 l105 64 q79 -71 134 -142 l-41 -36 l241 0 l0 -108 l-357 0 q-1 -54 -3 -112 l299 0 l-16 -359 q-8 -170 -177 -167 Z" /><glyph glyph-name="" unicode="&#x4f01;" d="M66 -83 l0 108 l149 0 l0 353 l124 0 l0 -353 l131 0 l0 473 l125 0 l0 -179 l210 0 l0 -106 l-210 0 l0 -188 l332 0 l0 -108 l-861 0 ZM909 373 q-248 94 -409 282 q-152 -187 -398 -293 q-36 55 -92 93 q325 140 462 377 l114 -44 q-6 -13 -21 -37 q-2 -3 -3 -5 q173 -188 433 -262 q-56 -49 -86 -111 Z" /><glyph glyph-name="" unicode="&#x4f0a;" d="M162 -114 l0 502 q-30 -40 -62 -72 q-32 44 -96 77 q163 182 237 430 l115 -52 q-37 -121 -105 -245 l29 0 l0 -583 q160 113 192 266 l-105 0 l0 106 l121 0 q4 47 4 99 l0 18 l-172 0 l0 108 l172 0 l0 111 l-114 0 l0 106 l509 0 l0 -217 l83 0 l0 -108 l-83 0 l0 -279 l-118 0 l0 56 l-174 0 q-36 -206 -204 -334 q-51 40 -111 61 l0 -50 l-118 0 ZM611 417 q0 -54 -4 -102 l162 0 l0 117 l-158 0 l0 -15 ZM769 651 l-158 0 l0 -111 l158 0 l0 111 Z" /><glyph glyph-name="" unicode="&#x4f0d;" d="M379 650 l0 111 l550 0 l0 -111 l-251 0 l-29 -207 l236 0 l0 -410 l86 0 l0 -114 l-626 0 l0 114 l123 0 l43 298 l-122 0 l0 112 l139 0 l29 207 l-178 0 ZM166 -115 l0 492 q-26 -38 -54 -70 q-49 50 -104 74 q153 173 239 438 l113 -47 q-32 -118 -106 -256 l29 0 l0 -631 l-117 0 ZM765 331 l-132 0 l-43 -298 l175 0 l0 298 Z" /><glyph glyph-name="" unicode="&#x4f0f;" d="M163 -115 l0 486 q-27 -34 -54 -64 q-46 50 -102 76 q159 173 250 434 l112 -51 q-34 -116 -112 -252 l28 0 l0 -549 q215 151 253 434 l-202 0 l0 111 l208 0 q1 118 1 175 q1 68 0 125 l122 -7 q0 -115 0 -172 q-1 -66 -2 -121 l267 0 l0 -111 l-257 0 q69 -269 308 -408 q-68 -41 -110 -95 q-174 125 -253 336 q-66 -215 -233 -345 q-50 49 -102 67 l0 -69 l-122 0 ZM818 536 q-57 80 -134 169 l96 48 q65 -70 121 -146 l-83 -71 Z" /><glyph glyph-name="" unicode="&#x4f10;" d="M341 389 l-18 110 l176 22 q-14 134 -17 282 l120 9 q1 -154 14 -275 l306 40 l20 -110 l-309 -40 q16 -99 43 -182 q90 72 161 174 l84 -68 q-83 -128 -201 -220 q51 -110 99 -111 q27 -4 40 52 q7 22 18 88 q42 -48 93 -73 q-9 -48 -21 -82 q-38 -116 -125 -115 q-121 1 -204 169 q-84 -52 -203 -102 q-44 59 -94 92 q150 58 252 123 q-36 106 -60 239 l-174 -22 ZM165 -114 l0 482 q-28 -38 -58 -73 q-49 50 -102 72 q163 176 256 446 l110 -52 q-46 -132 -120 -261 l34 0 l0 -614 l-120 0 ZM777 585 q-50 73 -119 145 l96 47 q61 -60 110 -131 l-87 -61 Z" /><glyph glyph-name="" unicode="&#x4f11;" d="M585 -115 l0 396 l5 35 q-67 -164 -198 -294 q-42 43 -91 64 l0 -201 l-123 0 l0 502 q-44 -57 -70 -84 q-39 51 -104 89 q175 183 261 429 l112 -59 q-38 -111 -112 -240 l36 0 l0 -409 q173 157 255 379 l-199 0 l0 109 l228 0 l0 207 l122 0 l0 -207 l239 0 l0 -109 l-215 0 q88 -229 269 -377 q-66 -24 -107 -84 q-120 121 -192 286 l6 -36 l0 -396 l-122 0 Z" /><glyph glyph-name="" unicode="&#x4f17;" d="M132 -99 q-53 48 -120 71 q180 104 223 306 q13 65 13 143 q-59 -33 -125 -60 q-33 46 -96 86 q329 114 423 378 l116 -29 q-9 -25 -20 -49 q158 -192 427 -266 q-58 -49 -94 -109 q-89 30 -165 75 q0 -78 -6 -144 q75 -221 275 -326 q-57 -39 -99 -89 q-142 91 -213 243 q-51 -151 -192 -257 q-47 41 -117 62 q201 129 226 352 q10 84 7 175 l105 -7 q-130 78 -211 188 q-74 -111 -200 -197 l82 -9 q-3 -92 -15 -163 q82 -68 156 -151 l-83 -74 q-47 53 -103 108 q-58 -158 -194 -257 Z" /><glyph glyph-name="" unicode="&#x4f18;" d="M165 -114 l0 497 q-29 -40 -57 -72 q-47 50 -102 73 q171 186 252 431 l110 -52 q-40 -119 -109 -238 l26 0 l0 -559 q224 177 231 479 l-183 0 l0 110 l184 0 l0 248 l120 0 l0 -248 l295 0 l0 -110 l-296 0 q0 -6 -1 -17 q-1 -23 -2 -34 l90 0 l0 -307 q-1 -66 47 -65 l21 0 q44 -5 58 69 q9 41 16 92 q45 -48 98 -67 q-7 -45 -16 -76 q-32 -134 -145 -130 l-53 0 q-141 -2 -140 152 l0 182 q-53 -214 -223 -357 q-47 39 -101 59 l0 -60 l-120 0 ZM799 567 q-64 86 -137 163 l98 51 q67 -65 122 -139 l-83 -75 Z" /><glyph glyph-name="" unicode="&#x4f19;" d="M874 -107 q-155 127 -226 314 q-70 -198 -261 -325 q-45 55 -100 79 q266 158 284 466 q7 67 9 150 q0 39 0 92 q0 45 -1 140 l122 -8 q1 -184 -8 -339 q45 -319 288 -484 q-59 -23 -107 -85 ZM165 -114 l0 504 q-30 -43 -63 -79 q-47 51 -102 73 q167 179 252 431 l109 -52 q-42 -124 -110 -242 l35 0 l0 -635 l-121 0 ZM828 316 q-57 34 -108 34 q81 152 115 294 l113 -43 q-50 -162 -120 -285 ZM443 284 l-108 48 q55 138 76 291 l108 -33 q-25 -168 -76 -306 Z" /><glyph glyph-name="" unicode="&#x4f1a;" d="M265 386 l0 70 q-73 -44 -160 -82 q-31 54 -93 95 q322 121 460 363 l118 -45 q-5 -9 -16 -25 q-5 -7 -7 -11 q162 -188 424 -254 q-56 -46 -83 -111 q-93 33 -172 78 l0 -78 l-471 0 ZM93 196 l0 108 l814 0 l0 -108 l-412 0 q-56 -88 -116 -161 l260 15 q-23 28 -66 78 q-7 9 -11 13 l105 53 q107 -113 200 -242 l-98 -74 q-27 40 -50 69 l-410 -26 q-60 -4 -118 -23 l-46 109 q58 11 100 53 q39 41 104 136 l-256 0 ZM499 657 q-80 -96 -180 -165 l371 0 q-111 71 -191 165 Z" /><glyph glyph-name="" unicode="&#x4f1e;" d="M56 85 l0 115 l381 0 l0 332 l125 0 l0 -332 l385 0 l0 -115 l-385 0 l0 -200 l-125 0 l0 200 l-381 0 ZM898 400 q-247 84 -400 260 q-155 -175 -394 -269 q-31 50 -92 96 q333 112 460 344 l117 -45 q-5 -10 -18 -28 q-3 -5 -5 -8 q157 -174 421 -239 q-53 -42 -89 -111 ZM703 215 q-43 35 -109 55 q84 84 133 175 l104 -54 q-56 -99 -128 -176 ZM300 217 q-64 94 -138 169 l112 49 q65 -66 118 -139 l-92 -79 Z" /><glyph glyph-name="" unicode="&#x4f1f;" d="M807 -27 q-35 0 -63 3 q-4 62 -22 109 q29 -6 62 -7 q37 0 38 37 l3 89 l-142 0 l0 -319 l-122 0 l0 319 l-229 0 l0 104 l229 0 l0 92 l-173 0 l0 104 l173 0 l0 89 l-206 0 l0 104 l206 0 l0 116 l122 0 l0 -116 l239 0 l0 -104 l-239 0 l0 -89 l215 0 l0 -104 l-215 0 l0 -92 l260 0 l-6 -225 q-3 -110 -130 -110 ZM167 -115 l0 482 q-37 -52 -66 -81 q-43 56 -97 92 q162 173 240 442 l110 -53 q-33 -121 -106 -265 l40 0 l0 -617 l-121 0 Z" /><glyph glyph-name="" unicode="&#x4f20;" d="M378 585 l0 102 l172 0 q8 38 20 112 q2 12 3 18 l121 -21 q-2 -10 -6 -29 q-9 -53 -16 -80 l247 0 l0 -102 l-270 0 q-2 -8 -6 -23 q-11 -45 -18 -67 l336 0 l0 -105 l-365 0 q-13 -47 -28 -86 l327 0 l0 -95 q-61 -98 -133 -184 q15 -8 42 -24 q31 -18 46 -26 l-53 -103 q-170 99 -366 188 l78 92 q63 -28 150 -72 q58 66 94 121 l-318 0 l0 90 q22 53 36 99 l-141 0 l0 105 l173 0 q12 44 24 90 l-149 0 ZM102 283 q-46 57 -98 90 q165 183 240 448 l110 -52 q-32 -124 -100 -259 l34 0 l0 -625 l-120 0 l0 480 q-39 -55 -66 -82 Z" /><glyph glyph-name="" unicode="&#x4f24;" d="M416 -115 q-47 53 -111 81 q198 123 236 344 l-178 0 l0 108 l191 0 q5 70 5 134 l122 -12 q-1 -27 -5 -88 q-2 -23 -3 -34 l251 0 l-10 -353 q-6 -167 -156 -166 q-51 0 -103 6 q-1 67 -25 119 q71 -9 96 -9 q68 -3 68 70 l8 225 l-140 0 q-35 -275 -246 -425 ZM100 282 q-44 56 -97 90 q162 175 239 449 l110 -52 q-31 -123 -100 -259 l34 0 l0 -625 l-119 0 l0 481 q-37 -54 -67 -84 ZM405 428 q-42 37 -103 63 q133 140 191 330 l108 -39 q-13 -39 -29 -75 l377 0 l0 -106 l-427 0 q-53 -101 -117 -173 Z" /><glyph glyph-name="" unicode="&#x4f26;" d="M903 380 q-168 102 -264 260 q-61 -106 -150 -196 l83 0 l0 -150 q124 54 211 119 l83 -83 q-135 -89 -294 -151 l0 -90 q-1 -60 60 -59 l89 0 q61 -1 77 59 q12 39 20 95 q44 -46 105 -69 q-10 -49 -21 -84 q-37 -117 -154 -113 l-144 0 q-155 -2 -153 148 l0 341 q-1 -1 -4 -3 q-37 -34 -57 -49 q-38 53 -95 87 q222 159 299 380 l117 -29 q-8 -22 -17 -42 q109 -186 300 -276 q-53 -32 -91 -95 ZM161 -114 l0 497 q-23 -27 -68 -69 q-37 58 -86 92 q177 155 270 410 l105 -67 q-48 -130 -135 -256 l34 0 l0 -607 l-120 0 Z" /><glyph glyph-name="" unicode="&#x4f2a;" d="M167 -114 l0 481 q-33 -48 -67 -82 q-45 59 -97 92 q160 172 240 443 l110 -53 q-34 -128 -109 -271 l43 0 l0 -522 q196 184 244 479 l-193 0 l0 110 l110 0 q-45 66 -106 132 l97 56 q50 -50 99 -120 l-88 -68 l94 0 q10 121 10 249 l126 -9 q-4 -125 -14 -240 l261 0 l-13 -486 q-3 -176 -170 -175 q-30 0 -83 4 q-2 67 -29 120 q61 -9 89 -9 q71 -2 72 79 l3 96 l-83 -73 q-45 71 -104 139 q-72 -221 -225 -365 q-41 38 -97 57 l0 -64 l-120 0 ZM654 453 q-10 -74 -30 -142 l56 30 q71 -78 116 -144 l8 256 l-150 0 Z" /><glyph glyph-name="" unicode="&#x4f2f;" d="M383 -114 l0 788 l164 0 q36 90 48 142 l128 -27 q-16 -55 -41 -115 l236 0 l0 -788 l-122 0 l0 91 l-291 0 l0 -91 l-122 0 ZM162 -115 l0 488 q-32 -47 -65 -82 q-34 53 -88 92 q161 179 235 433 l109 -47 q-36 -125 -108 -260 l38 0 l0 -624 l-121 0 ZM505 277 l0 -192 l291 0 l0 192 l-291 0 ZM505 566 l0 -185 l291 0 l0 185 l-291 0 Z" /><glyph glyph-name="" unicode="&#x4f30;" d="M353 519 l0 108 l244 0 l0 186 l119 0 l0 -186 l248 0 l0 -108 l-248 0 l0 -156 l192 0 l0 -478 l-119 0 l0 68 l-262 0 l0 -68 l-120 0 l0 478 l190 0 l0 156 l-244 0 ZM175 -114 l0 485 q-41 -56 -72 -86 q-43 58 -96 93 q165 177 244 441 l110 -54 q-37 -127 -108 -263 l40 0 l0 -616 l-118 0 ZM527 257 l0 -198 l262 0 l0 198 l-262 0 Z" /><glyph glyph-name="" unicode="&#x4f34;" d="M813 478 q-39 34 -103 56 l0 -82 l227 0 l0 -108 l-227 0 l0 -119 l257 0 l0 -109 l-257 0 l0 -231 l-122 0 l0 231 l-255 0 l0 109 l255 0 l0 119 l-227 0 l0 108 l227 0 l0 361 l122 0 l0 -276 q78 99 130 203 l102 -64 q-67 -124 -129 -198 ZM168 -115 l0 483 q-33 -48 -67 -82 q-44 56 -97 92 q162 176 238 442 l111 -52 q-34 -123 -100 -255 l35 0 l0 -628 l-120 0 ZM472 479 q-45 95 -116 209 l109 42 q68 -101 106 -193 l-99 -58 Z" /><glyph glyph-name="" unicode="&#x4f36;" d="M901 371 q-175 98 -269 260 q-91 -151 -261 -270 q-28 40 -89 77 l0 -552 l-121 0 l0 501 q-24 -28 -69 -70 q-34 57 -85 92 q175 153 269 410 l105 -67 q-47 -129 -134 -255 l35 0 l0 -48 q226 139 307 368 l118 -32 q-9 -24 -19 -45 q113 -193 306 -274 q-56 -34 -93 -95 ZM734 -127 q-177 130 -334 214 l85 81 q72 -36 129 -72 q74 75 124 142 l-369 0 l0 106 l247 0 q-42 66 -98 125 l107 50 q56 -58 95 -124 l-81 -51 l243 0 l0 -96 q-66 -115 -169 -216 q49 -33 76 -57 l-55 -102 Z" /><glyph glyph-name="" unicode="&#x4f38;" d="M591 -115 l0 230 l-107 0 l0 -59 l-113 0 l0 617 l220 0 l0 140 l113 0 l0 -140 l219 0 l0 -617 l-112 0 l0 59 l-107 0 l0 -230 l-113 0 ZM172 -114 l0 526 q-40 -55 -67 -84 q-35 46 -95 76 q156 173 234 413 l105 -50 q-42 -121 -107 -240 l43 0 l0 -641 l-113 0 ZM484 345 l0 -126 l107 0 l0 126 l-107 0 ZM704 345 l0 -126 l107 0 l0 126 l-107 0 ZM484 569 l0 -123 l107 0 l0 123 l-107 0 ZM811 569 l-107 0 l0 -123 l107 0 l0 123 Z" /><glyph glyph-name="" unicode="&#x4f3a;" d="M749 -108 q-42 0 -87 5 q-2 65 -31 118 q59 -9 92 -9 q78 -5 73 76 l0 572 l-426 0 l0 107 l543 0 l0 -702 q1 -168 -164 -167 ZM149 -115 l0 478 q-22 -30 -47 -58 q-36 53 -98 82 q161 183 232 431 l110 -51 q-41 -135 -104 -254 l24 0 l0 -628 l-117 0 ZM359 62 l0 328 l361 0 l0 -328 l-361 0 ZM332 469 l0 104 l418 0 l0 -104 l-418 0 ZM471 165 l138 0 l0 123 l-138 0 l0 -123 Z" /><glyph glyph-name="" unicode="&#x4f3c;" d="M907 -100 q-62 95 -134 191 q-81 -129 -236 -214 q-40 42 -96 70 q298 154 326 491 q16 134 15 349 l118 -11 q-5 -245 -22 -377 q-14 -110 -50 -200 q103 -125 164 -216 l-85 -83 ZM149 -114 l0 491 q-13 -20 -40 -54 q-5 -6 -7 -9 q-41 49 -95 77 q152 179 225 426 l103 -49 q-33 -112 -104 -251 l32 0 l0 -631 l-114 0 ZM388 -43 l-69 90 q39 43 39 102 l0 555 l115 0 l0 -525 l103 87 l72 -73 l-204 -178 q-36 -32 -56 -58 ZM624 481 q-66 170 -139 299 l112 26 q66 -115 125 -265 l-98 -60 Z" /><glyph glyph-name="" unicode="&#x4f43;" d="M377 -100 l0 841 l545 0 l0 -841 l-119 0 l0 65 l-307 0 l0 -65 l-119 0 ZM168 -115 l0 482 q-38 -55 -67 -83 q-48 60 -98 90 q164 181 240 446 l111 -52 q-34 -126 -103 -260 l36 0 l0 -623 l-119 0 ZM706 302 l0 -228 l97 0 l0 228 l-97 0 ZM803 634 l-97 0 l0 -226 l97 0 l0 226 ZM496 302 l0 -228 l95 0 l0 228 l-95 0 ZM496 634 l0 -226 l95 0 l0 226 l-95 0 Z" /><glyph glyph-name="" unicode="&#x4f46;" d="M403 152 l0 599 l499 0 l0 -599 l-499 0 ZM159 -115 l0 486 q-5 -6 -16 -20 q-9 -12 -36 -44 q-40 48 -96 80 q166 185 241 432 l111 -54 q-41 -131 -115 -258 l31 0 l0 -622 l-120 0 ZM335 -78 l0 108 l635 0 l0 -108 l-635 0 ZM523 647 l0 -144 l260 0 l0 144 l-260 0 ZM523 257 l260 0 l0 142 l-260 0 l0 -142 Z" /><glyph glyph-name="" unicode="&#x4f4d;" d="M160 -115 l0 493 q-27 -34 -58 -66 q-38 55 -98 84 q168 180 240 423 l115 -52 q-41 -130 -104 -245 l23 0 l0 -637 l-118 0 ZM320 -79 l0 108 l307 0 q65 212 110 450 l129 -36 q-61 -251 -118 -414 l217 0 l0 -108 l-645 0 ZM357 514 l0 108 l242 0 q-36 83 -85 173 l131 27 q41 -67 84 -168 l-76 -32 l277 0 l0 -108 l-573 0 ZM470 75 q-25 179 -74 363 l123 12 q41 -153 72 -341 l-121 -34 Z" /><glyph glyph-name="" unicode="&#x4f4e;" d="M863 -101 q-70 1 -122 102 q-64 123 -90 345 l-153 0 l0 -243 l109 73 l62 -82 l-187 -125 q-39 -26 -72 -59 l-62 86 q37 41 35 123 l0 615 q284 6 470 52 l68 -96 q-67 -18 -173 -32 q2 -110 9 -206 l184 0 l0 -106 l-174 0 q24 -177 63 -272 q21 -45 37 -44 q16 0 28 44 q9 32 17 76 q40 -50 82 -65 q-6 -40 -22 -83 q-34 -102 -109 -103 ZM172 -115 l0 506 q-34 -45 -68 -81 q-42 48 -102 70 q169 179 254 438 l110 -47 q-38 -123 -116 -260 l37 0 l0 -626 l-115 0 ZM498 637 l0 -185 l143 0 q-7 89 -8 194 q-71 -7 -135 -9 ZM667 -129 q-55 64 -117 115 l84 53 q60 -51 100 -97 l-67 -71 Z" /><glyph glyph-name="" unicode="&#x4f4f;" d="M385 534 l0 111 l237 0 q-36 82 -82 148 l127 27 q40 -57 81 -145 l-74 -30 l263 0 l0 -111 l-216 0 l0 -186 l190 0 l0 -111 l-190 0 l0 -204 l249 0 l0 -111 l-622 0 l0 111 l247 0 l0 204 l-187 0 l0 111 l187 0 l0 186 l-210 0 ZM177 -114 l0 475 q-4 -5 -12 -15 q-33 -42 -52 -60 q-40 56 -109 94 q186 195 261 435 l120 -57 q-40 -120 -115 -251 l31 0 l0 -621 l-124 0 Z" /><glyph glyph-name="" unicode="&#x4f51;" d="M435 -115 l0 328 q-40 -48 -88 -100 q-26 30 -74 59 l0 -287 l-120 0 l0 478 q-22 -30 -46 -58 q-39 49 -98 82 q164 185 236 431 l110 -55 q-46 -148 -119 -273 l37 0 l0 -272 q156 163 216 324 l-142 0 l0 111 l177 0 q18 65 33 164 l119 -20 q-12 -78 -27 -144 l309 0 l0 -111 l-341 0 q-25 -79 -62 -149 l353 0 l0 -508 l-121 0 l0 71 l-231 0 l0 -71 l-121 0 ZM556 285 l0 -221 l231 0 l0 221 l-231 0 Z" /><glyph glyph-name="" unicode="&#x4f53;" d="M153 -115 l0 479 q-22 -28 -46 -57 q-47 54 -98 83 q165 185 236 428 l110 -54 q-44 -137 -110 -257 l25 0 l0 -348 q166 151 245 359 l-190 0 l0 110 l233 0 l0 185 l117 0 l0 -185 l256 0 l0 -110 l-213 0 q87 -226 275 -361 q-41 -35 -85 -106 q-46 39 -88 89 l0 -93 l-145 0 l0 -162 l-117 0 l0 162 l-141 0 l0 93 q-35 -44 -89 -93 q-26 41 -58 71 l0 -233 l-117 0 ZM675 367 l0 -213 l134 0 q-84 104 -139 249 l5 -36 ZM558 154 l0 213 l4 33 q-47 -137 -133 -246 l129 0 Z" /><glyph glyph-name="" unicode="&#x4f55;" d="M334 629 l0 108 l630 0 l0 -108 l-87 0 l0 -572 q-2 -157 -163 -159 q-41 0 -99 6 q-2 58 -26 124 q51 -9 106 -9 q66 -2 63 58 l0 552 l-424 0 ZM157 -115 l0 496 q-26 -42 -55 -78 q-47 58 -97 91 q145 177 208 428 l116 -40 q-29 -121 -83 -236 l31 0 l0 -661 l-120 0 ZM360 128 l0 402 l322 0 l0 -402 l-322 0 ZM468 234 l105 0 l0 189 l-105 0 l0 -189 Z" /><glyph glyph-name="" unicode="&#x4f59;" d="M902 395 q-69 22 -146 62 l0 -57 l-178 0 l0 -87 l336 0 l0 -107 l-336 0 l0 -174 q1 -144 -146 -143 q-28 0 -82 7 q-2 60 -26 114 q52 -9 79 -9 q51 -2 49 55 l0 150 l-356 0 l0 107 l356 0 l0 87 l-197 0 l0 57 q-76 -45 -150 -73 q-32 51 -92 94 q327 125 459 353 l119 -44 q-11 -20 -23 -38 q158 -172 422 -245 q-54 -44 -88 -109 ZM149 -92 q-39 41 -113 72 q145 88 240 210 l100 -62 q-92 -123 -227 -220 ZM867 -94 q-125 118 -260 209 l98 71 q128 -85 232 -179 l-70 -101 ZM499 657 q-78 -87 -169 -151 l342 0 q-101 67 -173 151 Z" /><glyph glyph-name="" unicode="&#x4f5b;" d="M649 -112 l0 307 l-71 0 q-29 -188 -160 -315 q-48 37 -116 56 q137 110 163 259 l-146 0 l11 295 l152 0 l0 91 l-156 0 l0 103 l156 0 l0 127 l110 0 l0 -127 l57 0 l0 127 l110 0 l0 -127 l156 0 l0 -296 l-156 0 l0 -91 l192 0 l-9 -180 q-3 -135 -120 -132 q-24 0 -45 1 q-3 45 -18 91 l0 -189 l-110 0 ZM155 -115 l0 493 q-27 -42 -55 -79 q-35 46 -96 81 q155 192 214 439 l112 -45 q-34 -124 -90 -242 l26 0 l0 -647 l-111 0 ZM843 195 l-84 0 l0 -102 q18 -3 38 -3 q41 -1 43 40 l3 65 ZM592 388 q0 -48 -3 -91 l60 0 l0 91 l-57 0 ZM592 581 l0 -91 l57 0 l0 91 l-57 0 ZM479 297 q3 42 3 91 l-55 0 l-6 -91 l58 0 ZM814 581 l-55 0 l0 -91 l55 0 l0 91 Z" /><glyph glyph-name="" unicode="&#x4f5c;" d="M550 -115 l0 614 q-58 -97 -117 -163 q-46 35 -114 53 q164 180 239 434 l112 -48 q-18 -62 -39 -114 l337 0 l0 -108 l-295 0 l0 -130 l254 0 l0 -108 l-254 0 l0 -134 l283 0 l0 -108 l-283 0 l0 -188 l-123 0 ZM180 -115 l0 503 q-31 -42 -63 -75 q-47 58 -105 88 q173 183 252 420 l113 -59 q-39 -112 -107 -235 l32 0 l0 -642 l-122 0 Z" /><glyph glyph-name="" unicode="&#x4f60;" d="M161 -115 l0 493 q-27 -34 -54 -63 q-42 52 -106 83 q168 165 259 422 l112 -59 q-38 -116 -122 -254 l35 0 l0 -622 l-124 0 ZM876 420 q-54 15 -117 11 l51 128 l-267 0 q-45 -86 -102 -161 q-56 40 -123 51 q139 168 195 368 l118 -45 q-17 -54 -38 -105 l345 0 l0 -89 l-62 -158 ZM576 -108 q-45 0 -93 5 q0 62 -29 116 q45 -8 83 -9 q53 -3 50 49 l0 419 l124 0 l0 -440 q1 -141 -135 -140 ZM417 7 q-55 31 -121 33 q107 161 142 310 l108 -37 q-36 -150 -129 -306 ZM872 2 q-60 172 -133 315 l117 24 q73 -141 124 -285 l-108 -54 Z" /><glyph glyph-name="" unicode="&#x4f63;" d="M105 305 q-39 52 -98 82 q161 184 232 431 l109 -51 q-40 -135 -106 -260 l28 0 l0 -568 q54 77 74 153 q20 75 20 201 l0 472 l561 0 l0 -732 q-1 -141 -139 -142 q-37 0 -73 5 q-1 37 -12 70 l0 -13 l-114 0 l0 229 l-109 0 q-11 -174 -101 -299 q-50 34 -107 43 l0 -41 l-118 0 l0 479 q-2 -3 -7 -9 q-25 -34 -40 -50 ZM758 0 q53 -3 50 56 l0 126 l-107 0 l0 -177 q31 -4 57 -5 ZM701 421 l0 -137 l107 0 l0 137 l-107 0 ZM808 661 l-107 0 l0 -138 l107 0 l0 138 ZM482 661 l0 -138 l105 0 l0 138 l-105 0 ZM482 295 l0 -11 l105 0 l0 137 l-105 0 l0 -126 Z" /><glyph glyph-name="" unicode="&#x4f69;" d="M99 312 q-37 49 -92 82 q146 188 195 425 l110 -38 q-30 -128 -88 -257 l32 0 l0 -565 q81 141 77 473 q0 196 -6 323 l562 0 q-10 -160 -10 -389 q-1 -214 11 -304 q5 -41 16 -41 q14 -2 20 39 q2 13 7 60 q2 17 3 25 q25 -29 68 -48 q-5 -50 -13 -88 q-23 -106 -88 -103 q-86 5 -109 141 q-11 90 -12 316 q1 129 4 291 l-357 0 l0 -231 q3 -376 -89 -537 q-39 40 -84 59 l0 -60 l-112 0 l0 493 q-16 -25 -45 -66 ZM692 -4 q-19 0 -30 1 q-4 36 -17 71 l0 -182 l-80 0 l0 436 l-36 0 l0 -324 l-75 0 l0 420 l104 0 l0 72 l-105 0 l0 98 l306 0 l0 -98 l-107 0 l0 -72 l105 0 l0 -320 q0 -102 -65 -102 ZM684 322 l-39 0 l0 -228 q11 -1 18 -1 q22 -2 21 25 l0 204 Z" /><glyph glyph-name="" unicode="&#x4f70;" d="M362 641 l0 106 l601 0 l0 -106 l-248 0 q-13 -57 -34 -119 l232 0 l0 -636 l-122 0 l0 77 l-275 0 l0 -77 l-122 0 l0 636 l159 0 q19 57 35 119 l-226 0 ZM161 -115 l0 492 q-26 -37 -53 -69 q-41 42 -103 71 q153 174 235 439 l112 -46 q-37 -126 -111 -266 l39 0 l0 -621 l-119 0 ZM516 193 l0 -126 l275 0 l0 126 l-275 0 ZM516 418 l0 -123 l275 0 l0 123 l-275 0 Z" /><glyph glyph-name="" unicode="&#x4f73;" d="M388 143 l0 101 l201 0 l0 101 l124 0 l0 -101 l203 0 l0 -101 l-203 0 l0 -122 l255 0 l0 -101 l-634 0 l0 101 l255 0 l0 122 l-201 0 ZM395 581 l0 101 l194 0 l0 131 l124 0 l0 -131 l194 0 l0 -101 l-194 0 l0 -111 l244 0 l0 -101 l-612 0 l0 101 l244 0 l0 111 l-194 0 ZM154 -115 l0 478 q-21 -28 -45 -56 q-44 52 -97 83 q161 179 234 428 l110 -54 q-46 -145 -116 -268 l32 0 l0 -611 l-118 0 Z" /><glyph glyph-name="" unicode="&#x4f7f;" d="M337 595 l0 101 l241 0 l0 117 l114 0 l0 -117 l247 0 l0 -101 l-247 0 l0 -78 l210 0 l0 -293 l-216 0 q-11 -91 -50 -158 q29 -11 63 -20 q104 -27 284 -35 q-39 -50 -53 -116 q-149 15 -263 42 q-54 14 -107 44 q-76 -63 -207 -104 q-30 48 -79 88 l0 -80 l-115 0 l0 505 q-25 -35 -52 -65 q-33 45 -96 77 q157 174 231 413 l109 -45 q-43 -134 -110 -252 l33 0 l0 -550 q128 37 189 81 q-61 53 -119 128 l59 47 l-45 0 l0 293 l220 0 l0 78 l-241 0 ZM468 318 l110 0 l0 103 l-110 0 l0 -103 ZM792 421 l-100 0 l0 -101 l0 -2 l100 0 l0 103 ZM537 125 q25 42 34 99 l-133 0 q50 -61 99 -99 Z" /><glyph glyph-name="" unicode="&#x4f84;" d="M369 648 l0 108 l566 0 l0 -108 l-248 0 q-68 -99 -135 -174 l197 11 q-12 14 -34 42 q-20 24 -30 36 l102 44 q78 -86 168 -214 l-88 -71 q-20 32 -44 63 l-337 -21 q-37 -2 -88 -12 l-42 104 q43 12 81 53 q60 66 109 139 l-177 0 ZM381 141 l0 109 l206 0 l0 95 l123 0 l0 -95 l205 0 l0 -109 l-205 0 l0 -115 l258 0 l0 -109 l-642 0 l0 109 l261 0 l0 115 l-206 0 ZM159 -115 l0 498 q-16 -23 -48 -60 q-43 53 -102 81 q154 172 233 413 l112 -55 q-36 -121 -109 -248 l34 0 l0 -629 l-120 0 Z" /><glyph glyph-name="" unicode="&#x4f88;" d="M395 525 q-35 42 -94 69 q171 86 259 224 l111 -46 q-19 -28 -42 -55 l271 0 l0 -86 q-68 -107 -185 -190 l86 -34 q-26 -40 -56 -72 l207 0 l0 -82 q-132 -307 -568 -369 q-38 63 -86 97 q167 20 287 69 q-36 43 -87 92 l103 41 q41 -37 81 -83 q87 56 131 137 l-175 0 q-95 -71 -219 -124 q-30 38 -96 64 q229 94 347 234 q-120 -76 -269 -119 q-33 55 -90 90 q113 25 228 79 q-40 44 -92 85 l104 45 q39 -32 82 -77 q77 52 120 108 l-217 0 q-65 -56 -141 -97 ZM168 -115 l0 481 q-36 -49 -67 -80 q-42 55 -97 90 q163 154 251 442 l110 -52 q-34 -118 -108 -256 l31 0 l0 -625 l-120 0 Z" /><glyph glyph-name="" unicode="&#x4f8b;" d="M309 642 l0 101 l324 0 l0 -101 l-143 0 q-5 -58 -14 -112 l138 0 l0 -99 q-3 -353 -232 -528 q-42 40 -100 67 q127 91 181 203 q-26 26 -77 69 q-10 -20 -30 -54 q-38 41 -89 61 q94 152 122 393 l-80 0 ZM144 -115 l0 487 q-21 -31 -42 -61 q-40 48 -93 82 q144 186 191 426 l110 -38 q-27 -123 -81 -248 l27 0 l0 -648 l-112 0 ZM787 -107 q-32 0 -87 6 q-3 59 -26 111 q54 -9 84 -9 q55 -1 54 49 l0 751 l112 0 l0 -771 q1 -137 -137 -137 ZM661 107 l0 582 l96 0 l0 -582 l-96 0 ZM521 429 l-67 0 q-21 -82 -53 -153 l45 35 q34 -27 51 -45 q20 73 24 163 Z" /><glyph glyph-name="" unicode="&#x4f8d;" d="M364 591 l0 106 l210 0 l0 116 l122 0 l0 -116 l215 0 l0 -106 l-215 0 l0 -86 l271 0 l0 -108 l-143 0 l0 -84 l127 0 l0 -106 l-127 0 l0 -164 q0 -153 -152 -153 q-51 0 -93 6 q-5 65 -31 119 q71 -11 98 -11 q60 -2 58 55 l0 148 l-214 0 q53 -40 116 -107 l-81 -87 q-65 75 -136 133 l88 61 l-128 0 l0 106 l355 0 l0 84 l-378 0 l0 108 l248 0 l0 86 l-210 0 ZM161 -114 l0 500 q-17 -24 -51 -63 q-41 51 -102 81 q159 176 236 413 l111 -56 q-38 -124 -112 -251 l36 0 l0 -624 l-118 0 Z" /><glyph glyph-name="" unicode="&#x4f9b;" d="M350 503 l0 108 l108 0 l0 194 l117 0 l0 -194 l136 0 l0 194 l117 0 l0 -194 l117 0 l0 -108 l-117 0 l0 -195 l137 0 l0 -108 l-641 0 l0 108 l134 0 l0 195 l-108 0 ZM158 -115 l0 510 q-27 -36 -57 -68 q-34 45 -95 77 q164 171 238 412 l110 -42 q-44 -135 -113 -256 l36 0 l0 -633 l-119 0 ZM423 -117 q-47 45 -108 68 q122 102 192 230 l105 -58 q-84 -142 -189 -240 ZM860 -119 q-91 139 -188 245 l106 56 q96 -104 171 -218 l-89 -83 ZM575 503 l0 -195 l136 0 l0 195 l-136 0 Z" /><glyph glyph-name="" unicode="&#x4f9d;" d="M469 -122 l-53 99 q39 35 37 95 l0 139 q-52 -57 -112 -107 q-28 40 -69 72 l0 -290 l-116 0 l0 492 q-29 -37 -58 -65 q-35 47 -95 77 q165 181 239 429 l115 -52 q-40 -133 -119 -269 l34 0 l0 -296 q168 139 261 344 l-196 0 l0 112 l265 0 q-24 54 -73 135 l124 27 q48 -80 71 -140 l-61 -22 l285 0 l0 -112 l-288 0 q-19 -49 -43 -95 l82 43 q20 -88 51 -164 q77 68 122 130 l88 -67 q-76 -89 -163 -161 q80 -141 200 -221 q-55 -36 -89 -87 q-218 167 -303 504 q-18 -34 -39 -67 l0 -297 l118 63 l64 -93 l-218 -117 q-36 -19 -61 -39 Z" /><glyph glyph-name="" unicode="&#x4fa0;" d="M354 578 l0 107 l226 0 q1 62 1 53 q0 14 0 31 q0 15 0 44 l117 -7 l0 -121 l217 0 l0 -107 l-219 0 q-2 -139 -9 -230 l263 0 l0 -106 l-227 0 q83 -174 263 -249 q-57 -40 -91 -102 q-174 100 -252 277 q-65 -178 -259 -291 q-44 57 -101 82 q211 115 267 283 l-237 0 l0 106 l257 0 q8 120 9 230 l-225 0 ZM157 -114 l0 505 q-24 -33 -50 -62 q-41 48 -98 76 q154 173 232 413 l107 -51 q-34 -120 -106 -247 l33 0 l0 -634 l-118 0 ZM804 355 q-51 39 -98 49 q72 86 106 163 l98 -47 q-49 -93 -106 -165 ZM467 352 q-43 81 -110 169 l100 39 q57 -70 97 -147 l-87 -61 Z" /><glyph glyph-name="" unicode="&#x4fa3;" d="M381 -114 l0 440 l537 0 l0 -440 l-121 0 l0 62 l-296 0 l0 -62 l-120 0 ZM409 413 l0 350 l476 0 l0 -350 l-476 0 ZM163 -115 l0 500 q-31 -41 -64 -73 q-35 46 -95 77 q166 183 239 430 l115 -52 q-43 -140 -123 -277 l48 0 l0 -605 l-120 0 ZM501 220 l0 -167 l296 0 l0 167 l-296 0 ZM528 517 l239 0 l0 142 l-239 0 l0 -142 Z" /><glyph glyph-name="" unicode="&#x4fa5;" d="M153 -115 l0 512 q-24 -35 -60 -72 q-32 43 -90 74 q159 186 224 417 l110 -43 q-39 -130 -104 -249 l31 0 l0 -550 q212 53 204 226 l-139 0 l0 99 l590 0 l0 -99 l-157 0 l0 -141 q-2 -50 36 -47 l33 0 q33 -3 43 40 q10 39 15 77 q35 -39 89 -58 q-8 -44 -14 -68 q-24 -95 -123 -94 l-69 0 q-120 -1 -119 122 l0 169 l-74 0 q2 -252 -240 -315 q-21 44 -75 83 l0 -83 l-111 0 ZM347 571 l-19 95 l163 23 q-14 51 -26 115 l114 14 q9 -59 24 -113 l279 40 l17 -93 l-263 -39 q16 -38 37 -73 q81 36 147 81 l73 -67 q-56 -46 -159 -97 q41 -47 77 -46 q30 0 39 38 q1 3 2 8 q8 29 11 50 q39 -31 95 -50 q-4 -27 -13 -55 q-31 -92 -118 -94 q-112 -1 -201 103 q-132 -51 -247 -71 q-22 52 -64 93 q133 22 251 65 q-24 44 -46 99 l-173 -26 Z" /><glyph glyph-name="" unicode="&#x4fa6;" d="M370 108 l0 434 l193 0 l0 271 l117 0 l0 -85 l282 0 l0 -102 l-282 0 l0 -84 l226 0 l0 -430 l-114 0 l0 327 l-307 0 l0 -331 l-115 0 ZM156 -114 l0 502 q-27 -37 -58 -70 q-34 48 -96 79 q162 175 241 420 l114 -50 q-46 -133 -120 -260 l33 0 l0 -621 l-114 0 ZM921 -113 q-154 94 -290 155 q-76 -109 -278 -158 q-19 56 -66 105 q287 49 295 250 q6 58 6 153 l109 -8 q0 -110 -5 -160 q-4 -45 -16 -83 q155 -65 292 -145 l-47 -109 Z" /><glyph glyph-name="" unicode="&#x4fa7;" d="M88 334 q-40 48 -90 74 q150 185 211 416 l105 -42 q-1 -4 -4 -13 q-4 -17 -8 -26 l343 0 l0 -602 l-97 0 l0 503 l-150 0 l0 -522 l-98 0 l0 613 q-28 -86 -78 -189 l27 0 l0 -567 q106 59 145 127 q42 69 41 188 l0 292 l76 0 l0 -307 q0 -110 -23 -180 l40 33 q83 -54 149 -115 l-53 -86 q-60 59 -153 127 q-40 -89 -152 -155 q-29 39 -70 61 l0 -79 l-108 0 l0 518 q-33 -48 -53 -69 ZM797 -105 q-32 0 -82 6 q-3 63 -24 110 q52 -7 80 -7 q53 -2 51 57 l0 746 l110 0 l0 -764 q0 -148 -135 -148 ZM687 108 l0 578 l93 0 l0 -578 l-93 0 Z" /><glyph glyph-name="" unicode="&#x4fa8;" d="M694 -107 l0 399 l80 0 q-86 68 -138 166 l-12 0 q-42 -94 -123 -166 l67 0 l0 -85 q6 -222 -166 -332 q-46 40 -108 58 q166 98 158 267 l0 52 q-39 -29 -86 -56 q-33 46 -91 80 l0 -391 l-116 0 l0 499 q-2 -2 -5 -7 q-27 -36 -43 -54 q-44 50 -102 81 q153 171 233 413 l111 -54 q-41 -137 -119 -267 l41 0 l0 -216 q156 78 217 178 l-173 0 l0 101 l218 0 q13 47 17 96 q-74 -6 -145 -7 q-19 58 -55 102 q277 1 472 44 l65 -95 q-111 -22 -216 -33 q-3 -43 -17 -107 l289 0 l0 -101 l-185 0 q77 -98 231 -153 q-49 -35 -82 -99 q-55 28 -98 57 l0 -370 l-119 0 Z" /><glyph glyph-name="" unicode="&#x4fae;" d="M310 255 l0 99 l88 0 l19 161 q-20 -27 -41 -54 q-42 42 -98 62 q124 135 173 299 l106 -35 q-8 -25 -17 -48 l396 0 l0 -101 l-443 0 q-9 -17 -29 -50 q-3 -5 -4 -7 l424 0 l-9 -227 l95 0 l0 -99 l-98 0 l-4 -130 l84 0 l0 -98 l-87 0 q-9 -134 -133 -131 q-32 0 -80 4 q-1 47 -22 94 q35 -4 71 -5 q45 -3 49 38 l-392 0 l28 228 l-76 0 ZM96 298 q-34 49 -88 87 q146 183 205 433 l110 -45 q-35 -133 -101 -270 l40 0 l0 -618 l-115 0 l0 486 q-19 -30 -51 -73 ZM617 125 q-31 46 -76 98 l65 32 l-109 0 l-15 -130 l135 0 ZM702 160 l-52 -35 l105 0 l5 130 l-133 0 q46 -49 75 -95 ZM768 484 l-120 0 q39 -51 67 -101 l-57 -29 l105 0 l5 130 ZM524 484 l-15 -130 l122 0 q-29 49 -72 103 l71 27 l-106 0 Z" /><glyph glyph-name="" unicode="&#x4faf;" d="M321 500 l0 99 l392 0 l12 72 l-331 0 l0 98 l462 0 l-27 -170 l113 0 l0 -99 l-452 0 l57 -22 q-1 -3 -3 -9 q-9 -29 -15 -44 l356 0 l0 -96 l-187 0 q-1 -46 -8 -93 l271 0 l0 -99 l-233 0 q87 -103 261 -151 q-46 -36 -79 -99 q-180 64 -268 192 q-69 -129 -263 -200 q-38 54 -90 86 q200 65 254 172 l-236 0 l0 99 l95 0 q-45 30 -94 42 q96 98 133 222 l-120 0 ZM152 -115 l0 489 q-23 -35 -50 -71 q-34 49 -92 88 q147 182 207 427 l111 -45 q-37 -135 -96 -258 l36 0 l0 -630 l-116 0 ZM573 236 q8 33 9 93 l-99 0 q-29 -49 -68 -93 l158 0 Z" /><glyph glyph-name="" unicode="&#x4fb5;" d="M308 242 l0 161 l623 0 l0 -161 l-76 0 l0 -57 q-48 -84 -121 -145 q99 -34 234 -43 q-47 -43 -67 -108 q-162 22 -279 80 q-118 -60 -278 -88 q-17 54 -69 102 q134 18 236 56 q-55 45 -106 110 l38 29 l-65 0 l0 64 l-70 0 ZM397 567 l0 76 l355 0 l0 39 l-383 0 l0 84 l496 0 l0 -322 l-501 0 l0 83 l388 0 l0 40 l-355 0 ZM154 -115 l0 491 q-25 -42 -53 -77 q-38 48 -96 80 q150 189 212 440 l111 -45 q-36 -131 -102 -270 l41 0 l0 -619 l-113 0 ZM422 315 l0 -50 l395 0 l0 50 l-395 0 ZM722 178 l-209 0 q47 -51 108 -87 q63 38 101 87 Z" /><glyph glyph-name="" unicode="&#x4fbf;" d="M937 -91 q-158 10 -256 27 q-80 16 -134 40 q-74 -53 -193 -91 q-30 53 -80 87 l0 -87 l-114 0 l0 497 q-27 -42 -57 -81 q-36 47 -96 79 q161 198 224 441 l111 -45 q-42 -142 -108 -268 l40 0 l0 -531 q103 25 167 59 q-45 32 -100 94 l56 54 l-26 0 l0 412 l218 0 l0 64 l-238 0 l0 101 l594 0 l0 -101 l-244 0 l0 -64 l217 0 l0 -412 l-233 0 q-16 -70 -52 -124 q31 -9 68 -15 q113 -18 282 -18 q-31 -49 -46 -118 ZM701 347 q0 -37 -3 -69 l112 0 l0 69 l-109 0 ZM480 278 l107 0 q2 28 2 62 l0 7 l-109 0 l0 -69 ZM810 502 l-109 0 l0 -68 l109 0 l0 68 ZM480 502 l0 -68 l109 0 l0 68 l-109 0 ZM528 102 q30 36 43 82 l-141 0 q41 -49 98 -82 Z" /><glyph glyph-name="" unicode="&#x4fc3;" d="M163 -114 l0 499 q-31 -41 -64 -73 q-35 46 -95 77 q166 183 239 430 l115 -52 q-36 -119 -102 -238 l26 0 l0 -538 q130 122 127 362 l111 -13 q-5 -105 -16 -162 q41 -66 93 -97 l0 331 l-194 0 l0 354 l488 0 l0 -354 l-177 0 l0 -127 l208 0 l0 -108 l-208 0 l0 -137 q25 -4 50 -6 q41 -4 107 -4 q66 -1 120 2 q-36 -55 -42 -127 q-95 1 -178 8 q-216 18 -303 144 q-33 -80 -116 -165 q-35 31 -70 47 l0 -53 l-119 0 ZM520 520 l253 0 l0 138 l-253 0 l0 -138 Z" /><glyph glyph-name="" unicode="&#x4fc4;" d="M859 564 q-47 77 -96 138 q-1 -67 -1 -97 q-1 -36 0 -65 l183 0 l0 -106 l-180 0 q3 -82 11 -168 q47 62 81 135 l76 -69 q-51 -106 -136 -199 q11 -45 23 -70 q21 -42 38 -44 q16 -1 29 47 q4 16 13 65 q2 9 3 13 q32 -46 83 -69 q-3 -11 -8 -30 q-8 -35 -15 -55 q-29 -99 -108 -99 q-71 5 -117 90 q-14 26 -30 68 q-54 -43 -102 -68 q-31 45 -71 72 l0 -25 q3 -134 -137 -131 q-23 0 -61 7 q-2 56 -27 115 q34 -8 71 -8 q42 -2 41 50 l0 120 l-91 -33 l-49 101 l140 45 l0 140 l-122 0 l0 106 l122 0 l0 101 q-28 -5 -58 -8 q-16 44 -46 82 q-35 -97 -90 -206 l31 0 l0 -624 l-114 0 l0 482 q-22 -33 -48 -66 q-40 49 -94 79 q147 183 226 437 l108 -45 q-1 -4 -4 -11 q-3 -12 -12 -36 q155 14 266 59 l56 -87 q-54 -19 -108 -33 l0 -124 l118 0 q-1 117 3 267 l110 7 q-1 -26 -2 -74 q0 9 -1 -18 l81 34 q64 -79 95 -132 l-80 -60 ZM641 258 l-106 -38 l0 -162 q80 44 146 103 q-20 102 -26 273 l-120 0 l0 -105 l62 20 l44 -91 Z" /><glyph glyph-name="" unicode="&#x4fca;" d="M360 -117 q-27 53 -80 98 q154 28 261 83 q-41 39 -77 85 q-38 -34 -78 -60 q-44 40 -92 60 q162 112 241 267 l98 -35 q-12 -25 -24 -48 l245 0 l0 -78 q-45 -108 -120 -184 q91 -43 247 -67 q-54 -54 -77 -108 q-163 36 -265 97 q-115 -74 -279 -110 ZM374 502 l-37 96 q43 9 78 47 q75 86 128 177 l114 -38 q-54 -86 -135 -173 l217 9 q-25 24 -75 68 q2 -2 -4 4 l91 53 q105 -90 192 -189 l-72 -74 q-21 24 -44 48 l-83 -4 q112 -61 219 -142 l-49 -91 q-136 102 -258 170 l70 63 l-210 -8 l71 -43 q-105 -109 -224 -182 q-35 38 -88 72 q126 71 206 152 l-22 -1 q-46 -2 -85 -14 ZM155 -115 l0 497 q-29 -42 -58 -76 q-37 49 -90 80 q153 179 240 433 l107 -47 q-44 -125 -115 -256 l30 0 l0 -631 l-114 0 ZM550 240 l-12 -15 q43 -56 97 -95 q53 47 86 110 l-171 0 Z" /><glyph glyph-name="" unicode="&#x4fcf;" d="M380 -114 l0 656 l209 0 l0 271 l119 0 l0 -271 l211 0 l0 -515 q-2 -134 -132 -137 q-41 0 -74 5 q-2 59 -32 109 q48 -9 73 -9 q49 -3 46 47 l0 45 l-301 0 l0 -201 l-119 0 ZM158 -114 l0 498 q-28 -40 -61 -78 q-40 53 -98 82 q163 184 234 429 l109 -56 q-44 -140 -103 -247 l37 0 l0 -628 l-118 0 ZM499 439 l0 -78 l301 0 l0 78 l-301 0 ZM499 263 l0 -77 l301 0 l0 77 l-301 0 ZM833 561 q-38 35 -104 53 q69 72 119 158 l102 -53 q-51 -83 -117 -158 ZM471 559 q-48 84 -117 165 l104 46 q60 -69 108 -148 l-95 -63 Z" /><glyph glyph-name="" unicode="&#x4fd0;" d="M89 334 q-42 49 -90 73 q150 189 212 417 l104 -43 q-1 -3 -3 -9 q-5 -21 -17 -54 q187 21 290 67 l62 -88 q-51 -23 -115 -40 l0 -140 l115 0 l0 -104 l-115 0 l0 -100 l43 21 q51 -54 97 -121 l0 473 l98 0 l0 -578 l-98 0 l0 90 l-66 -60 q-38 62 -74 112 l0 -365 l-107 0 l0 341 q-52 -96 -108 -153 q-21 22 -67 37 l0 -225 l-108 0 l0 518 q-29 -42 -53 -69 ZM797 -105 q-32 0 -82 6 q-3 63 -24 110 q52 -7 80 -7 q53 -2 51 57 l0 740 l110 0 l0 -758 q0 -148 -135 -148 ZM334 622 q-11 42 -42 85 q-28 -76 -69 -160 l27 0 l0 -393 q109 126 162 259 l-118 0 l0 104 l131 0 l0 118 q-45 -9 -91 -13 Z" /><glyph glyph-name="" unicode="&#x4fd7;" d="M406 -114 l0 355 q-18 -12 -38 -24 q-31 53 -91 82 l0 -414 l-118 0 l0 504 q-33 -47 -63 -83 q-37 51 -97 83 q162 185 232 429 l110 -55 q-46 -142 -104 -248 l40 0 l0 -214 q238 124 327 332 l109 -38 q-7 -16 -16 -33 q107 -170 294 -248 q-54 -30 -89 -91 q-5 3 -13 8 q-8 4 -27 15 l0 -360 l-119 0 l0 58 l-218 0 l0 -58 l-119 0 ZM419 520 q-47 45 -112 58 q128 100 187 227 l106 -57 q-75 -135 -181 -228 ZM864 526 q-98 117 -213 217 l96 65 q89 -73 198 -191 l-81 -91 ZM525 192 l0 -147 l218 0 l0 147 l-218 0 ZM637 463 q-69 -98 -160 -170 l317 0 q-91 69 -157 170 Z" /><glyph glyph-name="" unicode="&#x4fd8;" d="M318 128 l0 103 l276 0 l0 50 q30 14 80 44 l58 21 l-345 0 l0 99 l56 0 q-44 84 -96 151 l100 38 q43 -52 92 -136 l-82 -53 l330 0 q-44 24 -78 33 q72 83 127 188 l100 -53 q-72 -115 -116 -168 l81 0 l0 -91 q-81 -59 -188 -118 l0 -5 l258 0 l0 -103 l-258 0 l0 -115 q-3 -116 -129 -119 q-50 0 -93 5 q-3 56 -28 114 q54 -8 79 -8 q54 -2 52 47 l0 76 l-276 0 ZM102 306 q-37 44 -102 70 q172 188 250 442 l110 -47 l-6 -18 q307 -1 515 49 l62 -93 q-239 -49 -535 -60 q-11 38 -45 95 q-34 -105 -101 -227 l29 0 l0 -632 l-116 0 l0 496 q-30 -42 -61 -75 ZM621 476 q-22 66 -78 157 l105 25 q45 -70 71 -135 l-98 -47 Z" /><glyph glyph-name="" unicode="&#x4fdd;" d="M397 436 l0 336 l490 0 l0 -336 l-188 0 l0 -88 l253 0 l0 -104 l-199 0 q76 -104 236 -190 q-54 -31 -91 -89 q-130 86 -205 214 l6 -26 l0 -268 l-115 0 l0 268 l4 23 q-76 -125 -219 -217 q-25 35 -85 70 l0 -144 l-116 0 l0 504 q-32 -44 -65 -80 q-41 48 -101 69 q173 189 250 441 l110 -47 q-34 -114 -106 -245 l28 0 l0 -488 q158 89 244 205 l-196 0 l0 104 l252 0 l0 88 l-187 0 ZM512 541 l258 0 l0 127 l-258 0 l0 -127 Z" /><glyph glyph-name="" unicode="&#x4fe1;" d="M368 -115 l0 350 l549 0 l0 -350 l-120 0 l0 47 l-309 0 l0 -47 l-120 0 ZM157 -115 l0 487 q-24 -35 -52 -71 q-38 50 -96 88 q150 183 216 430 l114 -46 q-42 -147 -102 -264 l37 0 l0 -624 l-117 0 ZM327 600 l0 108 l262 0 q-19 44 -41 80 l132 30 q26 -44 52 -110 l231 0 l0 -108 l-636 0 ZM381 292 l0 99 l526 0 l0 -99 l-526 0 ZM381 446 l0 99 l526 0 l0 -99 l-526 0 ZM488 127 l0 -87 l309 0 l0 87 l-309 0 Z" /><glyph glyph-name="" unicode="&#x4fe9;" d="M311 656 l0 107 l635 0 l0 -107 l-180 0 l0 -114 l159 0 l0 -505 q0 -147 -132 -146 q-38 0 -75 6 q-2 56 -24 110 q39 -6 71 -6 q57 -1 56 55 l0 66 l-36 -33 q-6 12 -17 33 q-30 61 -47 90 q-24 -93 -79 -183 q-39 27 -95 36 q57 82 79 158 l-54 -59 q-15 27 -27 48 q-33 -90 -77 -156 q-27 20 -52 29 l0 -200 l-105 0 l0 657 l170 0 l0 114 l-170 0 ZM141 -115 l0 516 q-21 -33 -52 -68 q-34 45 -90 74 q146 180 207 417 l104 -42 q-32 -119 -94 -245 l33 0 l0 -652 l-108 0 ZM416 436 l0 -281 q65 104 73 281 l-73 0 ZM586 436 q-3 -66 -12 -106 q19 -26 51 -77 q5 -8 7 -12 q22 74 26 195 l-72 0 ZM821 436 l-67 0 q-3 -46 -7 -86 q41 -63 74 -120 l0 206 ZM588 656 l0 -114 l71 0 l0 114 l-71 0 Z" /><glyph glyph-name="" unicode="&#x4fed;" d="M459 389 l0 64 q-52 -41 -88 -63 q-37 50 -93 79 q218 128 323 350 l107 -43 q-7 -16 -15 -31 q108 -170 304 -255 q-45 -35 -83 -98 q-54 28 -114 73 l0 -76 l-341 0 ZM615 88 q-31 111 -81 238 l112 19 q38 -93 70 -198 q39 99 69 207 l109 -49 q-44 -139 -108 -282 l164 0 l0 -103 l-631 0 l0 103 l345 0 q2 4 5 11 q17 38 38 89 l-92 -35 ZM148 -115 l0 484 q-10 -13 -32 -40 q-11 -13 -16 -20 q-37 50 -98 82 q164 182 236 429 l112 -52 q-47 -148 -119 -273 l34 0 l0 -610 l-117 0 ZM445 33 q-50 158 -99 264 l113 21 q51 -108 91 -236 l-105 -49 ZM634 644 q-61 -88 -135 -156 l273 0 q-84 71 -138 156 Z" /><glyph glyph-name="" unicode="&#x4fee;" d="M937 342 q-135 36 -236 95 q-111 -68 -249 -102 q-18 38 -46 71 l0 -378 l-106 0 l0 612 l106 0 l0 -77 q127 121 181 260 l95 -38 q-12 -26 -22 -50 l246 0 l0 -79 q-43 -85 -114 -150 q94 -41 201 -60 q-37 -42 -56 -104 ZM135 -115 l0 491 q-8 -12 -25 -35 q-14 -18 -20 -27 q-41 55 -84 86 q145 177 210 418 l103 -44 q-36 -128 -97 -250 l27 0 l0 -639 l-114 0 ZM494 -122 q-26 48 -79 94 q297 54 478 193 l78 -74 q-197 -162 -477 -213 ZM518 41 q-25 52 -72 90 q244 54 374 161 l78 -72 q-159 -120 -380 -179 ZM514 199 q-22 47 -69 88 q193 37 294 119 l78 -66 q-137 -101 -303 -141 ZM493 511 q-41 35 -87 49 l0 -125 q112 21 200 66 q-37 30 -63 59 q-24 -26 -50 -49 ZM780 646 l-171 0 q-1 -2 -4 -7 q-3 -4 -5 -7 q42 -39 95 -75 q51 40 85 89 Z" /><glyph glyph-name="" unicode="&#x4fef;" d="M141 -115 l0 458 q-20 -33 -40 -60 q-40 47 -90 78 q141 206 200 457 l107 -36 q-28 -133 -100 -293 l31 0 l0 -527 q86 140 81 412 l0 346 l271 0 q-17 43 -41 82 l124 16 q21 -40 44 -98 l229 0 l0 -103 l-520 0 l0 -239 l0 -40 q92 130 129 278 l99 -44 q-43 -120 -93 -211 l30 0 l0 -476 l-104 0 l0 357 q-22 -27 -37 -45 q-14 21 -29 36 q-12 -191 -92 -344 q-45 44 -91 62 l0 -66 l-108 0 ZM637 338 l0 103 l154 0 l0 148 l108 0 l0 -148 l65 0 l0 -103 l-65 0 l0 -313 q-3 -128 -128 -131 q-45 0 -80 7 q-2 57 -24 106 q38 -9 73 -9 q53 -3 51 55 l0 285 l-154 0 ZM710 83 q-53 108 -105 174 l92 31 q50 -65 89 -141 l-76 -64 Z" /><glyph glyph-name="" unicode="&#x4ff1;" d="M316 71 l0 97 l80 0 l0 603 l493 0 l0 -603 l80 0 l0 -97 l-193 0 q79 -34 189 -93 l-40 -95 q-118 72 -243 128 l66 60 l-204 0 l69 -57 q-106 -86 -231 -135 q-36 49 -85 73 q125 42 226 119 l-207 0 ZM155 -115 l0 501 q-23 -34 -50 -64 q-41 53 -101 82 q147 165 232 413 l112 -55 q-45 -132 -111 -250 l37 0 l0 -627 l-119 0 ZM516 235 l0 -67 l251 0 l0 67 l-251 0 ZM516 383 l0 -66 l251 0 l0 66 l-251 0 ZM516 531 l0 -66 l251 0 l0 66 l-251 0 ZM516 677 l0 -64 l251 0 l0 64 l-251 0 Z" /><glyph glyph-name="" unicode="&#x4ffa;" d="M361 74 l0 288 q-6 -3 -19 -11 q-12 -7 -19 -11 q-23 35 -50 58 l0 -513 l-118 0 l0 505 q-25 -35 -52 -65 q-41 51 -99 80 q147 164 232 411 l108 -56 q-43 -126 -104 -237 l33 0 l0 -83 q136 75 204 172 l-136 0 l0 99 l189 0 q17 46 26 104 l115 -20 q-7 -31 -23 -84 l273 0 l0 -99 l-160 0 q82 -108 234 -165 q-50 -36 -83 -90 q-17 9 -35 20 l0 -264 q41 -37 82 -52 q-9 -40 -16 -58 q-32 -95 -136 -91 l-108 0 q-139 -3 -136 144 l0 18 l-202 0 ZM606 612 q-53 -100 -138 -171 l95 0 l0 86 l112 0 l0 -86 l112 0 q-95 76 -144 171 l-37 0 ZM854 55 q3 7 6 19 l-185 0 l0 -9 q-5 -58 53 -54 l70 0 q45 -4 56 44 ZM675 159 l96 0 l0 58 l-96 0 l0 -58 ZM468 159 l95 0 l0 58 l-95 0 l0 -58 ZM771 354 l-96 0 l0 -57 l96 0 l0 57 ZM468 354 l0 -57 l95 0 l0 57 l-95 0 Z" /><glyph glyph-name="" unicode="&#x500d;" d="M370 611 l0 104 l217 0 q-27 41 -53 79 l125 26 q36 -47 67 -105 l201 0 l0 -104 l-149 0 l89 -34 q-34 -74 -74 -136 l176 0 l0 -103 l-641 0 l0 103 l178 0 q-35 65 -85 133 l92 37 l-143 0 ZM390 -113 l0 389 l507 0 l0 -389 l-120 0 l0 58 l-268 0 l0 -58 l-119 0 ZM163 -114 l0 499 q-27 -36 -64 -73 q-35 46 -95 77 q166 183 239 430 l115 -52 q-41 -134 -118 -268 l42 0 l0 -613 l-119 0 ZM509 175 l0 -129 l268 0 l0 129 l-268 0 ZM615 474 l-58 -33 l111 0 q54 83 89 170 l-226 0 q52 -78 84 -137 Z" /><glyph glyph-name="" unicode="&#x5012;" d="M90 336 q-42 53 -88 78 q144 155 222 410 l104 -43 q-3 -10 -10 -30 q-3 -10 -5 -15 l344 0 l0 -99 l-145 0 q-35 -90 -87 -175 l113 6 q-2 3 -6 10 q-35 64 -48 81 l88 30 q65 -95 110 -186 l0 281 l94 0 l0 -582 l-94 0 l0 295 l-76 -57 l-18 37 l-63 -5 l0 -93 l120 0 l0 -97 l-120 0 l0 -95 l125 20 l30 -83 l-372 -78 l-39 99 l153 25 l0 112 l-120 0 l0 97 l120 0 l0 86 l-44 -3 q-29 -2 -70 -14 l-38 84 q34 10 58 55 q40 69 73 150 l-97 0 l0 74 q-32 -86 -82 -181 l28 0 l0 -644 l-108 0 l0 513 q-27 -37 -52 -63 ZM803 -106 q-41 0 -86 6 q-3 59 -25 108 q54 -8 86 -8 q45 -2 43 48 l0 757 l110 0 l0 -765 q0 -146 -128 -146 Z" /><glyph glyph-name="" unicode="&#x5014;" d="M366 -110 q-46 35 -106 53 q53 90 71 188 q20 97 20 268 l0 376 l576 0 l0 -270 l-464 0 l0 -105 q4 -344 -97 -510 ZM501 217 l0 223 l95 0 l0 -133 l65 0 l0 168 l104 0 l0 -168 l66 0 l0 131 l94 0 l0 -221 l-160 0 l0 -192 l80 0 l0 145 l100 0 l0 -285 l-100 0 l0 48 l-363 0 l0 237 l100 0 l0 -145 l79 0 l0 192 l-160 0 ZM146 -114 l0 512 q-23 -35 -51 -65 q-39 48 -92 74 q142 161 215 418 l108 -37 q-31 -114 -99 -251 l31 0 l0 -651 l-112 0 ZM463 684 l0 -89 l352 0 l0 89 l-352 0 Z" /><glyph glyph-name="" unicode="&#x5018;" d="M347 -115 l0 645 l234 0 l0 282 l115 0 l0 -282 l232 0 l0 -506 q-1 -132 -122 -133 q-40 1 -71 4 q-2 54 -24 106 q36 -4 65 -5 q40 0 40 42 l0 394 l-358 0 l0 -547 l-111 0 ZM146 -114 l0 513 q-25 -37 -54 -67 q-42 50 -91 75 q145 159 220 418 l108 -38 q-35 -126 -101 -250 l30 0 l0 -651 l-112 0 ZM518 51 l0 306 l238 0 l0 -306 l-238 0 ZM810 548 q-26 23 -87 53 q80 88 120 169 l87 -59 q-49 -86 -120 -163 ZM462 552 q-55 101 -121 166 l96 46 q61 -68 107 -146 l-82 -66 ZM601 137 l71 0 l0 134 l-71 0 l0 -134 Z" /><glyph glyph-name="" unicode="&#x5019;" d="M443 502 l0 97 l296 0 l10 75 l-271 0 l0 95 l395 0 l-22 -170 l90 0 l0 -97 l-380 0 l73 -23 q-7 -28 -16 -55 l293 0 l0 -94 l-153 0 q-1 -51 -8 -101 l206 0 l0 -97 l-179 0 q73 -102 217 -155 q-47 -34 -79 -90 q-144 69 -212 185 q-65 -125 -246 -192 q-29 48 -83 82 q184 62 236 170 l-169 0 l0 97 l197 0 q7 50 8 101 l-66 0 q-29 -57 -53 -90 q-41 30 -102 41 q79 97 106 221 l-88 0 ZM143 -115 l0 514 q-24 -35 -51 -64 q-40 49 -91 74 q145 166 215 416 l109 -39 q-36 -124 -108 -263 l38 0 l0 -638 l-112 0 ZM308 67 l0 589 l104 0 l0 -589 l-104 0 Z" /><glyph glyph-name="" unicode="&#x501a;" d="M370 628 l0 97 l198 0 q5 40 3 91 l120 -7 q-2 -56 -5 -84 l225 0 l0 -97 l-246 0 l0 -1 q91 -26 226 -83 l-32 -92 l107 0 l0 -99 l-82 0 l0 -314 q-1 -148 -142 -149 q-38 0 -84 4 q-2 57 -27 109 q50 -6 81 -6 q56 -2 55 59 l0 297 l-452 0 l0 99 l128 0 q-35 35 -79 57 q139 50 176 119 l-170 0 ZM163 -115 l0 500 q-30 -43 -63 -78 q-38 45 -101 70 q161 175 243 439 l110 -47 q-35 -118 -106 -251 l33 0 l0 -633 l-116 0 ZM377 36 l0 266 l303 0 l0 -266 l-303 0 ZM617 545 q-41 -50 -133 -93 l350 0 q-100 52 -217 93 ZM481 124 l95 0 l0 90 l-95 0 l0 -90 Z" /><glyph glyph-name="" unicode="&#x501f;" d="M388 -115 l0 468 l501 0 l0 -468 l-118 0 l0 50 l-266 0 l0 -50 l-117 0 ZM352 602 l0 101 l107 0 l0 101 l115 0 l0 -101 l126 0 l0 101 l115 0 l0 -101 l110 0 l0 -101 l-110 0 l0 -91 l151 0 l0 -101 l-653 0 l0 101 l146 0 l0 91 l-107 0 ZM156 -115 l0 494 q-25 -37 -53 -73 q-37 51 -96 88 q150 179 219 428 l113 -45 q-40 -137 -100 -256 l33 0 l0 -636 l-116 0 ZM505 98 l0 -64 l266 0 l0 64 l-266 0 ZM505 254 l0 -63 l266 0 l0 63 l-266 0 ZM574 602 l0 -91 l126 0 l0 91 l-126 0 Z" /><glyph glyph-name="" unicode="&#x5021;" d="M352 -115 l0 448 l580 0 l0 -448 l-118 0 l0 51 l-342 0 l0 -51 l-120 0 ZM391 389 l0 376 l502 0 l0 -376 l-502 0 ZM161 -115 l0 497 q-29 -40 -62 -72 q-33 46 -95 77 q164 185 236 433 l115 -52 q-38 -128 -112 -261 l36 0 l0 -622 l-118 0 ZM472 95 l0 -69 l342 0 l0 69 l-342 0 ZM472 243 l0 -67 l342 0 l0 67 l-342 0 ZM508 476 l267 0 l0 63 l-267 0 l0 -63 ZM508 677 l0 -61 l267 0 l0 61 l-267 0 Z" /><glyph glyph-name="" unicode="&#x5026;" d="M564 -85 q-145 -1 -144 139 l0 138 q-25 -24 -74 -61 q-30 40 -73 64 l0 -310 l-116 0 l0 508 q-24 -37 -51 -71 q-39 49 -94 78 q156 188 216 418 l109 -43 q-39 -131 -95 -237 l31 0 l0 -320 q112 74 175 163 l-136 0 l0 94 l191 0 q10 21 24 63 l-179 0 l0 94 l113 0 q-56 71 -108 117 l90 47 q59 -61 96 -109 l-74 -55 l85 0 q16 93 18 186 l117 -10 q-5 -98 -19 -176 l233 0 l0 -94 l-256 0 q-10 -33 -23 -63 l320 0 l0 -94 l-154 0 q70 -86 196 -145 q-54 -35 -82 -86 q-57 34 -100 71 l0 -41 q2 -118 -115 -116 q-45 0 -62 6 q-8 56 -28 89 q35 -7 65 -7 q40 -1 39 38 l0 25 l-165 0 l0 -145 q0 -55 48 -56 l166 0 q53 -3 67 57 q5 17 13 53 q1 3 1 5 q35 -39 92 -63 q-7 -35 -18 -62 q-19 -51 -53 -70 q-33 -19 -103 -19 l-183 0 ZM783 634 q-38 32 -87 52 q63 53 109 113 l87 -53 q-47 -60 -109 -112 ZM574 381 q-22 -40 -47 -74 l191 0 q-26 34 -50 74 l-94 0 Z" /><glyph glyph-name="" unicode="&#x503a;" d="M361 655 l0 90 l220 0 l0 68 l115 0 l0 -68 l222 0 l0 -90 l-222 0 l0 -45 l195 0 l0 -86 l-195 0 l0 -45 l271 0 l0 -91 l-652 0 l0 91 l266 0 l0 45 l-196 0 l0 86 l196 0 l0 45 l-220 0 ZM161 -115 l0 499 q-28 -40 -60 -73 q-38 45 -101 70 q160 171 242 434 l109 -47 q-36 -122 -105 -248 l31 0 l0 -635 l-116 0 ZM380 61 l0 283 l518 0 l0 -279 l-116 0 l0 189 l-287 0 l0 -193 l-115 0 ZM908 -120 q-121 70 -270 135 q-74 -104 -268 -134 q-25 54 -70 93 q168 25 227 81 q63 55 61 180 l109 -15 q-2 -65 -16 -116 q150 -58 268 -122 l-41 -102 Z" /><glyph glyph-name="" unicode="&#x503c;" d="M349 627 l0 99 l226 0 l12 91 l119 -7 l-11 -84 l244 0 l0 -99 l-256 0 l-8 -57 l212 0 l0 -553 l83 0 l0 -99 l-658 0 l0 99 l79 0 l0 553 l165 0 l7 57 l-214 0 ZM163 -115 l0 501 q-26 -38 -61 -76 q-40 47 -102 69 q160 173 241 436 l109 -46 q-34 -115 -103 -247 l32 0 l0 -637 l-116 0 ZM508 72 l0 -55 l261 0 l0 55 l-261 0 ZM508 473 l0 -53 l261 0 l0 53 l-261 0 ZM508 340 l0 -53 l261 0 l0 53 l-261 0 ZM508 206 l0 -53 l261 0 l0 53 l-261 0 Z" /><glyph glyph-name="" unicode="&#x503e;" d="M500 676 l0 98 l464 0 l0 -98 l-171 0 q-15 -51 -31 -91 l173 0 l0 -476 l-104 0 l0 378 l-196 0 l0 -381 l-103 0 l0 28 l-121 -85 q-35 -22 -67 -56 l-58 93 q27 29 26 90 l0 576 l102 0 l0 -207 l89 0 l0 -101 l-89 0 l0 -270 l74 49 l44 -71 l0 433 l119 0 q9 25 27 83 q1 5 2 8 l-180 0 ZM137 -115 l0 513 q-20 -31 -49 -64 q-35 45 -90 74 q146 176 211 416 l105 -42 q-33 -117 -100 -249 l31 0 l0 -648 l-108 0 ZM531 -122 q-36 54 -83 86 q247 85 237 287 l0 185 l95 0 l0 -197 q0 -57 -12 -105 q130 -88 208 -153 l-51 -99 q-101 88 -196 157 q-57 -96 -198 -161 Z" /><glyph glyph-name="" unicode="&#x5047;" d="M331 -115 l0 891 l289 0 l0 -326 l-177 0 l0 -80 l157 0 l0 -101 l-157 0 l0 -82 l165 0 l0 -101 l-165 0 l0 -201 l-112 0 ZM145 -115 l0 489 q-9 -14 -28 -40 q-9 -13 -14 -20 q-43 53 -92 81 q143 186 191 425 l109 -38 q-28 -128 -87 -261 l33 0 l0 -636 l-112 0 ZM915 -111 q-86 50 -142 104 q-70 -64 -168 -110 q-36 52 -85 77 q118 46 188 112 q-51 76 -76 175 l73 33 l-70 0 l0 100 l291 0 l0 -88 q-21 -132 -86 -222 q61 -58 155 -96 q-45 -26 -80 -85 ZM650 449 l0 101 l154 0 l0 127 l-154 0 l0 99 l267 0 l0 -327 l-267 0 ZM443 679 l0 -132 l73 0 l0 132 l-73 0 ZM820 280 l-103 0 q21 -71 56 -131 q35 55 47 131 Z" /><glyph glyph-name="" unicode="&#x504e;" d="M363 385 l0 390 l529 0 l0 -390 l-529 0 ZM300 242 l0 95 l644 0 l0 -95 l-256 0 q19 -54 52 -99 q77 51 119 91 l84 -61 q-61 -52 -140 -98 q69 -58 180 -98 q-57 -38 -85 -86 q-249 103 -316 351 l-81 0 l0 -202 l95 44 l54 -82 l-162 -81 q-40 -21 -75 -50 l-55 92 q33 30 32 84 l0 195 l-90 0 ZM149 -115 l0 498 q-16 -26 -50 -73 q-3 -4 -4 -6 q-36 47 -95 80 q149 183 213 436 l111 -49 q-39 -133 -102 -261 l39 0 l0 -625 l-112 0 ZM678 474 l106 0 l0 67 l-106 0 l0 -67 ZM784 686 l-106 0 l0 -66 l106 0 l0 66 ZM472 474 l103 0 l0 67 l-103 0 l0 -67 ZM472 686 l0 -66 l103 0 l0 66 l-103 0 Z" /><glyph glyph-name="" unicode="&#x504f;" d="M433 -114 l0 325 q-28 -180 -101 -286 q-29 31 -66 50 l0 -90 l-112 0 l0 491 q-22 -35 -52 -75 q-36 47 -96 80 q154 194 212 438 l112 -45 q-40 -142 -100 -265 l36 0 l0 -490 q51 92 69 187 q19 94 19 254 l0 266 l226 0 q-16 34 -36 71 l127 16 q18 -32 41 -87 l204 0 l0 -269 l-451 0 l0 -58 l471 0 l0 -389 q0 -121 -110 -120 q-28 0 -53 3 q-6 50 -15 77 l-54 0 l0 149 l-49 0 l0 -165 l-81 0 l0 165 l-46 0 l0 -233 l-95 0 ZM465 634 l0 -83 l345 0 l0 83 l-345 0 ZM804 -15 q32 -2 31 39 l0 95 l-51 0 l0 -133 q12 -1 20 -1 ZM835 307 l-51 0 l0 -98 l51 0 l0 98 ZM655 307 l0 -98 l49 0 l0 98 l-49 0 ZM528 307 l0 -98 l46 0 l0 98 l-46 0 Z" /><glyph glyph-name="" unicode="&#x505a;" d="M627 -120 q-30 49 -81 84 q17 14 33 26 l-80 0 l0 37 l-95 0 l0 -81 l-103 0 l0 463 l95 0 l0 129 l-109 0 l0 102 l109 0 l0 173 l106 0 l0 -173 l108 0 l0 -102 l-108 0 l0 -129 l76 0 q97 161 121 406 l105 -27 q-16 -92 -33 -153 l199 0 l0 -106 l-55 0 q-8 -233 -78 -385 q65 -100 167 -163 q-55 -38 -90 -93 q-82 70 -137 150 q-60 -87 -150 -158 ZM137 -115 l0 508 q-26 -38 -49 -64 q-40 46 -90 73 q150 189 210 419 l105 -41 q-31 -112 -95 -242 l27 0 l0 -653 l-108 0 ZM631 299 q-18 38 -29 52 l0 -342 q74 65 114 134 q-40 88 -64 191 q-10 -19 -21 -35 ZM404 308 l0 -180 l95 0 l0 180 l-95 0 ZM740 529 q-4 -13 -15 -39 q-4 -11 -6 -16 q24 -122 55 -204 q34 104 40 259 l-74 0 Z" /><glyph glyph-name="" unicode="&#x505c;" d="M306 165 l0 166 l639 0 l0 -166 l-79 0 l0 -65 l-168 0 l0 -77 q1 -137 -140 -135 q-43 0 -74 7 q-3 57 -29 107 q45 -9 75 -9 q55 -3 53 51 l0 56 l-195 0 l0 65 l-82 0 ZM149 -115 l0 488 q-14 -21 -42 -60 q-5 -6 -7 -9 q-38 47 -95 80 q150 183 216 437 l109 -50 q-36 -126 -102 -259 l35 0 l0 -627 l-114 0 ZM393 371 l0 225 l463 0 l0 -225 l-463 0 ZM330 637 l0 91 l232 0 q-19 36 -45 72 l133 22 q40 -55 59 -94 l207 0 l0 -91 l-586 0 ZM420 242 l0 -53 l413 0 l0 53 l-413 0 ZM506 456 l237 0 l0 55 l-237 0 l0 -55 Z" /><glyph glyph-name="" unicode="&#x5065;" d="M496 512 l0 90 l156 0 l0 51 l-122 0 l0 90 l122 0 l0 70 l101 0 l0 -70 l156 0 l0 -141 l59 0 l0 -90 l-59 0 l0 -142 l-156 0 l0 -50 l162 0 l0 -89 l-162 0 l0 -51 l190 0 l0 -89 l-190 0 l0 -68 q97 -1 226 6 q-20 -52 -26 -117 q-76 -2 -158 -1 q-82 0 -138 4 q-150 9 -247 79 q-31 -52 -90 -109 q-30 30 -82 57 l0 -57 l-107 0 l0 505 q-27 -40 -42 -57 q-45 49 -91 70 q142 188 198 422 l104 -38 l-12 -43 l200 0 l0 -91 l-85 -196 l90 0 l0 -74 q1 -190 -38 -296 q71 -56 197 -60 l0 64 l-146 0 l0 89 l146 0 l0 51 l-127 0 l0 89 l127 0 l0 50 l-122 0 l0 90 l122 0 l0 52 l-156 0 ZM375 642 l-89 0 l0 93 q-36 -111 -79 -204 l31 0 l0 -573 q60 54 95 115 q-57 75 -89 189 l84 45 q21 -73 49 -124 q18 71 19 181 l-60 0 q-23 0 -50 -6 l-24 84 q32 14 53 62 l60 138 ZM753 460 l61 0 l0 52 l-61 0 l0 -52 ZM814 653 l-61 0 l0 -51 l61 0 l0 51 Z" /><glyph glyph-name="" unicode="&#x5076;" d="M498 27 l-27 90 q51 2 107 7 l0 101 l-122 0 l0 -340 l-112 0 l0 431 l234 0 l0 57 l-202 0 l0 397 l512 0 l0 -397 l-203 0 l0 -57 l245 0 l0 -296 q-2 -127 -125 -129 q-45 0 -78 4 q-3 48 -28 97 q42 -6 72 -6 q48 -1 47 52 l0 187 l-145 0 l0 -92 q13 1 38 4 q-2 0 4 1 q-2 9 -7 27 q-5 18 -8 26 l68 7 q24 -70 42 -164 l-66 -22 q-5 27 -11 52 q-127 -23 -235 -37 ZM164 -115 l0 494 q-36 -57 -65 -91 q-39 48 -96 79 q163 196 239 455 l111 -37 q-36 -126 -115 -278 l40 0 l0 -622 l-114 0 ZM685 461 l94 0 l0 72 l-94 0 l0 -72 ZM484 461 l94 0 l0 72 l-94 0 l0 -72 ZM779 682 l-94 0 l0 -71 l94 0 l0 71 ZM484 682 l0 -71 l94 0 l0 71 l-94 0 Z" /><glyph glyph-name="" unicode="&#x5077;" d="M343 -112 l0 548 l287 0 l0 -438 q-2 -106 -101 -108 q-28 0 -56 4 q-2 48 -23 92 q28 -6 49 -6 q32 0 32 33 l0 45 l-89 0 l0 -170 l-99 0 ZM154 -113 l0 505 q-22 -27 -65 -70 q-38 57 -83 89 q162 149 254 405 l104 -56 q-49 -138 -133 -265 l38 0 l0 -608 l-115 0 ZM484 481 l0 55 q-53 -41 -128 -81 q-29 54 -82 85 q225 107 327 286 l105 -44 q-3 -5 -9 -15 q-7 -10 -10 -15 q113 -120 299 -186 q-48 -37 -76 -99 q-77 37 -138 78 l0 -64 l-288 0 ZM789 -109 q-35 0 -75 5 q-2 58 -31 101 q47 -7 75 -7 q46 -2 44 43 l0 406 l105 0 l0 -417 q-2 -129 -118 -131 ZM674 47 l0 358 l83 0 l0 -358 l-83 0 ZM626 671 q-45 -54 -97 -99 l205 0 q-63 49 -108 99 ZM442 203 l0 -62 l89 0 l0 62 l-89 0 ZM442 346 l0 -60 l89 0 l0 60 l-89 0 Z" /><glyph glyph-name="" unicode="&#x507f;" d="M323 412 l0 208 l250 0 l0 193 l115 0 l0 -193 l253 0 l0 -208 l-97 0 l0 -71 l-424 0 l0 71 l-97 0 ZM853 -118 q-13 18 -40 54 q-5 7 -8 10 l-316 -28 q-51 -4 -99 -23 l-44 106 q48 14 82 54 q37 45 74 108 l-190 0 l0 108 l640 0 l0 -108 l-320 0 q-47 -77 -91 -135 l186 14 q-33 40 -61 69 l96 49 q111 -119 167 -200 l-76 -78 ZM143 -115 l0 514 q-27 -39 -52 -64 q-43 53 -89 77 q148 169 222 411 l105 -41 q-34 -110 -108 -256 l34 0 l0 -641 l-112 0 ZM434 518 l0 -71 l394 0 l0 71 l-394 0 ZM804 623 q-45 34 -94 46 q64 67 104 134 l93 -51 q-56 -82 -103 -129 ZM454 622 q-49 75 -99 130 l98 46 q52 -60 87 -116 l-86 -60 Z" /><glyph glyph-name="" unicode="&#x5080;" d="M362 275 l0 448 l175 0 q18 32 44 94 l119 -28 q-13 -32 -31 -66 l230 0 l0 -448 l-133 0 l64 -20 q-9 -23 -20 -47 l64 22 q34 -49 76 -135 l-19 -11 q32 -20 47 -23 q-5 -30 -11 -49 q-27 -105 -136 -102 l-117 0 q-129 0 -129 129 l0 58 q-76 -120 -215 -212 q-35 49 -95 74 l0 -73 l-117 0 l0 518 q-34 -46 -63 -79 q-38 51 -97 81 q146 163 233 412 l107 -56 q-45 -129 -100 -229 l37 0 l0 -569 q208 131 268 311 l-181 0 ZM714 51 l-27 37 l0 -28 q-1 -54 57 -53 l69 0 q53 -4 68 58 q0 0 0 2 q1 2 1 4 q0 1 -1 3 q0 1 -1 2 l-114 -11 q-32 -3 -52 -14 ZM681 376 l103 0 l0 77 l-97 0 q-2 -42 -6 -77 ZM784 622 l-97 0 l0 -76 l97 0 l0 76 ZM478 622 l0 -76 l95 0 l0 76 l-95 0 ZM662 275 q-7 -28 -16 -52 l41 0 l0 -92 q10 10 20 30 q31 65 48 114 l-93 0 ZM478 376 l88 0 q6 36 7 77 l-95 0 l0 -77 ZM809 205 q-19 -42 -36 -69 l74 5 q-14 25 -38 64 Z" /><glyph glyph-name="" unicode="&#x5085;" d="M568 213 l0 58 l-109 0 l0 -61 l-110 0 l0 380 l219 0 l0 42 l-247 0 l0 86 l247 0 l0 95 l110 0 l0 -95 l89 0 q-17 25 -59 66 l95 33 q37 -36 66 -78 l-41 -21 l113 0 l0 -86 l-263 0 l0 -42 l222 0 l0 -380 l-65 0 l0 -30 l135 0 l0 -87 l-135 0 l0 -71 q0 -130 -132 -130 q-36 0 -73 4 q-5 51 -29 103 q42 -7 79 -7 q42 -1 42 46 l0 55 l-224 0 q46 -55 75 -98 l-94 -68 q-34 57 -96 129 l77 37 l-163 0 l0 87 l425 0 l0 64 l68 0 l0 27 l-112 0 l0 -58 l-110 0 ZM151 -115 l0 506 q-17 -28 -52 -79 q-3 -4 -5 -6 q-33 43 -94 77 q147 180 213 437 l107 -45 q-37 -133 -104 -267 l45 0 l0 -623 l-110 0 ZM678 389 l0 -45 l112 0 l0 45 l-112 0 ZM790 505 l-112 0 l0 -45 l112 0 l0 45 ZM459 505 l0 -45 l109 0 l0 45 l-109 0 ZM459 389 l0 -45 l109 0 l0 45 l-109 0 Z" /><glyph glyph-name="" unicode="&#x508d;" d="M306 249 l0 102 l276 0 q-3 5 -9 14 q-8 15 -29 45 l129 30 q28 -40 50 -89 l237 0 l0 -102 l-368 0 q-1 -22 -5 -50 l295 0 l-12 -163 q-10 -143 -150 -141 q-52 0 -88 5 q-4 53 -30 106 q51 -7 95 -7 q53 -2 56 51 l5 50 l-195 0 q-43 -137 -199 -217 q-31 54 -97 91 q199 83 206 275 l-167 0 ZM341 635 l0 101 l232 0 q-17 33 -35 64 l132 19 q20 -30 42 -83 l221 0 l0 -101 l-161 0 l75 -24 q-2 -3 -6 -9 q-17 -27 -41 -59 l140 0 l0 -159 l-113 0 l0 60 l-388 0 l0 -60 l-111 0 l0 159 l137 0 q-25 38 -47 66 l81 26 l-158 0 ZM148 -115 l0 496 q-27 -42 -55 -80 q-38 51 -95 80 q154 193 214 438 l108 -46 q-34 -125 -90 -243 l29 0 l0 -645 l-111 0 ZM536 635 q32 -41 59 -92 l76 0 q25 30 61 92 l-196 0 Z" /><glyph glyph-name="" unicode="&#x50a8;" d="M529 595 l0 97 l95 0 l0 121 l107 0 l0 -121 l93 0 l0 -72 q31 50 56 102 l89 -49 q-42 -88 -103 -167 l104 0 l0 -97 l-186 0 q-4 -4 -13 -13 q-32 -32 -51 -49 l201 0 l0 -462 l-106 0 l0 45 l-148 0 l0 -45 l-106 0 l0 339 q-24 -17 -49 -32 q-29 42 -70 64 l0 -150 l56 46 l53 -72 l-132 -110 q-24 -21 -50 -50 l-61 78 q31 32 29 94 l0 328 l-61 0 l0 106 l166 0 l0 -260 q113 69 199 143 l-151 0 l0 97 l134 0 l0 89 l-95 0 ZM91 332 q-40 50 -90 74 q149 185 212 414 l104 -42 q-3 -11 -10 -33 q-3 -10 -4 -15 l100 33 q47 -65 85 -143 l-90 -57 q-49 98 -96 165 q-29 -89 -86 -201 l36 0 l0 -642 l-109 0 l0 515 q-27 -41 -52 -68 ZM667 94 l0 -71 l148 0 l0 71 l-148 0 ZM667 254 l0 -70 l148 0 l0 70 l-148 0 ZM739 506 q36 43 68 89 l-76 0 l0 -89 l8 0 Z" /><glyph glyph-name="" unicode="&#x50ac;" d="M365 577 l0 200 l113 0 l0 -102 l111 0 l0 138 l113 0 l0 -138 l115 0 l0 102 l112 0 l0 -200 l-440 0 l79 -39 q-12 -28 -25 -54 l110 0 q-18 31 -42 62 l109 29 q23 -28 51 -78 q5 -10 7 -13 l166 0 l0 -91 l-184 0 l0 -65 l160 0 l0 -86 l-160 0 l0 -67 l160 0 l0 -86 l-160 0 l0 -69 l205 0 l0 -91 l-469 0 l0 -44 l-115 0 l0 373 q-24 -23 -47 -44 q-27 38 -66 64 l0 -393 l-115 0 l0 504 q-24 -33 -51 -63 q-38 51 -97 81 q148 166 233 411 l107 -56 q-44 -129 -107 -241 l30 0 l0 -214 q132 122 196 270 l-99 0 ZM496 89 l0 -69 l148 0 l0 69 l-148 0 ZM496 242 l0 -67 l148 0 l0 67 l-148 0 ZM496 393 l0 -65 l148 0 l0 65 l-148 0 Z" /><glyph glyph-name="" unicode="&#x50b2;" d="M294 616 l0 92 l118 0 l0 105 l101 0 l0 -105 l122 0 l0 -92 l-122 0 l0 -56 l99 0 l0 -90 l-99 0 l0 -59 l89 0 q-9 6 -19 13 q103 137 130 391 l99 -30 q-19 -107 -37 -165 l194 0 l0 -101 l-48 0 q-5 -252 -68 -404 q53 -82 145 -155 q-55 -26 -97 -71 q-60 61 -102 123 q-48 -69 -116 -128 q-35 35 -92 59 q101 79 152 168 q-49 104 -74 266 l-15 -22 q-7 9 -13 18 l0 -54 l-198 0 q1 -36 -2 -70 l186 0 l-10 -214 q-3 -116 -127 -115 q-28 0 -56 3 q-6 56 -25 91 q31 -6 64 -6 q48 -3 48 52 l6 101 l-95 0 q-24 -159 -116 -263 q-34 27 -73 38 l0 -50 l-102 0 l0 522 q-28 -42 -50 -66 q-36 45 -84 68 q137 152 208 416 l99 -31 q-36 -129 -100 -257 l29 0 l0 -574 q109 132 104 355 l-73 0 l0 92 l138 0 l0 59 l-102 0 l0 90 l102 0 l0 56 l-118 0 ZM794 237 q30 106 31 282 l-82 0 q-15 -41 -42 -89 l47 17 q16 -128 46 -210 Z" /><glyph glyph-name="" unicode="&#x50bb;" d="M345 359 l0 387 l162 0 q23 41 39 78 l125 -21 q-2 -4 -7 -14 q-14 -29 -22 -43 l253 0 l0 -387 l-87 0 q95 -56 155 -102 l-36 -90 q-18 14 -64 47 q-14 10 -21 15 l0 -65 q-42 -80 -103 -134 q88 -31 234 -50 q-33 -30 -61 -89 q-2 -5 -3 -7 q-150 23 -265 80 q-113 -60 -282 -84 q-28 55 -68 86 q149 20 248 59 q-38 27 -70 58 q-33 -27 -75 -52 q-38 39 -92 60 q163 94 246 218 l88 -40 q-3 -5 -9 -14 q-7 -10 -10 -15 l204 0 q-70 47 -136 86 l40 33 l-247 0 l53 -27 q-87 -105 -201 -172 q-32 34 -74 58 l0 -333 l-114 0 l0 475 q-19 -32 -47 -69 q-44 48 -97 73 q143 190 212 449 l110 -40 q-32 -118 -94 -256 l30 0 l0 -291 q108 59 177 133 l-91 0 ZM740 447 l47 0 l0 210 l-334 0 l0 -210 l72 0 q-22 32 -60 52 q57 26 98 53 q-50 29 -89 47 l57 50 q28 -14 98 -50 q28 21 64 57 l67 -38 q-29 -30 -61 -59 q45 -25 69 -42 l-28 -70 ZM550 154 q-4 -6 -9 -10 q40 -38 97 -69 q49 36 78 79 l-166 0 ZM529 447 l208 0 q-10 6 -32 20 q-45 29 -69 43 q-55 -38 -107 -63 Z" /><glyph glyph-name="" unicode="&#x50cf;" d="M363 367 l0 167 q-31 33 -79 55 q148 88 223 230 l98 -41 q-6 -10 -19 -29 q-4 -6 -6 -9 l263 0 l0 -69 l-66 -72 l135 0 l0 -232 l-76 0 l87 -56 q-38 -31 -89 -61 q34 -143 155 -224 q-63 -28 -104 -68 q-99 101 -136 246 q-1 -1 -5 -2 q-16 -8 -25 -11 q14 -55 15 -123 q4 -180 -178 -176 q-29 0 -62 4 q-1 50 -25 96 q-72 -34 -127 -53 q-22 40 -68 74 q190 53 331 171 q-6 16 -12 31 q-98 -81 -246 -133 q-21 35 -70 70 q166 42 274 129 q-7 9 -16 18 q-73 -48 -185 -89 q-24 42 -70 75 q125 34 199 82 l-116 0 ZM155 -115 l0 488 q-25 -39 -52 -74 q-35 46 -94 79 q147 180 212 441 l110 -45 q-38 -134 -95 -253 l31 0 l0 -636 l-112 0 ZM616 367 q-2 -1 -2 -3 q43 -36 75 -92 q85 43 145 95 l-218 0 ZM517 657 q-33 -40 -54 -58 l181 0 l54 58 l-181 0 ZM802 515 l-114 0 q-6 -31 -19 -63 l133 0 l0 63 ZM473 452 l90 0 q17 30 25 63 l-115 0 l0 -63 ZM620 91 q-58 -51 -150 -98 q3 0 9 -1 q42 -5 59 -5 q87 -4 83 87 q0 2 0 8 q-1 6 -1 9 Z" /><glyph glyph-name="" unicode="&#x50da;" d="M338 628 l0 94 l217 0 q11 47 14 99 l115 -18 q-5 -40 -15 -81 l255 0 l0 -94 l-223 0 q29 -49 69 -90 q35 31 71 74 l79 -60 q-33 -37 -75 -76 q63 -39 142 -64 q-38 -31 -61 -92 q-35 15 -67 32 l0 -226 l-166 0 l0 -113 q0 -123 -127 -122 q-33 0 -70 5 q-4 48 -25 94 q-47 -49 -103 -89 q-33 38 -91 65 q106 68 172 150 l84 -56 q-28 -36 -59 -67 q6 -1 17 -2 q34 -5 51 -5 q42 -1 41 48 l0 92 l-193 0 l0 219 q-6 -3 -18 -10 q-10 -4 -37 -19 q-34 51 -73 75 l0 -506 l-112 0 l0 507 q-27 -40 -58 -77 q-34 51 -91 83 q154 170 225 422 l107 -41 q-40 -143 -108 -267 l37 0 l0 -118 q82 36 142 82 q-39 37 -85 74 l80 55 q45 -38 72 -62 q33 38 53 85 l-186 0 ZM895 -95 q-79 78 -176 148 l78 64 q94 -64 159 -128 l-61 -84 ZM499 372 l0 -42 l252 0 l0 42 l-252 0 ZM499 211 l252 0 l0 43 l-252 0 l0 -43 ZM619 581 q-32 -64 -87 -124 l181 0 q-51 50 -94 124 Z" /><glyph glyph-name="" unicode="&#x50e7;" d="M334 341 l0 342 l159 0 q-43 56 -81 90 l91 47 q44 -38 89 -103 l-42 -34 l117 0 q55 56 104 140 l94 -51 q-30 -43 -69 -89 l144 0 l0 -342 l-606 0 ZM378 -115 l0 405 l517 0 l0 -405 l-113 0 l0 43 l-290 0 l0 -43 l-114 0 ZM152 -115 l0 495 q-16 -25 -51 -70 q-3 -4 -5 -6 q-39 52 -93 84 q155 177 230 432 l110 -41 q-45 -139 -120 -282 l41 0 l0 -612 l-112 0 ZM829 600 l-146 0 l0 -177 l146 0 l0 177 ZM444 423 l146 0 l0 177 l-146 0 l0 -177 ZM492 72 l0 -62 l290 0 l0 62 l-290 0 ZM492 207 l0 -60 l290 0 l0 60 l-290 0 ZM514 438 q-25 60 -65 115 l72 29 q32 -44 61 -107 l-68 -37 ZM758 439 q-33 28 -68 32 q38 53 61 113 l71 -30 q-28 -68 -64 -115 Z" /><glyph glyph-name="" unicode="&#x50f5;" d="M342 19 l0 256 l564 0 l0 -256 l-564 0 ZM343 414 l0 251 l562 0 l0 -251 l-562 0 ZM151 -115 l0 508 q-16 -26 -49 -71 q-5 -7 -8 -11 q-42 56 -92 85 q152 181 211 429 l107 -40 q-27 -127 -95 -264 l37 0 l0 -636 l-111 0 ZM292 -90 l0 79 l675 0 l0 -79 l-675 0 ZM310 304 l0 80 l640 0 l0 -80 l-640 0 ZM328 696 l0 79 l609 0 l0 -79 l-609 0 ZM676 479 l121 0 l0 33 l-121 0 l0 -33 ZM451 479 l119 0 l0 33 l-119 0 l0 -33 ZM797 601 l-121 0 l0 -33 l121 0 l0 33 ZM451 601 l0 -33 l119 0 l0 33 l-119 0 ZM676 87 l122 0 l0 31 l-122 0 l0 -31 ZM798 206 l-122 0 l0 -31 l122 0 l0 31 ZM450 87 l120 0 l0 31 l-120 0 l0 -31 ZM450 206 l0 -31 l120 0 l0 31 l-120 0 Z" /><glyph glyph-name="" unicode="&#x50fb;" d="M138 -115 l0 515 q-26 -39 -50 -66 q-40 48 -90 74 q145 178 207 416 l104 -42 q-31 -111 -91 -236 l26 0 l0 -416 q65 142 63 392 l0 246 l280 0 l0 -328 l-182 0 q-4 -48 -9 -96 l206 0 l0 78 l94 0 q-1 3 -4 10 q-37 93 -65 139 l93 32 q31 -53 65 -140 l-86 -41 l83 0 q49 108 70 184 l93 -39 q-26 -73 -63 -145 l86 0 l0 -103 l-125 0 l0 -115 l105 0 l0 -100 l-105 0 l0 -217 l-106 0 l0 217 l-112 0 l0 100 l112 0 l0 115 l-132 0 l0 -381 l-94 0 l0 57 l-66 0 l0 -71 l-95 0 l0 217 q-18 -71 -64 -156 q-15 21 -42 44 l0 -144 l-106 0 ZM623 614 l0 100 l114 0 q-10 21 -29 61 q-7 14 -10 21 l111 22 q34 -65 49 -104 l90 0 l0 -100 l-325 0 ZM408 669 l0 -130 l82 0 l0 130 l-82 0 ZM445 245 l0 -151 l66 0 l0 151 l-66 0 Z" /><glyph glyph-name="" unicode="&#x5112;" d="M302 262 l0 87 l651 0 l0 -87 l-302 0 q-8 -25 -19 -51 l293 0 l0 -196 q2 -128 -117 -126 q-23 0 -50 4 q-1 21 -4 39 l0 -6 l-99 0 l0 201 l-62 0 l0 -207 l-99 0 l0 207 l-60 0 l0 -241 l-107 0 l0 325 l188 0 q13 26 22 51 l-235 0 ZM570 383 l0 191 l-165 0 l0 -149 l-96 0 l0 232 l261 0 l0 43 l-220 0 l0 82 l549 0 l0 -82 l-224 0 l0 -43 l263 0 l0 -232 l-97 0 l0 149 l-166 0 l0 -191 l-105 0 ZM150 -115 l0 491 q-26 -42 -52 -77 q-36 47 -96 80 q145 177 211 441 l110 -48 q-32 -118 -90 -243 l29 0 l0 -644 l-112 0 ZM819 127 l-65 0 l0 -138 q17 -2 33 -2 q33 -2 32 40 l0 100 ZM427 483 l0 52 l122 0 l0 -52 l-122 0 ZM697 483 l0 52 l122 0 l0 -52 l-122 0 ZM427 392 l0 51 l122 0 l0 -51 l-122 0 ZM697 392 l0 51 l122 0 l0 -51 l-122 0 Z" /><glyph glyph-name="" unicode="&#x5121;" d="M358 396 l0 377 l508 0 l0 -377 l-508 0 ZM630 -113 l0 463 l307 0 l0 -463 l-80 0 l0 51 l-149 0 l0 -51 l-78 0 ZM290 -114 l0 464 l305 0 l0 -463 l-79 0 l0 51 l-147 0 l0 -52 l-79 0 ZM138 -115 l0 461 q-25 -37 -42 -61 q-44 50 -91 79 q144 204 207 456 l108 -39 q-30 -125 -96 -273 l22 0 l0 -623 l-108 0 ZM660 481 l100 0 l0 64 l-100 0 l0 -64 ZM464 481 l100 0 l0 64 l-100 0 l0 -64 ZM464 689 l0 -64 l100 0 l0 64 l-100 0 ZM760 689 l-100 0 l0 -64 l100 0 l0 64 ZM814 106 l0 -96 l43 0 l0 96 l-43 0 ZM857 270 l-43 0 l0 -94 l43 0 l0 94 ZM474 106 l0 -96 l42 0 l0 96 l-42 0 ZM708 106 l0 -96 l42 0 l0 96 l-42 0 ZM708 270 l0 -94 l42 0 l0 94 l-42 0 ZM516 270 l-42 0 l0 -94 l42 0 l0 94 ZM369 106 l0 -96 l40 0 l0 96 l-40 0 ZM369 270 l0 -94 l40 0 l0 94 l-40 0 Z" /><glyph glyph-name="" unicode="&#x513f;" d="M134 -111 q-42 50 -111 84 q148 89 198 197 q53 106 52 320 l0 308 l128 0 l0 -308 q9 -445 -267 -601 ZM743 -80 q-160 2 -162 157 l0 721 l128 0 l0 -698 q-2 -60 55 -58 l37 0 q48 -4 63 65 q12 45 18 94 q54 -50 102 -69 q-7 -47 -15 -81 q-28 -136 -157 -131 l-69 0 Z" /><glyph glyph-name="" unicode="&#x5141;" d="M119 -112 q-24 57 -79 107 q275 64 276 314 q2 38 2 70 l-70 -3 q-56 -4 -101 -18 l-49 107 q54 16 102 67 q114 125 215 292 l123 -49 q-98 -159 -217 -286 l366 15 q-67 82 -125 145 l103 58 q137 -147 246 -299 l-86 -88 q-27 39 -58 80 l-87 -4 l0 -311 q1 -57 48 -58 l40 0 q52 -3 65 62 q8 34 16 81 q49 -46 102 -60 q-1 -3 -2 -8 q-6 -38 -12 -56 q-35 -135 -151 -133 l-84 0 q-144 -5 -140 155 l0 323 l-125 -6 q0 -20 -2 -59 q-1 -14 -1 -21 q-10 -329 -315 -417 Z" /><glyph glyph-name="" unicode="&#x5143;" d="M706 -82 q-148 -3 -145 156 l0 300 l-138 0 q8 -362 -287 -492 q-45 54 -110 89 q286 108 272 403 l-238 0 l0 114 l882 0 l0 -114 l-255 0 l0 -278 q-2 -63 53 -60 l43 0 q50 -1 63 61 q7 34 14 80 q47 -42 105 -61 q-6 -38 -13 -72 q-22 -132 -161 -126 l-85 0 ZM162 645 l0 113 l677 0 l0 -113 l-677 0 Z" /><glyph glyph-name="" unicode="&#x5144;" d="M698 -87 q-150 -5 -146 159 l0 239 l-116 0 q-1 -30 -3 -55 q-12 -279 -323 -376 q-31 60 -88 102 q284 68 292 283 q2 22 3 46 l-154 0 l0 453 l675 0 l0 -453 l-165 0 l0 -222 q1 -59 51 -60 l59 0 q55 -3 66 62 q2 12 9 48 q4 24 6 33 q45 -44 103 -61 q-1 -5 -4 -17 q-8 -35 -10 -47 q-30 -137 -153 -134 l-102 0 ZM290 427 l421 0 l0 222 l-421 0 l0 -222 Z" /><glyph glyph-name="" unicode="&#x5145;" d="M60 582 l0 110 l384 0 q-32 51 -68 103 l139 27 q39 -51 83 -130 l343 0 l0 -110 l-427 0 q-69 -86 -165 -178 l302 8 q-46 43 -96 83 l92 64 q114 -89 245 -222 l-77 -89 q-9 10 -28 31 q-19 20 -29 30 l-90 -3 l0 -222 q1 -56 49 -58 l66 0 q53 -5 64 62 q12 46 16 81 q42 -37 103 -60 q-1 -3 -2 -9 q-8 -42 -12 -58 q-32 -138 -152 -133 l-109 0 q-141 -1 -140 156 l0 237 l-104 -3 l0 -8 q10 -316 -338 -405 q-23 52 -78 108 q306 66 298 297 l0 5 l-72 -2 q-51 -2 -92 -12 l-40 102 q54 11 91 46 q71 64 146 152 l-302 0 Z" /><glyph glyph-name="" unicode="&#x5146;" d="M862 163 q-83 65 -175 127 l0 -192 q0 -65 59 -65 l69 0 q58 -4 70 57 q8 36 16 99 q42 -43 96 -60 q-6 -45 -13 -72 q-28 -140 -160 -140 l-103 0 q-157 3 -160 166 l0 728 l126 0 l0 -284 q81 90 131 183 l106 -64 q-68 -114 -153 -202 l-84 49 l0 -66 q126 -72 241 -153 l-66 -111 ZM242 440 q-86 108 -177 192 l107 63 q75 -69 152 -162 l0 278 l127 0 l0 -330 q23 -447 -301 -599 q-40 52 -113 83 q254 122 274 326 l-192 -135 l-79 103 l283 158 q0 9 0 28 q1 20 1 31 l0 47 l-82 -83 Z" /><glyph glyph-name="" unicode="&#x5148;" d="M194 443 q-53 38 -126 45 q112 133 166 310 l115 -48 q-13 -46 -31 -89 l131 0 l0 152 l126 0 l0 -152 l280 0 l0 -108 l-280 0 l0 -135 l366 0 l0 -110 l-263 0 l0 -226 q-1 -53 46 -52 l53 0 q49 -4 62 62 q12 51 17 83 q50 -48 105 -61 q-8 -45 -14 -67 q-36 -136 -152 -133 l-91 0 q-150 -2 -149 148 l0 246 l-116 0 q11 -330 -326 -426 q-27 60 -79 106 q292 62 282 320 l-256 0 l0 110 l389 0 l0 135 l-183 0 q-30 -55 -72 -110 Z" /><glyph glyph-name="" unicode="&#x5149;" d="M54 341 l0 109 l388 0 l0 363 l126 0 l0 -363 l379 0 l0 -109 l-264 0 l0 -258 q-2 -55 45 -53 l52 0 q47 -3 63 62 q9 35 16 83 q48 -46 106 -61 q-6 -36 -15 -67 q-35 -135 -152 -133 l-91 0 q-149 -2 -147 148 l0 279 l-125 0 l0 -14 q9 -318 -325 -445 q-26 53 -83 98 q295 92 285 348 l0 13 l-258 0 ZM721 473 q-44 40 -105 53 q105 117 170 233 l105 -53 q-67 -117 -170 -233 ZM290 480 q-71 117 -167 226 l106 45 q71 -78 150 -195 l-89 -76 Z" /><glyph glyph-name="" unicode="&#x514b;" d="M66 616 l0 108 l372 0 l0 89 l124 0 l0 -89 l373 0 l0 -108 l-373 0 l0 -81 l253 0 l0 -340 l-148 0 l0 -127 q-2 -54 49 -52 l73 0 q48 -3 62 50 q7 21 21 82 q43 -41 94 -59 q-7 -37 -16 -67 q-31 -117 -147 -113 l-113 0 q-142 -2 -140 140 l0 146 l-95 0 q-1 -11 -1 -20 q-7 -245 -340 -296 q-28 60 -76 103 q297 38 299 198 q0 8 1 15 l-152 0 l0 340 l252 0 l0 81 l-372 0 ZM309 301 l383 0 l0 128 l-383 0 l0 -128 Z" /><glyph glyph-name="" unicode="&#x514d;" d="M676 -90 q-143 -1 -142 140 l0 159 q-80 -241 -403 -325 q-28 57 -82 104 q294 66 365 248 l-234 0 l0 215 q-6 -4 -18 -12 q-20 -13 -29 -20 q-46 50 -102 78 q218 141 320 330 l113 -45 q-8 -16 -25 -47 q1 2 -3 -5 l347 0 l0 -85 l-107 -103 l190 0 l0 -306 l-214 0 l0 -171 q-1 -50 50 -49 l95 0 q53 -2 66 55 q9 29 16 71 q42 -45 92 -62 q-5 -32 -13 -59 q-29 -117 -148 -111 l-134 0 ZM367 632 q-35 -46 -80 -90 l235 0 l92 90 l-247 0 ZM575 442 q-3 -57 -11 -105 l182 0 l0 105 l-171 0 ZM301 337 l143 0 q9 46 12 105 l-155 0 l0 -105 Z" /><glyph glyph-name="" unicode="&#x5151;" d="M168 238 l0 396 l161 0 q-68 74 -122 122 l107 63 q82 -75 142 -149 l-47 -36 l123 0 q93 102 145 189 l115 -60 q-49 -67 -106 -129 l145 0 l0 -396 l-157 0 l0 -170 q0 -53 51 -52 l64 0 q47 -2 62 50 q12 41 20 82 q43 -40 96 -59 q-6 -38 -16 -68 q-32 -116 -147 -111 l-109 0 q-142 -2 -140 139 l0 189 l-110 0 q-2 -30 -5 -59 q-27 -245 -332 -300 q-22 56 -76 99 q269 42 289 205 q5 25 6 55 l-159 0 ZM294 351 l413 0 l0 169 l-413 0 l0 -169 Z" /><glyph glyph-name="" unicode="&#x5154;" d="M657 -86 q-144 -1 -143 140 l0 112 q-90 -204 -395 -283 q-29 61 -83 108 q301 64 374 245 l-238 0 l0 216 q-11 -7 -32 -22 q-11 -7 -16 -11 q-45 48 -102 78 q218 141 320 330 l113 -45 q-8 -16 -25 -47 q1 2 -3 -5 l356 0 l0 -85 l-101 -102 l196 0 l0 -307 l-337 0 q-4 -18 -12 -35 l105 0 l0 -131 q-1 -50 49 -49 l114 0 q52 -3 66 54 q9 29 16 71 q47 -46 97 -62 q-5 -28 -14 -59 q-30 -116 -152 -111 l-153 0 ZM615 632 l-257 0 q-36 -48 -79 -89 l248 0 l88 89 ZM575 442 q-3 -57 -11 -105 l193 0 l0 105 l-182 0 ZM292 337 l148 0 q9 46 12 105 l-160 0 l0 -105 ZM757 51 q-43 68 -100 126 l93 41 q48 -47 88 -104 l-81 -63 Z" /><glyph glyph-name="" unicode="&#x515a;" d="M675 -95 q-143 0 -143 130 l0 124 l-69 0 q-1 -14 -4 -41 q0 2 -1 -4 q-31 -194 -334 -240 q-32 60 -76 102 q273 35 294 155 q0 3 1 10 q2 11 3 18 l-98 0 l0 292 l504 0 l0 -292 l-103 0 l0 -96 q-1 -52 50 -51 l73 0 q50 -2 67 63 q2 8 1 6 q8 37 13 66 q48 -44 101 -61 q-4 -31 -14 -63 q-32 -122 -151 -118 l-114 0 ZM76 377 l0 238 l205 0 q-63 73 -124 125 l98 61 q73 -62 131 -135 l-62 -51 l114 0 l0 198 l124 0 l0 -198 l122 0 q-41 26 -72 37 q80 73 135 152 l98 -59 q-48 -65 -113 -130 l191 0 l0 -238 l-122 0 l0 134 l-602 0 l0 -134 l-123 0 ZM370 258 l259 0 l0 94 l-259 0 l0 -94 Z" /><glyph glyph-name="" unicode="&#x515c;" d="M135 188 l-54 82 q26 25 24 93 l0 357 q118 15 204 51 l39 -58 l82 0 q23 71 32 114 l109 -25 q-13 -49 -27 -89 l115 0 l0 -447 l-317 0 l0 400 q-70 -23 -120 -30 l0 -284 l74 28 l33 -95 l-124 -53 q-33 -14 -70 -44 ZM689 246 l0 106 l85 0 l0 276 l-85 0 l0 107 l201 0 l0 -489 l-201 0 ZM672 -92 q-133 -1 -132 134 l0 191 l117 0 l0 -171 q0 -49 45 -50 l87 0 q53 -3 66 63 q8 35 12 63 q47 -42 103 -58 q-5 -30 -11 -56 q-26 -120 -147 -116 l-140 0 ZM104 -120 q-21 47 -72 102 q179 19 245 75 q68 53 62 178 l117 -8 q14 -312 -352 -347 ZM445 614 l0 -79 l112 0 l0 79 l-112 0 ZM445 365 l112 0 l0 80 l-112 0 l0 -80 Z" /><glyph glyph-name="" unicode="&#x5162;" d="M508 612 l0 97 l147 0 l0 104 l114 0 l0 -104 l162 0 l0 -97 l-162 0 l0 -89 l134 0 l0 -292 l-83 0 l0 -183 q0 -39 27 -39 l9 0 q22 0 32 43 q6 35 11 77 q34 -33 83 -48 q-2 -12 -6 -36 q-3 -16 -4 -24 q-20 -113 -109 -113 l-35 0 q-108 -2 -107 126 l0 197 l-40 0 q12 -273 -208 -354 q-38 50 -80 74 q113 48 150 105 q40 57 39 175 l-63 0 l0 292 l136 0 l0 89 l-147 0 ZM72 612 l0 97 l159 0 l0 104 l113 0 l0 -104 l134 0 l0 -97 l-134 0 l0 -89 l122 0 l0 -292 l-60 0 l0 -128 l62 41 l49 -71 l-127 -90 q-20 -12 -52 -45 l-56 84 q25 25 24 75 l0 134 l-34 0 q9 -231 -160 -347 q-41 46 -98 66 q162 90 156 281 l-71 0 l0 292 l132 0 l0 89 l-159 0 ZM630 326 l163 0 l0 104 l-163 0 l0 -104 ZM208 325 l149 0 l0 105 l-149 0 l0 -105 Z" /><glyph glyph-name="" unicode="&#x5165;" d="M872 -96 q-224 162 -361 464 q-120 -300 -382 -469 q-52 54 -124 82 q333 200 439 561 q-38 105 -186 167 l89 91 q159 -63 209 -202 q150 -425 440 -597 q-70 -33 -124 -97 Z" /><glyph glyph-name="" unicode="&#x5168;" d="M227 368 l0 63 q-63 -36 -125 -62 q-36 53 -92 93 q322 136 463 376 l114 -46 q-6 -13 -21 -37 q-2 -3 -3 -5 q170 -180 433 -259 q-52 -48 -85 -109 q-71 29 -136 65 l0 -79 l-214 0 l0 -113 l260 0 l0 -104 l-260 0 l0 -126 l350 0 l0 -107 l-820 0 l0 107 l348 0 l0 126 l-259 0 l0 104 l259 0 l0 113 l-212 0 ZM501 660 q-88 -107 -205 -187 l435 0 q-144 89 -230 187 Z" /><glyph glyph-name="" unicode="&#x516b;" d="M139 -102 q-63 48 -134 70 q277 233 274 786 l130 -23 q-3 -576 -270 -833 ZM865 -97 q-272 281 -296 885 l132 17 q11 -564 302 -812 q-81 -29 -138 -90 Z" /><glyph glyph-name="" unicode="&#x516c;" d="M755 -117 q-3 6 -11 18 q-23 40 -36 62 l-391 -33 q-69 -6 -124 -27 l-57 110 q66 23 107 82 q110 165 198 364 l117 -47 q-103 -227 -197 -360 l281 20 q-54 85 -104 155 l109 44 q110 -138 208 -308 l-100 -80 ZM867 277 q-228 180 -338 488 l113 47 q97 -294 348 -444 q-71 -32 -123 -91 ZM128 270 q-49 40 -117 67 q220 169 300 450 l119 -49 q-102 -301 -302 -468 Z" /><glyph glyph-name="" unicode="&#x516d;" d="M62 428 l0 119 l456 0 q-72 114 -168 213 l126 56 q84 -83 158 -191 l-112 -78 l417 0 l0 -119 l-877 0 ZM171 -111 q-46 40 -123 66 q169 162 271 374 l118 -57 q-114 -228 -266 -383 ZM855 -112 q-122 200 -276 382 l114 62 q139 -159 258 -346 l-96 -98 Z" /><glyph glyph-name="" unicode="&#x5170;" d="M94 468 l0 114 l243 0 q-68 95 -141 174 l115 56 q63 -67 137 -174 l-87 -56 l172 0 q90 112 158 233 l119 -56 q-53 -87 -125 -177 l221 0 l0 -114 l-812 0 ZM45 -78 l0 112 l911 0 l0 -112 l-911 0 ZM158 199 l0 113 l682 0 l0 -113 l-682 0 Z" /></font>
</defs>
</svg>
