<?xml version="1.0" standalone="no"?><!DOCTYPE svg PUBLIC "-//W3C//DTD SVG 1.1//EN" "http://www.w3.org/Graphics/SVG/1.1/DTD/svg11.dtd" ><svg xmlns="http://www.w3.org/2000/svg"><metadata></metadata><defs><font id="Founder:FZYouHeiS_510M" horiz-adv-x="1000"><font-face font-family="FZYouHeiS 510M" font-weight="550" font-stretch="normal" units-per-em="1000" panose-1="2 0 0 0 0 0 0 0 0 0" ascent="894" descent="-237" x-height="0" bbox="-64 -237 1003 858" underline-thickness="50" underline-position="-187" unicode-range="U+0022-ffe5" /><missing-glyph horiz-adv-x="1000" d="M155 220 l-79 0 q-2 83 -7 249 q-5 165 -7 248 l107 0 q-2 -83 -7 -248 q-5 -166 -7 -249 ZM166 0 l-101 0 l0 105 l101 0 l0 -105 Z" /><glyph glyph-name="" unicode="&quot;" d="M47 725 l95 0 l-18 -224 l-60 0 l-17 224 ZM204 725 l96 0 l-18 -224 l-60 0 l-18 224 Z" /><glyph glyph-name="" unicode="#" d="M73 0 l27 196 l-58 0 l0 79 l69 0 l23 173 l-67 0 l0 79 l78 0 l26 187 l85 0 l-26 -187 l103 0 l26 187 l85 0 l-26 -187 l56 0 l0 -79 l-67 0 l-23 -173 l65 0 l0 -79 l-76 0 l-26 -196 l-85 0 l26 196 l-103 0 l-27 -196 l-85 0 ZM219 448 l-23 -173 l103 0 l23 173 l-103 0 Z" /><glyph glyph-name="" unicode="$" d="M28 54 l27 86 q74 -36 153 -35 q140 0 140 98 q2 74 -132 131 q-184 80 -182 202 q1 141 165 164 l0 119 l80 0 l0 -116 q66 -3 137 -33 l-26 -89 q-74 30 -134 29 q-120 -1 -121 -72 q-6 -56 124 -114 q193 -88 190 -219 q-6 -154 -170 -189 l0 -121 l-80 0 l0 115 q-98 3 -171 44 Z" /><glyph glyph-name="" unicode="%" d="M187 725 q156 -9 163 -206 q-6 -198 -163 -207 q-155 7 -160 207 q6 197 160 206 ZM187 649 q-77 1 -77 -130 q-1 -133 77 -131 q80 0 80 131 q-1 129 -80 130 ZM247 -10 l-78 0 l406 735 l78 0 l-406 -735 ZM633 403 q157 -8 163 -207 q-6 -198 -163 -206 q-155 7 -160 206 q6 198 160 207 ZM633 327 q-77 0 -77 -131 q-1 -131 77 -130 q80 0 80 130 q0 130 -80 131 Z" /><glyph glyph-name="" unicode="&#39;" d="M47 725 l95 0 l-17 -224 l-61 0 l-17 224 Z" /><glyph glyph-name="" unicode="(" d="M198 798 l83 0 q-132 -204 -131 -463 q1 -252 131 -461 l-83 0 q-135 221 -135 462 q2 264 135 462 Z" /><glyph glyph-name="" unicode=")" d="M14 798 l82 0 q135 -190 137 -462 q-1 -243 -136 -462 l-83 0 q131 208 132 461 q1 260 -132 463 Z" /><glyph glyph-name="" unicode="*" d="M275 729 l70 -43 l-106 -127 l158 27 l0 -81 l-158 27 l106 -128 l-70 -43 l-62 155 l-59 -155 l-72 43 l105 127 l-156 -26 l0 81 l156 -27 l-105 127 l72 43 l59 -153 l62 153 Z" /><glyph glyph-name="" unicode="+" d="M212 583 l93 0 l0 -176 l178 0 l0 -95 l-178 0 l0 -176 l-93 0 l0 176 l-176 0 l0 95 l176 0 l0 176 Z" /><glyph glyph-name="" unicode="," d="M154 56 l0 -39 q-2 -68 -44 -146 l-43 0 q30 69 32 105 q0 23 -23 24 l-23 0 l0 105 l50 0 q50 -1 51 -49 Z" /><glyph glyph-name="" unicode="-" d="M481 407 l0 -95 l-445 0 l0 95 l445 0 Z" /><glyph glyph-name="" unicode="." d="M154 0 l-101 0 l0 105 l101 0 l0 -105 Z" /><glyph glyph-name="" unicode="/" d="M75 -10 l-81 0 l280 735 l82 0 l-281 -735 Z" /><glyph glyph-name="" unicode="0" d="M267 725 q226 -6 230 -367 q-4 -361 -230 -368 q-225 6 -230 368 q4 360 230 367 ZM267 630 q-129 -1 -129 -272 q-1 -275 129 -273 q128 1 128 273 q0 272 -128 272 Z" /><glyph glyph-name="" unicode="1" d="M217 0 l0 595 l-130 -59 l0 96 l182 82 l50 0 l0 -714 l-102 0 Z" /><glyph glyph-name="" unicode="2" d="M466 0 l-421 0 l0 63 q101 141 223 279 q91 101 89 191 q-1 99 -109 100 q-74 -2 -158 -52 q-7 22 -17 65 q-3 15 -5 23 q94 60 191 59 q194 -6 199 -195 q0 -122 -113 -249 q-90 -100 -157 -189 l278 0 l0 -95 Z" /><glyph glyph-name="" unicode="3" d="M48 39 l26 85 q82 -37 145 -39 q140 1 141 135 q-6 108 -131 114 l-69 0 l0 95 l70 0 q113 2 115 114 q0 90 -105 90 q-64 0 -139 -36 l-25 87 q96 44 173 44 q191 -6 197 -179 q0 -102 -105 -167 q120 -58 120 -169 q-11 -213 -229 -223 q-86 1 -184 49 Z" /><glyph glyph-name="" unicode="4" d="M427 0 l-102 0 l0 158 l-300 0 l0 86 l294 473 l108 0 l0 -464 l75 0 l0 -95 l-75 0 l0 -158 ZM130 253 l195 0 l0 318 l-195 -318 Z" /><glyph glyph-name="" unicode="5" d="M445 717 l0 -95 l-259 0 l-8 -167 q27 6 60 6 q225 -7 232 -233 q-6 -231 -251 -238 q-77 0 -161 39 l24 85 q79 -29 137 -29 q146 5 150 143 q0 138 -144 138 q-69 0 -140 -18 l19 369 l341 0 Z" /><glyph glyph-name="" unicode="6" d="M432 728 l12 -91 q-240 -8 -300 -249 q78 68 154 69 q189 -16 203 -228 q-14 -225 -224 -239 q-224 9 -231 300 q17 418 386 438 ZM277 85 q117 6 122 144 q-2 131 -123 133 q-84 -5 -129 -83 q3 -192 130 -194 Z" /><glyph glyph-name="" unicode="7" d="M55 717 l418 0 l0 -60 l-251 -657 l-108 0 l256 622 l-315 0 l0 95 Z" /><glyph glyph-name="" unicode="8" d="M42 191 q-1 113 136 190 q-116 70 -115 170 q13 167 204 177 q193 -9 204 -178 q-1 -103 -116 -170 q143 -71 138 -189 q-15 -185 -226 -201 q-212 13 -225 201 ZM265 81 q123 6 130 112 q1 94 -143 145 q-110 -53 -113 -146 q5 -105 126 -111 ZM267 641 q-102 -5 -109 -90 q2 -78 121 -130 q95 53 97 129 q-5 87 -109 91 Z" /><glyph glyph-name="" unicode="9" d="M98 -10 l-14 95 q246 4 300 241 q-76 -63 -150 -65 q-190 10 -199 230 q12 226 222 237 q220 -6 225 -301 q-12 -422 -384 -437 ZM257 633 q-113 -8 -121 -142 q2 -133 121 -135 q84 4 124 83 q0 191 -124 194 Z" /><glyph glyph-name="" unicode=":" d="M154 0 l-101 0 l0 105 l101 0 l0 -105 ZM154 351 l-101 0 l0 106 l101 0 l0 -106 Z" /><glyph glyph-name="" unicode=";" d="M154 351 l-101 0 l0 106 l101 0 l0 -106 ZM154 17 l0 39 q-1 48 -51 49 l-50 0 l0 -105 l23 0 q23 -1 23 -24 q-2 -36 -32 -105 l43 0 q42 78 44 146 Z" /><glyph glyph-name="" unicode="&lt;" d="M67 307 l0 89 l449 198 l0 -105 l-338 -138 l338 -137 l0 -106 l-449 199 Z" /><glyph glyph-name="" unicode="=" d="M538 499 l0 -95 l-477 0 l0 95 l477 0 ZM538 300 l0 -95 l-477 0 l0 95 l477 0 Z" /><glyph glyph-name="" unicode="&gt;" d="M516 307 l-449 -199 l0 106 l337 137 l-337 138 l0 105 l449 -198 l0 -89 Z" /><glyph glyph-name="" unicode="?" d="M219 220 l-101 0 l0 44 q1 92 67 158 q86 86 84 140 q-1 67 -82 68 q-53 0 -118 -21 l-23 88 q71 28 147 28 q174 -3 177 -163 q5 -90 -98 -192 q-54 -59 -53 -107 l0 -43 ZM219 0 l-101 0 l0 105 l101 0 l0 -105 Z" /><glyph glyph-name="" unicode="@" d="M450 337 l28 138 q-27 9 -53 9 q-139 -15 -153 -175 q-1 -68 64 -67 q92 5 114 95 ZM514 100 l23 -73 q-93 -37 -179 -37 q-312 10 -321 338 q30 365 377 397 q308 -12 319 -310 q-5 -235 -184 -244 q-70 -1 -81 73 q-48 -74 -145 -73 q-118 8 -124 138 q24 226 245 246 q64 -1 116 -30 l-39 -202 q-14 -81 38 -81 q91 9 95 173 q-4 229 -240 233 q-274 -25 -298 -320 q5 -254 242 -260 q73 0 156 32 Z" /><glyph glyph-name="" unicode="a" d="M483 0 l-61 205 l-244 0 l-60 -205 l-106 0 l237 714 l103 0 l237 -714 l-106 0 ZM300 626 l-96 -326 l192 0 l-96 326 Z" /><glyph glyph-name="" unicode="b" d="M72 16 l0 683 q94 25 174 26 q235 -4 240 -192 q-4 -121 -103 -157 q129 -43 129 -172 q-10 -212 -266 -214 q-84 2 -174 26 ZM173 624 l0 -202 l76 0 q142 -5 136 106 q6 110 -133 106 q-43 -1 -79 -10 ZM173 331 l0 -241 q33 -8 79 -9 q165 -5 159 126 q2 125 -162 124 l-76 0 Z" /><glyph glyph-name="" unicode="c" d="M535 107 l24 -87 q-76 -30 -162 -30 q-348 15 -362 368 q17 351 355 367 q93 1 161 -29 l-24 -88 q-60 22 -135 22 q-244 -12 -256 -272 q9 -262 263 -273 q65 0 136 22 Z" /><glyph glyph-name="" unicode="d" d="M72 13 l0 688 q87 24 192 24 q371 -12 384 -367 q-10 -358 -384 -368 q-101 1 -192 23 ZM173 618 l0 -522 q46 -10 95 -11 q273 7 279 273 q-7 264 -280 272 q-49 0 -94 -12 Z" /><glyph glyph-name="" unicode="e" d="M390 424 l0 -95 l-217 0 l0 -234 l286 0 l0 -95 l-386 0 l0 714 l375 0 l0 -95 l-275 0 l0 -195 l217 0 Z" /><glyph glyph-name="" unicode="f" d="M73 0 l0 714 l370 0 l0 -95 l-270 0 l0 -195 l217 0 l0 -95 l-217 0 l0 -329 l-100 0 Z" /><glyph glyph-name="" unicode="g" d="M611 383 l0 -343 q-99 -47 -207 -50 q-355 15 -369 368 q16 352 375 367 q95 0 174 -32 l-25 -88 q-70 25 -150 25 q-261 -11 -273 -272 q9 -263 267 -273 q55 1 107 17 l0 186 l-108 0 l0 95 l209 0 Z" /><glyph glyph-name="" unicode="h" d="M72 714 l101 0 l0 -290 l322 0 l0 290 l101 0 l0 -714 l-101 0 l0 329 l-322 0 l0 -329 l-101 0 l0 714 Z" /><glyph glyph-name="" unicode="i" d="M88 714 l101 0 l0 -714 l-101 0 l0 714 Z" /><glyph glyph-name="" unicode="j" d="M219 198 l0 516 l101 0 l0 -522 q1 -204 -196 -202 q-47 1 -106 17 l16 88 q41 -10 82 -10 q109 -8 103 113 Z" /><glyph glyph-name="" unicode="k" d="M174 0 l-101 0 l0 714 l101 0 l0 -295 l244 295 l122 0 l-282 -335 l299 -379 l-128 0 l-255 338 l0 -338 Z" /><glyph glyph-name="" unicode="l" d="M73 0 l0 714 l100 0 l0 -619 l282 0 l0 -95 l-382 0 Z" /><glyph glyph-name="" unicode="m" d="M660 0 l-22 580 l-188 -580 l-89 0 l-188 580 l-21 -580 l-99 0 l45 714 l116 0 l192 -594 l191 594 l116 0 l46 -714 l-99 0 Z" /><glyph glyph-name="" unicode="n" d="M174 0 l-101 0 l0 714 l105 0 l321 -550 l0 550 l101 0 l0 -714 l-105 0 l-321 550 l0 -550 Z" /><glyph glyph-name="" unicode="o" d="M361 725 q305 -25 325 -367 q-19 -344 -325 -368 q-309 22 -326 368 q20 343 326 367 ZM361 632 q-214 -13 -225 -274 q10 -262 225 -275 q213 15 224 275 q-11 261 -224 274 Z" /><glyph glyph-name="" unicode="p" d="M72 0 l0 697 q97 27 181 28 q258 -1 259 -221 q-1 -213 -259 -214 q-47 -1 -80 8 l0 -298 l-101 0 ZM173 618 l0 -226 q36 -8 82 -7 q159 -2 156 119 q3 129 -156 126 q-37 0 -82 -12 Z" /><glyph glyph-name="" unicode="q" d="M708 -59 l-15 -96 q-45 -3 -92 -3 q-249 -4 -290 152 q-264 53 -276 364 q20 343 326 367 q305 -25 325 -367 q-12 -305 -271 -363 q30 -61 176 -59 q51 0 117 5 ZM361 633 q-214 -13 -225 -275 q10 -262 225 -275 q213 15 224 275 q-11 261 -224 275 Z" /><glyph glyph-name="" unicode="r" d="M72 0 l0 697 q99 27 182 28 q253 -1 255 -206 q0 -113 -118 -163 q67 -44 88 -140 q24 -101 57 -216 l-105 0 q-8 33 -25 100 q-16 67 -25 99 q-31 110 -124 113 l-84 0 l0 -312 l-101 0 ZM173 621 l0 -215 l84 0 q153 -1 151 113 q3 113 -151 111 q-31 -1 -84 -9 Z" /><glyph glyph-name="" unicode="s" d="M35 34 l24 86 q87 -35 150 -35 q138 1 140 108 q1 86 -137 144 q-175 74 -174 210 q7 173 223 178 q90 0 158 -34 l-25 -87 q-69 27 -135 26 q-115 -3 -120 -80 q-9 -71 120 -122 q194 -86 191 -235 q-8 -196 -237 -203 q-85 -1 -178 44 Z" /><glyph glyph-name="" unicode="t" d="M220 0 l0 619 l-205 0 l0 95 l510 0 l0 -95 l-204 0 l0 -619 l-101 0 Z" /><glyph glyph-name="" unicode="u" d="M72 714 l101 0 l0 -423 q-1 -210 158 -208 q158 1 159 208 l0 423 l101 0 l0 -415 q-1 -307 -260 -309 q-259 -1 -259 306 l0 418 Z" /><glyph glyph-name="" unicode="v" d="M345 0 l-95 0 l-236 714 l105 0 l178 -602 l179 602 l105 0 l-236 -714 Z" /><glyph glyph-name="" unicode="w" d="M283 0 l-92 0 l-181 714 l103 0 l126 -567 l152 567 l89 0 l152 -567 l127 567 l102 0 l-181 -714 l-91 0 l-153 583 l-153 -583 Z" /><glyph glyph-name="" unicode="x" d="M550 0 l-114 0 l-155 299 l-154 -299 l-114 0 l215 364 l-202 350 l112 0 l143 -284 l143 284 l112 0 l-200 -350 l214 -364 Z" /><glyph glyph-name="" unicode="y" d="M335 0 l-101 0 l0 299 l-223 415 l114 0 l159 -330 l160 330 l114 0 l-223 -413 l0 -301 Z" /><glyph glyph-name="" unicode="z" d="M17 0 l0 61 l365 558 l-340 0 l0 95 l473 0 l0 -61 l-365 -558 l370 0 l0 -95 l-503 0 Z" /><glyph glyph-name="" unicode="[" d="M274 798 l0 -85 l-112 0 l0 -754 l112 0 l0 -85 l-199 0 l0 924 l199 0 Z" /><glyph glyph-name="" unicode="\" d="M274 -10 l-280 735 l81 0 l281 -735 l-82 0 Z" /><glyph glyph-name="" unicode="]" d="M22 798 l199 0 l0 -924 l-199 0 l0 85 l112 0 l0 754 l-112 0 l0 85 Z" /><glyph glyph-name="" unicode="_" d="M444 -36 l0 -96 l-444 0 l0 96 l444 0 Z" /><glyph glyph-name="" unicode="a" d="M429 348 l0 -190 q0 -64 8 -158 l-90 0 l-9 58 q-61 -67 -151 -68 q-150 6 -157 147 q4 161 302 191 l0 19 q0 72 -90 72 q-61 -1 -139 -33 l-31 83 q92 39 178 40 q176 -3 179 -161 ZM332 180 l0 61 q-198 -24 -205 -104 q3 -58 74 -60 q113 13 131 103 Z" /><glyph glyph-name="" unicode="b" d="M165 746 l0 -297 q61 61 144 60 q215 -15 227 -259 q-10 -246 -228 -260 q-90 -2 -150 68 l-8 -58 l-90 0 q8 95 8 175 l0 571 l97 0 ZM165 301 l0 -102 q7 -111 129 -118 q139 2 141 169 q-2 165 -141 168 q-119 -8 -129 -117 Z" /><glyph glyph-name="" unicode="c" d="M395 98 l22 -82 q-65 -26 -123 -26 q-252 10 -262 260 q12 247 257 259 q66 -1 122 -27 l-22 -82 q-51 18 -106 18 q-144 -11 -154 -168 q7 -160 159 -169 q51 0 107 17 Z" /><glyph glyph-name="" unicode="d" d="M402 746 l98 0 l0 -571 q0 -80 8 -175 l-89 0 l-10 59 q-59 -70 -153 -69 q-217 10 -224 260 q10 247 224 259 q87 0 146 -60 l0 297 ZM402 199 l0 102 q-9 110 -131 117 q-139 -6 -142 -168 q3 -166 142 -169 q123 7 131 118 Z" /><glyph glyph-name="" unicode="e" d="M482 217 l-350 0 q18 -133 157 -136 q71 0 138 27 q4 -14 12 -39 q9 -29 13 -45 q-72 -34 -163 -34 q-248 6 -254 260 q14 242 224 259 q210 -15 223 -239 l0 -53 ZM132 304 l253 0 q-18 115 -126 118 q-105 -4 -127 -118 Z" /><glyph glyph-name="" unicode="f" d="M182 0 l-97 0 l0 407 l-68 0 l0 91 l68 0 l0 62 q4 161 167 165 q46 0 86 -13 q-2 -14 -6 -42 q-4 -29 -7 -43 q-35 6 -67 7 q-79 3 -76 -81 l0 -55 l110 0 l0 -91 l-110 0 l0 -407 Z" /><glyph glyph-name="" unicode="g" d="M402 -7 l0 68 q-53 -61 -149 -61 q-212 12 -222 254 q13 240 222 255 q97 2 156 -66 l10 55 l89 0 q-7 -121 -8 -181 l0 -333 q0 -218 -245 -218 q-91 0 -186 40 q4 13 11 36 q11 33 17 51 q87 -34 160 -36 q148 -3 145 136 ZM402 207 l0 94 q-8 111 -131 117 q-137 -7 -143 -164 q3 -159 143 -163 q124 7 131 116 Z" /><glyph glyph-name="" unicode="h" d="M66 0 l0 746 l97 0 l0 -309 q57 71 155 72 q169 -10 177 -220 l0 -289 l-97 0 l0 283 q2 138 -107 135 q-118 -9 -128 -135 l0 -283 l-97 0 Z" /><glyph glyph-name="" unicode="i" d="M165 0 l-97 0 l0 498 l97 0 l0 -498 ZM168 616 l-103 0 l0 98 l103 0 l0 -98 Z" /><glyph glyph-name="" unicode="j" d="M-54 -237 l-10 90 q138 -3 133 108 l0 537 l97 0 l0 -545 q2 -190 -220 -190 ZM169 616 l-103 0 l0 98 l103 0 l0 -98 Z" /><glyph glyph-name="" unicode="k" d="M164 0 l-97 0 l0 746 l97 0 l0 -437 l174 189 l121 0 l-204 -217 l224 -281 l-122 0 l-193 252 l0 -252 Z" /><glyph glyph-name="" unicode="l" d="M70 0 l0 746 l97 0 l0 -746 l-97 0 Z" /><glyph glyph-name="" unicode="m" d="M66 0 l0 330 q0 58 -7 168 l88 0 l10 -62 q56 73 156 73 q91 -2 138 -90 q65 91 165 90 q166 -11 173 -226 l0 -283 l-97 0 l0 283 q2 138 -101 135 q-108 -10 -116 -135 l0 -283 l-97 0 l0 283 q2 138 -98 135 q-110 -8 -117 -135 l0 -283 l-97 0 Z" /><glyph glyph-name="" unicode="n" d="M67 0 l0 328 q-1 72 -8 170 l89 0 l9 -63 q60 75 167 74 q162 -12 171 -226 l0 -283 l-97 0 l0 283 q2 138 -109 135 q-117 -8 -125 -135 l0 -283 l-97 0 Z" /><glyph glyph-name="" unicode="o" d="M271 509 q226 -15 239 -259 q-13 -246 -239 -260 q-227 13 -239 260 q12 245 239 259 ZM271 418 q-136 -5 -142 -168 q5 -164 142 -169 q138 5 142 169 q-7 162 -142 168 Z" /><glyph glyph-name="" unicode="p" d="M164 -225 l-97 0 l0 546 q-1 83 -8 177 l90 0 l9 -58 q61 70 153 69 q215 -12 224 -260 q-8 -248 -224 -259 q-92 -1 -147 63 l0 -278 ZM164 300 l0 -102 q10 -109 133 -117 q140 4 141 168 q-3 164 -141 169 q-123 -8 -133 -118 Z" /><glyph glyph-name="" unicode="q" d="M402 -225 l0 279 q-49 -66 -146 -64 q-216 11 -224 259 q9 248 224 260 q92 1 152 -69 l10 58 l90 0 q-7 -94 -8 -177 l0 -546 l-98 0 ZM402 198 l0 102 q-10 111 -132 118 q-138 -5 -141 -169 q1 -164 141 -168 q122 8 132 117 Z" /><glyph glyph-name="" unicode="r" d="M68 0 l0 324 q0 60 -7 174 l87 0 l8 -64 q36 72 104 73 q36 0 63 -14 q-3 -15 -9 -47 q-6 -31 -10 -47 q-1 0 -4 1 q-30 8 -47 9 q-85 -2 -88 -121 l0 -288 l-97 0 Z" /><glyph glyph-name="" unicode="s" d="M33 22 l25 83 q73 -25 121 -25 q94 1 93 60 q6 44 -92 79 q-147 54 -144 155 q9 129 179 135 q67 -1 132 -28 l-20 -83 q-72 22 -113 22 q-77 -2 -81 -44 q-5 -37 95 -74 q144 -62 141 -162 q-4 -147 -187 -150 q-70 0 -149 32 Z" /><glyph glyph-name="" unicode="t" d="M92 624 l97 27 l0 -153 l121 0 l0 -91 l-121 0 l0 -257 q-2 -72 56 -69 q34 0 60 6 l5 -86 q-39 -11 -85 -11 q-132 1 -133 150 l0 267 l-73 0 l0 91 l73 0 l0 126 Z" /><glyph glyph-name="" unicode="u" d="M491 498 l0 -330 q1 -78 7 -168 l-90 0 l-9 61 q-57 -71 -159 -71 q-167 8 -173 213 l0 295 l97 0 l0 -286 q-3 -136 100 -131 q122 8 130 131 l0 286 l97 0 Z" /><glyph glyph-name="" unicode="v" d="M17 498 l103 0 l129 -393 l129 393 l103 0 l-191 -498 l-83 0 l-190 498 Z" /><glyph glyph-name="" unicode="w" d="M16 498 l100 0 l98 -392 l122 392 l83 0 l121 -392 l99 392 l100 0 l-154 -498 l-87 0 l-121 395 l-120 -395 l-87 0 l-154 498 Z" /><glyph glyph-name="" unicode="x" d="M22 498 l109 0 l107 -183 l108 183 l109 0 l-162 -242 l170 -256 l-113 0 l-112 191 l-111 -191 l-113 0 l171 256 l-163 242 Z" /><glyph glyph-name="" unicode="y" d="M16 498 l102 0 l133 -370 l122 370 l103 0 l-213 -574 q-60 -151 -219 -151 q-2 15 -7 45 q-5 27 -7 40 q120 -6 154 92 l29 75 q-26 62 -77 185 q-80 190 -120 288 Z" /><glyph glyph-name="" unicode="z" d="M17 0 l0 62 l258 345 l-237 0 l0 91 l371 0 l0 -62 l-258 -345 l264 0 l0 -91 l-398 0 Z" /><glyph glyph-name="" unicode="{" d="M26 296 l0 85 l33 0 q47 1 48 83 q0 41 -7 86 q-10 55 -11 92 q-1 155 152 157 l34 0 l0 -85 l-34 0 q-68 3 -65 -72 q1 -49 9 -89 q11 -50 11 -89 q-1 -85 -69 -126 q68 -48 69 -127 q0 -39 -11 -90 q-9 -40 -9 -87 q-2 -77 65 -74 l34 0 l0 -85 l-34 0 q-153 -1 -152 159 q0 28 9 85 q1 3 1 5 l0 -1 q8 43 8 88 q-2 82 -48 85 l-33 0 Z" /><glyph glyph-name="" unicode="}" d="M269 296 l-32 0 q-47 -4 -49 -85 q0 -47 9 -88 l0 1 q0 -2 1 -5 q9 -56 9 -85 q1 -160 -152 -159 l-34 0 l0 85 l34 0 q67 -3 65 74 q0 49 -10 87 q-9 42 -10 90 q1 79 69 127 q-68 41 -69 126 q0 44 10 89 q9 38 10 89 q3 75 -65 72 l-34 0 l0 85 l34 0 q153 -2 152 -157 q-1 -37 -11 -92 q-8 -43 -8 -86 q1 -81 49 -83 l32 0 l0 -85 Z" /><glyph glyph-name="" unicode="~" d="M127 215 l-86 0 q5 166 129 170 q58 1 128 -45 q61 -40 100 -39 q43 -1 43 84 l87 0 q-3 -167 -130 -170 q-57 0 -127 44 q-63 42 -101 41 q-42 1 -43 -85 Z" /><glyph glyph-name="" unicode="¥" d="M774 714 l-158 -292 l138 0 l0 -87 l-186 0 l-17 -33 l0 -45 l203 0 l0 -87 l-203 0 l0 -170 l-99 0 l0 170 l-205 0 l0 87 l205 0 l0 43 l-19 35 l-186 0 l0 87 l140 0 l-157 292 l110 0 l161 -325 l162 325 l111 0 Z" /><glyph glyph-name="" unicode="§" d="M491 474 l1 0 q-5 2 -14 6 q-22 10 -35 17 q-60 -23 -61 -76 q-8 -44 102 -82 q53 -20 85 -39 q43 26 45 73 q6 46 -93 87 q-5 2 -15 7 q-10 5 -15 7 ZM669 752 l-24 -81 q-55 27 -116 31 q-98 3 -109 -51 q-11 -53 116 -104 q174 -67 175 -165 q4 -84 -65 -125 q52 -48 49 -114 q-12 -156 -210 -154 q-97 3 -173 45 l31 75 q66 -30 132 -34 q104 0 113 61 q8 67 -121 117 q-193 74 -186 171 q0 82 83 122 q-47 44 -46 103 q21 137 205 138 q88 -4 146 -35 Z" /><glyph glyph-name="" unicode="¨" d="M632 587 l-87 0 l0 96 l87 0 l0 -96 ZM457 587 l-87 0 l0 96 l87 0 l0 -96 Z" /><glyph glyph-name="" unicode="°" d="M216 555 q66 3 69 68 q-3 64 -69 68 q-63 -4 -68 -68 q3 -64 68 -68 ZM216 507 q-106 9 -114 116 q9 108 114 116 q108 -8 116 -116 q-8 -107 -116 -116 Z" /><glyph glyph-name="" unicode="±" d="M723 164 l0 -96 l-446 0 l0 96 l446 0 ZM453 633 l93 0 l0 -172 l176 0 l0 -96 l-176 0 l0 -172 l-93 0 l0 172 l-177 0 l0 96 l177 0 l0 172 Z" /><glyph glyph-name="" unicode="·" d="M556 297 l-110 0 l0 111 l110 0 l0 -111 Z" /><glyph glyph-name="" unicode="×" d="M696 479 l-129 -129 l129 -127 l-67 -67 l-129 128 l-127 -128 l-67 67 l128 127 l-128 129 l67 66 l127 -128 l129 128 l67 -66 Z" /><glyph glyph-name="" unicode="à" d="M730 347 l0 -185 q0 -54 9 -162 l-87 0 l-11 59 q-36 -40 -69 -55 q-32 -15 -87 -14 q-213 11 -222 260 q12 245 222 259 q97 -1 152 -64 l17 53 l84 0 q-9 -115 -8 -151 ZM633 199 l0 102 q-9 109 -132 117 q-139 -6 -142 -168 q3 -166 142 -169 q124 8 132 118 ZM399 701 l104 0 l95 -131 l-68 0 l-131 131 Z" /><glyph glyph-name="" unicode="á" d="M495 701 l104 0 l-130 -131 l-69 0 l95 131 ZM730 347 l0 -185 q0 -54 9 -162 l-87 0 l-11 59 q-36 -40 -69 -55 q-32 -15 -87 -14 q-213 11 -222 260 q12 245 222 259 q97 -1 152 -64 l17 53 l84 0 q-9 -115 -8 -151 ZM633 199 l0 102 q-9 109 -132 117 q-139 -6 -142 -168 q3 -166 142 -169 q124 8 132 118 Z" /><glyph glyph-name="" unicode="è" d="M399 701 l104 0 l95 -131 l-68 0 l-131 131 ZM724 217 l-350 0 q18 -133 157 -136 q71 0 138 27 q4 -14 12 -39 q9 -29 13 -45 q-72 -34 -163 -34 q-248 6 -254 260 q14 242 224 259 q210 -15 223 -239 l0 -53 ZM374 304 l253 0 q-18 115 -126 118 q-105 -4 -127 -118 Z" /><glyph glyph-name="" unicode="é" d="M495 701 l104 0 l-130 -131 l-69 0 l95 131 ZM724 217 l-350 0 q18 -133 157 -136 q71 0 138 27 q4 -14 12 -39 q9 -29 13 -45 q-72 -34 -163 -34 q-248 6 -254 260 q14 242 224 259 q210 -15 223 -239 l0 -53 ZM374 304 l253 0 q-18 115 -126 118 q-105 -4 -127 -118 Z" /><glyph glyph-name="" unicode="ê" d="M648 572 l-65 0 l-82 84 l-78 -84 l-70 0 l91 129 l114 0 l90 -129 ZM724 217 l-350 0 q18 -133 157 -136 q71 0 138 27 q4 -14 12 -39 q9 -29 13 -45 q-72 -34 -163 -34 q-248 6 -254 260 q14 242 224 259 q210 -15 223 -239 l0 -53 ZM374 304 l253 0 q-18 115 -126 118 q-105 -4 -127 -118 Z" /><glyph glyph-name="" unicode="ì" d="M399 701 l104 0 l95 -131 l-68 0 l-131 131 ZM549 0 l-97 0 l0 498 l97 0 l0 -498 Z" /><glyph glyph-name="" unicode="í" d="M549 0 l-97 0 l0 498 l97 0 l0 -498 ZM495 701 l104 0 l-130 -131 l-69 0 l95 131 Z" /><glyph glyph-name="" unicode="ò" d="M399 701 l104 0 l95 -131 l-68 0 l-131 131 ZM500 509 q233 -17 249 -259 q-15 -243 -249 -260 q-235 16 -249 260 q14 243 249 259 ZM500 418 q-143 -8 -152 -168 q7 -161 152 -169 q145 8 152 169 q-9 159 -152 168 Z" /><glyph glyph-name="" unicode="ó" d="M500 509 q233 -17 249 -259 q-15 -243 -249 -260 q-235 16 -249 260 q14 243 249 259 ZM500 418 q-143 -8 -152 -168 q7 -161 152 -169 q145 8 152 169 q-9 159 -152 168 ZM495 701 l104 0 l-130 -131 l-69 0 l95 131 Z" /><glyph glyph-name="" unicode="÷" d="M550 590 l0 -100 l-98 0 l0 100 l98 0 ZM550 213 l0 -101 l-98 0 l0 101 l98 0 ZM732 399 l0 -95 l-462 0 l0 95 l462 0 Z" /><glyph glyph-name="" unicode="ù" d="M399 701 l104 0 l95 -131 l-68 0 l-131 131 ZM709 498 l0 -330 q1 -78 7 -168 l-90 0 l-9 61 q-58 -71 -159 -71 q-168 8 -174 213 l0 295 l98 0 l0 -286 q-4 -136 99 -131 q124 8 131 131 l0 286 l97 0 Z" /><glyph glyph-name="" unicode="ú" d="M495 701 l104 0 l-130 -131 l-69 0 l95 131 ZM709 498 l0 -330 q1 -78 7 -168 l-90 0 l-9 61 q-58 -71 -159 -71 q-168 8 -174 213 l0 295 l98 0 l0 -286 q-4 -136 99 -131 q124 8 131 131 l0 286 l97 0 Z" /><glyph glyph-name="" unicode="ü" d="M709 498 l0 -330 q1 -78 7 -168 l-90 0 l-9 61 q-58 -71 -159 -71 q-168 8 -174 213 l0 295 l98 0 l0 -286 q-4 -136 99 -131 q124 8 131 131 l0 286 l97 0 ZM630 559 l-87 0 l0 95 l87 0 l0 -95 ZM455 559 l-87 0 l0 95 l87 0 l0 -95 Z" /><glyph glyph-name="" unicode="ý&#x101;" d="M357 670 l286 0 l0 -71 l-286 0 l0 71 ZM730 347 l0 -185 q0 -54 9 -162 l-87 0 l-11 59 q-36 -40 -69 -55 q-32 -15 -87 -14 q-213 11 -222 260 q12 245 222 259 q97 -1 152 -64 l17 53 l84 0 q-9 -115 -8 -151 ZM633 199 l0 102 q-9 109 -132 117 q-139 -6 -142 -168 q3 -166 142 -169 q124 8 132 118 Z" /><glyph glyph-name="" unicode="þ&#x113;" d="M357 670 l286 0 l0 -71 l-286 0 l0 71 ZM724 217 l-350 0 q18 -133 157 -136 q71 0 138 27 q4 -14 12 -39 q9 -29 13 -45 q-72 -34 -163 -34 q-248 6 -254 260 q14 242 224 259 q210 -15 223 -239 l0 -53 ZM374 304 l253 0 q-18 115 -126 118 q-105 -4 -127 -118 Z" /><glyph glyph-name="" unicode="ÿ&#x11b;" d="M352 701 l66 0 l82 -84 l78 84 l70 0 l-91 -129 l-114 0 l-91 129 ZM724 217 l-350 0 q18 -133 157 -136 q71 0 138 27 q4 -14 12 -39 q9 -29 13 -45 q-72 -34 -163 -34 q-248 6 -254 260 q14 242 224 259 q210 -15 223 -239 l0 -53 ZM374 304 l253 0 q-18 115 -126 118 q-105 -4 -127 -118 Z" /><glyph glyph-name="" unicode="&#x12b;" d="M357 670 l286 0 l0 -71 l-286 0 l0 71 ZM549 0 l-97 0 l0 498 l97 0 l0 -498 Z" /><glyph glyph-name="" unicode="&#x144;" d="M495 701 l104 0 l-130 -131 l-69 0 l95 131 ZM290 0 l0 328 q-1 72 -8 170 l89 0 l9 -63 q60 75 167 74 q162 -12 171 -226 l0 -283 l-97 0 l0 283 q2 138 -109 135 q-117 -8 -125 -135 l0 -283 l-97 0 Z" /><glyph glyph-name="" unicode="&#x148;" d="M352 701 l66 0 l82 -84 l78 84 l70 0 l-91 -129 l-114 0 l-91 129 ZM290 0 l0 328 q-1 72 -8 170 l89 0 l9 -63 q60 75 167 74 q162 -12 171 -226 l0 -283 l-97 0 l0 283 q2 138 -109 135 q-117 -8 -125 -135 l0 -283 l-97 0 Z" /><glyph glyph-name="" unicode="&#x14d;" d="M357 670 l286 0 l0 -71 l-286 0 l0 71 ZM500 509 q233 -17 249 -259 q-15 -243 -249 -260 q-235 16 -249 260 q14 243 249 259 ZM500 418 q-143 -8 -152 -168 q7 -161 152 -169 q145 8 152 169 q-9 159 -152 168 Z" /><glyph glyph-name="" unicode="&#x16b;" d="M357 670 l286 0 l0 -71 l-286 0 l0 71 ZM709 498 l0 -330 q1 -78 7 -168 l-90 0 l-9 61 q-58 -71 -159 -71 q-168 8 -174 213 l0 295 l98 0 l0 -286 q-4 -136 99 -131 q124 8 131 131 l0 286 l97 0 Z" /><glyph glyph-name="" unicode="&#x1ce;" d="M352 701 l66 0 l82 -84 l78 84 l70 0 l-91 -129 l-114 0 l-91 129 ZM730 347 l0 -185 q0 -54 9 -162 l-87 0 l-11 59 q-36 -40 -69 -55 q-32 -15 -87 -14 q-213 11 -222 260 q12 245 222 259 q97 -1 152 -64 l17 53 l84 0 q-9 -115 -8 -151 ZM633 199 l0 102 q-9 109 -132 117 q-139 -6 -142 -168 q3 -166 142 -169 q124 8 132 118 Z" /><glyph glyph-name="" unicode="&#x1d0;" d="M352 701 l66 0 l82 -84 l78 84 l70 0 l-91 -129 l-114 0 l-91 129 ZM549 0 l-97 0 l0 498 l97 0 l0 -498 Z" /><glyph glyph-name="" unicode="&#x1d2;" d="M352 701 l66 0 l82 -84 l78 84 l70 0 l-91 -129 l-114 0 l-91 129 ZM500 509 q233 -17 249 -259 q-15 -243 -249 -260 q-235 16 -249 260 q14 243 249 259 ZM500 418 q-143 -8 -152 -168 q7 -161 152 -169 q145 8 152 169 q-9 159 -152 168 Z" /><glyph glyph-name="" unicode="&#x1d4;" d="M352 701 l66 0 l82 -84 l78 84 l70 0 l-91 -129 l-114 0 l-91 129 ZM709 498 l0 -330 q1 -78 7 -168 l-90 0 l-9 61 q-58 -71 -159 -71 q-168 8 -174 213 l0 295 l98 0 l0 -286 q-4 -136 99 -131 q124 8 131 131 l0 286 l97 0 Z" /><glyph glyph-name="" unicode="&#x1d6;" d="M357 793 l286 0 l0 -72 l-286 0 l0 72 ZM709 498 l0 -330 q1 -78 7 -168 l-90 0 l-9 61 q-58 -71 -159 -71 q-168 8 -174 213 l0 295 l98 0 l0 -286 q-4 -136 99 -131 q124 8 131 131 l0 286 l97 0 ZM630 559 l-87 0 l0 95 l87 0 l0 -95 ZM455 559 l-87 0 l0 95 l87 0 l0 -95 Z" /><glyph glyph-name="" unicode="&#x1d8;" d="M495 838 l104 0 l-130 -131 l-69 0 l95 131 ZM709 498 l0 -330 q1 -78 7 -168 l-90 0 l-9 61 q-58 -71 -159 -71 q-168 8 -174 213 l0 295 l98 0 l0 -286 q-4 -136 99 -131 q124 8 131 131 l0 286 l97 0 ZM630 559 l-87 0 l0 95 l87 0 l0 -95 ZM455 559 l-87 0 l0 95 l87 0 l0 -95 Z" /><glyph glyph-name="" unicode="&#x1da;" d="M352 830 l66 0 l82 -84 l78 84 l70 0 l-91 -128 l-114 0 l-91 128 ZM709 498 l0 -330 q1 -78 7 -168 l-90 0 l-9 61 q-58 -71 -159 -71 q-168 8 -174 213 l0 295 l98 0 l0 -286 q-4 -136 99 -131 q124 8 131 131 l0 286 l97 0 ZM630 559 l-87 0 l0 95 l87 0 l0 -95 ZM455 559 l-87 0 l0 95 l87 0 l0 -95 Z" /><glyph glyph-name="" unicode="&#x1dc;" d="M399 838 l104 0 l95 -131 l-68 0 l-131 131 ZM709 498 l0 -330 q1 -78 7 -168 l-90 0 l-9 61 q-58 -71 -159 -71 q-168 8 -174 213 l0 295 l98 0 l0 -286 q-4 -136 99 -131 q124 8 131 131 l0 286 l97 0 ZM630 559 l-87 0 l0 95 l87 0 l0 -95 ZM455 559 l-87 0 l0 95 l87 0 l0 -95 Z" /><glyph glyph-name="" unicode="&#x1f9;" d="M399 698 l104 0 l95 -131 l-68 0 l-131 131 ZM290 0 l0 328 q-1 72 -8 170 l89 0 l9 -63 q60 75 167 74 q162 -12 171 -226 l0 -283 l-97 0 l0 283 q2 138 -109 135 q-117 -8 -125 -135 l0 -283 l-97 0 Z" /><glyph glyph-name="" unicode="&#x251;" d="M730 347 l0 -185 q0 -54 9 -162 l-87 0 l-11 59 q-36 -40 -69 -55 q-32 -15 -87 -14 q-213 11 -222 260 q12 245 222 259 q97 -1 152 -64 l17 53 l84 0 q-9 -115 -8 -151 ZM633 199 l0 102 q-9 109 -132 117 q-139 -6 -142 -168 q3 -166 142 -169 q124 8 132 118 Z" /><glyph glyph-name="" unicode="&#x261;" d="M633 -7 l0 68 q-53 -61 -149 -61 q-212 12 -222 254 q13 240 222 255 q97 2 156 -66 l10 55 l89 0 q-7 -121 -8 -181 l0 -333 q0 -218 -245 -218 q-91 0 -186 40 q4 13 11 36 q11 33 17 51 q87 -34 160 -36 q148 -3 145 136 ZM633 207 l0 94 q-8 111 -131 117 q-137 -7 -143 -164 q3 -159 143 -163 q124 7 131 116 Z" /><glyph glyph-name="" unicode="&#x2c7;" d="M352 704 l66 0 l82 -84 l78 84 l70 0 l-91 -129 l-114 0 l-91 129 Z" /><glyph glyph-name="" unicode="&#x2c9;" d="M357 673 l286 0 l0 -71 l-286 0 l0 71 Z" /><glyph glyph-name="" unicode="&#x3a8;" d="M715 714 l99 0 l0 -186 q-2 -286 -265 -319 l0 -209 l-99 0 l0 209 q-262 35 -264 319 l0 186 l99 0 l0 -189 q1 -189 165 -220 l0 409 l99 0 l0 -409 q165 33 166 220 l0 189 Z" /><glyph glyph-name="" unicode="&#x3a9;" d="M672 95 l146 0 l0 -95 l-259 0 l0 86 q144 125 147 297 q-3 242 -207 248 q-201 -7 -205 -248 q3 -174 145 -298 l0 -85 l-259 0 l0 95 l142 0 q-127 122 -129 288 q10 330 306 343 q297 -12 306 -343 q-2 -165 -133 -288 Z" /><glyph glyph-name="" unicode="&#x2014;" d="M-3 395 l1006 0 l0 -90 l-1006 0 l0 90 Z" /><glyph glyph-name="" unicode="&#x2016;" d="M657 850 l0 -1000 l-94 0 l0 1000 l94 0 ZM438 850 l0 -1000 l-93 0 l0 1000 l93 0 Z" /><glyph glyph-name="" unicode="&#x2018;" d="M695 524 l0 41 q1 102 57 185 l53 0 q-48 -80 -48 -140 q2 -21 24 -23 l25 0 l0 -112 l-55 0 q-54 1 -56 49 Z" /><glyph glyph-name="" unicode="&#x2019;" d="M306 701 l0 -41 q-1 -102 -57 -185 l-53 0 q48 81 48 140 q-2 21 -24 23 l-25 0 l0 112 l55 0 q54 -1 56 -49 Z" /><glyph glyph-name="" unicode="&#x201c;" d="M569 524 l0 41 q1 102 57 185 l53 0 q-48 -80 -48 -140 q2 -21 24 -23 l25 0 l0 -112 l-55 0 q-54 1 -56 49 ZM759 524 l0 41 q1 102 57 185 l53 0 q-48 -80 -48 -140 q2 -21 24 -23 l25 0 l0 -112 l-55 0 q-54 1 -56 49 Z" /><glyph glyph-name="" unicode="&#x201d;" d="M241 701 l0 -41 q-1 -102 -57 -185 l-53 0 q48 81 48 140 q-2 21 -24 23 l-25 0 l0 112 l55 0 q54 -1 56 -49 ZM431 701 l0 -41 q-1 -102 -57 -185 l-53 0 q48 81 48 140 q-2 21 -24 23 l-25 0 l0 112 l55 0 q54 -1 56 -49 Z" /><glyph glyph-name="" unicode="&#x2026;" d="M556 295 l-110 0 l0 111 l110 0 l0 -111 ZM222 295 l-110 0 l0 111 l110 0 l0 -111 ZM887 295 l-109 0 l0 111 l109 0 l0 -111 Z" /><glyph glyph-name="" unicode="&#x2030;" d="M834 403 q153 -7 158 -207 q-5 -200 -158 -206 q-151 6 -155 206 q5 200 155 207 ZM163 725 q153 -7 158 -206 q-5 -200 -158 -207 q-151 6 -155 207 q5 199 155 206 ZM504 403 q153 -7 158 -207 q-5 -199 -158 -206 q-151 6 -155 206 q5 200 155 207 ZM171 -10 l-78 0 l406 735 l78 0 l-406 -735 ZM163 649 q-74 3 -72 -130 q-3 -135 72 -131 q77 -3 75 131 q1 132 -75 130 ZM504 327 q-73 2 -72 -131 q-2 -133 72 -130 q77 -2 75 130 q1 132 -75 131 ZM834 327 q-73 2 -72 -131 q-2 -133 72 -130 q77 -2 75 130 q1 132 -75 131 Z" /><glyph glyph-name="" unicode="&#x2032;" d="M222 725 l103 0 l-117 -173 l-61 0 l75 173 Z" /><glyph glyph-name="" unicode="&#x2033;" d="M149 725 l103 0 l-117 -173 l-61 0 l75 173 ZM319 725 l103 0 l-117 -173 l-60 0 l74 173 Z" /><glyph glyph-name="" unicode="&#x2103;" d="M235 555 q66 4 69 68 q-4 64 -69 68 q-64 -4 -69 -68 q3 -64 69 -68 ZM235 507 q-107 8 -115 116 q9 108 115 116 q107 -8 115 -116 q-7 -108 -115 -116 ZM849 107 l24 -87 q-76 -30 -162 -30 q-348 15 -362 368 q17 351 355 367 q93 1 161 -29 l-24 -88 q-60 22 -135 22 q-244 -12 -256 -272 q9 -262 263 -273 q65 0 136 22 Z" /><glyph glyph-name="" unicode="&#x2160;" d="M450 714 l101 0 l0 -714 l-101 0 l0 714 Z" /><glyph glyph-name="" unicode="&#x2161;" d="M342 714 l101 0 l0 -714 l-101 0 l0 714 ZM558 714 l101 0 l0 -714 l-101 0 l0 714 Z" /><glyph glyph-name="" unicode="&#x2162;" d="M450 714 l101 0 l0 -714 l-101 0 l0 714 ZM235 714 l101 0 l0 -714 l-101 0 l0 714 ZM664 714 l101 0 l0 -714 l-101 0 l0 714 Z" /><glyph glyph-name="" unicode="&#x2163;" d="M180 714 l101 0 l0 -714 l-101 0 l0 714 ZM675 0 l-95 0 l-237 714 l105 0 l179 -602 l180 602 l105 0 l-237 -714 Z" /><glyph glyph-name="" unicode="&#x2164;" d="M548 0 l-95 0 l-237 714 l105 0 l179 -602 l179 602 l106 0 l-237 -714 Z" /><glyph glyph-name="" unicode="&#x2165;" d="M724 714 l101 0 l0 -714 l-101 0 l0 714 ZM440 0 l-96 0 l-237 714 l106 0 l179 -602 l179 602 l106 0 l-237 -714 Z" /><glyph glyph-name="" unicode="&#x2166;" d="M622 714 l101 0 l0 -714 l-101 0 l0 714 ZM787 714 l101 0 l0 -714 l-101 0 l0 714 ZM384 0 l-95 0 l-237 714 l105 0 l179 -602 l180 602 l105 0 l-237 -714 Z" /><glyph glyph-name="" unicode="&#x2167;" d="M344 0 l-95 0 l-237 714 l106 0 l179 -602 l179 602 l196 0 l0 -714 l-101 0 l0 683 l-227 -683 ZM848 714 l101 0 l0 -714 l-101 0 l0 714 ZM711 714 l101 0 l0 -714 l-101 0 l0 714 Z" /><glyph glyph-name="" unicode="&#x2168;" d="M176 714 l101 0 l0 -714 l-101 0 l0 714 ZM884 0 l-115 0 l-155 300 l-155 -300 l-114 0 l216 363 l-203 351 l113 0 l143 -286 l144 286 l113 0 l-202 -351 l215 -363 Z" /><glyph glyph-name="" unicode="&#x2169;" d="M770 0 l-115 0 l-155 300 l-155 -300 l-114 0 l215 366 l-202 348 l112 0 l144 -283 l144 283 l112 0 l-201 -348 l215 -366 Z" /><glyph glyph-name="" unicode="&#x216a;" d="M735 714 l102 0 l0 -714 l-102 0 l0 714 ZM659 0 l-114 0 l-155 300 l-155 -300 l-114 0 l215 366 l-202 348 l112 0 l144 -283 l144 283 l112 0 l-201 -348 l214 -366 Z" /><glyph glyph-name="" unicode="&#x216b;" d="M611 714 l101 0 l0 -714 l-101 0 l0 714 ZM776 714 l101 0 l0 -714 l-101 0 l0 714 ZM590 0 l-115 0 l-155 300 l-155 -300 l-114 0 l215 366 l-202 348 l112 0 l144 -283 l144 283 l112 0 l-201 -348 l215 -366 Z" /><glyph glyph-name="" unicode="&#x2170;" d="M549 0 l-97 0 l0 498 l97 0 l0 -498 ZM552 616 l-103 0 l0 98 l103 0 l0 -98 Z" /><glyph glyph-name="" unicode="&#x2171;" d="M463 0 l-98 0 l0 498 l98 0 l0 -498 ZM466 616 l-104 0 l0 98 l104 0 l0 -98 ZM636 0 l-97 0 l0 498 l97 0 l0 -498 ZM639 616 l-103 0 l0 98 l103 0 l0 -98 Z" /><glyph glyph-name="" unicode="&#x2172;" d="M715 619 l-93 0 l0 95 l93 0 l0 -95 ZM549 0 l-97 0 l0 498 l97 0 l0 -498 ZM552 616 l-103 0 l0 98 l103 0 l0 -98 ZM717 0 l-97 0 l0 498 l97 0 l0 -498 ZM380 0 l-98 0 l0 498 l98 0 l0 -498 ZM383 616 l-104 0 l0 98 l104 0 l0 -98 Z" /><glyph glyph-name="" unicode="&#x2173;" d="M321 0 l-97 0 l0 498 l97 0 l0 -498 ZM324 616 l-103 0 l0 98 l103 0 l0 -98 ZM358 498 l104 0 l128 -393 l130 393 l103 0 l-191 -498 l-83 0 l-191 498 Z" /><glyph glyph-name="" unicode="&#x2174;" d="M269 498 l104 0 l128 -393 l130 393 l103 0 l-191 -498 l-83 0 l-191 498 Z" /><glyph glyph-name="" unicode="&#x2175;" d="M782 0 l-97 0 l0 498 l97 0 l0 -498 ZM785 616 l-103 0 l0 98 l103 0 l0 -98 ZM177 498 l104 0 l128 -393 l130 393 l103 0 l-191 -498 l-83 0 l-191 498 Z" /><glyph glyph-name="" unicode="&#x2176;" d="M701 0 l-97 0 l0 498 l97 0 l0 -498 ZM704 616 l-103 0 l0 98 l103 0 l0 -98 ZM856 0 l-97 0 l0 498 l97 0 l0 -498 ZM859 616 l-104 0 l0 98 l104 0 l0 -98 ZM101 498 l104 0 l128 -393 l130 393 l103 0 l-191 -498 l-83 0 l-191 498 Z" /><glyph glyph-name="" unicode="&#x2177;" d="M60 498 l103 0 l129 -393 l129 393 l104 0 l-192 -498 l-83 0 l-190 498 ZM769 0 l-98 0 l0 498 l98 0 l0 -498 ZM913 0 l-97 0 l0 498 l97 0 l0 -498 ZM624 0 l-97 0 l0 498 l97 0 l0 -498 ZM772 616 l-104 0 l0 98 l104 0 l0 -98 ZM916 616 l-103 0 l0 98 l103 0 l0 -98 ZM627 616 l-103 0 l0 98 l103 0 l0 -98 Z" /><glyph glyph-name="" unicode="&#x2178;" d="M387 498 l109 0 l106 -183 l109 183 l109 0 l-162 -242 l170 -256 l-113 0 l-113 191 l-110 -191 l-113 0 l171 256 l-163 242 ZM315 0 l-98 0 l0 498 l98 0 l0 -498 ZM318 616 l-104 0 l0 98 l104 0 l0 -98 Z" /><glyph glyph-name="" unicode="&#x2179;" d="M283 498 l110 0 l106 -183 l109 183 l109 0 l-162 -242 l170 -256 l-113 0 l-113 191 l-110 -191 l-114 0 l171 256 l-163 242 Z" /><glyph glyph-name="" unicode="&#x2192;" d="M0 368 l820 0 q-72 72 -76 178 q102 -135 256 -192 q-153 -58 -256 -196 q-5 81 76 178 l-820 0 l0 32 Z" /><glyph glyph-name="" unicode="&#x2208;" d="M807 92 l0 -55 l-359 0 q-252 5 -256 304 q4 298 256 303 l359 0 l0 -56 l-365 0 q-182 -12 -185 -218 l532 0 l0 -54 l-532 0 q0 -222 181 -224 l369 0 Z" /><glyph glyph-name="" unicode="&#x220f;" d="M792 628 l0 -626 q-4 -87 97 -81 l0 -23 l-306 0 l0 23 q100 -6 96 81 l0 693 l-358 0 l0 -693 q-4 -87 97 -81 l0 -23 l-307 0 l0 23 q101 -6 97 81 l0 626 q-1 98 -95 99 l0 23 l773 0 l0 -23 q-93 -1 -94 -99 Z" /><glyph glyph-name="" unicode="&#x2211;" d="M762 743 l6 -159 l-20 0 q-1 5 -4 13 q-15 107 -149 101 l-263 0 l273 -358 l-294 -339 l371 0 q57 -1 82 22 q26 19 53 91 l23 0 q-32 -121 -43 -224 q-8 1 -24 4 q-35 7 -53 7 l-503 0 q-10 0 -29 -2 q-19 -1 -29 -1 l349 398 l-347 454 q13 -1 38 -3 q45 -4 66 -4 l497 0 Z" /><glyph glyph-name="" unicode="&#x221a;" d="M485 -9 l498 859 l17 0 l0 -40 l-532 -924 l-21 0 l-321 612 l-113 -63 l-13 32 l185 103 l300 -579 Z" /><glyph glyph-name="" unicode="&#x221d;" d="M185 322 q9 178 162 185 q108 -3 160 -139 q65 136 195 132 q97 -3 108 -29 q-1 -15 -15 -16 q-9 0 -27 2 q-19 1 -28 1 q-130 10 -192 -148 q-5 -10 -8 -15 q66 -107 190 -102 q25 0 59 7 q2 1 3 1 q24 1 23 -13 q-25 -43 -111 -49 q-127 -2 -177 131 q-63 -142 -177 -137 q-157 6 -165 189 ZM215 313 q5 -115 117 -120 q91 -5 153 135 q6 12 9 18 q-49 101 -146 101 q-126 -7 -133 -134 Z" /><glyph glyph-name="" unicode="&#x221e;" d="M682 289 q60 5 64 62 q-4 59 -64 63 q-49 1 -113 -62 q65 -65 113 -63 ZM318 289 q55 0 113 63 q-60 62 -113 63 q-61 -4 -65 -64 q4 -58 65 -62 ZM308 199 q-145 9 -151 152 q8 141 151 152 q90 3 192 -97 q97 98 192 97 q142 -13 151 -152 q-6 -143 -151 -152 q-97 3 -192 103 q-97 -101 -192 -103 Z" /><glyph glyph-name="" unicode="&#x2220;" d="M159 2 l475 628 l33 -26 l-423 -560 l596 0 l0 -42 l-681 0 Z" /><glyph glyph-name="" unicode="&#x2225;" d="M423 -126 l-38 0 l492 976 l38 0 l-492 -976 ZM123 -126 l-38 0 l492 976 l38 0 l-492 -976 Z" /><glyph glyph-name="" unicode="&#x2227;" d="M781 -31 l-51 0 l-218 727 l-242 -719 l-51 0 l261 782 l63 0 l238 -790 Z" /><glyph glyph-name="" unicode="&#x2228;" d="M269 751 l230 -731 l235 731 l47 0 l-250 -793 l-63 0 l-250 793 l51 0 Z" /><glyph glyph-name="" unicode="&#x2229;" d="M748 -1 l0 362 q-6 223 -248 230 q-242 -7 -248 -230 l0 -362 l-58 0 l0 361 q9 279 306 289 q297 -10 306 -289 l0 -361 l-58 0 Z" /><glyph glyph-name="" unicode="&#x222a;" d="M748 267 l0 362 l58 0 l0 -355 q-7 -287 -306 -294 q-299 7 -306 294 l0 355 l58 0 l0 -362 q5 -223 248 -229 q243 6 248 229 Z" /><glyph glyph-name="" unicode="&#x222b;" d="M477 136 l12 330 q10 222 102 227 q28 -2 31 -28 q-1 -19 -21 -20 q-11 0 -23 14 q-6 8 -10 8 q-37 9 -43 -198 l-12 -336 q-10 -343 -105 -326 q-28 2 -31 28 q1 19 21 20 q11 0 23 -14 q6 -8 10 -8 q37 -17 46 303 Z" /><glyph glyph-name="" unicode="&#x222e;" d="M521 346 l-7 -185 q77 11 82 93 q-4 76 -75 92 ZM478 163 l7 184 q-75 -14 -79 -93 q3 -75 72 -91 ZM525 469 l-2 -99 q92 -19 97 -116 q-6 -103 -107 -117 l0 -4 q-5 -136 -21 -220 q-22 -104 -84 -106 q-28 2 -31 28 q1 19 21 20 q11 0 23 -14 q6 -8 10 -8 q39 -2 44 229 l2 76 q-90 21 -95 116 q5 100 103 117 l6 95 q12 227 100 227 q28 -2 31 -28 q-1 -19 -21 -20 q-11 0 -23 14 q-6 8 -10 8 q-41 4 -43 -198 Z" /><glyph glyph-name="" unicode="&#x2234;" d="M556 483 l-110 0 l0 112 l110 0 l0 -112 ZM345 106 l-109 0 l0 113 l109 0 l0 -113 ZM765 106 l-109 0 l0 113 l109 0 l0 -113 Z" /><glyph glyph-name="" unicode="&#x2235;" d="M556 107 l-110 0 l0 113 l110 0 l0 -113 ZM345 483 l-109 0 l0 112 l109 0 l0 -112 ZM765 483 l-109 0 l0 112 l109 0 l0 -112 Z" /><glyph glyph-name="" unicode="&#x2236;" d="M555 483 l-110 0 l0 111 l110 0 l0 -111 ZM555 108 l-110 0 l0 112 l110 0 l0 -112 Z" /><glyph glyph-name="" unicode="&#x2237;" d="M669 547 q45 -5 50 -50 q-5 -45 -50 -50 q-45 5 -50 50 q5 45 50 50 ZM669 193 q45 -5 50 -50 q-5 -45 -50 -50 q-45 5 -50 50 q5 45 50 50 ZM331 547 q45 -5 50 -50 q-5 -45 -50 -50 q-45 5 -50 50 q5 45 50 50 ZM331 193 q45 -5 50 -50 q-5 -45 -50 -50 q-45 5 -50 50 q5 45 50 50 Z" /><glyph glyph-name="" unicode="&#x223d;" d="M883 193 l-42 0 q-9 207 -157 213 q-69 0 -168 -101 q-74 -98 -196 -113 q-193 -2 -204 256 l42 0 q5 -210 156 -214 q108 12 175 103 q70 97 195 111 q188 -5 199 -255 Z" /><glyph glyph-name="" unicode="&#x2248;" d="M830 462 l0 -54 q-87 -70 -167 -67 q-63 0 -173 42 q-98 38 -149 38 q-77 2 -171 -75 l0 54 q87 70 167 67 q63 0 173 -42 q98 -38 149 -38 q77 -2 171 75 ZM830 311 l0 -54 q-87 -70 -167 -67 q-63 0 -173 42 q-98 38 -149 38 q-77 2 -171 -75 l0 54 q87 70 167 67 q63 0 173 -42 q98 -38 149 -38 q77 -2 171 75 Z" /><glyph glyph-name="" unicode="&#x224c;" d="M891 47 l-799 0 l0 42 l799 0 l0 -42 ZM891 189 l-799 0 l0 42 l799 0 l0 -42 ZM883 339 l-42 0 q-9 207 -157 213 q-69 0 -168 -101 q-74 -98 -196 -113 q-193 -2 -204 256 l42 0 q5 -210 156 -214 q108 12 175 103 q70 97 195 111 q188 -5 199 -255 Z" /><glyph glyph-name="" unicode="&#x2260;" d="M396 224 l-229 0 l0 46 l265 0 l79 104 l-344 0 l0 46 l379 0 l177 232 l51 0 l-177 -232 l236 0 l0 -46 l-271 0 l-79 -104 l350 0 l0 -46 l-386 0 l-174 -236 l-51 0 l174 236 Z" /><glyph glyph-name="" unicode="&#x2261;" d="M830 434 l-660 0 l0 46 l660 0 l0 -46 ZM830 160 l-660 0 l0 46 l660 0 l0 -46 ZM830 297 l-660 0 l0 46 l660 0 l0 -46 Z" /><glyph glyph-name="" unicode="&#x2264;" d="M839 229 l0 -60 l-678 187 l0 61 l678 189 l0 -60 l-594 -158 l0 -2 l594 -157 ZM839 46 l0 -59 l-678 191 l0 60 l678 -192 Z" /><glyph glyph-name="" unicode="&#x2265;" d="M839 238 l0 -60 l-678 -191 l0 59 l678 192 ZM839 417 l0 -61 l-678 -187 l0 60 l594 157 l0 2 l-594 158 l0 60 l678 -189 Z" /><glyph glyph-name="" unicode="&#x2299;" d="M500 298 q-52 6 -58 58 q6 52 58 58 q52 -6 58 -58 q-6 -52 -58 -58 ZM500 34 q293 27 320 322 q-27 295 -320 322 q-293 -27 -320 -322 q27 -295 320 -322 ZM500 720 q332 -32 364 -364 q-32 -332 -364 -364 q-332 32 -364 364 q32 332 364 364 Z" /><glyph glyph-name="" unicode="&#x22a5;" d="M202 44 l276 0 l0 586 l44 0 l0 -586 l276 0 l0 -42 l-596 0 l0 42 Z" /><glyph glyph-name="" unicode="&#x2312;" d="M916 227 l-4 -8 q-14 0 -55 44 q-71 126 -347 173 q-11 2 -24 0 q-276 -47 -344 -173 q-40 -44 -54 -44 l-4 8 q143 282 414 281 q281 4 418 -281 Z" /><glyph glyph-name="" unicode="&#x2460;" d="M500 -60 q374 35 409 409 q-35 374 -409 409 q-374 -35 -409 -409 q34 -375 409 -409 ZM500 -129 q-438 41 -479 478 q41 438 479 479 q437 -41 478 -479 q-41 -437 -478 -478 ZM456 64 l0 471 l-103 -48 l0 83 l146 65 l44 0 l0 -571 l-87 0 Z" /><glyph glyph-name="" unicode="&#x2461;" d="M500 -128 q-438 41 -479 478 q41 438 479 479 q437 -41 478 -479 q-41 -437 -478 -478 ZM500 -59 q374 35 409 409 q-35 374 -409 409 q-374 -35 -409 -409 q34 -375 409 -409 ZM670 64 l-339 0 l0 53 q75 106 177 222 q70 80 69 149 q-1 75 -83 76 q-59 -1 -126 -43 l-19 75 q76 49 154 48 q157 -4 161 -156 q2 -99 -91 -199 q-63 -70 -120 -145 l217 0 l0 -80 Z" /><glyph glyph-name="" unicode="&#x2462;" d="M500 -128 q-438 41 -479 478 q41 438 479 479 q437 -41 478 -479 q-41 -437 -478 -478 ZM500 -59 q374 35 409 409 q-35 374 -409 409 q-374 -35 -409 -409 q34 -375 409 -409 ZM337 96 l23 73 q67 -32 117 -33 q107 1 108 104 q-5 84 -100 88 l-58 0 l0 80 l58 0 q87 1 88 88 q0 68 -80 68 q-50 0 -112 -30 l-21 74 q74 36 140 36 q154 -5 159 -144 q0 -80 -81 -132 q92 -44 93 -133 q-9 -171 -184 -179 q-70 0 -150 40 Z" /><glyph glyph-name="" unicode="&#x2463;" d="M500 -128 q-438 41 -479 478 q41 438 479 479 q437 -41 478 -479 q-41 -437 -478 -478 ZM500 -59 q374 35 409 409 q-35 374 -409 409 q-374 -35 -409 -409 q34 -375 409 -409 ZM617 65 l-86 0 l0 125 l-238 0 l0 64 l238 382 l86 0 l0 -366 l59 0 l0 -80 l-59 0 l0 -125 ZM379 270 l152 0 l0 243 l-152 -243 Z" /><glyph glyph-name="" unicode="&#x2464;" d="M500 -128 q-438 41 -479 478 q41 438 479 479 q437 -41 478 -479 q-41 -437 -478 -478 ZM500 -59 q374 35 409 409 q-35 374 -409 409 q-374 -35 -409 -409 q34 -375 409 -409 ZM650 636 l0 -80 l-205 0 l-6 -126 q24 4 45 4 q180 -6 186 -186 q-5 -185 -202 -191 q-64 0 -131 32 l21 73 q67 -25 110 -25 q113 4 116 111 q0 106 -111 106 q-53 0 -113 -14 l14 296 l276 0 Z" /><glyph glyph-name="" unicode="&#x2465;" d="M500 -128 q-438 41 -479 478 q41 438 479 479 q437 -41 478 -479 q-41 -437 -478 -478 ZM500 -59 q374 35 409 409 q-35 374 -409 409 q-374 -35 -409 -409 q34 -375 409 -409 ZM629 643 l10 -76 q-190 -3 -235 -186 q53 47 116 48 q153 -12 164 -182 q-12 -181 -180 -192 q-180 8 -186 240 q14 332 311 348 ZM504 135 q89 5 93 112 q-2 100 -94 102 q-62 -4 -99 -63 q2 -150 100 -151 Z" /><glyph glyph-name="" unicode="&#x2466;" d="M500 -128 q-438 41 -479 478 q41 438 479 479 q437 -41 478 -479 q-41 -437 -478 -478 ZM500 -59 q374 35 409 409 q-35 374 -409 409 q-374 -35 -409 -409 q34 -375 409 -409 ZM334 636 l337 0 l0 -50 l-199 -521 l-93 0 l202 491 l-247 0 l0 80 Z" /><glyph glyph-name="" unicode="&#x2467;" d="M500 -128 q-438 41 -479 478 q41 438 479 479 q437 -41 478 -479 q-41 -437 -478 -478 ZM500 -59 q374 35 409 409 q-35 374 -409 409 q-374 -35 -409 -409 q34 -375 409 -409 ZM318 218 q-1 90 105 150 q-89 54 -88 134 q10 134 164 142 q156 -7 165 -143 q-1 -81 -90 -134 q111 -54 107 -149 q-12 -150 -182 -162 q-170 11 -181 162 ZM497 133 q95 4 100 87 q1 71 -109 111 q-85 -40 -87 -112 q5 -82 96 -86 ZM499 571 q-77 -4 -82 -69 q2 -60 92 -99 q71 39 73 98 q-4 67 -83 70 Z" /><glyph glyph-name="" unicode="&#x2468;" d="M500 -128 q-438 41 -479 478 q41 438 479 479 q437 -41 478 -479 q-41 -437 -478 -478 ZM500 -59 q374 35 409 409 q-35 374 -409 409 q-374 -35 -409 -409 q34 -375 409 -409 ZM371 55 l-12 80 q194 2 236 180 q-54 -44 -113 -45 q-154 8 -161 184 q9 180 178 189 q178 -5 182 -240 q-10 -337 -310 -348 ZM499 563 q-86 -6 -92 -109 q2 -102 92 -104 q65 3 96 64 q-1 147 -96 149 Z" /><glyph glyph-name="" unicode="&#x2469;" d="M500 -128 q-438 41 -479 478 q41 438 479 479 q437 -41 478 -479 q-41 -437 -478 -478 ZM500 -59 q374 35 409 409 q-35 374 -409 409 q-374 -35 -409 -409 q34 -375 409 -409 ZM613 643 q182 -5 185 -293 q-3 -289 -185 -295 q-181 5 -185 295 q3 288 185 293 ZM613 563 q-97 -2 -98 -213 q0 -216 98 -215 q99 1 99 215 q0 212 -99 213 ZM296 64 l0 471 l-103 -48 l0 83 l145 65 l44 0 l0 -571 l-86 0 Z" /><glyph glyph-name="" unicode="&#x2474;" d="M448 0 l0 596 l-131 -60 l0 96 l182 82 l50 0 l0 -714 l-101 0 ZM771 811 l82 0 q135 -190 137 -462 q-1 -243 -136 -462 l-83 0 q131 208 132 461 q1 260 -132 463 ZM145 811 l83 0 q-132 -204 -131 -463 q1 -252 131 -461 l-83 0 q-135 221 -135 462 q2 264 135 462 Z" /><glyph glyph-name="" unicode="&#x2475;" d="M711 0 l-421 0 l0 63 q97 137 222 279 q91 101 89 188 q-1 99 -109 100 q-73 -2 -158 -52 q-5 19 -14 57 q-4 21 -7 31 q94 61 190 59 q195 -5 200 -195 q1 -119 -114 -246 q-89 -102 -157 -189 l279 0 l0 -95 ZM145 811 l83 0 q-132 -204 -131 -463 q1 -252 131 -461 l-83 0 q-135 221 -135 462 q2 264 135 462 ZM771 811 l82 0 q135 -190 137 -462 q-1 -243 -136 -462 l-83 0 q131 208 132 461 q1 260 -132 463 Z" /><glyph glyph-name="" unicode="&#x2476;" d="M295 39 l26 85 q82 -38 145 -39 q139 1 140 135 q-6 108 -130 114 l-69 0 l0 95 l70 0 q113 1 114 112 q1 88 -104 88 q-63 1 -140 -36 l-24 87 q96 44 172 44 q193 -5 198 -176 q0 -101 -106 -166 q121 -58 121 -169 q-11 -213 -229 -223 q-88 1 -184 49 ZM145 811 l83 0 q-132 -204 -131 -463 q1 -252 131 -461 l-83 0 q-135 221 -135 462 q2 264 135 462 ZM771 811 l82 0 q135 -190 137 -462 q-1 -243 -136 -462 l-83 0 q131 208 132 461 q1 260 -132 463 Z" /><glyph glyph-name="" unicode="&#x2477;" d="M660 0 l-101 0 l0 158 l-301 0 l0 78 l299 478 l103 0 l0 -461 l75 0 l0 -95 l-75 0 l0 -158 ZM357 253 l202 0 l0 321 l-202 -321 ZM145 811 l83 0 q-132 -204 -131 -463 q1 -252 131 -461 l-83 0 q-135 221 -135 462 q2 264 135 462 ZM771 811 l82 0 q135 -190 137 -462 q-1 -243 -136 -462 l-83 0 q131 208 132 461 q1 260 -132 463 Z" /><glyph glyph-name="" unicode="&#x2478;" d="M680 714 l0 -95 l-259 0 l-8 -165 q27 6 61 6 q225 -7 232 -232 q-6 -231 -251 -238 q-78 0 -161 39 l24 85 q77 -29 137 -29 q145 4 149 143 q1 138 -143 137 q-69 0 -140 -18 l18 367 l341 0 ZM145 811 l83 0 q-132 -204 -131 -463 q1 -252 131 -461 l-83 0 q-135 221 -135 462 q2 264 135 462 ZM771 811 l82 0 q135 -190 137 -462 q-1 -243 -136 -462 l-83 0 q131 208 132 461 q1 260 -132 463 Z" /><glyph glyph-name="" unicode="&#x2479;" d="M658 725 l12 -91 q-241 -7 -299 -246 q69 66 153 69 q189 -16 203 -228 q-14 -226 -224 -239 q-224 9 -231 300 q17 416 386 435 ZM771 811 l82 0 q135 -190 137 -462 q-1 -243 -136 -462 l-83 0 q131 208 132 461 q1 260 -132 463 ZM145 811 l83 0 q-132 -204 -131 -463 q1 -252 131 -461 l-83 0 q-135 221 -135 462 q2 264 135 462 ZM503 85 q118 6 123 144 q-2 130 -124 133 q-83 -6 -128 -83 q3 -192 129 -194 Z" /><glyph glyph-name="" unicode="&#x247a;" d="M289 714 l418 0 l0 -60 l-251 -654 l-109 0 l256 619 l-314 0 l0 95 ZM145 811 l83 0 q-132 -204 -131 -463 q1 -252 131 -461 l-83 0 q-135 221 -135 462 q2 264 135 462 ZM771 811 l82 0 q135 -190 137 -462 q-1 -243 -136 -462 l-83 0 q131 208 132 461 q1 260 -132 463 Z" /><glyph glyph-name="" unicode="&#x247b;" d="M277 191 q-1 113 136 190 q-115 69 -114 168 q12 166 203 176 q194 -8 205 -177 q-1 -100 -117 -168 q143 -71 138 -189 q-15 -186 -226 -201 q-212 14 -225 201 ZM500 81 q123 7 131 112 q1 94 -144 145 q-109 -52 -112 -146 q5 -105 125 -111 ZM502 638 q-101 -5 -108 -89 q1 -76 120 -128 q97 53 98 127 q-5 86 -110 90 ZM145 811 l83 0 q-132 -204 -131 -463 q1 -252 131 -461 l-83 0 q-135 221 -135 462 q2 264 135 462 ZM771 811 l82 0 q135 -190 137 -462 q-1 -243 -136 -462 l-83 0 q131 208 132 461 q1 260 -132 463 Z" /><glyph glyph-name="" unicode="&#x247c;" d="M337 -10 l-13 95 q244 3 300 241 q-77 -63 -150 -65 q-191 9 -200 229 q11 225 222 235 q221 -6 226 -298 q-13 -421 -385 -437 ZM496 630 q-113 -7 -120 -140 q2 -132 120 -134 q83 3 125 83 q0 189 -125 191 ZM145 811 l83 0 q-132 -204 -131 -463 q1 -252 131 -461 l-83 0 q-135 221 -135 462 q2 264 135 462 ZM771 811 l82 0 q135 -190 137 -462 q-1 -243 -136 -462 l-83 0 q131 208 132 461 q1 260 -132 463 Z" /><glyph glyph-name="" unicode="&#x247d;" d="M257 0 l0 596 l-87 -43 l0 96 l139 65 l49 0 l0 -714 l-101 0 ZM630 725 q226 -6 230 -367 q-4 -362 -230 -368 q-225 6 -230 368 q4 360 230 367 ZM630 630 q-129 -1 -129 -272 q-1 -275 129 -273 q128 1 128 273 q0 272 -128 272 ZM145 811 l83 0 q-132 -204 -131 -463 q1 -252 131 -461 l-83 0 q-135 221 -135 462 q2 264 135 462 ZM771 811 l82 0 q135 -190 137 -462 q-1 -243 -136 -462 l-83 0 q131 208 132 461 q1 260 -132 463 Z" /><glyph glyph-name="" unicode="&#x247e;" d="M293 0 l0 596 l-88 -43 l0 96 l139 65 l50 0 l0 -714 l-101 0 ZM612 0 l0 596 l-88 -43 l0 96 l139 65 l50 0 l0 -714 l-101 0 ZM145 811 l83 0 q-132 -204 -131 -463 q1 -252 131 -461 l-83 0 q-135 221 -135 462 q2 264 135 462 ZM771 811 l82 0 q135 -190 137 -462 q-1 -243 -136 -462 l-83 0 q131 208 132 461 q1 260 -132 463 Z" /><glyph glyph-name="" unicode="&#x247f;" d="M257 0 l0 596 l-87 -43 l0 96 l139 65 l49 0 l0 -714 l-101 0 ZM820 0 l-421 0 l0 63 q101 141 223 279 q91 103 89 189 q-1 98 -110 99 q-73 -2 -158 -52 q-5 19 -14 57 q-4 21 -7 31 q94 60 191 59 q194 -5 199 -194 q1 -119 -113 -247 q-90 -100 -157 -189 l278 0 l0 -95 ZM145 811 l83 0 q-132 -204 -131 -463 q1 -252 131 -461 l-83 0 q-135 221 -135 462 q2 264 135 462 ZM771 811 l82 0 q135 -190 137 -462 q-1 -243 -136 -462 l-83 0 q131 208 132 461 q1 260 -132 463 Z" /><glyph glyph-name="" unicode="&#x2480;" d="M257 0 l0 596 l-87 -43 l0 96 l139 65 l49 0 l0 -714 l-101 0 ZM419 39 l26 85 q82 -37 145 -39 q140 1 141 135 q-6 108 -131 114 l-68 0 l0 95 l69 0 q114 2 115 112 q0 89 -104 89 q-65 0 -140 -36 l-24 87 q95 44 172 44 q191 -5 197 -178 q0 -100 -105 -165 q120 -58 120 -169 q-11 -213 -229 -223 q-86 1 -184 49 ZM145 811 l83 0 q-132 -204 -131 -463 q1 -252 131 -461 l-83 0 q-135 221 -135 462 q2 264 135 462 ZM771 811 l82 0 q135 -190 137 -462 q-1 -243 -136 -462 l-83 0 q131 208 132 461 q1 260 -132 463 Z" /><glyph glyph-name="" unicode="&#x2481;" d="M257 0 l0 596 l-87 -43 l0 96 l139 65 l49 0 l0 -714 l-101 0 ZM776 0 l-102 0 l0 158 l-300 0 l0 78 l298 478 l104 0 l0 -461 l75 0 l0 -95 l-75 0 l0 -158 ZM473 253 l201 0 l0 321 l-201 -321 ZM145 811 l83 0 q-132 -204 -131 -463 q1 -252 131 -461 l-83 0 q-135 221 -135 462 q2 264 135 462 ZM771 811 l82 0 q135 -190 137 -462 q-1 -243 -136 -462 l-83 0 q131 208 132 461 q1 260 -132 463 Z" /><glyph glyph-name="" unicode="&#x2482;" d="M257 0 l0 596 l-87 -43 l0 96 l139 65 l49 0 l0 -714 l-101 0 ZM801 714 l0 -95 l-259 0 l-8 -164 q27 6 60 6 q225 -7 232 -233 q-6 -231 -251 -238 q-77 0 -161 39 l24 85 q79 -29 137 -29 q146 5 150 143 q0 138 -144 138 q-69 0 -140 -18 l19 366 l341 0 ZM145 811 l83 0 q-132 -204 -131 -463 q1 -252 131 -461 l-83 0 q-135 221 -135 462 q2 264 135 462 ZM771 811 l82 0 q135 -190 137 -462 q-1 -243 -136 -462 l-83 0 q131 208 132 461 q1 260 -132 463 Z" /><glyph glyph-name="" unicode="&#x2483;" d="M257 0 l0 596 l-87 -43 l0 96 l139 65 l49 0 l0 -714 l-101 0 ZM790 725 l12 -91 q-241 -7 -300 -246 q78 68 154 69 q189 -16 203 -228 q-14 -226 -224 -239 q-224 9 -231 300 q17 416 386 435 ZM635 85 q117 6 122 144 q-2 131 -123 133 q-82 -5 -129 -83 q3 -192 130 -194 ZM145 811 l83 0 q-132 -204 -131 -463 q1 -252 131 -461 l-83 0 q-135 221 -135 462 q2 264 135 462 ZM771 811 l82 0 q135 -190 137 -462 q-1 -243 -136 -462 l-83 0 q131 208 132 461 q1 260 -132 463 Z" /><glyph glyph-name="" unicode="&#x2484;" d="M830 654 l0 49 q-1 1 -2 3 q-1 3 -3 8 l-413 0 l0 -95 l315 0 l-256 -619 l108 0 l251 654 ZM257 0 l0 596 l-87 -43 l0 96 l139 65 l49 0 l0 -714 l-101 0 ZM830 703 l0 11 l-5 0 q-18 39 -54 97 l82 0 q135 -190 137 -462 q-1 -243 -136 -462 l-83 0 q131 208 132 461 q0 193 -73 355 ZM145 811 l83 0 q-132 -204 -131 -463 q1 -252 131 -461 l-83 0 q-135 221 -135 462 q2 264 135 462 Z" /><glyph glyph-name="" unicode="&#x2485;" d="M257 0 l0 596 l-87 -43 l0 96 l139 65 l49 0 l0 -714 l-101 0 ZM408 191 q-1 113 136 190 q-116 70 -115 169 q12 165 204 175 q194 -8 204 -176 q-1 -102 -116 -169 q143 -71 138 -189 q-15 -185 -226 -201 q-212 13 -225 201 ZM631 81 q123 6 130 112 q1 94 -143 145 q-110 -53 -113 -146 q5 -105 126 -111 ZM633 638 q-103 -5 -109 -88 q2 -77 121 -129 q95 53 97 128 q-4 86 -109 89 ZM145 811 l83 0 q-132 -204 -131 -463 q1 -252 131 -461 l-83 0 q-135 221 -135 462 q2 264 135 462 ZM771 811 l82 0 q135 -190 137 -462 q-1 -243 -136 -462 l-83 0 q131 208 132 461 q1 260 -132 463 Z" /><glyph glyph-name="" unicode="&#x2486;" d="M257 0 l0 596 l-87 -43 l0 96 l139 65 l49 0 l0 -714 l-101 0 ZM472 -10 l-13 95 q245 4 299 241 q-76 -63 -149 -65 q-191 10 -200 230 q11 224 222 234 q221 -6 226 -298 q-13 -421 -385 -437 ZM631 630 q-114 -7 -121 -139 q2 -133 121 -135 q84 4 124 83 q0 189 -124 191 ZM145 811 l83 0 q-132 -204 -131 -463 q1 -252 131 -461 l-83 0 q-135 221 -135 462 q2 264 135 462 ZM771 811 l82 0 q135 -190 137 -462 q-1 -243 -136 -462 l-83 0 q131 208 132 461 q1 260 -132 463 Z" /><glyph glyph-name="" unicode="&#x2487;" d="M145 811 l83 0 q-36 -55 -64 -121 q62 36 152 35 q172 -4 175 -186 q2 -110 -95 -247 l-136 -197 l232 0 l0 -95 l-324 0 q27 -60 60 -113 l-83 0 q-135 221 -135 462 q2 264 135 462 ZM691 725 q200 9 194 -366 q4 -377 -194 -369 q-198 -8 -195 369 q-6 375 195 366 ZM170 594 l-17 72 q-56 -144 -56 -318 q0 -139 40 -265 q31 46 85 123 q58 79 91 130 q82 123 80 204 q-1 88 -91 89 q-76 1 -132 -35 ZM691 630 q-56 1 -75 -58 q-20 -50 -19 -213 q-1 -168 18 -217 q19 -58 76 -57 q55 -1 74 58 q20 53 19 216 q1 163 -18 214 q-19 58 -75 57 ZM771 811 l82 0 q135 -190 137 -462 q-1 -243 -136 -462 l-83 0 q131 208 132 461 q1 260 -132 463 Z" /><glyph glyph-name="" unicode="&#x2488;" d="M447 0 l0 596 l-131 -60 l0 96 l182 82 l50 0 l0 -714 l-101 0 ZM828 0 l0 94 l92 0 l0 -94 l-92 0 Z" /><glyph glyph-name="" unicode="&#x2489;" d="M710 0 l-421 0 l0 63 q101 141 223 279 q91 103 89 190 q-1 97 -110 98 q-73 -2 -158 -52 q-5 19 -14 57 q-4 21 -7 31 q94 60 191 59 q194 -5 199 -193 q0 -120 -113 -248 q-90 -100 -157 -189 l278 0 l0 -95 ZM828 0 l0 94 l92 0 l0 -94 l-92 0 Z" /><glyph glyph-name="" unicode="&#x248a;" d="M828 0 l0 94 l92 0 l0 -94 l-92 0 ZM294 39 l26 85 q82 -37 145 -39 q140 1 141 135 q-6 107 -131 113 l-69 0 l0 95 l70 0 q113 2 115 113 q0 89 -105 89 q-64 0 -139 -36 l-25 87 q96 44 172 44 q192 -5 198 -178 q0 -100 -105 -166 q120 -58 120 -168 q-11 -213 -229 -223 q-86 0 -184 49 Z" /><glyph glyph-name="" unicode="&#x248b;" d="M828 0 l0 94 l92 0 l0 -94 l-92 0 ZM660 0 l-102 0 l0 158 l-300 0 l0 78 l298 478 l104 0 l0 -461 l75 0 l0 -95 l-75 0 l0 -158 ZM357 253 l201 0 l0 321 l-201 -321 Z" /><glyph glyph-name="" unicode="&#x248c;" d="M828 0 l0 94 l92 0 l0 -94 l-92 0 ZM680 714 l0 -95 l-259 0 l-9 -165 q28 6 61 6 q225 -7 232 -232 q-6 -231 -251 -238 q-77 0 -161 39 l24 85 q79 -29 137 -29 q146 5 150 143 q0 137 -144 137 q-69 0 -140 -18 l18 367 l342 0 Z" /><glyph glyph-name="" unicode="&#x248d;" d="M828 0 l0 94 l92 0 l0 -94 l-92 0 ZM658 725 l12 -91 q-242 -8 -300 -246 q71 67 154 69 q187 -16 202 -228 q-14 -226 -223 -239 q-224 9 -231 300 q17 416 386 435 ZM503 85 q117 6 122 144 q-2 131 -123 133 q-84 -5 -129 -83 q3 -192 130 -194 Z" /><glyph glyph-name="" unicode="&#x248e;" d="M828 0 l0 94 l92 0 l0 -94 l-92 0 ZM288 714 l418 0 l0 -60 l-251 -654 l-108 0 l256 619 l-315 0 l0 95 Z" /><glyph glyph-name="" unicode="&#x248f;" d="M828 0 l0 94 l92 0 l0 -94 l-92 0 ZM277 191 q-1 114 135 190 q-115 70 -114 169 q12 165 204 175 q194 -8 204 -176 q-1 -102 -116 -169 q142 -71 137 -189 q-15 -186 -225 -201 q-212 13 -225 201 ZM500 81 q123 6 130 112 q1 94 -144 145 q-109 -53 -112 -146 q5 -105 126 -111 ZM502 638 q-103 -5 -109 -88 q2 -77 121 -129 q95 54 97 128 q-5 85 -109 89 Z" /><glyph glyph-name="" unicode="&#x2490;" d="M337 -10 l-14 95 q245 4 300 241 q-76 -63 -150 -65 q-190 10 -199 230 q11 224 222 234 q220 -6 225 -298 q-12 -422 -384 -437 ZM496 630 q-114 -7 -121 -139 q2 -133 121 -135 q84 4 124 83 q0 189 -124 191 ZM828 0 l0 94 l92 0 l0 -94 l-92 0 Z" /><glyph glyph-name="" unicode="&#x2491;" d="M833 0 l0 94 l93 0 l0 -94 l-93 0 ZM196 0 l0 596 l-130 -60 l0 96 l182 82 l50 0 l0 -714 l-102 0 ZM581 725 q226 -6 230 -366 q-4 -362 -230 -369 q-225 6 -230 369 q4 360 230 366 ZM581 630 q-128 0 -128 -271 q-1 -276 128 -274 q128 2 129 274 q0 271 -129 271 Z" /><glyph glyph-name="" unicode="&#x2492;" d="M833 0 l0 94 l92 0 l0 -94 l-92 0 ZM229 0 l0 596 l-131 -60 l0 96 l182 82 l50 0 l0 -714 l-101 0 ZM588 0 l0 596 l-130 -60 l0 96 l182 82 l49 0 l0 -714 l-101 0 Z" /><glyph glyph-name="" unicode="&#x2493;" d="M833 0 l0 94 l93 0 l0 -94 l-93 0 ZM196 0 l0 596 l-130 -60 l0 96 l182 82 l50 0 l0 -714 l-102 0 ZM792 0 l-421 0 l0 63 q93 132 222 278 q92 101 89 187 q-2 101 -109 102 q-73 -2 -158 -52 q-5 19 -14 57 q-4 21 -7 31 q94 61 190 59 q194 -6 200 -197 q1 -118 -114 -245 q-96 -109 -157 -188 l279 0 l0 -95 Z" /><glyph glyph-name="" unicode="&#x2494;" d="M833 0 l0 94 l93 0 l0 -94 l-93 0 ZM196 0 l0 596 l-130 -60 l0 96 l182 82 l50 0 l0 -714 l-102 0 ZM398 39 l26 85 q82 -37 145 -39 q140 1 141 135 q-6 107 -131 113 l-69 0 l0 95 l70 0 q113 3 115 115 q1 88 -105 87 q-64 0 -139 -36 l-25 87 q96 44 172 44 q193 -5 198 -176 q-1 -102 -105 -168 q120 -58 120 -168 q-11 -213 -229 -223 q-86 0 -184 49 Z" /><glyph glyph-name="" unicode="&#x2495;" d="M833 0 l0 94 l93 0 l0 -94 l-93 0 ZM196 0 l0 596 l-130 -60 l0 96 l182 82 l50 0 l0 -714 l-102 0 ZM744 0 l-101 0 l0 158 l-301 0 l0 78 l299 478 l103 0 l0 -461 l75 0 l0 -95 l-75 0 l0 -158 ZM441 253 l202 0 l0 321 l-202 -321 Z" /><glyph glyph-name="" unicode="&#x2496;" d="M833 0 l0 94 l93 0 l0 -94 l-93 0 ZM196 0 l0 596 l-130 -60 l0 96 l182 82 l50 0 l0 -714 l-102 0 ZM766 714 l0 -95 l-260 0 l-8 -165 q27 6 61 6 q225 -7 232 -232 q-6 -231 -251 -238 q-78 0 -161 39 l24 85 q79 -29 137 -29 q146 5 150 143 q0 137 -144 137 q-69 0 -140 -18 l18 367 l342 0 Z" /><glyph glyph-name="" unicode="&#x2497;" d="M833 0 l0 94 l93 0 l0 -94 l-93 0 ZM196 0 l0 596 l-130 -60 l0 96 l182 82 l50 0 l0 -714 l-102 0 ZM751 725 l12 -91 q-241 -7 -299 -246 q76 67 154 69 q187 -16 202 -228 q-14 -226 -224 -239 q-223 9 -230 300 q16 416 385 435 ZM596 85 q118 6 123 144 q-2 130 -124 133 q-83 -6 -128 -83 q3 -192 129 -194 Z" /><glyph glyph-name="" unicode="&#x2498;" d="M833 0 l0 94 l93 0 l0 -94 l-93 0 ZM196 0 l0 596 l-130 -60 l0 96 l182 82 l50 0 l0 -714 l-102 0 ZM380 714 l418 0 l0 -60 l-251 -654 l-109 0 l257 619 l-315 0 l0 95 Z" /><glyph glyph-name="" unicode="&#x2499;" d="M833 0 l0 94 l93 0 l0 -94 l-93 0 ZM196 0 l0 596 l-130 -60 l0 96 l182 82 l50 0 l0 -714 l-102 0 ZM367 191 q-1 113 135 189 q-115 69 -114 168 q13 167 203 177 q194 -9 205 -178 q-1 -100 -117 -168 q143 -70 138 -188 q-15 -186 -226 -201 q-211 14 -224 201 ZM589 81 q123 7 131 112 q1 93 -144 144 q-109 -52 -112 -145 q5 -105 125 -111 ZM591 638 q-101 -5 -108 -90 q1 -76 120 -128 q97 53 98 127 q-5 87 -110 91 Z" /><glyph glyph-name="" unicode="&#x249a;" d="M833 0 l0 94 l93 0 l0 -94 l-93 0 ZM196 0 l0 596 l-130 -60 l0 96 l182 82 l50 0 l0 -714 l-102 0 ZM432 -10 l-13 95 q245 4 300 241 q-77 -64 -150 -65 q-190 9 -199 230 q11 224 221 234 q221 -6 226 -298 q-13 -421 -385 -437 ZM591 630 q-113 -7 -120 -139 q2 -133 120 -135 q85 4 125 83 q0 189 -125 191 Z" /><glyph glyph-name="" unicode="&#x249b;" d="M884 0 l0 94 l92 0 l0 -94 l-92 0 ZM450 0 l-422 0 l0 63 q101 141 223 279 q91 101 89 189 q-1 98 -109 99 q-74 -2 -158 -52 q-5 19 -14 57 q-4 21 -7 31 q93 60 190 59 q194 -5 199 -194 q0 -121 -113 -247 q-78 -87 -157 -189 l279 0 l0 -95 ZM682 725 q226 -6 230 -366 q-4 -362 -230 -369 q-224 7 -229 369 q4 359 229 366 ZM682 630 q-128 0 -128 -271 q-1 -276 128 -274 q128 2 129 274 q0 271 -129 271 Z" /><glyph glyph-name="" unicode="&#x25a1;" d="M900 -64 l-800 0 l0 800 l800 0 l0 -800 ZM144 692 l0 -712 l712 0 l0 712 l-712 0 Z" /><glyph glyph-name="" unicode="&#x25b2;" d="M865 0 l-730 0 l365 736 l365 -736 Z" /><glyph glyph-name="" unicode="&#x25cf;" d="M500 720 q332 -32 364 -364 q-32 -332 -364 -364 q-332 32 -364 364 q32 332 364 364 Z" /><glyph glyph-name="" unicode="&#x2640;" d="M323 504 q14 -162 177 -177 q163 15 177 177 q-14 162 -177 177 q-163 -15 -177 -177 ZM330 76 l0 44 l148 0 l0 165 q-184 32 -199 219 q19 202 221 221 q202 -19 221 -221 q-15 -187 -199 -219 l0 -165 l148 0 l0 -44 l-148 0 l0 -121 l-44 0 l0 121 l-148 0 Z" /><glyph glyph-name="" unicode="&#x2642;" d="M323 178 q14 -162 177 -177 q163 15 177 177 q-14 162 -177 177 q-163 -15 -177 -177 ZM328 536 l-12 17 q6 5 19 14 q120 88 156 157 l20 0 q39 -75 174 -164 l-11 -23 q-88 37 -152 98 l0 -237 q184 -33 199 -220 q-19 -202 -221 -221 q-202 19 -221 221 q15 186 199 220 l0 236 q-65 -56 -150 -98 Z" /><glyph glyph-name="" unicode="&#x3001;" d="M303 -36 l-166 199 l64 54 l172 -197 l-70 -56 Z" /><glyph glyph-name="" unicode="&#x3002;" d="M249 19 q90 7 96 95 q-6 90 -96 97 q-91 -6 -98 -97 q7 -88 98 -95 ZM249 -39 q-144 10 -154 153 q12 144 154 155 q141 -12 152 -155 q-10 -141 -152 -153 Z" /><glyph glyph-name="" unicode="&#x3003;" d="M466 161 l125 376 l122 0 l-172 -376 l-75 0 ZM286 161 l125 376 l122 0 l-172 -376 l-75 0 Z" /><glyph glyph-name="" unicode="&#x3005;" d="M738 7 l-57 -92 q-211 167 -450 302 l78 70 q69 -39 172 -102 q146 158 234 298 l-374 0 q-85 -111 -186 -197 q-36 37 -99 53 q223 186 346 452 l94 -55 q-37 -81 -87 -157 l440 0 l0 -86 q-120 -195 -277 -367 q88 -59 166 -119 Z" /><glyph glyph-name="" unicode="&#x3008;" d="M610 -52 l-161 402 l161 403 l93 0 l-160 -403 l160 -402 l-93 0 Z" /><glyph glyph-name="" unicode="&#x3009;" d="M550 350 l-161 -402 l-93 0 l160 402 l-160 403 l93 0 q14 -35 53 -131 q82 -204 108 -272 Z" /><glyph glyph-name="" unicode="&#x300a;" d="M526 -52 l-161 402 l161 403 l93 0 l-160 -403 l160 -402 l-93 0 ZM696 -52 l-161 402 l161 403 l93 0 l-160 -403 l160 -402 l-93 0 Z" /><glyph glyph-name="" unicode="&#x300b;" d="M464 350 l-161 -402 l-93 0 l160 402 l-160 403 l93 0 q14 -35 53 -131 q82 -204 108 -272 ZM634 350 l-161 -402 l-93 0 l160 402 l-160 403 l93 0 q14 -35 53 -131 q82 -204 108 -272 Z" /><glyph glyph-name="" unicode="&#x300c;" d="M453 -52 l0 805 l234 0 l0 -85 l-141 0 l0 -720 l-93 0 Z" /><glyph glyph-name="" unicode="&#x300d;" d="M547 753 l0 -805 l-234 0 l0 85 l141 0 l0 720 l93 0 Z" /><glyph glyph-name="" unicode="&#x300e;" d="M655 659 l0 42 l-179 0 l0 -700 l49 0 l0 658 l130 0 ZM421 756 l289 0 l0 -152 l-128 0 l0 -658 l-161 0 l0 810 Z" /><glyph glyph-name="" unicode="&#x300f;" d="M344 43 l0 -42 l179 0 l0 700 l-49 0 l0 -658 l-130 0 ZM578 -54 l-289 0 l0 152 l128 0 l0 658 l161 0 l0 -810 Z" /><glyph glyph-name="" unicode="&#x3010;" d="M446 -53 l0 807 l240 0 q-128 -151 -132 -403 q-2 -257 133 -404 l-241 0 Z" /><glyph glyph-name="" unicode="&#x3011;" d="M553 754 l0 -807 l-241 0 q135 147 133 404 q-4 252 -132 403 l240 0 Z" /><glyph glyph-name="" unicode="&#x3014;" d="M685 -50 l-231 70 l0 668 l231 66 l0 -86 l-141 -43 l0 -541 l141 -47 l0 -87 Z" /><glyph glyph-name="" unicode="&#x3015;" d="M546 20 l-231 -70 l0 87 l141 47 l0 541 l-141 43 l0 86 l231 -66 l0 -668 Z" /><glyph glyph-name="" unicode="&#x3016;" d="M470 -2 l140 0 q-76 144 -80 353 q1 202 80 353 l-140 0 l0 -706 ZM415 -53 l0 807 l297 0 q-126 -154 -127 -403 q3 -249 127 -404 l-297 0 Z" /><glyph glyph-name="" unicode="&#x3017;" d="M389 -2 l140 0 l0 706 l-140 0 q79 -151 80 -353 q-4 -209 -80 -353 ZM584 754 l0 -807 l-297 0 q124 155 127 404 q-1 249 -127 403 l297 0 Z" /><glyph glyph-name="" unicode="&#x3105;" d="M406 773 q5 28 32 12 q41 -36 67 -81 q0 -12 -21 -22 q-2 -1 -3 -2 q-17 -2 -95 -107 q-72 -97 -107 -133 q235 46 418 92 q2 1 7 3 q10 5 17 5 q98 -48 120 -104 q0 -11 -16 -20 q-24 -14 -36 -36 q-178 -452 -320 -444 q-11 3 -12 12 q-1 10 4 40 q-5 39 -71 102 q-16 16 -21 22 q-5 31 24 32 q2 -2 7 -5 q72 -56 101 -59 q121 36 204 328 q1 27 -14 33 q-11 8 -62 7 q-246 -27 -372 -84 q-3 -2 -12 -8 q-23 -16 -32 -16 q-37 26 -51 64 q-9 29 19 40 q187 138 225 329 Z" /><glyph glyph-name="" unicode="&#x3106;" d="M191 -52 q-23 12 -8 32 q189 63 337 205 q-94 81 -205 147 q-12 12 -7 23 q8 13 23 9 q137 -62 239 -123 q90 109 121 227 q0 3 0 7 q1 12 -8 13 q-211 -25 -312 -68 q-22 -14 -32 -16 q-44 29 -48 84 q129 82 176 252 q-15 54 16 52 q61 -38 84 -80 q0 -16 -33 -32 q-5 -3 -7 -4 q-27 -29 -64 -86 q-44 -68 -80 -102 q351 70 312 80 q6 4 12 4 q64 -21 116 -96 q0 -12 -25 -29 q-18 -11 -23 -19 q-60 -135 -141 -226 q85 -56 129 -102 q58 -63 49 -117 q-22 -60 -77 -15 q-78 90 -163 172 q-148 -132 -381 -192 Z" /><glyph glyph-name="" unicode="&#x3107;" d="M260 668 l30 0 q148 1 364 52 q6 1 16 6 q16 6 24 6 q67 -20 132 -100 q0 -8 -12 -22 q-16 -20 -16 -34 l0 -21 q0 -50 6 -148 q6 -109 6 -163 l0 -157 q-4 -90 -46 -110 q-57 15 -66 71 q0 12 7 41 q17 42 21 211 l0 146 q2 160 -27 186 q-15 18 -45 19 q-26 2 -92 -13 q-26 -6 -91 -22 q-108 -28 -131 -28 l-8 0 q-16 8 -29 18 q0 -5 -1 -15 q-4 -46 -4 -67 l0 -160 q0 -91 -12 -256 q-5 -128 -40 -132 q-60 34 -72 84 q0 11 12 42 q40 56 52 322 l0 44 q0 119 -44 216 q1 13 16 14 q19 -4 51 -32 q0 2 -1 2 Z" /><glyph glyph-name="" unicode="&#x3108;" d="M285 626 l0 -30 q0 -27 -2 -82 q-2 -36 -2 -54 q0 -10 0 -28 q-4 -222 -4 -344 l0 -20 q-3 -16 16 -16 q172 2 364 44 q34 7 76 4 q45 -6 72 -52 q21 -49 -20 -48 q-9 1 -27 3 q-89 9 -132 9 l-41 0 q-76 0 -280 -35 q-54 -9 -60 -9 q-38 16 -56 68 q0 2 4 20 q28 117 28 203 l0 161 q-4 199 -32 276 q3 7 16 7 q23 -4 45 -22 q174 9 351 67 q41 14 56 12 q52 -9 66 -46 q7 -33 -42 -38 q-195 -13 -334 -52 q-16 -4 -18 -4 q-15 0 -46 19 q2 -6 2 -13 Z" /><glyph glyph-name="" unicode="&#x3109;" d="M528 406 q12 -14 4 -28 q-3 -4 -15 -11 q-12 -7 -14 -11 q-4 -8 -11 -23 q-115 -276 -326 -361 q-28 -12 -26 12 q1 11 -6 8 q261 157 280 447 q-69 -12 -88 -19 q-18 -7 -43 -24 q-22 -16 -33 -16 q-15 6 -43 46 q-18 29 -9 34 q118 67 196 232 q12 27 19 71 q3 18 5 25 q3 12 20 8 q81 -62 76 -100 q-6 -7 -18 -11 q-16 -5 -26 -17 q-9 -11 -34 -42 q-86 -110 -126 -150 q37 7 109 19 q171 29 267 49 q5 1 18 4 q28 8 42 8 q52 -11 120 -84 q1 -12 -18 -33 q-4 -5 -6 -7 q-17 -22 -59 -145 q-74 -287 -217 -335 q-7 0 -10 19 q-2 18 -6 25 q-4 37 -87 87 q-8 5 -9 6 q-14 22 12 31 q6 -2 23 -9 q58 -26 81 -27 q106 25 168 344 q10 51 -56 48 q-57 -2 -205 -26 q29 -21 51 -44 Z" /><glyph glyph-name="" unicode="&#x310a;" d="M159 444 l8 0 q78 0 268 28 q20 101 20 184 q0 38 -16 76 q-4 9 -4 12 q0 1 -1 3 q-4 13 11 15 q99 -19 130 -74 q0 -9 -13 -21 q-14 -13 -15 -23 q-8 -66 -31 -160 q132 23 183 36 q5 1 14 4 q24 8 38 8 q65 -13 92 -76 q-5 -29 -20 -32 q-14 1 -41 4 q-40 4 -60 4 l-47 0 q-79 0 -176 -11 q-61 -216 -136 -357 l12 0 q141 17 290 49 q-16 24 -51 68 q-15 21 -23 31 q-8 18 16 24 q200 -114 196 -202 q-3 -45 -56 -58 q-19 1 -31 43 q-4 13 -6 17 q-5 11 -17 34 q-3 5 -4 7 q-175 -38 -298 -89 q-9 -4 -26 -22 q-20 -22 -30 -22 q-52 30 -76 92 q83 47 163 372 q-55 -10 -132 -29 q-43 -11 -51 -11 q-56 23 -80 76 Z" /><glyph glyph-name="" unicode="&#x310b;" d="M190 736 q26 -3 80 -4 q157 1 356 44 q64 -4 112 -60 q1 -24 -12 -28 q-34 -4 -64 -32 q-46 -42 -159 -171 q-20 -22 -29 -33 q211 34 207 48 q8 4 13 4 q58 -19 116 -92 q10 -15 0 -24 q-2 -11 -22 -18 q-26 -9 -34 -26 q-207 -398 -316 -392 q-28 0 -28 12 q14 47 -76 136 q-18 17 -12 28 q11 11 32 0 q12 -7 30 -23 q35 -27 70 -45 q87 -16 236 320 q22 52 -24 52 q-92 0 -175 -41 q-22 -11 -29 -11 q-59 11 -76 52 q0 13 23 32 q4 3 5 4 q136 132 176 228 q0 3 2 8 q3 6 -6 4 q-256 -38 -283 -56 q-25 -8 -37 -8 q-27 3 -60 40 q-27 33 -16 52 Z" /><glyph glyph-name="" unicode="&#x310c;" d="M305 392 q-1 -1 -4 -4 q-22 -25 -36 -24 q-46 21 -64 64 q0 11 14 19 q10 5 14 9 q36 43 61 131 q20 77 11 141 q6 16 24 16 q57 -34 88 -72 q5 -12 -4 -20 q-42 -9 -104 -196 q89 13 198 34 q33 111 30 214 q0 4 -4 21 q-8 32 -8 43 q6 17 20 16 q67 -25 108 -60 q8 -9 0 -28 q-4 -7 -14 -16 q-8 -8 -10 -12 q-12 -81 -39 -161 q81 17 99 25 q4 1 11 5 q15 7 25 7 q91 -41 116 -96 q0 -18 -27 -29 q-18 -7 -21 -15 q-5 -20 -17 -71 q-77 -380 -219 -393 q-40 -7 -36 36 q-12 46 -59 88 q-21 20 -21 28 q-3 22 20 21 q4 -3 13 -9 q61 -42 85 -44 q111 -3 162 376 q3 29 -24 28 q-69 -10 -129 -18 q-131 -323 -371 -478 q-13 -9 -23 2 q-10 14 -1 26 q205 153 315 438 q-163 -22 -179 -42 Z" /><glyph glyph-name="" unicode="&#x310d;" d="M440 740 q66 -29 84 -76 q0 -10 -14 -19 q-1 -1 -2 -1 q-17 -8 -97 -112 q-118 -153 -183 -216 q61 -60 148 -138 q133 -107 120 -170 q-4 -38 -48 -48 q-25 -3 -60 60 q-67 119 -212 293 q-1 4 0 8 q195 221 244 395 q-2 24 20 24 ZM492 348 l0 8 q222 216 224 340 q3 22 28 24 q59 -44 80 -92 q1 -14 -17 -19 q-21 -7 -31 -21 q-83 -115 -228 -240 q280 -230 276 -316 q3 -50 -52 -64 q-21 4 -44 44 q-102 203 -236 336 Z" /><glyph glyph-name="" unicode="&#x310e;" d="M174 688 l44 0 q127 0 442 63 q85 17 94 17 q41 -4 75 -41 q23 -30 -11 -39 q-36 7 -80 8 q-20 2 -261 -35 q32 -28 45 -53 q2 -4 1 -8 q-1 -2 -1 -4 q0 -9 -27 -28 q-4 -3 -5 -4 q-16 -16 -98 -140 q21 4 61 9 q107 14 165 39 q4 1 11 5 q13 7 21 7 q89 -30 120 -80 q0 -11 -14 -20 q-14 -8 -18 -16 q-6 -11 -25 -56 q-158 -382 -263 -376 q-10 1 -13 18 q-3 14 -7 22 q-1 2 -3 7 q-13 34 -81 81 q-7 8 -1 22 q6 10 17 8 q6 -3 16 -10 q38 -26 76 -32 q104 13 204 328 q1 25 -20 24 q-162 -15 -216 -40 q-58 -32 -68 -32 q-38 16 -60 68 q-1 13 16 20 q60 44 112 172 q4 13 7 37 q3 17 5 26 q-53 -8 -140 -21 q-66 -10 -68 -10 q-26 2 -53 32 q-23 31 1 32 Z" /><glyph glyph-name="" unicode="&#x310f;" d="M335 696 l19 4 q293 14 380 51 q33 9 40 9 q40 -6 75 -48 q22 -31 -11 -40 q-18 -5 -82 3 q-12 1 -14 1 q-107 -4 -288 -32 q-4 -1 -12 -3 q-26 -7 -40 -7 q-15 -1 -36 16 q-1 -14 -1 -11 q-1 -512 -193 -663 q-11 -9 -23 -1 q-10 9 -3 23 q144 132 140 514 q0 5 0 17 q3 110 -16 187 q6 7 12 8 q19 1 53 -28 Z" /><glyph glyph-name="" unicode="&#x3110;" d="M704 608 l0 -588 q-9 -46 -32 -51 q-46 30 -60 75 q0 4 4 17 q24 73 24 167 l0 60 q-203 -87 -264 -124 q-8 -5 -20 -20 q-17 -20 -28 -20 q-46 29 -64 72 q0 12 16 29 q16 17 20 31 q17 100 20 264 q-1 53 -15 82 q-5 11 -5 18 q2 8 17 10 q80 -27 87 -66 q-1 -4 -6 -13 q-15 -22 -18 -47 q-3 -42 -13 -133 q-12 -114 -11 -135 q40 13 118 36 q110 32 166 53 l0 312 q0 60 -21 106 q-7 15 -7 21 q3 15 17 18 q103 -29 107 -62 q0 -6 -9 -18 q-27 -38 -23 -94 Z" /><glyph glyph-name="" unicode="&#x3111;" d="M232 300 l0 12 q296 272 308 440 q1 0 2 1 q13 13 22 7 q48 -36 76 -92 q4 -11 -8 -24 q-7 -6 -17 -8 q-12 -3 -19 -10 q-162 -198 -308 -314 q32 -15 109 -50 q381 -164 371 -234 q-1 -74 -68 -58 q-12 11 -34 32 q-112 118 -434 298 Z" /><glyph glyph-name="" unicode="&#x3112;" d="M535 464 l0 -155 q-1 -69 14 -251 q2 -28 2 -30 q-4 -39 -32 -48 q-46 30 -68 108 q0 8 5 23 q17 12 23 249 l0 269 q-162 -22 -212 -37 q-4 -1 -14 -5 q-20 -7 -30 -7 q-38 12 -64 68 q6 5 12 4 q162 0 520 72 q6 1 18 4 q28 8 42 8 q41 -3 78 -46 q28 -38 -6 -46 q-14 -3 -45 2 q-35 6 -59 6 q-60 0 -185 -15 q-5 -40 -1 -122 q2 -34 2 -51 Z" /><glyph glyph-name="" unicode="&#x3113;" d="M492 228 l0 19 q-115 -16 -136 -39 q-18 -20 -32 -20 q-44 19 -64 72 q0 7 10 15 q22 17 22 49 l0 161 q1 49 -31 124 q-9 22 -9 27 q64 23 116 -40 q-1 -7 -9 -19 q-13 -19 -11 -37 l0 -256 q75 3 144 14 l0 289 q1 78 -24 139 q-6 15 -8 22 q-5 15 3 19 q1 1 1 1 q64 9 120 -56 q0 -1 -4 -8 q-14 -26 -16 -40 q-10 -113 -12 -264 l0 -93 q12 2 37 6 q61 11 95 15 q8 1 22 -15 q5 16 6 31 q6 74 8 188 q0 37 -15 68 q-4 9 -5 12 q3 22 16 20 q86 -28 92 -60 q-1 -6 0 -6 q1 0 -3 -4 q0 -1 -1 -2 q-1 -1 -3 -3 q-21 -23 -21 -41 q-8 -264 -36 -316 l-13 0 q-35 45 -35 68 q0 1 0 2 q-70 -5 -144 -14 l0 -37 q-1 -55 3 -161 q105 14 209 30 q7 1 19 0 q6 0 9 0 q47 -2 78 -45 q24 -43 -18 -47 q-2 0 -8 2 q-72 14 -112 14 q-139 0 -476 -51 q-63 -9 -68 -9 q-22 2 -51 31 q-24 26 -9 33 q29 3 88 8 q172 14 262 24 q1 5 2 14 q14 109 12 166 Z" /><glyph glyph-name="" unicode="&#x3114;" d="M588 772 l10 0 q69 -51 76 -88 q0 -15 -25 -19 q-18 -3 -23 -9 q-166 -184 -366 -290 q-19 -9 -28 1 q-9 16 6 25 q233 156 328 332 q3 5 6 17 q5 21 16 31 ZM626 268 l0 -142 q-1 -161 -31 -180 q-46 11 -69 82 q0 2 5 12 q24 45 23 86 l0 136 q0 22 -1 43 q-179 -148 -329 -201 q-27 7 -12 28 q312 160 486 460 q2 3 4 12 q7 27 20 26 q39 -21 72 -72 q3 -6 0 -18 q-1 -8 -20 -13 q-16 -6 -20 -11 q-57 -81 -156 -172 q30 -17 40 -28 q10 -13 -7 -39 q-3 -6 -5 -9 Z" /><glyph glyph-name="" unicode="&#x3115;" d="M720 684 q7 36 -16 36 q-130 -6 -363 -45 q-37 -7 -41 -7 q-53 23 -72 84 q6 4 12 4 q65 -3 138 -2 q71 2 139 8 q134 13 223 42 q94 -41 104 -84 q-2 -9 -15 -17 q-32 4 -73 -151 q-16 -66 -49 -83 q-14 4 -25 25 q-52 -3 -153 -32 q-70 -20 -91 -20 q-15 0 -42 16 q-6 -328 -208 -514 q-11 -8 -25 2 q-11 10 -3 22 q156 181 152 452 q0 30 -10 80 q-4 21 -4 26 q15 26 76 -31 q65 5 198 40 q48 13 54 13 q17 1 52 -23 q6 23 18 65 q17 62 24 94 Z" /><glyph glyph-name="" unicode="&#x3116;" d="M737 628 l0 -119 q1 -50 5 -265 q3 -124 3 -132 q-3 -86 -48 -104 q-18 0 -38 36 l-30 0 q-48 11 -191 -14 q-58 -10 -73 -10 q-10 0 -30 19 q-10 10 -14 12 q-3 1 -8 6 q-3 2 -4 3 l0 -4 q-4 -55 -24 -72 q-42 20 -56 84 q0 5 5 15 q25 -9 35 313 l0 144 q0 37 -16 113 q-8 35 -8 43 q2 11 12 8 q2 -1 6 -4 q17 -12 26 -19 q304 33 376 79 q87 -27 108 -68 q0 -10 -15 -24 q-22 -21 -21 -40 ZM419 466 q-1 6 14 12 q3 1 4 2 q132 -84 136 -144 q1 -33 -26 -57 q-26 -18 -42 5 q-22 69 -67 140 q-20 32 -19 42 ZM309 92 l40 0 q80 -6 235 24 q19 4 21 4 q20 -1 47 -17 q2 11 7 36 q21 107 18 157 l0 177 q1 130 -8 163 q-12 34 -52 32 q-69 1 -272 -48 q-1 0 -20 12 l0 -73 q2 -169 -12 -399 q-4 -53 -4 -68 Z" /><glyph glyph-name="" unicode="&#x3117;" d="M417 464 l0 -401 q-7 -77 -36 -97 q-34 25 -44 82 q0 12 5 50 q12 67 15 222 l0 165 q0 86 -13 152 q-4 0 -7 -1 q-15 -4 -41 -11 q-34 -10 -43 -9 q-47 14 -65 75 q3 5 9 5 q257 7 452 60 q3 1 8 3 q23 9 36 9 q89 -33 120 -92 q0 -9 -16 -21 q-17 -12 -20 -23 q-98 -352 -196 -364 q-10 0 -17 21 q-6 16 -11 23 q-1 2 -3 4 q-9 18 -73 60 q-22 12 -22 25 q1 16 20 19 q6 -3 20 -9 q64 -28 74 -27 q78 -6 128 268 q4 32 -44 36 q-63 -1 -270 -43 q47 -44 50 -73 q0 -7 -4 -18 q-12 -31 -12 -90 Z" /><glyph glyph-name="" unicode="&#x3118;" d="M831 468 l-72 0 q-117 3 -227 -17 q-11 -45 -33 -133 q-10 -44 -16 -66 l0 -8 q44 7 121 26 q29 7 43 10 q2 1 7 4 q30 16 37 16 q39 -14 84 -64 q5 -6 4 -13 q-1 -2 -1 -4 q0 -9 -26 -21 q-14 -7 -17 -10 q-3 -4 -26 -41 q-81 -136 -122 -179 q-15 -15 -29 -10 q-15 10 -7 26 q51 73 92 192 q15 41 -16 40 q-126 -11 -156 -40 q-6 -4 -19 -14 q-27 -20 -33 -18 q-37 16 -51 63 q0 12 17 25 q31 25 42 60 q14 43 36 144 q-71 -15 -167 -48 q-9 -3 -13 -4 q-2 -1 -8 -3 q-26 -9 -40 -9 q-19 0 -67 60 q-7 9 -9 12 q-4 5 -3 9 q2 3 7 3 q68 0 313 41 q23 115 23 179 q0 40 -18 78 q-2 5 -2 6 q0 1 0 2 q2 15 8 14 q129 -23 136 -48 q-1 -11 -4 -16 q-4 -5 -16 -15 q-11 -10 -12 -13 q-4 -15 -11 -45 q-21 -85 -33 -130 q128 24 168 35 q5 1 16 5 q21 7 32 7 q34 -3 69 -44 q25 -35 -1 -44 Z" /><glyph glyph-name="" unicode="&#x3119;" d="M451 747 q20 14 65 -39 q48 -50 32 -80 q-3 -7 -22 -39 q-8 -13 -10 -17 q-24 -42 -113 -192 q-131 -222 -163 -280 q163 17 360 40 q87 6 88 10 q-8 30 -40 103 q-19 44 -24 59 q-4 12 2 17 q7 5 18 -1 q85 -60 160 -212 q56 -137 -32 -148 q-40 0 -53 81 q-5 34 -11 39 q-182 -20 -384 -54 q-15 -2 -47 -15 q-43 -18 -57 -13 q-50 35 -68 94 q-1 19 32 52 q6 6 8 8 q105 136 240 432 q5 12 9 37 q3 32 1 47 q-10 57 9 71 Z" /><glyph glyph-name="" unicode="&#x311a;" d="M545 440 l-6 -170 l0 -224 q-8 -72 -38 -86 q-47 28 -60 76 q-1 9 11 48 q26 80 26 126 l4 214 q-4 58 -27 81 q-42 45 -230 168 q-42 29 -9 73 q25 23 73 -7 q33 -21 155 -159 q66 -74 70 -74 q115 106 174 201 q9 15 16 39 q5 25 17 23 q54 -13 91 -81 q0 -14 -22 -21 q-15 -5 -20 -10 q-26 -22 -70 -59 q-183 -151 -155 -158 Z" /><glyph glyph-name="" unicode="&#x311b;" d="M538 596 l0 -64 q1 -27 12 -68 q7 -27 8 -40 q-6 -21 -40 -32 q-6 0 -16 3 q-19 5 -44 5 q-163 -10 -172 -180 q13 -169 192 -184 q78 -1 107 13 q31 12 69 63 q15 29 39 16 q20 -18 5 -48 q-60 -120 -220 -120 q-241 20 -256 264 q14 222 260 232 q0 16 -1 48 q2 106 -18 160 q-4 0 -11 -1 q-81 -8 -98 -11 q-10 -1 -44 -8 q-61 -12 -76 -12 q-36 11 -72 64 q0 8 4 12 q300 7 508 44 q10 2 32 7 q36 9 52 9 q39 -5 73 -51 q22 -36 -17 -37 q-4 0 -19 2 q-35 6 -53 6 q-73 -2 -227 -18 q39 -18 39 -34 q0 -10 -10 -27 q-4 -9 -6 -13 Z" /><glyph glyph-name="" unicode="&#x311c;" d="M490 404 l0 28 q0 51 -2 101 q-80 -9 -196 -30 q-59 -11 -70 -11 q-37 13 -64 60 q0 18 16 20 q71 -5 143 -1 q66 3 169 18 q-2 36 -7 110 q-1 11 -1 17 q-1 8 -14 45 q-6 17 -6 19 q-1 20 47 8 q57 -16 61 -36 q0 -8 -9 -21 q-10 -14 -11 -23 q0 -7 0 -20 q-2 -64 -2 -91 q54 8 114 15 q9 1 31 5 q37 7 53 7 q80 -14 100 -72 q-2 -20 -16 -20 q-11 1 -33 4 q-56 8 -107 8 q-74 0 -140 -5 q3 -94 18 -148 q2 -8 2 -11 q-5 -37 -40 -44 q-2 0 -15 1 q-33 3 -49 3 q-144 -7 -152 -144 q10 -156 184 -164 q96 -2 140 44 q21 32 37 13 q12 -24 -9 -57 q-66 -89 -180 -96 q-216 26 -240 244 q15 208 248 224 Z" /><glyph glyph-name="" unicode="&#x311d;" d="M417 402 l0 -171 q0 -105 33 -144 q31 -40 115 -39 q42 0 84 8 q16 3 24 4 q51 -13 72 -68 q7 -29 -104 -28 q-183 -2 -237 72 q-29 37 -40 104 q-11 63 -7 184 l0 69 q-4 -1 -12 -2 q-9 -1 -24 -3 q-42 -6 -89 -21 q-21 -7 -27 -7 q-56 22 -68 64 q115 11 220 26 l0 211 q1 21 -12 58 q-3 7 -4 10 q-4 23 12 23 q70 -9 100 -49 q0 -2 0 -5 q2 -1 -4 -11 q-2 -3 -7 -9 q-25 -28 -25 -94 l0 -126 q9 1 26 4 q113 18 162 27 q12 91 12 159 q-2 36 -16 96 q1 15 12 16 q57 -7 104 -40 q4 -4 4 -14 q0 -1 0 -2 q0 -4 -10 -16 q-12 -15 -14 -24 q-9 -82 -26 -165 q86 17 114 17 q44 -6 74 -52 q16 -36 -26 -44 q-12 1 -53 9 q-32 7 -39 7 q-39 0 -86 -4 q-47 -186 -106 -288 q-8 -9 -16 -6 q-9 5 -9 15 q46 134 71 273 q-76 -9 -178 -24 Z" /><glyph glyph-name="" unicode="&#x311e;" d="M308 624 l12 8 q48 -26 72 -64 q4 -10 -4 -20 q-5 -7 -21 -16 q-9 -5 -11 -8 q-6 -10 -16 -30 q-31 -60 -56 -94 q-1 0 22 3 q116 13 170 22 q34 121 40 256 q-80 -11 -194 -36 q-41 -9 -46 -9 q-66 23 -68 84 l52 0 q373 16 431 52 q26 8 33 8 q35 -9 70 -54 q21 -33 -6 -42 q-7 1 -28 2 q-74 6 -84 6 q-60 0 -118 -6 q70 -45 70 -66 q0 -7 -9 -14 q-23 -18 -31 -62 q-11 -54 -29 -106 q125 22 133 26 q5 2 13 6 q19 10 31 10 q47 -21 92 -72 q5 -7 5 -14 q0 -1 0 -2 q0 -12 -15 -22 q-18 -11 -26 -26 q-54 -185 -196 -340 q-49 -40 -61 -15 q143 174 177 375 q-7 41 -36 40 q-51 -6 -136 -19 q-139 -330 -336 -421 q-22 2 -12 24 q179 134 267 385 q-148 -24 -179 -37 q-15 -5 -39 -23 q-16 -13 -21 -13 q-37 20 -52 76 q1 16 20 24 q38 -14 112 164 q2 7 4 30 q2 23 4 30 Z" /><glyph glyph-name="" unicode="&#x311f;" d="M148 691 q4 15 32 13 q241 18 288 48 q2 1 7 5 q14 11 21 11 q83 -26 111 -65 q0 -1 0 -4 q1 -9 -4 -14 q-4 -4 -14 -11 q-28 -20 -25 -34 q50 -498 254 -578 q32 -27 34 -34 q7 -33 -30 -50 q-42 -16 -74 6 q-248 214 -244 672 q1 45 -32 40 q-74 -15 -195 -49 q-54 -15 -61 -15 q-54 28 -68 59 Z" /><glyph glyph-name="" unicode="&#x3120;" d="M295 372 l218 -8 q144 187 134 232 q8 16 20 14 q65 -49 88 -90 q-4 -12 -12 -20 q-6 -4 -26 -11 q-21 -8 -26 -13 q-221 -261 -380 -412 q88 19 250 56 q70 17 106 25 q-20 39 -38 67 q-25 37 -22 51 q5 14 32 -4 q166 -142 180 -219 q0 -52 -47 -61 q-41 -1 -55 53 q-7 27 -31 76 q-353 -101 -419 -164 q-4 -4 -20 -4 q-12 -2 -64 100 q-5 14 4 24 q5 2 23 8 q41 12 55 22 q81 67 213 226 q-26 -3 -65 -7 q-92 -5 -170 -37 q-33 15 -58 90 q0 17 27 23 q38 10 59 31 q210 215 206 328 q3 12 16 20 q48 -19 90 -72 q5 -10 -4 -20 q-11 -11 -32 -20 q-163 -200 -252 -280 q-3 -1 -3 -3 q0 -1 3 -1 Z" /><glyph glyph-name="" unicode="&#x3121;" d="M219 708 l48 0 q337 17 346 60 q13 8 18 8 q105 -50 104 -84 q1 -9 -15 -19 q-1 -1 -1 -1 q-2 -1 -5 -4 q-13 -8 -15 -16 q-41 -159 -118 -295 q237 -244 234 -317 q-8 -43 -43 -51 q-34 -1 -73 67 q-67 109 -161 227 q-109 -162 -255 -267 q-67 -47 -92 -36 q-10 11 0 20 q173 115 300 341 q-95 113 -192 211 q-20 19 -19 34 q5 17 23 6 q89 -53 224 -181 q47 95 80 213 q21 73 -54 54 q-4 -2 -6 -2 q-196 -42 -272 -52 q-43 17 -68 60 q-10 23 12 24 Z" /><glyph glyph-name="" unicode="&#x3122;" d="M375 655 l0 1 q-2 0 -4 0 q-30 -6 -67 31 q-41 48 -13 53 l128 0 q137 3 242 42 q5 2 6 2 q71 -17 120 -80 q5 -18 -8 -28 q-2 -2 -9 -5 q-19 -9 -23 -15 q-13 -18 -44 -69 q-44 -73 -68 -103 q-9 -9 -22 -9 q-18 2 -18 9 q65 135 72 204 q-3 25 -16 24 q-76 -3 -217 -43 q-18 -5 -26 -7 q50 -54 51 -86 q0 -14 -18 -31 q-15 -14 -22 -25 q-20 -31 -67 -90 q-38 -49 -49 -66 q-2 -4 -8 -10 q-11 -13 -12 -22 q228 22 356 52 q15 3 40 19 q16 9 20 9 q84 -44 110 -86 q0 -4 1 -8 q3 -2 -5 -10 q-5 -6 -18 -13 q-21 -11 -26 -23 q-95 -205 -174 -296 q-13 -16 -27 -11 q-14 9 -9 27 q79 143 110 264 q0 2 2 7 q18 61 -12 61 q-261 -37 -320 -48 q-19 -5 -50 -17 q-15 -7 -18 -7 q-39 9 -72 76 q0 11 23 22 q13 6 17 10 q132 156 144 295 Z" /><glyph glyph-name="" unicode="&#x3123;" d="M225 772 q0 12 12 16 q69 -16 120 -56 q8 -7 8 -18 q0 -1 0 -2 q0 -5 -14 -20 q-16 -16 -18 -24 q-12 -36 -36 -288 q329 34 376 56 q3 1 11 8 q17 12 25 12 q57 -26 102 -74 q8 -13 0 -26 q-4 -5 -19 -16 q-10 -8 -15 -12 q-91 -321 -144 -372 q-25 -13 -28 8 q73 209 80 348 q5 48 -44 44 q-241 -6 -348 -52 q-3 -2 -9 -7 q-8 -9 -15 -9 q-48 19 -84 72 q0 9 17 25 q20 21 23 35 q26 151 20 260 q0 17 -16 76 q-4 15 -4 16 Z" /><glyph glyph-name="" unicode="&#x3124;" d="M542 324 l0 -200 q0 -45 20 -61 q17 -16 72 -15 q59 0 118 20 q24 8 34 8 q51 -14 65 -60 q-4 -36 -139 -39 l-132 0 q-101 4 -102 94 l0 245 q2 39 -15 81 q-4 8 -5 12 q-65 -303 -284 -453 q-14 -4 -21 3 q-6 8 1 21 q199 174 241 473 q-68 -15 -146 -37 q-14 -4 -15 -4 q-25 4 -56 32 q-21 22 -12 36 q139 14 236 30 q8 76 8 166 q0 22 -11 65 q-4 17 -5 23 q1 17 12 20 q4 -1 15 -4 q103 -25 93 -48 q-2 -5 -9 -14 q-10 -13 -11 -22 q-5 -92 -16 -173 q100 18 189 43 q20 6 23 6 q53 -14 74 -61 q6 -29 -54 -27 q-105 4 -241 -18 q-3 -15 -5 -31 q95 -16 110 -43 q1 -15 -14 -29 q-18 -17 -18 -39 Z" /><glyph glyph-name="" unicode="&#x3125;" d="M592 758 q4 16 24 14 q45 -22 100 -88 q8 -12 -5 -26 q-1 -1 -11 -6 q-14 -7 -18 -10 q-177 -291 -390 -570 q313 13 401 29 q21 3 23 3 q40 -3 76 -47 q28 -42 0 -57 q-6 1 -19 4 q-120 25 -233 20 q-230 -6 -259 -44 q-10 -8 -17 -11 q-16 -11 -24 -1 q-32 44 -44 89 q-4 16 4 22 q6 4 17 10 q16 8 23 15 q226 251 352 588 q3 6 0 66 Z" /><glyph glyph-name="" unicode="&#x3126;" d="M308 660 q-3 20 10 22 q91 -17 112 -56 q0 -1 0 -3 q1 -6 -1 -9 q-3 -7 -11 -19 q-8 -10 -8 -13 q20 -447 -233 -631 q-12 -10 -25 -2 q-10 9 0 21 q199 187 186 550 q-1 75 -25 124 q-5 12 -5 16 ZM596 617 l0 -361 q3 -186 152 -196 q11 0 28 6 q6 2 8 2 q46 -8 70 -54 q-1 -43 -70 -46 q-241 13 -248 288 l0 387 q-2 38 -20 74 q-8 17 -8 25 q-3 17 16 19 q68 -17 104 -66 q0 -2 0 -4 q1 -12 -3 -17 q0 0 -2 -3 q-27 -28 -27 -54 Z" /><glyph glyph-name="" unicode="&#x3127;" d="M536 684 l0 -496 q-1 -29 1 -72 q0 -39 0 -65 q-3 -100 -41 -101 q-30 25 -53 125 q0 6 8 18 q14 23 13 43 q5 106 6 169 q2 66 2 159 l0 192 q1 53 -23 119 q-7 17 -7 21 q3 17 15 19 q75 -20 102 -69 q0 -2 0 -5 q1 -7 -2 -10 q-21 -28 -21 -47 Z" /><glyph glyph-name="" unicode="&#x3128;" d="M187 -36 q-14 -3 -20 6 q-5 9 4 19 q179 146 312 348 q-127 131 -276 255 q-10 10 -6 18 q5 8 18 6 q147 -91 302 -220 q124 216 126 376 q-1 19 18 22 q44 -18 98 -74 q8 -9 1 -25 q-1 -2 -1 -3 q-2 -4 -9 -10 q-16 -14 -23 -34 q-45 -140 -154 -299 q252 -224 258 -321 q-3 -40 -38 -53 q-31 -7 -50 29 q-75 130 -216 282 q-167 -214 -344 -322 Z" /><glyph glyph-name="" unicode="&#x3129;" d="M770 656 l0 -93 q0 -118 26 -369 q10 -90 10 -106 q-2 -57 -24 -104 q-4 -7 -14 -8 q-2 0 -2 0 q-43 19 -60 88 q0 2 0 6 q-1 4 -1 6 q-206 -29 -343 -57 q-48 -9 -76 -37 q-14 -14 -28 -14 q-32 11 -64 83 q-1 16 16 29 q13 10 21 19 q63 146 71 480 q0 77 -23 122 q-6 10 -6 15 q-4 21 16 24 q113 -40 117 -80 q0 -7 -8 -13 q-12 -11 -16 -31 q-27 -338 -92 -524 q224 11 413 22 q-1 38 -2 135 q1 308 -27 407 q-7 34 -40 76 q-2 17 12 24 q101 -16 136 -48 q4 -4 4 -12 q0 -6 -8 -20 q-8 -14 -8 -20 Z" /><glyph glyph-name="" unicode="&#x3220;" d="M837 311 l-677 0 l0 85 l677 0 l0 -85 ZM145 811 l83 0 q-132 -204 -131 -463 q1 -252 131 -461 l-83 0 q-135 221 -135 462 q2 264 135 462 ZM771 811 l82 0 q135 -190 137 -462 q-1 -243 -136 -462 l-83 0 q131 208 132 461 q1 260 -132 463 Z" /><glyph glyph-name="" unicode="&#x3221;" d="M233 627 l534 0 l0 -85 l-534 0 l0 85 ZM166 156 l668 0 l0 -84 l-668 0 l0 84 ZM145 811 l83 0 q-132 -204 -131 -463 q1 -252 131 -461 l-83 0 q-135 221 -135 462 q2 264 135 462 ZM771 811 l82 0 q135 -190 137 -462 q-1 -243 -136 -462 l-83 0 q131 208 132 461 q1 260 -132 463 Z" /><glyph glyph-name="" unicode="&#x3222;" d="M217 569 l0 83 l567 0 l0 -83 l-567 0 ZM163 48 l0 83 l675 0 l0 -83 l-675 0 ZM268 325 l0 83 l462 0 l0 -83 l-462 0 ZM145 811 l83 0 q-132 -204 -131 -463 q1 -252 131 -461 l-83 0 q-135 221 -135 462 q2 264 135 462 ZM771 811 l82 0 q135 -190 137 -462 q-1 -243 -136 -462 l-83 0 q131 208 132 461 q1 260 -132 463 Z" /><glyph glyph-name="" unicode="&#x3223;" d="M206 37 l0 602 l587 0 l0 -602 l-83 0 l0 62 l-421 0 l0 -62 l-83 0 ZM532 340 l0 224 l-68 0 l0 -117 q5 -162 -131 -233 q-14 20 -44 48 l0 -88 l421 0 l0 75 q-44 -3 -84 0 q-95 2 -94 91 ZM710 564 l-97 0 l0 -201 q0 -34 31 -36 q29 -2 66 1 l0 236 ZM289 564 l0 -282 q54 32 74 71 q22 40 21 109 l0 102 l-95 0 ZM145 811 l83 0 q-132 -204 -131 -463 q1 -252 131 -461 l-83 0 q-135 221 -135 462 q2 264 135 462 ZM771 811 l82 0 q135 -190 137 -462 q-1 -243 -136 -462 l-83 0 q131 208 132 461 q1 260 -132 463 Z" /><glyph glyph-name="" unicode="&#x3224;" d="M206 580 l0 78 l588 0 l0 -78 l-286 0 l-27 -159 l237 0 l0 -300 l119 0 l0 -78 l-675 0 l0 78 l181 0 l37 225 l-125 0 l0 75 l138 0 l26 159 l-213 0 ZM633 346 l-165 0 l-37 -225 l202 0 l0 225 ZM145 811 l83 0 q-132 -204 -131 -463 q1 -252 131 -461 l-83 0 q-135 221 -135 462 q2 264 135 462 ZM771 811 l82 0 q135 -190 137 -462 q-1 -243 -136 -462 l-83 0 q131 208 132 461 q1 260 -132 463 Z" /><glyph glyph-name="" unicode="&#x3225;" d="M392 648 l79 45 q65 -48 129 -124 l-70 -58 q-66 77 -138 137 ZM175 407 l0 80 l653 0 l0 -80 l-653 0 ZM361 328 l79 -37 q-76 -162 -188 -275 q-36 28 -82 43 q120 116 191 269 ZM564 290 l77 40 q96 -107 189 -251 l-65 -65 q-102 164 -201 276 ZM145 811 l83 0 q-132 -204 -131 -463 q1 -252 131 -461 l-83 0 q-135 221 -135 462 q2 264 135 462 ZM771 811 l82 0 q135 -190 137 -462 q-1 -243 -136 -462 l-83 0 q131 208 132 461 q1 260 -132 463 Z" /><glyph glyph-name="" unicode="&#x3226;" d="M169 306 l-14 78 l247 38 l0 251 l89 0 l0 -237 l338 53 l14 -78 l-352 -55 l0 -205 q-2 -51 50 -50 l124 0 q48 -1 62 49 q8 27 17 71 q37 -37 76 -51 q-6 -34 -15 -60 q-25 -93 -128 -92 l-147 0 q-131 -3 -128 126 l0 198 l-233 -36 ZM145 811 l83 0 q-132 -204 -131 -463 q1 -252 131 -461 l-83 0 q-135 221 -135 462 q2 264 135 462 ZM771 811 l82 0 q135 -190 137 -462 q-1 -243 -136 -462 l-83 0 q131 208 132 461 q1 260 -132 463 Z" /><glyph glyph-name="" unicode="&#x3227;" d="M771 811 l82 0 q135 -190 137 -462 q-1 -243 -136 -462 l-83 0 q59 94 90 192 q3 0 2 4 q40 126 40 265 q1 260 -132 463 ZM145 811 l83 0 q-132 -204 -131 -463 q0 -145 44 -279 q0 -3 3 -10 q30 -86 84 -172 l-83 0 q-135 221 -135 462 q2 264 135 462 ZM551 669 l88 12 q11 -416 224 -598 l-2 -4 q-54 -24 -87 -58 q-205 207 -223 648 ZM341 645 l87 -15 q-4 -427 -204 -612 q-21 10 -60 36 q-17 12 -23 15 q200 171 200 576 Z" /><glyph glyph-name="" unicode="&#x3228;" d="M588 164 l12 302 l-121 0 q-19 -333 -246 -456 q-34 36 -82 57 q225 108 239 399 l-172 0 l0 78 l177 0 q2 69 2 150 l89 -5 q0 -79 -3 -145 l208 0 l-17 -386 q-3 -46 38 -46 l23 0 q33 0 43 45 q2 5 2 14 q4 17 9 45 q2 11 3 16 q31 -31 70 -43 q-3 -25 -9 -56 q-18 -108 -109 -103 l-46 0 q-122 -6 -110 134 ZM145 811 l83 0 q-132 -204 -131 -463 q1 -252 131 -461 l-83 0 q-135 221 -135 462 q2 264 135 462 ZM771 811 l82 0 q135 -190 137 -462 q-1 -243 -136 -462 l-83 0 q131 208 132 461 q1 260 -132 463 Z" /><glyph glyph-name="" unicode="&#x3229;" d="M163 339 l0 82 l292 0 l0 269 l89 0 l0 -269 l294 0 l0 -82 l-294 0 l0 -332 l-89 0 l0 332 l-292 0 ZM145 811 l83 0 q-132 -204 -131 -463 q1 -252 131 -461 l-83 0 q-135 221 -135 462 q2 264 135 462 ZM771 811 l82 0 q135 -190 137 -462 q-1 -243 -136 -462 l-83 0 q131 208 132 461 q1 260 -132 463 Z" /><glyph glyph-name="" unicode="&#x4e00;" d="M53 332 l0 101 l892 0 l0 -101 l-892 0 Z" /><glyph glyph-name="" unicode="&#x4e01;" d="M74 623 l0 99 l846 0 l0 -99 l-356 0 l0 -560 q2 -157 -157 -155 q-44 0 -93 7 q-4 58 -28 106 q59 -11 104 -11 q70 -2 68 70 l0 543 l-384 0 Z" /><glyph glyph-name="" unicode="&#x4e03;" d="M55 314 l-16 94 l333 52 l0 341 l106 0 l0 -324 l460 73 l18 -94 l-478 -76 l0 -283 q-2 -68 68 -66 l180 0 q67 -1 84 65 q12 35 22 92 q39 -42 91 -62 q-7 -37 -19 -77 q-32 -119 -162 -117 l-209 0 q-164 -3 -161 156 l0 276 l-317 -50 Z" /><glyph glyph-name="" unicode="&#x4e07;" d="M64 641 l0 95 l872 0 l0 -95 l-507 0 q0 -3 0 -11 q-2 -109 -6 -162 l406 0 l-15 -380 q-6 -168 -166 -169 q-44 0 -106 6 q-1 51 -24 104 q64 -11 113 -11 q77 0 79 84 l11 274 l-307 0 q-34 -313 -260 -483 q-40 43 -98 62 q247 165 263 498 q4 79 6 188 l-261 0 Z" /><glyph glyph-name="" unicode="&#x4e08;" d="M882 -93 q-259 64 -405 172 q-117 -103 -353 -181 q-24 48 -72 85 q232 69 346 162 q-107 102 -190 266 l80 58 q79 -157 182 -250 q87 108 95 293 l-484 0 l0 97 l487 0 q1 37 1 84 q0 23 0 50 q0 24 0 63 l104 -8 q0 -69 0 -108 q0 -45 -1 -81 l240 0 l0 -97 l-244 0 l0 -8 q-11 -216 -117 -349 q151 -102 405 -145 q-48 -42 -74 -103 Z" /><glyph glyph-name="" unicode="&#x4e09;" d="M119 621 l0 97 l760 0 l0 -97 l-760 0 ZM52 -53 l0 98 l894 0 l0 -98 l-894 0 ZM184 305 l0 97 l627 0 l0 -97 l-627 0 Z" /><glyph glyph-name="" unicode="&#x4e0a;" d="M52 -68 l0 95 l364 0 l0 777 l106 0 l0 -300 l339 0 l0 -94 l-339 0 l0 -383 l425 0 l0 -95 l-895 0 Z" /><glyph glyph-name="" unicode="&#x4e0b;" d="M64 649 l0 96 l869 0 l0 -96 l-401 0 l0 -754 l-106 0 l0 754 l-362 0 ZM802 167 q-117 126 -269 256 l84 53 q135 -107 251 -225 l-66 -84 Z" /><glyph glyph-name="" unicode="&#x4e0d;" d="M81 648 l0 93 l844 0 l0 -93 l-335 0 q-33 -91 -81 -170 l47 0 l0 -583 l-105 0 l0 497 q-127 -168 -321 -290 q-37 46 -93 68 q330 197 440 478 l-396 0 ZM891 98 q-152 161 -312 299 l83 57 q167 -133 293 -270 l-64 -86 Z" /><glyph glyph-name="" unicode="&#x4e0e;" d="M695 -98 q-44 0 -110 8 q-4 55 -24 101 q74 -12 117 -12 q89 -3 91 94 l13 258 l-575 0 l39 454 l103 -7 l-11 -116 l569 0 l0 -90 l-577 0 l-13 -151 l572 0 l-19 -365 q-8 -174 -175 -174 ZM63 123 l0 90 l642 0 l0 -90 l-642 0 Z" /><glyph glyph-name="" unicode="&#x4e10;" d="M73 665 l0 87 l853 0 l0 -87 l-377 0 l0 -124 l310 0 l0 -85 l-310 0 l0 -126 l328 0 l-17 -256 q-9 -169 -181 -167 q-55 0 -122 8 q-3 49 -28 96 q77 -10 140 -10 q87 -2 91 87 l12 154 l-618 0 l34 352 l99 -8 l-26 -256 l189 0 l0 335 l-377 0 Z" /><glyph glyph-name="" unicode="&#x4e11;" d="M169 309 l0 92 l188 0 l22 253 l-229 0 l0 93 l673 0 l-26 -722 l153 0 l0 -93 l-902 0 l0 93 l277 0 l24 284 l-180 0 ZM453 309 l-25 -284 l265 0 l11 284 l-251 0 ZM717 654 l-234 0 l-22 -253 l246 0 l10 253 Z" /><glyph glyph-name="" unicode="&#x4e13;" d="M137 598 l0 88 l269 0 q21 82 30 130 l103 -22 q-15 -62 -27 -108 l354 0 l0 -88 l-379 0 q-16 -56 -34 -107 l485 0 l0 -89 l-516 0 q-23 -61 -41 -101 l434 0 l0 -74 q-63 -99 -163 -205 q59 -23 108 -45 l-25 -95 q-247 108 -481 176 l47 84 q112 -31 253 -82 q82 84 134 155 l-423 0 l0 75 q23 47 48 112 l-253 0 l0 89 l286 0 q10 29 29 92 q3 10 5 15 l-243 0 Z" /><glyph glyph-name="" unicode="&#x4e14;" d="M46 -68 l0 92 l176 0 l0 730 l554 0 l0 -730 l176 0 l0 -92 l-906 0 ZM325 180 l0 -156 l348 0 l0 156 l-348 0 ZM325 421 l0 -154 l348 0 l0 154 l-348 0 ZM325 663 l0 -154 l348 0 l0 154 l-348 0 Z" /><glyph glyph-name="" unicode="&#x4e16;" d="M43 439 l0 92 l138 0 l0 248 l102 0 l0 -248 l156 0 l0 271 l102 0 l0 -271 l153 0 l0 271 l102 0 l0 -271 l159 0 l0 -92 l-159 0 l0 -292 l-357 0 l0 292 l-156 0 l0 -414 l627 0 l0 -93 l-729 0 l0 507 l-138 0 ZM541 239 l153 0 l0 200 l-153 0 l0 -200 Z" /><glyph glyph-name="" unicode="&#x4e18;" d="M41 -63 l0 94 l166 0 l0 681 q353 11 570 68 l60 -84 q-208 -51 -527 -67 l0 -194 l584 0 l0 -91 l-181 0 l0 -313 l244 0 l0 -94 l-916 0 ZM310 344 l0 -313 l299 0 l0 313 l-299 0 Z" /><glyph glyph-name="" unicode="&#x4e19;" d="M58 668 l0 88 l883 0 l0 -88 l-390 0 q-2 -90 -4 -128 l322 0 l0 -488 q-1 -145 -142 -146 q-47 0 -92 5 q-3 49 -26 96 q46 -8 92 -9 q71 0 71 68 l0 386 l-233 0 q-4 -29 -10 -56 q118 -112 226 -238 l-68 -74 q-99 123 -188 216 q-48 -121 -189 -231 q-30 38 -83 59 q196 141 215 324 l-216 0 l0 -557 l-97 0 l0 645 l322 0 q1 48 3 128 l-396 0 Z" /><glyph glyph-name="" unicode="&#x4e1a;" d="M47 -62 l0 93 l286 0 l0 771 l102 0 l0 -771 l129 0 l0 771 l102 0 l0 -550 q102 189 151 350 l94 -43 q-64 -189 -158 -356 q-43 23 -87 30 l0 -202 l286 0 l0 -93 l-905 0 ZM233 203 q-79 214 -158 372 l101 23 q83 -164 146 -342 l-89 -53 Z" /><glyph glyph-name="" unicode="&#x4e1b;" d="M882 76 q-156 141 -211 335 q-53 -207 -222 -340 q-37 38 -93 59 q236 167 248 461 q4 93 4 213 l97 -3 q0 -89 -3 -182 q49 -313 270 -469 q-50 -23 -90 -74 ZM436 276 q-60 86 -109 146 q-46 -198 -204 -337 q-38 37 -92 56 q205 159 222 441 q7 100 7 222 l98 -4 q-1 -137 -9 -238 q-1 -14 -3 -26 q97 -109 160 -193 l-70 -67 ZM69 -69 l0 95 l860 0 l0 -95 l-860 0 Z" /><glyph glyph-name="" unicode="&#x4e1c;" d="M76 590 l0 91 l282 0 q36 73 63 139 l99 -35 q-24 -53 -48 -104 l452 0 l0 -91 l-500 0 q-61 -114 -132 -213 l202 0 l0 150 l101 0 l0 -150 l272 0 l0 -91 l-272 0 l0 -243 q2 -145 -136 -143 q-30 0 -100 10 q-2 52 -22 100 q56 -11 98 -12 q62 -3 59 67 l0 221 l-330 0 l0 88 q67 79 145 216 l-233 0 ZM155 -69 q-48 35 -98 47 q144 118 220 253 l85 -44 q-83 -150 -207 -256 ZM886 -65 q-109 135 -216 236 l83 47 q119 -111 204 -216 l-71 -67 Z" /><glyph glyph-name="" unicode="&#x4e1d;" d="M547 115 l-41 85 q42 15 74 49 q59 68 121 157 l-115 -8 q-28 -1 -63 -13 l-39 73 q34 15 61 52 q91 133 167 298 l87 -37 q-81 -165 -167 -288 l125 8 q39 57 83 135 l82 -45 q-110 -187 -243 -355 l197 19 l22 -83 l-275 -27 q-47 -5 -76 -20 ZM148 118 l-46 85 q41 13 76 52 q52 59 110 146 l-106 -8 q-30 -2 -63 -13 l-39 73 q39 20 60 52 q96 142 167 302 l88 -38 q-89 -180 -167 -289 l115 6 q44 72 85 146 l82 -43 q-116 -204 -232 -357 l186 21 l22 -81 l-265 -32 q-39 -6 -73 -22 ZM54 -64 l0 94 l892 0 l0 -94 l-892 0 Z" /><glyph glyph-name="" unicode="&#x4e22;" d="M180 642 q-12 43 -49 87 q388 1 657 49 l57 -83 q-142 -22 -297 -34 l0 -127 l281 0 l0 -87 l-281 0 l0 -125 l384 0 l0 -88 l-453 0 q-64 -92 -163 -194 l358 18 q-58 64 -94 102 l82 41 q122 -119 221 -244 l-65 -71 q-32 42 -72 89 l-481 -28 q-55 -5 -92 -15 l-41 83 q49 14 96 64 q72 69 136 155 l-298 0 l0 88 l384 0 l0 125 l-281 0 l0 87 l281 0 l0 119 q-150 -10 -270 -11 Z" /><glyph glyph-name="" unicode="&#x4e24;" d="M73 666 l0 88 l853 0 l0 -88 l-260 0 q-2 -85 -4 -133 l212 0 l0 -487 q0 -144 -133 -144 q-40 0 -83 5 q-2 47 -25 94 q46 -6 85 -6 q61 -2 59 64 l0 89 l-60 -48 q-43 74 -93 147 q-30 -107 -92 -206 q-46 24 -95 29 q116 150 128 376 l-134 0 q-4 -46 -11 -88 q57 -60 104 -118 l-64 -62 q-39 53 -63 80 q-30 -102 -95 -192 q-36 20 -79 29 l0 -197 l-98 0 l0 635 l217 0 q1 62 1 54 q0 15 0 33 q0 16 0 46 l-270 0 ZM223 446 l0 -326 q98 119 113 326 l-113 0 ZM777 446 l-120 0 q-3 -48 -10 -92 q75 -96 130 -182 l0 274 ZM439 666 q0 -15 -1 -44 q-1 -59 -2 -89 l133 0 q2 61 2 133 l-132 0 Z" /><glyph glyph-name="" unicode="&#x4e25;" d="M132 672 l0 84 l783 0 l0 -84 l-253 0 l0 -237 l267 0 l0 -85 l-690 0 l0 -54 q4 -250 -125 -404 q-42 31 -89 47 q121 136 117 364 l0 132 l243 0 l0 237 l-253 0 ZM476 672 l0 -237 l95 0 l0 237 l-95 0 ZM778 456 q-32 22 -84 38 q64 79 104 157 l83 -39 q-45 -83 -103 -156 ZM263 457 q-45 82 -105 158 l88 31 q55 -70 93 -139 l-76 -50 Z" /><glyph glyph-name="" unicode="&#x4e27;" d="M123 614 l0 87 l326 0 l0 104 l99 0 l0 -104 l327 0 l0 -87 l-327 0 l0 -224 l396 0 l0 -87 l-405 0 q34 -78 86 -137 q107 64 174 127 l77 -59 q-89 -74 -185 -130 q102 -78 267 -117 q-44 -31 -75 -86 q-335 97 -444 402 l-136 0 l0 -262 l143 72 l51 -73 l-205 -109 q-43 -24 -69 -47 l-49 83 q32 32 31 86 l0 250 l-152 0 l0 87 l396 0 l0 224 l-326 0 ZM680 397 q-33 30 -76 49 q78 75 131 155 l80 -46 q-60 -87 -135 -158 ZM317 392 q-63 86 -138 157 l80 45 q67 -63 127 -142 l-69 -60 Z" /><glyph glyph-name="" unicode="&#x4e2a;" d="M910 321 q-264 123 -412 333 q-140 -217 -395 -353 q-33 44 -88 75 q333 160 456 443 l94 -38 q-9 -22 -20 -43 q166 -223 442 -324 q-44 -34 -77 -93 ZM445 -105 l0 581 l108 0 l0 -581 l-108 0 Z" /><glyph glyph-name="" unicode="&#x4e2d;" d="M446 -105 l0 314 l-247 0 l0 -72 l-102 0 l0 487 l349 0 l0 181 l104 0 l0 -181 l350 0 l0 -487 l-101 0 l0 72 l-249 0 l0 -314 l-104 0 ZM799 529 l-249 0 l0 -225 l249 0 l0 225 ZM199 529 l0 -225 l247 0 l0 225 l-247 0 Z" /><glyph glyph-name="" unicode="&#x4e30;" d="M118 570 l0 92 l329 0 l0 143 l104 0 l0 -143 l329 0 l0 -92 l-329 0 l0 -134 l275 0 l0 -92 l-275 0 l0 -140 l393 0 l0 -93 l-393 0 l0 -216 l-104 0 l0 216 l-392 0 l0 93 l392 0 l0 140 l-274 0 l0 92 l274 0 l0 134 l-329 0 Z" /><glyph glyph-name="" unicode="&#x4e32;" d="M451 -105 l0 174 l-241 0 l0 -57 l-93 0 l0 335 l334 0 l0 91 l-290 0 l0 261 l290 0 l0 106 l97 0 l0 -106 l290 0 l0 -261 l-290 0 l0 -91 l333 0 l0 -335 l-93 0 l0 57 l-240 0 l0 -174 l-97 0 ZM210 269 l0 -121 l241 0 l0 121 l-241 0 ZM788 269 l-240 0 l0 -121 l240 0 l0 121 ZM251 514 l200 0 l0 108 l-200 0 l0 -108 ZM748 622 l-200 0 l0 -108 l200 0 l0 108 Z" /><glyph glyph-name="" unicode="&#x4e34;" d="M437 -105 l0 484 l470 0 l0 -484 l-89 0 l0 69 l-291 0 l0 -69 l-90 0 ZM263 -105 l0 909 l91 0 l0 -349 q147 164 200 357 l88 -27 q-16 -54 -39 -107 l330 0 l0 -83 l-370 0 q-55 -103 -127 -183 q-44 24 -82 30 l0 -547 l-91 0 ZM91 29 l0 666 l90 0 l0 -666 l-90 0 ZM818 296 l-103 0 l0 -249 l103 0 l0 249 ZM527 296 l0 -249 l101 0 l0 249 l-101 0 ZM746 382 q-68 76 -159 151 l69 50 q69 -52 144 -129 l-54 -72 Z" /><glyph glyph-name="" unicode="&#x4e38;" d="M513 84 q-63 51 -132 102 q-74 -174 -260 -293 q-42 43 -97 65 q203 116 270 290 q-84 57 -167 110 l74 64 q62 -38 122 -77 q18 79 22 178 l-230 0 l0 93 l233 0 q1 71 1 189 l105 -6 q0 -68 0 -104 q0 -42 -1 -79 l294 0 l-22 -531 q-4 -63 48 -61 l38 0 q43 -2 56 61 q8 32 17 97 q44 -45 86 -55 q-8 -52 -14 -77 q-21 -129 -134 -125 l-62 0 q-148 -3 -138 165 l17 433 l-189 0 q-6 -133 -35 -240 q74 -52 141 -106 l-43 -93 Z" /><glyph glyph-name="" unicode="&#x4e39;" d="M45 275 l0 90 l187 0 l0 395 l553 0 l0 -395 l168 0 l0 -90 l-168 0 l0 -228 q0 -142 -142 -142 q-35 0 -83 4 q-4 52 -26 100 q46 -8 87 -8 q67 -3 64 66 l0 208 l-356 0 q-10 -235 -154 -385 q-45 37 -104 56 q143 128 158 329 l-184 0 ZM331 670 l0 -305 l354 0 l0 305 l-354 0 ZM521 407 q-55 97 -116 174 l88 32 q68 -83 109 -158 l-81 -48 Z" /><glyph glyph-name="" unicode="&#x4e3a;" d="M704 -84 q-58 0 -103 5 q-3 55 -28 102 q66 -9 114 -9 q83 -1 87 86 l16 375 l-286 0 q-61 -386 -362 -578 q-43 47 -95 68 q297 173 353 510 l-302 0 l0 90 l315 0 q13 113 16 243 l104 -7 q-6 -123 -17 -236 l379 0 l-19 -484 q-7 -166 -172 -165 ZM631 136 q-68 98 -144 178 l83 47 q65 -66 133 -159 l-72 -66 ZM295 587 q-62 78 -127 133 l80 51 q64 -54 119 -122 l-72 -62 Z" /><glyph glyph-name="" unicode="&#x4e3b;" d="M94 545 l0 92 l395 0 q-35 51 -121 146 l110 32 q80 -81 120 -144 l-70 -34 l376 0 l0 -92 l-352 0 l0 -205 l290 0 l0 -92 l-290 0 l0 -219 l391 0 l0 -93 l-889 0 l0 93 l392 0 l0 219 l-291 0 l0 92 l291 0 l0 205 l-352 0 Z" /><glyph glyph-name="" unicode="&#x4e3d;" d="M719 146 q-50 126 -95 216 l0 -465 l-92 0 l0 681 l350 0 l0 -562 q2 -115 -105 -113 q-32 0 -65 5 q-2 45 -22 86 q37 -5 61 -5 q41 -2 39 46 l0 457 l-166 0 l0 -114 l66 20 q55 -102 97 -214 l-68 -38 ZM296 152 q-37 111 -87 224 l0 -479 l-93 0 l0 681 l345 0 l0 -554 q1 -122 -109 -121 q-25 0 -61 4 q-5 51 -23 85 q25 -5 57 -6 q46 -4 43 53 l0 453 l-159 0 l0 -112 l71 19 q55 -115 86 -212 l-70 -35 ZM57 666 l0 88 l886 0 l0 -88 l-886 0 Z" /><glyph glyph-name="" unicode="&#x4e3e;" d="M79 482 l0 84 l227 0 q-67 77 -165 162 l76 51 q69 -57 150 -145 l-59 -68 l280 0 q105 112 181 228 l82 -49 q-68 -95 -147 -179 l213 0 l0 -84 l-254 0 q125 -133 321 -200 q-45 -35 -73 -78 q-93 39 -172 98 l0 -67 l-194 0 l0 -94 l342 0 l0 -85 l-342 0 l0 -161 l-95 0 l0 161 l-340 0 l0 85 l340 0 l0 94 l-193 0 l0 67 q-82 -61 -174 -102 q-29 37 -73 62 q181 76 317 220 l-248 0 ZM545 410 l0 -93 l174 0 q-99 77 -163 165 l-124 0 q-63 -91 -156 -165 l174 0 l0 93 l95 0 ZM508 606 q-55 86 -130 170 l82 39 q64 -74 117 -153 l-69 -56 Z" /><glyph glyph-name="" unicode="&#x4e43;" d="M707 -84 q-43 0 -96 6 q-8 56 -34 104 q70 -10 106 -10 q99 -3 103 92 l19 233 l-129 0 q-30 0 -70 -5 l-24 71 q32 18 45 62 l55 189 l-229 0 q-13 -538 -321 -757 q-42 40 -103 62 q312 192 321 695 l-211 0 l0 91 l652 0 l0 -78 l-74 -241 l194 0 l-24 -349 q-12 -165 -180 -165 Z" /><glyph glyph-name="" unicode="&#x4e45;" d="M151 -105 q-41 48 -96 76 q439 177 557 587 l-228 0 q-82 -161 -179 -254 q-44 30 -102 41 q188 183 267 461 l96 -35 q-15 -59 -40 -119 l299 0 l0 -82 q-39 -151 -113 -274 q131 -212 362 -299 q-59 -33 -97 -90 q-203 104 -323 302 q-155 -204 -403 -314 Z" /><glyph glyph-name="" unicode="&#x4e48;" d="M850 -109 q-24 36 -51 75 l-517 -29 q-64 -4 -112 -18 l-43 92 q71 24 128 85 q229 232 407 507 l95 -54 q-197 -293 -421 -513 l398 21 q-61 83 -121 153 l92 44 q95 -109 221 -294 l-76 -69 ZM138 263 q-41 40 -99 55 q260 213 416 493 l97 -46 q-168 -295 -414 -502 Z" /><glyph glyph-name="" unicode="&#x4e49;" d="M883 -91 q-216 86 -375 222 q-152 -138 -386 -231 q-31 48 -88 81 q242 87 397 224 q-177 184 -281 455 l95 47 q96 -257 262 -426 q158 177 223 451 l98 -42 q-75 -291 -242 -481 q161 -132 379 -199 q-53 -42 -82 -101 ZM491 550 q-50 124 -114 234 l94 26 q58 -96 108 -216 l-88 -44 Z" /><glyph glyph-name="" unicode="&#x4e4b;" d="M115 -100 l-76 71 q61 99 109 153 q35 40 77 41 q11 0 23 -3 q269 173 457 348 l-599 0 l0 94 l389 0 q-72 89 -151 161 l107 47 q78 -70 147 -156 l-74 -52 l338 0 l0 -79 q-193 -215 -523 -424 q84 -63 242 -67 q172 -9 384 5 q-31 -55 -33 -109 q-245 -2 -363 6 q-209 2 -316 108 q-17 15 -26 14 q-9 0 -24 -18 q-42 -54 -88 -140 Z" /><glyph glyph-name="" unicode="&#x4e4c;" d="M735 -95 q-44 0 -87 6 q-2 48 -23 94 q58 -10 96 -10 q79 -3 82 77 l10 181 l-596 0 l0 453 l154 0 q43 60 63 111 l102 -28 q-21 -44 -46 -83 l294 0 l-10 -196 q-10 -119 -134 -123 q-42 0 -100 6 q-3 51 -22 92 q54 -9 97 -10 q59 -1 61 52 l5 94 l-364 0 l0 -282 l601 0 l-16 -286 q-3 -153 -167 -148 ZM63 79 l0 86 l665 0 l0 -86 l-665 0 Z" /><glyph glyph-name="" unicode="&#x4e4d;" d="M146 334 q-38 35 -102 49 q186 178 275 437 l100 -46 q-20 -51 -49 -111 l580 0 l0 -93 l-457 0 l0 -151 l354 0 l0 -90 l-354 0 l0 -152 l405 0 l0 -90 l-405 0 l0 -192 l-105 0 l0 675 l-68 0 q-84 -145 -174 -236 Z" /><glyph glyph-name="" unicode="&#x4e4e;" d="M45 249 l0 92 l412 0 l0 297 q-157 -10 -312 -12 q-17 55 -45 93 q450 2 711 56 l62 -89 q-132 -25 -312 -40 l0 -305 l392 0 l0 -92 l-392 0 l0 -196 q3 -151 -149 -148 q-42 0 -91 7 q-8 60 -29 100 q59 -8 98 -8 q68 -1 67 66 l0 179 l-412 0 ZM695 363 q-34 34 -79 49 q102 86 176 193 l76 -51 q-82 -114 -173 -191 ZM325 364 q-87 97 -183 174 l80 52 q91 -75 163 -154 l-60 -72 Z" /><glyph glyph-name="" unicode="&#x4e4f;" d="M113 -84 l-77 67 q54 74 102 127 q32 35 76 35 q12 0 26 -4 q219 97 430 232 l-548 0 l0 91 l388 0 q-56 69 -128 139 l97 44 q65 -60 123 -134 l-65 -49 l317 0 l0 -75 q-193 -163 -514 -309 q82 -48 244 -52 q173 -8 379 6 q-30 -50 -32 -104 q-64 -1 -112 0 q-50 0 -91 0 q-85 1 -147 5 q-231 4 -338 97 q-21 15 -26 14 q-9 1 -24 -17 q-40 -50 -80 -113 ZM136 647 q-16 57 -40 89 q455 -4 746 47 l61 -81 q-346 -54 -767 -55 Z" /><glyph glyph-name="" unicode="&#x4e50;" d="M138 325 l41 408 q371 7 625 54 l53 -86 q-254 -44 -583 -55 l-24 -231 l227 0 l0 188 l102 0 l0 -188 l313 0 l0 -90 l-313 0 l0 -276 q3 -151 -140 -147 q-42 0 -96 8 q-3 57 -23 101 q58 -10 95 -10 q65 -3 62 65 l0 259 l-339 0 ZM149 -51 q-42 32 -96 45 q138 131 206 266 l88 -41 q-72 -146 -198 -270 ZM873 -44 q-99 137 -209 256 l90 43 q112 -117 196 -231 l-77 -68 Z" /><glyph glyph-name="" unicode="&#x4e52;" d="M49 179 l0 87 l178 0 l0 478 q324 1 553 45 l59 -82 q-208 -40 -511 -48 l0 -135 l551 0 l0 -87 l-168 0 l0 -171 l240 0 l0 -87 l-902 0 ZM328 437 l0 -171 l285 0 l0 171 l-285 0 ZM175 -111 q-40 44 -84 71 q169 78 279 194 l83 -60 q-117 -119 -278 -205 Z" /><glyph glyph-name="" unicode="&#x4e53;" d="M49 179 l0 87 l177 0 l0 478 q323 1 552 45 l58 -82 q-208 -40 -511 -48 l0 -135 l550 0 l0 -87 l-161 0 l0 -171 l237 0 l0 -87 l-902 0 ZM325 437 l0 -171 l291 0 l0 171 l-291 0 ZM850 -110 q-152 114 -299 192 l70 68 q147 -78 275 -171 l-46 -89 Z" /><glyph glyph-name="" unicode="&#x4e54;" d="M193 648 q-11 46 -43 88 q351 -4 629 35 l51 -84 q-136 -19 -285 -29 q-14 -64 -37 -120 l410 0 l0 -87 l-263 0 q121 -121 324 -174 q-41 -31 -67 -87 q-113 39 -200 99 l0 -388 l-101 0 l0 405 l78 0 q-85 64 -145 145 l-80 0 q-48 -79 -128 -145 l79 0 l0 -87 q9 -227 -212 -337 q-37 40 -84 61 q117 59 156 118 q42 57 41 162 l0 67 q-88 -66 -207 -112 q-27 45 -78 77 q219 71 318 196 l-267 0 l0 87 l322 0 q26 52 39 115 q-135 -6 -250 -5 Z" /><glyph glyph-name="" unicode="&#x4e56;" d="M183 670 q-15 43 -44 83 q377 -2 644 38 l59 -79 q-121 -17 -295 -29 l0 -99 l392 0 l0 -84 l-392 0 l0 -605 l-98 0 l0 605 l-389 0 l0 84 l389 0 l0 93 q-159 -7 -266 -7 ZM738 41 q-109 0 -109 114 l0 291 l88 0 l0 -117 q84 33 155 79 l54 -68 q-94 -56 -209 -95 l0 -79 q-1 -44 42 -43 l32 0 q44 -3 54 42 q8 29 13 59 q36 -30 74 -41 q-3 -15 -10 -52 q-2 -5 -2 -7 q-23 -87 -115 -83 l-67 0 ZM86 293 l0 77 l190 0 l0 76 l88 0 l0 -412 l-88 0 l0 87 l-182 -66 l-43 80 l225 67 l0 91 l-190 0 Z" /><glyph glyph-name="" unicode="&#x4e58;" d="M892 -66 q-236 93 -353 266 l4 -25 l0 -279 l-95 0 l0 279 l3 23 q-123 -169 -332 -266 q-27 35 -78 70 q185 73 309 198 l-67 0 l0 39 l-170 -51 l-42 74 l212 51 l0 63 l-183 0 l0 76 l183 0 l0 54 l85 0 l0 -286 q50 55 80 116 l0 205 l-377 0 l0 78 l377 0 l0 64 q-154 -7 -258 -7 q-15 45 -42 78 q363 -2 619 38 l57 -75 q-120 -16 -281 -28 l0 -70 l377 0 l0 -78 l-377 0 l0 -204 q118 -237 422 -317 q-43 -34 -73 -86 ZM725 196 q-102 3 -105 105 l0 204 l86 0 l0 -85 q94 35 149 69 l58 -58 q-95 -50 -207 -81 l0 -34 q-1 -44 39 -43 l47 0 q40 -3 50 40 q6 23 11 51 q36 -29 73 -40 q-6 -26 -13 -49 q-21 -82 -109 -79 l-79 0 Z" /><glyph glyph-name="" unicode="&#x4e59;" d="M333 -68 q-198 4 -204 155 q-2 101 113 202 q164 147 415 344 l-532 0 l0 96 l706 0 l0 -87 q-312 -249 -511 -426 q-76 -69 -75 -117 q1 -70 111 -70 l335 0 q99 -4 119 92 q13 55 21 95 q40 -45 94 -65 q-1 -3 -2 -9 q-10 -46 -16 -63 q-23 -83 -65 -115 q-40 -33 -123 -32 l-386 0 Z" /><glyph glyph-name="" unicode="&#x4e5d;" d="M755 -78 q-154 -7 -140 166 l18 420 l-175 0 q-26 -446 -335 -612 q-41 42 -98 67 q309 153 327 545 l-237 0 l0 94 l242 0 q4 122 4 203 l106 -6 q0 -109 -3 -197 l278 0 l-23 -522 q-3 -61 52 -60 l38 0 q47 -3 59 60 q5 24 16 87 q1 7 2 10 q37 -39 85 -54 q-7 -42 -13 -72 q-20 -135 -137 -129 l-66 0 Z" /><glyph glyph-name="" unicode="&#x4e5e;" d="M366 -74 q-170 1 -172 115 q0 75 81 133 q131 97 309 197 q25 12 41 17 l-388 0 l0 90 l559 0 l0 -85 q-319 -189 -437 -273 q-47 -35 -47 -65 q-1 -37 70 -37 l348 0 q89 -7 105 79 q8 28 16 69 q34 -42 83 -61 q-9 -40 -17 -61 q-35 -123 -168 -118 l-383 0 ZM133 397 q-44 34 -95 51 q185 172 259 372 l96 -37 q-15 -42 -38 -87 l553 0 l0 -92 l-605 0 q-81 -128 -170 -207 Z" /><glyph glyph-name="" unicode="&#x4e5f;" d="M365 -68 q-165 -1 -164 151 l0 321 l-135 -33 l-25 89 l160 39 l0 227 l101 0 l0 -203 l169 41 l0 241 l101 0 l0 -216 l277 68 l-10 -349 q-4 -135 -121 -134 q-29 0 -64 5 q-3 43 -24 92 q30 -6 60 -6 q50 -2 50 57 l6 215 l-174 -43 l0 -394 l-101 0 l0 370 l-169 -42 l0 -331 q2 -66 69 -68 l379 0 q78 -2 101 80 q9 26 18 78 q40 -45 89 -63 q-7 -35 -17 -69 q-33 -129 -187 -123 l-389 0 Z" /><glyph glyph-name="" unicode="&#x4e60;" d="M680 -83 q-55 0 -118 6 q-1 54 -26 106 q79 -12 123 -12 q95 -2 97 104 l13 505 l-653 0 l0 95 l759 0 l-17 -612 q-2 -194 -178 -192 ZM134 18 l-59 88 q285 103 577 255 l54 -79 q-276 -146 -572 -264 ZM419 318 q-90 100 -205 189 l81 62 q117 -92 192 -174 l-68 -77 Z" /><glyph glyph-name="" unicode="&#x4e61;" d="M202 178 l-37 90 q66 15 123 58 q79 58 172 136 l-188 -9 q-63 -5 -93 -12 l-35 88 q56 13 96 48 q110 94 234 237 l94 -45 q-127 -144 -235 -231 l225 9 q93 85 160 158 l90 -50 q-215 -221 -434 -375 l309 17 q51 73 89 184 l89 -51 q-130 -421 -692 -540 q-27 46 -79 83 q363 75 521 236 l-304 -18 q-44 -1 -105 -13 Z" /><glyph glyph-name="" unicode="&#x4e66;" d="M878 531 q-26 25 -96 87 l-15 -273 l150 0 l-12 -240 q-6 -152 -158 -150 q-40 0 -93 5 q-3 56 -23 99 q69 -9 99 -9 q74 -2 76 71 l7 135 l-320 0 l0 -361 l-101 0 l0 361 l-323 0 l0 89 l323 0 l0 198 l-267 0 l0 90 l267 0 l0 172 l101 0 l0 -172 l271 0 q-74 62 -128 102 l76 57 q105 -74 219 -179 l-53 -82 ZM678 543 l-185 0 l0 -198 l174 0 l11 198 Z" /><glyph glyph-name="" unicode="&#x4e70;" d="M59 185 l0 90 l436 0 q1 1 1 2 q1 2 1 3 q34 118 32 351 l101 -8 q-2 -223 -33 -347 l0 -1 l342 0 l0 -90 l-372 0 q-97 -220 -448 -290 q-23 53 -63 90 q310 55 399 200 l-396 0 ZM847 494 q-43 13 -96 14 l54 155 l-707 0 l0 89 l808 0 l0 -82 l-59 -176 ZM879 -107 q-164 105 -320 177 l62 69 q156 -68 295 -157 l-37 -89 ZM339 293 q-120 74 -221 120 l56 69 q106 -48 205 -111 l-40 -78 ZM424 442 q-111 73 -210 120 l53 63 q108 -51 195 -108 l-38 -75 Z" /><glyph glyph-name="" unicode="&#x4e71;" d="M102 641 q-14 47 -44 80 q233 11 406 53 l53 -76 q-83 -21 -166 -33 l0 -135 l199 0 l0 -84 l-199 0 l0 -127 l147 0 l0 -393 l-97 0 l0 58 l-199 0 l0 -78 l-96 0 l0 413 l147 0 l0 127 l-205 0 l0 84 l205 0 l0 123 q-77 -9 -151 -12 ZM744 -77 q-138 -4 -134 140 l0 740 l99 0 l0 -727 q-2 -60 55 -58 l42 0 q50 -3 65 65 q11 54 15 78 q37 -37 83 -52 q-5 -35 -13 -66 q-29 -124 -142 -120 l-70 0 ZM202 237 l0 -171 l199 0 l0 171 l-199 0 Z" /><glyph glyph-name="" unicode="&#x4e73;" d="M71 96 l-32 79 l235 42 l0 70 q58 34 107 77 l-284 0 l0 77 l411 0 l0 -68 q-59 -60 -141 -114 l0 -25 l173 31 l28 -75 l-201 -38 l0 -121 q0 -127 -118 -127 q-30 0 -80 6 q-4 47 -24 89 q47 -9 84 -9 q46 -1 45 50 l0 94 l-203 -38 ZM742 -77 q-130 -3 -127 137 l0 741 l92 0 l0 -728 q0 -60 56 -60 l48 0 q54 -2 69 68 q10 40 15 77 q38 -37 79 -51 q-7 -42 -14 -63 q-29 -127 -136 -121 l-82 0 ZM93 652 q-14 47 -44 81 q270 5 455 51 l55 -74 q-216 -43 -466 -58 ZM462 458 q-30 20 -74 31 q59 87 93 167 l77 -39 q-40 -83 -96 -159 ZM150 453 q-37 73 -88 143 l81 31 q40 -57 76 -128 l-69 -46 ZM299 485 q-28 80 -67 149 l85 17 q29 -57 56 -132 l-74 -34 Z" /><glyph glyph-name="" unicode="&#x4e7e;" d="M528 443 q-24 23 -51 40 l0 -279 l-145 0 l0 -77 l183 0 l0 -79 l-183 0 l0 -153 l-90 0 l0 153 l-200 0 l0 79 l200 0 l0 77 l-146 0 l0 339 l146 0 l0 81 l-184 0 l0 78 l184 0 l0 101 l90 0 l0 -101 l175 0 l0 -78 l-175 0 l0 -81 l145 0 l0 -18 q99 133 141 288 l84 -35 q-16 -52 -36 -100 l280 0 l0 -86 l-320 0 q-45 -88 -98 -149 ZM674 -74 q-128 3 -133 107 q-1 55 38 110 q68 102 174 239 l-199 0 l0 85 l320 0 l0 -75 q-149 -191 -214 -290 q-21 -30 -21 -53 q0 -37 57 -37 l93 0 q56 -5 72 63 q7 23 16 71 q32 -40 80 -56 q-8 -40 -17 -70 q-26 -95 -131 -94 l-135 0 ZM184 469 l0 -61 l205 0 l0 61 l-205 0 ZM184 280 l205 0 l0 60 l-205 0 l0 -60 Z" /><glyph glyph-name="" unicode="&#x4e86;" d="M414 -91 q-39 0 -93 6 q-7 59 -30 104 q70 -9 109 -9 q70 -2 68 69 l0 386 q138 81 252 180 l-598 0 l0 94 l754 0 l0 -84 q-134 -130 -304 -241 l0 -358 q2 -149 -158 -147 Z" /><glyph glyph-name="" unicode="&#x4e88;" d="M419 -97 q-49 0 -92 6 q-5 60 -26 105 q60 -11 98 -11 q69 -1 68 66 l0 277 l-390 0 l0 93 l441 0 q-135 86 -233 138 l71 61 q69 -36 151 -87 q104 65 172 119 l-509 0 l0 90 l667 0 l0 -82 q-117 -99 -246 -181 q12 -8 33 -23 q8 -5 12 -8 l-23 -27 l315 0 l0 -81 l-79 -171 q-42 16 -99 17 l67 142 l-248 0 l0 -293 q1 -151 -150 -150 Z" /><glyph glyph-name="" unicode="&#x4e89;" d="M124 456 q-42 42 -82 56 q225 131 323 306 l86 -41 q-17 -30 -38 -58 l344 0 l0 -75 l-119 -96 l210 0 l0 -170 l107 0 l0 -83 l-107 0 l0 -222 l-96 0 l0 52 l-209 0 l0 -100 q-2 -121 -133 -123 q-47 0 -93 6 q-4 52 -21 91 q48 -8 95 -8 q54 -2 52 54 l0 80 l-295 0 l0 81 l295 0 l0 89 l-398 0 l0 83 l398 0 l0 89 l-240 0 l0 39 q-41 -30 -79 -50 ZM350 641 q-41 -46 -96 -93 l251 0 l112 93 l-267 0 ZM543 295 l0 -89 l209 0 l0 89 l-209 0 ZM752 467 l-209 0 l0 -89 l209 0 l0 89 Z" /><glyph glyph-name="" unicode="&#x4e8b;" d="M69 666 l0 72 l380 0 l0 67 l96 0 l0 -67 l384 0 l0 -72 l-384 0 l0 -51 l276 0 l0 -185 l-276 0 l0 -50 l311 0 l0 -124 l101 0 l0 -72 l-101 0 l0 -165 l-93 0 l0 40 l-218 0 l0 -32 q3 -130 -135 -127 q-35 0 -81 7 q-4 48 -23 91 q54 -9 88 -9 q59 -4 55 59 l0 11 l-319 0 l0 71 l319 0 l0 54 l-405 0 l0 72 l405 0 l0 54 l-313 0 l0 70 l313 0 l0 50 l-275 0 l0 185 l275 0 l0 51 l-380 0 ZM763 310 l-218 0 l0 -54 l218 0 l0 54 ZM545 184 l0 -54 l218 0 l0 54 l-218 0 ZM730 553 l-185 0 l0 -61 l185 0 l0 61 ZM265 492 l184 0 l0 61 l-184 0 l0 -61 Z" /><glyph glyph-name="" unicode="&#x4e8c;" d="M141 595 l0 99 l717 0 l0 -99 l-717 0 ZM54 -23 l0 99 l891 0 l0 -99 l-891 0 Z" /><glyph glyph-name="" unicode="&#x4e8e;" d="M134 656 l0 95 l730 0 l0 -95 l-295 0 l0 -228 l386 0 l0 -96 l-386 0 l0 -272 q3 -157 -156 -154 q-30 0 -88 6 q-6 63 -28 106 q60 -11 98 -11 q70 -2 68 71 l0 254 l-419 0 l0 96 l419 0 l0 228 l-329 0 Z" /><glyph glyph-name="" unicode="&#x4e8f;" d="M49 423 l0 93 l901 0 l0 -93 l-572 0 l-34 -129 l488 0 l-25 -231 q-14 -157 -177 -155 q-65 1 -115 7 q-1 56 -27 109 q78 -12 133 -12 q74 -1 82 73 l15 119 l-501 0 l56 219 l-224 0 ZM156 657 l0 92 l686 0 l0 -92 l-686 0 Z" /><glyph glyph-name="" unicode="&#x4e91;" d="M59 364 l0 90 l880 0 l0 -90 l-412 0 q-95 -169 -209 -313 l375 17 q-70 82 -125 142 l88 45 q134 -139 238 -270 l-70 -79 q-27 36 -61 77 l-461 -25 q-52 -3 -118 -24 l-52 98 q50 14 85 55 q93 108 192 277 l-350 0 ZM181 639 l0 90 l637 0 l0 -90 l-637 0 Z" /><glyph glyph-name="" unicode="&#x4e92;" d="M96 657 l0 90 l804 0 l0 -90 l-488 0 l-27 -144 l397 0 l-53 -491 l221 0 l0 -90 l-900 0 l0 90 l576 0 l16 150 l-424 0 l89 485 l-211 0 ZM669 425 l-300 0 l-30 -165 l312 0 l18 165 Z" /><glyph glyph-name="" unicode="&#x4e94;" d="M108 654 l0 93 l781 0 l0 -93 l-384 0 l-38 -225 l321 0 l0 -404 l162 0 l0 -93 l-901 0 l0 93 l246 0 l52 314 l-173 0 l0 90 l188 0 l37 225 l-291 0 ZM687 339 l-235 0 l-53 -314 l288 0 l0 314 Z" /><glyph glyph-name="" unicode="&#x4e95;" d="M115 529 l0 93 l182 0 l0 182 l101 0 l0 -182 l225 0 l0 182 l101 0 l0 -182 l166 0 l0 -93 l-166 0 l0 -201 l225 0 l0 -93 l-225 0 l0 -339 l-101 0 l0 339 l-236 0 q-30 -210 -204 -346 q-42 42 -99 60 q176 125 201 286 l-231 0 l0 93 l241 0 q2 26 2 54 l0 147 l-182 0 ZM398 386 q0 -30 -2 -58 l227 0 l0 201 l-225 0 l0 -143 Z" /><glyph glyph-name="" unicode="&#x4e9a;" d="M102 653 l0 90 l795 0 l0 -90 l-238 0 l0 -433 q88 140 147 293 l92 -43 q-71 -171 -155 -295 q-40 23 -84 33 l0 -186 l291 0 l0 -90 l-901 0 l0 90 l289 0 l0 631 l-236 0 ZM438 653 l0 -631 l122 0 l0 631 l-122 0 ZM243 175 q-69 161 -153 305 l97 29 q87 -144 139 -278 l-83 -56 Z" /><glyph glyph-name="" unicode="&#x4e9b;" d="M74 245 l-39 87 l89 19 l0 346 l95 0 l0 -326 l94 21 l0 412 l95 0 l0 -155 l121 0 l0 -83 l-121 0 l0 -154 l104 23 l34 -73 l-472 -117 ZM709 291 q-129 -4 -124 118 l0 395 l96 0 l0 -186 q114 55 189 110 l66 -63 q-129 -85 -255 -136 l0 -102 q-2 -51 50 -49 l64 0 q57 -3 71 50 q2 7 5 19 q7 29 11 49 q39 -39 78 -53 q-2 -8 -6 -23 q-2 -12 -11 -42 q-29 -88 -135 -87 l-99 0 ZM64 -74 l0 87 l870 0 l0 -87 l-870 0 ZM180 124 l0 85 l637 0 l0 -85 l-637 0 Z" /><glyph glyph-name="" unicode="&#x4ea1;" d="M58 518 l0 95 l456 0 q-55 71 -136 154 l100 51 q77 -75 136 -153 l-70 -52 l398 0 l0 -95 l-634 0 l0 -480 l581 0 l0 -95 l-689 0 l0 575 l-142 0 Z" /><glyph glyph-name="" unicode="&#x4ea4;" d="M880 -98 q-219 49 -373 167 q-140 -117 -380 -175 q-28 47 -76 82 q250 58 382 159 q-93 95 -157 227 l88 38 q55 -118 140 -199 q75 83 121 214 l89 -38 q-49 -139 -135 -238 q141 -98 378 -137 q-54 -41 -77 -100 ZM85 573 l0 89 l400 0 q-43 61 -100 120 l99 33 q56 -56 100 -119 l-67 -34 l400 0 l0 -89 l-832 0 ZM168 285 q-39 42 -83 62 q143 88 251 223 l79 -52 q-101 -133 -247 -233 ZM836 292 q-134 128 -260 216 l75 59 q120 -80 239 -190 l-54 -85 Z" /><glyph glyph-name="" unicode="&#x4ea5;" d="M64 579 l0 88 l415 0 q-51 59 -108 110 l87 47 q64 -54 123 -126 l-39 -31 l395 0 l0 -88 l-442 0 q-73 -88 -154 -159 l248 8 q57 53 98 112 l73 -58 q-221 -277 -593 -378 q-38 54 -79 75 q223 52 392 164 l-196 -9 q-60 -3 -103 -16 l-37 80 q54 13 99 50 q70 59 129 131 l-308 0 ZM850 -108 q-108 89 -258 183 q-189 -123 -436 -184 q-26 47 -76 83 q468 95 692 394 l69 -64 q-72 -93 -166 -169 q135 -80 229 -152 l-54 -91 Z" /><glyph glyph-name="" unicode="&#x4ea6;" d="M77 549 l0 91 l418 0 q-51 73 -119 143 l102 30 q72 -72 117 -139 l-82 -34 l409 0 l0 -91 l-244 0 l0 -505 q4 -142 -137 -138 q-48 0 -79 4 q-5 61 -25 98 q45 -8 86 -9 q59 -2 57 61 l0 489 l-140 0 l0 -141 q8 -370 -249 -513 q-39 31 -99 49 q144 81 197 184 q55 100 54 287 l0 134 l-266 0 ZM112 103 l-83 51 q96 116 154 279 l82 -41 q-56 -154 -153 -289 ZM886 106 q-71 157 -166 293 l89 31 q82 -120 155 -267 l-78 -57 Z" /><glyph glyph-name="" unicode="&#x4ea7;" d="M124 -112 q-45 42 -95 58 q75 84 94 179 q12 51 14 121 q4 69 -1 179 l227 0 q-44 80 -93 145 l95 30 q51 -64 92 -142 l-69 -33 l179 0 q74 105 107 180 l99 -31 q-34 -71 -88 -149 l253 0 l0 -90 l-696 0 q12 -304 -118 -447 ZM81 609 l0 90 l387 0 q-19 28 -58 80 q-3 3 -4 5 l112 27 q42 -50 80 -112 l337 0 l0 -90 l-854 0 Z" /><glyph glyph-name="" unicode="&#x4ea9;" d="M145 -102 l0 595 l709 0 l0 -595 l-98 0 l0 68 l-513 0 l0 -68 l-98 0 ZM50 584 l0 92 l409 0 q-36 52 -82 106 l109 33 q52 -59 98 -128 l-27 -11 l391 0 l0 -92 l-898 0 ZM547 186 l0 -131 l209 0 l0 131 l-209 0 ZM243 186 l0 -131 l208 0 l0 131 l-208 0 ZM756 403 l-209 0 l0 -130 l209 0 l0 130 ZM243 403 l0 -130 l208 0 l0 130 l-208 0 Z" /><glyph glyph-name="" unicode="&#x4eab;" d="M57 78 l0 78 l409 0 l0 33 q99 27 169 62 l-458 0 l0 69 l642 0 l0 -56 q-90 -54 -244 -108 l367 0 l0 -78 l-376 0 l0 -53 q1 -126 -121 -125 q-65 1 -105 6 q-2 42 -27 88 q49 -10 101 -11 q53 -1 52 56 l0 39 l-409 0 ZM199 373 l0 216 l601 0 l0 -216 l-601 0 ZM78 641 l0 79 l374 0 q-25 31 -63 71 l113 25 q46 -49 80 -96 l338 0 l0 -79 l-842 0 ZM297 444 l404 0 l0 75 l-404 0 l0 -75 Z" /><glyph glyph-name="" unicode="&#x4eac;" d="M194 221 l0 300 l614 0 l0 -300 l-239 0 l0 -198 q-1 -120 -123 -121 q-48 0 -96 6 q-1 51 -21 95 q67 -9 93 -9 q47 -1 46 50 l0 177 l-274 0 ZM65 594 l0 89 l402 0 q-21 30 -72 91 q-9 10 -13 15 l110 25 q61 -68 93 -121 l-25 -10 l375 0 l0 -89 l-870 0 ZM295 305 l412 0 l0 132 l-412 0 l0 -132 ZM134 -72 q-37 42 -81 64 q138 82 238 200 l76 -56 q-98 -124 -233 -208 ZM889 -70 q-122 113 -250 200 l73 62 q113 -75 228 -176 l-51 -86 Z" /><glyph glyph-name="" unicode="&#x4ead;" d="M195 392 l0 202 l609 0 l0 -202 l-609 0 ZM73 175 l0 168 l853 0 l0 -169 l-97 0 l0 93 l-659 0 l0 -92 l-97 0 ZM195 124 l0 77 l609 0 l0 -77 l-236 0 l0 -97 q-1 -123 -129 -124 q-46 0 -94 6 q-4 50 -28 95 q57 -9 103 -10 q51 -1 50 51 l0 79 l-275 0 ZM69 642 l0 75 l386 0 q-24 41 -52 81 l113 17 q36 -54 60 -98 l353 0 l0 -75 l-860 0 ZM292 462 l415 0 l0 62 l-415 0 l0 -62 Z" /><glyph glyph-name="" unicode="&#x4eae;" d="M219 392 l0 203 l560 0 l0 -203 l-560 0 ZM124 -110 q-27 48 -67 79 q235 23 242 145 l5 98 l387 0 l0 -158 q-3 -54 50 -51 l59 0 q47 -2 59 49 q6 23 12 67 q34 -34 81 -49 q-5 -30 -11 -52 q-23 -103 -135 -97 l-86 0 q-128 -3 -125 116 l0 97 l-197 0 l-7 -50 q-13 -156 -267 -194 ZM90 175 l0 167 l819 0 l0 -166 l-100 0 l0 90 l-619 0 l0 -91 l-100 0 ZM87 644 l0 78 l365 0 q-27 33 -60 72 l113 22 q48 -52 76 -94 l330 0 l0 -78 l-824 0 ZM317 459 l363 0 l0 68 l-363 0 l0 -68 Z" /><glyph glyph-name="" unicode="&#x4eb2;" d="M143 616 l0 85 l322 0 q-22 39 -56 91 l110 19 q43 -64 67 -110 l276 0 l0 -85 l-182 0 l85 -39 q-41 -63 -83 -115 l258 0 l0 -85 l-379 0 l0 -95 l313 0 l0 -87 l-313 0 l0 -174 q-3 -116 -121 -119 q-47 0 -83 3 q-4 59 -28 101 q46 -8 86 -8 q47 -2 45 48 l0 149 l-317 0 l0 87 l317 0 l0 95 l-398 0 l0 85 l285 0 q-50 65 -99 115 l95 37 q53 -52 102 -116 l-50 -36 l164 0 q68 83 110 154 l-526 0 ZM151 -70 q-34 36 -84 54 q137 81 224 183 l79 -49 q-103 -108 -219 -188 ZM876 -67 q-133 106 -245 173 l69 58 q104 -62 218 -150 l-42 -81 Z" /><glyph glyph-name="" unicode="&#x4eba;" d="M888 -86 q-276 150 -387 474 q-92 -330 -380 -484 q-42 49 -99 77 q366 173 410 596 q4 38 6 91 q0 26 1 58 q0 27 0 80 l111 -9 q-2 -138 -11 -225 q116 -422 445 -570 q-55 -35 -96 -88 Z" /><glyph glyph-name="" unicode="&#x4ebf;" d="M567 -73 q-177 3 -179 150 q2 69 49 141 q117 173 319 410 l-341 0 l0 92 l474 0 l0 -86 q-214 -255 -356 -453 q-37 -55 -37 -94 q0 -66 97 -66 l169 0 q85 -8 103 92 q8 35 13 69 q43 -40 86 -56 q-9 -46 -13 -62 q-29 -145 -174 -137 l-210 0 ZM103 299 q-35 43 -87 70 q186 195 261 439 l94 -47 q-33 -100 -89 -206 l0 -660 l-99 0 l0 501 q-41 -56 -80 -97 Z" /><glyph glyph-name="" unicode="&#x4ec0;" d="M366 379 l0 93 l242 0 l0 327 l102 0 l0 -327 l248 0 l0 -93 l-248 0 l0 -484 l-102 0 l0 484 l-242 0 ZM192 -105 l0 501 q-40 -56 -84 -105 q-37 41 -93 65 q187 194 272 450 l97 -47 q-34 -96 -92 -203 l0 -661 l-100 0 Z" /><glyph glyph-name="" unicode="&#x4ec1;" d="M185 -104 l0 501 q-39 -55 -78 -96 q-35 45 -88 70 q180 191 259 435 l94 -47 q-26 -82 -88 -200 l0 -663 l-99 0 ZM331 -37 l0 94 l628 0 l0 -94 l-628 0 ZM398 585 l0 94 l510 0 l0 -94 l-510 0 Z" /><glyph glyph-name="" unicode="&#x4ec5;" d="M895 -91 q-147 78 -247 188 q-108 -116 -267 -195 q-43 50 -81 75 q174 84 281 202 q-119 165 -167 401 l90 38 q41 -213 140 -358 q103 151 138 378 l-398 0 l0 92 l499 0 l0 -83 q-38 -287 -171 -472 q104 -110 264 -181 q-48 -34 -81 -85 ZM179 -105 l0 515 q-40 -56 -82 -98 q-29 37 -77 66 q168 170 248 428 l88 -41 q-32 -104 -80 -197 l0 -673 l-97 0 Z" /><glyph glyph-name="" unicode="&#x4ec6;" d="M896 193 q-78 104 -236 273 l0 -571 l-102 0 l0 909 l102 0 l0 -319 l75 38 q147 -141 233 -257 l-72 -73 ZM203 -105 l0 521 q-51 -70 -98 -120 q-33 38 -86 60 q181 183 271 450 l92 -39 q-31 -92 -81 -190 l0 -682 l-98 0 Z" /><glyph glyph-name="" unicode="&#x4ec7;" d="M371 -106 q-45 35 -98 47 q216 181 218 568 l-152 0 l0 91 l155 0 q1 80 1 205 l98 -6 q0 -48 -2 -199 l234 0 l-25 -529 q-4 -61 31 -58 l18 0 q28 -4 41 53 q8 37 16 97 q36 -36 75 -46 q-9 -51 -16 -80 q-25 -117 -116 -113 l-31 0 q-127 -4 -116 141 l22 444 l-136 0 q-5 -427 -217 -615 ZM171 -105 l0 509 q-34 -46 -71 -90 q-36 34 -84 56 q174 192 249 438 l90 -44 q-37 -105 -86 -201 l0 -668 l-98 0 Z" /><glyph glyph-name="" unicode="&#x4eca;" d="M900 343 q-248 115 -403 315 q-156 -214 -393 -329 q-37 46 -85 70 q330 165 457 422 l93 -40 q-9 -21 -20 -40 q173 -210 433 -308 q-49 -35 -82 -90 ZM504 -117 q-48 38 -99 53 q188 142 266 272 l-490 0 l0 89 l612 0 l0 -77 q-89 -180 -289 -337 ZM515 323 q-51 76 -127 157 l87 44 q61 -59 118 -143 l-78 -58 Z" /><glyph glyph-name="" unicode="&#x4ecb;" d="M900 343 q-251 109 -403 314 q-158 -213 -393 -328 q-37 46 -85 70 q333 164 459 423 l93 -42 q-3 -7 -11 -21 q-7 -14 -11 -21 q169 -214 432 -305 q-47 -34 -81 -90 ZM196 -112 q-36 36 -98 53 q114 78 155 154 q43 73 42 194 l0 127 l103 0 l0 -122 q12 -258 -202 -406 ZM608 -97 l0 514 l104 0 l0 -514 l-104 0 Z" /><glyph glyph-name="" unicode="&#x4ecd;" d="M382 -105 q-39 32 -94 46 q121 129 160 276 q41 132 41 435 l-112 0 l0 87 l479 0 l0 -77 l-62 -229 l139 0 l-21 -348 q-11 -170 -173 -172 q-34 0 -78 6 q-3 56 -30 107 q60 -12 96 -12 q87 -4 89 91 l15 242 l-82 0 q-30 0 -55 -7 l-25 71 q31 19 43 63 l48 178 l-173 0 q-2 -311 -45 -461 q-42 -162 -160 -296 ZM177 -104 l0 519 q-36 -49 -74 -93 q-35 38 -85 57 q174 188 250 431 l90 -44 q-34 -98 -83 -192 l0 -678 l-98 0 Z" /><glyph glyph-name="" unicode="&#x4ece;" d="M894 -93 q-159 167 -218 409 q-56 -251 -236 -418 q-41 43 -94 64 q250 202 267 593 q2 65 2 114 q1 45 0 130 l100 -2 q0 -142 -4 -244 q48 -370 274 -569 q-54 -30 -91 -77 ZM442 173 q-57 89 -118 166 q-46 -248 -214 -421 q-39 40 -94 61 q218 201 232 558 q3 93 4 142 q1 57 0 119 l99 -2 q0 -155 -7 -294 q-1 -19 -3 -37 q107 -122 176 -219 l-75 -73 Z" /><glyph glyph-name="" unicode="&#x4ed1;" d="M420 -74 q-165 -3 -162 154 l0 358 l101 0 l0 -173 q201 71 346 165 l71 -70 q-173 -107 -417 -189 l0 -81 q0 -70 70 -70 l232 0 q74 0 91 66 q13 46 21 92 q36 -38 87 -57 q-4 -21 -12 -50 q-4 -14 -6 -22 q-32 -125 -161 -123 l-261 0 ZM901 369 q-249 107 -404 296 q-152 -194 -394 -309 q-40 47 -77 72 q320 147 450 388 l93 -38 q-9 -18 -20 -36 q167 -195 431 -287 q-42 -32 -79 -86 Z" /><glyph glyph-name="" unicode="&#x4ed3;" d="M906 380 q-250 99 -406 288 q-102 -131 -248 -221 l487 0 l0 -193 q-2 -125 -125 -128 q-49 0 -89 5 q-3 46 -23 89 q52 -7 87 -7 q53 -2 51 56 l0 91 l-300 0 l0 -273 q-2 -71 67 -69 l284 0 q72 -3 94 70 q10 40 17 79 q39 -38 86 -58 q-9 -44 -19 -70 q-39 -116 -158 -113 l-314 0 q-160 -5 -156 150 l0 364 q-67 -41 -141 -73 q-26 43 -76 76 q324 135 460 374 l90 -39 q-4 -8 -13 -21 q-6 -10 -9 -15 q170 -191 431 -277 q-45 -32 -77 -85 Z" /><glyph glyph-name="" unicode="&#x4ed4;" d="M347 302 l0 91 l267 0 l0 102 q86 69 161 153 l-357 0 l0 90 l490 0 l0 -80 q-79 -101 -195 -202 l0 -63 l245 0 l0 -91 l-245 0 l0 -252 q1 -147 -138 -146 q-39 0 -89 8 q-4 61 -30 103 q60 -10 98 -11 q63 -3 60 64 l0 234 l-267 0 ZM178 -105 l0 522 q-42 -51 -88 -94 q-34 44 -72 70 q177 162 267 414 l86 -56 q-39 -104 -97 -199 l0 -657 l-96 0 Z" /><glyph glyph-name="" unicode="&#x4ed6;" d="M547 -71 q-143 -2 -141 141 l0 341 l-76 -19 l-28 84 l104 26 l0 239 l93 0 l0 -216 l108 27 l0 252 l93 0 l0 -229 l205 51 l-8 -334 q-2 -121 -105 -120 q-26 0 -50 3 q-3 49 -22 89 q21 -4 48 -4 q40 -1 39 46 l4 206 l-111 -28 l0 -373 l-93 0 l0 350 l-108 -27 l0 -355 q0 -60 62 -61 l226 0 q63 -3 81 55 q13 37 21 75 q29 -35 77 -56 q-5 -21 -17 -62 q-1 -2 -1 -3 q-33 -100 -147 -98 l-254 0 ZM181 -104 l0 523 q-40 -57 -81 -98 q-37 39 -84 56 q173 178 253 433 l89 -41 q-31 -93 -83 -194 l0 -679 l-94 0 Z" /><glyph glyph-name="" unicode="&#x4ed7;" d="M901 -94 q-171 61 -280 152 q-84 -90 -244 -160 q-29 44 -83 71 q177 71 256 156 q-106 114 -180 296 l84 48 q60 -160 152 -263 q54 103 58 292 l0 12 l-322 0 l0 88 l324 0 q0 83 0 126 q0 48 -1 82 l100 -6 q0 -131 -1 -202 l173 0 l0 -88 l-175 0 l0 -17 q-5 -230 -83 -357 q115 -94 302 -149 q-48 -27 -80 -81 ZM188 -105 l0 533 q-38 -54 -80 -96 q-32 39 -84 65 q174 175 250 414 l88 -44 q-27 -84 -75 -177 l0 -695 l-99 0 Z" /><glyph glyph-name="" unicode="&#x4ed8;" d="M368 498 l0 93 l363 0 l0 206 l101 0 l0 -206 l128 0 l0 -93 l-128 0 l0 -452 q-1 -137 -142 -138 q-47 0 -98 7 q-2 52 -25 101 q50 -9 100 -10 q67 -3 64 63 l0 429 l-363 0 ZM195 -105 l0 518 q-42 -59 -88 -110 q-37 43 -92 67 q181 185 264 437 l97 -48 q-36 -96 -82 -184 l0 -680 l-99 0 ZM549 153 q-62 110 -143 205 l92 42 q75 -91 136 -189 l-85 -58 Z" /><glyph glyph-name="" unicode="&#x4ed9;" d="M375 -43 l0 658 l95 0 l0 -565 l127 0 l0 754 l97 0 l0 -754 l128 0 l0 565 l94 0 l0 -720 l-94 0 l0 62 l-447 0 ZM99 326 q-41 41 -84 56 q171 178 253 425 l88 -43 q-33 -94 -87 -196 l0 -672 l-95 0 l0 521 q-34 -47 -75 -91 Z" /><glyph glyph-name="" unicode="&#x4edf;" d="M433 625 q-13 51 -45 88 q264 7 463 64 l56 -83 q-85 -24 -198 -42 l0 -244 l249 0 l0 -92 l-249 0 l0 -421 l-100 0 l0 421 l-253 0 l0 92 l253 0 l0 231 q-94 -11 -176 -14 ZM192 -105 l0 507 q-42 -61 -86 -111 q-41 42 -92 62 q185 202 264 457 l97 -48 q-36 -104 -85 -197 l0 -670 l-98 0 Z" /><glyph glyph-name="" unicode="&#x4ee3;" d="M355 348 l-17 86 l191 32 q-19 138 -28 330 l102 11 q5 -177 24 -325 l298 50 l16 -86 l-301 -50 q31 -173 80 -267 q45 -100 98 -107 q23 0 36 44 q16 46 24 96 q34 -41 78 -62 q-9 -44 -24 -89 q-36 -103 -109 -103 q-107 8 -180 150 q-65 123 -101 321 l-187 -31 ZM192 -105 l0 498 q-42 -60 -85 -110 q-38 40 -92 64 q183 198 266 459 l97 -47 q-32 -95 -86 -200 l0 -664 l-100 0 ZM790 554 q-64 87 -136 162 l83 41 q75 -74 126 -148 l-73 -55 Z" /><glyph glyph-name="" unicode="&#x4ee4;" d="M646 -120 q-191 116 -412 213 l63 73 q109 -47 202 -94 q124 96 200 184 l-541 0 l0 91 l365 0 q-72 81 -142 137 l78 56 q72 -56 133 -126 l-63 -67 l302 0 l0 -84 q-101 -129 -239 -240 q10 -6 31 -17 q18 -10 63 -36 l-40 -90 ZM915 375 q-267 105 -417 295 q-157 -198 -407 -307 q-28 49 -73 81 q334 141 462 378 l93 -37 q-10 -19 -22 -37 q164 -196 431 -279 q-44 -42 -67 -94 Z" /><glyph glyph-name="" unicode="&#x4ee5;" d="M905 -87 q-102 127 -192 224 q-97 -147 -293 -244 q-32 40 -86 71 q332 143 388 480 q26 134 26 335 l105 -11 q-3 -199 -29 -339 q-20 -112 -62 -202 q115 -112 213 -228 l-70 -86 ZM154 -58 l-57 95 q38 38 37 98 l0 599 l103 0 l0 -592 l198 152 l63 -70 l-286 -226 q-34 -29 -58 -56 ZM532 499 q-115 156 -210 251 l92 45 q106 -110 192 -226 l-74 -70 Z" /><glyph glyph-name="" unicode="&#x4eea;" d="M907 -97 q-158 81 -272 191 q-106 -111 -276 -200 q-32 46 -88 73 q182 87 293 204 q-153 185 -218 462 l90 44 q60 -257 196 -425 q126 175 160 451 l95 -30 q-46 -315 -184 -499 q117 -112 286 -184 q-52 -34 -82 -87 ZM172 -104 l0 513 q-35 -47 -81 -93 q-28 38 -78 66 q168 163 248 420 l89 -49 q-32 -99 -80 -189 l0 -668 l-98 0 ZM617 549 q-45 113 -110 230 l92 28 q59 -104 103 -213 l-85 -45 Z" /><glyph glyph-name="" unicode="&#x4eec;" d="M785 -97 q-43 0 -91 5 q-4 55 -25 98 q54 -9 96 -9 q63 -2 61 64 l0 576 l-215 0 l0 89 l310 0 l0 -683 q0 -140 -136 -140 ZM166 -105 l0 526 q-39 -53 -66 -81 q-35 42 -75 64 q149 166 227 405 l84 -47 q-27 -88 -73 -178 l0 -689 l-97 0 ZM368 -103 l0 684 l97 0 l0 -684 l-97 0 ZM523 574 q-79 91 -153 156 l73 54 q75 -69 138 -142 l-58 -68 Z" /><glyph glyph-name="" unicode="&#x4ef0;" d="M617 -105 l0 804 q-85 -32 -146 -42 l0 -494 l97 50 l45 -72 l-163 -92 q-31 -16 -57 -41 l-47 73 q32 28 31 88 l0 563 q117 16 210 54 l43 -67 l289 0 l0 -559 q1 -108 -110 -108 q-35 0 -57 3 q-5 46 -29 94 q42 -6 60 -6 q45 0 45 45 l0 442 l-116 0 l0 -735 l-95 0 ZM167 -106 l0 516 q-36 -53 -69 -88 q-33 37 -81 61 q152 163 235 424 l86 -42 q-31 -97 -76 -189 l0 -682 l-95 0 Z" /><glyph glyph-name="" unicode="&#x4ef2;" d="M594 -105 l0 279 l-124 0 l0 -75 l-92 0 l0 514 l216 0 l0 191 l99 0 l0 -191 l217 0 l0 -514 l-92 0 l0 75 l-125 0 l0 -279 l-99 0 ZM179 -105 l0 522 q-37 -51 -75 -91 q-38 40 -83 59 q157 163 247 424 l89 -41 q-31 -99 -84 -199 l0 -674 l-94 0 ZM818 526 l-127 0 l0 -265 l127 0 l0 265 ZM470 526 l0 -265 l126 0 l0 265 l-126 0 Z" /><glyph glyph-name="" unicode="&#x4ef6;" d="M324 213 l0 88 l288 0 l0 208 l-138 0 q-30 -76 -70 -144 q-41 24 -95 29 q96 150 133 351 l92 -31 q-13 -60 -30 -118 l108 0 l0 208 l100 0 l0 -208 l209 0 l0 -87 l-209 0 l0 -208 l248 0 l0 -88 l-248 0 l0 -318 l-100 0 l0 318 l-288 0 ZM169 -104 l0 512 q-33 -50 -69 -94 q-36 40 -83 60 q162 196 224 436 l94 -38 q-23 -86 -69 -188 l0 -688 l-97 0 Z" /><glyph glyph-name="" unicode="&#x4ef7;" d="M905 374 q-178 93 -284 273 q-65 -128 -169 -226 l94 0 l0 -169 q4 -251 -165 -360 q-35 33 -85 53 q158 87 153 311 l0 161 q-41 -38 -85 -68 q-37 39 -83 60 q232 152 303 401 l91 -29 q-7 -22 -15 -43 q124 -205 322 -285 q-49 -32 -77 -79 ZM173 -104 l0 521 q-42 -49 -84 -85 q-30 46 -71 71 q175 151 269 403 l86 -55 q-40 -105 -104 -205 l0 -650 l-96 0 ZM704 -99 l0 520 l97 0 l0 -520 l-97 0 Z" /><glyph glyph-name="" unicode="&#x4efb;" d="M414 625 q-15 47 -43 87 q303 11 476 58 l57 -78 q-98 -26 -213 -41 l0 -254 l268 0 l0 -90 l-268 0 l0 -281 l231 0 l0 -89 l-556 0 l0 89 l228 0 l0 281 l-264 0 l0 90 l264 0 l0 242 q-98 -11 -180 -14 ZM98 324 q-35 38 -83 53 q171 187 251 433 l88 -40 q-29 -90 -78 -186 l0 -689 l-94 0 l0 533 q-38 -54 -84 -104 Z" /><glyph glyph-name="" unicode="&#x4efd;" d="M902 330 q-38 34 -71 71 l-11 -341 q-5 -149 -148 -148 q-26 0 -83 6 q-1 47 -24 94 q58 -9 90 -9 q67 0 70 69 l8 254 l-146 0 q-4 -301 -222 -432 q-38 41 -86 59 q216 118 213 373 l-76 0 l0 69 q-27 -34 -58 -66 q-30 35 -82 57 q158 151 213 389 l90 -32 q-50 -194 -147 -326 l386 0 q-121 143 -163 356 l89 29 q46 -255 236 -405 q-44 -22 -78 -67 ZM173 -105 l0 511 q-38 -45 -74 -80 q-28 39 -74 68 q173 162 252 415 l88 -53 q-35 -104 -95 -209 l0 -652 l-97 0 Z" /><glyph glyph-name="" unicode="&#x4eff;" d="M705 -94 q-40 0 -80 6 q-2 51 -23 97 q56 -9 94 -9 q73 -4 74 72 l12 261 l-202 0 q-23 -279 -205 -441 q-36 37 -95 54 q197 149 207 434 q4 63 6 164 l-134 0 l0 86 l293 0 q-60 69 -130 128 l81 54 q79 -67 139 -140 l-42 -42 l250 0 l0 -86 l-360 0 q0 -14 -1 -42 q-1 -55 -2 -84 l295 0 l-16 -361 q-5 -153 -161 -151 ZM176 -105 l0 526 q-37 -51 -78 -94 q-34 38 -83 57 q172 180 253 424 l87 -43 q-33 -95 -82 -189 l0 -681 l-97 0 Z" /><glyph glyph-name="" unicode="&#x4f01;" d="M71 -71 l0 88 l158 0 l0 360 l99 0 l0 -360 l150 0 l0 478 l100 0 l0 -184 l221 0 l0 -85 l-221 0 l0 -209 l343 0 l0 -88 l-850 0 ZM907 373 q-251 99 -409 295 q-151 -198 -401 -307 q-30 45 -75 74 q322 143 455 384 l90 -38 q-5 -9 -14 -26 q-5 -9 -7 -13 q175 -200 433 -279 q-47 -40 -72 -90 Z" /><glyph glyph-name="" unicode="&#x4f0a;" d="M318 442 l0 87 l182 0 l0 130 l-124 0 l0 86 l497 0 l0 -216 l87 0 l0 -87 l-87 0 l0 -273 l-95 0 l0 53 l-197 0 q-32 -201 -204 -333 q-47 36 -96 51 q168 117 201 282 l-117 0 l0 86 l130 0 q5 46 5 101 l0 33 l-182 0 ZM173 -104 l0 524 q-42 -60 -75 -92 q-29 36 -80 58 q157 177 232 427 l92 -42 q-28 -90 -75 -188 l0 -687 l-94 0 ZM596 411 q0 -55 -4 -103 l186 0 l0 134 l-182 0 l0 -31 ZM778 659 l-182 0 l0 -130 l182 0 l0 130 Z" /><glyph glyph-name="" unicode="&#x4f0d;" d="M373 657 l0 90 l544 0 l0 -90 l-259 0 l-33 -226 l240 0 l0 -408 l98 0 l0 -92 l-629 0 l0 92 l135 0 l45 318 l-135 0 l0 90 l148 0 l32 226 l-186 0 ZM179 -105 l0 520 q-36 -53 -73 -92 q-41 39 -86 57 q155 167 242 430 l90 -39 q-26 -91 -79 -198 l0 -678 l-94 0 ZM770 341 l-158 0 l-46 -318 l204 0 l0 318 Z" /><glyph glyph-name="" unicode="&#x4f0f;" d="M331 414 l0 89 l222 0 q2 81 2 240 q0 40 0 60 l99 -7 q0 -155 -3 -293 l273 0 l0 -89 l-263 0 q72 -294 308 -430 q-56 -32 -91 -77 q-184 130 -262 364 q-65 -238 -244 -375 q-41 42 -93 57 q234 159 268 461 l-216 0 ZM177 -105 l0 516 q-39 -53 -73 -89 q-38 40 -84 60 q158 166 249 426 l90 -42 q-31 -98 -84 -197 l0 -674 l-98 0 ZM820 538 q-60 84 -132 166 l80 37 q63 -68 119 -144 l-67 -59 Z" /><glyph glyph-name="" unicode="&#x4f10;" d="M338 400 l-16 88 l188 25 q-16 123 -22 281 l98 9 q3 -152 18 -278 l312 42 l16 -89 l-315 -41 q19 -111 51 -207 q97 77 168 184 l68 -57 q-79 -123 -201 -219 q58 -126 120 -131 q28 -3 41 50 q9 29 20 92 q35 -41 77 -61 q-9 -47 -22 -84 q-34 -103 -111 -101 q-124 4 -205 178 q-100 -65 -223 -112 q-35 47 -78 74 q150 54 265 128 q-42 118 -64 253 l-185 -24 ZM178 -104 l0 505 q-39 -54 -79 -98 q-42 40 -83 56 q171 180 262 445 l89 -44 q-35 -99 -92 -205 l0 -659 l-97 0 ZM784 580 q-48 62 -129 141 l73 45 q65 -58 121 -129 l-65 -57 Z" /><glyph glyph-name="" unicode="&#x4f11;" d="M583 -105 l0 445 l5 29 q-75 -194 -222 -336 q-35 37 -84 56 l0 -194 l-98 0 l0 529 q-47 -65 -86 -107 q-31 40 -85 65 q171 174 263 427 l88 -46 q-35 -91 -82 -180 l0 -486 q190 166 276 404 l-212 0 l0 87 l237 0 l0 213 l98 0 l0 -213 l248 0 l0 -87 l-225 0 q92 -245 278 -390 q-53 -20 -88 -68 q-141 133 -218 327 l5 -33 l0 -442 l-98 0 Z" /><glyph glyph-name="" unicode="&#x4f17;" d="M125 -90 q-46 40 -101 57 q182 109 223 312 q14 72 13 158 q-64 -39 -139 -68 q-28 39 -81 72 q325 113 421 375 l96 -28 q-9 -22 -19 -45 q158 -199 425 -272 q-53 -42 -81 -91 q-249 88 -391 278 q-82 -124 -215 -211 l87 -9 q-3 -91 -15 -162 q93 -81 159 -159 l-69 -62 q-50 59 -115 123 q-58 -168 -198 -268 ZM887 -100 q-143 93 -218 255 q-48 -161 -193 -267 q-38 33 -99 51 q197 125 221 352 q10 81 7 168 l100 -7 q0 -81 -6 -148 q75 -226 273 -330 q-49 -33 -85 -74 Z" /><glyph glyph-name="" unicode="&#x4f18;" d="M179 -104 l0 523 q-37 -51 -76 -94 q-39 38 -84 56 q172 185 252 426 l88 -43 q-34 -98 -84 -191 l0 -622 q246 187 251 505 l-195 0 l0 89 l196 0 l0 253 l97 0 l0 -253 l302 0 l0 -89 l-303 0 q0 -27 -3 -51 l89 0 l0 -332 q-2 -63 50 -61 l36 0 q49 -5 63 68 q8 34 15 85 q37 -39 79 -55 q-5 -39 -14 -70 q-28 -123 -133 -119 l-61 0 q-128 -2 -127 135 l0 310 q-30 -287 -247 -469 q-41 35 -95 52 l0 -53 l-96 0 ZM806 568 q-60 79 -137 157 l79 42 q67 -64 125 -137 l-67 -62 Z" /><glyph glyph-name="" unicode="&#x4f19;" d="M881 -98 q-168 133 -241 344 q-68 -222 -265 -353 q-34 41 -84 62 q262 158 285 470 q6 65 7 147 q1 42 1 96 q0 54 -1 135 l98 -8 q0 -193 -6 -326 q50 -335 295 -498 q-49 -18 -89 -69 ZM178 -104 l0 522 q-44 -60 -75 -92 q-37 41 -84 57 q165 170 250 423 l88 -42 q-31 -90 -81 -187 l0 -681 l-98 0 ZM816 325 q-41 24 -91 23 q80 152 111 290 l91 -36 q-45 -157 -111 -277 ZM433 289 l-87 41 q51 118 71 286 l88 -27 q-24 -173 -72 -300 Z" /><glyph glyph-name="" unicode="&#x4f1a;" d="M101 206 l0 87 l793 0 l0 -87 l-401 0 q-63 -93 -145 -184 l309 18 q-25 29 -74 83 q-9 11 -14 16 l83 44 q107 -107 202 -233 l-78 -60 q-5 7 -16 22 q-8 10 -35 45 l-418 -27 q-50 -3 -114 -19 l-39 93 q61 11 102 53 q55 59 116 149 l-271 0 ZM269 392 l0 76 q-80 -51 -170 -88 q-29 45 -77 76 q315 122 458 366 l92 -39 q-10 -18 -21 -34 q175 -201 430 -266 q-45 -34 -71 -90 q-255 92 -412 281 q-88 -110 -215 -196 l444 0 l0 -86 l-458 0 Z" /><glyph glyph-name="" unicode="&#x4f1e;" d="M67 100 l0 91 l381 0 l0 345 l101 0 l0 -345 l385 0 l0 -91 l-385 0 l0 -205 l-101 0 l0 205 l-381 0 ZM903 403 q-239 81 -405 272 q-160 -185 -398 -281 q-30 44 -76 76 q325 117 455 350 l92 -40 q-3 -5 -9 -16 q-7 -10 -10 -16 q168 -191 426 -255 q-45 -34 -75 -90 ZM679 224 q-36 28 -87 44 q90 85 143 175 l84 -45 q-62 -97 -140 -174 ZM317 228 q-68 91 -142 163 l88 42 q74 -71 127 -141 l-73 -64 Z" /><glyph glyph-name="" unicode="&#x4f1f;" d="M804 -13 q-35 0 -59 3 q-4 51 -19 89 q30 -5 62 -6 q42 -1 42 42 l5 110 l-168 0 l0 -330 l-97 0 l0 330 l-239 0 l0 83 l239 0 l0 105 l-180 0 l0 83 l180 0 l0 102 l-214 0 l0 84 l214 0 l0 123 l97 0 l0 -123 l246 0 l0 -84 l-246 0 l0 -102 l217 0 l0 -83 l-217 0 l0 -105 l263 0 l-8 -216 q-2 -105 -118 -105 ZM181 -105 l0 515 q-43 -62 -82 -101 q-40 47 -81 70 q164 170 243 430 l88 -44 q-24 -84 -71 -184 l0 -686 l-97 0 Z" /><glyph glyph-name="" unicode="&#x4f20;" d="M376 590 l0 84 l180 0 q15 68 25 134 l97 -19 q-11 -57 -23 -115 l254 0 l0 -84 l-274 0 q-14 -54 -29 -106 l345 0 l0 -85 l-370 0 q-18 -55 -36 -102 l334 0 l0 -76 q-60 -101 -143 -198 q5 -3 14 -8 q56 -31 81 -47 l-42 -84 q-160 97 -347 185 l63 73 q67 -31 148 -74 q72 82 112 146 l-328 0 l0 73 q22 52 43 112 l-153 0 l0 85 l180 0 q16 52 29 106 l-160 0 ZM100 298 q-35 42 -82 69 q169 184 243 445 l89 -43 q-27 -99 -73 -197 l0 -677 l-96 0 l0 506 q-39 -60 -81 -103 Z" /><glyph glyph-name="" unicode="&#x4f24;" d="M396 -104 q-38 43 -89 66 q211 128 240 365 l-184 0 l0 86 l193 0 q4 84 4 137 l98 -10 q-1 -66 -5 -127 l256 0 l-11 -345 q-4 -154 -146 -154 q-53 0 -99 6 q-2 55 -24 97 q64 -9 101 -9 q72 -3 72 74 l8 245 l-166 0 q-29 -281 -248 -431 ZM96 297 q-35 43 -81 68 q166 183 241 447 l89 -42 q-27 -101 -73 -199 l0 -676 l-96 0 l0 504 q-41 -60 -80 -102 ZM394 436 q-38 31 -86 50 q129 130 189 326 l88 -34 q-15 -43 -33 -84 l387 0 l0 -86 l-427 0 q-53 -100 -118 -172 Z" /><glyph glyph-name="" unicode="&#x4f26;" d="M905 387 q-173 102 -272 265 q-69 -119 -166 -212 l90 0 l0 -164 q132 58 228 128 l69 -68 q-142 -93 -297 -154 l0 -102 q-1 -63 63 -62 l105 0 q62 0 79 58 q13 41 20 92 q37 -39 85 -56 q-10 -47 -21 -81 q-34 -107 -141 -105 l-145 0 q-145 -2 -143 136 l0 370 q-42 -38 -79 -66 q-31 41 -79 68 q224 155 300 378 l94 -28 q-8 -21 -17 -42 q112 -193 304 -278 q-45 -26 -77 -77 ZM175 -105 l0 525 q-47 -54 -86 -87 q-33 46 -72 70 q176 153 269 404 l86 -56 q-39 -101 -99 -197 l0 -659 l-98 0 Z" /><glyph glyph-name="" unicode="&#x4f2a;" d="M178 -104 l0 510 q-44 -63 -82 -100 q-41 48 -81 70 q159 166 243 434 l90 -45 q-27 -89 -74 -190 l0 -616 q218 186 264 508 l-203 0 l0 89 l213 0 q11 130 11 247 l101 -8 q-1 -92 -13 -239 l267 0 l-14 -480 q-3 -161 -159 -160 q-31 0 -81 4 q-1 55 -24 98 q59 -9 89 -9 q76 -2 77 82 l12 376 l-177 0 q-10 -76 -33 -160 l62 34 q71 -75 122 -150 l-69 -62 q-64 96 -120 158 q-72 -238 -235 -382 q-40 33 -90 48 l0 -57 l-96 0 ZM458 566 q-44 64 -111 132 l78 46 q61 -61 103 -121 l-70 -57 Z" /><glyph glyph-name="" unicode="&#x4f2f;" d="M395 -103 l0 769 l159 0 q36 83 51 141 l102 -22 q-21 -67 -45 -119 l242 0 l0 -769 l-98 0 l0 92 l-313 0 l0 -92 l-98 0 ZM177 -105 l0 515 q-40 -61 -81 -105 q-33 42 -75 69 q161 182 237 433 l89 -39 q-27 -84 -72 -182 l0 -691 l-98 0 ZM493 288 l0 -212 l313 0 l0 212 l-313 0 ZM493 578 l0 -206 l313 0 l0 206 l-313 0 Z" /><glyph glyph-name="" unicode="&#x4f30;" d="M350 524 l0 88 l251 0 l0 193 l97 0 l0 -193 l255 0 l0 -88 l-255 0 l0 -169 l192 0 l0 -460 l-96 0 l0 71 l-287 0 l0 -71 l-96 0 l0 460 l190 0 l0 169 l-251 0 ZM183 -104 l0 515 q-46 -66 -86 -105 q-39 47 -80 71 q170 177 246 432 l89 -45 q-28 -92 -73 -185 l0 -683 l-96 0 ZM507 269 l0 -217 l287 0 l0 217 l-287 0 Z" /><glyph glyph-name="" unicode="&#x4f34;" d="M363 357 l0 87 l231 0 l0 360 l98 0 l0 -360 l234 0 l0 -87 l-234 0 l0 -134 l265 0 l0 -88 l-265 0 l0 -240 l-98 0 l0 240 l-261 0 l0 88 l261 0 l0 134 l-231 0 ZM180 -105 l0 515 q-42 -62 -83 -103 q-39 47 -80 71 q162 170 240 432 l89 -42 q-23 -82 -70 -185 l0 -688 l-96 0 ZM795 477 q-35 30 -85 45 q79 98 130 198 l82 -51 q-66 -120 -127 -192 ZM481 477 q-45 88 -119 200 l88 34 q70 -100 109 -184 l-78 -50 Z" /><glyph glyph-name="" unicode="&#x4f36;" d="M172 -104 l0 520 q-42 -49 -83 -85 q-29 46 -71 71 q175 154 267 405 l84 -54 q-40 -105 -99 -201 l0 -656 l-98 0 ZM725 -114 q-155 118 -317 208 l69 66 q64 -34 131 -76 q82 81 144 167 l-388 0 l0 85 l507 0 l0 -76 q-77 -125 -183 -227 q54 -37 85 -63 l-48 -84 ZM905 379 q-182 100 -282 270 q-92 -158 -269 -280 q-30 41 -83 64 q237 143 322 376 l94 -29 q-9 -22 -18 -42 q114 -197 313 -282 q-46 -29 -77 -77 ZM622 340 q-48 74 -106 135 l85 41 q57 -60 99 -124 l-78 -52 Z" /><glyph glyph-name="" unicode="&#x4f38;" d="M597 -105 l0 235 l-129 0 l0 -59 l-90 0 l0 592 l219 0 l0 142 l92 0 l0 -142 l220 0 l0 -592 l-90 0 l0 59 l-130 0 l0 -235 l-92 0 ZM183 -104 l0 548 q-42 -61 -85 -108 q-27 36 -79 60 q162 171 240 412 l85 -42 q-30 -87 -69 -165 l0 -705 l-92 0 ZM689 357 l0 -143 l130 0 l0 143 l-130 0 ZM468 357 l0 -143 l129 0 l0 143 l-129 0 ZM819 579 l-130 0 l0 -141 l130 0 l0 141 ZM468 579 l0 -141 l129 0 l0 141 l-129 0 Z" /><glyph glyph-name="" unicode="&#x4f3a;" d="M745 -97 q-47 0 -85 6 q-2 53 -28 96 q67 -10 95 -10 q80 -4 76 76 l0 589 l-432 0 l0 87 l527 0 l0 -691 q1 -154 -153 -153 ZM368 78 l0 308 l346 0 l0 -308 l-346 0 ZM163 -105 l0 508 q-31 -45 -66 -83 q-33 41 -81 62 q161 177 235 427 l88 -42 q-32 -103 -81 -204 l0 -668 l-95 0 ZM337 481 l0 84 l410 0 l0 -84 l-410 0 ZM458 161 l166 0 l0 143 l-166 0 l0 -143 Z" /><glyph glyph-name="" unicode="&#x4f3c;" d="M907 -87 q-56 87 -140 198 q-83 -136 -244 -221 q-31 35 -80 59 q296 148 326 480 q15 111 15 352 l98 -9 q-3 -243 -20 -374 q-14 -109 -50 -197 q93 -111 166 -218 l-71 -70 ZM157 -104 l0 511 q-30 -47 -58 -79 q-44 46 -83 61 q152 179 225 420 l86 -43 q-23 -77 -74 -186 l0 -684 l-96 0 ZM386 -28 l-58 76 q35 37 34 94 l0 557 l96 0 l0 -537 l116 99 l62 -62 l-197 -171 q-26 -22 -53 -56 ZM624 476 q-66 166 -137 294 l94 21 q62 -108 124 -264 l-81 -51 Z" /><glyph glyph-name="" unicode="&#x4f43;" d="M384 -89 l0 818 l524 0 l0 -818 l-96 0 l0 72 l-332 0 l0 -72 l-96 0 ZM179 -105 l0 511 q-44 -66 -82 -104 q-39 46 -82 68 q166 179 245 441 l89 -44 q-22 -81 -74 -191 l0 -681 l-96 0 ZM692 315 l0 -246 l120 0 l0 246 l-120 0 ZM480 315 l0 -246 l119 0 l0 246 l-119 0 ZM812 642 l-120 0 l0 -242 l120 0 l0 242 ZM480 642 l0 -242 l119 0 l0 242 l-119 0 Z" /><glyph glyph-name="" unicode="&#x4f46;" d="M403 162 l0 577 l482 0 l0 -577 l-482 0 ZM171 -105 l0 512 q-35 -47 -71 -89 q-35 40 -80 61 q167 184 244 431 l90 -43 q-36 -105 -86 -203 l0 -669 l-97 0 ZM328 -63 l0 87 l632 0 l0 -87 l-632 0 ZM500 655 l0 -163 l289 0 l0 163 l-289 0 ZM500 247 l289 0 l0 161 l-289 0 l0 -161 Z" /><glyph glyph-name="" unicode="&#x4f4d;" d="M175 -105 l0 520 q-37 -50 -77 -89 q-29 40 -81 65 q164 171 242 419 l92 -43 q-33 -103 -82 -199 l0 -673 l-94 0 ZM317 -65 l0 87 l308 0 q63 187 119 452 l103 -29 q-64 -256 -124 -423 l231 0 l0 -87 l-637 0 ZM356 523 l0 88 l257 0 q-38 85 -93 179 l103 23 q41 -62 90 -167 l-77 -35 l285 0 l0 -88 l-565 0 ZM485 82 q-33 183 -87 355 l100 11 q48 -152 83 -336 l-96 -30 Z" /><glyph glyph-name="" unicode="&#x4f4e;" d="M860 -90 q-62 1 -110 86 q-71 125 -99 360 l-172 0 l0 -274 l125 85 l52 -66 l-186 -127 q-36 -23 -64 -53 l-51 70 q33 34 31 106 l0 625 q275 6 464 51 l56 -78 q-80 -19 -180 -32 q1 -119 10 -221 l196 0 l0 -86 l-187 0 q26 -194 77 -299 q22 -44 40 -43 q17 0 30 45 q9 30 17 76 q32 -42 67 -55 q-4 -33 -19 -79 q-30 -91 -97 -91 ZM180 -105 l0 527 q-45 -60 -80 -95 q-35 37 -84 53 q170 177 253 429 l89 -40 q-29 -90 -84 -196 l0 -678 l-94 0 ZM479 643 l0 -201 l163 0 q-7 97 -9 211 q-96 -9 -154 -10 ZM672 -116 q-53 61 -119 115 l68 44 q53 -43 104 -100 l-53 -59 Z" /><glyph glyph-name="" unicode="&#x4f4f;" d="M376 541 l0 89 l262 0 q-52 95 -103 154 l101 26 q57 -69 95 -143 l-73 -37 l269 0 l0 -89 l-227 0 l0 -204 l198 0 l0 -89 l-198 0 l0 -223 l260 0 l0 -89 l-619 0 l0 89 l258 0 l0 223 l-197 0 l0 89 l197 0 l0 204 l-223 0 ZM188 -104 l0 509 q-43 -59 -82 -98 q-38 46 -90 72 q185 186 263 427 l96 -47 q-30 -87 -87 -194 l0 -669 l-100 0 Z" /><glyph glyph-name="" unicode="&#x4f51;" d="M438 -105 l0 347 q-45 -56 -102 -116 q-26 28 -73 52 l0 -283 l-96 0 l0 506 q-31 -42 -65 -81 q-32 37 -81 62 q167 184 239 425 l89 -46 q-36 -109 -86 -206 l0 -358 q176 174 240 350 l-159 0 l0 89 l188 0 q20 67 36 172 l95 -18 q-14 -84 -32 -154 l318 0 l0 -89 l-343 0 q-30 -90 -72 -163 l358 0 l0 -489 l-97 0 l0 73 l-259 0 l0 -73 l-98 0 ZM536 297 l0 -241 l259 0 l0 241 l-259 0 Z" /><glyph glyph-name="" unicode="&#x4f53;" d="M166 -105 l0 514 q-34 -45 -71 -85 q-38 44 -80 65 q171 180 247 419 l88 -44 q-38 -108 -89 -205 l0 -422 q184 165 264 390 l-203 0 l0 88 l241 0 l0 189 l95 0 l0 -189 l260 0 l0 -88 l-222 0 q88 -247 285 -386 q-37 -28 -73 -84 q-171 143 -253 385 l3 -31 l0 -262 l156 0 l0 -86 l-156 0 l0 -168 l-95 0 l0 168 l-153 0 l0 86 l153 0 l0 262 l3 27 q-76 -232 -251 -386 q-23 33 -54 59 l0 -216 l-95 0 Z" /><glyph glyph-name="" unicode="&#x4f55;" d="M336 636 l0 87 l621 0 l0 -87 l-93 0 l0 -583 q-1 -144 -148 -145 q-43 0 -95 6 q-2 50 -22 100 q48 -9 103 -9 q67 -2 65 65 l0 566 l-431 0 ZM366 140 l0 381 l308 0 l0 -381 l-308 0 ZM170 -106 l0 525 q-40 -63 -75 -105 q-42 46 -80 69 q150 176 218 429 l93 -34 q-20 -77 -60 -172 l0 -712 l-96 0 ZM453 225 l133 0 l0 211 l-133 0 l0 -211 Z" /><glyph glyph-name="" unicode="&#x4f59;" d="M906 406 q-81 27 -154 66 l0 -61 l-188 0 l0 -103 l342 0 l0 -87 l-342 0 l0 -194 q1 -127 -129 -126 q-22 0 -78 6 q-2 48 -23 94 q50 -9 81 -9 q50 -2 48 54 l0 175 l-360 0 l0 87 l360 0 l0 103 l-206 0 l0 60 q-79 -46 -156 -76 q-26 41 -76 75 q324 125 456 349 l94 -37 l-21 -36 q163 -180 424 -253 q-45 -35 -72 -87 ZM498 672 q-81 -95 -202 -175 l411 0 q-123 74 -209 175 ZM143 -76 q-33 34 -91 57 q143 89 232 208 l81 -53 q-90 -119 -222 -212 ZM868 -77 q-130 123 -248 207 l79 56 q116 -81 225 -182 l-56 -81 Z" /><glyph glyph-name="" unicode="&#x4f5b;" d="M653 -102 l0 315 l-88 0 q-28 -203 -172 -321 q-39 30 -95 46 q151 106 176 275 l-150 0 l13 270 l149 0 l0 103 l-158 0 l0 83 l158 0 l0 134 l90 0 l0 -134 l77 0 l0 134 l89 0 l0 -134 l156 0 l0 -268 l-156 0 l0 -106 l194 0 l-9 -177 q-4 -123 -113 -120 q-26 0 -45 1 q-3 51 -22 88 q30 -4 48 -4 q46 -1 48 45 l5 85 l-106 0 l0 -315 l-89 0 ZM166 -105 l0 515 q-33 -53 -68 -94 q-35 42 -80 63 q155 184 217 430 l90 -39 q-27 -93 -68 -187 l0 -688 l-91 0 ZM576 379 q0 -45 -3 -84 l80 0 l0 106 l-77 0 l0 -22 ZM576 586 l0 -103 l77 0 l0 103 l-77 0 ZM483 295 q3 41 3 87 l0 19 l-70 0 l-7 -106 l74 0 ZM816 586 l-74 0 l0 -103 l74 0 l0 103 Z" /><glyph glyph-name="" unicode="&#x4f5c;" d="M553 -105 l0 654 q-66 -122 -141 -205 q-36 28 -93 42 q165 180 238 428 l90 -41 q-18 -60 -45 -124 l353 0 l0 -88 l-303 0 l0 -147 l258 0 l0 -88 l-258 0 l0 -150 l285 0 l0 -87 l-285 0 l0 -194 l-99 0 ZM190 -105 l0 527 q-37 -53 -81 -100 q-43 46 -87 67 q169 184 251 422 l90 -48 q-27 -83 -75 -177 l0 -691 l-98 0 Z" /><glyph glyph-name="" unicode="&#x4f60;" d="M176 -105 l0 520 q-41 -54 -74 -87 q-34 40 -87 65 q165 158 256 417 l90 -47 q-27 -83 -86 -193 l0 -675 l-99 0 ZM865 419 q-45 12 -95 8 l56 136 l-301 0 q-43 -82 -103 -157 q-41 32 -98 41 q138 164 190 361 l94 -38 q-19 -63 -43 -120 l364 0 l0 -72 l-64 -159 ZM567 -99 q-43 0 -86 5 q3 50 -24 96 q54 -8 82 -9 q56 -3 53 54 l0 425 l99 0 l0 -442 q0 -130 -124 -129 ZM399 22 q-46 25 -99 27 q103 143 140 290 l87 -30 q-36 -146 -128 -287 ZM877 15 q-58 151 -135 295 l94 20 q73 -131 127 -268 l-86 -47 Z" /><glyph glyph-name="" unicode="&#x4f63;" d="M372 -105 q-40 28 -93 35 q56 81 74 158 q21 75 20 208 l0 460 l537 0 l0 -725 q0 -130 -126 -130 q-32 0 -69 5 q0 48 -28 88 l0 -42 l-92 0 l0 242 l-130 0 q-6 -178 -93 -299 ZM165 -105 l0 507 q-30 -42 -66 -82 q-34 40 -81 62 q162 177 234 427 l88 -42 q-30 -102 -79 -202 l0 -670 l-96 0 ZM764 -9 q54 -3 52 57 l0 146 l-129 0 l0 -196 q37 -6 77 -7 ZM687 434 l0 -157 l129 0 l0 157 l-129 0 ZM816 672 l-129 0 l0 -156 l129 0 l0 156 ZM468 277 l127 0 l0 157 l-127 0 l0 -157 ZM468 672 l0 -156 l127 0 l0 156 l-127 0 Z" /><glyph glyph-name="" unicode="&#x4f69;" d="M325 -99 q-31 30 -76 46 q53 88 71 192 q20 103 20 295 q0 186 -6 313 l539 0 q-10 -184 -10 -378 q-1 -214 13 -309 q8 -45 26 -47 q10 -2 18 41 q6 30 10 83 q25 -29 61 -45 q-4 -38 -12 -80 q-20 -97 -80 -94 q-78 3 -101 128 q-15 99 -16 321 q1 124 6 298 l-370 0 q3 -106 2 -95 q0 -26 0 -58 q0 -27 0 -82 q4 -371 -95 -529 ZM684 15 q-15 0 -31 2 q-5 33 -17 65 l0 -185 l-71 0 l0 446 l-47 0 l0 -326 l-65 0 l0 404 l110 0 l0 86 l-115 0 l0 80 l306 0 l0 -80 l-115 0 l0 -86 l111 0 l0 -312 q0 -93 -66 -94 ZM157 -105 l0 526 q-33 -51 -67 -94 q-31 39 -77 62 q150 178 211 421 l88 -34 q-26 -93 -64 -182 l0 -699 l-91 0 ZM685 343 l-49 0 l0 -247 q15 -2 26 -2 q24 -2 23 29 l0 220 Z" /><glyph glyph-name="" unicode="&#x4f70;" d="M355 649 l0 86 l595 0 l0 -86 l-257 0 q-17 -65 -44 -135 l243 0 l0 -618 l-97 0 l0 77 l-303 0 l0 -78 l-98 0 l0 619 l152 0 q28 71 44 135 l-235 0 ZM172 -105 l0 520 q-36 -51 -70 -90 q-37 35 -85 57 q155 165 238 427 l90 -39 q-30 -93 -76 -189 l0 -686 l-97 0 ZM492 204 l0 -147 l303 0 l0 147 l-303 0 ZM492 431 l0 -145 l303 0 l0 145 l-303 0 Z" /><glyph glyph-name="" unicode="&#x4f73;" d="M386 152 l0 82 l209 0 l0 109 l99 0 l0 -109 l210 0 l0 -82 l-210 0 l0 -139 l263 0 l0 -82 l-628 0 l0 82 l266 0 l0 139 l-209 0 ZM395 582 l0 83 l200 0 l0 140 l99 0 l0 -140 l201 0 l0 -83 l-201 0 l0 -126 l252 0 l0 -81 l-607 0 l0 81 l256 0 l0 126 l-200 0 ZM170 -105 l0 511 q-32 -42 -67 -82 q-42 44 -81 63 q165 177 243 422 l88 -46 q-38 -109 -88 -204 l0 -664 l-95 0 Z" /><glyph glyph-name="" unicode="&#x4f7f;" d="M334 601 l0 82 l249 0 l0 121 l93 0 l0 -121 l252 0 l0 -82 l-252 0 l0 -89 l213 0 l0 -274 l-218 0 q-10 -101 -54 -170 q35 -15 75 -26 q96 -26 280 -38 q-33 -42 -44 -94 q-158 17 -259 43 q-59 16 -113 46 q-74 -65 -213 -109 q-25 39 -68 72 q138 42 202 91 q-66 54 -124 134 l62 51 l-52 0 l0 274 l220 0 l0 89 l-249 0 ZM171 -105 l0 528 q-33 -48 -68 -88 q-29 34 -81 60 q155 171 230 411 l88 -38 q-30 -91 -76 -185 l0 -688 l-93 0 ZM453 315 l130 0 l0 2 l0 117 l-130 0 l0 -119 ZM800 434 l-124 0 l0 -109 l0 -10 l124 0 l0 119 ZM537 115 q33 48 42 123 l-160 0 q62 -81 118 -123 Z" /><glyph glyph-name="" unicode="&#x4f84;" d="M364 654 l0 86 l559 0 l0 -86 l-246 0 q-81 -116 -156 -196 l238 13 q-34 44 -72 86 l82 35 q84 -90 167 -206 l-70 -58 q-4 6 -13 19 q-9 13 -33 45 l-342 -22 q-39 -3 -84 -12 l-37 84 q41 12 77 51 q64 67 128 161 l-198 0 ZM379 153 l0 87 l212 0 l0 109 l99 0 l0 -109 l212 0 l0 -87 l-212 0 l0 -136 l267 0 l0 -88 l-634 0 l0 88 l268 0 l0 136 l-212 0 ZM172 -105 l0 522 q-33 -45 -67 -83 q-35 40 -84 63 q156 167 236 411 l90 -44 q-31 -96 -79 -190 l0 -679 l-96 0 Z" /><glyph glyph-name="" unicode="&#x4f88;" d="M409 126 q-29 33 -81 52 q261 106 381 266 l84 -35 q-32 -43 -70 -81 l219 0 l0 -66 q-141 -302 -570 -367 q-28 49 -73 79 q184 25 306 82 q-44 47 -99 92 l83 35 q50 -40 94 -84 q96 62 145 150 l-197 0 q-97 -72 -222 -123 ZM399 304 q-27 44 -75 71 q124 32 231 88 q-45 44 -99 83 l82 38 q55 -41 91 -76 q88 58 137 123 l-235 0 q-68 -59 -142 -99 q-30 34 -78 54 q167 84 258 223 l89 -39 q-23 -32 -50 -62 l277 0 l0 -69 q-147 -225 -486 -335 ZM179 -105 l0 512 q-42 -60 -82 -100 q-31 41 -80 70 q163 155 249 432 l89 -43 q-27 -92 -81 -198 l0 -673 l-95 0 Z" /><glyph glyph-name="" unicode="&#x4f8b;" d="M307 646 l0 81 l330 0 l0 -81 l-154 0 q-6 -65 -18 -127 l143 0 l0 -80 q-9 -355 -244 -528 q-33 32 -82 54 q135 95 191 217 q-39 36 -96 76 q-15 -29 -31 -55 q-31 30 -76 44 q101 157 129 399 l-92 0 ZM157 -105 l0 515 q-29 -48 -59 -86 q-36 40 -79 62 q147 184 199 424 l89 -34 q-21 -88 -60 -184 l0 -697 l-90 0 ZM787 -97 q-32 0 -87 6 q-1 46 -21 92 q56 -9 86 -9 q57 -2 55 54 l0 749 l92 0 l0 -766 q1 -127 -125 -126 ZM668 111 l0 555 l79 0 l0 -555 l-79 0 ZM531 437 l-86 0 q-23 -86 -63 -168 l49 39 q34 -22 70 -51 q24 81 30 180 Z" /><glyph glyph-name="" unicode="&#x4f8d;" d="M371 598 l0 86 l214 0 l0 121 l98 0 l0 -121 l218 0 l0 -86 l-218 0 l0 -106 l273 0 l0 -87 l-627 0 l0 87 l256 0 l0 106 l-214 0 ZM177 -104 l0 528 q-37 -50 -75 -91 q-31 37 -84 64 q167 176 244 411 l90 -47 q-30 -91 -81 -186 l0 -679 l-94 0 ZM352 217 l0 85 l365 0 l0 82 l97 0 l0 -82 l128 0 l0 -85 l-128 0 l0 -182 q0 -135 -137 -135 q-52 0 -87 7 q-4 51 -26 97 q56 -10 93 -11 q62 -2 60 56 l0 168 l-365 0 ZM537 21 q-71 77 -138 130 l77 54 q66 -51 124 -112 l-63 -72 Z" /><glyph glyph-name="" unicode="&#x4f9b;" d="M352 512 l0 87 l116 0 l0 199 l95 0 l0 -199 l151 0 l0 199 l95 0 l0 -199 l122 0 l0 -87 l-122 0 l0 -211 l147 0 l0 -88 l-633 0 l0 88 l145 0 l0 211 l-116 0 ZM171 -105 l0 529 q-35 -47 -74 -88 q-26 35 -79 61 q163 167 241 410 l88 -35 q-32 -98 -79 -190 l0 -687 l-97 0 ZM563 512 l0 -211 l151 0 l0 211 l-151 0 ZM408 -107 q-38 36 -89 54 q120 102 190 236 l85 -46 q-79 -142 -186 -244 ZM865 -106 q-90 138 -188 244 l86 45 q97 -108 173 -221 l-71 -68 Z" /><glyph glyph-name="" unicode="&#x4f9d;" d="M472 -113 l-44 80 q34 31 32 88 l0 186 q-58 -69 -128 -127 q-29 37 -70 63 l0 -280 l-93 0 l0 516 q-42 -55 -74 -86 q-34 39 -78 59 q161 172 238 424 l91 -43 q-28 -94 -84 -203 l0 -382 q182 142 281 374 l-207 0 l0 90 l281 0 q-39 70 -95 139 l98 26 q56 -70 90 -137 l-60 -28 l289 0 l0 -90 l-296 0 q-38 -99 -92 -188 l0 -326 l128 71 l52 -75 l-204 -114 q-30 -16 -55 -37 ZM910 -52 q-220 157 -306 497 l79 42 q21 -88 53 -165 q77 66 131 136 l73 -53 q-75 -91 -166 -161 q82 -150 211 -225 q-45 -27 -75 -71 Z" /><glyph glyph-name="" unicode="&#x4fa0;" d="M357 586 l0 85 l228 0 l0 134 l95 -6 l0 -128 l223 0 l0 -85 l-224 0 q-2 -168 -9 -246 l271 0 l0 -86 l-243 0 q83 -190 276 -271 q-47 -31 -77 -81 q-185 104 -263 292 q-64 -185 -266 -304 q-30 44 -82 67 q219 117 273 297 l-248 0 l0 86 l265 0 q5 67 8 246 l-227 0 ZM170 -103 l0 527 q-34 -48 -69 -86 q-34 37 -80 58 q155 170 233 413 l86 -42 q-27 -90 -77 -189 l0 -681 l-93 0 ZM784 360 q-42 32 -80 39 q73 86 108 162 l80 -38 q-48 -89 -108 -163 ZM476 358 q-53 89 -114 164 l81 32 q55 -65 101 -144 l-68 -52 Z" /><glyph glyph-name="" unicode="&#x4fa3;" d="M385 -104 l0 426 l525 0 l0 -426 l-99 0 l0 66 l-329 0 l0 -66 l-97 0 ZM415 419 l0 334 l460 0 l0 -334 l-460 0 ZM176 -105 l0 522 q-38 -53 -79 -94 q-34 39 -79 59 q163 180 238 428 l93 -43 q-31 -99 -77 -190 l0 -682 l-96 0 ZM482 237 l0 -190 l329 0 l0 190 l-329 0 ZM511 504 l269 0 l0 164 l-269 0 l0 -164 Z" /><glyph glyph-name="" unicode="&#x4fa5;" d="M345 579 l-16 77 l173 24 q-15 54 -28 118 l91 11 q11 -61 27 -117 l279 39 l14 -75 l-266 -38 q20 -48 45 -90 q83 37 152 85 l60 -55 q-61 -47 -162 -97 q47 -59 99 -61 q30 -1 42 38 q1 3 2 10 q8 30 11 50 q30 -27 77 -43 q-4 -29 -13 -55 q-27 -84 -107 -85 q-111 3 -198 109 q-126 -49 -247 -71 q-17 43 -53 74 q135 24 252 67 q-29 50 -53 111 l-181 -26 ZM326 215 l0 80 l582 0 l0 -80 l-165 0 l0 -163 q-1 -49 39 -47 l45 0 q40 -4 51 45 q8 37 13 71 q32 -34 74 -49 q-1 -3 -2 -10 q-7 -38 -11 -54 q-22 -89 -118 -87 l-70 0 q-110 0 -110 111 l0 183 l-85 0 q4 -259 -245 -320 q-19 40 -65 70 q130 38 172 89 q46 49 48 161 l-153 0 ZM164 -105 l0 531 q-37 -54 -73 -93 q-25 33 -75 56 q154 184 222 418 l88 -36 q-27 -89 -72 -186 l0 -690 l-90 0 Z" /><glyph glyph-name="" unicode="&#x4fa6;" d="M375 112 l0 424 l195 0 l0 269 l94 0 l0 -92 l288 0 l0 -82 l-288 0 l0 -95 l225 0 l0 -421 l-93 0 l0 338 l-328 0 l0 -341 l-93 0 ZM169 -105 l0 517 q-36 -50 -74 -85 q-34 39 -78 59 q161 172 238 424 l91 -43 q-32 -101 -84 -203 l0 -669 l-93 0 ZM348 -106 q-16 42 -59 81 q282 54 294 251 q5 43 5 175 l92 -8 q0 -123 -6 -179 q-19 -249 -326 -320 ZM921 -103 q-134 86 -284 156 l58 70 q147 -65 265 -139 l-39 -87 Z" /><glyph glyph-name="" unicode="&#x4fa7;" d="M310 132 l0 601 l326 0 l0 -584 l-81 0 l0 504 l-165 0 l0 -521 l-80 0 ZM154 -105 l0 540 q-35 -54 -68 -91 q-30 35 -76 57 q149 179 213 412 l85 -35 q-25 -86 -66 -178 l0 -705 l-88 0 ZM794 -95 q-37 0 -79 7 q-3 52 -20 90 q51 -8 81 -8 q56 -2 54 60 l0 742 l89 0 l0 -755 q0 -136 -125 -136 ZM315 -88 q-30 35 -71 54 q205 105 194 333 l0 284 l70 0 l0 -296 q0 -111 -30 -189 l48 36 q75 -55 147 -123 l-46 -70 q-71 74 -156 139 q-42 -98 -156 -168 ZM693 117 l0 562 l78 0 l0 -562 l-78 0 Z" /><glyph glyph-name="" unicode="&#x4fa8;" d="M701 -100 l0 396 l84 0 q-89 68 -143 171 l-32 0 q-42 -96 -133 -171 l76 0 l0 -88 q4 -211 -167 -320 q-37 32 -88 48 q168 98 161 267 l0 78 q-47 -36 -104 -70 q-28 39 -78 66 q165 85 226 190 l-184 0 l0 82 l221 0 q16 50 22 111 q-88 -7 -155 -8 q-17 47 -46 82 q269 2 461 45 l53 -77 q-81 -18 -215 -33 q-6 -66 -21 -120 l295 0 l0 -82 l-191 0 q82 -115 236 -167 q-43 -30 -70 -80 q-63 31 -112 67 l0 -387 l-96 0 ZM172 -105 l0 522 q-34 -48 -67 -87 q-38 38 -84 63 q156 176 234 415 l89 -45 q-32 -100 -77 -188 l0 -680 l-95 0 Z" /><glyph glyph-name="" unicode="&#x4fae;" d="M309 263 l0 80 l93 0 l25 208 q-29 -42 -59 -80 q-34 32 -82 47 q121 129 169 295 l86 -29 q-10 -31 -24 -63 l408 0 l0 -81 l-446 0 q-20 -37 -41 -72 l429 0 l-8 -225 l101 0 l0 -80 l-104 0 l-5 -150 l87 0 l0 -80 l-90 0 q-7 -132 -124 -128 q-29 0 -75 4 q-1 39 -22 79 q41 -5 75 -6 q51 -5 54 51 l-390 0 l27 230 l-84 0 ZM92 309 q-26 36 -74 65 q153 184 218 436 l88 -37 q-25 -95 -69 -194 l0 -684 l-93 0 l0 512 q-34 -53 -70 -98 ZM483 263 l-17 -150 l294 0 l5 150 l-282 0 ZM510 489 l-17 -146 l275 0 l5 146 l-263 0 ZM636 116 q-35 49 -98 109 l65 35 q53 -49 91 -98 l-58 -46 ZM646 347 q-33 48 -90 109 l68 28 q44 -45 83 -100 l-61 -37 Z" /><glyph glyph-name="" unicode="&#x4faf;" d="M319 510 l0 80 l396 0 l17 89 l-336 0 l0 80 l442 0 l-28 -169 l119 0 l0 -80 l-477 0 l78 -29 q-9 -32 -20 -59 l361 0 l0 -78 l-191 0 q-1 -56 -9 -111 l277 0 l0 -80 l-243 0 q86 -123 268 -176 q-37 -24 -67 -80 q-186 71 -272 211 q-66 -140 -271 -217 q-29 43 -74 71 q212 67 266 191 l-251 0 l0 80 l274 0 q7 42 8 111 l-111 0 q-31 -56 -76 -107 q-40 28 -83 38 q96 99 130 235 l-127 0 ZM165 -105 l0 520 q-32 -50 -67 -94 q-33 41 -77 67 q152 180 213 421 l89 -40 q-26 -92 -64 -179 l0 -695 l-94 0 Z" /><glyph glyph-name="" unicode="&#x4fb5;" d="M306 248 l0 154 l616 0 l0 -154 l-85 0 l0 -47 q-51 -91 -133 -156 q105 -45 249 -57 q-39 -35 -56 -90 q-163 27 -279 90 q-120 -66 -281 -97 q-18 49 -59 83 q150 24 255 70 q-70 58 -119 127 l35 24 l-70 0 l0 53 l-73 0 ZM397 573 l0 64 l363 0 l0 50 l-390 0 l0 69 l482 0 l0 -304 l-487 0 l0 69 l395 0 l0 52 l-363 0 ZM163 -105 l0 518 q-33 -54 -68 -97 q-35 40 -80 61 q148 179 217 432 l88 -37 q-21 -78 -65 -180 l0 -697 l-92 0 ZM398 330 l0 -63 l431 0 l0 63 l-431 0 ZM729 195 l-228 0 q49 -61 116 -105 q69 45 112 105 Z" /><glyph glyph-name="" unicode="&#x4fbf;" d="M932 -81 q-162 11 -253 29 q-75 15 -135 42 q-73 -54 -202 -96 q-25 45 -71 73 q122 33 188 72 q-63 45 -113 107 l55 55 l-28 0 l0 393 l218 0 l0 74 l-244 0 l0 81 l586 0 l0 -81 l-250 0 l0 -74 l217 0 l0 -393 l-229 0 q-14 -83 -59 -143 q41 -13 84 -21 q114 -22 277 -23 q-29 -42 -41 -95 ZM169 -105 l0 518 q-43 -65 -68 -96 q-32 39 -80 60 q162 195 221 435 l89 -36 q-29 -105 -70 -194 l0 -687 l-92 0 ZM683 343 q0 -35 -2 -65 l132 0 l0 85 l-130 0 l0 -20 ZM461 278 l128 0 q2 26 2 56 l0 29 l-130 0 l0 -85 ZM461 517 l0 -84 l130 0 l0 84 l-130 0 ZM813 517 l-130 0 l0 -84 l130 0 l0 84 ZM527 96 q36 40 52 105 l-171 0 q52 -67 119 -105 Z" /><glyph glyph-name="" unicode="&#x4fc3;" d="M176 -105 l0 522 q-38 -53 -79 -94 q-34 39 -79 59 q163 180 238 428 l93 -43 q-31 -99 -77 -190 l0 -604 q148 127 143 380 l91 -10 q-5 -103 -16 -160 q45 -84 113 -119 l0 353 l-196 0 l0 337 l470 0 l0 -337 l-179 0 l0 -141 l213 0 l0 -87 l-213 0 l0 -157 q27 -5 57 -8 q38 -4 103 -4 q66 -1 118 1 q-28 -43 -34 -102 q-75 1 -172 7 q-228 17 -309 155 q-33 -90 -122 -177 q-28 25 -67 42 l0 -51 l-96 0 ZM502 503 l280 0 l0 165 l-280 0 l0 -165 Z" /><glyph glyph-name="" unicode="&#x4fc4;" d="M360 633 q-17 44 -45 75 q155 14 269 59 l48 -70 q-38 -14 -108 -33 l0 -139 l130 0 q-1 52 -1 117 q0 63 2 158 l90 6 q-5 -158 -2 -281 l193 0 l0 -86 l-190 0 q4 -93 16 -195 q53 68 90 150 l63 -56 q-51 -110 -134 -203 q16 -64 33 -90 q20 -39 39 -40 q17 0 30 46 q8 24 18 76 q29 -39 68 -59 q-12 -53 -21 -77 q-29 -90 -97 -89 q-62 2 -106 78 q-23 40 -36 84 q-48 -42 -108 -78 q-25 37 -65 61 q82 47 149 111 q-22 117 -29 281 l-132 0 l0 -121 l70 26 l38 -72 l-108 -44 l0 -204 q2 -120 -122 -118 q-24 0 -62 7 q-2 45 -22 92 q35 -5 71 -7 q45 -3 43 51 l0 141 l-102 -41 l-44 80 l146 54 l0 156 l-133 0 l0 86 l133 0 l0 119 q-34 -6 -72 -11 ZM160 -105 l0 517 q-36 -55 -65 -90 q-38 41 -79 60 q150 180 225 426 l87 -38 q-30 -94 -76 -191 l0 -684 l-92 0 ZM856 562 q-55 89 -106 150 l76 32 q63 -77 94 -131 l-64 -51 Z" /><glyph glyph-name="" unicode="&#x4fca;" d="M351 -106 q-28 48 -68 78 q168 33 274 95 q-50 45 -91 100 q-41 -39 -88 -69 q-34 32 -78 49 q159 106 240 263 l79 -32 q-12 -28 -28 -55 l246 0 l0 -64 q-47 -112 -125 -188 q103 -53 259 -76 q-47 -45 -67 -89 q-158 35 -268 103 q-115 -79 -285 -115 ZM168 -105 l0 522 q-37 -53 -75 -95 q-35 42 -76 61 q157 175 245 427 l87 -41 q-37 -101 -88 -198 l0 -676 l-93 0 ZM380 509 l-33 80 q35 7 69 41 q86 93 137 182 l92 -33 q-63 -96 -143 -179 l247 11 q-40 40 -83 78 l74 43 q93 -81 183 -185 l-59 -61 q-10 10 -29 32 q-11 13 -17 20 l-357 -15 q-45 -2 -81 -14 ZM359 298 q-30 32 -76 57 q132 75 209 166 l76 -46 q-89 -102 -209 -177 ZM905 300 q-115 90 -241 166 l65 55 q117 -67 217 -146 l-41 -75 ZM540 247 q-6 -9 -14 -18 q46 -63 106 -108 q61 54 97 126 l-189 0 Z" /><glyph glyph-name="" unicode="&#x4fcf;" d="M384 -104 l0 638 l210 0 l0 271 l96 0 l0 -271 l213 0 l0 -509 q-2 -121 -120 -123 q-42 0 -69 4 q-3 49 -27 89 q45 -7 72 -7 q50 -2 48 48 l0 66 l-328 0 l0 -206 l-95 0 ZM171 -104 l0 513 q-33 -45 -68 -84 q-39 45 -82 63 q166 178 239 422 l88 -47 q-33 -101 -82 -198 l0 -669 l-95 0 ZM479 451 l0 -94 l328 0 l0 94 l-328 0 ZM479 277 l0 -94 l328 0 l0 94 l-328 0 ZM808 561 q-35 29 -84 42 q70 71 121 161 l82 -42 q-50 -85 -119 -161 ZM480 561 q-55 89 -121 162 l84 39 q63 -71 112 -147 l-75 -54 Z" /><glyph glyph-name="" unicode="&#x4fd0;" d="M436 -105 l0 372 q-56 -111 -122 -181 q-27 22 -69 32 l0 -223 l-88 0 l0 542 q-39 -61 -70 -94 q-35 38 -75 57 q149 180 217 413 l83 -38 q-26 -86 -67 -174 l0 -465 q122 134 182 294 l-131 0 l0 83 l140 0 l0 131 q-49 -9 -99 -15 q-14 44 -44 77 q183 20 295 66 l53 -71 q-53 -22 -118 -39 l0 -149 l125 0 l0 -83 l-125 0 l0 -102 l37 18 q57 -57 108 -133 l-59 -55 q-33 54 -86 123 l0 -386 l-87 0 ZM794 -95 q-37 0 -79 7 q-3 52 -20 90 q51 -8 81 -8 q56 -2 54 60 l0 738 l89 0 l0 -751 q0 -136 -125 -136 ZM679 117 l0 562 l80 0 l0 -562 l-80 0 Z" /><glyph glyph-name="" unicode="&#x4fd7;" d="M409 -104 l0 361 q-24 -16 -48 -31 q-27 42 -79 67 q237 123 324 326 l88 -33 q-7 -15 -15 -29 q113 -175 298 -250 q-45 -26 -73 -74 q-28 15 -53 30 l0 -366 l-97 0 l0 61 l-249 0 l0 -62 l-96 0 ZM172 -105 l0 515 q-33 -47 -70 -89 q-33 41 -80 63 q161 178 237 424 l88 -46 q-35 -102 -80 -193 l0 -674 l-95 0 ZM505 203 l0 -162 l249 0 l0 162 l-249 0 ZM632 476 q-72 -107 -183 -190 l367 0 q-109 74 -184 190 ZM863 531 q-94 113 -207 211 l78 52 q98 -83 194 -189 l-65 -74 ZM409 524 q-38 34 -92 46 q125 95 185 222 l85 -47 q-72 -128 -178 -221 Z" /><glyph glyph-name="" unicode="&#x4fd8;" d="M323 142 l0 83 l279 0 l0 52 q33 16 96 56 l53 25 l-363 0 l0 79 l501 0 l0 -73 q-85 -65 -191 -125 l0 -14 l263 0 l0 -83 l-263 0 l0 -130 q-4 -105 -117 -109 q-46 0 -86 5 q-3 43 -25 94 q44 -7 81 -8 q52 -1 51 46 l0 102 l-279 0 ZM176 -105 l0 520 q-39 -56 -78 -98 q-32 35 -84 54 q169 187 249 438 l89 -40 q-29 -92 -83 -198 l0 -676 l-93 0 ZM391 651 q-12 42 -42 84 q318 3 515 50 l52 -75 q-225 -46 -525 -59 ZM789 438 q-44 31 -81 37 q78 86 133 184 l80 -45 q-74 -114 -132 -176 ZM456 442 q-43 77 -102 148 l80 32 q50 -56 94 -129 l-72 -51 ZM627 480 q-27 66 -83 149 l85 21 q42 -57 76 -128 l-78 -42 Z" /><glyph glyph-name="" unicode="&#x4fdd;" d="M402 446 l0 315 l471 0 l0 -315 l-190 0 l0 -100 l260 0 l0 -84 l-213 0 q86 -125 248 -213 q-44 -23 -78 -70 q-134 87 -221 234 l4 -20 l0 -298 l-93 0 l0 298 l2 16 q-87 -145 -234 -234 q-26 32 -78 59 q172 97 263 228 l-212 0 l0 84 l259 0 l0 100 l-188 0 ZM180 -105 l0 529 q-40 -56 -82 -100 q-35 38 -83 53 q175 190 250 433 l88 -40 q-32 -98 -80 -192 l0 -683 l-93 0 ZM495 531 l284 0 l0 145 l-284 0 l0 -145 Z" /><glyph glyph-name="" unicode="&#x4fe1;" d="M374 -105 l0 337 l531 0 l0 -337 l-97 0 l0 52 l-338 0 l0 -52 l-96 0 ZM174 -105 l0 520 q-42 -62 -73 -99 q-33 40 -79 66 q154 181 222 428 l92 -39 q-28 -93 -67 -181 l0 -695 l-95 0 ZM326 606 l0 87 l274 0 q-23 50 -50 92 l104 23 q30 -49 60 -115 l240 0 l0 -87 l-628 0 ZM381 304 l0 81 l519 0 l0 -81 l-519 0 ZM381 455 l0 81 l519 0 l0 -81 l-519 0 ZM470 145 l0 -111 l338 0 l0 111 l-338 0 Z" /><glyph glyph-name="" unicode="&#x4fe9;" d="M311 666 l0 86 l624 0 l0 -86 l-187 0 l0 -128 l162 0 l0 -508 q1 -129 -119 -128 q-39 0 -71 4 q-2 46 -22 90 q52 -6 72 -6 q56 -1 55 55 l0 83 l-40 -36 q-45 93 -70 140 q-25 -100 -82 -189 q-31 23 -81 31 q56 78 80 157 l-53 -57 q-3 6 -9 17 q-11 20 -29 50 q-27 -91 -84 -177 q-25 17 -53 27 l0 -196 l-85 0 l0 643 l171 0 l0 128 l-179 0 ZM154 -105 l0 535 q-34 -53 -66 -89 q-29 36 -75 58 q148 176 209 414 l84 -35 q-21 -80 -64 -179 l0 -704 l-88 0 ZM404 453 l0 -320 q83 120 88 320 l-88 0 ZM825 453 l-82 0 q-3 -58 -9 -108 q51 -77 91 -152 l0 260 ZM573 453 q-3 -60 -10 -113 q38 -52 70 -108 q27 88 30 221 l-90 0 ZM574 666 l0 -128 l90 0 l0 128 l-90 0 Z" /><glyph glyph-name="" unicode="&#x4fed;" d="M452 396 l0 67 q-46 -39 -96 -72 q-31 41 -78 64 q220 132 321 355 l86 -36 q-8 -15 -14 -29 q112 -184 312 -271 q-40 -28 -69 -79 q-66 36 -120 78 l0 -77 l-342 0 ZM161 -105 l0 512 q-31 -42 -65 -79 q-31 39 -82 63 q168 178 243 420 l90 -42 q-41 -119 -90 -211 l0 -663 l-96 0 ZM316 -68 l0 83 l350 0 q78 174 123 335 l87 -40 q-48 -152 -113 -295 l173 0 l0 -83 l-620 0 ZM624 661 q-64 -102 -156 -184 l321 0 q-102 81 -165 184 ZM451 41 q-44 135 -98 255 l91 19 q49 -106 91 -234 l-84 -40 ZM616 99 q-31 114 -79 231 l90 16 q39 -89 74 -213 l-85 -34 Z" /><glyph glyph-name="" unicode="&#x4fee;" d="M930 346 q-132 36 -241 97 q-105 -67 -248 -104 q-19 37 -48 65 l0 -358 l-87 0 l0 578 l87 0 l0 -207 q129 29 219 78 q-44 33 -80 72 q-22 -26 -57 -57 q-34 29 -75 41 q132 119 187 261 l77 -34 q-12 -30 -27 -58 l253 0 l0 -64 q-46 -89 -126 -158 q93 -44 216 -68 q-33 -37 -50 -84 ZM150 -105 l0 518 q-35 -51 -62 -84 q-34 42 -71 66 q145 171 215 414 l83 -39 q-28 -96 -73 -191 l0 -684 l-92 0 ZM474 -111 q-23 43 -65 76 q299 55 478 196 l65 -59 q-191 -160 -478 -213 ZM504 51 q-23 42 -61 72 q236 54 367 161 l64 -57 q-155 -120 -370 -176 ZM500 206 q-19 37 -59 70 q197 42 290 121 l66 -54 q-134 -99 -297 -137 ZM787 647 l-193 0 q-2 -3 -7 -10 q-4 -7 -7 -11 q46 -47 106 -85 q64 50 101 106 Z" /><glyph glyph-name="" unicode="&#x4fef;" d="M329 -96 q-38 33 -81 47 q96 146 91 431 l0 321 l275 0 q-19 46 -47 88 l93 18 q37 -62 56 -106 l231 0 l0 -83 l-521 0 l0 -237 q0 -31 -1 -61 q102 137 144 289 l79 -37 q-31 -86 -61 -146 l0 -533 l-85 0 l0 387 q-24 -35 -50 -64 q-15 20 -30 32 q-10 -194 -93 -346 ZM156 -105 l0 498 q-30 -48 -60 -88 q-33 37 -75 61 q145 192 210 443 l86 -33 q-24 -98 -73 -212 l0 -669 l-88 0 ZM623 352 l0 83 l171 0 l0 155 l87 0 l0 -155 l72 0 l0 -83 l-72 0 l0 -330 q-1 -117 -115 -118 q-41 0 -73 6 q-2 45 -21 88 q36 -9 70 -9 q55 -3 52 54 l0 309 l-171 0 ZM710 96 q-48 97 -103 171 l76 26 q51 -69 89 -143 l-62 -54 Z" /><glyph glyph-name="" unicode="&#x4ff1;" d="M312 86 l0 80 l87 0 l0 594 l472 0 l0 -594 l88 0 l0 -80 l-647 0 ZM168 -105 l0 524 q-33 -48 -68 -86 q-31 39 -84 62 q148 164 233 413 l90 -44 q-30 -88 -75 -181 l0 -688 l-96 0 ZM496 245 l0 -79 l278 0 l0 79 l-278 0 ZM496 391 l0 -78 l278 0 l0 78 l-278 0 ZM496 537 l0 -78 l278 0 l0 78 l-278 0 ZM496 683 l0 -77 l278 0 l0 77 l-278 0 ZM380 -109 q-30 40 -71 59 q131 49 226 130 l66 -52 q-95 -83 -221 -137 ZM912 -106 q-99 67 -230 132 l63 54 q100 -46 201 -109 l-34 -77 Z" /><glyph glyph-name="" unicode="&#x4ffa;" d="M368 84 l0 294 q-24 -16 -50 -31 q-24 36 -56 57 l0 -509 l-95 0 l0 529 q-33 -48 -68 -87 q-32 39 -83 63 q146 159 231 407 l88 -47 q-30 -87 -73 -174 l0 -166 q153 82 227 195 l-149 0 l0 81 l191 0 q21 51 30 111 l93 -17 q-15 -63 -27 -94 l287 0 l0 -81 l-174 0 q84 -119 241 -178 q-41 -27 -69 -73 q-26 13 -50 28 l0 -308 l-202 0 l0 -27 q-4 -57 54 -53 l84 0 q47 -3 59 43 q12 33 17 64 q36 -35 71 -50 q-4 -21 -15 -55 q-27 -87 -125 -84 l-112 0 q-127 -4 -123 128 l0 34 l-202 0 ZM592 615 q-53 -102 -145 -178 l123 0 l0 91 l90 0 l0 -91 l138 0 q-98 76 -153 178 l-53 0 ZM776 366 l-116 0 l0 -72 l116 0 l0 72 ZM660 155 l116 0 l0 72 l-116 0 l0 -72 ZM455 366 l0 -72 l115 0 l0 72 l-115 0 ZM455 155 l115 0 l0 72 l-115 0 l0 -72 Z" /><glyph glyph-name="" unicode="&#x500d;" d="M394 -103 l0 372 l485 0 l0 -372 l-96 0 l0 60 l-293 0 l0 -60 l-96 0 ZM176 -104 l0 521 q-38 -53 -79 -94 q-34 39 -79 59 q163 180 238 428 l93 -43 q-31 -94 -76 -187 l0 -684 l-97 0 ZM321 344 l0 84 l193 0 q-42 72 -91 136 l85 35 q49 -64 95 -141 l-50 -30 l114 0 q56 82 96 176 l86 -34 q-33 -72 -81 -142 l191 0 l0 -84 l-638 0 ZM365 606 l0 84 l243 0 q-35 45 -76 90 l93 34 q46 -45 90 -107 l-34 -17 l233 0 l0 -84 l-549 0 ZM490 187 l0 -148 l293 0 l0 148 l-293 0 Z" /><glyph glyph-name="" unicode="&#x5012;" d="M155 -104 l0 533 q-38 -56 -67 -85 q-35 42 -74 61 q145 156 223 408 l84 -38 q-26 -87 -78 -192 l0 -687 l-88 0 ZM799 -96 q-40 0 -84 6 q-3 48 -21 89 q52 -8 87 -8 q49 -1 48 52 l0 755 l89 0 l0 -762 q0 -132 -119 -132 ZM307 641 l0 80 l347 0 l0 -80 l-149 0 q-45 -109 -95 -189 l140 9 q-32 54 -58 93 l72 26 q73 -107 114 -189 l-63 -49 q-4 7 -12 22 q-7 14 -11 22 l-214 -15 q-33 -2 -66 -13 l-33 68 q34 12 56 54 q43 71 80 161 l-108 0 ZM308 195 l0 79 l126 0 l0 83 l83 0 l0 -83 l122 0 l0 -79 l-122 0 l0 -115 l131 23 l26 -69 l-369 -76 l-35 79 l164 28 l0 130 l-126 0 ZM688 112 l0 557 l79 0 l0 -557 l-79 0 Z" /><glyph glyph-name="" unicode="&#x5014;" d="M351 -99 q-40 28 -89 41 q99 151 94 451 l0 370 l555 0 l0 -246 l-465 0 l0 -122 q3 -326 -95 -494 ZM495 228 l0 214 l79 0 l0 -141 l87 0 l0 182 l85 0 l0 -182 l87 0 l0 139 l78 0 l0 -212 l-165 0 l0 -205 l102 0 l0 149 l82 0 l0 -277 l-82 0 l0 53 l-372 0 l0 224 l82 0 l0 -149 l103 0 l0 205 l-166 0 ZM163 -104 l0 535 q-34 -55 -68 -92 q-33 36 -78 56 q143 160 218 419 l86 -33 q-19 -75 -68 -182 l0 -703 l-90 0 ZM446 688 l0 -97 l375 0 l0 97 l-375 0 Z" /><glyph glyph-name="" unicode="&#x5018;" d="M356 -105 l0 623 l233 0 l0 285 l93 0 l0 -285 l234 0 l0 -494 q0 -122 -112 -122 q-39 1 -70 4 q-1 45 -20 88 q35 -6 69 -7 q43 0 43 47 l0 404 l-380 0 l0 -543 l-90 0 ZM163 -105 l0 536 q-40 -58 -76 -96 q-35 40 -75 59 q151 160 230 419 l87 -33 q-28 -91 -75 -189 l0 -696 l-91 0 ZM518 62 l0 293 l235 0 l0 -293 l-235 0 ZM792 548 q-20 18 -70 42 q78 84 120 166 l72 -48 q-60 -97 -122 -160 ZM477 552 q-56 92 -125 159 l78 38 q57 -59 111 -142 l-64 -55 ZM587 132 l96 0 l0 153 l-96 0 l0 -153 Z" /><glyph glyph-name="" unicode="&#x5019;" d="M509 248 q-30 23 -84 32 q81 101 109 230 l81 -28 q-7 -31 -18 -60 l300 0 l0 -78 l-161 0 q-1 -62 -9 -116 l219 0 l0 -78 l-192 0 q71 -119 224 -180 q-36 -25 -64 -73 q-150 71 -221 207 q-59 -138 -248 -213 q-24 41 -69 69 q191 65 240 190 l-185 0 l0 78 l206 0 q7 45 8 116 l-79 0 q-24 -49 -57 -96 ZM154 -105 l0 533 q-33 -50 -65 -85 q-33 39 -76 58 q146 165 219 413 l86 -37 q-23 -83 -74 -190 l0 -692 l-90 0 ZM434 511 l0 79 l307 0 l14 92 l-279 0 l0 77 l379 0 l-23 -169 l97 0 l0 -79 l-495 0 ZM311 75 l0 572 l85 0 l0 -572 l-85 0 Z" /><glyph glyph-name="" unicode="&#x501a;" d="M852 443 q-123 67 -246 109 q-51 -65 -171 -110 l520 0 l0 -81 l-93 0 l0 -324 q0 -137 -132 -137 q-37 0 -79 4 q-2 47 -23 90 q54 -6 82 -6 q60 -2 58 61 l0 312 l-457 0 l0 81 l117 0 q-27 33 -72 56 q156 50 192 132 l-185 0 l0 80 l207 0 q5 42 3 97 l97 -7 q-2 -62 -6 -90 l231 0 l0 -80 l-248 0 q-1 -5 -4 -11 q109 -33 239 -92 l-30 -84 ZM176 -106 l0 527 q-41 -59 -83 -103 q-35 37 -82 54 q162 179 244 435 l89 -38 q-29 -88 -75 -185 l0 -690 l-93 0 ZM373 52 l0 249 l293 0 l0 -249 l-293 0 ZM458 124 l124 0 l0 104 l-124 0 l0 -104 Z" /><glyph glyph-name="" unicode="&#x501f;" d="M390 -105 l0 448 l483 0 l0 -448 l-93 0 l0 52 l-295 0 l0 -52 l-95 0 ZM351 604 l0 82 l116 0 l0 113 l92 0 l0 -113 l144 0 l0 113 l92 0 l0 -113 l120 0 l0 -82 l-120 0 l0 -110 l161 0 l0 -81 l-645 0 l0 81 l156 0 l0 110 l-116 0 ZM169 -105 l0 525 q-36 -53 -73 -97 q-33 40 -80 68 q155 174 231 420 l89 -38 q-26 -88 -74 -189 l0 -689 l-93 0 ZM485 108 l0 -80 l295 0 l0 80 l-295 0 ZM485 262 l0 -78 l295 0 l0 78 l-295 0 ZM559 604 l0 -110 l144 0 l0 110 l-144 0 Z" /><glyph glyph-name="" unicode="&#x5021;" d="M352 -105 l0 433 l561 0 l0 -433 l-95 0 l0 55 l-369 0 l0 -55 l-97 0 ZM391 398 l0 358 l482 0 l0 -358 l-482 0 ZM168 -105 l0 511 q-38 -51 -71 -87 q-27 36 -79 59 q161 187 229 434 l92 -42 q-27 -97 -76 -200 l0 -675 l-95 0 ZM449 106 l0 -83 l369 0 l0 83 l-369 0 ZM449 255 l0 -82 l369 0 l0 82 l-369 0 ZM486 470 l292 0 l0 75 l-292 0 l0 -75 ZM486 683 l0 -74 l292 0 l0 74 l-292 0 Z" /><glyph glyph-name="" unicode="&#x5026;" d="M559 -75 q-133 -2 -131 125 l0 168 q-45 -43 -97 -79 q-25 33 -67 54 l0 -298 l-93 0 l0 531 q-42 -62 -70 -96 q-35 38 -78 60 q160 189 222 418 l88 -37 q-31 -96 -69 -179 l0 -388 q123 76 196 184 l-151 0 l0 77 l194 0 q17 35 30 75 l-186 0 l0 77 l206 0 q18 88 20 192 l93 -9 q-5 -108 -20 -183 l246 0 l0 -77 l-265 0 q-12 -39 -28 -75 l334 0 l0 -77 l-176 0 q79 -97 212 -152 q-43 -27 -69 -70 q-62 33 -112 75 l0 -58 q2 -113 -108 -111 q-38 0 -60 4 q-6 47 -23 75 q33 -6 66 -7 q43 0 43 45 l0 38 l-186 0 l0 -166 q1 -54 52 -54 l177 0 q54 -2 69 57 q7 28 13 55 q30 -34 74 -53 q-6 -30 -16 -55 q-25 -91 -140 -86 l-190 0 ZM562 388 q-29 -50 -57 -86 l221 0 q-32 34 -64 86 l-100 0 ZM761 628 q-32 26 -71 42 q66 56 111 116 l70 -44 q-47 -59 -110 -114 ZM468 628 q-54 67 -108 116 l73 39 q64 -64 97 -109 l-62 -46 Z" /><glyph glyph-name="" unicode="&#x503a;" d="M360 657 l0 74 l226 0 l0 74 l92 0 l0 -74 l228 0 l0 -74 l-228 0 l0 -56 l198 0 l0 -71 l-198 0 l0 -58 l280 0 l0 -75 l-646 0 l0 75 l274 0 l0 58 l-197 0 l0 71 l197 0 l0 56 l-226 0 ZM170 -105 l0 524 q-37 -53 -75 -91 q-34 38 -83 54 q161 168 241 424 l88 -40 q-26 -85 -78 -190 l0 -681 l-93 0 ZM386 64 l0 277 l494 0 l0 -274 l-94 0 l0 201 l-308 0 l0 -204 l-92 0 ZM904 -109 q-123 74 -277 141 q-70 -108 -268 -140 q-19 42 -59 77 q166 23 228 83 q65 59 62 189 l89 -12 q-1 -87 -28 -153 l20 26 q152 -62 266 -127 l-33 -84 Z" /><glyph glyph-name="" unicode="&#x503c;" d="M346 630 l0 81 l231 0 l12 93 l97 0 l-12 -93 l252 0 l0 -81 l-262 0 l-9 -70 l213 0 l0 -552 l93 0 l0 -82 l-652 0 l0 82 l86 0 l0 552 l164 0 l8 70 l-221 0 ZM174 -105 l0 528 q-41 -60 -76 -97 q-34 38 -84 53 q160 175 237 427 l88 -39 q-26 -87 -72 -181 l0 -691 l-93 0 ZM490 482 l0 -68 l284 0 l0 68 l-284 0 ZM490 347 l0 -68 l284 0 l0 68 l-284 0 ZM490 76 l0 -68 l284 0 l0 68 l-284 0 ZM490 212 l0 -68 l284 0 l0 68 l-284 0 Z" /><glyph glyph-name="" unicode="&#x503e;" d="M500 682 l0 80 l453 0 l0 -80 l-176 0 q-13 -49 -35 -106 l178 0 l0 -468 l-84 0 l0 388 l-218 0 l0 -391 l-83 0 l0 471 l116 0 q20 48 35 106 l-186 0 ZM148 -105 l0 533 q-37 -55 -63 -84 q-26 34 -75 57 q145 169 213 412 l85 -35 q-26 -92 -72 -190 l0 -693 l-88 0 ZM343 18 l-48 75 q24 25 23 81 l0 568 l84 0 l0 -209 l96 0 l0 -81 l-96 0 l0 -285 l82 52 l44 -65 l-123 -85 q-34 -20 -62 -51 ZM520 -109 q-29 41 -69 68 q246 88 236 300 l0 173 l80 0 l0 -181 q0 -70 -18 -129 l14 12 q124 -87 206 -159 l-42 -80 q-103 92 -204 167 q-57 -105 -203 -171 Z" /><glyph glyph-name="" unicode="&#x5047;" d="M340 -105 l0 869 l270 0 l0 -304 l-180 0 l0 -92 l162 0 l0 -81 l-162 0 l0 -101 l170 0 l0 -81 l-170 0 l0 -210 l-90 0 ZM914 -101 q-86 50 -146 113 q-69 -67 -175 -116 q-29 40 -71 62 q123 48 194 120 q-54 80 -80 191 l64 26 l-70 0 l0 82 l282 0 l0 -72 q-24 -137 -90 -229 q65 -68 159 -107 q-39 -22 -67 -70 ZM160 -105 l0 522 q-29 -47 -59 -85 q-38 42 -77 61 q144 181 198 418 l88 -32 q-22 -93 -60 -184 l0 -700 l-90 0 ZM647 459 l0 81 l166 0 l0 143 l-166 0 l0 81 l257 0 l0 -305 l-257 0 ZM430 685 l0 -146 l95 0 l0 146 l-95 0 ZM827 295 l-119 0 q20 -84 62 -151 q42 67 57 151 Z" /><glyph glyph-name="" unicode="&#x504e;" d="M366 392 l0 372 l508 0 l0 -372 l-508 0 ZM298 255 l0 77 l637 0 l0 -77 l-270 0 q21 -62 60 -114 q76 46 130 97 l68 -50 q-68 -57 -148 -103 q75 -68 197 -113 q-46 -28 -72 -70 q-250 106 -322 353 l-93 0 l0 -229 l113 51 l44 -66 l-165 -80 q-40 -21 -66 -45 l-46 75 q30 26 29 79 l0 215 l-96 0 ZM160 -105 l0 522 q-34 -54 -70 -100 q-32 38 -79 62 q145 171 220 432 l88 -41 q-27 -91 -67 -179 l0 -696 l-92 0 ZM786 690 l-124 0 l0 -79 l124 0 l0 79 ZM662 466 l124 0 l0 79 l-124 0 l0 -79 ZM455 690 l0 -79 l123 0 l0 79 l-123 0 ZM455 466 l123 0 l0 79 l-123 0 l0 -79 Z" /><glyph glyph-name="" unicode="&#x504f;" d="M430 -105 l0 397 q-23 -219 -113 -359 q-25 26 -62 41 l0 -79 l-90 0 l0 512 q-30 -47 -64 -89 q-31 38 -80 61 q153 187 215 430 l89 -37 q-27 -98 -70 -197 l0 -577 q104 162 98 465 l0 246 l234 0 q-20 39 -46 80 l101 15 q29 -46 52 -95 l207 0 l0 -248 l-458 0 l0 -22 q0 -24 -3 -48 l481 0 l0 -380 q0 -110 -103 -110 q-27 0 -52 3 q-3 40 -21 79 q34 -5 56 -5 q38 -1 37 44 l0 108 l-65 0 l0 -138 l-69 0 l0 138 l-64 0 l0 -167 l-70 0 l0 167 l-62 0 l0 -235 l-78 0 ZM443 633 l0 -96 l372 0 l0 96 l-372 0 ZM838 316 l-65 0 l0 -113 l65 0 l0 113 ZM640 316 l0 -113 l64 0 l0 113 l-64 0 ZM508 316 l0 -113 l62 0 l0 113 l-62 0 Z" /><glyph glyph-name="" unicode="&#x505a;" d="M618 330 q-13 24 -28 39 l0 -366 l-85 0 l0 40 l-114 0 l0 -81 l-84 0 l0 438 l96 0 l0 144 l-116 0 l0 82 l116 0 l0 178 l87 0 l0 -178 l114 0 l0 -82 l-114 0 l0 -144 l72 0 q111 172 137 408 l86 -25 q-13 -77 -37 -161 l212 0 l0 -85 l-61 0 q-8 -239 -83 -396 q66 -105 173 -171 q-47 -28 -76 -73 q-88 74 -146 160 q-62 -90 -162 -166 q-26 39 -71 66 q119 81 183 185 q-50 103 -74 227 q-7 -12 -21 -33 q-3 -4 -4 -6 ZM149 -105 l0 527 q-29 -47 -63 -86 q-32 35 -75 56 q149 186 211 421 l85 -35 q-22 -81 -71 -190 l0 -693 l-87 0 ZM391 319 l0 -195 l114 0 l0 195 l-114 0 ZM720 537 q-5 -16 -16 -44 q-3 -7 -4 -10 q21 -138 65 -243 q45 120 51 297 l-96 0 Z" /><glyph glyph-name="" unicode="&#x505c;" d="M398 124 l0 74 l444 0 l0 65 l-445 0 l0 -88 l-93 0 l0 162 l628 0 l0 -162 l-89 0 l0 -51 l-162 0 l0 -103 q1 -121 -127 -120 q-41 0 -70 6 q-3 46 -25 88 q43 -9 74 -9 q57 -2 55 51 l0 87 l-190 0 ZM160 -105 l0 516 q-38 -59 -64 -90 q-34 39 -79 62 q151 178 217 428 l88 -42 q-26 -93 -70 -189 l0 -685 l-92 0 ZM399 384 l0 207 l438 0 l0 -207 l-438 0 ZM330 639 l0 76 l248 0 q-25 36 -60 76 l103 23 q47 -52 76 -99 l207 0 l0 -76 l-574 0 ZM490 454 l256 0 l0 68 l-256 0 l0 -68 Z" /><glyph glyph-name="" unicode="&#x5065;" d="M490 515 l0 73 l166 0 l0 65 l-131 0 l0 73 l131 0 l0 79 l82 0 l0 -79 l155 0 l0 -138 l65 0 l0 -73 l-65 0 l0 -139 l-155 0 l0 -63 l166 0 l0 -74 l-166 0 l0 -64 l196 0 l0 -73 l-196 0 l0 -88 q99 -3 230 3 q-20 -43 -25 -94 q-67 -1 -115 0 q-49 0 -88 2 q-79 2 -128 9 q-125 12 -207 78 q-36 -61 -93 -116 q-29 29 -78 49 q68 57 108 133 q-51 70 -86 182 l67 40 q24 -78 55 -132 q23 84 24 203 l-61 0 q-24 0 -49 -7 l-21 68 q32 14 51 60 l65 151 l-99 0 l0 82 l192 0 l0 -72 l-90 -207 l91 0 l0 -62 q1 -181 -41 -295 q65 -58 175 -66 q7 -1 22 -3 q12 -1 19 -2 l0 84 l-158 0 l0 73 l158 0 l0 64 l-135 0 l0 74 l135 0 l0 63 l-131 0 l0 73 l131 0 l0 66 l-166 0 ZM144 -105 l0 529 q-32 -51 -59 -81 q-31 36 -75 55 q144 179 204 416 l84 -33 q-26 -94 -67 -189 l0 -697 l-87 0 ZM738 449 l77 0 l0 66 l-77 0 l0 -66 ZM815 653 l-77 0 l0 -65 l77 0 l0 65 Z" /><glyph glyph-name="" unicode="&#x5076;" d="M486 39 l-26 75 q40 2 123 8 l0 113 l-146 0 l0 -340 l-90 0 l0 415 l236 0 l0 71 l-201 0 l0 379 l491 0 l0 -379 l-202 0 l0 -71 l247 0 l0 -287 q-1 -119 -119 -120 q-46 0 -77 4 q-2 41 -25 80 q44 -6 78 -6 q54 -1 53 55 l0 199 l-162 0 l0 -105 q11 1 34 4 q16 2 24 3 q-9 28 -20 55 l58 9 q32 -76 53 -153 l-56 -22 q-2 9 -7 26 q-5 18 -8 26 q-124 -23 -258 -39 ZM174 -105 l0 517 q-43 -66 -77 -107 q-33 38 -81 60 q161 188 240 447 l89 -33 q-30 -97 -80 -202 l0 -682 l-91 0 ZM671 454 l114 0 l0 85 l-114 0 l0 -85 ZM470 454 l113 0 l0 85 l-113 0 l0 -85 ZM785 687 l-114 0 l0 -83 l114 0 l0 83 ZM470 687 l0 -83 l113 0 l0 83 l-113 0 Z" /><glyph glyph-name="" unicode="&#x5077;" d="M346 -103 l0 536 l267 0 l0 -432 q0 -101 -93 -101 q-24 0 -54 4 q-2 45 -21 77 q34 -6 54 -6 q34 -1 33 37 l0 64 l-105 0 l0 -179 l-81 0 ZM474 490 l0 53 q-60 -45 -127 -81 q-25 44 -72 67 q229 108 324 287 l85 -37 q-3 -5 -9 -14 q-6 -10 -9 -15 q120 -134 306 -197 q-42 -31 -65 -80 q-73 33 -136 75 l0 -58 l-297 0 ZM167 -104 l0 523 q-39 -51 -78 -88 q-29 41 -71 66 q161 157 251 410 l84 -45 q-35 -101 -93 -203 l0 -663 l-93 0 ZM783 -99 q-36 0 -70 5 q-2 48 -27 84 q49 -7 75 -7 q45 -2 43 44 l0 410 l86 0 l0 -419 q-2 -115 -107 -117 ZM673 59 l0 337 l71 0 l0 -337 l-71 0 ZM618 684 q-53 -67 -118 -120 l249 0 q-72 51 -131 120 ZM427 219 l0 -75 l105 0 l0 75 l-105 0 ZM427 360 l0 -73 l105 0 l0 73 l-105 0 Z" /><glyph glyph-name="" unicode="&#x507f;" d="M856 -108 q-24 33 -51 68 l-328 -30 q-44 -3 -87 -20 l-38 86 q43 13 75 53 q41 48 90 131 l-201 0 l0 87 l627 0 l0 -87 l-322 0 q-52 -91 -107 -162 l230 18 q-36 44 -71 82 l77 40 q109 -116 169 -201 l-63 -65 ZM159 -105 l0 533 q-38 -58 -68 -88 q-31 38 -75 59 q148 170 221 413 l85 -34 q-23 -79 -72 -185 l0 -698 l-91 0 ZM327 417 l0 190 l255 0 l0 195 l92 0 l0 -195 l256 0 l0 -190 l-90 0 l0 108 l-423 0 l0 -108 l-90 0 ZM426 352 l0 85 l407 0 l0 -85 l-407 0 ZM785 618 q-37 27 -76 37 q65 64 111 133 l75 -42 q-53 -74 -110 -128 ZM470 617 q-51 69 -108 127 l78 39 q61 -62 96 -114 l-66 -52 Z" /><glyph glyph-name="" unicode="&#x5080;" d="M369 284 l0 426 l168 0 q27 43 50 100 l95 -24 q-17 -38 -38 -76 l241 0 l0 -426 l-237 0 q-6 -27 -16 -52 l43 0 l0 -116 q18 11 30 39 q24 45 50 123 l61 -19 q-31 -80 -58 -131 l83 7 q-23 41 -41 71 l55 18 q42 -64 74 -134 l-6 -4 q21 -15 42 -23 q-4 -27 -10 -47 q-24 -98 -126 -94 l-119 0 q-120 -1 -119 117 l0 100 q-79 -143 -234 -243 q-33 41 -83 61 q218 134 279 327 l-184 0 ZM173 -103 l0 532 q-36 -51 -73 -92 q-31 38 -80 62 q150 162 237 411 l86 -46 q-32 -92 -76 -179 l0 -688 l-94 0 ZM704 56 l-29 40 l0 -42 q-1 -54 54 -53 l88 0 q52 -4 68 58 l-5 -3 l-12 24 l-115 -11 q-27 -3 -49 -13 ZM665 365 l127 0 l0 94 l-119 0 q-2 -48 -8 -94 ZM462 628 l0 -93 l120 0 l0 93 l-120 0 ZM792 628 l-119 0 l0 -93 l119 0 l0 93 ZM462 365 l110 0 q8 45 9 94 l-119 0 l0 -94 Z" /><glyph glyph-name="" unicode="&#x5085;" d="M573 219 l0 60 l-132 0 l0 -65 l-89 0 l0 369 l221 0 l0 53 l-252 0 l0 71 l252 0 l0 98 l89 0 l0 -98 l110 0 q-37 40 -73 68 l72 34 q43 -34 77 -74 l-41 -28 l122 0 l0 -71 l-267 0 l0 -53 l223 0 l0 -369 l-67 0 l0 -35 l142 0 l0 -71 l-142 0 l0 -88 q-1 -116 -118 -117 q-43 0 -71 3 q-3 42 -24 86 q42 -7 78 -7 q44 -1 43 47 l0 76 l-249 0 q43 -42 89 -105 l-74 -57 q-40 60 -101 125 l79 37 l-177 0 l0 71 l433 0 l0 63 l70 0 l0 37 l-134 0 l0 -60 l-89 0 ZM162 -105 l0 534 q-35 -57 -73 -105 q-29 37 -76 61 q144 171 216 426 l87 -36 q-26 -88 -64 -175 l0 -705 l-90 0 ZM796 513 l-134 0 l0 -57 l134 0 l0 57 ZM441 513 l0 -57 l132 0 l0 57 l-132 0 ZM662 396 l0 -56 l134 0 l0 56 l-134 0 ZM441 396 l0 -56 l132 0 l0 56 l-132 0 Z" /><glyph glyph-name="" unicode="&#x508d;" d="M314 259 l0 82 l290 0 q-22 33 -51 69 l101 27 q28 -34 65 -96 l229 0 l0 -82 l-364 0 q-3 -35 -8 -65 l292 0 l-13 -162 q-8 -128 -135 -127 q-44 0 -85 6 q-3 45 -24 88 q46 -9 91 -9 q57 -1 60 54 l6 70 l-211 0 q-42 -141 -198 -222 q-31 47 -81 72 q204 86 211 295 l-175 0 ZM343 635 l0 82 l245 0 q-22 38 -49 74 l104 19 q22 -27 58 -93 l226 0 l0 -82 l-167 0 l74 -25 q-29 -47 -57 -80 l150 0 l0 -153 l-90 0 l0 73 l-411 0 l0 -73 l-90 0 l0 153 l150 0 q-20 27 -58 78 l79 27 l-164 0 ZM166 -105 l0 532 q-30 -47 -75 -105 q-35 41 -79 62 q156 184 224 426 l87 -39 q-27 -86 -67 -176 l0 -700 l-90 0 ZM519 635 q30 -36 73 -105 l81 0 q36 45 70 105 l-224 0 Z" /><glyph glyph-name="" unicode="&#x50a8;" d="M525 599 l0 78 l106 0 l0 127 l86 0 l0 -127 l102 0 l0 -73 q33 52 60 110 l73 -38 q-46 -99 -109 -181 l117 0 l0 -78 l-183 0 q-36 -40 -77 -76 l205 0 l0 -446 l-86 0 l0 48 l-167 0 l0 -48 l-86 0 l0 343 q-33 -22 -68 -43 q-24 37 -66 58 q130 72 229 164 l-176 0 l0 78 l146 0 l0 104 l-106 0 ZM156 -105 l0 540 q-37 -56 -67 -89 q-34 39 -75 57 q148 175 217 406 l83 -37 q-22 -74 -69 -175 l0 -702 l-89 0 ZM369 -67 l-51 66 q30 31 28 86 l0 341 l-74 0 l0 85 l159 0 l0 -419 l70 56 l45 -57 l-133 -114 q-27 -21 -44 -44 ZM412 561 q-46 81 -105 154 l80 32 q56 -67 94 -134 l-69 -52 ZM652 105 l0 -86 l167 0 l0 86 l-167 0 ZM652 264 l0 -85 l167 0 l0 85 l-167 0 ZM737 495 q42 49 78 104 l-98 0 l0 -104 l20 0 Z" /><glyph glyph-name="" unicode="&#x50ac;" d="M369 577 l0 192 l91 0 l0 -112 l134 0 l0 148 l91 0 l0 -148 l138 0 l0 112 l90 0 l0 -192 l-440 0 l78 -39 q-14 -33 -32 -65 l147 0 q-32 44 -56 71 l86 26 q22 -23 55 -70 q13 -18 17 -23 l-9 -4 l173 0 l0 -75 l-193 0 l0 -77 l171 0 l0 -71 l-171 0 l0 -78 l171 0 l0 -71 l-171 0 l0 -81 l213 0 l0 -75 l-471 0 l0 -50 l-93 0 l0 391 q-33 -36 -61 -60 q-25 32 -66 56 l0 -387 l-93 0 l0 533 q-35 -48 -71 -88 q-31 38 -80 62 q151 164 236 407 l87 -45 q-33 -95 -79 -184 l0 -290 q139 125 207 287 l-99 0 ZM481 101 l0 -81 l164 0 l0 81 l-164 0 ZM481 250 l0 -78 l164 0 l0 78 l-164 0 ZM481 398 l0 -77 l164 0 l0 77 l-164 0 Z" /><glyph glyph-name="" unicode="&#x50b2;" d="M295 621 l0 74 l127 0 l0 110 l80 0 l0 -110 l128 0 l0 -74 l-128 0 l0 -71 l106 0 l0 -72 l-106 0 l0 -75 l115 0 q-14 12 -32 20 q101 138 132 385 l80 -26 q-16 -93 -39 -171 l201 0 l0 -81 l-55 0 q-7 -261 -70 -408 q53 -89 150 -163 q-44 -19 -81 -59 q-70 70 -114 138 q-51 -78 -130 -144 q-31 30 -78 49 q111 80 163 177 q-54 114 -78 281 q-3 -4 -8 -13 q-8 -12 -12 -17 q-1 1 -3 3 q-2 3 -5 8 l0 -54 l-201 0 q0 -42 -3 -79 l181 0 l-11 -210 q-4 -109 -116 -107 q-32 0 -57 3 q-4 47 -22 75 q33 -6 69 -6 q48 -3 48 52 l7 121 l-106 0 q-24 -165 -121 -268 q-34 26 -73 34 l0 -47 l-81 0 l0 541 q-35 -54 -65 -87 q-26 32 -70 53 q137 151 210 412 l81 -29 q-29 -98 -75 -200 l0 -636 q130 131 125 378 l-86 0 l0 75 l150 0 l0 75 l-110 0 l0 72 l110 0 l0 71 l-127 0 ZM786 220 q36 115 39 310 l-95 0 q-21 -54 -46 -99 l47 20 q20 -139 55 -231 Z" /><glyph glyph-name="" unicode="&#x50bb;" d="M355 366 l0 366 l160 0 q24 42 41 83 l96 -21 q-15 -30 -33 -62 l261 0 l0 -366 l-99 0 q106 -64 171 -116 l-30 -73 q-119 92 -225 155 l42 34 l-276 0 l57 -30 q-83 -102 -194 -168 q-30 30 -69 51 q118 64 190 147 l-92 0 ZM361 -109 q-23 44 -57 71 q159 24 257 71 q-44 33 -83 74 q-52 -44 -94 -68 q-32 32 -76 49 q165 96 245 226 l71 -33 q-9 -18 -21 -35 l222 0 l0 -64 q-40 -83 -111 -146 q96 -41 243 -61 q-29 -26 -52 -75 q-1 -3 -2 -5 q-148 25 -263 88 q-113 -67 -279 -92 ZM160 -105 l0 508 q-33 -55 -65 -96 q-37 38 -82 56 q145 185 218 442 l88 -34 q-25 -90 -67 -188 l0 -688 l-92 0 ZM443 439 l349 0 l0 220 l-349 0 l0 -220 ZM736 445 q-51 35 -105 67 q-53 -37 -113 -67 q-22 27 -55 45 q57 26 108 58 q-47 27 -94 52 l47 42 q41 -20 103 -55 q41 32 70 63 l58 -33 q-32 -33 -70 -64 q44 -26 78 -49 l-27 -59 ZM547 174 q-8 -7 -14 -15 q45 -47 102 -82 q56 42 89 97 l-177 0 Z" /><glyph glyph-name="" unicode="&#x50cf;" d="M372 374 l0 154 q-3 -2 -9 -5 q-1 -2 -2 -2 q-29 34 -73 51 q152 94 227 238 l78 -36 q-15 -24 -30 -47 l263 0 l0 -56 l-75 -81 l147 0 l0 -216 l-293 0 q-5 -4 -8 -9 q52 -42 82 -99 q104 51 161 102 l71 -48 q-45 -36 -100 -67 q43 -150 165 -227 q-47 -19 -85 -54 q-103 91 -148 245 q-18 -9 -38 -18 q15 -55 16 -124 q4 -179 -167 -174 q-27 0 -56 4 q-2 46 -24 82 q40 -7 67 -7 q93 -5 89 99 q0 10 -2 29 q2 -13 0 3 q-114 -103 -293 -166 q-18 33 -61 62 q197 56 339 182 q-7 23 -18 44 q-97 -87 -256 -143 q-22 35 -61 58 q170 44 280 138 q-11 13 -25 25 q-75 -52 -190 -93 q-27 41 -60 60 q131 37 210 96 l-121 0 ZM168 -105 l0 516 q-34 -54 -69 -97 q-32 38 -79 59 q151 178 221 437 l89 -38 q-28 -93 -72 -193 l0 -684 l-90 0 ZM513 659 q-35 -42 -66 -69 l194 0 l65 69 l-193 0 ZM810 521 l-129 0 q-9 -41 -28 -77 l157 0 l0 77 ZM460 444 l102 0 q24 35 35 77 l-137 0 l0 -77 Z" /><glyph glyph-name="" unicode="&#x50da;" d="M335 629 l0 76 l219 0 q11 42 15 107 l92 -15 q-5 -51 -14 -92 l263 0 l0 -76 l-223 0 q32 -55 75 -99 q42 36 75 75 l65 -49 q-45 -47 -79 -77 q69 -49 152 -72 q-35 -28 -53 -74 q-41 15 -77 36 l0 -232 l-172 0 l0 -123 q-1 -111 -114 -112 q-36 0 -68 5 q-2 43 -23 82 q48 -8 73 -8 q45 -2 43 49 l0 107 l-196 0 l0 224 q-32 -19 -65 -34 q-26 42 -65 62 q91 37 157 91 q-51 46 -87 72 l64 46 q40 -31 78 -64 q38 43 60 95 l-195 0 ZM161 -105 l0 522 q-36 -53 -73 -95 q-36 45 -78 65 q162 173 231 424 l87 -35 q-29 -100 -75 -197 l0 -684 l-92 0 ZM353 -84 q-30 33 -77 52 q105 66 172 151 l69 -46 q-69 -89 -164 -157 ZM892 -80 q-75 75 -176 147 l63 51 q92 -62 162 -128 l-49 -70 ZM614 604 q-39 -86 -110 -155 l227 0 q-73 66 -117 155 ZM477 380 l0 -54 l281 0 l0 54 l-281 0 ZM477 208 l281 0 l0 54 l-281 0 l0 -54 Z" /><glyph glyph-name="" unicode="&#x50e7;" d="M339 348 l0 326 l168 0 q-47 58 -93 97 l73 38 q53 -43 97 -100 l-40 -35 l120 0 q59 59 110 138 l77 -40 q-42 -57 -81 -98 l153 0 l0 -326 l-584 0 ZM384 -105 l0 394 l493 0 l0 -394 l-91 0 l0 45 l-310 0 l0 -45 l-92 0 ZM165 -105 l0 518 q-36 -54 -71 -95 q-33 41 -78 63 q153 170 234 430 l88 -36 q-31 -96 -82 -202 l0 -678 l-91 0 ZM834 605 l-164 0 l0 -188 l164 0 l0 188 ZM429 417 l163 0 l0 188 l-163 0 l0 -188 ZM476 83 l0 -74 l310 0 l0 74 l-310 0 ZM476 220 l0 -73 l310 0 l0 73 l-310 0 ZM748 442 q-28 25 -60 29 q40 49 68 110 l62 -28 q-28 -58 -70 -111 ZM516 441 q-29 58 -70 112 l63 25 q39 -50 63 -100 l-56 -37 Z" /><glyph glyph-name="" unicode="&#x50f5;" d="M346 27 l0 246 l545 0 l0 -246 l-545 0 ZM348 415 l0 244 l541 0 l0 -244 l-541 0 ZM160 -105 l0 529 q-36 -56 -72 -100 q-30 41 -75 65 q155 180 217 425 l86 -33 q-22 -92 -66 -192 l0 -694 l-90 0 ZM286 -78 l0 66 l672 0 l0 -66 l-672 0 ZM304 311 l0 66 l637 0 l0 -66 l-637 0 ZM327 697 l0 66 l598 0 l0 -66 l-598 0 ZM803 216 l-142 0 l0 -38 l142 0 l0 38 ZM661 84 l142 0 l0 38 l-142 0 l0 -38 ZM434 216 l0 -38 l141 0 l0 38 l-141 0 ZM434 84 l141 0 l0 38 l-141 0 l0 -38 ZM801 602 l-140 0 l0 -37 l140 0 l0 37 ZM661 472 l140 0 l0 37 l-140 0 l0 -37 ZM436 472 l139 0 l0 37 l-139 0 l0 -37 ZM436 602 l0 -37 l139 0 l0 37 l-139 0 Z" /><glyph glyph-name="" unicode="&#x50fb;" d="M149 -105 l0 536 q-35 -54 -65 -87 q-26 34 -74 57 q142 169 211 412 l83 -35 q-22 -81 -69 -186 l0 -492 q79 149 76 409 l0 245 l267 0 l0 -310 l-186 0 q-3 -54 -9 -107 l208 0 l0 -387 l-76 0 l0 58 l-86 0 l0 -74 l-78 0 l0 246 q-20 -84 -70 -171 q-21 27 -46 40 l0 -154 l-86 0 ZM595 326 l0 83 l178 0 q47 95 77 188 l76 -32 q-23 -65 -70 -156 l102 0 l0 -83 l-136 0 l0 -127 l114 0 l0 -81 l-114 0 l0 -222 l-86 0 l0 222 l-117 0 l0 81 l117 0 l0 127 l-141 0 ZM618 611 l0 81 l127 0 q-30 57 -55 97 l88 21 q39 -62 65 -118 l94 0 l0 -81 l-319 0 ZM394 673 l0 -148 l105 0 l0 148 l-105 0 ZM429 257 l0 -168 l86 0 l0 168 l-86 0 ZM698 417 q-41 100 -73 151 l76 26 q39 -65 68 -141 l-71 -36 Z" /><glyph glyph-name="" unicode="&#x5112;" d="M304 274 l0 71 l639 0 l0 -71 l-305 0 q-11 -32 -26 -62 l299 0 l0 -196 q1 -118 -107 -116 q-23 0 -47 4 q-2 42 -17 72 l0 -42 l-81 0 l0 208 l-81 0 l0 -214 l-81 0 l0 214 l-80 0 l0 -246 l-87 0 l0 316 l188 0 q17 30 29 62 l-243 0 ZM575 385 l0 194 l-184 0 l0 -147 l-78 0 l0 215 l262 0 l0 53 l-224 0 l0 68 l536 0 l0 -68 l-227 0 l0 -53 l263 0 l0 -215 l-79 0 l0 147 l-184 0 l0 -194 l-85 0 ZM162 -105 l0 517 q-33 -54 -67 -96 q-33 39 -79 60 q146 174 214 435 l88 -39 q-25 -92 -65 -185 l0 -692 l-91 0 ZM825 142 l-85 0 l0 -158 q30 -4 47 -4 q39 -2 38 45 l0 117 ZM419 486 l0 47 l128 0 l0 -47 l-128 0 ZM688 486 l0 47 l128 0 l0 -47 l-128 0 ZM419 395 l0 46 l128 0 l0 -46 l-128 0 ZM688 395 l0 46 l128 0 l0 -46 l-128 0 Z" /><glyph glyph-name="" unicode="&#x5121;" d="M363 405 l0 356 l488 0 l0 -356 l-488 0 ZM628 -102 l0 453 l299 0 l0 -453 l-68 0 l0 53 l-163 0 l0 -53 l-68 0 ZM290 -103 l0 454 l295 0 l0 -453 l-68 0 l0 53 l-159 0 l0 -54 l-68 0 ZM148 -105 l0 488 q-27 -44 -54 -79 q-43 43 -77 59 q146 197 211 445 l88 -32 q-25 -100 -80 -225 l0 -656 l-88 0 ZM449 474 l119 0 l0 76 l-119 0 l0 -76 ZM647 474 l118 0 l0 76 l-118 0 l0 -76 ZM449 691 l0 -75 l119 0 l0 75 l-119 0 ZM765 691 l-118 0 l0 -75 l118 0 l0 75 ZM808 119 l0 -106 l51 0 l0 106 l-51 0 ZM859 284 l-51 0 l0 -105 l51 0 l0 105 ZM696 119 l0 -106 l50 0 l0 106 l-50 0 ZM696 284 l0 -105 l50 0 l0 105 l-50 0 ZM468 119 l0 -106 l49 0 l0 106 l-49 0 ZM517 284 l-49 0 l0 -105 l49 0 l0 105 ZM358 119 l0 -106 l48 0 l0 106 l-48 0 ZM358 284 l0 -105 l48 0 l0 105 l-48 0 Z" /><glyph glyph-name="" unicode="&#x513f;" d="M126 -96 q-40 44 -90 66 q157 96 205 205 q53 106 51 339 l0 273 l103 0 l0 -273 q15 -461 -269 -610 ZM730 -68 q-145 0 -145 139 l0 716 l103 0 l0 -700 q0 -57 57 -57 l60 0 q49 -4 64 65 q8 27 16 87 q44 -42 84 -58 q-7 -39 -15 -73 q-25 -125 -140 -119 l-84 0 Z" /><glyph glyph-name="" unicode="&#x5141;" d="M116 -103 q-20 47 -65 87 q280 62 283 314 q1 22 3 86 l-93 -4 q-56 -3 -94 -16 l-40 87 q50 16 94 63 q116 123 224 296 l99 -41 q-112 -171 -232 -297 l412 16 q-65 80 -135 154 l84 48 q133 -141 244 -293 l-68 -72 q-11 16 -36 48 q-14 20 -22 30 l-114 -5 l0 -326 q2 -54 50 -56 l69 0 q53 -2 65 60 q10 40 15 76 q39 -37 83 -51 q-6 -32 -13 -59 q-28 -120 -137 -118 l-100 0 q-129 -3 -127 137 l0 333 l-132 -6 q-2 -67 -4 -95 q-10 -311 -313 -396 Z" /><glyph glyph-name="" unicode="&#x5143;" d="M700 -74 q-137 -3 -134 145 l0 315 l-147 0 q10 -367 -296 -491 q-34 43 -87 73 q163 70 220 157 q60 85 62 261 l-250 0 l0 91 l864 0 l0 -91 l-265 0 l0 -299 q-2 -67 58 -65 l66 0 q55 -2 68 62 q7 31 12 76 q39 -37 86 -51 q-8 -48 -12 -67 q-20 -120 -148 -116 l-97 0 ZM171 653 l0 91 l657 0 l0 -91 l-657 0 Z" /><glyph glyph-name="" unicode="&#x5144;" d="M693 -76 q-138 -5 -134 145 l0 255 l-131 0 q-1 -14 -2 -39 q-2 -18 -2 -27 q-12 -274 -317 -365 q-30 50 -74 82 q286 66 296 292 q0 7 2 23 q1 22 2 34 l-157 0 l0 428 l647 0 l0 -428 l-167 0 l0 -242 q0 -65 56 -65 l77 0 q60 -3 70 63 q2 11 8 44 q4 23 6 32 q38 -37 84 -51 q-2 -7 -5 -23 q-6 -26 -8 -37 q-26 -123 -142 -121 l-109 0 ZM278 415 l444 0 l0 246 l-444 0 l0 -246 Z" /><glyph glyph-name="" unicode="&#x5145;" d="M70 593 l0 88 l398 0 q-40 54 -87 105 l108 27 q51 -53 99 -123 l-22 -9 l362 0 l0 -88 l-418 0 q-89 -106 -186 -196 l347 11 q-53 48 -107 93 l75 51 q121 -96 237 -217 l-60 -73 l-60 63 l-103 -4 l0 -250 q1 -56 50 -57 l86 0 q53 -4 65 61 q11 42 15 76 q34 -32 84 -51 q-8 -44 -14 -62 q-26 -122 -137 -118 l-118 0 q-127 -1 -126 137 l0 261 l-119 -4 l-1 -30 q2 -301 -329 -387 q-20 46 -65 86 q301 67 298 303 l1 25 l-83 -2 q-49 -1 -88 -12 l-36 84 q47 9 88 43 q78 72 163 169 l-317 0 Z" /><glyph glyph-name="" unicode="&#x5146;" d="M860 173 q-84 63 -191 130 l0 -216 q0 -64 60 -64 l84 0 q59 -3 71 60 q10 50 15 89 q35 -36 78 -52 q-6 -37 -12 -65 q-24 -126 -145 -126 l-109 0 q-142 1 -143 146 l0 727 l101 0 l0 -304 q96 96 153 192 l84 -54 q-80 -118 -156 -190 l-81 49 l0 -83 q145 -81 243 -150 l-52 -89 ZM120 166 l-64 83 l283 158 q0 10 0 31 q1 23 1 35 l0 329 l102 0 l0 -324 q2 -248 -63 -365 q-61 -123 -242 -218 q-36 43 -91 66 q273 122 285 345 l-211 -140 ZM254 447 q-83 98 -174 177 l82 53 q90 -76 160 -159 l-68 -71 Z" /><glyph glyph-name="" unicode="&#x5148;" d="M184 441 q-41 31 -102 38 q123 129 173 304 l93 -41 q-19 -60 -37 -99 l148 0 l0 162 l101 0 l0 -162 l288 0 l0 -86 l-288 0 l0 -148 l374 0 l0 -88 l-271 0 l0 -250 q-1 -54 50 -53 l67 0 q53 -3 66 60 q11 44 17 82 q42 -40 84 -51 q-7 -41 -15 -67 q-30 -120 -139 -118 l-93 0 q-138 -2 -136 132 l0 265 l-137 0 q11 -329 -318 -428 q-27 54 -67 86 q297 68 286 342 l-264 0 l0 88 l395 0 l0 148 l-192 0 q-39 -66 -83 -116 Z" /><glyph glyph-name="" unicode="&#x5149;" d="M61 353 l0 88 l393 0 l0 364 l101 0 l0 -364 l383 0 l0 -88 l-273 0 l0 -281 q-1 -55 51 -54 l67 0 q51 -2 66 60 q10 37 17 82 q36 -37 84 -51 q-6 -34 -15 -67 q-31 -120 -139 -118 l-94 0 q-136 -1 -135 132 l0 297 l-143 0 l0 -9 q11 -327 -317 -451 q-23 42 -71 78 q303 91 290 374 l0 8 l-265 0 ZM701 476 q-33 30 -85 43 q105 113 172 232 l85 -43 q-71 -120 -172 -232 ZM308 481 q-73 112 -174 225 l86 37 q80 -87 159 -199 l-71 -63 Z" /><glyph glyph-name="" unicode="&#x514b;" d="M73 619 l0 87 l376 0 l0 99 l100 0 l0 -99 l377 0 l0 -87 l-377 0 l0 -96 l254 0 l0 -317 l-152 0 l0 -146 q-2 -56 51 -53 l89 0 q51 -3 65 53 q4 14 13 51 q3 15 5 23 q34 -35 76 -50 q-6 -33 -15 -60 q-26 -108 -134 -104 l-118 0 q-129 -2 -128 127 l0 159 l-110 0 q0 -5 -1 -15 q0 -9 0 -13 q-10 -233 -330 -288 q-25 52 -63 85 q295 38 298 208 q0 3 0 11 q1 8 1 12 l-154 0 l0 317 l253 0 l0 96 l-376 0 ZM295 291 l409 0 l0 147 l-409 0 l0 -147 Z" /><glyph glyph-name="" unicode="&#x514d;" d="M667 -78 q-128 0 -128 124 l0 199 l-8 0 q-71 -263 -407 -350 q-23 46 -67 84 q302 71 372 266 l-241 0 l0 231 q-29 -20 -58 -38 q-38 40 -84 62 q221 135 321 319 l90 -39 q-16 -31 -36 -61 l351 0 l0 -70 l-123 -115 l206 0 l0 -289 l-220 0 l0 -188 q0 -48 51 -48 l117 0 q54 -3 67 55 q8 28 14 68 q34 -36 76 -53 q-8 -39 -14 -60 q-25 -101 -132 -97 l-147 0 ZM362 638 q-44 -54 -102 -104 l262 0 l112 104 l-272 0 ZM563 452 q-3 -68 -13 -125 l207 0 l0 125 l-194 0 ZM286 327 l167 0 q11 57 14 125 l-181 0 l0 -125 Z" /><glyph glyph-name="" unicode="&#x5151;" d="M183 250 l0 375 l173 0 q-69 73 -139 132 l87 51 q82 -69 145 -143 l-47 -40 l132 0 q90 96 149 188 l93 -48 q-51 -68 -117 -140 l157 0 l0 -375 l-158 0 l0 -190 q0 -52 51 -52 l85 0 q50 -2 64 52 q9 30 18 76 q32 -32 78 -51 q-6 -32 -16 -65 q-28 -102 -134 -98 l-117 0 q-126 -1 -125 123 l0 205 l-124 0 q-1 -28 -5 -63 q-27 -242 -327 -296 q-21 47 -64 80 q276 45 295 221 q0 1 0 4 q4 34 5 54 l-159 0 ZM284 340 l433 0 l0 194 l-433 0 l0 -194 Z" /><glyph glyph-name="" unicode="&#x5154;" d="M649 -74 q-130 -1 -129 124 l0 165 q-82 -236 -404 -321 q-24 48 -69 86 q309 70 379 266 l-244 0 l0 231 q-29 -21 -59 -39 q-38 41 -83 62 q221 134 321 318 l90 -38 q-16 -31 -36 -61 l357 0 l0 -70 l-113 -114 l204 0 l0 -289 l-246 0 l0 -185 q-1 -49 50 -48 l136 0 q54 -3 67 55 q8 29 14 68 q37 -38 79 -53 q-4 -26 -14 -60 q-26 -101 -135 -97 l-165 0 ZM636 638 l-280 0 q-47 -56 -101 -103 l279 0 l102 103 ZM563 453 q-3 -68 -13 -125 l216 0 l0 125 l-203 0 ZM280 328 l170 0 q11 57 14 125 l-184 0 l0 -125 ZM767 55 q-48 66 -115 125 l75 37 q72 -64 103 -108 l-63 -54 Z" /><glyph glyph-name="" unicode="&#x515a;" d="M669 -82 q-128 0 -128 117 l0 138 l-87 0 q-1 -26 -6 -51 q-32 -191 -326 -234 q-27 50 -63 83 q272 33 295 164 q3 16 5 38 l-104 0 l0 276 l488 0 l0 -276 l-108 0 l0 -118 q0 -50 50 -50 l94 0 q53 -2 67 61 q1 4 3 13 q7 33 11 56 q41 -39 81 -52 q-4 -28 -14 -58 q-25 -111 -136 -107 l-122 0 ZM86 380 l0 225 l225 0 q-70 78 -137 135 l78 49 q72 -59 132 -130 l-61 -54 l126 0 l0 200 l100 0 l0 -200 l134 0 q-26 21 -71 39 q74 65 138 148 l78 -47 q-57 -74 -129 -140 l213 0 l0 -225 l-98 0 l0 141 l-629 0 l0 -141 l-99 0 ZM353 254 l291 0 l0 115 l-291 0 l0 -115 Z" /><glyph glyph-name="" unicode="&#x515c;" d="M138 202 l-45 66 q26 21 24 87 l0 352 q118 15 193 50 l40 -57 l84 0 q26 59 39 118 l87 -23 q-15 -53 -32 -95 l122 0 l0 -426 l-302 0 l0 403 q-63 -26 -137 -39 l0 -300 l89 35 l28 -76 l-127 -55 q-31 -12 -63 -40 ZM685 257 l0 85 l100 0 l0 295 l-100 0 l0 85 l193 0 l0 -465 l-193 0 ZM665 -79 q-121 -2 -119 119 l0 197 l94 0 l0 -183 q0 -49 45 -49 l114 0 q55 -4 67 61 q8 35 12 62 q37 -35 83 -49 q-5 -32 -11 -53 q-22 -110 -134 -105 l-151 0 ZM104 -108 q-21 42 -63 81 q181 23 249 83 q69 56 66 185 l95 -8 q9 -301 -347 -341 ZM432 355 l134 0 l0 96 l-134 0 l0 -96 ZM432 620 l0 -95 l134 0 l0 95 l-134 0 Z" /><glyph glyph-name="" unicode="&#x5162;" d="M510 618 l0 79 l150 0 l0 108 l93 0 l0 -108 l170 0 l0 -79 l-170 0 l0 -100 l136 0 l0 -277 l-83 0 l0 -197 q-1 -42 32 -41 l14 0 q29 -1 39 49 q6 35 10 70 q28 -28 70 -42 q-1 -9 -5 -27 q-3 -18 -5 -27 q-19 -106 -103 -105 l-34 0 q-102 -3 -99 111 l0 209 l-53 0 q14 -270 -210 -353 q-27 37 -66 62 q117 49 155 109 q41 58 39 182 l-66 0 l0 277 l136 0 l0 100 l-150 0 ZM78 618 l0 79 l164 0 l0 108 l92 0 l0 -108 l142 0 l0 -79 l-142 0 l0 -100 l125 0 l0 -277 l-63 0 l0 -152 l75 56 l43 -57 l-129 -98 q-22 -15 -46 -41 l-47 68 q22 24 22 73 l0 151 l-48 0 q11 -236 -160 -347 q-33 36 -82 56 q91 53 124 116 q35 62 34 175 l-73 0 l0 277 l133 0 l0 100 l-164 0 ZM613 318 l186 0 l0 124 l-186 0 l0 -124 ZM198 317 l172 0 l0 125 l-172 0 l0 -125 Z" /><glyph glyph-name="" unicode="&#x5165;" d="M880 -81 q-233 161 -370 491 q-122 -326 -390 -498 q-44 44 -101 66 q330 199 437 580 q-30 98 -177 152 l70 75 q153 -51 198 -186 q149 -440 435 -601 q-58 -27 -102 -79 Z" /><glyph glyph-name="" unicode="&#x5168;" d="M226 378 l0 60 q-65 -38 -130 -65 q-26 38 -76 75 q315 132 460 377 l89 -40 q-1 -2 -4 -7 q-10 -20 -17 -30 q173 -193 436 -274 q-45 -39 -72 -89 q-73 30 -139 68 l0 -75 l-225 0 l0 -134 l256 0 l0 -84 l-256 0 l0 -147 l353 0 l0 -87 l-803 0 l0 87 l352 0 l0 147 l-256 0 l0 84 l256 0 l0 134 l-224 0 ZM499 676 q-95 -123 -234 -213 l491 0 q-159 95 -257 213 Z" /><glyph glyph-name="" unicode="&#x516b;" d="M123 -91 q-53 40 -108 55 q281 224 284 780 l104 -18 q-8 -573 -280 -817 ZM879 -86 q-280 273 -305 862 l105 15 q18 -567 311 -805 q-65 -24 -111 -72 Z" /><glyph glyph-name="" unicode="&#x516c;" d="M764 -108 q-9 16 -31 51 q-12 21 -19 32 l-409 -34 q-57 -4 -110 -23 l-46 88 q55 18 95 72 q126 181 208 375 l95 -42 q-107 -230 -211 -372 l323 23 q-56 88 -112 163 l89 37 q116 -149 208 -303 l-80 -67 ZM879 282 q-229 168 -337 479 l91 38 q99 -303 347 -443 q-59 -27 -101 -74 ZM118 274 q-42 34 -95 53 q224 166 304 449 l96 -40 q-104 -305 -305 -462 Z" /><glyph glyph-name="" unicode="&#x516d;" d="M527 557 q-75 111 -168 203 l99 45 q86 -84 157 -182 l-88 -66 ZM75 446 l0 95 l851 0 l0 -95 l-851 0 ZM157 -93 q-37 33 -99 52 q172 162 273 372 l95 -45 q-106 -217 -269 -379 ZM860 -93 q-136 212 -281 379 l92 48 q149 -170 267 -349 l-78 -78 Z" /><glyph glyph-name="" unicode="&#x5170;" d="M104 480 l0 91 l254 0 q-65 92 -155 183 l92 45 q73 -73 145 -172 l-80 -56 l171 0 q103 115 168 232 l95 -45 q-60 -98 -138 -187 l238 0 l0 -91 l-790 0 ZM54 -64 l0 91 l889 0 l0 -91 l-889 0 ZM171 212 l0 91 l654 0 l0 -91 l-654 0 Z" /><glyph glyph-name="" unicode="&#x5171;" d="M101 519 l0 90 l170 0 l0 195 l103 0 l0 -195 l250 0 l0 195 l103 0 l0 -195 l171 0 l0 -90 l-171 0 l0 -214 l223 0 l0 -90 l-901 0 l0 90 l222 0 l0 214 l-170 0 ZM374 519 l0 -214 l250 0 l0 214 l-250 0 ZM152 -109 q-33 44 -84 70 q167 88 275 221 l83 -57 q-126 -146 -274 -234 ZM863 -104 q-135 126 -286 230 l77 59 q160 -108 265 -204 l-56 -85 Z" /><glyph glyph-name="" unicode="&#x5173;" d="M137 515 l0 90 l216 0 q-50 64 -139 154 l90 45 q86 -86 138 -157 l-59 -42 l154 0 q94 100 156 202 l92 -45 q-54 -78 -127 -157 l202 0 l0 -90 l-312 0 q-2 -108 -5 -148 l366 0 l0 -90 l-349 0 q105 -218 391 -285 q-43 -39 -73 -92 q-263 73 -378 298 q-77 -205 -370 -305 q-32 48 -80 85 q319 90 377 299 l-338 0 l0 90 l352 0 q5 67 6 148 l-310 0 Z" /><glyph glyph-name="" unicode="&#x5174;" d="M55 279 l0 93 l520 0 q131 189 215 383 l94 -52 q-84 -170 -196 -331 l257 0 l0 -93 l-890 0 ZM157 -104 q-41 40 -89 66 q167 111 277 263 l87 -52 q-117 -161 -275 -277 ZM858 -103 q-137 149 -288 273 l82 58 q142 -114 268 -245 l-62 -86 ZM288 419 q-84 137 -182 262 l95 38 q86 -107 165 -240 l-78 -60 ZM493 490 q-56 156 -124 284 l102 20 q61 -121 112 -261 l-90 -43 Z" /><glyph glyph-name="" unicode="&#x5175;" d="M49 179 l0 87 l178 0 l0 478 q324 1 553 45 l59 -82 q-208 -40 -511 -48 l0 -135 l547 0 l0 -87 l-156 0 l0 -171 l232 0 l0 -87 l-902 0 ZM328 437 l0 -171 l290 0 l0 171 l-290 0 ZM157 -109 q-42 46 -84 68 q162 76 266 190 l82 -59 q-123 -121 -264 -199 ZM868 -110 q-149 114 -287 192 l70 66 q133 -73 263 -169 l-46 -89 Z" /><glyph glyph-name="" unicode="&#x5176;" d="M109 618 l0 81 l136 0 l0 106 l99 0 l0 -106 l310 0 l0 106 l99 0 l0 -106 l137 0 l0 -81 l-137 0 l0 -422 l201 0 l0 -82 l-326 0 q149 -63 267 -140 l-34 -85 q-142 91 -306 166 l63 59 l-242 0 l67 -57 q-132 -107 -285 -171 q-30 43 -76 69 q162 63 285 159 l-323 0 l0 82 l201 0 l0 422 l-136 0 ZM344 287 l0 -91 l310 0 l0 91 l-310 0 ZM344 618 l0 -90 l310 0 l0 90 l-310 0 ZM344 452 l0 -89 l310 0 l0 89 l-310 0 Z" /><glyph glyph-name="" unicode="&#x5177;" d="M44 94 l0 82 l159 0 l0 592 l592 0 l0 -592 l159 0 l0 -82 l-283 0 q139 -61 235 -118 l-39 -87 q-152 90 -297 153 l53 52 l-262 0 l67 -50 q-114 -93 -271 -153 q-36 44 -78 71 q156 53 264 132 l-299 0 ZM301 250 l0 -74 l395 0 l0 74 l-395 0 ZM301 542 l0 -73 l395 0 l0 73 l-395 0 ZM301 396 l0 -73 l395 0 l0 73 l-395 0 ZM301 688 l0 -72 l395 0 l0 72 l-395 0 Z" /><glyph glyph-name="" unicode="&#x5178;" d="M42 136 l0 88 l114 0 l0 454 l199 0 l0 127 l93 0 l0 -127 l101 0 l0 127 l92 0 l0 -127 l201 0 l0 -454 l114 0 l0 -88 l-316 0 q159 -86 268 -164 l-41 -91 q-137 96 -301 192 l71 63 l-284 0 l78 -61 q-131 -114 -286 -187 q-34 46 -79 73 q169 73 283 175 l-307 0 ZM743 592 l-102 0 l0 -143 l102 0 l0 143 ZM254 592 l0 -143 l101 0 l0 143 l-101 0 ZM448 592 l0 -143 l101 0 l0 143 l-101 0 ZM641 365 l0 -141 l102 0 l0 141 l-102 0 ZM254 365 l0 -141 l101 0 l0 141 l-101 0 ZM448 365 l0 -141 l101 0 l0 141 l-101 0 Z" /></font>
</defs>
</svg>
