<?xml version="1.0" standalone="no"?><!DOCTYPE svg PUBLIC "-//W3C//DTD SVG 1.1//EN" "http://www.w3.org/Graphics/SVG/1.1/DTD/svg11.dtd" ><svg xmlns="http://www.w3.org/2000/svg"><metadata></metadata><defs><font id="Founder:FZYouHeiS_508R" horiz-adv-x="1000"><font-face font-family="FZYouHeiS 508R" font-weight="450" font-stretch="normal" units-per-em="1000" panose-1="2 0 0 0 0 0 0 0 0 0" ascent="882" descent="-241" x-height="0" bbox="-61 -241 1003 859" underline-thickness="50" underline-position="-191" unicode-range="U+0022-ffe5" /><missing-glyph horiz-adv-x="1000" d="M142 217 l-55 0 l-13 497 l79 0 l-11 -497 ZM155 0 l-79 0 l0 92 l79 0 l0 -92 Z" /><glyph glyph-name="" unicode="&quot;" d="M52 726 l79 0 l-15 -221 l-47 0 l-17 221 ZM212 726 l78 0 l-15 -221 l-47 0 l-16 221 Z" /><glyph glyph-name="" unicode="#" d="M448 205 l-87 0 l-27 -205 l-61 0 l27 205 l-130 0 l-27 -205 l-61 0 l27 205 l-68 0 l0 65 l77 0 l25 186 l-76 0 l0 64 l84 0 l27 194 l61 0 l-27 -194 l130 0 l27 194 l61 0 l-27 -194 l70 0 l0 -64 l-78 0 l-25 -186 l78 0 l0 -65 ZM204 456 l-25 -186 l130 0 l25 186 l-130 0 Z" /><glyph glyph-name="" unicode="$" d="M35 50 l19 65 q84 -35 150 -34 q158 0 158 118 q3 86 -145 146 q-178 76 -176 197 q3 135 168 160 l0 116 l62 0 l0 -113 q86 -4 140 -29 l-18 -66 q-61 25 -135 24 q-134 -3 -138 -90 q-11 -71 134 -128 q190 -81 187 -215 q-6 -153 -170 -186 l0 -119 l-62 0 l0 114 q-82 0 -174 40 Z" /><glyph glyph-name="" unicode="%" d="M186 726 q151 -10 158 -206 q-6 -197 -158 -206 q-150 9 -158 206 q7 195 158 206 ZM186 666 q-89 1 -89 -146 q0 -146 89 -146 q90 -1 89 146 q0 146 -89 146 ZM239 -10 l-61 0 l405 736 l62 0 l-406 -736 ZM636 402 q150 -10 157 -206 q-6 -198 -157 -206 q-149 9 -157 206 q7 196 157 206 ZM636 342 q-89 0 -89 -146 q0 -147 89 -147 q89 -1 89 147 q0 146 -89 146 Z" /><glyph glyph-name="" unicode="&#39;" d="M53 726 l79 0 l-15 -221 l-47 0 l-17 221 Z" /><glyph glyph-name="" unicode="(" d="M208 798 l60 0 q-132 -193 -130 -465 q-2 -257 130 -459 l-60 0 q-138 189 -138 460 q1 273 138 464 Z" /><glyph glyph-name="" unicode=")" d="M25 798 l61 0 q136 -193 137 -463 q0 -268 -137 -461 l-61 0 q132 203 130 460 q2 272 -130 464 Z" /><glyph glyph-name="" unicode="*" d="M282 723 l52 -30 l-104 -139 l165 20 l0 -60 l-165 21 l104 -137 l-54 -30 l-68 154 l-73 -156 l-51 31 l105 138 l-163 -21 l0 60 l163 -20 l-104 139 l53 31 l70 -157 l70 156 Z" /><glyph glyph-name="" unicode="+" d="M223 586 l69 0 l0 -191 l188 0 l0 -70 l-188 0 l0 -190 l-69 0 l0 190 l-188 0 l0 70 l188 0 l0 191 Z" /><glyph glyph-name="" unicode="," d="M140 52 l0 -35 q-2 -64 -43 -146 l-30 0 q29 72 32 109 q0 18 -19 20 l-19 0 l0 92 l38 0 q40 -1 41 -40 Z" /><glyph glyph-name="" unicode="-" d="M480 395 l0 -70 l-445 0 l0 70 l445 0 Z" /><glyph glyph-name="" unicode="." d="M140 0 l-79 0 l0 92 l79 0 l0 -92 Z" /><glyph glyph-name="" unicode="/" d="M63 -10 l-61 0 l283 736 l60 0 l-282 -736 Z" /><glyph glyph-name="" unicode="0" d="M266 726 q219 -6 222 -367 q-3 -363 -222 -369 q-218 4 -222 369 q4 360 222 367 ZM266 654 q-142 -3 -143 -295 q0 -296 143 -297 q143 1 143 297 q-1 292 -143 295 Z" /><glyph glyph-name="" unicode="1" d="M228 0 l0 621 l-137 -63 l0 77 l178 80 l37 0 l0 -715 l-78 0 Z" /><glyph glyph-name="" unicode="2" d="M461 0 l-413 0 l0 48 q27 39 148 185 q51 62 83 101 q95 113 92 204 q-1 114 -129 115 q-73 0 -152 -50 l-19 69 q88 55 187 54 q186 -6 192 -189 q2 -113 -114 -247 q-24 -30 -75 -89 q-71 -82 -106 -128 l306 0 l0 -73 Z" /><glyph glyph-name="" unicode="3" d="M51 35 l19 65 q84 -38 144 -38 q157 3 160 155 q-7 121 -150 127 l-59 0 l0 73 l59 0 q131 4 135 126 q-1 109 -124 110 q-61 0 -138 -36 l-18 68 q87 41 165 41 q188 -7 195 -173 q-1 -119 -121 -173 q132 -43 136 -171 q-12 -209 -226 -219 q-87 0 -177 45 Z" /><glyph glyph-name="" unicode="4" d="M415 0 l-78 0 l0 170 l-309 0 l0 65 l301 480 l86 0 l0 -474 l81 0 l0 -71 l-81 0 l0 -170 ZM105 241 l232 0 l0 372 l-232 -372 Z" /><glyph glyph-name="" unicode="5" d="M442 715 l0 -73 l-265 0 l-9 -192 q31 9 69 9 q218 -5 226 -234 q-9 -227 -251 -235 q-77 0 -150 36 l18 68 q77 -34 135 -32 q162 8 169 163 q-2 159 -171 161 q-66 0 -121 -15 l19 344 l331 0 Z" /><glyph glyph-name="" unicode="6" d="M428 726 l11 -70 q-268 -1 -309 -288 q65 89 169 89 q180 -12 191 -224 q-13 -231 -214 -243 q-218 6 -223 302 q13 414 375 434 ZM276 61 q132 7 138 172 q-1 151 -141 152 q-97 -7 -140 -102 q2 -218 143 -222 Z" /><glyph glyph-name="" unicode="7" d="M59 715 l409 0 l0 -48 l-256 -667 l-90 0 l265 642 l-328 0 l0 73 Z" /><glyph glyph-name="" unicode="8" d="M186 382 q-119 69 -116 171 q12 162 196 173 q185 -10 197 -173 q3 -106 -124 -174 q153 -72 147 -195 q-13 -181 -220 -194 q-209 11 -220 194 q0 125 140 198 ZM266 60 q136 7 143 126 q6 108 -155 160 q-131 -53 -131 -161 q7 -118 143 -125 ZM266 660 q-113 -9 -124 -107 q1 -89 135 -142 q113 56 113 142 q-9 100 -124 107 Z" /><glyph glyph-name="" unicode="9" d="M104 -10 l-12 68 q267 5 310 293 q-68 -88 -170 -88 q-180 12 -191 222 q13 229 215 241 q218 -5 222 -299 q-14 -416 -374 -437 ZM256 655 q-132 -7 -138 -170 q1 -150 141 -151 q97 4 140 103 q-2 214 -143 218 Z" /><glyph glyph-name="" unicode=":" d="M141 0 l-79 0 l0 92 l79 0 l0 -92 ZM141 365 l-79 0 l0 92 l79 0 l0 -92 Z" /><glyph glyph-name="" unicode=";" d="M140 365 l-78 0 l0 92 l78 0 l0 -92 ZM140 17 l0 35 q-1 39 -41 40 l-38 0 l0 -92 l19 0 q19 -2 19 -20 q-3 -37 -32 -109 l30 0 q41 82 43 146 Z" /><glyph glyph-name="" unicode="&lt;" d="M68 313 l0 78 l445 196 l0 -84 l-370 -151 l370 -152 l0 -83 l-445 196 Z" /><glyph glyph-name="" unicode="=" d="M537 488 l0 -70 l-477 0 l0 70 l477 0 ZM537 286 l0 -71 l-477 0 l0 71 l477 0 Z" /><glyph glyph-name="" unicode="&gt;" d="M513 313 l-445 -197 l0 84 l369 152 l-369 151 l0 84 l445 -196 l0 -78 Z" /><glyph glyph-name="" unicode="?" d="M206 218 l-78 0 l0 35 q-1 95 63 160 q94 94 91 155 q-3 84 -103 86 q-54 -1 -112 -21 l-17 66 q73 27 139 27 q167 -4 171 -158 q4 -93 -96 -193 q-60 -64 -58 -122 l0 -35 ZM206 0 l-78 0 l0 92 l78 0 l0 -92 Z" /><glyph glyph-name="" unicode="@" d="M461 351 l25 136 q-24 11 -60 11 q-148 -19 -166 -191 q0 -78 77 -77 q94 4 124 121 ZM513 82 l17 -57 q-92 -35 -171 -35 q-309 8 -316 336 q28 368 372 400 q301 -11 311 -308 q-5 -235 -175 -244 q-71 0 -80 82 q-47 -83 -149 -82 q-114 6 -119 133 q22 228 243 247 q55 0 106 -29 l-33 -184 q-5 -31 -5 -50 q-1 -61 44 -61 q102 7 106 188 q-5 240 -249 245 q-287 -25 -310 -337 q3 -271 254 -274 q71 -2 154 30 Z" /><glyph glyph-name="" unicode="a" d="M499 0 l-65 216 l-269 0 l-65 -216 l-81 0 l238 714 l85 0 l238 -714 l-81 0 ZM300 651 l-113 -363 l227 0 l-114 363 Z" /><glyph glyph-name="" unicode="b" d="M81 14 l0 687 q97 23 167 24 q230 -2 232 -184 q-1 -120 -117 -162 q141 -36 144 -180 q-8 -209 -259 -209 q-83 2 -167 24 ZM157 644 l0 -232 l91 0 q156 -1 154 122 q1 124 -154 123 q-49 0 -91 -13 ZM157 341 l0 -270 q52 -13 91 -14 q185 -3 181 145 q3 141 -181 139 l-91 0 Z" /><glyph glyph-name="" unicode="c" d="M538 87 l19 -70 q-79 -27 -156 -27 q-342 21 -359 369 q17 348 353 366 q91 0 154 -26 l-18 -70 q-60 23 -133 24 q-269 -9 -278 -294 q10 -286 285 -296 q63 0 133 24 Z" /><glyph glyph-name="" unicode="d" d="M80 11 l0 692 q85 22 184 22 q366 -12 379 -367 q-11 -356 -379 -368 q-91 1 -184 21 ZM160 638 l0 -562 q45 -13 109 -14 q291 3 294 296 q-4 291 -294 295 q-65 1 -109 -15 Z" /><glyph glyph-name="" unicode="e" d="M390 413 l0 -73 l-229 0 l0 -267 l299 0 l0 -73 l-379 0 l0 714 l368 0 l0 -73 l-288 0 l0 -228 l229 0 Z" /><glyph glyph-name="" unicode="f" d="M81 0 l0 714 l363 0 l0 -73 l-283 0 l0 -229 l229 0 l0 -73 l-229 0 l0 -339 l-80 0 Z" /><glyph glyph-name="" unicode="g" d="M602 371 l0 -336 q-87 -43 -191 -45 q-353 17 -369 371 q17 350 369 365 q96 -1 170 -29 q-3 -15 -12 -40 q-6 -20 -9 -30 q-67 27 -149 27 q-286 -5 -291 -293 q6 -292 291 -299 q60 0 115 23 l0 215 l-121 0 l0 71 l197 0 Z" /><glyph glyph-name="" unicode="h" d="M81 714 l80 0 l0 -302 l347 0 l0 302 l80 0 l0 -714 l-80 0 l0 339 l-347 0 l0 -339 l-80 0 l0 714 Z" /><glyph glyph-name="" unicode="i" d="M98 716 l78 0 l0 -716 l-78 0 l0 716 Z" /><glyph glyph-name="" unicode="j" d="M230 200 l0 514 l79 0 l0 -520 q5 -211 -190 -204 q-47 1 -98 15 l12 69 q36 -11 78 -11 q68 -1 93 29 q26 29 26 108 Z" /><glyph glyph-name="" unicode="k" d="M160 0 l-80 0 l0 714 l80 0 l0 -331 l277 331 l91 0 l-287 -334 q31 -38 92 -114 q139 -173 213 -266 l-101 0 l-285 370 l0 -370 Z" /><glyph glyph-name="" unicode="l" d="M81 0 l0 714 l80 0 l0 -641 l294 0 l0 -73 l-374 0 Z" /><glyph glyph-name="" unicode="m" d="M676 0 l-25 632 l-200 -632 l-90 0 l-201 633 l-23 -633 l-83 0 l46 714 l103 0 l203 -640 l203 640 l103 0 l48 -714 l-84 0 Z" /><glyph glyph-name="" unicode="n" d="M161 0 l-80 0 l0 714 l87 0 l344 -584 l0 584 l80 0 l0 -714 l-87 0 l-344 585 l0 -585 Z" /><glyph glyph-name="" unicode="o" d="M361 725 q303 -22 320 -367 q-15 -349 -320 -368 q-303 21 -320 368 q18 346 320 367 ZM361 653 q-228 -17 -241 -295 q12 -280 241 -296 q230 16 241 296 q-13 279 -241 295 Z" /><glyph glyph-name="" unicode="p" d="M81 0 l0 699 q100 26 171 26 q256 -1 257 -214 q-2 -217 -257 -219 q-49 0 -92 10 l0 -302 l-79 0 ZM160 642 l0 -269 q40 -10 92 -9 q176 1 177 147 q2 146 -177 144 q-54 0 -92 -13 Z" /><glyph glyph-name="" unicode="q" d="M705 -88 l-10 -70 q-35 -2 -87 -2 q-262 -4 -293 153 q-263 51 -274 365 q18 346 320 367 q302 -21 319 -367 q-12 -329 -290 -367 q19 -46 65 -64 q46 -18 144 -18 q64 0 106 3 ZM361 653 q-228 -17 -241 -295 q12 -280 241 -296 q230 16 241 296 q-13 279 -241 295 Z" /><glyph glyph-name="" unicode="r" d="M81 0 l0 699 q103 25 173 26 q247 0 247 -201 q2 -119 -130 -169 q77 -50 99 -145 q33 -143 54 -210 l-77 0 q-13 45 -46 180 q-3 11 -4 16 q-29 128 -143 127 l-94 0 l0 -323 l-79 0 ZM160 644 l0 -250 l94 0 q176 -5 171 130 q5 135 -171 131 q-53 -1 -94 -11 Z" /><glyph glyph-name="" unicode="s" d="M37 32 l19 67 q85 -38 150 -37 q157 0 157 126 q3 95 -146 158 q-174 81 -171 205 q8 168 217 174 q86 -1 151 -29 l-18 -69 q-58 27 -135 26 q-131 -4 -137 -99 q-9 -77 134 -137 q189 -80 184 -225 q-9 -195 -230 -202 q-83 0 -175 42 Z" /><glyph glyph-name="" unicode="t" d="M230 0 l0 641 l-212 0 l0 73 l502 0 l0 -73 l-211 0 l0 -641 l-79 0 Z" /><glyph glyph-name="" unicode="u" d="M81 714 l80 0 l0 -423 q-1 -231 170 -229 q175 -3 173 229 l0 423 l79 0 l0 -416 q2 -311 -254 -308 q-247 1 -248 305 l0 419 Z" /><glyph glyph-name="" unicode="v" d="M337 0 l-81 0 l-237 714 l87 0 l190 -637 l191 637 l87 0 l-237 -714 Z" /><glyph glyph-name="" unicode="w" d="M278 0 l-81 0 l-180 714 l83 0 l139 -626 l154 626 l86 0 l156 -625 l138 625 l83 0 l-179 -714 l-82 0 l-158 625 l-159 -625 Z" /><glyph glyph-name="" unicode="x" d="M539 0 l-94 0 l-164 307 l-165 -307 l-93 0 l216 364 l-204 350 l92 0 l154 -293 l154 293 l90 0 l-202 -350 l216 -364 Z" /><glyph glyph-name="" unicode="y" d="M324 0 l-80 0 l0 296 l-223 418 l88 0 l175 -352 l175 352 l89 0 l-224 -415 l0 -299 Z" /><glyph glyph-name="" unicode="z" d="M20 0 l0 49 l390 592 l-365 0 l0 73 l467 0 l0 -49 l-391 -592 l396 0 l0 -73 l-497 0 Z" /><glyph glyph-name="" unicode="[" d="M272 798 l0 -65 l-122 0 l0 -794 l122 0 l0 -65 l-190 0 l0 924 l190 0 Z" /><glyph glyph-name="" unicode="\" d="M345 -10 l-60 0 l-283 740 l61 0 l282 -740 Z" /><glyph glyph-name="" unicode="]" d="M21 798 l189 0 l0 -924 l-189 0 l0 65 l121 0 l0 794 l-121 0 l0 65 Z" /><glyph glyph-name="" unicode="_" d="M443 -62 l0 -71 l-443 0 l0 71 l443 0 Z" /><glyph glyph-name="" unicode="a" d="M418 345 l0 -191 q0 -76 8 -154 l-68 0 l-12 70 q-60 -83 -165 -80 q-136 8 -144 139 q3 167 305 191 l0 25 q5 103 -107 98 q-68 -2 -137 -33 q-3 9 -11 26 q-9 22 -13 35 q75 35 169 39 q174 -1 175 -165 ZM342 177 l0 79 q-221 -22 -229 -124 q2 -75 88 -77 q117 17 141 122 Z" /><glyph glyph-name="" unicode="b" d="M151 746 l0 -310 q57 75 164 74 q200 -16 212 -260 q-11 -244 -212 -260 q-109 -4 -168 74 l-12 -64 l-68 0 q7 90 8 164 l0 582 l76 0 ZM151 303 l0 -106 q7 -129 145 -136 q153 1 154 189 q1 186 -154 187 q-136 -7 -145 -134 Z" /><glyph glyph-name="" unicode="c" d="M396 78 l16 -66 q-47 -22 -112 -22 q-249 13 -262 260 q13 248 255 260 q64 -1 113 -22 l-18 -67 q-43 17 -101 17 q-162 -12 -172 -188 q9 -178 178 -189 q59 0 103 17 Z" /><glyph glyph-name="" unicode="d" d="M414 746 l77 0 l0 -582 q1 -85 7 -164 l-68 0 l-12 64 q-59 -78 -167 -74 q-203 16 -214 260 q12 244 214 260 q110 1 163 -73 l0 309 ZM414 197 l0 105 q-9 128 -146 136 q-153 -2 -153 -188 q1 -188 153 -190 q135 9 146 137 Z" /><glyph glyph-name="" unicode="e" d="M473 228 l-355 0 q12 -173 174 -173 q69 1 137 28 l18 -62 q-69 -31 -155 -31 q-245 7 -251 260 q14 245 221 260 q201 -13 211 -237 l0 -45 ZM117 293 l281 0 q-5 143 -137 148 q-127 -6 -144 -148 Z" /><glyph glyph-name="" unicode="f" d="M170 0 l-77 0 l0 428 l-72 0 l0 70 l72 0 l0 60 q5 165 164 168 q42 -1 75 -11 l-10 -63 q-24 6 -59 6 q-97 4 -93 -109 l0 -51 l115 0 l0 -70 l-115 0 l0 -428 Z" /><glyph glyph-name="" unicode="g" d="M70 -198 l20 62 q82 -29 157 -32 q172 -6 167 161 l0 79 q-54 -74 -163 -72 q-201 16 -214 254 q12 239 214 256 q114 2 166 -73 l13 61 l68 0 q-7 -79 -7 -164 l0 -351 q2 -219 -245 -217 q-88 0 -176 36 ZM414 206 l0 96 q-8 129 -146 137 q-151 -2 -153 -185 q2 -182 153 -184 q137 8 146 136 Z" /><glyph glyph-name="" unicode="h" d="M75 0 l0 746 l76 0 l0 -325 q57 90 169 89 q160 -8 166 -219 l0 -291 l-77 0 l0 285 q3 158 -117 154 q-127 -14 -141 -154 l0 -285 l-76 0 Z" /><glyph glyph-name="" unicode="i" d="M153 0 l-77 0 l0 498 l77 0 l0 -498 ZM156 625 l-83 0 l0 89 l83 0 l0 -89 Z" /><glyph glyph-name="" unicode="j" d="M-51 -233 l-10 64 q145 -5 138 130 l0 537 l77 0 l0 -549 q0 -179 -205 -182 ZM157 625 l-83 0 l0 89 l83 0 l0 -89 Z" /><glyph glyph-name="" unicode="k" d="M151 0 l-76 0 l0 746 l76 0 l0 -462 l198 214 l98 0 l-207 -216 l226 -282 l-96 0 l-219 284 l0 -284 Z" /><glyph glyph-name="" unicode="l" d="M78 0 l0 746 l76 0 l0 -746 l-76 0 Z" /><glyph glyph-name="" unicode="m" d="M73 0 l0 334 q1 45 -8 164 l68 0 l13 -70 q57 84 160 82 q94 -2 140 -93 q55 95 174 93 q156 -9 161 -222 l0 -288 l-77 0 l0 285 q2 157 -112 154 q-119 -11 -128 -154 l0 -285 l-76 0 l0 285 q2 157 -113 154 q-115 -12 -125 -154 l0 -285 l-77 0 Z" /><glyph glyph-name="" unicode="n" d="M75 0 l0 334 q1 79 -7 164 l67 0 l13 -69 q52 78 166 79 q165 -9 172 -223 l0 -285 l-77 0 l0 285 q2 157 -121 154 q-127 -9 -137 -154 l0 -285 l-76 0 Z" /><glyph glyph-name="" unicode="o" d="M269 510 q220 -12 231 -260 q-10 -249 -231 -260 q-222 11 -232 260 q10 249 232 260 ZM269 439 q-148 -5 -154 -189 q5 -184 154 -190 q148 4 154 190 q-6 183 -154 189 Z" /><glyph glyph-name="" unicode="p" d="M151 -224 l-76 0 l0 558 q-1 73 -8 164 l70 0 l12 -60 q54 74 166 72 q201 -16 212 -261 q-12 -244 -212 -259 q-112 -3 -164 69 l0 -283 ZM151 302 l0 -106 q9 -129 145 -136 q154 2 154 189 q-1 188 -154 190 q-138 -7 -145 -137 Z" /><glyph glyph-name="" unicode="q" d="M414 -224 l0 283 q-52 -73 -163 -69 q-202 15 -214 259 q11 245 214 261 q111 2 166 -72 l12 60 l69 0 q-7 -79 -7 -164 l0 -558 l-77 0 ZM414 196 l0 106 q-7 130 -146 137 q-152 -2 -153 -190 q0 -187 153 -189 q137 7 146 136 Z" /><glyph glyph-name="" unicode="r" d="M76 0 l0 334 q0 56 -9 164 l68 0 l12 -75 q39 85 118 85 q29 0 50 -10 l-17 -71 q-20 6 -41 8 q-100 -3 -105 -139 l0 -296 l-76 0 Z" /><glyph glyph-name="" unicode="s" d="M37 17 l20 66 q60 -25 123 -25 q108 3 110 73 q3 55 -104 97 q-147 53 -144 154 q12 121 178 128 q68 -2 129 -25 q-4 -16 -11 -47 q-3 -11 -4 -17 q-57 21 -115 21 q-95 -3 -101 -60 q-3 -48 111 -92 q140 -56 139 -156 q-7 -138 -185 -144 q-88 2 -146 27 Z" /><glyph glyph-name="" unicode="t" d="M99 626 l77 24 l0 -152 l128 0 l0 -68 l-128 0 l0 -284 q-2 -89 73 -86 q14 0 42 4 q4 1 6 1 l5 -66 q-30 -9 -76 -9 q-127 -1 -127 144 l0 296 l-76 0 l0 68 l76 0 l0 128 Z" /><glyph glyph-name="" unicode="u" d="M482 498 l0 -334 q0 -53 8 -164 l-68 0 l-12 67 q-57 -80 -176 -77 q-156 5 -159 210 l0 298 l76 0 l0 -289 q-2 -152 112 -149 q132 11 142 149 l0 289 l77 0 Z" /><glyph glyph-name="" unicode="v" d="M23 498 l81 0 l145 -433 l144 433 l80 0 l-186 -498 l-77 0 l-187 498 Z" /><glyph glyph-name="" unicode="w" d="M21 498 l82 0 l106 -430 l125 430 l85 0 l122 -430 l109 430 l82 0 l-148 -498 l-84 0 l-123 429 l-124 -429 l-84 0 l-148 498 Z" /><glyph glyph-name="" unicode="x" d="M33 498 l83 0 l121 -201 l121 201 l83 0 l-161 -242 l170 -256 l-88 0 l-125 210 l-124 -210 l-89 0 l171 256 l-162 242 Z" /><glyph glyph-name="" unicode="y" d="M23 498 l83 0 l147 -395 l131 395 l82 0 l-213 -577 q-48 -153 -208 -147 l-10 65 q124 -5 157 102 l30 81 l-199 476 Z" /><glyph glyph-name="" unicode="z" d="M20 0 l0 48 l283 380 l-261 0 l0 70 l361 0 l0 -48 l-284 -380 l290 0 l0 -70 l-389 0 Z" /><glyph glyph-name="" unicode="{" d="M27 304 l0 64 l26 0 q62 1 63 95 q0 36 -11 107 q-8 53 -10 81 q-1 145 152 147 l25 0 l0 -64 l-25 0 q-84 0 -83 -83 q0 -31 10 -91 q10 -63 10 -97 q1 -89 -82 -126 q83 -42 82 -128 q0 -30 -10 -90 q-10 -62 -10 -95 q-1 -87 83 -86 l25 0 l0 -64 l-25 0 q-154 -2 -152 150 q0 30 10 90 q11 62 11 95 q-2 91 -63 95 l-26 0 Z" /><glyph glyph-name="" unicode="}" d="M265 305 l-25 0 q-62 -4 -64 -96 q0 -30 11 -89 q11 -62 11 -95 q2 -153 -150 -151 l-26 0 l0 65 l26 0 q83 -1 82 86 q0 30 -10 89 q-11 62 -11 95 q-1 89 83 127 q-84 37 -83 127 q0 31 10 91 q11 62 11 96 q1 84 -82 83 l-26 0 l0 65 l26 0 q151 -2 150 -148 q-1 -28 -10 -84 q-12 -66 -12 -103 q1 -94 64 -96 l25 0 l0 -62 Z" /><glyph glyph-name="" unicode="~" d="M108 222 l-62 0 q6 149 122 153 q50 1 123 -43 q74 -47 111 -45 q60 -3 60 88 l62 0 q-6 -149 -122 -153 q-50 -1 -123 43 q-78 49 -111 46 q-60 2 -60 -89 Z" /><glyph glyph-name="" unicode="¥" d="M761 714 l-169 -310 l152 0 l0 -65 l-188 0 l-19 -38 l0 -55 l207 0 l0 -65 l-207 0 l0 -181 l-74 0 l0 181 l-209 0 l0 65 l209 0 l0 54 l-20 39 l-189 0 l0 65 l153 0 l-168 310 l85 0 l176 -347 l177 347 l84 0 Z" /><glyph glyph-name="" unicode="§" d="M520 474 l-17 7 q-47 20 -71 33 q-72 -29 -73 -91 q-6 -56 128 -98 q56 -20 95 -43 q55 28 56 84 q9 58 -118 108 ZM670 754 l-19 -60 q-48 22 -116 29 q-122 6 -136 -70 q-11 -61 131 -116 q187 -67 181 -164 q2 -83 -73 -124 q57 -45 55 -110 q-13 -154 -217 -150 q-94 5 -161 43 l26 57 q63 -30 128 -36 q136 -1 145 79 q14 76 -141 128 q-197 69 -188 164 q1 85 91 125 q-54 43 -53 101 q13 141 208 136 q80 -5 139 -32 Z" /><glyph glyph-name="" unicode="¨" d="M453 591 l-75 0 l0 84 l75 0 l0 -84 ZM622 591 l-75 0 l0 84 l75 0 l0 -84 Z" /><glyph glyph-name="" unicode="°" d="M217 549 q69 4 72 70 q-3 67 -72 71 q-67 -4 -71 -71 q4 -66 71 -70 ZM217 512 q-99 8 -106 107 q8 99 106 107 q99 -8 107 -107 q-7 -99 -107 -107 Z" /><glyph glyph-name="" unicode="±" d="M722 146 l0 -72 l-444 0 l0 72 l444 0 ZM465 626 l69 0 l0 -184 l188 0 l0 -70 l-188 0 l0 -187 l-69 0 l0 187 l-188 0 l0 70 l188 0 l0 184 Z" /><glyph glyph-name="" unicode="·" d="M452 303 l0 98 l96 0 l0 -98 l-96 0 Z" /><glyph glyph-name="" unicode="×" d="M314 488 l50 50 l136 -137 l137 137 l49 -49 l-136 -137 l137 -136 l-50 -51 l-137 137 l-137 -138 l-50 50 l137 139 l-136 135 Z" /><glyph glyph-name="" unicode="à" d="M408 701 l88 0 l95 -128 l-58 0 l-125 128 ZM722 348 l0 -187 q0 -67 8 -161 l-68 0 l-13 68 q-62 -81 -163 -78 q-205 16 -216 260 q13 243 216 260 q110 -1 157 -75 l20 63 l66 0 q-7 -100 -7 -150 ZM646 197 l0 106 q-9 128 -146 135 q-153 -2 -153 -188 q1 -188 153 -190 q135 9 146 137 Z" /><glyph glyph-name="" unicode="á" d="M592 701 l-124 -128 l-60 0 l97 128 l87 0 ZM722 348 l0 -187 q0 -67 8 -161 l-68 0 l-13 68 q-62 -81 -163 -78 q-205 16 -216 260 q13 243 216 260 q110 -1 157 -75 l20 63 l66 0 q-7 -100 -7 -150 ZM646 197 l0 106 q-9 128 -146 135 q-153 -2 -153 -188 q1 -188 153 -190 q135 9 146 137 Z" /><glyph glyph-name="" unicode="è" d="M408 701 l88 0 l95 -128 l-58 0 l-125 128 ZM715 228 l-354 0 q12 -173 174 -173 q69 1 137 28 l18 -62 q-69 -31 -155 -31 q-245 7 -251 260 q14 245 221 260 q199 -14 210 -239 l0 -43 ZM360 293 l281 0 q-5 143 -137 148 q-123 -5 -144 -148 Z" /><glyph glyph-name="" unicode="é" d="M592 701 l-124 -128 l-60 0 l97 128 l87 0 ZM715 228 l-354 0 q12 -173 174 -173 q69 1 137 28 l18 -62 q-69 -31 -155 -31 q-245 7 -251 260 q14 245 221 260 q199 -14 210 -239 l0 -43 ZM360 293 l281 0 q-5 143 -137 148 q-123 -5 -144 -148 Z" /><glyph glyph-name="" unicode="ê" d="M631 575 l-51 0 l-79 84 l-75 -84 l-55 0 l89 126 l82 0 l89 -126 ZM715 228 l-354 0 q12 -173 174 -173 q69 1 137 28 l18 -62 q-69 -31 -155 -31 q-245 7 -251 260 q14 245 221 260 q199 -14 210 -239 l0 -43 ZM360 293 l281 0 q-5 143 -137 148 q-123 -5 -144 -148 Z" /><glyph glyph-name="" unicode="ì" d="M408 701 l88 0 l95 -128 l-58 0 l-125 128 ZM539 0 l-77 0 l0 498 l77 0 l0 -498 Z" /><glyph glyph-name="" unicode="í" d="M592 701 l-124 -128 l-60 0 l97 128 l87 0 ZM539 0 l-77 0 l0 498 l77 0 l0 -498 Z" /><glyph glyph-name="" unicode="ò" d="M408 701 l88 0 l95 -128 l-58 0 l-125 128 ZM500 510 q228 -15 242 -260 q-13 -246 -242 -260 q-230 14 -243 260 q12 246 243 260 ZM500 439 q-155 -8 -165 -189 q8 -181 165 -190 q157 8 165 190 q-10 179 -165 189 Z" /><glyph glyph-name="" unicode="ó" d="M591 701 l-124 -128 l-60 0 l97 128 l87 0 ZM500 510 q228 -15 242 -260 q-13 -246 -242 -260 q-230 14 -243 260 q12 246 243 260 ZM500 439 q-155 -8 -165 -189 q8 -181 165 -190 q157 8 165 190 q-10 179 -165 189 Z" /><glyph glyph-name="" unicode="÷" d="M542 583 l0 -85 l-83 0 l0 85 l83 0 ZM542 202 l0 -85 l-83 0 l0 85 l83 0 ZM735 385 l0 -72 l-470 0 l0 72 l470 0 Z" /><glyph glyph-name="" unicode="ù" d="M408 701 l88 0 l95 -128 l-58 0 l-125 128 ZM699 498 l0 -334 q0 -53 9 -164 l-71 0 l-12 71 q-60 -83 -174 -81 q-156 5 -159 210 l0 298 l77 0 l0 -289 q-2 -153 111 -149 q132 11 142 149 l0 289 l77 0 Z" /><glyph glyph-name="" unicode="ú" d="M592 701 l-124 -128 l-60 0 l97 128 l87 0 ZM699 498 l0 -334 q0 -53 9 -164 l-71 0 l-12 71 q-60 -83 -174 -81 q-156 5 -159 210 l0 298 l77 0 l0 -289 q-2 -153 111 -149 q132 11 142 149 l0 289 l77 0 Z" /><glyph glyph-name="" unicode="ü" d="M699 498 l0 -334 q0 -53 9 -164 l-71 0 l-12 71 q-60 -83 -174 -81 q-156 5 -159 210 l0 298 l77 0 l0 -289 q-2 -153 111 -149 q132 11 142 149 l0 289 l77 0 ZM619 563 l-76 0 l0 84 l76 0 l0 -84 ZM449 563 l-75 0 l0 84 l75 0 l0 -84 Z" /><glyph glyph-name="" unicode="ý&#x101;" d="M358 667 l284 0 l0 -62 l-284 0 l0 62 ZM722 348 l0 -187 q0 -67 8 -161 l-68 0 l-13 68 q-62 -81 -163 -78 q-205 16 -216 260 q13 243 216 260 q110 -1 157 -75 l20 63 l66 0 q-7 -100 -7 -150 ZM646 197 l0 106 q-9 128 -146 135 q-153 -2 -153 -188 q1 -188 153 -190 q135 9 146 137 Z" /><glyph glyph-name="" unicode="þ&#x113;" d="M358 667 l284 0 l0 -62 l-284 0 l0 62 ZM715 228 l-354 0 q12 -173 174 -173 q69 1 137 28 l18 -62 q-69 -31 -155 -31 q-245 7 -251 260 q14 245 221 260 q199 -14 210 -239 l0 -43 ZM360 293 l281 0 q-5 143 -137 148 q-123 -5 -144 -148 Z" /><glyph glyph-name="" unicode="ÿ&#x11b;" d="M370 701 l52 0 l78 -84 l75 84 l55 0 l-89 -126 l-82 0 l-89 126 ZM715 228 l-354 0 q12 -173 174 -173 q69 1 137 28 l18 -62 q-69 -31 -155 -31 q-245 7 -251 260 q14 245 221 260 q199 -14 210 -239 l0 -43 ZM360 293 l281 0 q-5 143 -137 148 q-123 -5 -144 -148 Z" /><glyph glyph-name="" unicode="&#x12b;" d="M358 667 l284 0 l0 -62 l-284 0 l0 62 ZM539 0 l-77 0 l0 498 l77 0 l0 -498 Z" /><glyph glyph-name="" unicode="&#x144;" d="M592 706 l-124 -128 l-60 0 l97 128 l87 0 ZM297 0 l0 334 q1 79 -7 164 l69 0 l12 -69 q58 80 176 80 q157 -6 161 -224 l0 -285 l-77 0 l0 285 q4 159 -125 154 q-121 -13 -133 -154 l0 -285 l-76 0 Z" /><glyph glyph-name="" unicode="&#x148;" d="M370 701 l52 0 l78 -84 l75 84 l55 0 l-89 -126 l-82 0 l-89 126 ZM297 0 l0 334 q1 79 -7 164 l69 0 l12 -69 q58 80 176 80 q157 -6 161 -224 l0 -285 l-77 0 l0 285 q4 159 -125 154 q-121 -13 -133 -154 l0 -285 l-76 0 Z" /><glyph glyph-name="" unicode="&#x14d;" d="M358 667 l284 0 l0 -62 l-284 0 l0 62 ZM500 510 q228 -15 242 -260 q-13 -246 -242 -260 q-230 14 -243 260 q12 246 243 260 ZM500 439 q-155 -8 -165 -189 q8 -181 165 -190 q157 8 165 190 q-10 179 -165 189 Z" /><glyph glyph-name="" unicode="&#x16b;" d="M358 667 l284 0 l0 -62 l-284 0 l0 62 ZM699 498 l0 -334 q0 -53 9 -164 l-71 0 l-12 71 q-60 -83 -174 -81 q-156 5 -159 210 l0 298 l77 0 l0 -289 q-2 -153 111 -149 q132 11 142 149 l0 289 l77 0 Z" /><glyph glyph-name="" unicode="&#x1ce;" d="M370 701 l52 0 l78 -84 l75 84 l55 0 l-89 -126 l-82 0 l-89 126 ZM722 348 l0 -187 q0 -67 8 -161 l-68 0 l-13 68 q-62 -81 -163 -78 q-205 16 -216 260 q13 243 216 260 q110 -1 157 -75 l20 63 l66 0 q-7 -100 -7 -150 ZM646 197 l0 106 q-9 128 -146 135 q-153 -2 -153 -188 q1 -188 153 -190 q135 9 146 137 Z" /><glyph glyph-name="" unicode="&#x1d0;" d="M370 701 l52 0 l78 -84 l75 84 l55 0 l-89 -126 l-82 0 l-89 126 ZM539 0 l-77 0 l0 498 l77 0 l0 -498 Z" /><glyph glyph-name="" unicode="&#x1d2;" d="M370 701 l52 0 l78 -84 l75 84 l55 0 l-89 -126 l-82 0 l-89 126 ZM500 510 q228 -15 242 -260 q-13 -246 -242 -260 q-230 14 -243 260 q12 246 243 260 ZM500 439 q-155 -8 -165 -189 q8 -181 165 -190 q157 8 165 190 q-10 179 -165 189 Z" /><glyph glyph-name="" unicode="&#x1d4;" d="M370 701 l52 0 l78 -84 l75 84 l55 0 l-89 -126 l-82 0 l-89 126 ZM699 498 l0 -334 q0 -53 9 -164 l-71 0 l-12 71 q-60 -83 -174 -81 q-156 5 -159 210 l0 298 l77 0 l0 -289 q-2 -153 111 -149 q132 11 142 149 l0 289 l77 0 Z" /><glyph glyph-name="" unicode="&#x1d6;" d="M358 790 l284 0 l0 -63 l-284 0 l0 63 ZM699 498 l0 -334 q0 -53 9 -164 l-71 0 l-12 71 q-60 -83 -174 -81 q-156 5 -159 210 l0 298 l77 0 l0 -289 q-2 -153 111 -149 q132 11 142 149 l0 289 l77 0 ZM619 563 l-76 0 l0 84 l76 0 l0 -84 ZM449 563 l-75 0 l0 84 l75 0 l0 -84 Z" /><glyph glyph-name="" unicode="&#x1d8;" d="M592 839 l-124 -128 l-60 0 l97 128 l87 0 ZM699 498 l0 -334 q0 -53 9 -164 l-71 0 l-12 71 q-60 -83 -174 -81 q-156 5 -159 210 l0 298 l77 0 l0 -289 q-2 -153 111 -149 q132 11 142 149 l0 289 l77 0 ZM619 563 l-76 0 l0 84 l76 0 l0 -84 ZM449 563 l-75 0 l0 84 l75 0 l0 -84 Z" /><glyph glyph-name="" unicode="&#x1da;" d="M370 826 l52 0 l78 -83 l75 83 l55 0 l-89 -125 l-82 0 l-89 125 ZM699 498 l0 -334 q0 -53 9 -164 l-71 0 l-12 71 q-60 -83 -174 -81 q-156 5 -159 210 l0 298 l77 0 l0 -289 q-2 -153 111 -149 q132 11 142 149 l0 289 l77 0 ZM619 563 l-76 0 l0 84 l76 0 l0 -84 ZM449 563 l-75 0 l0 84 l75 0 l0 -84 Z" /><glyph glyph-name="" unicode="&#x1dc;" d="M408 839 l88 0 l95 -128 l-58 0 l-125 128 ZM699 498 l0 -334 q0 -53 9 -164 l-71 0 l-12 71 q-60 -83 -174 -81 q-156 5 -159 210 l0 298 l77 0 l0 -289 q-2 -153 111 -149 q132 11 142 149 l0 289 l77 0 ZM619 563 l-76 0 l0 84 l76 0 l0 -84 ZM449 563 l-75 0 l0 84 l75 0 l0 -84 Z" /><glyph glyph-name="" unicode="&#x1f9;" d="M408 706 l88 0 l95 -128 l-58 0 l-125 128 ZM297 0 l0 334 q1 79 -7 164 l69 0 l12 -69 q58 80 176 80 q157 -6 161 -224 l0 -285 l-77 0 l0 285 q4 159 -125 154 q-121 -13 -133 -154 l0 -285 l-76 0 Z" /><glyph glyph-name="" unicode="&#x251;" d="M722 348 l0 -187 q0 -67 8 -161 l-68 0 l-13 68 q-62 -81 -163 -78 q-205 16 -216 260 q13 243 216 260 q110 -1 157 -75 l20 63 l66 0 q-7 -100 -7 -150 ZM646 197 l0 106 q-9 128 -146 135 q-153 -2 -153 -188 q1 -188 153 -190 q135 9 146 137 Z" /><glyph glyph-name="" unicode="&#x261;" d="M301 -203 l21 62 q82 -29 157 -32 q171 -6 166 161 l0 100 q-66 -89 -163 -88 q-201 16 -213 254 q12 239 213 256 q102 2 165 -88 l13 76 l69 0 q-7 -79 -7 -164 l0 -356 q2 -219 -244 -217 q-89 0 -177 36 ZM645 206 l0 96 q-8 129 -146 137 q-151 -2 -153 -185 q2 -182 153 -184 q137 8 146 136 Z" /><glyph glyph-name="" unicode="&#x2c7;" d="M370 701 l52 0 l78 -84 l75 84 l55 0 l-89 -126 l-82 0 l-89 126 Z" /><glyph glyph-name="" unicode="&#x2c9;" d="M358 667 l284 0 l0 -62 l-284 0 l0 62 Z" /><glyph glyph-name="" unicode="&#x3a8;" d="M733 714 l74 0 l0 -182 q-3 -282 -270 -311 l0 -221 l-74 0 l0 220 q-267 30 -269 312 l0 182 l73 0 l0 -185 q3 -206 196 -237 l0 422 l74 0 l0 -422 q193 32 196 237 l0 185 Z" /><glyph glyph-name="" unicode="&#x3a9;" d="M648 71 l171 0 l0 -71 l-253 0 l0 67 q162 144 165 316 q-5 264 -232 272 q-227 -9 -232 -272 q2 -184 166 -317 l0 -66 l-253 0 l0 71 l165 0 q-149 134 -152 312 q10 330 306 343 q298 -12 307 -343 q-3 -181 -158 -312 Z" /><glyph glyph-name="" unicode="&#x2014;" d="M-3 385 l1006 0 l0 -70 l-1006 0 l0 70 Z" /><glyph glyph-name="" unicode="&#x2016;" d="M648 850 l0 -1000 l-76 0 l0 1000 l76 0 ZM429 850 l0 -1000 l-75 0 l0 1000 l75 0 Z" /><glyph glyph-name="" unicode="&#x2018;" d="M703 522 l0 45 q1 87 52 173 l42 0 q-46 -78 -45 -137 q1 -20 23 -22 l23 0 l0 -100 l-48 0 q-45 2 -47 41 Z" /><glyph glyph-name="" unicode="&#x2019;" d="M298 699 l0 -45 q-1 -87 -52 -173 l-42 0 q46 78 45 137 q-1 20 -23 22 l-23 0 l0 100 l48 0 q45 -2 47 -41 Z" /><glyph glyph-name="" unicode="&#x201c;" d="M765 522 l0 45 q1 87 52 173 l42 0 q-46 -78 -45 -137 q1 -20 23 -22 l23 0 l0 -100 l-48 0 q-45 2 -47 41 ZM585 522 l0 45 q1 87 52 173 l42 0 q-46 -78 -45 -137 q1 -20 23 -22 l23 0 l0 -100 l-48 0 q-45 2 -47 41 Z" /><glyph glyph-name="" unicode="&#x201d;" d="M415 699 l0 -45 q-1 -87 -52 -173 l-42 0 q46 78 45 137 q-1 20 -23 22 l-23 0 l0 100 l48 0 q45 -2 47 -41 ZM235 699 l0 -45 q-1 -87 -52 -173 l-42 0 q46 78 45 137 q-1 20 -23 22 l-23 0 l0 100 l48 0 q45 -2 47 -41 Z" /><glyph glyph-name="" unicode="&#x2026;" d="M454 301 l0 98 l96 0 l0 -98 l-96 0 ZM120 301 l0 98 l96 0 l0 -98 l-96 0 ZM786 301 l0 98 l96 0 l0 -98 l-96 0 Z" /><glyph glyph-name="" unicode="&#x2030;" d="M162 725 q151 -11 159 -206 q-6 -197 -159 -206 q-149 9 -157 206 q7 196 157 206 ZM162 665 q-89 0 -89 -146 q0 -145 89 -146 q90 -2 89 146 q0 147 -89 146 ZM160 -10 l-61 0 q61 112 183 332 q148 266 222 403 l63 0 q-68 -124 -203 -367 q-136 -243 -204 -368 ZM502 402 q150 -11 158 -206 q-6 -197 -158 -206 q-149 9 -157 206 q7 196 157 206 ZM502 342 q-88 0 -88 -146 q0 -147 88 -147 q90 -1 89 147 q0 147 -89 146 ZM836 402 q150 -11 158 -206 q-6 -197 -158 -206 q-149 10 -157 206 q7 195 157 206 ZM836 342 q-88 0 -88 -146 q0 -147 88 -147 q90 -1 89 147 q0 147 -89 146 Z" /><glyph glyph-name="" unicode="&#x2032;" d="M230 726 l85 0 l-114 -171 l-47 0 l76 171 Z" /><glyph glyph-name="" unicode="&#x2033;" d="M323 726 l87 0 l-114 -171 l-47 0 l74 171 ZM155 726 l85 0 l-115 -171 l-47 0 l77 171 Z" /><glyph glyph-name="" unicode="&#x2103;" d="M233 549 q68 4 71 70 q-3 68 -71 71 q-67 -4 -72 -71 q4 -66 72 -70 ZM233 512 q-99 7 -106 107 q8 100 106 107 q98 -8 106 -107 q-7 -99 -106 -107 ZM853 87 l19 -70 q-79 -27 -156 -27 q-342 21 -359 369 q17 348 353 366 q91 0 154 -26 l-18 -70 q-60 23 -133 24 q-269 -9 -278 -294 q10 -286 285 -296 q63 0 133 24 Z" /><glyph glyph-name="" unicode="&#x2160;" d="M461 714 l78 0 l0 -714 l-78 0 l0 714 Z" /><glyph glyph-name="" unicode="&#x2161;" d="M570 714 l78 0 l0 -714 l-78 0 l0 714 ZM352 714 l79 0 l0 -714 l-79 0 l0 714 Z" /><glyph glyph-name="" unicode="&#x2162;" d="M462 714 l78 0 l0 -714 l-78 0 l0 714 ZM244 714 l79 0 l0 -714 l-79 0 l0 714 ZM677 714 l79 0 l0 -714 l-79 0 l0 714 Z" /><glyph glyph-name="" unicode="&#x2163;" d="M189 714 l79 0 l0 -714 l-79 0 l0 714 ZM669 0 l-80 0 l-237 714 l88 0 l188 -646 l190 646 l88 0 l-237 -714 Z" /><glyph glyph-name="" unicode="&#x2164;" d="M541 0 l-81 0 l-236 714 l87 0 l189 -646 l190 646 l88 0 l-237 -714 Z" /><glyph glyph-name="" unicode="&#x2165;" d="M739 714 l78 0 l0 -714 l-78 0 l0 714 ZM432 0 l-80 0 l-237 714 l87 0 l189 -646 l190 646 l88 0 l-237 -714 Z" /><glyph glyph-name="" unicode="&#x2166;" d="M634 714 l79 0 l0 -714 l-79 0 l0 714 ZM801 714 l79 0 l0 -714 l-79 0 l0 714 ZM376 0 l-81 0 l-237 714 l88 0 l189 -646 l190 646 l88 0 l-237 -714 Z" /><glyph glyph-name="" unicode="&#x2167;" d="M579 714 l79 0 l0 -714 l-79 0 l0 714 ZM718 714 l79 0 l0 -714 l-79 0 l0 714 ZM858 714 l79 0 l0 -714 l-79 0 l0 714 ZM337 0 l-81 0 l-236 714 l87 0 l189 -646 l190 646 l88 0 l-237 -714 Z" /><glyph glyph-name="" unicode="&#x2168;" d="M183 714 l79 0 l0 -714 l-79 0 l0 714 ZM874 0 l-94 0 l-165 315 l-165 -315 l-93 0 l217 367 l-205 347 l92 0 l154 -295 l155 295 l90 0 l-203 -347 l217 -367 Z" /><glyph glyph-name="" unicode="&#x2169;" d="M759 0 l-94 0 l-165 315 l-165 -315 l-93 0 l216 367 l-204 347 l92 0 l154 -295 l155 295 l89 0 l-202 -347 l217 -367 Z" /><glyph glyph-name="" unicode="&#x216a;" d="M750 714 l78 0 l0 -714 l-78 0 l0 714 ZM648 0 l-94 0 l-165 315 l-165 -315 l-93 0 l216 367 l-204 347 l92 0 l154 -295 l154 295 l90 0 l-202 -347 l217 -367 Z" /><glyph glyph-name="" unicode="&#x216b;" d="M623 714 l79 0 l0 -714 l-79 0 l0 714 ZM791 714 l78 0 l0 -714 l-78 0 l0 714 ZM578 0 l-94 0 l-164 315 l-166 -315 l-92 0 l216 367 l-204 347 l92 0 l154 -295 l154 295 l90 0 l-202 -347 l216 -367 Z" /><glyph glyph-name="" unicode="&#x2170;" d="M538 0 l-76 0 l0 498 l76 0 l0 -498 ZM541 625 l-83 0 l0 89 l83 0 l0 -89 Z" /><glyph glyph-name="" unicode="&#x2171;" d="M450 0 l-76 0 l0 498 l76 0 l0 -498 ZM453 625 l-82 0 l0 89 l82 0 l0 -89 ZM625 0 l-77 0 l0 498 l77 0 l0 -498 ZM628 625 l-83 0 l0 89 l83 0 l0 -89 Z" /><glyph glyph-name="" unicode="&#x2172;" d="M539 0 l-76 0 l0 498 l76 0 l0 -498 ZM542 625 l-83 0 l0 89 l83 0 l0 -89 ZM369 0 l-77 0 l0 498 l77 0 l0 -498 ZM372 625 l-83 0 l0 89 l83 0 l0 -89 ZM708 0 l-77 0 l0 498 l77 0 l0 -498 ZM711 625 l-83 0 l0 89 l83 0 l0 -89 Z" /><glyph glyph-name="" unicode="&#x2173;" d="M308 0 l-77 0 l0 498 l77 0 l0 -498 ZM311 625 l-83 0 l0 89 l83 0 l0 -89 ZM365 498 l81 0 l145 -437 l144 437 l81 0 l-190 -498 l-71 0 l-190 498 Z" /><glyph glyph-name="" unicode="&#x2174;" d="M276 498 l80 0 l145 -437 l144 437 l81 0 l-190 -498 l-70 0 l-190 498 Z" /><glyph glyph-name="" unicode="&#x2175;" d="M183 498 l81 0 l145 -437 l144 437 l80 0 l-190 -498 l-70 0 l-190 498 ZM774 0 l-76 0 l0 498 l76 0 l0 -498 ZM777 625 l-82 0 l0 89 l82 0 l0 -89 Z" /><glyph glyph-name="" unicode="&#x2176;" d="M107 498 l81 0 l145 -437 l144 437 l81 0 l-190 -498 l-71 0 l-190 498 ZM693 0 l-77 0 l0 498 l77 0 l0 -498 ZM696 625 l-83 0 l0 89 l83 0 l0 -89 ZM849 0 l-77 0 l0 498 l77 0 l0 -498 ZM852 625 l-83 0 l0 89 l83 0 l0 -89 Z" /><glyph glyph-name="" unicode="&#x2177;" d="M64 498 l81 0 l145 -437 l144 437 l81 0 l-190 -498 l-71 0 l-190 498 ZM615 0 l-77 0 l0 498 l77 0 l0 -498 ZM618 625 l-83 0 l0 89 l83 0 l0 -89 ZM760 0 l-77 0 l0 498 l77 0 l0 -498 ZM763 625 l-83 0 l0 89 l83 0 l0 -89 ZM907 0 l-77 0 l0 498 l77 0 l0 -498 ZM910 625 l-83 0 l0 89 l83 0 l0 -89 Z" /><glyph glyph-name="" unicode="&#x2178;" d="M400 498 l83 0 l120 -203 l122 203 l83 0 l-161 -242 l170 -256 l-90 0 l-124 211 l-121 -211 l-91 0 l170 256 l-161 242 ZM304 0 l-77 0 l0 498 l77 0 l0 -498 ZM307 625 l-83 0 l0 89 l83 0 l0 -89 Z" /><glyph glyph-name="" unicode="&#x2179;" d="M296 498 l83 0 l120 -203 l122 203 l83 0 l-161 -242 l170 -256 l-90 0 l-124 211 l-121 -211 l-91 0 l170 256 l-161 242 Z" /><glyph glyph-name="" unicode="&#x2192;" d="M0 368 l820 0 q-72 72 -76 178 q102 -135 256 -192 q-153 -58 -256 -196 q-5 81 76 178 l-820 0 l0 32 Z" /><glyph glyph-name="" unicode="&#x2208;" d="M807 92 l0 -55 l-359 0 q-252 5 -256 304 q4 298 256 303 l359 0 l0 -56 l-365 0 q-182 -12 -185 -218 l532 0 l0 -54 l-532 0 q0 -222 181 -224 l369 0 Z" /><glyph glyph-name="" unicode="&#x220f;" d="M792 628 l0 -626 q-4 -87 97 -81 l0 -23 l-306 0 l0 23 q100 -6 96 81 l0 693 l-358 0 l0 -693 q-4 -87 97 -81 l0 -23 l-307 0 l0 23 q101 -6 97 81 l0 626 q-1 98 -95 99 l0 23 l773 0 l0 -23 q-93 -1 -94 -99 Z" /><glyph glyph-name="" unicode="&#x2211;" d="M762 743 l6 -159 l-20 0 q-1 5 -4 13 q-15 107 -149 101 l-263 0 l273 -358 l-294 -339 l371 0 q57 -1 82 22 q26 19 53 91 l23 0 q-32 -121 -43 -224 q-8 1 -24 4 q-35 7 -53 7 l-503 0 q-10 0 -29 -2 q-19 -1 -29 -1 l349 398 l-347 454 q13 -1 38 -3 q45 -4 66 -4 l497 0 Z" /><glyph glyph-name="" unicode="&#x221a;" d="M485 -9 l498 859 l17 0 l0 -40 l-532 -924 l-21 0 l-321 612 l-113 -63 l-13 32 l185 103 l300 -579 Z" /><glyph glyph-name="" unicode="&#x221d;" d="M185 322 q9 178 162 185 q108 -3 160 -139 q65 136 195 132 q97 -3 108 -29 q-1 -15 -15 -16 q-9 0 -27 2 q-19 1 -28 1 q-130 10 -192 -148 q-5 -10 -8 -15 q66 -107 190 -102 q25 0 59 7 q2 1 3 1 q24 1 23 -13 q-25 -43 -111 -49 q-127 -2 -177 131 q-63 -142 -177 -137 q-157 6 -165 189 ZM215 313 q5 -115 117 -120 q91 -5 153 135 q6 12 9 18 q-49 101 -146 101 q-126 -7 -133 -134 Z" /><glyph glyph-name="" unicode="&#x221e;" d="M687 270 q77 6 83 81 q-6 77 -83 83 q-55 1 -135 -80 q85 -87 135 -84 ZM314 270 q60 -1 135 83 q-79 81 -135 81 q-79 -5 -83 -83 q5 -76 83 -81 ZM307 203 q-141 10 -148 148 q8 137 148 148 q83 4 194 -106 q106 108 193 106 q139 -12 148 -148 q-6 -139 -148 -148 q-89 1 -193 112 q-107 -111 -194 -112 Z" /><glyph glyph-name="" unicode="&#x2220;" d="M159 2 l475 628 l33 -26 l-423 -560 l596 0 l0 -42 l-681 0 Z" /><glyph glyph-name="" unicode="&#x2225;" d="M423 -126 l-38 0 l492 976 l38 0 l-492 -976 ZM123 -126 l-38 0 l492 976 l38 0 l-492 -976 Z" /><glyph glyph-name="" unicode="&#x2227;" d="M781 -31 l-51 0 l-218 727 l-242 -719 l-51 0 l261 782 l63 0 l238 -790 Z" /><glyph glyph-name="" unicode="&#x2228;" d="M269 751 l230 -731 l235 731 l47 0 l-250 -793 l-63 0 l-250 793 l51 0 Z" /><glyph glyph-name="" unicode="&#x2229;" d="M748 -1 l0 362 q-6 223 -248 230 q-242 -7 -248 -230 l0 -362 l-58 0 l0 361 q9 279 306 289 q297 -10 306 -289 l0 -361 l-58 0 Z" /><glyph glyph-name="" unicode="&#x222a;" d="M748 267 l0 362 l58 0 l0 -355 q-7 -287 -306 -294 q-299 7 -306 294 l0 355 l58 0 l0 -362 q5 -223 248 -229 q243 6 248 229 Z" /><glyph glyph-name="" unicode="&#x222b;" d="M477 136 l12 330 q10 222 102 227 q28 -2 31 -28 q-1 -19 -21 -20 q-11 0 -23 14 q-6 8 -10 8 q-37 9 -43 -198 l-12 -336 q-10 -343 -105 -326 q-28 2 -31 28 q1 19 21 20 q11 0 23 -14 q6 -8 10 -8 q37 -17 46 303 Z" /><glyph glyph-name="" unicode="&#x222e;" d="M521 346 l-7 -185 q77 11 82 93 q-4 76 -75 92 ZM478 163 l7 184 q-75 -14 -79 -93 q3 -75 72 -91 ZM525 469 l-2 -99 q92 -19 97 -116 q-6 -103 -107 -117 l0 -4 q-5 -136 -21 -220 q-22 -104 -84 -106 q-28 2 -31 28 q1 19 21 20 q11 0 23 -14 q6 -8 10 -8 q39 -2 44 229 l2 76 q-90 21 -95 116 q5 100 103 117 l6 95 q12 227 100 227 q28 -2 31 -28 q-1 -19 -21 -20 q-11 0 -23 14 q-6 8 -10 8 q-41 4 -43 -198 Z" /><glyph glyph-name="" unicode="&#x2234;" d="M453 493 l0 98 l94 0 l0 -98 l-94 0 ZM242 112 l0 98 l94 0 l0 -98 l-94 0 ZM665 112 l0 98 l94 0 l0 -98 l-94 0 Z" /><glyph glyph-name="" unicode="&#x2235;" d="M453 112 l0 98 l94 0 l0 -98 l-94 0 ZM242 492 l0 98 l94 0 l0 -98 l-94 0 ZM665 492 l0 98 l94 0 l0 -98 l-94 0 Z" /><glyph glyph-name="" unicode="&#x2236;" d="M453 492 l0 98 l94 0 l0 -98 l-94 0 ZM453 112 l0 98 l94 0 l0 -98 l-94 0 Z" /><glyph glyph-name="" unicode="&#x2237;" d="M669 547 q45 -5 50 -50 q-5 -45 -50 -50 q-45 5 -50 50 q5 45 50 50 ZM669 193 q45 -5 50 -50 q-5 -45 -50 -50 q-45 5 -50 50 q5 45 50 50 ZM331 547 q45 -5 50 -50 q-5 -45 -50 -50 q-45 5 -50 50 q5 45 50 50 ZM331 193 q45 -5 50 -50 q-5 -45 -50 -50 q-45 5 -50 50 q5 45 50 50 Z" /><glyph glyph-name="" unicode="&#x223d;" d="M883 193 l-42 0 q-9 207 -157 213 q-69 0 -168 -101 q-74 -98 -196 -113 q-193 -2 -204 256 l42 0 q5 -210 156 -214 q108 12 175 103 q70 97 195 111 q188 -5 199 -255 Z" /><glyph glyph-name="" unicode="&#x2248;" d="M830 462 l0 -54 q-87 -70 -167 -67 q-63 0 -173 42 q-98 38 -149 38 q-77 2 -171 -75 l0 54 q87 70 167 67 q63 0 173 -42 q98 -38 149 -38 q77 -2 171 75 ZM830 311 l0 -54 q-87 -70 -167 -67 q-63 0 -173 42 q-98 38 -149 38 q-77 2 -171 -75 l0 54 q87 70 167 67 q63 0 173 -42 q98 -38 149 -38 q77 -2 171 75 Z" /><glyph glyph-name="" unicode="&#x224c;" d="M891 47 l-799 0 l0 42 l799 0 l0 -42 ZM891 189 l-799 0 l0 42 l799 0 l0 -42 ZM883 339 l-42 0 q-9 207 -157 213 q-69 0 -168 -101 q-74 -98 -196 -113 q-193 -2 -204 256 l42 0 q5 -210 156 -214 q108 12 175 103 q70 97 195 111 q188 -5 199 -255 Z" /><glyph glyph-name="" unicode="&#x2260;" d="M396 224 l-229 0 l0 46 l265 0 l79 104 l-344 0 l0 46 l379 0 l177 232 l51 0 l-177 -232 l236 0 l0 -46 l-271 0 l-79 -104 l350 0 l0 -46 l-386 0 l-174 -236 l-51 0 l174 236 Z" /><glyph glyph-name="" unicode="&#x2261;" d="M830 434 l-660 0 l0 46 l660 0 l0 -46 ZM830 160 l-660 0 l0 46 l660 0 l0 -46 ZM830 297 l-660 0 l0 46 l660 0 l0 -46 Z" /><glyph glyph-name="" unicode="&#x2264;" d="M839 229 l0 -60 l-678 187 l0 61 l678 189 l0 -60 l-594 -158 l0 -2 l594 -157 ZM839 46 l0 -59 l-678 191 l0 60 l678 -192 Z" /><glyph glyph-name="" unicode="&#x2265;" d="M839 238 l0 -60 l-678 -191 l0 59 l678 192 ZM839 417 l0 -61 l-678 -187 l0 60 l594 157 l0 2 l-594 158 l0 60 l678 -189 Z" /><glyph glyph-name="" unicode="&#x2299;" d="M500 298 q-52 6 -58 58 q6 52 58 58 q52 -6 58 -58 q-6 -52 -58 -58 ZM500 34 q293 27 320 322 q-27 295 -320 322 q-293 -27 -320 -322 q27 -295 320 -322 ZM500 720 q332 -32 364 -364 q-32 -332 -364 -364 q-332 32 -364 364 q32 332 364 364 Z" /><glyph glyph-name="" unicode="&#x22a5;" d="M202 44 l276 0 l0 586 l44 0 l0 -586 l276 0 l0 -42 l-596 0 l0 42 Z" /><glyph glyph-name="" unicode="&#x2312;" d="M916 227 l-4 -8 q-14 0 -55 44 q-71 126 -347 173 q-11 2 -24 0 q-276 -47 -344 -173 q-40 -44 -54 -44 l-4 8 q143 282 414 281 q281 4 418 -281 Z" /><glyph glyph-name="" unicode="&#x2460;" d="M500 -73 q387 36 423 423 q-36 387 -423 423 q-386 -36 -422 -423 q36 -387 422 -423 ZM500 -128 q-438 41 -479 478 q41 438 479 479 q437 -41 478 -479 q-41 -437 -478 -478 ZM463 64 l0 487 l-107 -49 l0 69 l142 64 l36 0 l0 -571 l-71 0 Z" /><glyph glyph-name="" unicode="&#x2461;" d="M500 -73 q387 36 423 423 q-36 387 -423 423 q-386 -36 -422 -423 q36 -387 422 -423 ZM666 64 l-333 0 l0 44 q32 45 114 143 q45 55 68 83 q73 88 71 159 q-1 85 -96 86 q-58 0 -122 -43 l-17 63 q74 46 151 45 q151 -5 155 -152 q1 -91 -89 -197 q-23 -27 -55 -64 q-59 -69 -83 -102 l236 0 l0 -65 ZM500 -128 q-438 41 -479 478 q41 438 479 479 q437 -41 478 -479 q-41 -437 -478 -478 Z" /><glyph glyph-name="" unicode="&#x2462;" d="M500 -73 q387 36 423 423 q-36 387 -423 423 q-386 -36 -422 -423 q36 -387 422 -423 ZM339 94 l18 60 q71 -33 116 -33 q119 2 121 118 q-6 92 -113 97 l-51 0 l0 64 l51 0 q98 3 101 97 q-1 81 -92 82 q-52 0 -112 -31 l-16 63 q69 33 134 33 q152 -6 158 -140 q1 -88 -89 -136 q99 -35 101 -135 q-10 -169 -182 -177 q-71 0 -145 38 ZM500 -128 q-438 41 -479 478 q41 438 479 479 q437 -41 478 -479 q-41 -437 -478 -478 Z" /><glyph glyph-name="" unicode="&#x2463;" d="M500 -73 q387 36 423 423 q-36 387 -423 423 q-386 -36 -422 -423 q36 -387 422 -423 ZM610 64 l-71 0 l0 133 l-242 0 l0 56 l237 382 l76 0 l0 -374 l63 0 l0 -64 l-63 0 l0 -133 ZM366 261 l173 0 l0 278 l-173 -278 ZM500 -128 q-438 41 -479 478 q41 438 479 479 q437 -41 478 -479 q-41 -437 -478 -478 Z" /><glyph glyph-name="" unicode="&#x2464;" d="M500 -73 q387 36 423 423 q-36 387 -423 423 q-386 -36 -422 -423 q36 -387 422 -423 ZM647 636 l0 -64 l-209 0 l-7 -144 q18 6 51 6 q176 -4 182 -188 q-7 -182 -202 -189 q-60 0 -123 31 l17 62 q65 -30 108 -28 q123 6 128 124 q-2 121 -129 123 q-48 0 -99 -14 l15 281 l268 0 ZM500 -128 q-438 41 -479 478 q41 438 479 479 q437 -41 478 -479 q-41 -437 -478 -478 Z" /><glyph glyph-name="" unicode="&#x2465;" d="M500 -73 q387 36 423 423 q-36 387 -423 423 q-386 -36 -422 -423 q36 -387 422 -423 ZM628 644 l9 -63 q-204 -2 -240 -213 q58 63 125 62 q146 -9 155 -179 q-11 -185 -173 -195 q-175 5 -179 241 q12 334 303 347 ZM504 120 q98 6 103 131 q-1 114 -106 115 q-72 -5 -104 -78 q2 -165 107 -168 ZM500 -128 q-438 41 -479 478 q41 438 479 479 q437 -41 478 -479 q-41 -437 -478 -478 Z" /><glyph glyph-name="" unicode="&#x2466;" d="M500 -73 q387 36 423 423 q-36 387 -423 423 q-386 -36 -422 -423 q36 -387 422 -423 ZM336 635 l331 0 l0 -43 l-202 -528 l-82 0 l208 507 l-255 0 l0 64 ZM500 -128 q-438 41 -479 478 q41 438 479 479 q437 -41 478 -479 q-41 -437 -478 -478 Z" /><glyph glyph-name="" unicode="&#x2467;" d="M500 -73 q387 36 423 423 q-36 387 -423 423 q-386 -36 -422 -423 q36 -387 422 -423 ZM433 367 q-94 54 -92 137 q10 131 158 140 q149 -8 159 -140 q2 -86 -95 -137 q118 -57 114 -155 q-11 -145 -178 -156 q-167 10 -177 156 q-1 98 111 155 ZM499 120 q102 5 107 94 q4 83 -117 122 q-97 -41 -97 -123 q6 -88 107 -93 ZM499 584 q-84 -6 -92 -80 q2 -67 102 -108 q82 43 83 108 q-6 75 -93 80 ZM500 -128 q-438 41 -479 478 q41 438 479 479 q437 -41 478 -479 q-41 -437 -478 -478 Z" /><glyph glyph-name="" unicode="&#x2468;" d="M500 -73 q387 36 423 423 q-36 387 -423 423 q-386 -36 -422 -423 q36 -387 422 -423 ZM373 56 l-8 64 q202 2 240 211 q-58 -61 -126 -60 q-146 9 -154 179 q11 184 172 194 q176 -5 180 -241 q-12 -334 -304 -347 ZM497 580 q-98 -6 -103 -130 q1 -115 106 -116 q72 3 105 78 q-2 164 -108 168 ZM500 -128 q-438 41 -479 478 q41 438 479 479 q437 -41 478 -479 q-41 -437 -478 -478 Z" /><glyph glyph-name="" unicode="&#x2469;" d="M500 -73 q387 36 423 423 q-36 387 -423 423 q-386 -36 -422 -423 q36 -387 422 -423 ZM299 62 l0 488 l-107 -50 l0 70 l142 64 l36 0 l0 -572 l-71 0 ZM601 642 q176 -5 179 -293 q-3 -290 -179 -295 q-174 4 -178 295 q3 288 178 293 ZM601 578 q-106 -2 -107 -229 q1 -228 107 -230 q106 2 107 230 q-1 227 -107 229 ZM500 -128 q-438 41 -479 478 q41 438 479 479 q437 -41 478 -479 q-41 -437 -478 -478 Z" /><glyph glyph-name="" unicode="&#x2474;" d="M458 0 l0 621 l-137 -63 l0 77 l178 80 l37 0 l0 -715 l-78 0 ZM151 811 l60 0 q-132 -193 -130 -465 q-2 -257 130 -459 l-60 0 q-138 189 -138 460 q1 273 138 464 ZM789 811 l61 0 q136 -193 137 -463 q0 -268 -137 -461 l-61 0 q132 203 130 460 q2 272 -130 464 Z" /><glyph glyph-name="" unicode="&#x2475;" d="M706 0 l-413 0 l0 48 q27 39 148 185 q51 62 83 101 q95 113 92 204 q-1 114 -129 115 q-73 0 -152 -50 l-19 69 q88 55 187 54 q186 -6 192 -189 q2 -110 -114 -247 q-20 -25 -62 -73 q-79 -90 -119 -144 l306 0 l0 -73 ZM151 811 l60 0 q-132 -193 -130 -465 q-2 -257 130 -459 l-60 0 q-138 189 -138 460 q1 273 138 464 ZM789 811 l61 0 q136 -193 137 -463 q0 -268 -137 -461 l-61 0 q132 203 130 460 q2 272 -130 464 Z" /><glyph glyph-name="" unicode="&#x2476;" d="M298 35 l19 65 q84 -38 144 -38 q157 3 160 155 q-7 121 -150 127 l-59 0 l0 73 l59 0 q131 4 135 126 q-1 109 -124 110 q-61 0 -138 -36 l-18 68 q87 41 165 41 q188 -7 195 -173 q-1 -119 -121 -173 q132 -43 136 -171 q-12 -209 -226 -219 q-87 0 -177 45 ZM151 811 l60 0 q-132 -193 -130 -465 q-2 -257 130 -459 l-60 0 q-138 189 -138 460 q1 273 138 464 ZM789 811 l61 0 q136 -193 137 -463 q0 -268 -137 -461 l-61 0 q132 203 130 460 q2 272 -130 464 Z" /><glyph glyph-name="" unicode="&#x2477;" d="M647 0 l-78 0 l0 170 l-309 0 l0 65 l301 480 l86 0 l0 -474 l81 0 l0 -71 l-81 0 l0 -170 ZM332 241 l237 0 l0 377 l-237 -377 ZM151 811 l60 0 q-132 -193 -130 -465 q-2 -257 130 -459 l-60 0 q-138 189 -138 460 q1 273 138 464 ZM789 811 l61 0 q136 -193 137 -463 q0 -268 -137 -461 l-61 0 q132 203 130 460 q2 272 -130 464 Z" /><glyph glyph-name="" unicode="&#x2478;" d="M677 715 l0 -73 l-265 0 l-9 -192 q28 9 71 9 q216 -7 224 -234 q-9 -227 -251 -235 q-77 0 -150 36 l18 68 q77 -34 135 -32 q162 8 169 163 q-2 159 -171 161 q-66 0 -121 -15 l19 344 l331 0 ZM151 811 l60 0 q-132 -193 -130 -465 q-2 -257 130 -459 l-60 0 q-138 189 -138 460 q1 273 138 464 ZM789 811 l61 0 q136 -193 137 -463 q0 -268 -137 -461 l-61 0 q132 203 130 460 q2 272 -130 464 Z" /><glyph glyph-name="" unicode="&#x2479;" d="M657 726 l11 -70 q-268 -1 -309 -288 q65 89 169 89 q180 -12 191 -224 q-13 -231 -214 -243 q-218 6 -223 302 q13 414 375 434 ZM505 61 q132 7 138 172 q-1 151 -141 152 q-97 -7 -140 -102 q2 -218 143 -222 ZM151 811 l60 0 q-132 -193 -130 -465 q-2 -257 130 -459 l-60 0 q-138 189 -138 460 q1 273 138 464 ZM789 811 l61 0 q136 -193 137 -463 q0 -268 -137 -461 l-61 0 q132 203 130 460 q2 272 -130 464 Z" /><glyph glyph-name="" unicode="&#x247a;" d="M294 715 l409 0 l0 -48 l-256 -667 l-90 0 l265 642 l-328 0 l0 73 ZM151 811 l60 0 q-132 -193 -130 -465 q-2 -257 130 -459 l-60 0 q-138 189 -138 460 q1 273 138 464 ZM789 811 l61 0 q136 -193 137 -463 q0 -268 -137 -461 l-61 0 q132 203 130 460 q2 272 -130 464 Z" /><glyph glyph-name="" unicode="&#x247b;" d="M422 382 q-119 69 -116 171 q12 162 196 173 q185 -10 197 -173 q3 -105 -126 -174 q155 -73 149 -195 q-13 -181 -220 -194 q-209 11 -220 194 q0 125 140 198 ZM502 60 q136 7 143 126 q6 108 -155 160 q-131 -53 -131 -161 q7 -118 143 -125 ZM502 660 q-113 -9 -124 -107 q1 -88 137 -142 q111 55 111 142 q-9 100 -124 107 ZM151 811 l60 0 q-132 -193 -130 -465 q-2 -257 130 -459 l-60 0 q-138 189 -138 460 q1 273 138 464 ZM789 811 l61 0 q136 -193 137 -463 q0 -268 -137 -461 l-61 0 q132 203 130 460 q2 272 -130 464 Z" /><glyph glyph-name="" unicode="&#x247c;" d="M343 -10 l-12 68 q267 5 310 293 q-68 -88 -170 -88 q-180 12 -191 222 q13 229 215 241 q218 -5 222 -299 q-14 -416 -374 -437 ZM495 655 q-132 -7 -138 -170 q1 -150 141 -151 q97 4 140 103 q-2 214 -143 218 ZM151 811 l60 0 q-132 -193 -130 -465 q-2 -257 130 -459 l-60 0 q-138 189 -138 460 q1 273 138 464 ZM789 811 l61 0 q136 -193 137 -463 q0 -268 -137 -461 l-61 0 q132 203 130 460 q2 272 -130 464 Z" /><glyph glyph-name="" unicode="&#x247d;" d="M267 0 l0 622 l-98 -48 l0 77 l139 64 l38 0 l0 -715 l-79 0 ZM632 726 q220 -6 223 -365 q-3 -364 -223 -371 q-218 5 -222 371 q4 359 222 365 ZM632 654 q-142 -2 -143 -293 q1 -297 143 -299 q142 2 143 299 q-1 291 -143 293 ZM151 811 l60 0 q-132 -193 -130 -465 q-2 -257 130 -459 l-60 0 q-138 189 -138 460 q1 273 138 464 ZM789 811 l61 0 q136 -193 137 -463 q0 -268 -137 -461 l-61 0 q132 203 130 460 q2 272 -130 464 Z" /><glyph glyph-name="" unicode="&#x247e;" d="M303 0 l0 622 l-98 -48 l0 77 l139 64 l38 0 l0 -715 l-79 0 ZM625 0 l0 622 l-98 -48 l0 77 l139 64 l38 0 l0 -715 l-79 0 ZM151 811 l60 0 q-132 -193 -130 -465 q-2 -257 130 -459 l-60 0 q-138 189 -138 460 q1 273 138 464 ZM789 811 l61 0 q136 -193 137 -463 q0 -268 -137 -461 l-61 0 q132 203 130 460 q2 272 -130 464 Z" /><glyph glyph-name="" unicode="&#x247f;" d="M151 811 l60 0 q-132 -193 -130 -465 q-2 -257 130 -459 l-60 0 q-138 189 -138 460 q1 273 138 464 ZM789 811 l61 0 q136 -193 137 -463 q0 -268 -137 -461 l-61 0 q132 203 130 460 q2 272 -130 464 ZM267 0 l0 622 l-98 -48 l0 77 l139 64 l38 0 l0 -715 l-79 0 ZM818 0 l-413 0 l0 48 q27 39 148 185 q51 62 83 101 q95 113 92 204 q-1 114 -129 115 q-73 0 -152 -50 l-19 69 q88 55 187 54 q186 -6 192 -189 q2 -110 -114 -247 q-20 -25 -62 -73 q-79 -90 -119 -144 l306 0 l0 -73 Z" /><glyph glyph-name="" unicode="&#x2480;" d="M267 0 l0 622 l-98 -48 l0 77 l139 64 l38 0 l0 -715 l-79 0 ZM423 35 l19 65 q84 -38 144 -38 q157 3 160 155 q-7 121 -150 127 l-59 0 l0 73 l59 0 q131 4 135 126 q-1 109 -124 110 q-61 0 -138 -36 l-18 68 q87 41 165 41 q188 -7 195 -173 q-1 -119 -121 -173 q132 -43 136 -171 q-12 -209 -226 -219 q-87 0 -177 45 ZM151 811 l60 0 q-132 -193 -130 -465 q-2 -257 130 -459 l-60 0 q-138 189 -138 460 q1 273 138 464 ZM789 811 l61 0 q136 -193 137 -463 q0 -268 -137 -461 l-61 0 q132 203 130 460 q2 272 -130 464 Z" /><glyph glyph-name="" unicode="&#x2481;" d="M151 811 l60 0 q-132 -193 -130 -465 q-2 -257 130 -459 l-60 0 q-138 189 -138 460 q1 273 138 464 ZM789 811 l61 0 q136 -193 137 -463 q0 -268 -137 -461 l-61 0 q132 203 130 460 q2 272 -130 464 ZM267 0 l0 622 l-98 -48 l0 77 l139 64 l38 0 l0 -715 l-79 0 ZM761 0 l-78 0 l0 170 l-309 0 l0 65 l301 480 l86 0 l0 -474 l81 0 l0 -71 l-81 0 l0 -170 ZM446 241 l237 0 l0 377 l-237 -377 Z" /><glyph glyph-name="" unicode="&#x2482;" d="M151 811 l60 0 q-132 -193 -130 -465 q-2 -257 130 -459 l-60 0 q-138 189 -138 460 q1 273 138 464 ZM789 811 l61 0 q136 -193 137 -463 q0 -268 -137 -461 l-61 0 q132 203 130 460 q2 272 -130 464 ZM267 0 l0 622 l-98 -48 l0 77 l139 64 l38 0 l0 -715 l-79 0 ZM802 715 l0 -73 l-265 0 l-9 -192 q28 9 71 9 q216 -7 224 -234 q-9 -227 -251 -235 q-77 0 -150 36 l18 68 q77 -34 135 -32 q162 8 169 163 q-2 159 -171 161 q-66 0 -121 -15 l19 344 l331 0 Z" /><glyph glyph-name="" unicode="&#x2483;" d="M151 811 l60 0 q-132 -193 -130 -465 q-2 -257 130 -459 l-60 0 q-138 189 -138 460 q1 273 138 464 ZM789 811 l61 0 q136 -193 137 -463 q0 -268 -137 -461 l-61 0 q132 203 130 460 q2 272 -130 464 ZM267 0 l0 622 l-98 -48 l0 77 l139 64 l38 0 l0 -715 l-79 0 ZM791 726 l11 -70 q-268 -1 -309 -288 q65 89 169 89 q180 -12 191 -224 q-13 -231 -214 -243 q-218 6 -223 302 q13 414 375 434 ZM639 61 q132 7 138 172 q-1 151 -141 152 q-97 -7 -140 -102 q2 -218 143 -222 Z" /><glyph glyph-name="" unicode="&#x2484;" d="M151 811 l60 0 q-132 -193 -130 -465 q-2 -257 130 -459 l-60 0 q-138 189 -138 460 q1 273 138 464 ZM789 811 l61 0 q136 -193 137 -463 q0 -268 -137 -461 l-61 0 q132 203 130 460 q2 272 -130 464 ZM267 0 l0 622 l-98 -48 l0 77 l139 64 l38 0 l0 -715 l-79 0 ZM423 715 l409 0 l0 -48 l-256 -667 l-90 0 l265 642 l-328 0 l0 73 Z" /><glyph glyph-name="" unicode="&#x2485;" d="M151 811 l60 0 q-132 -193 -130 -465 q-2 -257 130 -459 l-60 0 q-138 189 -138 460 q1 273 138 464 ZM789 811 l61 0 q136 -193 137 -463 q0 -268 -137 -461 l-61 0 q132 203 130 460 q2 272 -130 464 ZM267 0 l0 622 l-98 -48 l0 77 l139 64 l38 0 l0 -715 l-79 0 ZM554 382 q-119 69 -116 171 q12 162 196 173 q185 -10 197 -173 q3 -105 -126 -174 q155 -73 149 -195 q-13 -181 -220 -194 q-209 11 -220 194 q0 125 140 198 ZM634 60 q136 7 143 126 q6 108 -155 160 q-131 -53 -131 -161 q7 -118 143 -125 ZM634 660 q-113 -9 -124 -107 q1 -88 137 -142 q111 55 111 142 q-9 100 -124 107 Z" /><glyph glyph-name="" unicode="&#x2486;" d="M151 811 l60 0 q-132 -193 -130 -465 q-2 -257 130 -459 l-60 0 q-138 189 -138 460 q1 273 138 464 ZM789 811 l61 0 q136 -193 137 -463 q0 -268 -137 -461 l-61 0 q132 203 130 460 q2 272 -130 464 ZM267 0 l0 622 l-98 -48 l0 77 l139 64 l38 0 l0 -715 l-79 0 ZM478 -10 l-12 68 q267 5 310 293 q-68 -88 -170 -88 q-180 12 -191 222 q13 229 215 241 q218 -5 222 -299 q-14 -416 -374 -437 ZM630 655 q-132 -7 -138 -170 q1 -150 141 -151 q97 4 140 103 q-2 214 -143 218 Z" /><glyph glyph-name="" unicode="&#x2487;" d="M702 728 q196 4 194 -365 q1 -373 -194 -371 q-193 -4 -192 371 q-2 368 192 365 ZM151 811 l60 0 q-132 -193 -130 -465 q0 -179 58 -320 l0 23 q62 96 105 158 q10 16 33 49 q36 52 54 80 q91 134 88 202 q1 116 -114 115 q-65 1 -131 -44 q-3 10 -8 28 q-7 26 -11 41 q44 28 79 38 q34 10 86 10 q171 -4 174 -189 q6 -87 -109 -245 q-114 -165 -144 -219 l254 0 l0 -73 l-345 0 q27 -60 61 -113 l-60 0 q-138 189 -138 460 q1 273 138 464 ZM702 656 q-121 8 -118 -293 q-3 -308 118 -299 q121 -9 118 299 q3 301 -118 293 ZM789 811 l61 0 q136 -193 137 -463 q0 -268 -137 -461 l-61 0 q132 203 130 460 q2 272 -130 464 Z" /><glyph glyph-name="" unicode="&#x2488;" d="M841 0 l0 74 l72 0 l0 -74 l-72 0 ZM458 0 l0 621 l-137 -63 l0 77 l178 80 l37 0 l0 -715 l-78 0 Z" /><glyph glyph-name="" unicode="&#x2489;" d="M841 0 l0 74 l72 0 l0 -74 l-72 0 ZM706 0 l-413 0 l0 48 q27 39 148 185 q51 62 83 101 q95 113 92 204 q-1 114 -129 115 q-73 0 -152 -50 l-19 69 q88 55 187 54 q186 -6 192 -189 q2 -110 -114 -247 q-20 -25 -62 -73 q-79 -90 -119 -144 l306 0 l0 -73 Z" /><glyph glyph-name="" unicode="&#x248a;" d="M841 0 l0 74 l72 0 l0 -74 l-72 0 ZM298 35 l19 65 q84 -38 144 -38 q157 3 160 155 q-7 121 -150 127 l-59 0 l0 73 l59 0 q131 4 135 126 q-1 109 -124 110 q-61 0 -138 -36 l-18 68 q87 41 165 41 q188 -7 195 -173 q-1 -119 -121 -173 q132 -43 136 -171 q-12 -209 -226 -219 q-87 0 -177 45 Z" /><glyph glyph-name="" unicode="&#x248b;" d="M842 0 l0 74 l71 0 l0 -74 l-71 0 ZM647 0 l-78 0 l0 170 l-309 0 l0 65 l301 480 l86 0 l0 -474 l81 0 l0 -71 l-81 0 l0 -170 ZM332 241 l237 0 l0 377 l-237 -377 Z" /><glyph glyph-name="" unicode="&#x248c;" d="M841 0 l0 74 l72 0 l0 -74 l-72 0 ZM677 715 l0 -73 l-265 0 l-9 -192 q28 9 71 9 q216 -7 224 -234 q-9 -227 -251 -235 q-77 0 -150 36 l18 68 q77 -34 135 -32 q162 8 169 163 q-2 159 -171 161 q-66 0 -121 -15 l19 344 l331 0 Z" /><glyph glyph-name="" unicode="&#x248d;" d="M841 0 l0 74 l72 0 l0 -74 l-72 0 ZM657 726 l11 -70 q-268 -1 -309 -288 q65 89 169 89 q180 -12 191 -224 q-13 -231 -214 -243 q-218 6 -223 302 q13 414 375 434 ZM505 61 q132 7 138 172 q-1 151 -141 152 q-97 -7 -140 -102 q2 -218 143 -222 Z" /><glyph glyph-name="" unicode="&#x248e;" d="M841 0 l0 74 l72 0 l0 -74 l-72 0 ZM294 715 l409 0 l0 -48 l-256 -667 l-90 0 l265 642 l-328 0 l0 73 Z" /><glyph glyph-name="" unicode="&#x248f;" d="M841 0 l0 74 l72 0 l0 -74 l-72 0 ZM422 382 q-119 69 -116 171 q12 162 196 173 q185 -10 197 -173 q3 -105 -126 -174 q155 -73 149 -195 q-13 -181 -220 -194 q-209 11 -220 194 q0 125 140 198 ZM502 60 q136 7 143 126 q6 108 -155 160 q-131 -53 -131 -161 q7 -118 143 -125 ZM502 660 q-113 -9 -124 -107 q1 -88 137 -142 q111 55 111 142 q-9 100 -124 107 Z" /><glyph glyph-name="" unicode="&#x2490;" d="M841 0 l0 74 l72 0 l0 -74 l-72 0 ZM343 -10 l-12 68 q267 5 310 293 q-68 -88 -170 -88 q-180 12 -191 222 q13 229 215 241 q218 -5 222 -299 q-14 -416 -374 -437 ZM495 655 q-132 -7 -138 -170 q1 -150 141 -151 q97 4 140 103 q-2 214 -143 218 Z" /><glyph glyph-name="" unicode="&#x2491;" d="M206 0 l0 621 q-19 -9 -61 -29 q-52 -25 -76 -35 l0 77 q39 17 116 52 q42 19 62 28 l38 0 l0 -714 l-79 0 ZM848 0 l0 74 l71 0 l0 -74 l-71 0 ZM581 725 q220 -5 223 -364 q-3 -364 -223 -371 q-218 5 -222 371 q4 358 222 364 ZM581 653 q-142 -2 -143 -292 q1 -297 143 -299 q142 2 143 299 q-1 290 -143 292 Z" /><glyph glyph-name="" unicode="&#x2492;" d="M847 0 l0 74 l72 0 l0 -74 l-72 0 ZM237 0 l0 622 l-137 -64 l0 77 l178 80 l37 0 l0 -715 l-78 0 ZM599 0 l0 622 l-137 -64 l0 77 l178 80 l38 0 l0 -715 l-79 0 Z" /><glyph glyph-name="" unicode="&#x2493;" d="M848 0 l0 74 l71 0 l0 -74 l-71 0 ZM207 0 l0 621 l-137 -63 l0 77 l178 80 l37 0 l0 -715 l-78 0 ZM788 0 l-413 0 l0 48 q27 39 148 185 q51 62 83 101 q95 113 92 204 q-1 114 -129 115 q-73 0 -152 -50 l-19 69 q88 55 187 54 q186 -6 192 -189 q2 -110 -114 -247 q-20 -25 -62 -73 q-79 -90 -119 -144 l306 0 l0 -73 Z" /><glyph glyph-name="" unicode="&#x2494;" d="M848 0 l0 74 l71 0 l0 -74 l-71 0 ZM207 0 l0 621 l-137 -63 l0 77 l178 80 l37 0 l0 -715 l-78 0 ZM403 35 l19 65 q84 -38 144 -38 q157 3 160 155 q-7 121 -150 127 l-59 0 l0 73 l59 0 q131 4 135 126 q-1 109 -124 110 q-61 0 -138 -36 l-18 68 q87 41 165 41 q188 -7 195 -173 q-1 -119 -121 -173 q132 -43 136 -171 q-12 -209 -226 -219 q-87 0 -177 45 Z" /><glyph glyph-name="" unicode="&#x2495;" d="M848 0 l0 74 l71 0 l0 -74 l-71 0 ZM207 0 l0 621 l-137 -63 l0 77 l178 80 l37 0 l0 -715 l-78 0 ZM733 0 l-78 0 l0 170 l-309 0 l0 65 l301 480 l86 0 l0 -474 l81 0 l0 -71 l-81 0 l0 -170 ZM418 241 l237 0 l0 377 l-237 -377 Z" /><glyph glyph-name="" unicode="&#x2496;" d="M848 0 l0 74 l71 0 l0 -74 l-71 0 ZM207 0 l0 621 l-137 -63 l0 77 l178 80 l37 0 l0 -715 l-78 0 ZM763 715 l0 -73 l-265 0 l-9 -192 q28 9 71 9 q216 -7 224 -234 q-9 -227 -251 -235 q-77 0 -150 36 l18 68 q77 -34 135 -32 q162 8 169 163 q-2 159 -171 161 q-66 0 -121 -15 l19 344 l331 0 Z" /><glyph glyph-name="" unicode="&#x2497;" d="M848 0 l0 74 l71 0 l0 -74 l-71 0 ZM207 0 l0 621 l-137 -63 l0 77 l178 80 l37 0 l0 -715 l-78 0 ZM750 726 l11 -70 q-268 -1 -309 -288 q65 89 169 89 q180 -12 191 -224 q-13 -231 -214 -243 q-218 6 -223 302 q13 414 375 434 ZM598 61 q132 7 138 172 q-1 151 -141 152 q-97 -7 -140 -102 q2 -218 143 -222 Z" /><glyph glyph-name="" unicode="&#x2498;" d="M848 0 l0 74 l71 0 l0 -74 l-71 0 ZM207 0 l0 621 l-137 -63 l0 77 l178 80 l37 0 l0 -715 l-78 0 ZM386 715 l409 0 l0 -48 l-256 -667 l-90 0 l265 642 l-328 0 l0 73 Z" /><glyph glyph-name="" unicode="&#x2499;" d="M848 0 l0 74 l71 0 l0 -74 l-71 0 ZM207 0 l0 621 l-137 -63 l0 77 l178 80 l37 0 l0 -715 l-78 0 ZM512 382 q-119 69 -116 171 q12 162 196 173 q185 -10 197 -173 q3 -105 -126 -174 q155 -73 149 -195 q-13 -181 -220 -194 q-209 11 -220 194 q0 125 140 198 ZM592 60 q136 7 143 126 q6 108 -155 160 q-131 -53 -131 -161 q7 -118 143 -125 ZM592 660 q-113 -9 -124 -107 q1 -88 137 -142 q111 55 111 142 q-9 100 -124 107 Z" /><glyph glyph-name="" unicode="&#x249a;" d="M848 0 l0 74 l71 0 l0 -74 l-71 0 ZM207 0 l0 621 l-137 -63 l0 77 l178 80 l37 0 l0 -715 l-78 0 ZM439 -10 l-12 68 q267 5 310 293 q-68 -88 -170 -88 q-180 12 -191 222 q13 229 215 241 q218 -5 222 -299 q-14 -416 -374 -437 ZM591 655 q-132 -7 -138 -170 q1 -150 141 -151 q97 4 140 103 q-2 214 -143 218 Z" /><glyph glyph-name="" unicode="&#x249b;" d="M673 730 q220 -6 224 -367 q-4 -366 -224 -373 q-217 5 -221 373 q4 360 221 367 ZM673 664 q-150 -3 -151 -301 q1 -305 151 -308 q152 5 154 308 q-1 297 -154 301 ZM453 0 l-412 0 l0 44 q90 127 224 279 q109 124 108 215 q-1 123 -137 123 q-72 0 -152 -48 q-3 12 -10 32 q-6 19 -9 29 q88 53 186 52 q185 -6 191 -188 q3 -122 -115 -247 q-115 -127 -189 -226 l315 0 l0 -65 ZM888 0 l0 74 l72 0 l0 -74 l-72 0 Z" /><glyph glyph-name="" unicode="&#x25a1;" d="M900 -64 l-800 0 l0 800 l800 0 l0 -800 ZM144 692 l0 -712 l712 0 l0 712 l-712 0 Z" /><glyph glyph-name="" unicode="&#x25b2;" d="M865 0 l-730 0 l365 736 l365 -736 Z" /><glyph glyph-name="" unicode="&#x25cf;" d="M500 720 q332 -32 364 -364 q-32 -332 -364 -364 q-332 32 -364 364 q32 332 364 364 Z" /><glyph glyph-name="" unicode="&#x2640;" d="M323 504 q14 -162 177 -177 q163 15 177 177 q-14 162 -177 177 q-163 -15 -177 -177 ZM330 76 l0 44 l148 0 l0 165 q-184 32 -199 219 q19 202 221 221 q202 -19 221 -221 q-15 -187 -199 -219 l0 -165 l148 0 l0 -44 l-148 0 l0 -121 l-44 0 l0 121 l-148 0 Z" /><glyph glyph-name="" unicode="&#x2642;" d="M323 178 q14 -162 177 -177 q163 15 177 177 q-14 162 -177 177 q-163 -15 -177 -177 ZM328 536 l-12 17 q6 5 19 14 q120 88 156 157 l20 0 q39 -75 174 -164 l-11 -23 q-88 37 -152 98 l0 -237 q184 -33 199 -220 q-19 -202 -221 -221 q-202 19 -221 221 q15 186 199 220 l0 236 q-65 -56 -150 -98 Z" /><glyph glyph-name="" unicode="&#x3001;" d="M305 -31 l-165 193 l58 47 l168 -189 l-61 -51 Z" /><glyph glyph-name="" unicode="&#x3002;" d="M248 15 q93 7 99 98 q-6 92 -99 99 q-94 -6 -100 -99 q7 -91 100 -98 ZM248 -32 q-135 10 -145 145 q11 136 145 146 q133 -11 144 -146 q-10 -133 -144 -145 Z" /><glyph glyph-name="" unicode="&#x3003;" d="M296 161 l125 376 l101 0 l-172 -376 l-54 0 ZM476 161 l125 376 l101 0 l-172 -376 l-54 0 Z" /><glyph glyph-name="" unicode="&#x3005;" d="M711 -1 l-41 -62 q-200 166 -425 296 l55 46 q108 -63 191 -118 q143 161 252 338 l-415 0 q-87 -115 -194 -202 q-22 23 -67 36 q231 187 337 442 l63 -39 q-36 -87 -93 -172 l460 0 l0 -58 q-133 -217 -282 -387 q86 -58 159 -120 Z" /><glyph glyph-name="" unicode="&#x3008;" d="M620 -53 l-161 404 l161 403 l76 0 l-162 -403 l162 -404 l-76 0 Z" /><glyph glyph-name="" unicode="&#x3009;" d="M304 -53 l161 404 l-161 403 l76 0 l161 -403 l-161 -404 l-76 0 Z" /><glyph glyph-name="" unicode="&#x300a;" d="M706 -53 l-162 404 l162 403 l75 0 l-161 -403 l161 -404 l-75 0 ZM534 -53 l-161 404 l161 403 l77 0 l-162 -403 l162 -404 l-77 0 Z" /><glyph glyph-name="" unicode="&#x300b;" d="M218 -53 l162 404 l-162 403 l77 0 l161 -403 l-161 -404 l-77 0 ZM390 -53 l161 404 l-161 403 l75 0 l162 -403 l-162 -404 l-75 0 Z" /><glyph glyph-name="" unicode="&#x300c;" d="M459 -54 l0 814 l216 0 l0 -65 l-141 0 l0 -749 l-75 0 Z" /><glyph glyph-name="" unicode="&#x300d;" d="M324 -54 l0 65 l141 0 l0 749 l76 0 l0 -814 l-217 0 Z" /><glyph glyph-name="" unicode="&#x300e;" d="M438 -54 l0 810 l275 0 l0 -115 l-150 0 l0 -695 l-125 0 ZM520 -11 l0 695 l150 0 l0 29 l-189 0 l0 -724 l39 0 Z" /><glyph glyph-name="" unicode="&#x300f;" d="M286 -54 l0 115 l150 0 l0 695 l125 0 l0 -810 l-275 0 ZM330 -11 l188 0 l0 724 l-38 0 l0 -696 l-150 0 l0 -28 Z" /><glyph glyph-name="" unicode="&#x3010;" d="M450 -53 l0 807 l233 0 q-128 -151 -132 -403 q-2 -257 133 -404 l-234 0 Z" /><glyph glyph-name="" unicode="&#x3011;" d="M317 754 l233 0 l0 -807 l-234 0 q135 147 133 404 q-4 252 -132 403 Z" /><glyph glyph-name="" unicode="&#x3014;" d="M680 -52 l-214 69 l0 671 l214 69 l0 -63 l-145 -49 l0 -583 l145 -49 l0 -65 Z" /><glyph glyph-name="" unicode="&#x3015;" d="M320 758 l215 -70 l0 -671 q-39 -11 -112 -35 q-68 -22 -103 -33 l0 63 l145 49 l0 582 l-145 50 l0 65 Z" /><glyph glyph-name="" unicode="&#x3016;" d="M427 -53 l0 807 l273 0 q-126 -154 -127 -403 q3 -249 127 -404 l-273 0 ZM470 -9 l149 0 q-87 134 -89 360 q-1 211 89 360 l-149 0 l0 -720 Z" /><glyph glyph-name="" unicode="&#x3017;" d="M299 754 l273 0 l0 -807 l-273 0 q124 155 127 404 q-1 249 -127 403 ZM380 -9 l149 0 l0 720 l-149 0 q90 -149 89 -360 q-1 -223 -89 -360 Z" /><glyph glyph-name="" unicode="&#x3105;" d="M406 773 q5 28 32 12 q41 -36 67 -81 q0 -12 -21 -22 q-2 -1 -3 -2 q-17 -2 -95 -107 q-72 -97 -107 -133 q235 46 418 92 q2 1 7 3 q10 5 17 5 q98 -48 120 -104 q0 -11 -16 -20 q-24 -14 -36 -36 q-178 -452 -320 -444 q-11 3 -12 12 q-1 10 4 40 q-5 39 -71 102 q-16 16 -21 22 q-5 31 24 32 q2 -2 7 -5 q72 -56 101 -59 q121 36 204 328 q1 27 -14 33 q-11 8 -62 7 q-246 -27 -372 -84 q-3 -2 -12 -8 q-23 -16 -32 -16 q-37 26 -51 64 q-9 29 19 40 q187 138 225 329 Z" /><glyph glyph-name="" unicode="&#x3106;" d="M191 -52 q-23 12 -8 32 q189 63 337 205 q-94 81 -205 147 q-12 12 -7 23 q8 13 23 9 q137 -62 239 -123 q90 109 121 227 q0 3 0 7 q1 12 -8 13 q-211 -25 -312 -68 q-22 -14 -32 -16 q-44 29 -48 84 q129 82 176 252 q-15 54 16 52 q61 -38 84 -80 q0 -16 -33 -32 q-5 -3 -7 -4 q-27 -29 -64 -86 q-44 -68 -80 -102 q351 70 312 80 q6 4 12 4 q64 -21 116 -96 q0 -12 -25 -29 q-18 -11 -23 -19 q-60 -135 -141 -226 q85 -56 129 -102 q58 -63 49 -117 q-22 -60 -77 -15 q-78 90 -163 172 q-148 -132 -381 -192 Z" /><glyph glyph-name="" unicode="&#x3107;" d="M260 668 l30 0 q148 1 364 52 q6 1 16 6 q16 6 24 6 q67 -20 132 -100 q0 -8 -12 -22 q-16 -20 -16 -34 l0 -21 q0 -50 6 -148 q6 -109 6 -163 l0 -157 q-4 -90 -46 -110 q-57 15 -66 71 q0 12 7 41 q17 42 21 211 l0 146 q2 160 -27 186 q-15 18 -45 19 q-26 2 -92 -13 q-26 -6 -91 -22 q-108 -28 -131 -28 l-8 0 q-16 8 -29 18 q0 -5 -1 -15 q-4 -46 -4 -67 l0 -160 q0 -91 -12 -256 q-5 -128 -40 -132 q-60 34 -72 84 q0 11 12 42 q40 56 52 322 l0 44 q0 119 -44 216 q1 13 16 14 q19 -4 51 -32 q0 2 -1 2 Z" /><glyph glyph-name="" unicode="&#x3108;" d="M285 626 l0 -30 q0 -27 -2 -82 q-2 -36 -2 -54 q0 -10 0 -28 q-4 -222 -4 -344 l0 -20 q-3 -16 16 -16 q172 2 364 44 q34 7 76 4 q45 -6 72 -52 q21 -49 -20 -48 q-9 1 -27 3 q-89 9 -132 9 l-41 0 q-76 0 -280 -35 q-54 -9 -60 -9 q-38 16 -56 68 q0 2 4 20 q28 117 28 203 l0 161 q-4 199 -32 276 q3 7 16 7 q23 -4 45 -22 q174 9 351 67 q41 14 56 12 q52 -9 66 -46 q7 -33 -42 -38 q-195 -13 -334 -52 q-16 -4 -18 -4 q-15 0 -46 19 q2 -6 2 -13 Z" /><glyph glyph-name="" unicode="&#x3109;" d="M528 406 q12 -14 4 -28 q-3 -4 -15 -11 q-12 -7 -14 -11 q-4 -8 -11 -23 q-115 -276 -326 -361 q-28 -12 -26 12 q1 11 -6 8 q261 157 280 447 q-69 -12 -88 -19 q-18 -7 -43 -24 q-22 -16 -33 -16 q-15 6 -43 46 q-18 29 -9 34 q118 67 196 232 q12 27 19 71 q3 18 5 25 q3 12 20 8 q81 -62 76 -100 q-6 -7 -18 -11 q-16 -5 -26 -17 q-9 -11 -34 -42 q-86 -110 -126 -150 q37 7 109 19 q171 29 267 49 q5 1 18 4 q28 8 42 8 q52 -11 120 -84 q1 -12 -18 -33 q-4 -5 -6 -7 q-17 -22 -59 -145 q-74 -287 -217 -335 q-7 0 -10 19 q-2 18 -6 25 q-4 37 -87 87 q-8 5 -9 6 q-14 22 12 31 q6 -2 23 -9 q58 -26 81 -27 q106 25 168 344 q10 51 -56 48 q-57 -2 -205 -26 q29 -21 51 -44 Z" /><glyph glyph-name="" unicode="&#x310a;" d="M159 444 l8 0 q78 0 268 28 q20 101 20 184 q0 38 -16 76 q-4 9 -4 12 q0 1 -1 3 q-4 13 11 15 q99 -19 130 -74 q0 -9 -13 -21 q-14 -13 -15 -23 q-8 -66 -31 -160 q132 23 183 36 q5 1 14 4 q24 8 38 8 q65 -13 92 -76 q-5 -29 -20 -32 q-14 1 -41 4 q-40 4 -60 4 l-47 0 q-79 0 -176 -11 q-61 -216 -136 -357 l12 0 q141 17 290 49 q-16 24 -51 68 q-15 21 -23 31 q-8 18 16 24 q200 -114 196 -202 q-3 -45 -56 -58 q-19 1 -31 43 q-4 13 -6 17 q-5 11 -17 34 q-3 5 -4 7 q-175 -38 -298 -89 q-9 -4 -26 -22 q-20 -22 -30 -22 q-52 30 -76 92 q83 47 163 372 q-55 -10 -132 -29 q-43 -11 -51 -11 q-56 23 -80 76 Z" /><glyph glyph-name="" unicode="&#x310b;" d="M190 736 q26 -3 80 -4 q157 1 356 44 q64 -4 112 -60 q1 -24 -12 -28 q-34 -4 -64 -32 q-46 -42 -159 -171 q-20 -22 -29 -33 q211 34 207 48 q8 4 13 4 q58 -19 116 -92 q10 -15 0 -24 q-2 -11 -22 -18 q-26 -9 -34 -26 q-207 -398 -316 -392 q-28 0 -28 12 q14 47 -76 136 q-18 17 -12 28 q11 11 32 0 q12 -7 30 -23 q35 -27 70 -45 q87 -16 236 320 q22 52 -24 52 q-92 0 -175 -41 q-22 -11 -29 -11 q-59 11 -76 52 q0 13 23 32 q4 3 5 4 q136 132 176 228 q0 3 2 8 q3 6 -6 4 q-256 -38 -283 -56 q-25 -8 -37 -8 q-27 3 -60 40 q-27 33 -16 52 Z" /><glyph glyph-name="" unicode="&#x310c;" d="M305 392 q-1 -1 -4 -4 q-22 -25 -36 -24 q-46 21 -64 64 q0 11 14 19 q10 5 14 9 q36 43 61 131 q20 77 11 141 q6 16 24 16 q57 -34 88 -72 q5 -12 -4 -20 q-42 -9 -104 -196 q89 13 198 34 q33 111 30 214 q0 4 -4 21 q-8 32 -8 43 q6 17 20 16 q67 -25 108 -60 q8 -9 0 -28 q-4 -7 -14 -16 q-8 -8 -10 -12 q-12 -81 -39 -161 q81 17 99 25 q4 1 11 5 q15 7 25 7 q91 -41 116 -96 q0 -18 -27 -29 q-18 -7 -21 -15 q-5 -20 -17 -71 q-77 -380 -219 -393 q-40 -7 -36 36 q-12 46 -59 88 q-21 20 -21 28 q-3 22 20 21 q4 -3 13 -9 q61 -42 85 -44 q111 -3 162 376 q3 29 -24 28 q-69 -10 -129 -18 q-131 -323 -371 -478 q-13 -9 -23 2 q-10 14 -1 26 q205 153 315 438 q-163 -22 -179 -42 Z" /><glyph glyph-name="" unicode="&#x310d;" d="M440 740 q66 -29 84 -76 q0 -10 -14 -19 q-1 -1 -2 -1 q-17 -8 -97 -112 q-118 -153 -183 -216 q61 -60 148 -138 q133 -107 120 -170 q-4 -38 -48 -48 q-25 -3 -60 60 q-67 119 -212 293 q-1 4 0 8 q195 221 244 395 q-2 24 20 24 ZM492 348 l0 8 q222 216 224 340 q3 22 28 24 q59 -44 80 -92 q1 -14 -17 -19 q-21 -7 -31 -21 q-83 -115 -228 -240 q280 -230 276 -316 q3 -50 -52 -64 q-21 4 -44 44 q-102 203 -236 336 Z" /><glyph glyph-name="" unicode="&#x310e;" d="M174 688 l44 0 q127 0 442 63 q85 17 94 17 q41 -4 75 -41 q23 -30 -11 -39 q-36 7 -80 8 q-20 2 -261 -35 q32 -28 45 -53 q2 -4 1 -8 q-1 -2 -1 -4 q0 -9 -27 -28 q-4 -3 -5 -4 q-16 -16 -98 -140 q21 4 61 9 q107 14 165 39 q4 1 11 5 q13 7 21 7 q89 -30 120 -80 q0 -11 -14 -20 q-14 -8 -18 -16 q-6 -11 -25 -56 q-158 -382 -263 -376 q-10 1 -13 18 q-3 14 -7 22 q-1 2 -3 7 q-13 34 -81 81 q-7 8 -1 22 q6 10 17 8 q6 -3 16 -10 q38 -26 76 -32 q104 13 204 328 q1 25 -20 24 q-162 -15 -216 -40 q-58 -32 -68 -32 q-38 16 -60 68 q-1 13 16 20 q60 44 112 172 q4 13 7 37 q3 17 5 26 q-53 -8 -140 -21 q-66 -10 -68 -10 q-26 2 -53 32 q-23 31 1 32 Z" /><glyph glyph-name="" unicode="&#x310f;" d="M335 696 l19 4 q293 14 380 51 q33 9 40 9 q40 -6 75 -48 q22 -31 -11 -40 q-18 -5 -82 3 q-12 1 -14 1 q-107 -4 -288 -32 q-4 -1 -12 -3 q-26 -7 -40 -7 q-15 -1 -36 16 q-1 -14 -1 -11 q-1 -512 -193 -663 q-11 -9 -23 -1 q-10 9 -3 23 q144 132 140 514 q0 5 0 17 q3 110 -16 187 q6 7 12 8 q19 1 53 -28 Z" /><glyph glyph-name="" unicode="&#x3110;" d="M704 608 l0 -588 q-9 -46 -32 -51 q-46 30 -60 75 q0 4 4 17 q24 73 24 167 l0 60 q-203 -87 -264 -124 q-8 -5 -20 -20 q-17 -20 -28 -20 q-46 29 -64 72 q0 12 16 29 q16 17 20 31 q17 100 20 264 q-1 53 -15 82 q-5 11 -5 18 q2 8 17 10 q80 -27 87 -66 q-1 -4 -6 -13 q-15 -22 -18 -47 q-3 -42 -13 -133 q-12 -114 -11 -135 q40 13 118 36 q110 32 166 53 l0 312 q0 60 -21 106 q-7 15 -7 21 q3 15 17 18 q103 -29 107 -62 q0 -6 -9 -18 q-27 -38 -23 -94 Z" /><glyph glyph-name="" unicode="&#x3111;" d="M232 300 l0 12 q296 272 308 440 q1 0 2 1 q13 13 22 7 q48 -36 76 -92 q4 -11 -8 -24 q-7 -6 -17 -8 q-12 -3 -19 -10 q-162 -198 -308 -314 q32 -15 109 -50 q381 -164 371 -234 q-1 -74 -68 -58 q-12 11 -34 32 q-112 118 -434 298 Z" /><glyph glyph-name="" unicode="&#x3112;" d="M535 464 l0 -155 q-1 -69 14 -251 q2 -28 2 -30 q-4 -39 -32 -48 q-46 30 -68 108 q0 8 5 23 q17 12 23 249 l0 269 q-162 -22 -212 -37 q-4 -1 -14 -5 q-20 -7 -30 -7 q-38 12 -64 68 q6 5 12 4 q162 0 520 72 q6 1 18 4 q28 8 42 8 q41 -3 78 -46 q28 -38 -6 -46 q-14 -3 -45 2 q-35 6 -59 6 q-60 0 -185 -15 q-5 -40 -1 -122 q2 -34 2 -51 Z" /><glyph glyph-name="" unicode="&#x3113;" d="M492 228 l0 19 q-115 -16 -136 -39 q-18 -20 -32 -20 q-44 19 -64 72 q0 7 10 15 q22 17 22 49 l0 161 q1 49 -31 124 q-9 22 -9 27 q64 23 116 -40 q-1 -7 -9 -19 q-13 -19 -11 -37 l0 -256 q75 3 144 14 l0 289 q1 78 -24 139 q-6 15 -8 22 q-5 15 3 19 q1 1 1 1 q64 9 120 -56 q0 -1 -4 -8 q-14 -26 -16 -40 q-10 -113 -12 -264 l0 -93 q12 2 37 6 q61 11 95 15 q8 1 22 -15 q5 16 6 31 q6 74 8 188 q0 37 -15 68 q-4 9 -5 12 q3 22 16 20 q86 -28 92 -60 q-1 -6 0 -6 q1 0 -3 -4 q0 -1 -1 -2 q-1 -1 -3 -3 q-21 -23 -21 -41 q-8 -264 -36 -316 l-13 0 q-35 45 -35 68 q0 1 0 2 q-70 -5 -144 -14 l0 -37 q-1 -55 3 -161 q105 14 209 30 q7 1 19 0 q6 0 9 0 q47 -2 78 -45 q24 -43 -18 -47 q-2 0 -8 2 q-72 14 -112 14 q-139 0 -476 -51 q-63 -9 -68 -9 q-22 2 -51 31 q-24 26 -9 33 q29 3 88 8 q172 14 262 24 q1 5 2 14 q14 109 12 166 Z" /><glyph glyph-name="" unicode="&#x3114;" d="M588 772 l10 0 q69 -51 76 -88 q0 -15 -25 -19 q-18 -3 -23 -9 q-166 -184 -366 -290 q-19 -9 -28 1 q-9 16 6 25 q233 156 328 332 q3 5 6 17 q5 21 16 31 ZM626 268 l0 -142 q-1 -161 -31 -180 q-46 11 -69 82 q0 2 5 12 q24 45 23 86 l0 136 q0 22 -1 43 q-179 -148 -329 -201 q-27 7 -12 28 q312 160 486 460 q2 3 4 12 q7 27 20 26 q39 -21 72 -72 q3 -6 0 -18 q-1 -8 -20 -13 q-16 -6 -20 -11 q-57 -81 -156 -172 q30 -17 40 -28 q10 -13 -7 -39 q-3 -6 -5 -9 Z" /><glyph glyph-name="" unicode="&#x3115;" d="M720 684 q7 36 -16 36 q-130 -6 -363 -45 q-37 -7 -41 -7 q-53 23 -72 84 q6 4 12 4 q65 -3 138 -2 q71 2 139 8 q134 13 223 42 q94 -41 104 -84 q-2 -9 -15 -17 q-32 4 -73 -151 q-16 -66 -49 -83 q-14 4 -25 25 q-52 -3 -153 -32 q-70 -20 -91 -20 q-15 0 -42 16 q-6 -328 -208 -514 q-11 -8 -25 2 q-11 10 -3 22 q156 181 152 452 q0 30 -10 80 q-4 21 -4 26 q15 26 76 -31 q65 5 198 40 q48 13 54 13 q17 1 52 -23 q6 23 18 65 q17 62 24 94 Z" /><glyph glyph-name="" unicode="&#x3116;" d="M737 628 l0 -119 q1 -50 5 -265 q3 -124 3 -132 q-3 -86 -48 -104 q-18 0 -38 36 l-30 0 q-48 11 -191 -14 q-58 -10 -73 -10 q-10 0 -30 19 q-10 10 -14 12 q-3 1 -8 6 q-3 2 -4 3 l0 -4 q-4 -55 -24 -72 q-42 20 -56 84 q0 5 5 15 q25 -9 35 313 l0 144 q0 37 -16 113 q-8 35 -8 43 q2 11 12 8 q2 -1 6 -4 q17 -12 26 -19 q304 33 376 79 q87 -27 108 -68 q0 -10 -15 -24 q-22 -21 -21 -40 ZM419 466 q-1 6 14 12 q3 1 4 2 q132 -84 136 -144 q1 -33 -26 -57 q-26 -18 -42 5 q-22 69 -67 140 q-20 32 -19 42 ZM309 92 l40 0 q80 -6 235 24 q19 4 21 4 q20 -1 47 -17 q2 11 7 36 q21 107 18 157 l0 177 q1 130 -8 163 q-12 34 -52 32 q-69 1 -272 -48 q-1 0 -20 12 l0 -73 q2 -169 -12 -399 q-4 -53 -4 -68 Z" /><glyph glyph-name="" unicode="&#x3117;" d="M417 464 l0 -401 q-7 -77 -36 -97 q-34 25 -44 82 q0 12 5 50 q12 67 15 222 l0 165 q0 86 -13 152 q-4 0 -7 -1 q-15 -4 -41 -11 q-34 -10 -43 -9 q-47 14 -65 75 q3 5 9 5 q257 7 452 60 q3 1 8 3 q23 9 36 9 q89 -33 120 -92 q0 -9 -16 -21 q-17 -12 -20 -23 q-98 -352 -196 -364 q-10 0 -17 21 q-6 16 -11 23 q-1 2 -3 4 q-9 18 -73 60 q-22 12 -22 25 q1 16 20 19 q6 -3 20 -9 q64 -28 74 -27 q78 -6 128 268 q4 32 -44 36 q-63 -1 -270 -43 q47 -44 50 -73 q0 -7 -4 -18 q-12 -31 -12 -90 Z" /><glyph glyph-name="" unicode="&#x3118;" d="M831 468 l-72 0 q-117 3 -227 -17 q-11 -45 -33 -133 q-10 -44 -16 -66 l0 -8 q44 7 121 26 q29 7 43 10 q2 1 7 4 q30 16 37 16 q39 -14 84 -64 q5 -6 4 -13 q-1 -2 -1 -4 q0 -9 -26 -21 q-14 -7 -17 -10 q-3 -4 -26 -41 q-81 -136 -122 -179 q-15 -15 -29 -10 q-15 10 -7 26 q51 73 92 192 q15 41 -16 40 q-126 -11 -156 -40 q-6 -4 -19 -14 q-27 -20 -33 -18 q-37 16 -51 63 q0 12 17 25 q31 25 42 60 q14 43 36 144 q-71 -15 -167 -48 q-9 -3 -13 -4 q-2 -1 -8 -3 q-26 -9 -40 -9 q-19 0 -67 60 q-7 9 -9 12 q-4 5 -3 9 q2 3 7 3 q68 0 313 41 q23 115 23 179 q0 40 -18 78 q-2 5 -2 6 q0 1 0 2 q2 15 8 14 q129 -23 136 -48 q-1 -11 -4 -16 q-4 -5 -16 -15 q-11 -10 -12 -13 q-4 -15 -11 -45 q-21 -85 -33 -130 q128 24 168 35 q5 1 16 5 q21 7 32 7 q34 -3 69 -44 q25 -35 -1 -44 Z" /><glyph glyph-name="" unicode="&#x3119;" d="M451 747 q20 14 65 -39 q48 -50 32 -80 q-3 -7 -22 -39 q-8 -13 -10 -17 q-24 -42 -113 -192 q-131 -222 -163 -280 q163 17 360 40 q87 6 88 10 q-8 30 -40 103 q-19 44 -24 59 q-4 12 2 17 q7 5 18 -1 q85 -60 160 -212 q56 -137 -32 -148 q-40 0 -53 81 q-5 34 -11 39 q-182 -20 -384 -54 q-15 -2 -47 -15 q-43 -18 -57 -13 q-50 35 -68 94 q-1 19 32 52 q6 6 8 8 q105 136 240 432 q5 12 9 37 q3 32 1 47 q-10 57 9 71 Z" /><glyph glyph-name="" unicode="&#x311a;" d="M545 440 l-6 -170 l0 -224 q-8 -72 -38 -86 q-47 28 -60 76 q-1 9 11 48 q26 80 26 126 l4 214 q-4 58 -27 81 q-42 45 -230 168 q-42 29 -9 73 q25 23 73 -7 q33 -21 155 -159 q66 -74 70 -74 q115 106 174 201 q9 15 16 39 q5 25 17 23 q54 -13 91 -81 q0 -14 -22 -21 q-15 -5 -20 -10 q-26 -22 -70 -59 q-183 -151 -155 -158 Z" /><glyph glyph-name="" unicode="&#x311b;" d="M538 596 l0 -64 q1 -27 12 -68 q7 -27 8 -40 q-6 -21 -40 -32 q-6 0 -16 3 q-19 5 -44 5 q-163 -10 -172 -180 q13 -169 192 -184 q78 -1 107 13 q31 12 69 63 q15 29 39 16 q20 -18 5 -48 q-60 -120 -220 -120 q-241 20 -256 264 q14 222 260 232 q0 16 -1 48 q2 106 -18 160 q-4 0 -11 -1 q-81 -8 -98 -11 q-10 -1 -44 -8 q-61 -12 -76 -12 q-36 11 -72 64 q0 8 4 12 q300 7 508 44 q10 2 32 7 q36 9 52 9 q39 -5 73 -51 q22 -36 -17 -37 q-4 0 -19 2 q-35 6 -53 6 q-73 -2 -227 -18 q39 -18 39 -34 q0 -10 -10 -27 q-4 -9 -6 -13 Z" /><glyph glyph-name="" unicode="&#x311c;" d="M490 404 l0 28 q0 51 -2 101 q-80 -9 -196 -30 q-59 -11 -70 -11 q-37 13 -64 60 q0 18 16 20 q71 -5 143 -1 q66 3 169 18 q-2 36 -7 110 q-1 11 -1 17 q-1 8 -14 45 q-6 17 -6 19 q-1 20 47 8 q57 -16 61 -36 q0 -8 -9 -21 q-10 -14 -11 -23 q0 -7 0 -20 q-2 -64 -2 -91 q54 8 114 15 q9 1 31 5 q37 7 53 7 q80 -14 100 -72 q-2 -20 -16 -20 q-11 1 -33 4 q-56 8 -107 8 q-74 0 -140 -5 q3 -94 18 -148 q2 -8 2 -11 q-5 -37 -40 -44 q-2 0 -15 1 q-33 3 -49 3 q-144 -7 -152 -144 q10 -156 184 -164 q96 -2 140 44 q21 32 37 13 q12 -24 -9 -57 q-66 -89 -180 -96 q-216 26 -240 244 q15 208 248 224 Z" /><glyph glyph-name="" unicode="&#x311d;" d="M417 402 l0 -171 q0 -105 33 -144 q31 -40 115 -39 q42 0 84 8 q16 3 24 4 q51 -13 72 -68 q7 -29 -104 -28 q-183 -2 -237 72 q-29 37 -40 104 q-11 63 -7 184 l0 69 q-4 -1 -12 -2 q-9 -1 -24 -3 q-42 -6 -89 -21 q-21 -7 -27 -7 q-56 22 -68 64 q115 11 220 26 l0 211 q1 21 -12 58 q-3 7 -4 10 q-4 23 12 23 q70 -9 100 -49 q0 -2 0 -5 q2 -1 -4 -11 q-2 -3 -7 -9 q-25 -28 -25 -94 l0 -126 q9 1 26 4 q113 18 162 27 q12 91 12 159 q-2 36 -16 96 q1 15 12 16 q57 -7 104 -40 q4 -4 4 -14 q0 -1 0 -2 q0 -4 -10 -16 q-12 -15 -14 -24 q-9 -82 -26 -165 q86 17 114 17 q44 -6 74 -52 q16 -36 -26 -44 q-12 1 -53 9 q-32 7 -39 7 q-39 0 -86 -4 q-47 -186 -106 -288 q-8 -9 -16 -6 q-9 5 -9 15 q46 134 71 273 q-76 -9 -178 -24 Z" /><glyph glyph-name="" unicode="&#x311e;" d="M308 624 l12 8 q48 -26 72 -64 q4 -10 -4 -20 q-5 -7 -21 -16 q-9 -5 -11 -8 q-6 -10 -16 -30 q-31 -60 -56 -94 q-1 0 22 3 q116 13 170 22 q34 121 40 256 q-80 -11 -194 -36 q-41 -9 -46 -9 q-66 23 -68 84 l52 0 q373 16 431 52 q26 8 33 8 q35 -9 70 -54 q21 -33 -6 -42 q-7 1 -28 2 q-74 6 -84 6 q-60 0 -118 -6 q70 -45 70 -66 q0 -7 -9 -14 q-23 -18 -31 -62 q-11 -54 -29 -106 q125 22 133 26 q5 2 13 6 q19 10 31 10 q47 -21 92 -72 q5 -7 5 -14 q0 -1 0 -2 q0 -12 -15 -22 q-18 -11 -26 -26 q-54 -185 -196 -340 q-49 -40 -61 -15 q143 174 177 375 q-7 41 -36 40 q-51 -6 -136 -19 q-139 -330 -336 -421 q-22 2 -12 24 q179 134 267 385 q-148 -24 -179 -37 q-15 -5 -39 -23 q-16 -13 -21 -13 q-37 20 -52 76 q1 16 20 24 q38 -14 112 164 q2 7 4 30 q2 23 4 30 Z" /><glyph glyph-name="" unicode="&#x311f;" d="M148 691 q4 15 32 13 q241 18 288 48 q2 1 7 5 q14 11 21 11 q83 -26 111 -65 q0 -1 0 -4 q1 -9 -4 -14 q-4 -4 -14 -11 q-28 -20 -25 -34 q50 -498 254 -578 q32 -27 34 -34 q7 -33 -30 -50 q-42 -16 -74 6 q-248 214 -244 672 q1 45 -32 40 q-74 -15 -195 -49 q-54 -15 -61 -15 q-54 28 -68 59 Z" /><glyph glyph-name="" unicode="&#x3120;" d="M295 372 l218 -8 q144 187 134 232 q8 16 20 14 q65 -49 88 -90 q-4 -12 -12 -20 q-6 -4 -26 -11 q-21 -8 -26 -13 q-221 -261 -380 -412 q88 19 250 56 q70 17 106 25 q-20 39 -38 67 q-25 37 -22 51 q5 14 32 -4 q166 -142 180 -219 q0 -52 -47 -61 q-41 -1 -55 53 q-7 27 -31 76 q-353 -101 -419 -164 q-4 -4 -20 -4 q-12 -2 -64 100 q-5 14 4 24 q5 2 23 8 q41 12 55 22 q81 67 213 226 q-26 -3 -65 -7 q-92 -5 -170 -37 q-33 15 -58 90 q0 17 27 23 q38 10 59 31 q210 215 206 328 q3 12 16 20 q48 -19 90 -72 q5 -10 -4 -20 q-11 -11 -32 -20 q-163 -200 -252 -280 q-3 -1 -3 -3 q0 -1 3 -1 Z" /><glyph glyph-name="" unicode="&#x3121;" d="M219 708 l48 0 q337 17 346 60 q13 8 18 8 q105 -50 104 -84 q1 -9 -15 -19 q-1 -1 -1 -1 q-2 -1 -5 -4 q-13 -8 -15 -16 q-41 -159 -118 -295 q237 -244 234 -317 q-8 -43 -43 -51 q-34 -1 -73 67 q-67 109 -161 227 q-109 -162 -255 -267 q-67 -47 -92 -36 q-10 11 0 20 q173 115 300 341 q-95 113 -192 211 q-20 19 -19 34 q5 17 23 6 q89 -53 224 -181 q47 95 80 213 q21 73 -54 54 q-4 -2 -6 -2 q-196 -42 -272 -52 q-43 17 -68 60 q-10 23 12 24 Z" /><glyph glyph-name="" unicode="&#x3122;" d="M375 655 l0 1 q-2 0 -4 0 q-30 -6 -67 31 q-41 48 -13 53 l128 0 q137 3 242 42 q5 2 6 2 q71 -17 120 -80 q5 -18 -8 -28 q-2 -2 -9 -5 q-19 -9 -23 -15 q-13 -18 -44 -69 q-44 -73 -68 -103 q-9 -9 -22 -9 q-18 2 -18 9 q65 135 72 204 q-3 25 -16 24 q-76 -3 -217 -43 q-18 -5 -26 -7 q50 -54 51 -86 q0 -14 -18 -31 q-15 -14 -22 -25 q-20 -31 -67 -90 q-38 -49 -49 -66 q-2 -4 -8 -10 q-11 -13 -12 -22 q228 22 356 52 q15 3 40 19 q16 9 20 9 q84 -44 110 -86 q0 -4 1 -8 q3 -2 -5 -10 q-5 -6 -18 -13 q-21 -11 -26 -23 q-95 -205 -174 -296 q-13 -16 -27 -11 q-14 9 -9 27 q79 143 110 264 q0 2 2 7 q18 61 -12 61 q-261 -37 -320 -48 q-19 -5 -50 -17 q-15 -7 -18 -7 q-39 9 -72 76 q0 11 23 22 q13 6 17 10 q132 156 144 295 Z" /><glyph glyph-name="" unicode="&#x3123;" d="M225 772 q0 12 12 16 q69 -16 120 -56 q8 -7 8 -18 q0 -1 0 -2 q0 -5 -14 -20 q-16 -16 -18 -24 q-12 -36 -36 -288 q329 34 376 56 q3 1 11 8 q17 12 25 12 q57 -26 102 -74 q8 -13 0 -26 q-4 -5 -19 -16 q-10 -8 -15 -12 q-91 -321 -144 -372 q-25 -13 -28 8 q73 209 80 348 q5 48 -44 44 q-241 -6 -348 -52 q-3 -2 -9 -7 q-8 -9 -15 -9 q-48 19 -84 72 q0 9 17 25 q20 21 23 35 q26 151 20 260 q0 17 -16 76 q-4 15 -4 16 Z" /><glyph glyph-name="" unicode="&#x3124;" d="M542 324 l0 -200 q0 -45 20 -61 q17 -16 72 -15 q59 0 118 20 q24 8 34 8 q51 -14 65 -60 q-4 -36 -139 -39 l-132 0 q-101 4 -102 94 l0 245 q2 39 -15 81 q-4 8 -5 12 q-65 -303 -284 -453 q-14 -4 -21 3 q-6 8 1 21 q199 174 241 473 q-68 -15 -146 -37 q-14 -4 -15 -4 q-25 4 -56 32 q-21 22 -12 36 q139 14 236 30 q8 76 8 166 q0 22 -11 65 q-4 17 -5 23 q1 17 12 20 q4 -1 15 -4 q103 -25 93 -48 q-2 -5 -9 -14 q-10 -13 -11 -22 q-5 -92 -16 -173 q100 18 189 43 q20 6 23 6 q53 -14 74 -61 q6 -29 -54 -27 q-105 4 -241 -18 q-3 -15 -5 -31 q95 -16 110 -43 q1 -15 -14 -29 q-18 -17 -18 -39 Z" /><glyph glyph-name="" unicode="&#x3125;" d="M592 758 q4 16 24 14 q45 -22 100 -88 q8 -12 -5 -26 q-1 -1 -11 -6 q-14 -7 -18 -10 q-177 -291 -390 -570 q313 13 401 29 q21 3 23 3 q40 -3 76 -47 q28 -42 0 -57 q-6 1 -19 4 q-120 25 -233 20 q-230 -6 -259 -44 q-10 -8 -17 -11 q-16 -11 -24 -1 q-32 44 -44 89 q-4 16 4 22 q6 4 17 10 q16 8 23 15 q226 251 352 588 q3 6 0 66 Z" /><glyph glyph-name="" unicode="&#x3126;" d="M308 660 q-3 20 10 22 q91 -17 112 -56 q0 -1 0 -3 q1 -6 -1 -9 q-3 -7 -11 -19 q-8 -10 -8 -13 q20 -447 -233 -631 q-12 -10 -25 -2 q-10 9 0 21 q199 187 186 550 q-1 75 -25 124 q-5 12 -5 16 ZM596 617 l0 -361 q3 -186 152 -196 q11 0 28 6 q6 2 8 2 q46 -8 70 -54 q-1 -43 -70 -46 q-241 13 -248 288 l0 387 q-2 38 -20 74 q-8 17 -8 25 q-3 17 16 19 q68 -17 104 -66 q0 -2 0 -4 q1 -12 -3 -17 q0 0 -2 -3 q-27 -28 -27 -54 Z" /><glyph glyph-name="" unicode="&#x3127;" d="M536 684 l0 -496 q-1 -29 1 -72 q0 -39 0 -65 q-3 -100 -41 -101 q-30 25 -53 125 q0 6 8 18 q14 23 13 43 q5 106 6 169 q2 66 2 159 l0 192 q1 53 -23 119 q-7 17 -7 21 q3 17 15 19 q75 -20 102 -69 q0 -2 0 -5 q1 -7 -2 -10 q-21 -28 -21 -47 Z" /><glyph glyph-name="" unicode="&#x3128;" d="M187 -36 q-14 -3 -20 6 q-5 9 4 19 q179 146 312 348 q-127 131 -276 255 q-10 10 -6 18 q5 8 18 6 q147 -91 302 -220 q124 216 126 376 q-1 19 18 22 q44 -18 98 -74 q8 -9 1 -25 q-1 -2 -1 -3 q-2 -4 -9 -10 q-16 -14 -23 -34 q-45 -140 -154 -299 q252 -224 258 -321 q-3 -40 -38 -53 q-31 -7 -50 29 q-75 130 -216 282 q-167 -214 -344 -322 Z" /><glyph glyph-name="" unicode="&#x3129;" d="M770 656 l0 -93 q0 -118 26 -369 q10 -90 10 -106 q-2 -57 -24 -104 q-4 -7 -14 -8 q-2 0 -2 0 q-43 19 -60 88 q0 2 0 6 q-1 4 -1 6 q-206 -29 -343 -57 q-48 -9 -76 -37 q-14 -14 -28 -14 q-32 11 -64 83 q-1 16 16 29 q13 10 21 19 q63 146 71 480 q0 77 -23 122 q-6 10 -6 15 q-4 21 16 24 q113 -40 117 -80 q0 -7 -8 -13 q-12 -11 -16 -31 q-27 -338 -92 -524 q224 11 413 22 q-1 38 -2 135 q1 308 -27 407 q-7 34 -40 76 q-2 17 12 24 q101 -16 136 -48 q4 -4 4 -12 q0 -6 -8 -20 q-8 -14 -8 -20 Z" /><glyph glyph-name="" unicode="&#x3220;" d="M160 320 l677 0 l0 67 l-677 0 l0 -67 ZM151 811 l60 0 q-132 -193 -130 -465 q-2 -257 130 -459 l-60 0 q-138 189 -138 460 q1 273 138 464 ZM789 811 l61 0 q136 -193 137 -463 q0 -268 -137 -461 l-61 0 q132 203 130 460 q2 272 -130 464 Z" /><glyph glyph-name="" unicode="&#x3221;" d="M233 618 l0 -67 l534 0 l0 67 l-534 0 ZM166 147 l0 -66 l668 0 l0 66 l-668 0 ZM151 811 l60 0 q-132 -193 -130 -465 q-2 -257 130 -459 l-60 0 q-138 189 -138 460 q1 273 138 464 ZM789 811 l61 0 q136 -193 137 -463 q0 -268 -137 -461 l-61 0 q132 203 130 460 q2 272 -130 464 Z" /><glyph glyph-name="" unicode="&#x3222;" d="M217 578 l567 0 l0 65 l-567 0 l0 -65 ZM163 57 l675 0 l0 65 l-675 0 l0 -65 ZM268 334 l462 0 l0 65 l-462 0 l0 -65 ZM151 811 l60 0 q-132 -193 -130 -465 q-2 -257 130 -459 l-60 0 q-138 189 -138 460 q1 273 138 464 ZM789 811 l61 0 q136 -193 137 -463 q0 -268 -137 -461 l-61 0 q132 203 130 460 q2 272 -130 464 Z" /><glyph glyph-name="" unicode="&#x3223;" d="M208 37 l66 0 l0 62 l450 0 l0 -62 l66 0 l0 598 l-582 0 l0 -598 ZM456 454 l0 123 l85 0 l0 -240 q1 -82 83 -86 q49 -2 87 1 q2 36 9 63 q-53 -5 -83 -3 q-31 3 -33 37 l0 228 l120 0 l0 -417 l-450 0 l0 417 l118 0 l0 -116 q5 -146 -115 -203 q21 -12 46 -41 q135 78 133 237 ZM151 811 l60 0 q-132 -193 -130 -465 q-2 -257 130 -459 l-60 0 q-138 189 -138 460 q1 273 138 464 ZM789 811 l61 0 q136 -193 137 -463 q0 -268 -137 -461 l-61 0 q132 203 130 460 q2 272 -130 464 Z" /><glyph glyph-name="" unicode="&#x3224;" d="M207 591 l223 0 l-29 -177 l-145 0 l0 -61 l135 0 l-40 -245 l-189 0 l0 -63 l675 0 l0 63 l-122 0 l0 306 l-244 0 l30 177 l291 0 l0 63 l-585 0 l0 -63 ZM648 353 l0 -245 l-228 0 l41 245 l187 0 ZM151 811 l60 0 q-132 -193 -130 -465 q-2 -257 130 -459 l-60 0 q-138 189 -138 460 q1 273 138 464 ZM789 811 l61 0 q136 -193 137 -463 q0 -268 -137 -461 l-61 0 q132 203 130 460 q2 272 -130 464 Z" /><glyph glyph-name="" unicode="&#x3225;" d="M536 517 l54 48 q-56 67 -128 123 l-63 -36 q73 -60 137 -135 ZM180 423 l649 0 l0 64 l-649 0 l0 -64 ZM437 301 l-63 30 q-74 -157 -201 -275 q41 -12 68 -34 q120 118 196 279 ZM776 19 l53 52 q-97 149 -197 263 l-62 -32 q100 -116 206 -283 ZM151 811 l60 0 q-132 -193 -130 -465 q-2 -257 130 -459 l-60 0 q-138 189 -138 460 q1 273 138 464 ZM789 811 l61 0 q136 -193 137 -463 q0 -268 -137 -461 l-61 0 q132 203 130 460 q2 272 -130 464 Z" /><glyph glyph-name="" unicode="&#x3226;" d="M168 309 l240 39 l0 -216 q-1 -112 114 -110 l166 0 q93 -1 116 86 q9 22 14 55 q-34 12 -61 42 q-7 -39 -16 -67 q-13 -50 -63 -49 l-147 0 q-53 -2 -51 49 l0 221 l363 58 l-12 63 l-351 -57 l0 250 l-72 0 l0 -261 l-252 -40 l12 -63 ZM151 811 l60 0 q-132 -193 -130 -465 q-2 -257 130 -459 l-60 0 q-138 189 -138 460 q1 273 138 464 ZM789 811 l61 0 q136 -193 137 -463 q0 -268 -137 -461 l-61 0 q132 203 130 460 q2 272 -130 464 Z" /><glyph glyph-name="" unicode="&#x3227;" d="M424 631 l-70 12 q-3 -423 -218 -588 q38 -11 72 -37 q207 178 216 613 ZM628 677 l-71 -10 q20 -441 234 -645 q28 29 75 48 q-224 178 -238 607 ZM151 811 l60 0 q-132 -193 -130 -465 q-2 -257 130 -459 l-60 0 q-138 189 -138 460 q1 273 138 464 ZM789 811 l61 0 q136 -193 137 -463 q0 -268 -137 -461 l-61 0 q132 203 130 460 q2 272 -130 464 Z" /><glyph glyph-name="" unicode="&#x3228;" d="M701 31 l52 0 q83 -3 98 91 q6 28 9 53 q-30 9 -57 38 q-1 -7 -4 -20 q-5 -31 -9 -51 q-9 -46 -45 -45 l-34 0 q-43 -1 -40 45 l17 396 l-210 0 q3 90 3 151 l-72 4 q0 -91 -3 -155 l-186 0 l0 -63 l183 0 q-13 -299 -250 -418 q38 -16 65 -45 q238 128 256 463 l141 0 l-14 -328 q-9 -121 100 -116 ZM151 811 l60 0 q-132 -193 -130 -465 q-2 -257 130 -459 l-60 0 q-138 189 -138 460 q1 273 138 464 ZM789 811 l61 0 q136 -193 137 -463 q0 -268 -137 -461 l-61 0 q132 203 130 460 q2 272 -130 464 Z" /><glyph glyph-name="" unicode="&#x3229;" d="M163 345 l301 0 l0 -338 l71 0 l0 338 l303 0 l0 67 l-303 0 l0 277 l-71 0 l0 -277 l-301 0 l0 -67 ZM151 811 l60 0 q-132 -193 -130 -465 q-2 -257 130 -459 l-60 0 q-138 189 -138 460 q1 273 138 464 ZM789 811 l61 0 q136 -193 137 -463 q0 -268 -137 -461 l-61 0 q132 203 130 460 q2 272 -130 464 Z" /><glyph glyph-name="" unicode="&#x4e00;" d="M65 341 l0 79 l868 0 l0 -79 l-868 0 Z" /><glyph glyph-name="" unicode="&#x4e01;" d="M84 636 l0 77 l826 0 l0 -77 l-360 0 l0 -585 q1 -135 -137 -134 q-38 0 -89 7 q-4 45 -23 81 q56 -9 99 -10 q72 -2 70 67 l0 574 l-386 0 Z" /><glyph glyph-name="" unicode="&#x4e03;" d="M62 318 l-14 71 l334 54 l0 347 l81 0 l0 -334 l469 75 l15 -71 l-484 -79 l0 -299 q-1 -65 67 -64 l209 0 q67 0 84 65 q11 39 19 85 q29 -33 70 -49 q-8 -38 -17 -70 q-29 -108 -144 -107 l-229 0 q-143 -3 -140 134 l0 293 l-320 -51 Z" /><glyph glyph-name="" unicode="&#x4e07;" d="M72 646 l0 72 l855 0 l0 -72 l-508 0 q-2 -120 -7 -188 l402 0 l-17 -375 q-6 -155 -154 -155 q-28 0 -94 5 q-4 0 -6 0 q-1 42 -19 81 q60 -11 108 -11 q83 0 86 90 l12 295 l-325 0 q-30 -317 -260 -483 q-29 31 -76 46 q249 165 263 498 q6 108 7 197 l-267 0 Z" /><glyph glyph-name="" unicode="&#x4e08;" d="M888 -83 q-259 68 -406 180 q-122 -109 -362 -189 q-20 36 -60 65 q244 75 362 176 q-109 101 -196 266 l61 46 q83 -156 190 -254 q92 110 100 294 q0 9 1 20 l-492 0 l0 74 l494 0 q1 37 1 86 q0 24 0 51 q0 25 0 65 l80 -7 q0 -71 0 -112 q0 -47 -1 -83 l244 0 l0 -74 l-247 0 q0 -5 -1 -16 q0 -10 0 -14 q-13 -209 -117 -334 q150 -111 412 -162 q-35 -26 -63 -78 Z" /><glyph glyph-name="" unicode="&#x4e09;" d="M131 632 l0 75 l737 0 l0 -75 l-737 0 ZM60 -40 l0 75 l878 0 l0 -75 l-878 0 ZM196 318 l0 74 l603 0 l0 -74 l-603 0 Z" /><glyph glyph-name="" unicode="&#x4e0a;" d="M61 -58 l0 74 l366 0 l0 779 l82 0 l0 -304 l344 0 l0 -71 l-344 0 l0 -404 l429 0 l0 -74 l-877 0 Z" /><glyph glyph-name="" unicode="&#x4e0b;" d="M70 655 l0 72 l858 0 l0 -72 l-407 0 l0 -751 l-82 0 l0 751 l-369 0 ZM812 187 q-114 116 -270 240 l64 43 q145 -110 255 -217 l-49 -66 Z" /><glyph glyph-name="" unicode="&#x4e0d;" d="M89 654 l0 71 l829 0 l0 -71 l-333 0 q-31 -86 -88 -176 l44 0 l0 -574 l-79 0 l0 521 q-132 -179 -344 -306 q-30 37 -72 51 q337 193 453 484 l-410 0 ZM893 112 q-138 145 -308 287 l63 43 q176 -140 294 -264 l-49 -66 Z" /><glyph glyph-name="" unicode="&#x4e0e;" d="M691 -88 q-40 0 -102 8 q-5 48 -19 78 q66 -12 112 -12 q92 -2 95 96 l15 276 l-572 0 l37 437 l78 -5 l-10 -126 l570 0 l0 -69 l-576 0 l-15 -168 l570 0 l-19 -355 q-9 -160 -164 -160 ZM74 132 l0 70 l631 0 l0 -70 l-631 0 Z" /><glyph glyph-name="" unicode="&#x4e10;" d="M82 673 l0 67 l835 0 l0 -67 l-382 0 l0 -140 l312 0 l0 -66 l-312 0 l0 -142 l332 0 l-19 -259 q-8 -151 -169 -149 q-54 0 -119 8 q0 40 -22 75 q73 -10 137 -10 q93 -3 96 88 l15 179 l-621 0 l35 338 l76 -8 l-29 -262 l213 0 l0 348 l-378 0 Z" /><glyph glyph-name="" unicode="&#x4e11;" d="M175 319 l0 70 l193 0 l22 271 l-233 0 l0 71 l658 0 l-27 -717 l155 0 l0 -72 l-888 0 l0 72 l281 0 l26 305 l-187 0 ZM441 319 l-25 -305 l293 0 l12 305 l-280 0 ZM733 660 l-263 0 l-23 -271 l275 0 l11 271 Z" /><glyph glyph-name="" unicode="&#x4e13;" d="M141 599 l0 69 l274 0 q1 4 3 11 q22 86 29 127 l79 -21 q-8 -43 -30 -117 l363 0 l0 -69 l-383 0 q-18 -63 -40 -123 l495 0 l0 -69 l-520 0 q-34 -85 -49 -115 l440 0 l0 -58 q-66 -102 -177 -214 q61 -23 124 -53 l-22 -73 q-219 101 -456 176 l36 62 q107 -31 244 -83 q90 88 155 177 l-432 0 l0 59 q26 50 54 122 l-262 0 l0 69 l288 0 q21 60 40 123 l-253 0 Z" /><glyph glyph-name="" unicode="&#x4e14;" d="M54 -58 l0 71 l179 0 l0 729 l532 0 l0 -729 l180 0 l0 -71 l-891 0 ZM312 189 l0 -176 l373 0 l0 176 l-373 0 ZM312 430 l0 -173 l373 0 l0 173 l-373 0 ZM312 671 l0 -173 l373 0 l0 173 l-373 0 Z" /><glyph glyph-name="" unicode="&#x4e16;" d="M52 444 l0 72 l141 0 l0 254 l79 0 l0 -254 l176 0 l0 275 l78 0 l0 -275 l176 0 l0 275 l78 0 l0 -275 l165 0 l0 -72 l-165 0 l0 -295 l-332 0 l0 295 l-176 0 l0 -430 l627 0 l0 -72 l-706 0 l0 502 l-141 0 ZM526 220 l176 0 l0 224 l-176 0 l0 -224 Z" /><glyph glyph-name="" unicode="&#x4e18;" d="M51 -55 l0 73 l170 0 l0 681 q336 9 558 63 l48 -66 q-211 -47 -528 -62 l0 -214 l587 0 l0 -71 l-182 0 l0 -331 l243 0 l0 -73 l-896 0 ZM299 349 l0 -331 l325 0 l0 331 l-325 0 Z" /><glyph glyph-name="" unicode="&#x4e19;" d="M66 675 l0 69 l868 0 l0 -69 l-394 0 q-1 -74 -5 -138 l321 0 l0 -487 q0 -134 -135 -134 q-39 0 -83 5 q-4 40 -21 75 q47 -9 90 -9 q73 0 73 71 l0 411 l-251 0 q-6 -61 -21 -111 l35 20 q111 -107 204 -226 l-52 -58 q-98 129 -198 232 q-46 -131 -198 -245 q-25 31 -66 46 q203 135 221 342 l-237 0 l0 -565 l-75 0 l0 633 l318 0 q0 8 1 25 q4 69 5 113 l-400 0 Z" /><glyph glyph-name="" unicode="&#x4e1a;" d="M56 -48 l0 72 l292 0 l0 767 l78 0 l0 -767 l147 0 l0 767 l77 0 l0 -767 l293 0 l0 -72 l-887 0 ZM737 204 q-29 19 -74 24 q102 184 157 357 l72 -32 q-59 -183 -155 -349 ZM246 209 q-67 184 -151 354 l78 17 q83 -164 142 -328 l-69 -43 Z" /><glyph glyph-name="" unicode="&#x4e1b;" d="M888 80 q-165 142 -219 355 q-50 -226 -226 -362 q-28 29 -74 44 q229 159 247 453 q6 122 6 226 l74 -4 q0 -66 -4 -184 q50 -325 268 -473 q-36 -16 -72 -55 ZM451 266 q-53 78 -126 165 q-48 -209 -209 -347 q-32 30 -73 44 q202 150 227 430 q9 113 9 238 l75 -5 q-2 -126 -11 -247 q-1 -13 -3 -25 q105 -120 165 -201 l-54 -52 ZM72 -58 l0 73 l854 0 l0 -73 l-854 0 Z" /><glyph glyph-name="" unicode="&#x4e1c;" d="M84 591 l0 70 l278 0 q50 101 68 148 l75 -30 q-26 -60 -56 -118 l467 0 l0 -70 l-503 0 q-64 -121 -140 -226 l228 0 l0 159 l77 0 l0 -159 l274 0 l0 -70 l-274 0 l0 -260 q1 -128 -120 -126 q-31 0 -97 10 q-2 40 -19 78 q65 -13 101 -13 q60 -3 58 67 l0 244 l-326 0 l0 67 q73 88 150 229 l-241 0 ZM140 -58 q-39 28 -75 38 q141 106 223 246 l66 -35 q-84 -144 -214 -249 ZM891 -55 q-111 132 -220 233 l64 37 q129 -118 210 -216 l-54 -54 Z" /><glyph glyph-name="" unicode="&#x4e1d;" d="M546 127 l-34 66 q38 13 68 48 q57 62 135 172 l-133 -11 q-36 -4 -60 -13 l-32 59 q32 15 54 45 q93 130 174 302 l68 -30 q-94 -186 -178 -298 l152 11 q54 83 81 132 l64 -36 q-110 -182 -254 -359 l217 22 l19 -64 l-266 -28 q-44 -5 -75 -18 ZM157 129 l-37 65 q37 13 70 51 q56 61 125 164 l-128 -10 q-31 -2 -61 -13 l-32 59 q35 19 55 46 q96 137 174 303 l67 -30 q-100 -197 -178 -298 l146 9 q7 12 20 35 q41 67 60 103 l64 -33 q-122 -212 -242 -361 l207 26 l19 -62 l-257 -35 q-31 -4 -72 -19 ZM58 -51 l0 72 l883 0 l0 -72 l-883 0 Z" /><glyph glyph-name="" unicode="&#x4e22;" d="M186 649 q-10 33 -40 67 q372 2 636 48 l46 -65 q-128 -20 -292 -33 l0 -143 l283 0 l0 -67 l-283 0 l0 -143 l387 0 l0 -68 l-449 0 q-72 -104 -181 -214 l405 20 q-68 77 -108 118 l63 31 q127 -123 222 -245 l-50 -55 q-15 21 -51 63 q-13 16 -20 24 l-490 -27 q-51 -5 -84 -14 l-33 65 q42 12 85 58 q89 87 153 176 l-310 0 l0 68 l386 0 l0 143 l-281 0 l0 67 l281 0 l0 137 q-151 -9 -275 -11 Z" /><glyph glyph-name="" unicode="&#x4e24;" d="M84 675 l0 69 l833 0 l0 -69 l-260 0 q-2 -93 -4 -150 l211 0 l0 -485 q0 -129 -120 -129 q-43 0 -81 5 q-3 39 -21 74 q52 -7 87 -7 q62 -2 60 66 l0 409 l-140 0 q-5 -72 -12 -105 q82 -101 148 -201 l-55 -46 q-46 73 -109 165 q-29 -114 -96 -215 q-31 19 -76 22 q117 144 129 380 l-157 0 q-4 -50 -11 -92 q53 -53 114 -121 l-50 -49 q-7 8 -21 25 q-38 46 -59 69 q-29 -114 -103 -211 q-34 17 -75 23 q117 130 131 356 l-135 0 l0 -551 l-76 0 l0 618 l215 0 q3 70 3 150 l-270 0 ZM427 675 q0 -58 0 -88 q-1 -35 -2 -62 l156 0 q1 27 2 61 q0 16 0 36 q0 18 0 53 l-156 0 Z" /><glyph glyph-name="" unicode="&#x4e25;" d="M147 681 l0 65 l755 0 l0 -65 l-251 0 l0 -250 l271 0 l0 -66 l-691 0 l0 -63 q3 -243 -124 -396 q-30 23 -71 35 q125 136 121 368 l0 122 l240 0 l0 250 l-250 0 ZM468 681 l0 -250 l113 0 l0 250 l-113 0 ZM760 461 q-29 18 -66 26 q65 84 104 162 l65 -30 q-52 -94 -103 -158 ZM281 463 q-37 72 -102 156 l68 24 q53 -68 93 -139 l-59 -41 Z" /><glyph glyph-name="" unicode="&#x4e27;" d="M134 618 l0 66 l326 0 l0 112 l76 0 l0 -112 l327 0 l0 -66 l-327 0 l0 -239 l398 0 l0 -66 l-411 0 q37 -88 95 -152 q106 64 177 131 l61 -45 q-79 -69 -188 -135 q104 -88 283 -132 q-36 -22 -62 -67 q-331 96 -444 400 l-149 0 l0 -293 l157 82 l41 -54 l-205 -113 q-32 -18 -57 -40 l-38 64 q29 27 27 78 l0 276 l-157 0 l0 66 l396 0 l0 239 l-326 0 ZM662 399 q-18 14 -50 31 q-7 3 -10 5 q78 73 138 157 l61 -36 q-58 -83 -139 -157 ZM332 397 q-68 87 -139 151 l62 35 q69 -61 130 -137 l-53 -49 Z" /><glyph glyph-name="" unicode="&#x4e2a;" d="M911 330 q-263 124 -414 339 q-142 -226 -400 -358 q-23 30 -68 57 q332 159 452 438 l71 -32 q-3 -6 -9 -20 q-7 -13 -10 -20 q171 -234 441 -333 q-37 -26 -63 -71 ZM458 -96 l0 576 l82 0 l0 -576 l-82 0 Z" /><glyph glyph-name="" unicode="&#x4e2d;" d="M459 -96 l0 323 l-271 0 l0 -69 l-77 0 l0 453 l348 0 l0 185 l79 0 l0 -185 l348 0 l0 -453 l-77 0 l0 69 l-271 0 l0 -323 l-79 0 ZM188 538 l0 -239 l271 0 l0 239 l-271 0 ZM809 538 l-271 0 l0 -239 l271 0 l0 239 Z" /><glyph glyph-name="" unicode="&#x4e30;" d="M130 578 l0 72 l330 0 l0 146 l79 0 l0 -146 l330 0 l0 -72 l-330 0 l0 -148 l273 0 l0 -71 l-273 0 l0 -154 l394 0 l0 -73 l-394 0 l0 -228 l-79 0 l0 228 l-394 0 l0 73 l394 0 l0 154 l-273 0 l0 71 l273 0 l0 148 l-330 0 Z" /><glyph glyph-name="" unicode="&#x4e32;" d="M462 -96 l0 180 l-262 0 l0 -58 l-71 0 l0 317 l333 0 l0 101 l-290 0 l0 242 l290 0 l0 110 l74 0 l0 -110 l291 0 l0 -242 l-291 0 l0 -101 l333 0 l0 -317 l-71 0 l0 58 l-262 0 l0 -180 l-74 0 ZM200 281 l0 -135 l262 0 l0 135 l-262 0 ZM798 281 l-262 0 l0 -135 l262 0 l0 135 ZM757 625 l-221 0 l0 -120 l221 0 l0 120 ZM242 505 l220 0 l0 120 l-220 0 l0 -120 Z" /><glyph glyph-name="" unicode="&#x4e34;" d="M438 -96 l0 467 l454 0 l0 -467 l-69 0 l0 72 l-315 0 l0 -72 l-70 0 ZM272 -96 l0 890 l69 0 l0 -890 l-69 0 ZM420 410 q-39 22 -74 24 q152 162 207 367 l68 -24 q-21 -69 -42 -113 l343 0 l0 -64 l-373 0 q-49 -100 -129 -190 ZM105 42 l0 640 l70 0 l0 -640 l-70 0 ZM823 307 l-124 0 l0 -268 l124 0 l0 268 ZM508 307 l0 -268 l123 0 l0 268 l-123 0 ZM741 384 q-75 88 -154 154 l56 36 q63 -51 140 -134 l-42 -56 Z" /><glyph glyph-name="" unicode="&#x4e38;" d="M523 102 q-3 3 -10 8 q-83 64 -128 97 q-72 -180 -269 -304 q-28 30 -75 51 q211 121 277 301 q-84 58 -170 112 l57 48 q9 -5 26 -16 q42 -25 110 -70 q21 88 26 202 l-242 0 l0 72 l244 0 q1 38 1 84 q0 23 0 49 q0 23 0 60 l80 -5 q0 -67 0 -105 q0 -43 -1 -83 l287 0 l-22 -534 q-5 -62 51 -59 l54 0 q46 -2 57 59 q8 41 16 89 q32 -34 66 -46 q-5 -37 -13 -70 q-19 -112 -120 -109 l-66 0 q-133 -1 -124 139 l19 459 l-207 0 q-6 -138 -35 -250 q75 -51 143 -106 l-32 -73 Z" /><glyph glyph-name="" unicode="&#x4e39;" d="M52 293 l0 70 l191 0 l0 385 l531 0 l0 -385 l172 0 l0 -70 l-172 0 l0 -256 q0 -123 -126 -123 q-35 0 -77 4 q-5 45 -22 78 q44 -8 83 -8 q67 -2 65 65 l0 240 l-378 0 q-9 -251 -155 -395 q-40 32 -80 42 q145 124 157 353 l-189 0 ZM320 678 l0 -315 l377 0 l0 315 l-377 0 ZM538 415 q-58 90 -129 170 l66 28 q74 -81 122 -156 l-59 -42 Z" /><glyph glyph-name="" unicode="&#x4e3a;" d="M701 -72 q-52 0 -96 5 q-2 43 -24 79 q63 -9 110 -9 q91 -1 95 92 l18 390 l-311 0 q-59 -390 -359 -578 q-28 32 -73 51 q300 173 354 527 l-303 0 l0 70 l313 0 q12 115 15 244 l80 -7 q-6 -147 -17 -237 l381 0 l-20 -475 q-7 -152 -163 -152 ZM646 145 q-68 102 -145 180 l64 37 q71 -71 136 -165 l-55 -52 ZM317 584 q-63 77 -131 137 l60 40 q71 -62 124 -127 l-53 -50 Z" /><glyph glyph-name="" unicode="&#x4e3b;" d="M106 549 l0 70 l416 0 q-64 77 -149 156 l81 29 q97 -87 138 -143 l-66 -42 l366 0 l0 -70 l-353 0 l0 -221 l293 0 l0 -71 l-293 0 l0 -236 l393 0 l0 -72 l-867 0 l0 72 l394 0 l0 236 l-293 0 l0 71 l293 0 l0 221 l-353 0 Z" /><glyph glyph-name="" unicode="&#x4e3d;" d="M66 675 l0 69 l868 0 l0 -69 l-868 0 ZM130 -93 l0 666 l323 0 l0 -552 q2 -110 -97 -108 q-30 0 -58 3 q-3 37 -19 67 q26 -3 60 -5 q44 -3 41 52 l0 477 l-179 0 l0 -600 l-71 0 ZM310 165 q-37 101 -97 220 l59 17 q55 -104 94 -206 l-56 -31 ZM539 -93 l0 666 l330 0 l0 -558 q2 -104 -94 -102 q-28 0 -59 5 q-2 35 -20 67 q29 -4 64 -4 q40 -3 38 47 l0 479 l-187 0 l0 -600 l-72 0 ZM726 159 q-43 111 -103 222 l58 19 q55 -98 99 -208 l-54 -33 Z" /><glyph glyph-name="" unicode="&#x4e3e;" d="M87 487 l0 65 l497 0 q110 112 187 229 l63 -39 q-76 -105 -159 -190 l234 0 l0 -65 l-264 0 q130 -143 326 -210 q-39 -28 -60 -61 q-216 95 -349 271 l-135 0 q-132 -182 -344 -278 q-25 29 -61 49 q191 79 323 229 l-258 0 ZM262 249 l0 65 l199 0 l0 98 l73 0 l0 -98 l200 0 l0 -65 l-200 0 l0 -106 l343 0 l0 -66 l-343 0 l0 -173 l-73 0 l0 173 l-341 0 l0 66 l341 0 l0 106 l-199 0 ZM316 570 q-80 88 -160 155 l59 40 q61 -50 147 -143 l-46 -52 ZM512 612 q-56 84 -123 162 l63 30 q68 -81 113 -147 l-53 -45 Z" /><glyph glyph-name="" unicode="&#x4e43;" d="M707 -72 q-30 0 -92 5 q-5 41 -28 80 q70 -10 106 -10 q98 -3 103 92 l23 261 l-137 0 q-26 0 -60 -5 l-21 55 q30 13 39 55 l54 204 l-249 0 q-17 -538 -328 -752 q-29 29 -81 46 q318 195 331 706 l-217 0 l0 70 l626 0 l0 -59 l-68 -252 l193 0 l-29 -349 q-10 -148 -165 -147 Z" /><glyph glyph-name="" unicode="&#x4e45;" d="M139 -93 q-30 35 -76 56 q439 183 560 604 l-246 0 q-86 -166 -184 -254 q-33 22 -78 30 q189 178 267 454 l75 -31 q-18 -62 -46 -128 l299 0 l0 -64 q-42 -153 -116 -273 q135 -230 370 -317 q-45 -24 -77 -68 q-216 109 -337 318 q-154 -211 -411 -327 Z" /><glyph glyph-name="" unicode="&#x4e48;" d="M855 -98 q-7 10 -21 32 q-20 28 -30 44 l-537 -29 q-57 -4 -99 -15 l-33 70 q58 18 107 68 q241 238 426 515 l72 -42 q-206 -301 -437 -520 l451 23 q-76 105 -131 170 l71 32 q76 -87 219 -294 l-58 -54 ZM132 272 q-31 29 -76 41 q266 219 414 489 l75 -36 q-162 -284 -413 -494 Z" /><glyph glyph-name="" unicode="&#x4e49;" d="M115 -88 q-27 38 -70 63 q242 82 403 228 q-181 185 -276 451 l71 37 q91 -259 263 -430 q166 178 229 452 l76 -32 q-70 -283 -245 -475 q163 -140 388 -209 q-41 -31 -67 -79 q-223 89 -380 228 q-154 -142 -392 -234 ZM503 555 q-54 126 -115 225 l72 21 q55 -89 110 -211 l-67 -35 Z" /><glyph glyph-name="" unicode="&#x4e4b;" d="M113 -86 l-59 54 q56 89 103 147 q32 36 67 36 q8 0 15 -2 q292 181 493 374 l-616 0 l0 72 l737 0 l0 -61 q-203 -220 -542 -431 q94 -79 276 -82 q189 -6 369 7 q-29 -43 -31 -86 q-96 -2 -190 -1 q-91 1 -154 4 q-215 0 -329 111 q-18 15 -27 15 q-9 1 -26 -20 q-41 -50 -86 -137 ZM522 599 q-86 96 -169 165 l76 39 q80 -64 158 -153 l-65 -51 Z" /><glyph glyph-name="" unicode="&#x4e4c;" d="M742 -86 q-44 0 -85 6 q-3 41 -19 74 q57 -10 94 -10 q82 -3 85 80 l11 202 l-594 0 l0 429 l151 0 q44 58 66 111 l75 -26 q-18 -39 -50 -85 l295 0 l-9 -187 q-8 -112 -123 -114 q-36 0 -92 6 q-2 41 -18 72 q59 -9 94 -9 q61 -1 63 56 l6 110 l-381 0 l0 -298 l599 0 l-18 -282 q-4 -139 -150 -135 ZM69 92 l0 67 l659 0 l0 -67 l-659 0 Z" /><glyph glyph-name="" unicode="&#x4e4d;" d="M133 345 q-30 26 -80 37 q184 169 274 424 l75 -38 q-23 -61 -56 -123 l595 0 l0 -73 l-465 0 l0 -164 l364 0 l0 -70 l-364 0 l0 -167 l413 0 l0 -69 l-413 0 l0 -198 l-80 0 l0 668 l-90 0 q-82 -139 -173 -227 Z" /><glyph glyph-name="" unicode="&#x4e4e;" d="M54 265 l0 70 l414 0 l0 317 q-177 -12 -310 -13 q-16 43 -38 71 q443 6 691 56 l49 -69 q-121 -23 -313 -39 l0 -323 l397 0 l0 -70 l-397 0 l0 -225 q1 -128 -129 -126 q-45 1 -86 8 q-6 45 -24 77 q56 -10 96 -10 q65 -1 64 63 l0 213 l-414 0 ZM678 372 q-26 26 -62 37 q102 88 176 193 l60 -39 q-81 -112 -174 -191 ZM340 374 q-93 100 -185 171 l62 41 q90 -73 167 -154 l-44 -58 Z" /><glyph glyph-name="" unicode="&#x4e4f;" d="M110 -71 l-59 52 q57 81 96 122 q28 32 63 32 q11 0 22 -4 q254 107 472 254 l-574 0 l0 71 l713 0 l0 -58 q-192 -165 -536 -314 q95 -62 285 -66 q182 -6 361 7 q-25 -36 -29 -83 q-192 -4 -321 3 q-248 2 -364 99 q-20 16 -27 15 q-9 0 -25 -19 q-40 -52 -77 -111 ZM138 656 q-12 44 -32 69 q443 -6 733 45 l47 -64 q-327 -51 -748 -50 ZM538 462 q-74 85 -143 144 l69 38 q65 -55 132 -132 l-58 -50 Z" /><glyph glyph-name="" unicode="&#x4e50;" d="M151 327 l41 390 q351 7 606 53 l43 -66 q-250 -44 -577 -53 l-28 -255 l249 0 l0 205 l78 0 l0 -205 l320 0 l0 -69 l-320 0 l0 -286 q3 -134 -126 -130 q-33 0 -92 9 q-3 44 -19 78 q68 -12 97 -12 q65 -3 62 68 l0 273 l-334 0 ZM136 -38 q-30 24 -72 35 q145 128 210 255 l68 -32 q-75 -140 -206 -258 ZM879 -33 q-101 136 -210 248 l69 33 q118 -122 198 -226 l-57 -55 Z" /><glyph glyph-name="" unicode="&#x4e52;" d="M58 187 l0 68 l186 0 l0 471 q329 5 534 46 l47 -63 q-198 -38 -504 -47 l0 -151 l552 0 l0 -67 l-168 0 l0 -189 l237 0 l0 -68 l-884 0 ZM321 444 l0 -189 l309 0 l0 189 l-309 0 ZM167 -99 q-28 31 -68 53 q177 83 280 199 l64 -46 q-115 -120 -276 -206 Z" /><glyph glyph-name="" unicode="&#x4e53;" d="M58 187 l0 68 l185 0 l0 471 q330 5 533 46 l47 -63 q-196 -38 -504 -47 l0 -151 l551 0 l0 -67 l-163 0 l0 -189 l235 0 l0 -68 l-884 0 ZM319 444 l0 -189 l312 0 l0 189 l-312 0 ZM857 -98 q-145 111 -297 197 l53 51 q164 -91 281 -181 l-37 -67 Z" /><glyph glyph-name="" unicode="&#x4e54;" d="M191 651 q-9 35 -34 68 q356 0 614 40 l44 -66 q-136 -20 -282 -29 q-15 -76 -44 -141 l421 0 l0 -67 l-277 0 q124 -138 333 -189 q-34 -22 -55 -67 q-123 40 -216 109 l0 -401 l-77 0 l0 403 l75 0 q-86 64 -143 145 l-96 0 q-51 -84 -128 -145 l73 0 l0 -94 q11 -221 -203 -324 q-31 33 -65 46 q115 60 153 119 q41 58 40 166 l0 85 q-86 -68 -219 -121 q-20 33 -61 60 q217 68 322 208 l-276 0 l0 67 l318 0 q30 61 47 136 q-142 -8 -264 -8 Z" /><glyph glyph-name="" unicode="&#x4e56;" d="M189 672 q-12 33 -37 65 q361 0 624 41 l48 -62 q-136 -19 -289 -30 l0 -116 l395 0 l0 -66 l-395 0 l0 -600 l-75 0 l0 600 l-391 0 l0 66 l391 0 l0 111 q-111 -7 -271 -9 ZM735 57 q-103 -1 -102 103 l0 285 l69 0 l0 -127 q99 38 172 83 l43 -53 q-99 -57 -215 -96 l0 -85 q-2 -47 46 -45 l43 0 q49 -3 61 43 q7 24 13 54 q24 -25 57 -37 q-1 -5 -3 -16 q-5 -23 -7 -31 q-23 -82 -111 -78 l-66 0 ZM93 305 l0 61 l197 0 l0 79 l70 0 l0 -402 l-70 0 l0 97 l-194 -69 l-37 60 l231 72 l0 102 l-197 0 Z" /><glyph glyph-name="" unicode="&#x4e58;" d="M891 -51 q-235 92 -360 271 l2 -20 l0 -295 l-74 0 l0 295 l2 18 q-132 -174 -342 -270 q-25 29 -66 53 q289 121 406 324 l0 222 l-380 0 l0 63 l380 0 l0 75 q-106 -7 -261 -9 q-13 35 -35 62 q346 0 598 41 l46 -61 q-144 -18 -274 -28 l0 -80 l381 0 l0 -63 l-381 0 l0 -221 q129 -229 419 -309 q-36 -25 -61 -68 ZM721 210 q-98 0 -98 97 l0 198 l67 0 l0 -93 q91 32 156 72 l48 -45 q-100 -55 -204 -83 l0 -40 q-1 -46 41 -45 l58 0 q42 -2 52 42 q6 23 11 50 q28 -25 57 -36 q-4 -23 -12 -44 q-19 -77 -101 -73 l-75 0 ZM112 388 l0 60 l187 0 l0 58 l67 0 l0 -293 l-67 0 l0 44 l-176 -55 l-36 58 l212 56 l0 72 l-187 0 Z" /><glyph glyph-name="" unicode="&#x4e59;" d="M328 -58 q-186 4 -192 144 q-2 96 115 197 q186 167 426 359 l-545 0 l0 74 l682 0 l0 -67 q-277 -219 -503 -422 q-88 -77 -87 -133 q1 -76 122 -76 l355 0 q95 -6 115 90 q13 56 18 89 q33 -37 73 -52 q-12 -50 -17 -68 q-22 -77 -59 -106 q-36 -30 -110 -29 l-393 0 Z" /><glyph glyph-name="" unicode="&#x4e5d;" d="M756 -67 q-137 -6 -125 138 l19 447 l-197 0 q-24 -440 -341 -610 q-30 32 -74 51 q318 160 334 559 l-247 0 l0 71 l251 0 q3 89 3 207 l82 -5 q0 -124 -4 -202 l277 0 l-23 -523 q-4 -60 54 -59 l53 0 q48 -2 59 59 q5 25 17 89 q28 -33 65 -45 q-4 -33 -12 -68 q-18 -114 -121 -109 l-70 0 Z" /><glyph glyph-name="" unicode="&#x4e5e;" d="M351 -61 q-155 0 -156 102 q-1 68 86 131 q159 112 325 204 q19 10 40 19 l-411 0 l0 71 l548 0 l0 -67 q-292 -170 -441 -272 q-61 -45 -59 -76 q-2 -42 81 -41 l373 0 q51 0 71 15 q22 15 34 61 q9 29 16 68 q24 -32 63 -50 q-6 -31 -14 -56 q-32 -115 -155 -109 l-401 0 ZM126 409 q-39 28 -75 39 q178 160 256 362 l72 -32 q-13 -37 -45 -97 l566 0 l0 -71 l-607 0 q-80 -125 -167 -201 Z" /><glyph glyph-name="" unicode="&#x4e5f;" d="M358 -58 q-143 -1 -142 133 l0 337 l-144 -35 l-20 67 l164 39 l0 238 l77 0 l0 -218 l192 47 l0 246 l77 0 l0 -227 l274 66 l-10 -340 q-3 -118 -109 -118 q-35 0 -62 3 q-3 37 -20 73 q36 -6 65 -6 q51 -2 51 60 l8 237 l-197 -48 l0 -397 l-77 0 l0 378 l-192 -47 l0 -346 q3 -65 70 -68 l400 0 q79 -3 100 80 q10 43 16 74 q26 -33 68 -51 q-1 -2 -2 -7 q-8 -40 -14 -57 q-29 -118 -166 -113 l-407 0 Z" /><glyph glyph-name="" unicode="&#x4e60;" d="M677 -75 q-46 0 -108 7 q-1 41 -22 82 q77 -12 117 -12 q101 -2 103 108 l15 525 l-657 0 l0 73 l739 0 l-19 -608 q-2 -177 -168 -175 ZM134 25 l-49 66 q294 109 574 262 l43 -60 q-275 -148 -568 -268 ZM436 327 q-91 101 -206 192 l60 47 q110 -86 197 -178 l-51 -61 Z" /><glyph glyph-name="" unicode="&#x4e61;" d="M203 185 l-30 71 q66 16 114 54 q103 74 198 158 l-221 -9 q-46 -3 -79 -11 l-28 68 q46 10 81 41 q135 118 246 248 l72 -38 q-142 -156 -249 -243 l253 10 q83 75 163 162 l70 -39 q-223 -231 -449 -390 l343 18 q57 82 91 187 l70 -39 q-137 -420 -683 -534 q-23 36 -62 64 q371 77 530 255 l-340 -20 q-39 -2 -90 -13 Z" /><glyph glyph-name="" unicode="&#x4e66;" d="M408 -96 l0 366 l-331 0 l0 67 l331 0 l0 219 l-275 0 l0 68 l275 0 l0 172 l76 0 l0 -172 l288 0 l-16 -287 l153 0 l-14 -237 q-6 -133 -141 -132 q-41 0 -83 5 q-3 46 -19 76 q56 -8 91 -8 q75 -1 76 71 l9 158 l-344 0 l0 -366 l-76 0 ZM693 556 l-209 0 l0 -219 l196 0 l13 219 ZM873 545 q-100 98 -228 192 l59 44 q109 -78 210 -173 l-41 -63 Z" /><glyph glyph-name="" unicode="&#x4e70;" d="M70 193 l0 69 l431 0 q0 2 1 3 q39 122 40 364 l79 -7 q-4 -239 -43 -360 l350 0 l0 -69 l-375 0 q-93 -213 -424 -289 q-16 38 -54 68 q308 65 396 221 l-401 0 ZM830 502 q-35 10 -74 11 l57 155 l-705 0 l0 68 l783 0 l0 -62 l-61 -172 ZM870 -96 q-151 109 -298 186 l49 53 q154 -80 281 -171 l-32 -68 ZM346 298 q-115 72 -213 119 l46 53 q117 -58 198 -111 l-31 -61 ZM429 440 q-108 74 -200 123 l43 49 q104 -55 187 -112 l-30 -60 Z" /><glyph glyph-name="" unicode="&#x4e71;" d="M108 646 q-10 33 -35 62 q245 12 400 54 l42 -60 q-63 -17 -171 -34 l0 -146 l207 0 l0 -64 l-207 0 l0 -144 l149 0 l0 -380 l-74 0 l0 59 l-225 0 l0 -78 l-74 0 l0 399 l150 0 l0 144 l-213 0 l0 64 l213 0 l0 137 q-96 -11 -162 -13 ZM743 -67 q-129 -5 -125 124 l0 735 l76 0 l0 -727 q-1 -61 61 -60 l55 0 q55 -2 69 68 q10 50 13 74 q30 -30 65 -43 q-7 -42 -13 -62 q-25 -112 -128 -109 l-73 0 ZM194 250 l0 -192 l225 0 l0 192 l-225 0 Z" /><glyph glyph-name="" unicode="&#x4e73;" d="M79 107 l-29 60 l237 48 l0 83 q63 39 114 83 l-292 0 l0 61 l391 0 l0 -54 q-62 -63 -141 -114 l0 -45 l175 36 l26 -57 l-201 -42 l0 -142 q1 -111 -101 -110 q-28 0 -76 6 q-4 34 -22 70 q40 -8 84 -8 q45 -2 43 47 l0 121 l-208 -43 ZM734 -67 q-118 -3 -115 121 l0 738 l71 0 l0 -729 q-1 -62 59 -61 l64 0 q56 -1 71 71 q7 25 15 73 q29 -31 61 -43 q-5 -32 -13 -61 q-25 -113 -126 -109 l-87 0 ZM98 655 q-12 39 -36 64 q265 6 442 52 l45 -57 q-192 -42 -451 -59 ZM452 467 q-28 17 -60 24 q63 91 93 163 l61 -31 q-37 -77 -94 -156 ZM161 464 q-35 70 -82 136 l64 23 q33 -47 72 -122 l-54 -37 ZM307 494 q-31 85 -65 141 l66 14 q31 -56 57 -127 l-58 -28 Z" /><glyph glyph-name="" unicode="&#x4e7e;" d="M525 454 q-28 23 -54 32 l0 -268 l-148 0 l0 -87 l194 0 l0 -62 l-194 0 l0 -165 l-70 0 l0 165 l-203 0 l0 62 l203 0 l0 87 l-148 0 l0 315 l148 0 l0 92 l-186 0 l0 62 l186 0 l0 105 l70 0 l0 -105 l181 0 l0 -62 l-181 0 l0 -92 l148 0 l0 -35 q105 138 148 306 l64 -28 q-20 -65 -37 -108 l291 0 l0 -66 l-320 0 q-44 -90 -92 -148 ZM664 -61 q-115 3 -119 94 q-1 51 36 104 q72 108 185 255 l-211 0 l0 65 l305 0 l0 -57 q-138 -178 -219 -299 q-21 -32 -21 -56 q-1 -41 59 -40 l124 0 q53 -4 68 60 q8 26 16 64 q26 -34 61 -46 q-1 -5 -4 -16 q-6 -31 -11 -46 q-24 -83 -115 -82 l-154 0 ZM174 474 l0 -71 l228 0 l0 71 l-228 0 ZM174 277 l228 0 l0 72 l-228 0 l0 -72 Z" /><glyph glyph-name="" unicode="&#x4e86;" d="M424 -80 q-35 0 -94 7 q-4 39 -24 79 q67 -9 108 -9 q70 -2 68 66 l0 406 q141 78 265 183 l-615 0 l0 72 l736 0 l0 -64 q-125 -121 -306 -233 l0 -379 q1 -129 -138 -128 Z" /><glyph glyph-name="" unicode="&#x4e88;" d="M437 -87 q-43 0 -86 8 q-6 47 -22 80 q54 -11 96 -12 q67 -3 64 68 l0 310 l-404 0 l0 71 l454 0 q-122 82 -241 146 l54 48 q58 -30 156 -91 q114 69 201 137 l-530 0 l0 70 l648 0 l0 -64 q-110 -96 -254 -185 q10 -7 30 -21 q14 -10 20 -14 l-20 -26 l316 0 l0 -62 l-79 -163 q-30 13 -76 13 l69 141 l-266 0 l0 -322 q3 -135 -130 -132 Z" /><glyph glyph-name="" unicode="&#x4e89;" d="M123 465 q-33 34 -64 44 q223 123 322 301 l65 -37 q-2 -3 -6 -9 q-24 -38 -38 -56 l344 0 l0 -58 l-135 -112 l223 0 l0 -166 l112 0 l0 -66 l-112 0 l0 -221 l-73 0 l0 53 l-229 0 l0 -112 q1 -114 -108 -113 q-40 0 -94 7 q-2 44 -23 77 q64 -11 100 -11 q52 -1 51 53 l0 99 l-293 0 l0 64 l293 0 l0 104 l-402 0 l0 66 l402 0 l0 102 l-249 0 l0 45 q-45 -34 -86 -54 ZM351 646 q-55 -61 -117 -108 l274 0 l127 108 l-284 0 ZM532 306 l0 -104 l229 0 l0 104 l-229 0 ZM761 474 l-229 0 l0 -102 l229 0 l0 102 Z" /><glyph glyph-name="" unicode="&#x4e8b;" d="M82 662 l0 58 l379 0 l0 76 l74 0 l0 -76 l382 0 l0 -58 l-382 0 l0 -60 l276 0 l0 -174 l-276 0 l0 -58 l309 0 l0 -122 l105 0 l0 -58 l-105 0 l0 -159 l-73 0 l0 37 l-236 0 l0 -33 q0 -123 -121 -123 q-42 0 -84 6 q1 36 -17 74 q56 -9 92 -9 q57 -1 56 63 l0 22 l-319 0 l0 57 l319 0 l0 65 l-406 0 l0 58 l406 0 l0 66 l-312 0 l0 56 l312 0 l0 58 l-274 0 l0 174 l274 0 l0 60 l-379 0 ZM771 314 l-236 0 l0 -66 l236 0 l0 66 ZM535 190 l0 -65 l236 0 l0 65 l-236 0 ZM740 551 l-205 0 l0 -70 l205 0 l0 70 ZM257 481 l204 0 l0 70 l-204 0 l0 -70 Z" /><glyph glyph-name="" unicode="&#x4e8c;" d="M150 603 l0 76 l698 0 l0 -76 l-698 0 ZM63 -9 l0 76 l873 0 l0 -76 l-873 0 Z" /><glyph glyph-name="" unicode="&#x4e8e;" d="M143 666 l0 72 l712 0 l0 -72 l-302 0 l0 -249 l393 0 l0 -73 l-393 0 l0 -294 q1 -135 -134 -134 q-31 0 -89 8 q-4 43 -23 81 q65 -11 98 -11 q69 -2 67 70 l0 280 l-419 0 l0 73 l419 0 l0 249 l-329 0 Z" /><glyph glyph-name="" unicode="&#x4e8f;" d="M60 433 l0 72 l878 0 l0 -72 l-571 0 l-40 -145 l492 0 l-27 -229 q-14 -143 -161 -141 q-64 0 -110 6 q-1 44 -21 83 q75 -11 124 -11 q80 -1 89 79 l18 144 l-502 0 l57 214 l-226 0 ZM166 665 l0 70 l666 0 l0 -70 l-666 0 Z" /><glyph glyph-name="" unicode="&#x4e91;" d="M68 372 l0 68 l862 0 l0 -68 l-410 0 q-102 -175 -226 -331 l419 18 q-81 95 -135 150 l67 34 q136 -140 231 -261 l-51 -61 q-37 48 -58 73 l-482 -23 q-43 -3 -99 -20 l-39 74 q42 10 73 48 q111 134 209 299 l-361 0 ZM191 644 l0 70 l616 0 l0 -70 l-616 0 Z" /><glyph glyph-name="" unicode="&#x4e92;" d="M106 662 l0 69 l785 0 l0 -69 l-490 0 l-29 -161 l398 0 l-54 -488 l225 0 l0 -71 l-882 0 l0 71 l577 0 l19 168 l-424 0 l91 481 l-216 0 ZM683 433 l-324 0 l-34 -183 l338 0 l20 183 Z" /><glyph glyph-name="" unicode="&#x4e94;" d="M118 660 l0 71 l761 0 l0 -71 l-382 0 l-40 -244 l322 0 l0 -402 l162 0 l0 -72 l-883 0 l0 72 l252 0 l55 333 l-183 0 l0 69 l194 0 l41 244 l-299 0 ZM703 347 l-258 0 l-56 -333 l314 0 l0 333 Z" /><glyph glyph-name="" unicode="&#x4e95;" d="M120 534 l0 72 l189 0 l0 187 l78 0 l0 -187 l245 0 l0 187 l79 0 l0 -187 l173 0 l0 -72 l-173 0 l0 -215 l229 0 l0 -71 l-229 0 l0 -343 l-79 0 l0 343 l-254 0 q-27 -209 -205 -348 q-33 31 -77 45 q179 128 203 303 l-237 0 l0 71 l245 0 q2 36 2 60 l0 155 l-189 0 ZM387 380 q0 -32 -2 -61 l247 0 l0 215 l-245 0 l0 -154 Z" /><glyph glyph-name="" unicode="&#x4e9a;" d="M109 656 l0 69 l782 0 l0 -69 l-244 0 l0 -643 l294 0 l0 -71 l-883 0 l0 71 l293 0 l0 643 l-242 0 ZM427 656 l0 -643 l144 0 l0 643 l-144 0 ZM734 179 q-31 19 -71 26 q85 134 145 299 l71 -31 q-64 -167 -145 -294 ZM254 178 q-69 164 -148 300 l76 20 q78 -135 136 -276 l-64 -44 Z" /><glyph glyph-name="" unicode="&#x4e9b;" d="M83 254 l-34 66 l90 19 l0 351 l73 0 l0 -334 l111 24 l0 414 l73 0 l0 -161 l129 0 l0 -63 l-129 0 l0 -173 l115 26 l28 -56 l-456 -113 ZM694 293 q-112 -3 -109 104 l0 398 l74 0 l0 -196 q125 55 208 114 l51 -49 q-116 -76 -259 -134 l0 -122 q-2 -50 49 -48 l85 0 q61 -3 75 53 q9 30 16 62 q31 -33 60 -44 q-9 -32 -17 -58 q-26 -82 -127 -80 l-106 0 ZM69 -61 l0 67 l860 0 l0 -67 l-860 0 ZM183 133 l0 67 l631 0 l0 -67 l-631 0 Z" /><glyph glyph-name="" unicode="&#x4ea1;" d="M67 531 l0 73 l470 0 q-53 63 -155 157 l71 44 q83 -72 150 -151 l-53 -50 l383 0 l0 -73 l-643 0 l0 -505 l589 0 l0 -73 l-671 0 l0 578 l-141 0 Z" /><glyph glyph-name="" unicode="&#x4ea4;" d="M887 -89 q-225 50 -381 173 q-145 -124 -383 -182 q-22 36 -63 64 q254 59 389 168 q-98 95 -163 227 l66 35 q57 -124 151 -211 q82 89 127 224 l69 -34 q-49 -138 -138 -237 q151 -111 388 -150 q-41 -29 -62 -77 ZM94 576 l0 70 l411 0 q-36 49 -118 129 l81 26 q70 -67 108 -120 l-66 -35 l400 0 l0 -70 l-816 0 ZM169 294 q-30 31 -67 47 q142 88 239 216 l63 -39 q-99 -134 -235 -224 ZM833 300 q-126 126 -246 212 l60 44 q121 -86 228 -190 l-42 -66 Z" /><glyph glyph-name="" unicode="&#x4ea5;" d="M77 581 l0 68 l424 0 q-68 77 -128 126 l66 38 q78 -66 134 -131 l-40 -33 l392 0 l0 -68 l-441 0 q-84 -98 -172 -174 l264 8 q63 55 102 115 l56 -47 q-210 -255 -568 -365 q-28 37 -62 57 q215 52 392 175 l-215 -9 q-52 -2 -97 -14 l-29 65 q49 12 93 48 q74 61 140 141 l-311 0 ZM852 -98 q-99 81 -269 188 q-193 -129 -433 -187 q-21 35 -60 63 q455 102 680 394 l51 -49 q-75 -98 -175 -176 q157 -94 244 -162 l-38 -71 Z" /><glyph glyph-name="" unicode="&#x4ea6;" d="M84 551 l0 69 l833 0 l0 -69 l-254 0 l0 -518 q2 -120 -119 -118 q-43 0 -74 4 q-3 42 -22 76 q45 -8 84 -9 q57 -1 56 60 l0 505 l-156 0 l0 -129 q9 -389 -250 -518 q-29 23 -79 38 q147 77 200 182 q56 103 55 302 l0 125 l-274 0 ZM888 113 q-72 147 -170 286 l68 24 q87 -123 162 -266 l-60 -44 ZM107 112 l-63 41 q101 118 157 270 l62 -34 q-55 -146 -156 -277 ZM524 624 q-74 88 -146 151 l75 27 q89 -80 137 -140 l-66 -38 Z" /><glyph glyph-name="" unicode="&#x4ea7;" d="M112 -101 q-35 29 -75 41 q73 84 92 178 q22 90 13 296 l422 0 q80 98 119 184 l76 -27 q-43 -80 -103 -157 l268 0 l0 -70 l-700 0 q13 -308 -112 -445 ZM91 612 l0 69 l398 0 q-23 31 -74 86 q-5 6 -7 8 l82 26 q59 -58 100 -120 l330 0 l0 -69 l-829 0 ZM384 415 q-45 82 -104 151 l73 25 q61 -72 97 -139 l-66 -37 Z" /><glyph glyph-name="" unicode="&#x4ea9;" d="M158 -92 l0 578 l682 0 l0 -578 l-75 0 l0 71 l-532 0 l0 -71 l-75 0 ZM59 590 l0 70 l430 0 q-47 59 -105 116 l79 30 q61 -60 111 -125 l-41 -21 l406 0 l0 -70 l-880 0 ZM535 200 l0 -153 l230 0 l0 153 l-230 0 ZM233 200 l0 -153 l229 0 l0 153 l-229 0 ZM765 418 l-230 0 l0 -151 l230 0 l0 151 ZM233 418 l0 -151 l229 0 l0 151 l-229 0 Z" /><glyph glyph-name="" unicode="&#x4eab;" d="M66 94 l0 62 l408 0 l0 42 q120 34 184 67 l-471 0 l0 56 l618 0 l0 -46 q-94 -57 -255 -109 l0 -10 l383 0 l0 -62 l-383 0 l0 -74 q1 -111 -109 -110 q-51 0 -94 5 q-2 32 -22 70 q56 -9 97 -9 q52 0 52 54 l0 64 l-408 0 ZM213 381 l0 202 l572 0 l0 -202 l-572 0 ZM90 643 l0 62 l388 0 q-42 43 -83 77 l81 26 q69 -63 103 -103 l330 0 l0 -62 l-819 0 ZM287 438 l424 0 l0 88 l-424 0 l0 -88 Z" /><glyph glyph-name="" unicode="&#x4eac;" d="M210 229 l0 285 l584 0 l0 -285 l-239 0 l0 -211 q0 -108 -109 -107 q-42 0 -85 6 q-2 41 -19 73 q56 -8 89 -8 q49 -2 47 50 l0 197 l-268 0 ZM76 598 l0 69 l419 0 q-33 43 -106 113 l81 25 q70 -67 107 -118 l-37 -20 l384 0 l0 -69 l-848 0 ZM286 294 l431 0 l0 155 l-431 0 l0 -155 ZM137 -57 q-31 33 -65 47 q139 84 231 197 l59 -44 q-98 -122 -225 -200 ZM883 -57 q-104 99 -241 196 l57 46 q111 -76 225 -176 l-41 -66 Z" /><glyph glyph-name="" unicode="&#x4ead;" d="M211 402 l0 186 l576 0 l0 -186 l-576 0 ZM84 184 l0 162 l831 0 l0 -162 l-75 0 l0 101 l-682 0 l0 -101 l-74 0 ZM195 147 l0 61 l610 0 l0 -61 l-246 0 l0 -127 q-2 -108 -120 -110 q-40 0 -83 4 q-1 35 -22 71 q62 -8 95 -8 q55 0 55 53 l0 117 l-289 0 ZM82 643 l0 59 l394 0 q-27 38 -64 82 l80 19 q39 -47 75 -101 l350 0 l0 -59 l-835 0 ZM285 458 l428 0 l0 73 l-428 0 l0 -73 Z" /><glyph glyph-name="" unicode="&#x4eae;" d="M234 396 l0 190 l530 0 l0 -190 l-530 0 ZM133 -98 q-18 33 -55 61 q239 27 237 168 l3 85 l356 0 l0 -164 q-4 -60 56 -56 l72 0 q49 -2 62 51 q7 34 11 65 q24 -27 63 -41 q-5 -29 -11 -49 q-19 -96 -121 -90 l-89 0 q-119 -3 -116 107 l0 116 l-212 0 l-4 -43 q0 -167 -252 -210 ZM102 178 l0 161 l795 0 l0 -160 l-77 0 l0 100 l-641 0 l0 -101 l-77 0 ZM99 643 l0 62 l380 0 q-34 40 -79 80 l80 22 q65 -57 96 -101 l-2 -1 l325 0 l0 -62 l-800 0 ZM309 451 l379 0 l0 80 l-379 0 l0 -80 Z" /><glyph glyph-name="" unicode="&#x4eb2;" d="M69 381 l0 67 l306 0 q-58 71 -117 122 l71 33 q62 -56 111 -116 l-48 -39 l168 0 q72 78 124 163 l71 -36 q-43 -63 -99 -127 l277 0 l0 -67 l-385 0 l0 -107 l316 0 l0 -67 l-316 0 l0 -191 q-2 -103 -107 -105 q-42 0 -75 3 q-4 44 -24 78 q50 -7 85 -7 q46 -2 44 46 l0 176 l-317 0 l0 67 l317 0 l0 107 l-402 0 ZM153 616 l0 66 l331 0 q-26 41 -73 99 l81 20 q54 -66 84 -119 l276 0 l0 -66 l-699 0 ZM142 -57 q-27 28 -66 42 q135 78 225 180 l62 -39 q-104 -108 -221 -183 ZM876 -54 q-124 101 -238 172 l53 44 q94 -56 219 -153 l-34 -63 Z" /><glyph glyph-name="" unicode="&#x4eba;" d="M896 -76 q-280 155 -395 503 q-93 -355 -390 -513 q-32 36 -77 59 q364 176 413 607 q10 98 8 216 l84 -7 q-2 -112 -11 -215 q126 -437 444 -582 q-39 -23 -76 -68 Z" /><glyph glyph-name="" unicode="&#x4ebf;" d="M561 -61 q-167 2 -170 138 q1 65 51 140 q134 188 330 420 l-362 0 l0 72 l467 0 l0 -66 q-223 -263 -364 -461 q-39 -56 -39 -100 q0 -70 103 -70 l195 0 q84 -8 101 90 q1 5 3 15 q4 15 10 53 q33 -33 67 -46 q-1 -5 -3 -17 q-6 -30 -9 -41 q-17 -71 -52 -99 q-34 -29 -104 -28 l-224 0 ZM96 312 q-28 29 -68 48 q185 196 259 438 l74 -38 q-36 -104 -89 -202 l0 -654 l-77 0 l0 529 q-52 -75 -99 -121 Z" /><glyph glyph-name="" unicode="&#x4ec0;" d="M366 393 l0 71 l250 0 l0 327 l77 0 l0 -327 l256 0 l0 -71 l-256 0 l0 -489 l-77 0 l0 489 l-250 0 ZM204 -96 l0 529 q-53 -72 -105 -123 q-28 29 -70 47 q188 186 278 438 l72 -39 q-39 -104 -99 -206 l0 -646 l-76 0 Z" /><glyph glyph-name="" unicode="&#x4ec1;" d="M195 -95 l0 528 q-50 -75 -93 -116 q-31 33 -69 48 q177 188 257 432 l72 -38 q-31 -90 -89 -198 l0 -656 l-78 0 ZM326 -22 l0 71 l624 0 l0 -71 l-624 0 ZM393 589 l0 73 l504 0 l0 -73 l-504 0 Z" /><glyph glyph-name="" unicode="&#x4ec5;" d="M897 -81 q-149 81 -253 196 q-102 -117 -269 -203 q-35 38 -67 55 q176 86 285 211 q-132 179 -173 434 l69 22 q40 -235 153 -394 q116 162 154 402 l-420 0 l0 71 l497 0 l0 -63 q-40 -286 -179 -474 q110 -121 270 -192 q-38 -24 -67 -65 ZM191 -96 l0 532 q-48 -69 -96 -117 q-24 28 -63 46 q174 183 248 433 l69 -32 q-31 -104 -83 -204 l0 -658 l-75 0 Z" /><glyph glyph-name="" unicode="&#x4ec6;" d="M904 206 q-87 101 -252 263 l0 -565 l-78 0 l0 890 l78 0 l0 -311 l57 31 q177 -163 247 -250 l-52 -58 ZM213 -96 l0 546 q-56 -79 -115 -137 q-28 28 -67 44 q187 182 277 440 l70 -34 q-37 -102 -91 -196 l0 -663 l-74 0 Z" /><glyph glyph-name="" unicode="&#x4ec7;" d="M349 -97 q-32 28 -76 38 q220 176 227 566 l0 10 l-162 0 l0 69 l164 0 q2 75 2 210 l75 -5 q0 -100 -3 -205 l235 0 l-24 -521 q-4 -66 37 -63 l26 0 q31 -3 44 55 q10 44 16 88 q26 -29 58 -38 q-5 -34 -15 -76 q-22 -101 -104 -98 l-32 0 q-115 -4 -105 128 l21 456 l-159 0 l0 -10 q-7 -417 -225 -604 ZM182 -96 l0 525 q-49 -69 -88 -111 q-30 28 -66 40 q174 195 248 441 l69 -34 q-36 -108 -88 -210 l0 -651 l-75 0 Z" /><glyph glyph-name="" unicode="&#x4eca;" d="M904 356 q-256 117 -408 322 q-153 -219 -400 -335 q-25 33 -65 53 q328 160 451 412 l71 -32 q-2 -4 -7 -14 q-8 -15 -12 -22 q178 -220 436 -315 q-43 -29 -66 -69 ZM495 -104 q-40 32 -77 42 q184 136 273 291 l-505 0 l0 69 l598 0 l0 -59 q-88 -183 -289 -343 ZM528 333 q-61 82 -136 154 l66 34 q64 -57 127 -140 l-57 -48 Z" /><glyph glyph-name="" unicode="&#x4ecb;" d="M904 356 q-258 114 -408 320 q-150 -211 -400 -333 q-25 33 -65 53 q328 157 453 414 l71 -34 q-9 -18 -20 -38 q168 -219 434 -313 q-42 -28 -65 -69 ZM180 -101 q-31 27 -77 41 q117 79 159 156 q44 75 43 201 l0 118 l79 0 l0 -116 q12 -250 -204 -400 ZM623 -87 l0 503 l80 0 l0 -503 l-80 0 Z" /><glyph glyph-name="" unicode="&#x4ecd;" d="M365 -95 q-29 23 -75 34 q120 131 159 276 q41 134 43 440 l-120 0 l0 67 l462 0 l0 -57 l-62 -242 l145 0 l-23 -344 q-10 -157 -158 -157 q-43 0 -76 6 q-3 44 -26 81 q59 -11 94 -11 q90 -3 91 94 l19 265 l-94 0 q-27 0 -52 -8 l-20 55 q27 18 38 58 l49 193 l-190 0 q-3 -311 -46 -459 q-41 -158 -158 -291 ZM189 -95 l0 540 q-42 -62 -91 -116 q-25 27 -66 44 q171 182 248 427 l70 -34 q-32 -93 -84 -195 l0 -666 l-77 0 Z" /><glyph glyph-name="" unicode="&#x4ece;" d="M902 -81 q-170 174 -226 438 q-56 -282 -248 -447 q-25 28 -73 48 q253 194 273 602 q3 58 4 109 q1 50 0 121 l77 -4 q0 -145 -5 -233 q47 -386 271 -575 q-43 -24 -73 -59 ZM461 173 q-72 106 -140 186 q-51 -265 -222 -432 q-31 31 -73 46 q223 197 243 574 q3 72 4 126 q1 57 0 116 l76 -4 q0 -158 -8 -272 q-3 -31 -6 -61 q93 -102 183 -222 l-57 -57 Z" /><glyph glyph-name="" unicode="&#x4ed1;" d="M415 -66 q-146 -1 -144 138 l0 358 l78 0 l0 -182 q217 77 365 173 l56 -54 q-177 -111 -421 -191 l0 -98 q0 -71 71 -71 l250 0 q74 0 91 63 q9 30 20 92 q31 -33 67 -46 q-4 -21 -14 -56 q-4 -14 -6 -21 q-27 -106 -145 -105 l-268 0 ZM905 372 q-254 110 -409 308 q-149 -203 -400 -321 q-33 38 -61 54 q321 148 447 392 l71 -31 q-9 -16 -18 -33 q170 -210 434 -302 q-39 -28 -64 -67 Z" /><glyph glyph-name="" unicode="&#x4ed3;" d="M392 -67 q-142 -4 -138 135 l0 372 l475 0 l0 -197 q-2 -112 -113 -114 q-48 0 -88 5 q-3 40 -18 71 q53 -6 91 -7 q54 -2 52 57 l0 118 l-323 0 l0 -298 q-3 -73 68 -70 l301 0 q73 -3 94 71 q8 25 17 75 q30 -31 65 -47 q-8 -46 -16 -67 q-36 -107 -146 -104 l-321 0 ZM911 384 q-253 103 -412 300 q-153 -203 -404 -312 q-20 32 -61 57 q316 135 456 378 l68 -34 q-9 -15 -20 -32 q176 -204 435 -290 q-38 -28 -62 -67 Z" /><glyph glyph-name="" unicode="&#x4ed4;" d="M349 318 l0 68 l275 0 l0 106 q96 76 171 161 l-375 0 l0 69 l477 0 l0 -61 q-82 -103 -197 -200 l0 -75 l251 0 l0 -68 l-251 0 l0 -278 q2 -129 -122 -127 q-35 0 -83 8 q-4 49 -22 79 q54 -10 94 -11 q59 -3 57 65 l0 264 l-275 0 ZM194 -96 l0 547 q-48 -63 -105 -118 q-30 34 -59 49 q179 170 265 414 l68 -42 q-46 -113 -95 -195 l0 -655 l-74 0 Z" /><glyph glyph-name="" unicode="&#x4ed6;" d="M538 -60 q-127 -2 -125 128 l0 351 l-92 -24 l-24 63 l116 30 l0 245 l71 0 l0 -226 l131 34 l0 253 l70 0 l0 -234 l207 55 l-9 -333 q-3 -106 -95 -106 q-11 0 -36 2 q-12 1 -17 1 q-3 36 -19 69 q32 -5 56 -5 q43 -1 43 48 l5 235 l-135 -36 l0 -378 l-70 0 l0 360 l-131 -35 l0 -366 q0 -62 63 -62 l242 0 q66 -2 83 54 q11 30 21 75 q27 -31 60 -45 q-8 -33 -19 -65 q-29 -90 -135 -88 l-261 0 ZM191 -95 l0 544 q-54 -78 -96 -117 q-28 29 -67 42 q172 171 255 427 l68 -35 q-33 -98 -86 -196 l0 -665 l-74 0 Z" /><glyph glyph-name="" unicode="&#x4ed7;" d="M907 -84 q-182 66 -293 160 q-84 -95 -256 -169 q-22 35 -65 56 q187 72 267 164 q-106 106 -185 296 l62 40 q67 -170 167 -275 q62 108 67 305 l0 23 l-333 0 l0 67 l334 0 q0 116 0 214 l76 -6 q0 -74 0 -119 q0 -51 -1 -89 l180 0 l0 -67 l-180 0 q0 -6 -1 -18 q0 -10 0 -14 q-5 -222 -86 -348 q118 -100 311 -157 q-41 -23 -64 -63 ZM198 -96 l0 555 q-47 -69 -96 -117 q-21 27 -67 47 q169 167 249 411 l68 -34 q-29 -88 -78 -182 l0 -680 l-76 0 Z" /><glyph glyph-name="" unicode="&#x4ed8;" d="M362 507 l0 71 l374 0 l0 211 l78 0 l0 -211 l139 0 l0 -71 l-139 0 l0 -465 q0 -126 -128 -126 q-50 -1 -91 7 q-4 43 -21 78 q56 -10 96 -10 q68 -2 66 64 l0 452 l-374 0 ZM205 -96 l0 553 q-49 -68 -107 -127 q-31 34 -71 48 q178 169 266 418 l74 -40 q-37 -95 -85 -179 l0 -673 l-77 0 ZM560 159 q-70 113 -149 200 l70 33 q85 -99 143 -188 l-64 -45 Z" /><glyph glyph-name="" unicode="&#x4ed9;" d="M378 -36 l0 644 l73 0 l0 -574 l152 0 l0 759 l74 0 l0 -759 l152 0 l0 574 l74 0 l0 -704 l-74 0 l0 60 l-451 0 ZM92 338 q-29 30 -65 41 q168 170 253 419 l67 -34 q-33 -96 -89 -197 l0 -662 l-74 0 l0 544 q-46 -65 -92 -111 Z" /><glyph glyph-name="" unicode="&#x4edf;" d="M426 632 q-12 40 -37 68 q281 12 455 64 l45 -64 q-80 -24 -201 -42 l0 -259 l261 0 l0 -70 l-261 0 l0 -425 l-75 0 l0 425 l-262 0 l0 70 l262 0 l0 249 q-108 -12 -187 -16 ZM203 -96 l0 537 q-55 -81 -106 -134 q-35 31 -71 44 q186 199 264 448 l75 -38 q-39 -107 -86 -194 l0 -663 l-76 0 Z" /><glyph glyph-name="" unicode="&#x4ee3;" d="M348 355 l-14 67 l205 34 q-21 146 -30 332 l78 10 q5 -174 29 -329 l301 50 l12 -66 l-303 -51 q27 -151 71 -252 q53 -129 124 -145 q23 0 36 37 q15 42 25 104 q29 -35 62 -51 q-10 -49 -25 -91 q-29 -86 -93 -86 q-115 13 -191 182 q-54 117 -85 289 l-202 -34 ZM204 -96 l0 525 q-54 -78 -106 -132 q-28 28 -71 45 q186 195 270 452 l74 -38 q-39 -108 -91 -201 l0 -651 l-76 0 ZM796 548 q-72 96 -137 159 l64 34 q71 -69 128 -149 l-55 -44 Z" /><glyph glyph-name="" unicode="&#x4ee4;" d="M630 -108 q-164 107 -367 202 l50 58 q78 -36 187 -95 q126 98 217 208 l-542 0 l0 70 l643 0 l0 -63 q-104 -140 -247 -255 q8 -5 25 -15 q21 -12 66 -40 l-32 -70 ZM913 374 q-268 112 -417 308 q-155 -209 -408 -319 q-24 38 -58 60 q330 145 454 386 l71 -31 q-4 -7 -12 -21 q-5 -9 -7 -13 q166 -208 434 -297 q-38 -32 -57 -73 ZM535 349 q-71 80 -148 143 l62 42 q75 -61 135 -130 l-49 -55 Z" /><glyph glyph-name="" unicode="&#x4ee5;" d="M913 -74 q-89 110 -202 232 q-100 -160 -305 -254 q-27 34 -68 55 q335 138 395 481 q25 134 26 330 l81 -7 q-4 -195 -28 -333 q-21 -114 -65 -205 q125 -123 219 -235 l-53 -64 ZM156 -50 l-43 72 q33 30 32 86 l0 618 l79 0 l0 -619 l212 163 l50 -51 l-282 -223 q-29 -23 -48 -46 ZM537 507 q-102 134 -206 236 l69 35 q110 -110 192 -215 l-55 -56 Z" /><glyph glyph-name="" unicode="&#x4eea;" d="M913 -88 q-168 86 -282 202 q-106 -117 -288 -211 q-23 36 -68 57 q187 88 301 214 q-156 185 -221 460 l69 34 q62 -258 204 -432 q131 176 170 458 l73 -24 q-47 -311 -188 -494 q122 -123 294 -196 q-42 -25 -64 -68 ZM184 -95 l0 531 q-49 -68 -95 -111 q-22 27 -64 47 q167 160 247 417 l69 -39 q-27 -87 -81 -191 l0 -654 l-76 0 ZM623 552 q-56 129 -110 224 l70 22 q60 -104 104 -211 l-64 -35 Z" /><glyph glyph-name="" unicode="&#x4eec;" d="M783 -88 q-38 0 -85 5 q-4 39 -22 76 q52 -9 94 -9 q65 -2 63 67 l0 591 l-220 0 l0 69 l294 0 l0 -674 q-1 -124 -124 -125 ZM181 -96 l0 551 q-47 -67 -82 -102 q-27 28 -63 46 q157 168 236 399 l65 -37 q-26 -80 -82 -185 l0 -672 l-74 0 ZM378 -94 l0 676 l75 0 l0 -676 l-75 0 ZM528 583 q-77 93 -144 152 l59 41 q76 -72 132 -140 l-47 -53 Z" /><glyph glyph-name="" unicode="&#x4ef0;" d="M628 -96 l0 796 l279 0 l0 -535 q1 -102 -106 -102 q-26 0 -57 4 q-3 39 -22 72 q46 -6 63 -6 q52 0 52 50 l0 450 l-136 0 l0 -729 l-73 0 ZM183 -97 l0 544 q-45 -69 -90 -115 q-28 29 -64 44 q158 165 242 420 l65 -34 q-29 -88 -79 -189 l0 -670 l-74 0 ZM399 24 l-40 55 q30 25 28 80 l0 559 q104 12 208 51 l40 -60 q-101 -38 -175 -49 l0 -515 l111 58 l35 -55 l-153 -86 q-35 -20 -54 -38 Z" /><glyph glyph-name="" unicode="&#x4ef2;" d="M605 -96 l0 283 l-148 0 l0 -72 l-71 0 l0 485 l219 0 l0 194 l75 0 l0 -194 l221 0 l0 -485 l-72 0 l0 72 l-149 0 l0 -283 l-75 0 ZM193 -96 l0 548 q-46 -67 -93 -113 q-27 29 -65 43 q159 162 245 418 l69 -34 q-32 -97 -83 -195 l0 -667 l-73 0 ZM829 532 l-149 0 l0 -277 l149 0 l0 277 ZM457 532 l0 -277 l148 0 l0 277 l-148 0 Z" /><glyph glyph-name="" unicode="&#x4ef6;" d="M320 226 l0 68 l296 0 l0 223 l-154 0 q-30 -80 -74 -151 q-30 19 -74 25 q98 155 129 337 l73 -22 q-16 -75 -32 -123 l132 0 l0 211 l76 0 l0 -211 l218 0 l0 -66 l-218 0 l0 -223 l259 0 l0 -68 l-259 0 l0 -322 l-76 0 l0 322 l-296 0 ZM182 -96 l0 535 q-42 -68 -81 -115 q-26 29 -68 43 q156 186 218 435 l72 -30 q-26 -95 -67 -189 l0 -679 l-74 0 Z" /><glyph glyph-name="" unicode="&#x4ef7;" d="M185 -95 l0 543 q-50 -60 -98 -100 q-24 33 -57 50 q172 149 268 397 l67 -43 q-41 -103 -105 -203 l0 -644 l-75 0 ZM908 386 q-185 97 -287 279 q-96 -186 -267 -301 q-30 30 -67 46 q238 150 309 389 l69 -25 q-3 -10 -10 -29 q-3 -7 -4 -11 q122 -209 318 -287 q-40 -25 -61 -61 ZM366 -98 q-27 26 -67 40 q162 89 159 309 l0 167 l74 0 l0 -169 q3 -244 -166 -347 ZM714 -88 l0 506 l74 0 l0 -506 l-74 0 Z" /><glyph glyph-name="" unicode="&#x4efb;" d="M411 630 q-12 35 -35 67 q305 13 466 61 l46 -62 q-75 -20 -213 -41 l0 -267 l275 0 l0 -68 l-275 0 l0 -301 l239 0 l0 -69 l-548 0 l0 69 l234 0 l0 301 l-271 0 l0 68 l271 0 l0 258 q-108 -13 -189 -16 ZM92 337 q-28 29 -65 37 q172 190 250 426 l67 -34 q-30 -89 -78 -181 l0 -681 l-73 0 l0 559 q-48 -70 -101 -126 Z" /><glyph glyph-name="" unicode="&#x4efd;" d="M359 -96 q-31 31 -70 43 q217 120 211 388 l-86 0 l0 71 l407 0 l-11 -352 q-5 -131 -136 -132 q-27 0 -77 6 q-2 35 -22 73 q57 -9 89 -9 q68 1 72 70 l10 273 l-172 0 q1 -302 -215 -431 ZM185 -94 l0 530 q-43 -57 -87 -97 q-19 28 -60 48 q172 162 247 412 l69 -41 q-36 -105 -93 -207 l0 -645 l-76 0 ZM902 341 q-184 158 -238 429 l67 24 q50 -260 236 -404 q-42 -18 -65 -49 ZM351 336 q-26 27 -67 41 q155 147 207 384 l71 -26 q-62 -249 -211 -399 Z" /><glyph glyph-name="" unicode="&#x4eff;" d="M712 -86 q-41 0 -81 6 q-2 40 -18 74 q48 -8 91 -8 q76 -1 79 81 l13 277 l-229 0 q-22 -279 -201 -443 q-29 31 -74 41 q190 153 203 438 q4 65 6 172 l-147 0 l0 67 l311 0 q-77 84 -143 139 l61 43 q85 -73 141 -138 l-40 -44 l255 0 l0 -67 l-364 0 q0 -69 -3 -141 l299 0 l-14 -353 q-7 -145 -145 -144 ZM188 -96 l0 552 q-52 -72 -97 -117 q-25 30 -64 42 q169 172 253 418 l66 -35 q-29 -87 -82 -188 l0 -672 l-76 0 Z" /><glyph glyph-name="" unicode="&#x4f01;" d="M77 -60 l0 68 l165 0 l0 367 l77 0 l0 -367 l167 0 l0 482 l77 0 l0 -188 l230 0 l0 -66 l-230 0 l0 -228 l352 0 l0 -68 l-838 0 ZM905 371 q-259 110 -409 309 q-150 -208 -402 -321 q-22 33 -60 57 q323 147 448 388 l69 -31 q-9 -18 -19 -36 q176 -211 434 -296 q-40 -29 -61 -70 Z" /><glyph glyph-name="" unicode="&#x4f0a;" d="M317 450 l0 68 l192 0 l0 148 l-133 0 l0 65 l485 0 l0 -213 l90 0 l0 -68 l-90 0 l0 -267 l-75 0 l0 50 l-216 0 q-31 -195 -204 -332 q-33 28 -75 41 q171 122 202 291 l-128 0 l0 66 l139 0 q5 48 5 105 l0 46 l-192 0 ZM183 -95 l0 547 q-46 -72 -85 -114 q-23 25 -66 41 q153 173 227 423 l70 -34 q-23 -78 -72 -183 l0 -680 l-74 0 ZM583 404 q0 -57 -5 -105 l208 0 l0 151 l-203 0 l0 -46 ZM786 666 l-203 0 l0 -148 l203 0 l0 148 Z" /><glyph glyph-name="" unicode="&#x4f0d;" d="M369 662 l0 69 l537 0 l0 -69 l-268 0 l-34 -242 l244 0 l0 -406 l105 0 l0 -72 l-627 0 l0 72 l144 0 l48 336 l-140 0 l0 70 l149 0 l36 242 l-194 0 ZM193 -96 l0 548 q-48 -72 -92 -116 q-30 30 -67 43 q157 163 243 420 l69 -32 q-26 -88 -81 -195 l0 -668 l-72 0 ZM774 350 l-181 0 l-48 -336 l229 0 l0 336 Z" /><glyph glyph-name="" unicode="&#x4f0f;" d="M329 426 l0 68 l235 0 q2 79 2 239 q0 41 0 62 l76 -7 q0 -174 -4 -294 l278 0 l0 -68 l-269 0 q73 -313 309 -450 q-42 -22 -72 -59 q-193 138 -272 395 q-60 -260 -253 -407 q-29 30 -74 42 q240 169 274 479 l-230 0 ZM191 -96 l0 543 q-45 -66 -91 -112 q-28 30 -66 44 q160 164 247 419 l69 -33 q-31 -95 -83 -195 l0 -666 l-76 0 ZM823 539 q-69 92 -129 162 l63 28 q60 -64 117 -143 l-51 -47 Z" /><glyph glyph-name="" unicode="&#x4f10;" d="M336 409 l-12 66 l197 27 q-18 127 -25 283 l77 9 q1 -140 21 -282 l318 43 l11 -68 l-318 -43 q23 -135 56 -228 q109 89 176 191 l51 -46 q-73 -115 -201 -216 q66 -140 141 -151 q28 -2 41 47 q13 41 23 96 q30 -36 61 -50 q-8 -42 -23 -84 q-29 -91 -98 -89 q-122 6 -207 187 q-108 -74 -241 -121 q-26 34 -60 55 q154 55 274 136 q-42 118 -68 263 l-194 -25 ZM192 -95 l0 525 q-51 -72 -99 -120 q-34 28 -65 40 q179 187 266 443 l71 -36 q-43 -113 -98 -210 l0 -642 l-75 0 ZM792 574 q-61 69 -139 136 l59 35 q68 -55 131 -126 l-51 -45 Z" /><glyph glyph-name="" unicode="&#x4f11;" d="M583 -96 l0 497 q-78 -208 -240 -358 q-32 32 -71 43 q205 176 290 423 l-225 0 l0 66 l246 0 l0 217 l74 0 l0 -217 l257 0 l0 -66 l-238 0 q92 -258 289 -402 q-44 -17 -70 -54 q-159 136 -238 344 l0 -493 l-74 0 ZM89 324 q-26 29 -66 49 q168 168 263 426 l68 -38 q-35 -93 -87 -190 l0 -666 l-75 0 l0 545 q-54 -78 -103 -126 Z" /><glyph glyph-name="" unicode="&#x4f17;" d="M888 387 q-253 91 -394 285 q-132 -202 -374 -295 q-29 37 -65 55 q319 113 421 372 l72 -24 q-1 -3 -4 -10 q-5 -11 -15 -33 q156 -204 424 -279 q-41 -29 -65 -71 ZM893 -89 q-150 98 -225 273 q-47 -175 -194 -282 q-32 27 -78 38 q192 120 217 353 q9 69 7 161 l76 -7 q0 -77 -7 -140 q74 -235 274 -340 q-37 -21 -70 -56 ZM449 59 q-59 71 -129 142 q-56 -179 -204 -285 q-40 32 -79 43 q184 114 226 320 q13 74 13 166 l78 -9 q-5 -104 -16 -160 q105 -96 163 -168 l-52 -49 Z" /><glyph glyph-name="" unicode="&#x4f18;" d="M330 466 l0 67 l208 0 l0 258 l75 0 l0 -258 l308 0 l0 -67 l-309 0 q-4 -351 -255 -560 q-34 29 -76 39 q253 196 256 521 l-207 0 ZM193 -95 l0 548 q-43 -63 -93 -116 q-30 28 -67 39 q171 187 250 422 l69 -35 q-33 -94 -84 -190 l0 -668 l-75 0 ZM739 -69 q-117 -2 -115 117 l0 367 l72 0 l0 -356 q-2 -60 53 -58 l52 0 q54 -4 67 68 q4 24 13 78 q31 -33 62 -44 q-3 -24 -12 -65 q-26 -110 -122 -107 l-70 0 ZM814 567 q-53 68 -138 151 l62 33 q72 -68 127 -134 l-51 -50 Z" /><glyph glyph-name="" unicode="&#x4f19;" d="M889 -90 q-185 145 -255 374 q-66 -244 -269 -381 q-25 30 -68 46 q260 160 284 474 q5 54 6 131 q1 40 1 96 q0 55 0 146 l76 -8 q0 -218 -5 -310 q50 -347 301 -515 q-37 -11 -71 -53 ZM192 -95 l0 548 q-44 -66 -93 -115 q-24 31 -66 42 q163 165 248 417 l68 -33 q-27 -82 -81 -186 l0 -673 l-76 0 ZM805 332 q-32 19 -72 16 q75 140 105 283 l71 -29 q-46 -161 -104 -270 ZM426 292 l-67 34 q46 111 66 281 l67 -21 q-23 -181 -66 -294 Z" /><glyph glyph-name="" unicode="&#x4f1a;" d="M111 214 l0 67 l772 0 l0 -67 l-393 0 l2 -1 q-73 -105 -171 -204 l355 21 q-51 57 -101 107 l64 35 q109 -105 203 -224 l-58 -48 q-23 32 -52 65 l-436 -28 q-46 -2 -99 -14 l-31 72 q55 12 95 52 q64 65 137 167 l-287 0 ZM914 399 q-247 89 -416 290 q-160 -203 -404 -305 q-19 31 -62 58 q316 126 456 369 l68 -34 q-3 -5 -9 -15 q-6 -10 -9 -16 q188 -214 433 -277 q-38 -29 -57 -70 ZM274 397 l0 67 l449 0 l0 -67 l-449 0 Z" /><glyph glyph-name="" unicode="&#x4f1e;" d="M78 113 l0 69 l383 0 l0 356 l76 0 l0 -356 l385 0 l0 -69 l-385 0 l0 -209 l-76 0 l0 209 l-383 0 ZM909 405 q-241 85 -411 284 q-159 -194 -401 -294 q-21 31 -62 59 q319 118 452 353 l68 -34 q-8 -13 -17 -27 q184 -209 432 -272 q-36 -25 -61 -69 ZM658 231 q-26 19 -66 34 q95 86 152 174 l64 -35 q-62 -91 -150 -173 ZM334 236 q-72 91 -147 159 l68 34 q76 -70 134 -142 l-55 -51 Z" /><glyph glyph-name="" unicode="&#x4f1f;" d="M802 0 q-27 0 -56 2 q-3 42 -16 71 q32 -6 64 -6 q45 -1 45 47 l6 129 l-191 0 l0 -339 l-75 0 l0 339 l-248 0 l0 64 l248 0 l0 116 l-185 0 l0 64 l185 0 l0 115 l-220 0 l0 64 l220 0 l0 130 l75 0 l0 -130 l251 0 l0 -64 l-251 0 l0 -115 l218 0 l0 -64 l-218 0 l0 -116 l264 0 l-8 -208 q-2 -100 -108 -99 ZM195 -96 l0 546 q-48 -72 -97 -121 q-31 35 -65 49 q163 162 247 420 l66 -36 q-26 -85 -76 -186 l0 -672 l-75 0 Z" /><glyph glyph-name="" unicode="&#x4f20;" d="M376 594 l0 66 l187 0 q16 69 26 137 l75 -16 q-6 -36 -22 -109 q-2 -8 -3 -12 l261 0 l0 -66 l-277 0 q-16 -63 -35 -122 l354 0 l0 -66 l-375 0 q-21 -63 -43 -117 l341 0 l0 -59 q-61 -105 -154 -207 q56 -33 104 -63 l-33 -65 q-156 99 -329 182 l49 55 q45 -21 146 -75 q80 87 129 168 l-337 0 l0 57 q26 58 49 124 l-163 0 l0 66 l186 0 q19 59 35 122 l-171 0 ZM99 312 q-22 26 -65 47 q175 194 246 442 l68 -34 q-27 -97 -80 -204 l0 -659 l-75 0 l0 527 q-50 -75 -94 -119 Z" /><glyph glyph-name="" unicode="&#x4f24;" d="M378 -94 q-27 31 -68 50 q216 129 242 375 q0 1 0 4 q1 4 1 6 l-188 0 l0 67 l194 0 q4 83 4 139 l74 -8 q0 -74 -4 -131 l262 0 l-11 -338 q-4 -142 -137 -142 q-50 0 -95 5 q-1 41 -22 77 q68 -9 104 -9 q75 -3 76 79 l9 261 l-192 0 q0 -3 -1 -10 q0 -7 -1 -10 q-27 -269 -247 -415 ZM93 311 q-25 28 -66 46 q172 188 244 446 l68 -34 q-25 -96 -79 -207 l0 -658 l-74 0 l0 528 q-45 -72 -93 -121 ZM384 443 q-32 25 -69 36 q129 131 187 322 l69 -29 q-17 -48 -38 -93 l397 0 l0 -66 l-428 0 q-50 -97 -118 -170 Z" /><glyph glyph-name="" unicode="&#x4f26;" d="M600 -66 q-133 -1 -132 122 l0 380 l75 0 l0 -178 q142 60 246 135 l55 -52 q-134 -91 -301 -156 l0 -115 q0 -65 67 -65 l120 0 q65 -1 82 57 q13 50 19 90 q26 -29 65 -45 q-9 -42 -20 -77 q-28 -100 -129 -96 l-147 0 ZM189 -93 l0 548 q-55 -68 -103 -106 q-24 32 -59 49 q177 153 269 398 l68 -44 q-40 -99 -98 -190 l0 -655 l-77 0 ZM907 392 q-175 100 -278 272 q-99 -176 -257 -290 q-27 34 -65 51 q229 154 302 376 l71 -26 q-2 -5 -5 -14 q-7 -19 -11 -28 q114 -195 307 -281 q-38 -21 -64 -60 Z" /><glyph glyph-name="" unicode="&#x4f2a;" d="M739 -72 q-34 0 -78 4 q-1 43 -20 77 q58 -9 87 -9 q83 -2 84 86 l13 393 l-203 0 q-48 -372 -276 -564 q-31 26 -75 37 q230 186 274 527 l-212 0 l0 69 l220 0 q11 121 13 245 l77 -7 q-3 -123 -14 -238 l274 0 l-16 -472 q-4 -149 -148 -148 ZM189 -95 l0 537 q-53 -78 -96 -117 q-33 35 -66 50 q159 157 248 424 l69 -37 q-25 -83 -80 -192 l0 -665 l-75 0 ZM726 136 q-64 101 -132 170 l61 33 q66 -68 124 -153 l-53 -50 ZM468 568 q-53 72 -114 132 l59 36 q60 -58 107 -122 l-52 -46 Z" /><glyph glyph-name="" unicode="&#x4f2f;" d="M407 -94 l0 750 l155 0 q35 77 53 142 l77 -19 q-22 -69 -49 -123 l249 0 l0 -750 l-74 0 l0 94 l-336 0 l0 -94 l-75 0 ZM193 -96 l0 547 q-51 -82 -98 -131 q-28 29 -62 48 q163 184 240 430 l70 -33 q-29 -86 -75 -181 l0 -680 l-75 0 ZM482 298 l0 -230 l336 0 l0 230 l-336 0 ZM482 588 l0 -224 l336 0 l0 224 l-336 0 Z" /><glyph glyph-name="" unicode="&#x4f30;" d="M348 527 l0 68 l259 0 l0 201 l74 0 l0 -201 l262 0 l0 -68 l-262 0 l0 -181 l193 0 l0 -442 l-74 0 l0 74 l-311 0 l0 -74 l-74 0 l0 442 l192 0 l0 181 l-259 0 ZM193 -95 l0 543 q-51 -78 -101 -123 q-29 33 -65 51 q171 169 249 422 l69 -37 q-27 -85 -78 -187 l0 -669 l-74 0 ZM489 279 l0 -235 l311 0 l0 235 l-311 0 Z" /><glyph glyph-name="" unicode="&#x4f34;" d="M366 369 l0 67 l236 0 l0 359 l74 0 l0 -359 l241 0 l0 -67 l-241 0 l0 -149 l272 0 l0 -68 l-272 0 l0 -248 l-74 0 l0 248 l-267 0 l0 68 l267 0 l0 149 l-236 0 ZM192 -96 l0 544 q-52 -80 -97 -122 q-29 34 -64 51 q160 162 243 422 l67 -33 q-24 -84 -75 -189 l0 -673 l-74 0 ZM778 475 q-26 22 -64 34 q86 105 127 190 l63 -38 q-68 -120 -126 -186 ZM490 474 q-45 84 -121 191 l67 27 q67 -90 113 -176 l-59 -42 Z" /><glyph glyph-name="" unicode="&#x4f36;" d="M184 -95 l0 541 q-48 -59 -96 -100 q-22 33 -58 51 q174 155 265 401 l65 -43 q-38 -101 -101 -203 l0 -647 l-75 0 ZM719 -102 q-145 112 -303 202 l55 50 q49 -27 135 -80 q85 81 166 193 l-411 0 l0 65 l506 0 l0 -58 q-82 -128 -199 -241 q30 -20 81 -59 q6 -5 9 -7 l-39 -65 ZM911 385 q-192 105 -295 281 q-96 -169 -277 -292 q-21 30 -66 49 q238 144 324 377 l72 -26 q-9 -19 -18 -39 q114 -201 320 -290 q-35 -20 -60 -60 ZM628 345 q-46 70 -107 135 l64 33 q55 -59 101 -125 l-58 -43 Z" /><glyph glyph-name="" unicode="&#x4f38;" d="M605 -96 l0 239 l-150 0 l0 -59 l-71 0 l0 567 l221 0 l0 145 l71 0 l0 -145 l221 0 l0 -567 l-71 0 l0 59 l-150 0 l0 -239 l-71 0 ZM195 -95 l0 566 q-53 -81 -102 -128 q-22 28 -64 44 q166 167 247 412 l65 -35 q-28 -84 -74 -173 l0 -686 l-72 0 ZM455 367 l0 -159 l150 0 l0 159 l-150 0 ZM676 367 l0 -159 l150 0 l0 159 l-150 0 ZM455 586 l0 -157 l150 0 l0 157 l-150 0 ZM826 586 l-150 0 l0 -157 l150 0 l0 157 Z" /><glyph glyph-name="" unicode="&#x4f3a;" d="M742 -87 q-47 0 -83 6 q-2 44 -24 75 q67 -10 95 -10 q85 -3 81 77 l0 604 l-438 0 l0 66 l511 0 l0 -679 q1 -140 -142 -139 ZM378 91 l0 290 l331 0 l0 -290 l-331 0 ZM178 -96 l0 533 q-47 -67 -85 -105 q-26 30 -64 43 q159 168 237 424 l67 -33 q-29 -98 -82 -202 l0 -660 l-73 0 ZM447 155 l192 0 l0 163 l-192 0 l0 -163 ZM343 490 l0 65 l403 0 l0 -65 l-403 0 Z" /><glyph glyph-name="" unicode="&#x4f3c;" d="M910 -74 q-78 115 -149 205 q-83 -142 -253 -227 q-22 25 -63 46 q297 139 329 467 q15 134 14 356 l77 -7 q-3 -237 -19 -370 q-15 -108 -50 -195 q86 -103 168 -219 l-54 -56 ZM167 -95 l0 539 q-45 -70 -73 -101 q-31 31 -67 44 q152 178 224 412 l68 -34 q-29 -90 -78 -188 l0 -672 l-74 0 ZM384 -13 l-45 59 q30 31 29 84 l0 562 l74 0 l0 -553 l132 113 l49 -47 l-189 -165 q-27 -23 -50 -53 ZM625 469 q-71 172 -135 289 l73 15 q57 -98 124 -263 l-62 -41 Z" /><glyph glyph-name="" unicode="&#x4f43;" d="M392 -79 l0 795 l504 0 l0 -795 l-75 0 l0 77 l-355 0 l0 -77 l-74 0 ZM191 -96 l0 538 q-52 -81 -97 -124 q-32 34 -66 48 q167 180 249 434 l69 -36 q-24 -81 -81 -194 l0 -666 l-74 0 ZM466 325 l0 -260 l142 0 l0 260 l-142 0 ZM679 325 l0 -260 l142 0 l0 260 l-142 0 ZM466 649 l0 -258 l142 0 l0 258 l-142 0 ZM821 649 l-142 0 l0 -258 l142 0 l0 258 Z" /><glyph glyph-name="" unicode="&#x4f46;" d="M404 170 l0 557 l465 0 l0 -557 l-465 0 ZM183 -96 l0 536 q-42 -62 -88 -113 q-29 32 -65 44 q167 182 247 429 l69 -33 q-30 -93 -87 -202 l0 -661 l-76 0 ZM478 235 l317 0 l0 181 l-317 0 l0 -181 ZM478 662 l0 -181 l317 0 l0 181 l-317 0 ZM323 -50 l0 68 l628 0 l0 -68 l-628 0 Z" /><glyph glyph-name="" unicode="&#x4f4d;" d="M189 -96 l0 546 q-51 -73 -94 -112 q-21 29 -64 47 q163 166 243 414 l70 -33 q-27 -89 -81 -194 l0 -668 l-74 0 ZM316 -53 l0 68 l307 0 q73 204 128 454 l79 -24 q-64 -250 -130 -430 l245 0 l0 -68 l-629 0 ZM356 530 l0 68 l557 0 l0 -68 l-557 0 ZM499 88 q-38 183 -97 347 l76 9 q54 -145 95 -331 l-74 -25 ZM628 600 q-40 87 -103 184 l78 18 q52 -73 95 -166 l-70 -36 Z" /><glyph glyph-name="" unicode="&#x4f4e;" d="M859 -79 q-57 0 -98 71 q-80 134 -109 373 l-189 0 l0 -303 l139 95 l43 -50 l-185 -127 q-29 -22 -56 -49 l-40 53 q28 32 26 91 l0 634 q265 5 459 50 l43 -61 q-74 -17 -185 -31 q2 -130 11 -236 l205 0 l0 -66 l-198 0 q27 -209 90 -323 q24 -44 44 -43 q18 1 31 45 q8 30 17 77 q24 -35 54 -45 q-6 -35 -18 -75 q-26 -81 -84 -80 ZM190 -96 l0 547 q-46 -65 -93 -110 q-28 28 -66 38 q169 174 252 419 l68 -33 q-35 -101 -87 -195 l0 -666 l-74 0 ZM463 648 l0 -217 l182 0 q-10 92 -11 228 q-95 -9 -171 -11 ZM678 -105 q-66 72 -120 116 l53 34 q54 -43 107 -102 l-40 -48 Z" /><glyph glyph-name="" unicode="&#x4f4f;" d="M369 546 l0 69 l549 0 l0 -69 l-238 0 l0 -221 l207 0 l0 -68 l-207 0 l0 -239 l271 0 l0 -69 l-616 0 l0 69 l268 0 l0 239 l-205 0 l0 68 l205 0 l0 221 l-234 0 ZM200 -95 l0 542 q-55 -78 -102 -122 q-29 35 -70 53 q185 180 263 419 l74 -39 q-35 -93 -88 -189 l0 -664 l-77 0 ZM653 617 q-60 96 -122 158 l77 24 q64 -68 109 -142 l-64 -40 Z" /><glyph glyph-name="" unicode="&#x4f51;" d="M443 -96 l0 367 q-50 -65 -116 -134 q-26 27 -68 42 q191 185 259 371 l-175 0 l0 69 l197 0 q25 85 38 180 l74 -18 q-14 -76 -35 -162 l324 0 l0 -69 l-345 0 q-33 -96 -81 -176 l362 0 l0 -470 l-74 0 l0 75 l-285 0 l0 -75 l-75 0 ZM182 -96 l0 530 q-38 -52 -83 -102 q-27 30 -64 43 q169 186 242 421 l67 -38 q-36 -108 -88 -204 l0 -650 l-74 0 ZM518 307 l0 -261 l285 0 l0 261 l-285 0 Z" /><glyph glyph-name="" unicode="&#x4f53;" d="M181 -96 l0 546 q-51 -67 -96 -111 q-26 31 -63 47 q174 173 257 411 l67 -35 q-39 -106 -93 -200 l0 -447 q197 169 281 418 l-212 0 l0 68 l247 0 l0 194 l73 0 l0 -194 l265 0 l0 -68 l-232 0 q95 -269 295 -407 q-30 -20 -60 -64 q-188 149 -271 418 l3 -17 l0 -320 l166 0 l0 -65 l-166 0 l0 -174 l-73 0 l0 174 l-164 0 l0 65 l164 0 l0 320 l2 14 q-76 -253 -267 -421 q-22 28 -51 46 l0 -198 l-72 0 Z" /><glyph glyph-name="" unicode="&#x4f55;" d="M373 150 l0 362 l295 0 l0 -362 l-295 0 ZM339 641 l0 67 l613 0 l0 -67 l-100 0 l0 -593 q-1 -130 -132 -131 q-45 0 -92 6 q-2 44 -17 78 q44 -10 99 -10 q69 -2 67 71 l0 579 l-438 0 ZM183 -97 l0 549 q-49 -80 -94 -129 q-31 31 -64 48 q154 171 228 430 l72 -29 q-27 -85 -67 -177 l0 -692 l-75 0 ZM440 216 l158 0 l0 230 l-158 0 l0 -230 Z" /><glyph glyph-name="" unicode="&#x4f59;" d="M910 416 q-86 27 -161 68 l0 -63 l-197 0 l0 -120 l346 0 l0 -67 l-346 0 l0 -212 q1 -111 -112 -110 q-32 0 -75 5 q-2 36 -20 73 q44 -8 82 -8 q51 -2 49 52 l0 200 l-365 0 l0 67 l365 0 l0 120 l-215 0 l0 64 q-85 -51 -163 -80 q-21 33 -60 57 q321 124 453 344 l70 -31 q-1 -2 -5 -8 q-9 -16 -15 -25 q168 -189 426 -260 q-36 -25 -57 -66 ZM499 685 q-96 -113 -235 -198 l480 0 q-145 79 -245 198 ZM139 -63 q-24 26 -70 44 q136 86 225 205 l63 -42 q-91 -118 -218 -207 ZM868 -63 q-116 116 -235 206 l61 42 q121 -90 219 -186 l-45 -62 Z" /><glyph glyph-name="" unicode="&#x4f5b;" d="M658 -93 l0 321 l-105 0 q-26 -215 -182 -326 q-30 24 -76 37 q165 98 188 289 l-154 0 l15 246 l148 0 l0 116 l-161 0 l0 64 l161 0 l0 140 l70 0 l0 -140 l96 0 l0 140 l69 0 l0 -140 l156 0 l0 -242 l-156 0 l0 -120 l195 0 l-8 -175 q-4 -109 -107 -107 q-29 0 -44 1 q-3 42 -19 69 q5 0 16 -1 q23 -2 33 -2 q54 -2 55 48 l5 103 l-126 0 l0 -321 l-69 0 ZM179 -96 l0 540 q-46 -72 -84 -113 q-28 33 -64 46 q160 180 221 421 l70 -33 q-32 -107 -73 -191 l0 -670 l-70 0 ZM562 368 q0 -40 -3 -76 l99 0 l0 120 l-96 0 l0 -44 ZM562 590 l0 -116 l96 0 l0 116 l-96 0 ZM489 292 q3 37 3 78 l0 42 l-85 0 l-9 -120 l91 0 ZM818 590 l-91 0 l0 -116 l91 0 l0 116 Z" /><glyph glyph-name="" unicode="&#x4f5c;" d="M558 -96 l0 664 l-16 0 q-69 -131 -149 -218 q-24 19 -73 32 q165 176 236 421 l70 -34 q-17 -61 -51 -134 l368 0 l0 -67 l-310 0 l0 -165 l262 0 l0 -68 l-262 0 l0 -164 l287 0 l0 -68 l-287 0 l0 -199 l-75 0 ZM200 -96 l0 552 q-40 -61 -98 -127 q-29 30 -68 47 q169 190 247 424 l71 -38 q-29 -84 -76 -177 l0 -681 l-76 0 Z" /><glyph glyph-name="" unicode="&#x4f60;" d="M190 -96 l0 545 q-47 -68 -91 -110 q-22 27 -68 47 q164 159 250 413 l70 -36 q-28 -85 -84 -191 l0 -668 l-77 0 ZM855 416 q-34 11 -74 7 l60 142 l-334 0 q-47 -87 -102 -152 q-32 25 -76 30 q135 153 187 354 l71 -31 q-19 -71 -47 -134 l381 0 l0 -56 l-66 -160 ZM560 -90 q-34 0 -80 4 q4 39 -18 75 q43 -6 80 -7 q59 -3 56 58 l0 430 l75 0 l0 -441 q0 -120 -113 -119 ZM882 27 q-67 155 -137 274 l73 18 q78 -134 129 -253 l-65 -39 ZM382 35 q-33 19 -76 21 q101 131 137 271 l68 -23 q-39 -143 -129 -269 Z" /><glyph glyph-name="" unicode="&#x4f63;" d="M347 -96 q-30 22 -72 26 q114 133 108 368 l0 448 l514 0 l0 -717 q1 -120 -115 -119 q-29 0 -63 5 q-1 42 -24 72 q32 -5 75 -6 q56 -3 53 57 l0 167 l-149 0 l0 -251 l-71 0 l0 251 l-150 0 q-12 -185 -106 -301 ZM180 -96 l0 535 q-42 -62 -86 -107 q-27 30 -64 43 q160 172 237 424 l67 -33 q-27 -91 -81 -200 l0 -662 l-73 0 ZM674 444 l0 -175 l149 0 l0 175 l-149 0 ZM823 681 l-149 0 l0 -174 l149 0 l0 174 ZM456 295 l0 -26 l147 0 l0 175 l-147 0 l0 -149 ZM456 681 l0 -174 l147 0 l0 174 l-147 0 Z" /><glyph glyph-name="" unicode="&#x4f69;" d="M313 -85 q-28 22 -64 30 q58 90 79 194 q22 103 21 296 q1 176 -8 302 l519 0 q-12 -186 -12 -366 q0 -230 17 -313 q9 -54 32 -56 q16 -1 22 41 q7 36 12 81 q20 -25 49 -39 q-7 -50 -12 -72 q-18 -87 -71 -85 q-70 2 -95 116 q-18 91 -18 325 q0 100 6 289 q0 11 0 16 l-380 0 q2 -46 2 -100 q1 -26 1 -57 q0 -28 0 -82 q4 -365 -100 -520 ZM445 522 l0 62 l305 0 l0 -62 l-122 0 l0 -99 l115 0 l0 -304 q0 -87 -66 -87 q-14 0 -32 2 q-4 29 -17 58 l0 -185 l-60 0 l0 455 l-59 0 l0 -329 l-55 0 l0 390 l114 0 l0 99 l-123 0 ZM172 -96 l0 557 q-45 -71 -88 -121 q-26 28 -63 44 q154 170 226 415 l67 -30 q-30 -93 -73 -182 l0 -683 l-69 0 ZM688 362 l-60 0 l0 -265 q21 -4 35 -4 q26 -2 25 35 l0 234 Z" /><glyph glyph-name="" unicode="&#x4f70;" d="M350 656 l0 65 l588 0 l0 -65 l-265 0 q-19 -72 -52 -151 l253 0 l0 -600 l-74 0 l0 77 l-329 0 l0 -78 l-76 0 l0 601 l146 0 q30 69 53 151 l-244 0 ZM184 -96 l0 548 q-40 -60 -87 -112 q-28 27 -68 43 q159 158 241 415 l69 -32 q-30 -92 -80 -190 l0 -672 l-75 0 ZM471 213 l0 -166 l329 0 l0 166 l-329 0 ZM471 440 l0 -163 l329 0 l0 163 l-329 0 Z" /><glyph glyph-name="" unicode="&#x4f73;" d="M386 159 l0 65 l215 0 l0 117 l76 0 l0 -117 l216 0 l0 -65 l-216 0 l0 -154 l270 0 l0 -65 l-621 0 l0 65 l275 0 l0 154 l-215 0 ZM396 582 l0 65 l205 0 l0 149 l76 0 l0 -149 l207 0 l0 -65 l-207 0 l0 -140 l260 0 l0 -64 l-602 0 l0 64 l266 0 l0 140 l-205 0 ZM186 -96 l0 541 q-40 -57 -88 -107 q-32 33 -64 46 q167 170 250 414 l67 -37 q-39 -108 -91 -200 l0 -657 l-74 0 Z" /><glyph glyph-name="" unicode="&#x4f7f;" d="M333 606 l0 64 l256 0 l0 125 l73 0 l0 -125 l256 0 l0 -64 l-256 0 l0 -101 l216 0 l0 -255 l-220 0 q-10 -110 -58 -180 q34 -18 87 -33 q106 -29 276 -40 q-27 -33 -37 -74 q-159 18 -254 45 q-64 17 -118 47 q-73 -67 -219 -113 q-21 30 -56 54 q146 45 213 100 q-70 54 -129 140 l50 43 q60 -85 125 -133 q39 54 48 144 l-216 0 l0 255 l219 0 l0 101 l-256 0 ZM183 -96 l0 551 q-49 -75 -83 -111 q-27 27 -66 42 q159 178 229 411 l68 -32 q-29 -88 -75 -183 l0 -678 l-73 0 ZM439 310 l150 0 l0 6 l0 128 l-150 0 l0 -134 ZM809 444 l-147 0 l0 -117 l0 -17 l147 0 l0 134 Z" /><glyph glyph-name="" unicode="&#x4f84;" d="M360 658 l0 66 l553 0 l0 -66 l-247 0 q-79 -118 -174 -218 l279 16 q-51 63 -82 95 l65 25 q71 -72 164 -197 l-51 -48 q-8 11 -24 33 q-16 21 -24 32 l-346 -22 q-40 -3 -82 -12 l-32 65 q38 11 73 49 q78 80 145 182 l-217 0 ZM378 164 l0 66 l218 0 l0 121 l76 0 l0 -121 l218 0 l0 -66 l-218 0 l0 -156 l275 0 l0 -68 l-625 0 l0 68 l274 0 l0 156 l-218 0 ZM185 -96 l0 544 q-47 -67 -85 -105 q-23 27 -67 45 q157 163 241 410 l68 -34 q-29 -91 -82 -194 l0 -666 l-75 0 Z" /><glyph glyph-name="" unicode="&#x4f88;" d="M400 137 q-27 28 -66 42 q253 98 387 259 l65 -28 q-32 -42 -84 -89 l231 0 l0 -52 q-149 -294 -571 -364 q-23 38 -60 61 q187 27 323 96 q-50 48 -109 91 l62 29 q71 -48 107 -86 q103 67 158 163 l-219 0 q-93 -68 -224 -122 ZM398 314 q-22 34 -61 55 q125 34 234 97 q-59 48 -106 78 l61 31 q55 -34 101 -75 q97 65 153 138 l-252 0 q-69 -60 -144 -101 q-22 25 -61 40 q163 83 254 221 l69 -32 q-31 -44 -55 -67 l281 0 l0 -54 q-148 -220 -474 -331 ZM189 -96 l0 538 q-48 -73 -94 -116 q-23 31 -64 51 q162 157 248 421 l68 -33 q-30 -96 -84 -199 l0 -662 l-74 0 Z" /><glyph glyph-name="" unicode="&#x4f8b;" d="M307 648 l0 64 l335 0 l0 -64 l-160 0 q-7 -72 -25 -140 l147 0 l0 -62 q-16 -356 -255 -528 q-30 27 -66 41 q136 95 195 220 q-34 32 -105 82 l46 37 q37 -24 84 -62 q30 83 39 208 l-103 0 q-40 -133 -107 -228 q-26 21 -62 29 q111 154 147 403 l-110 0 ZM171 -96 l0 540 q-39 -65 -76 -110 q-28 28 -65 45 q153 184 205 420 l71 -30 q-29 -102 -66 -187 l0 -678 l-69 0 ZM787 -88 q-33 0 -85 6 q-1 36 -19 72 q53 -8 90 -8 q57 -2 56 58 l0 747 l72 0 l0 -759 q1 -117 -114 -116 ZM675 114 l0 529 l64 0 l0 -529 l-64 0 Z" /><glyph glyph-name="" unicode="&#x4f8d;" d="M379 604 l0 65 l218 0 l0 127 l75 0 l0 -127 l221 0 l0 -65 l-221 0 l0 -125 l275 0 l0 -67 l-614 0 l0 67 l264 0 l0 125 l-218 0 ZM193 -95 l0 554 q-48 -69 -98 -118 q-23 26 -67 47 q174 174 252 410 l70 -38 q-28 -82 -84 -186 l0 -669 l-73 0 ZM356 225 l0 66 l374 0 l0 94 l75 0 l0 -94 l128 0 l0 -66 l-128 0 l0 -199 q0 -117 -123 -117 q-49 0 -80 7 q-5 43 -22 75 q51 -10 90 -10 q61 -1 60 57 l0 187 l-374 0 ZM548 28 q-64 71 -137 127 l59 43 q72 -55 126 -114 l-48 -56 Z" /><glyph glyph-name="" unicode="&#x4f9b;" d="M355 520 l0 66 l123 0 l0 204 l74 0 l0 -204 l166 0 l0 204 l73 0 l0 -204 l127 0 l0 -66 l-127 0 l0 -228 l156 0 l0 -67 l-623 0 l0 67 l154 0 l0 228 l-123 0 ZM185 -96 l0 549 q-43 -63 -90 -109 q-19 26 -63 44 q160 160 242 410 l68 -30 q-28 -88 -82 -193 l0 -671 l-75 0 ZM552 520 l0 -228 l166 0 l0 228 l-166 0 ZM394 -98 q-23 25 -70 39 q125 112 187 243 l66 -34 q-72 -143 -183 -248 ZM871 -95 q-91 137 -188 244 l66 35 q94 -105 176 -225 l-54 -54 Z" /><glyph glyph-name="" unicode="&#x4f9d;" d="M476 -106 l-37 63 q32 28 30 80 l0 235 q-60 -79 -144 -150 q-25 31 -62 47 q190 147 289 396 l-216 0 l0 69 l297 0 q-60 85 -115 142 l72 24 q67 -70 108 -132 l-52 -34 l285 0 l0 -69 l-301 0 q-38 -101 -92 -191 l0 -353 l137 78 l42 -57 l-192 -111 q-26 -14 -49 -37 ZM182 -94 l0 539 q-49 -69 -89 -106 q-26 29 -62 42 q157 163 238 418 l68 -33 q-27 -92 -83 -199 l0 -661 l-72 0 ZM914 -29 q-222 147 -306 475 l61 33 q19 -79 54 -164 q85 69 141 140 l58 -39 q-80 -96 -169 -161 q86 -160 221 -229 q-36 -20 -60 -55 Z" /><glyph glyph-name="" unicode="&#x4fa0;" d="M362 591 l0 66 l229 0 l0 139 l73 -6 l0 -133 l228 0 l0 -66 l-229 0 q-1 -197 -8 -261 l279 0 l0 -65 l-258 0 q82 -205 289 -292 q-39 -23 -66 -61 q-196 110 -273 307 q-61 -195 -271 -317 q-24 34 -65 51 q224 118 279 312 l-258 0 l0 65 l270 0 q8 70 9 261 l-228 0 ZM182 -94 l0 546 q-42 -63 -85 -107 q-22 24 -64 42 q155 160 236 412 l65 -33 q-28 -94 -80 -195 l0 -665 l-72 0 ZM766 364 q-30 22 -64 30 q70 77 112 160 l61 -31 q-49 -88 -109 -159 ZM484 362 q-55 86 -117 159 l63 25 q51 -55 106 -141 l-52 -43 Z" /><glyph glyph-name="" unicode="&#x4fa3;" d="M391 -95 l0 412 l511 0 l0 -412 l-76 0 l0 70 l-360 0 l0 -70 l-75 0 ZM423 423 l0 318 l444 0 l0 -318 l-444 0 ZM190 -96 l0 547 q-44 -66 -94 -119 q-26 29 -64 43 q164 179 239 424 l70 -34 q-33 -99 -77 -187 l0 -674 l-74 0 ZM466 251 l0 -210 l360 0 l0 210 l-360 0 ZM496 489 l297 0 l0 186 l-297 0 l0 -186 Z" /><glyph glyph-name="" unicode="&#x4fa5;" d="M344 585 l-13 61 l181 24 q-14 43 -30 120 l71 9 q14 -74 29 -120 l279 38 l11 -59 l-268 -38 q23 -56 54 -104 q84 37 156 88 l48 -43 q-70 -54 -166 -98 q59 -71 120 -74 q32 -1 44 39 q8 26 14 61 q22 -21 60 -35 q-5 -31 -14 -55 q-23 -76 -96 -76 q-108 4 -195 111 q-127 -50 -247 -70 q-11 33 -44 58 q129 21 253 67 q-33 56 -60 122 l-187 -26 ZM326 227 l0 63 l573 0 l0 -63 l-174 0 l0 -183 q-1 -49 44 -48 l53 0 q47 -4 60 51 q9 37 13 67 q22 -27 59 -42 q0 -2 -1 -6 q-7 -38 -12 -55 q-21 -81 -113 -79 l-71 0 q-99 1 -100 100 l0 195 l-97 0 q9 -265 -248 -323 q-14 32 -51 55 q136 38 181 93 q47 52 49 175 l-165 0 ZM177 -96 l0 553 q-44 -70 -86 -117 q-21 26 -61 38 q147 175 219 419 l68 -30 q-29 -94 -71 -182 l0 -681 l-69 0 Z" /><glyph glyph-name="" unicode="&#x4fa6;" d="M379 115 l0 414 l197 0 l0 267 l73 0 l0 -98 l294 0 l0 -64 l-294 0 l0 -105 l224 0 l0 -413 l-72 0 l0 350 l-349 0 l0 -351 l-73 0 ZM182 -94 l0 539 q-49 -69 -89 -106 q-26 29 -62 42 q157 163 238 418 l68 -33 q-27 -92 -83 -199 l0 -661 l-72 0 ZM346 -97 q-17 41 -47 65 q273 53 287 245 q3 23 4 67 q1 41 1 128 l73 -7 q0 -149 -6 -198 q-21 -232 -312 -300 ZM912 -92 q-137 89 -271 155 l44 54 q145 -69 257 -141 l-30 -68 Z" /><glyph glyph-name="" unicode="&#x4fa7;" d="M320 140 l0 583 l308 0 l0 -567 l-64 0 l0 504 l-180 0 l0 -520 l-64 0 ZM167 -96 l0 559 q-49 -77 -82 -110 q-22 23 -61 41 q146 168 214 408 l66 -30 q-29 -94 -68 -177 l0 -691 l-69 0 ZM792 -86 q-36 0 -75 7 q-3 36 -18 70 q53 -8 81 -8 q60 -3 57 63 l0 739 l70 0 l0 -747 q0 -124 -115 -124 ZM312 -81 q-28 28 -59 43 q203 105 193 341 l0 276 l57 0 l0 -286 q5 -258 -191 -374 ZM701 125 l0 545 l62 0 l0 -545 l-62 0 ZM630 -51 q-62 70 -156 150 l51 36 q58 -43 145 -131 l-40 -55 Z" /><glyph glyph-name="" unicode="&#x4fa8;" d="M909 231 q-179 87 -260 243 l-50 0 q-62 -140 -253 -249 q-24 32 -61 50 q171 90 231 199 l-196 0 l0 63 l224 0 q21 55 28 127 q-101 -9 -165 -10 q-16 38 -39 63 q270 5 450 48 l44 -61 q-74 -17 -216 -34 q-7 -73 -24 -133 l300 0 l0 -63 l-196 0 q84 -127 240 -181 q-38 -24 -57 -62 ZM186 -96 l0 546 q-42 -65 -86 -115 q-32 30 -67 45 q157 175 237 417 l67 -36 q-25 -80 -77 -185 l0 -672 l-74 0 ZM372 -100 q-34 28 -68 38 q169 97 164 266 l0 94 l71 0 l0 -91 q3 -201 -167 -307 ZM709 -93 l0 391 l73 0 l0 -391 l-73 0 Z" /><glyph glyph-name="" unicode="&#x4fae;" d="M310 270 l0 61 l99 0 l25 224 l419 0 l-8 -224 l106 0 l0 -61 l-109 0 l-6 -168 l90 0 l0 -63 l-93 0 q-4 -131 -114 -127 q-29 0 -71 4 q-4 38 -22 66 q36 -5 78 -6 q58 -7 58 63 l-387 0 l26 231 l-91 0 ZM90 318 q-18 23 -60 44 q164 193 229 439 l69 -30 q-31 -108 -78 -205 l0 -662 l-72 0 l0 531 q-44 -67 -88 -117 ZM472 270 l-19 -168 l312 0 l5 168 l-298 0 ZM362 479 q-31 25 -66 34 q115 119 164 291 l66 -24 q-12 -39 -28 -76 l418 0 l0 -63 l-448 0 q-47 -91 -106 -162 ZM497 493 l-19 -162 l295 0 l6 162 l-282 0 ZM645 115 q-36 45 -108 105 l50 30 q65 -55 100 -96 l-42 -39 ZM654 344 q-31 39 -101 103 l52 25 q56 -48 93 -94 l-44 -34 Z" /><glyph glyph-name="" unicode="&#x4faf;" d="M390 243 q-29 19 -67 27 q93 98 127 238 l65 -25 q-1 -4 -4 -13 q-10 -35 -17 -51 l366 0 l0 -62 l-196 0 q-1 -63 -10 -123 q0 -1 -1 -3 q0 -2 0 -2 l283 0 l0 -61 l-251 0 q87 -141 274 -199 q-36 -24 -56 -63 q-190 75 -275 231 q-58 -151 -279 -235 q-23 35 -58 56 q220 72 273 210 l-261 0 l0 61 l278 0 q9 54 10 128 l-125 0 q-32 -64 -76 -114 ZM178 -96 l0 545 q-40 -62 -83 -113 q-25 31 -62 49 q156 172 218 413 l69 -34 q-31 -100 -70 -183 l0 -677 l-72 0 ZM319 519 l0 62 l400 0 l20 104 l-341 0 l0 62 l423 0 l-30 -166 l126 0 l0 -62 l-598 0 Z" /><glyph glyph-name="" unicode="&#x4fb5;" d="M898 -93 q-163 30 -280 100 q-118 -70 -285 -107 q-13 36 -49 66 q157 25 271 85 q-76 60 -132 147 l19 13 l-58 0 l0 57 l436 0 l0 -52 q-53 -97 -140 -165 q117 -58 263 -72 q-32 -28 -45 -72 ZM398 576 l0 53 l371 0 l0 62 l-397 0 l0 55 l468 0 l0 -287 l-473 0 l0 55 l402 0 l0 62 l-371 0 ZM174 -96 l0 546 q-46 -76 -84 -119 q-27 29 -65 43 q149 171 222 424 l67 -31 q-28 -91 -70 -183 l0 -680 l-70 0 ZM305 252 l0 149 l609 0 l0 -149 l-72 0 l0 91 l-465 0 l0 -91 l-72 0 ZM737 211 l-247 0 q52 -70 127 -123 q74 54 120 123 Z" /><glyph glyph-name="" unicode="&#x4fbf;" d="M344 674 l0 63 l578 0 l0 -63 l-255 0 l0 -88 l218 0 l0 -371 l-227 0 q-15 -96 -65 -159 q45 -18 99 -28 q111 -23 272 -27 q-24 -29 -36 -73 q-144 9 -249 31 q-75 16 -138 45 q-75 -58 -210 -101 q-20 35 -56 56 q130 35 201 82 q-66 44 -125 120 l45 47 q57 -79 132 -122 q43 49 58 129 l-210 0 l0 371 l219 0 l0 88 l-251 0 ZM180 -96 l0 539 q-37 -58 -80 -112 q-27 32 -65 42 q164 196 218 430 l69 -29 q-27 -102 -71 -199 l0 -671 l-71 0 ZM665 276 l153 0 l0 98 l-151 0 l0 -40 q0 -30 -2 -58 ZM444 526 l0 -98 l151 0 l0 98 l-151 0 ZM818 526 l-151 0 l0 -98 l151 0 l0 98 ZM444 276 l149 0 q2 30 2 50 l0 48 l-151 0 l0 -98 Z" /><glyph glyph-name="" unicode="&#x4fc3;" d="M190 -96 l0 547 q-44 -66 -94 -119 q-26 29 -64 43 q164 179 239 424 l70 -34 q-33 -99 -77 -187 l0 -623 q166 138 159 398 l70 -8 q-3 -88 -15 -155 q47 -101 132 -143 l0 373 l-198 0 l0 322 l453 0 l0 -322 l-182 0 l0 -152 l219 0 l0 -68 l-219 0 l0 -176 q33 -6 64 -9 q38 -4 103 -6 q67 -1 114 1 q-23 -34 -28 -78 q-100 1 -166 5 q-240 17 -314 168 q-32 -96 -127 -191 q-23 22 -65 36 l0 -46 l-74 0 ZM485 486 l307 0 l0 189 l-307 0 l0 -189 Z" /><glyph glyph-name="" unicode="&#x4fc4;" d="M358 632 q-14 32 -38 59 q162 19 262 60 l41 -55 q-57 -21 -108 -33 l0 -153 l141 0 q-3 135 -2 281 l71 6 q-3 -173 1 -287 l202 0 l0 -67 l-199 0 q6 -120 21 -222 q59 76 97 164 l51 -43 q-49 -110 -131 -207 q15 -72 42 -109 q20 -34 40 -34 q19 0 32 43 q5 16 17 64 q2 7 3 11 q23 -33 54 -49 q-11 -42 -21 -71 q-26 -79 -86 -78 q-56 2 -95 66 q-28 45 -42 100 q-54 -51 -113 -87 q-23 30 -55 46 q81 48 149 117 q-24 109 -33 289 l-144 0 l0 -138 l77 33 l32 -54 l-109 -51 l0 -214 q2 -106 -109 -104 q-25 0 -61 5 q-2 37 -17 72 q42 -6 71 -7 q46 -2 44 52 l0 164 l-113 -52 l-40 61 l153 65 l0 168 l-143 0 l0 67 l143 0 l0 137 q-41 -9 -85 -15 ZM175 -96 l0 549 q-45 -72 -81 -113 q-29 31 -64 42 q153 181 224 416 l67 -32 q-33 -98 -75 -184 l0 -678 l-71 0 ZM855 559 q-54 84 -104 146 l60 25 q55 -66 93 -128 l-49 -43 Z" /><glyph glyph-name="" unicode="&#x4fca;" d="M343 -97 q-24 38 -56 60 q173 33 287 106 q-59 50 -104 114 q-48 -45 -98 -77 q-25 24 -64 38 q157 101 237 259 l63 -29 q-19 -40 -34 -62 l247 0 l0 -50 q-45 -113 -129 -191 q113 -63 270 -87 q-37 -29 -56 -69 q-160 35 -272 108 q-117 -83 -291 -120 ZM182 -96 l0 546 q-44 -63 -92 -115 q-30 33 -61 45 q162 174 250 419 l66 -34 q-36 -97 -91 -198 l0 -663 l-72 0 ZM386 515 l-28 63 q30 8 60 37 q85 87 146 186 l70 -28 q-69 -103 -151 -184 l275 13 q-55 57 -86 83 l58 33 q101 -90 176 -181 l-47 -48 q-11 13 -36 42 q-7 9 -11 13 l-348 -16 q-33 -1 -78 -13 ZM532 252 q-3 -3 -7 -9 q-6 -8 -9 -11 q48 -70 115 -121 q69 60 107 141 l-206 0 ZM356 302 q-25 24 -63 42 q127 73 198 165 l61 -36 q-83 -102 -196 -171 ZM897 306 q-97 81 -225 161 l52 43 q112 -69 206 -145 l-33 -59 Z" /><glyph glyph-name="" unicode="&#x4fcf;" d="M388 -95 l0 621 l212 0 l0 270 l73 0 l0 -270 l216 0 l0 -504 q-2 -108 -108 -110 q-40 0 -65 4 q-2 37 -23 70 q40 -6 73 -6 q50 -1 49 50 l0 86 l-353 0 l0 -211 l-74 0 ZM183 -95 l0 539 q-41 -59 -85 -104 q-28 32 -65 45 q168 178 244 415 l67 -38 q-33 -97 -86 -196 l0 -661 l-75 0 ZM462 289 l0 -111 l353 0 l0 111 l-353 0 ZM462 461 l0 -110 l353 0 l0 110 l-353 0 ZM785 559 q-29 22 -65 31 q77 79 122 164 l65 -32 q-53 -89 -122 -163 ZM490 562 q-58 89 -124 158 l64 32 q62 -65 116 -146 l-56 -44 Z" /><glyph glyph-name="" unicode="&#x4fd0;" d="M448 -96 l0 400 q-62 -130 -136 -206 q-27 22 -68 26 q137 141 197 320 l-141 0 l0 64 l148 0 l0 143 q-56 -11 -107 -17 q-11 33 -38 59 q182 22 289 67 l45 -56 q-52 -22 -121 -38 l0 -158 l135 0 l0 -64 l-135 0 l0 -103 l31 16 q59 -59 112 -136 l-46 -44 q-40 61 -97 131 l0 -404 l-68 0 ZM172 -96 l0 562 q-52 -84 -86 -116 q-25 27 -60 41 q151 177 220 410 l65 -34 q-29 -89 -70 -172 l0 -691 l-69 0 ZM792 -86 q-38 0 -75 7 q-3 36 -18 70 q53 -8 81 -8 q59 -3 57 63 l0 736 l70 0 l0 -744 q0 -124 -115 -124 ZM685 125 l0 545 l65 0 l0 -545 l-65 0 Z" /><glyph glyph-name="" unicode="&#x4fd7;" d="M413 -95 l0 366 q-28 -20 -58 -38 q-25 36 -63 51 q233 126 318 320 l67 -29 q-2 -4 -6 -13 q-4 -9 -7 -14 q117 -176 301 -248 q-39 -23 -58 -56 q-183 91 -280 243 q-77 -117 -205 -210 l419 0 l0 -371 l-74 0 l0 65 l-281 0 l0 -66 l-73 0 ZM186 -96 l0 544 q-41 -61 -89 -114 q-27 30 -63 45 q163 178 240 418 l67 -37 q-31 -91 -82 -190 l0 -666 l-73 0 ZM486 213 l0 -178 l281 0 l0 178 l-281 0 ZM401 525 q-31 27 -72 35 q125 95 182 217 l65 -36 q-72 -127 -175 -216 ZM864 534 q-85 102 -201 206 l59 39 q99 -86 191 -187 l-49 -58 Z" /><glyph glyph-name="" unicode="&#x4fd8;" d="M329 154 l0 65 l281 0 l0 54 q51 25 111 66 l49 29 l-380 0 l0 61 l488 0 l0 -56 q-95 -77 -194 -132 l0 -22 l268 0 l0 -65 l-268 0 l0 -145 q-4 -95 -105 -99 q-41 0 -79 5 q-1 36 -24 74 q41 -7 84 -7 q51 -1 50 47 l0 125 l-281 0 ZM188 -96 l0 541 q-48 -73 -92 -119 q-25 25 -68 41 q169 186 248 432 l70 -33 q-30 -93 -85 -197 l0 -665 l-73 0 ZM388 652 q-10 34 -35 65 q309 5 507 50 l43 -58 q-215 -45 -515 -57 ZM771 443 q-31 27 -63 29 q85 87 140 179 l60 -38 q-71 -104 -137 -170 ZM465 445 q-43 71 -104 138 l63 26 q49 -54 96 -122 l-55 -42 ZM634 482 q-31 64 -89 142 l67 18 q45 -57 80 -123 l-58 -37 Z" /><glyph glyph-name="" unicode="&#x4fdd;" d="M408 455 l0 294 l453 0 l0 -294 l-191 0 l0 -111 l264 0 l0 -66 l-224 0 q94 -145 258 -235 q-41 -21 -64 -52 q-145 93 -234 251 l0 -338 l-72 0 l0 336 q-95 -160 -249 -252 q-27 29 -63 45 q173 97 271 245 l-225 0 l0 66 l266 0 l0 111 l-190 0 ZM192 -96 l0 552 q-46 -68 -97 -120 q-29 28 -66 38 q173 187 249 425 l68 -33 q-31 -93 -81 -190 l0 -672 l-73 0 ZM480 521 l307 0 l0 161 l-307 0 l0 -161 Z" /><glyph glyph-name="" unicode="&#x4fe1;" d="M380 -96 l0 324 l514 0 l0 -324 l-75 0 l0 57 l-364 0 l0 -57 l-75 0 ZM190 -96 l0 548 q-42 -66 -91 -124 q-26 31 -64 47 q156 177 229 424 l70 -33 q-32 -97 -69 -177 l0 -685 l-75 0 ZM328 611 l0 67 l286 0 q-29 54 -63 99 l76 20 q35 -48 72 -119 l246 0 l0 -67 l-617 0 ZM455 161 l0 -132 l364 0 l0 132 l-364 0 ZM382 315 l0 63 l512 0 l0 -63 l-512 0 ZM382 463 l0 63 l512 0 l0 -63 l-512 0 Z" /><glyph glyph-name="" unicode="&#x4fe9;" d="M312 674 l0 66 l613 0 l0 -66 l-192 0 l0 -142 l164 0 l0 -509 q2 -114 -108 -112 q-37 0 -66 4 q-2 36 -19 70 q37 -5 70 -5 q58 -2 56 53 l0 102 l-45 -42 q-37 88 -76 157 q-24 -103 -86 -194 q-24 19 -64 25 q112 143 110 388 l-107 0 q-1 -64 -9 -120 q37 -50 77 -121 l-43 -46 q-26 48 -50 88 q-25 -103 -89 -199 q-28 17 -54 23 l0 -190 l-66 0 l0 628 l170 0 l0 142 l-186 0 ZM168 -96 l0 552 q-44 -71 -79 -108 q-21 25 -61 42 q151 172 209 412 l66 -31 q-26 -93 -67 -183 l0 -684 l-68 0 ZM394 469 l0 -358 q100 130 103 358 l-103 0 ZM830 469 l-98 0 q-3 -72 -9 -130 q57 -88 107 -186 l0 316 ZM563 674 l0 -142 l106 0 l0 142 l-106 0 Z" /><glyph glyph-name="" unicode="&#x4fed;" d="M176 -96 l0 540 q-47 -61 -85 -99 q-22 29 -65 45 q170 168 251 410 l68 -33 q-40 -114 -95 -209 l0 -654 l-74 0 ZM914 397 q-198 112 -298 278 q-100 -167 -274 -284 q-24 33 -62 48 q222 140 319 361 l66 -30 q-2 -4 -7 -14 q-4 -9 -7 -14 q117 -194 319 -284 q-35 -22 -56 -61 ZM314 -58 l0 64 l353 0 q81 183 126 338 l68 -30 q-53 -159 -119 -308 l182 0 l0 -64 l-610 0 ZM446 402 l0 63 l343 0 l0 -63 l-343 0 ZM459 48 q-52 151 -97 246 l69 16 q47 -99 92 -230 l-64 -32 ZM617 105 q-39 138 -77 221 l69 14 q39 -91 72 -208 l-64 -27 Z" /><glyph glyph-name="" unicode="&#x4fee;" d="M923 349 q-139 38 -244 99 q-105 -67 -247 -107 q-18 36 -51 57 l0 -335 l-67 0 l0 546 l67 0 l0 -207 q129 25 238 85 q-53 39 -95 85 q-33 -38 -65 -65 q-31 24 -61 32 q133 118 189 262 l61 -31 q-15 -36 -32 -65 l260 0 l0 -50 q-47 -92 -137 -165 q105 -51 230 -75 q-29 -30 -46 -66 ZM166 -96 l0 545 q-43 -66 -79 -107 q-26 29 -58 46 q149 173 219 410 l64 -33 q-30 -96 -76 -188 l0 -673 l-70 0 ZM457 -101 q-18 31 -52 60 q298 53 476 197 l53 -44 q-185 -157 -477 -213 ZM492 60 q-20 33 -51 56 q225 49 360 160 l52 -45 q-151 -117 -361 -171 ZM487 211 q-19 31 -48 55 q199 45 286 121 l53 -42 q-128 -96 -291 -134 ZM795 647 l-215 0 q-9 -15 -19 -28 q49 -52 115 -95 q82 60 119 123 Z" /><glyph glyph-name="" unicode="&#x4fef;" d="M320 -83 q-29 22 -67 30 q100 150 95 441 l0 296 l281 0 q-30 61 -60 99 l70 16 q48 -71 69 -115 l230 0 l0 -64 l-521 0 l0 -233 q0 -31 0 -47 q0 -18 -1 -33 q109 139 157 298 l60 -32 q-25 -69 -59 -138 l0 -531 l-66 0 l0 415 q-37 -55 -63 -83 q-16 18 -32 27 q-9 -197 -93 -346 ZM173 -96 l0 534 q-38 -62 -80 -113 q-28 29 -60 44 q145 176 218 429 l66 -30 q-32 -108 -77 -203 l0 -661 l-67 0 ZM611 365 l0 64 l187 0 l0 161 l68 0 l0 -161 l78 0 l0 -64 l-78 0 l0 -346 q0 -106 -103 -106 q-39 0 -68 6 q-2 37 -17 68 q35 -7 67 -7 q56 -3 53 51 l0 334 l-187 0 ZM710 108 q-42 85 -99 168 l60 21 q52 -73 89 -145 l-50 -44 Z" /><glyph glyph-name="" unicode="&#x4ff1;" d="M309 99 l0 63 l94 0 l0 586 l453 0 l0 -586 l94 0 l0 -63 l-641 0 ZM181 -96 l0 548 q-48 -72 -85 -111 q-21 27 -67 45 q151 163 233 413 l69 -34 q-28 -85 -76 -183 l0 -678 l-74 0 ZM477 253 l0 -91 l304 0 l0 91 l-304 0 ZM477 687 l0 -89 l304 0 l0 89 l-304 0 ZM477 397 l0 -89 l304 0 l0 89 l-304 0 ZM477 542 l0 -89 l304 0 l0 89 l-304 0 ZM374 -99 q-26 31 -58 47 q126 51 215 132 l54 -41 q-92 -83 -211 -138 ZM904 -97 q-96 71 -218 136 l51 42 q89 -45 195 -117 l-28 -61 Z" /><glyph glyph-name="" unicode="&#x4ffa;" d="M375 92 l0 299 q-12 -9 -38 -25 q-14 -8 -21 -13 q-23 31 -57 49 q167 90 242 215 l-161 0 l0 62 l193 0 q24 55 35 119 l70 -14 q-15 -66 -31 -105 l301 0 l0 -62 l-187 0 q86 -127 247 -190 q-32 -21 -56 -57 q-37 17 -63 36 l0 -314 l-202 0 l0 -45 q-3 -55 54 -52 l99 0 q48 -2 61 44 q8 20 16 63 q28 -29 56 -41 q-3 -13 -10 -36 q-3 -12 -5 -18 q-23 -78 -113 -76 l-116 0 q-117 -3 -113 111 l0 50 l-201 0 ZM96 348 q-22 26 -66 45 q146 157 230 403 l68 -37 q-30 -86 -75 -175 l0 -680 l-73 0 l0 554 q-51 -75 -84 -110 ZM579 617 q-52 -103 -150 -184 l147 0 l0 94 l71 0 l0 -94 l162 0 q-102 76 -162 184 l-68 0 ZM782 375 l-135 0 l0 -86 l135 0 l0 86 ZM647 149 l135 0 l0 86 l-135 0 l0 -86 ZM443 375 l0 -86 l133 0 l0 86 l-133 0 ZM443 149 l133 0 l0 86 l-133 0 l0 -86 Z" /><glyph glyph-name="" unicode="&#x500d;" d="M399 -94 l0 357 l465 0 l0 -357 l-75 0 l0 62 l-315 0 l0 -62 l-75 0 ZM190 -95 l0 546 q-44 -66 -94 -119 q-26 29 -64 43 q162 174 239 424 l70 -34 q-26 -81 -76 -185 l0 -675 l-75 0 ZM316 349 l0 66 l210 0 q-47 79 -101 144 l66 26 q55 -66 100 -139 l-47 -31 l119 0 q58 80 104 177 l66 -26 q-35 -72 -90 -151 l207 0 l0 -66 l-634 0 ZM474 198 l0 -167 l315 0 l0 167 l-315 0 ZM362 604 l0 65 l261 0 q-51 62 -95 103 l69 31 q65 -63 98 -108 l-40 -26 l247 0 l0 -65 l-540 0 Z" /><glyph glyph-name="" unicode="&#x5012;" d="M169 -95 l0 552 q-49 -74 -82 -106 q-27 29 -59 43 q146 161 223 407 l65 -34 q-28 -89 -79 -189 l0 -673 l-68 0 ZM795 -87 q-38 0 -80 6 q-3 38 -19 70 q50 -8 87 -8 q54 -1 53 56 l0 752 l70 0 l0 -758 q0 -119 -111 -118 ZM311 643 l0 63 l340 0 l0 -63 l-151 0 q-40 -98 -103 -202 l166 10 q-43 70 -63 97 l58 22 q69 -99 116 -188 l-50 -39 q-11 23 -28 50 l-216 -15 q-36 -3 -64 -12 l-29 55 q33 10 57 52 q46 74 84 170 l-117 0 ZM316 207 l0 61 l129 0 l0 89 l66 0 l0 -89 l124 0 l0 -61 l-124 0 l0 -134 l136 25 l23 -55 l-366 -75 l-31 62 l172 31 l0 146 l-129 0 ZM696 121 l0 532 l63 0 l0 -532 l-63 0 Z" /><glyph glyph-name="" unicode="&#x5014;" d="M337 -89 q-26 19 -72 29 q101 150 96 446 l0 364 l536 0 l0 -223 l-466 0 l0 -138 q2 -313 -94 -478 ZM491 236 l0 206 l63 0 l0 -148 l108 0 l0 195 l66 0 l0 -195 l108 0 l0 147 l62 0 l0 -205 l-170 0 l0 -215 l125 0 l0 153 l64 0 l0 -270 l-64 0 l0 57 l-380 0 l0 213 l64 0 l0 -153 l125 0 l0 215 l-171 0 ZM181 -95 l0 557 q-48 -79 -85 -119 q-25 27 -63 39 q142 162 219 419 l66 -28 q-22 -79 -68 -178 l0 -690 l-69 0 ZM431 690 l0 -104 l395 0 l0 104 l-395 0 Z" /><glyph glyph-name="" unicode="&#x5018;" d="M367 -96 l0 601 l232 0 l0 289 l72 0 l0 -289 l234 0 l0 -482 q0 -112 -101 -111 q-48 0 -69 4 q-2 36 -17 69 q39 -5 72 -6 q46 -1 45 51 l0 413 l-399 0 l0 -539 l-69 0 ZM182 -96 l0 558 q-49 -75 -98 -125 q-30 30 -60 43 q155 157 241 420 l66 -29 q-26 -79 -80 -188 l0 -679 l-69 0 ZM520 72 l0 279 l232 0 l0 -279 l-232 0 ZM575 127 l120 0 l0 170 l-120 0 l0 -170 ZM776 546 q-21 18 -55 31 q81 84 122 165 l56 -38 q-65 -101 -123 -158 ZM491 551 q-56 84 -126 151 l61 31 q62 -66 113 -137 l-48 -45 Z" /><glyph glyph-name="" unicode="&#x5019;" d="M494 255 q-25 18 -67 22 q81 103 108 231 l63 -24 q-9 -35 -20 -65 l306 0 l0 -62 l-167 0 q-1 -61 -9 -122 q0 -1 -1 -4 q0 -3 -1 -4 l231 0 l0 -61 l-203 0 q72 -135 231 -202 q-35 -26 -51 -58 q-162 79 -231 230 q-54 -154 -248 -235 q-16 30 -55 55 q192 70 241 210 l-197 0 l0 61 l212 0 q1 0 1 2 q9 54 10 128 l-93 0 q-24 -52 -60 -102 ZM165 -96 l0 548 q-45 -67 -77 -102 q-25 29 -61 42 q149 167 221 409 l66 -33 q-27 -87 -79 -192 l0 -672 l-70 0 ZM427 519 l0 62 l318 0 l17 106 l-286 0 l0 60 l363 0 l-24 -166 l104 0 l0 -62 l-492 0 ZM315 80 l0 557 l66 0 l0 -557 l-66 0 Z" /><glyph glyph-name="" unicode="&#x501a;" d="M188 -97 l0 552 q-53 -81 -101 -129 q-25 27 -64 42 q165 181 246 430 l68 -32 q-28 -82 -76 -182 l0 -681 l-73 0 ZM309 368 l0 62 l636 0 l0 -62 l-103 0 l0 -335 q1 -125 -121 -124 q-36 0 -75 4 q-2 39 -19 72 q58 -6 81 -6 q64 -3 61 62 l0 327 l-460 0 ZM850 443 q-116 63 -255 115 q-49 -71 -187 -118 q-24 30 -59 46 q171 49 206 144 l-198 0 l0 63 l215 0 q6 44 3 103 l77 -5 q-2 -61 -7 -98 l235 0 l0 -63 l-249 0 q-3 -10 -7 -19 q109 -36 250 -101 l-24 -67 ZM371 66 l0 232 l283 0 l0 -232 l-283 0 ZM438 123 l150 0 l0 117 l-150 0 l0 -117 Z" /><glyph glyph-name="" unicode="&#x501f;" d="M394 -96 l0 428 l466 0 l0 -428 l-72 0 l0 53 l-321 0 l0 -53 l-73 0 ZM351 605 l0 63 l125 0 l0 125 l70 0 l0 -125 l161 0 l0 125 l70 0 l0 -125 l129 0 l0 -63 l-129 0 l0 -128 l170 0 l0 -62 l-637 0 l0 62 l166 0 l0 128 l-125 0 ZM183 -96 l0 555 q-45 -69 -92 -121 q-24 28 -65 48 q161 172 242 413 l67 -32 q-25 -80 -80 -187 l0 -676 l-72 0 ZM467 116 l0 -95 l321 0 l0 95 l-321 0 ZM467 269 l0 -93 l321 0 l0 93 l-321 0 ZM546 605 l0 -128 l161 0 l0 128 l-161 0 Z" /><glyph glyph-name="" unicode="&#x5021;" d="M353 -96 l0 419 l543 0 l0 -419 l-73 0 l0 58 l-396 0 l0 -58 l-74 0 ZM392 405 l0 341 l463 0 l0 -341 l-463 0 ZM177 -96 l0 528 q-37 -57 -81 -106 q-22 28 -64 42 q162 190 222 435 l71 -33 q-27 -100 -75 -204 l0 -662 l-73 0 ZM427 116 l0 -96 l396 0 l0 96 l-396 0 ZM427 265 l0 -95 l396 0 l0 95 l-396 0 ZM466 462 l316 0 l0 87 l-316 0 l0 -87 ZM466 687 l0 -85 l316 0 l0 85 l-316 0 Z" /><glyph glyph-name="" unicode="&#x5026;" d="M555 -67 q-119 -1 -118 111 l0 198 q-54 -52 -119 -96 q-21 25 -61 43 l0 -285 l-72 0 l0 551 q-42 -66 -87 -120 q-31 30 -63 44 q159 184 229 418 l66 -31 q-26 -82 -73 -182 l0 -394 q135 79 214 203 l-164 0 l0 60 l197 0 q16 30 36 88 l-193 0 l0 61 l210 0 q21 95 20 197 l72 -8 q-4 -107 -22 -189 l259 0 l0 -61 l-274 0 q-13 -47 -33 -88 l347 0 l0 -60 l-196 0 q89 -106 227 -159 q-32 -18 -55 -55 q-67 33 -125 80 l0 -75 q2 -108 -101 -106 q-28 0 -58 3 q-3 36 -19 62 q43 -7 67 -7 q47 1 48 52 l0 49 l-206 0 l0 -184 q0 -55 56 -55 l186 0 q57 -2 71 60 q7 23 13 51 q22 -27 56 -43 q-4 -21 -14 -50 q-23 -86 -124 -83 l-197 0 ZM550 393 q-37 -64 -65 -96 l250 0 q-45 43 -78 96 l-107 0 ZM741 621 q-24 20 -56 33 q66 54 112 117 l55 -34 q-50 -62 -111 -116 ZM476 623 q-51 64 -107 114 l56 31 q53 -50 99 -106 l-48 -39 Z" /><glyph glyph-name="" unicode="&#x503a;" d="M361 658 l0 58 l231 0 l0 80 l71 0 l0 -80 l232 0 l0 -58 l-232 0 l0 -68 l200 0 l0 -57 l-200 0 l0 -69 l286 0 l0 -59 l-639 0 l0 59 l282 0 l0 69 l-199 0 l0 57 l199 0 l0 68 l-231 0 ZM180 -96 l0 547 q-46 -66 -89 -108 q-26 29 -65 39 q160 167 240 413 l66 -32 q-27 -88 -81 -193 l0 -666 l-71 0 ZM392 66 l0 271 l472 0 l0 -270 l-72 0 l0 212 l-328 0 l0 -213 l-72 0 ZM350 -98 q-16 33 -48 61 q309 29 291 283 l70 -10 q6 -290 -313 -334 ZM902 -99 q-129 79 -276 144 l42 51 q135 -55 258 -127 l-24 -68 Z" /><glyph glyph-name="" unicode="&#x503c;" d="M345 631 l0 63 l235 0 l13 101 l75 0 l-14 -101 l262 0 l0 -63 l-270 0 l-10 -81 l216 0 l0 -548 l99 0 l0 -64 l-646 0 l0 64 l94 0 l0 548 l164 0 l10 81 l-228 0 ZM186 -96 l0 557 q-44 -71 -91 -122 q-26 30 -67 39 q156 169 234 417 l67 -31 q-24 -78 -71 -176 l0 -684 l-72 0 ZM474 84 l0 -82 l304 0 l0 82 l-304 0 ZM474 488 l0 -80 l304 0 l0 80 l-304 0 ZM474 354 l0 -80 l304 0 l0 80 l-304 0 ZM474 220 l0 -81 l304 0 l0 81 l-304 0 Z" /><glyph glyph-name="" unicode="&#x503e;" d="M500 686 l0 62 l443 0 l0 -62 l-178 0 q-18 -66 -43 -120 l185 0 l0 -461 l-66 0 l0 399 l-237 0 l0 -400 l-66 0 l0 462 l113 0 q22 45 41 120 l-192 0 ZM161 -96 l0 552 q-45 -71 -77 -103 q-18 23 -60 41 q143 163 214 408 l66 -30 q-27 -92 -74 -192 l0 -676 l-69 0 ZM343 41 l-38 58 q22 22 21 73 l0 560 l65 0 l0 -211 l103 0 l0 -62 l-103 0 l0 -300 l90 57 l37 -50 l-118 -79 q-31 -16 -57 -46 ZM511 -98 q-22 30 -56 51 q245 91 236 313 l0 162 l64 0 l0 -167 q0 -90 -28 -157 l35 26 q116 -82 201 -161 l-35 -62 q-79 76 -209 176 q-55 -112 -208 -181 Z" /><glyph glyph-name="" unicode="&#x5047;" d="M349 -96 l0 846 l252 0 l0 -282 l-182 0 l0 -102 l166 0 l0 -64 l-166 0 l0 -117 l174 0 l0 -62 l-174 0 l0 -219 l-70 0 ZM176 -96 l0 551 q-42 -69 -76 -107 q-28 29 -63 42 q147 178 206 411 l67 -28 q-24 -92 -65 -183 l0 -686 l-69 0 ZM914 -92 q-94 54 -151 121 q-75 -77 -181 -122 q-23 31 -57 47 q122 48 198 127 q-55 87 -82 207 l58 19 q20 -99 67 -174 q48 71 68 176 l-208 0 l0 64 l274 0 l0 -56 q-28 -147 -95 -238 q65 -75 164 -117 q-37 -22 -55 -54 ZM644 467 l0 63 l178 0 l0 157 l-178 0 l0 63 l249 0 l0 -283 l-249 0 ZM419 689 l0 -160 l115 0 l0 160 l-115 0 Z" /><glyph glyph-name="" unicode="&#x504e;" d="M371 397 l0 354 l489 0 l0 -354 l-489 0 ZM298 266 l0 60 l628 0 l0 -60 l-280 0 q29 -76 67 -126 q82 48 139 101 l53 -40 q-70 -60 -154 -106 q77 -79 211 -127 q-37 -24 -58 -56 q-251 107 -327 354 l-107 0 l0 -253 l130 58 l35 -52 l-166 -80 q-31 -13 -59 -40 l-37 58 q28 26 27 75 l0 234 l-102 0 ZM171 -96 l0 548 q-44 -70 -86 -120 q-26 30 -62 44 q149 173 225 425 l68 -34 q-30 -93 -74 -184 l0 -679 l-71 0 ZM647 456 l143 0 l0 91 l-143 0 l0 -91 ZM439 692 l0 -91 l143 0 l0 91 l-143 0 ZM790 692 l-143 0 l0 -91 l143 0 l0 91 ZM439 456 l143 0 l0 91 l-143 0 l0 -91 Z" /><glyph glyph-name="" unicode="&#x504f;" d="M100 334 q-24 29 -64 43 q155 182 219 421 l68 -30 q-34 -116 -77 -204 l0 -584 q112 165 107 460 l0 250 l247 0 q-37 59 -63 89 l76 16 q37 -46 70 -105 l205 0 l0 -227 l-464 0 l0 -20 q0 -45 -2 -87 q-13 -250 -118 -417 q-26 23 -58 32 l0 -67 l-70 0 l0 533 q-36 -54 -76 -103 ZM706 -12 l0 150 l-80 0 l0 -167 l-57 0 l0 167 l-78 0 l0 -233 l-63 0 l0 477 l481 0 l0 -370 q2 -104 -98 -101 q-26 0 -50 3 q-4 33 -17 62 q38 -4 58 -4 q44 -3 41 48 l0 118 l-80 0 l0 -150 l-57 0 ZM424 630 l0 -107 l396 0 l0 107 l-396 0 ZM843 323 l-80 0 l0 -127 l80 0 l0 127 ZM626 323 l0 -127 l80 0 l0 127 l-80 0 ZM491 323 l0 -127 l78 0 l0 127 l-78 0 Z" /><glyph glyph-name="" unicode="&#x505a;" d="M607 358 q-12 16 -28 27 l0 -370 l-66 0 l0 43 l-133 0 l0 -82 l-66 0 l0 414 l97 0 l0 158 l-123 0 l0 63 l123 0 l0 184 l68 0 l0 -184 l121 0 l0 -63 l-121 0 l0 -158 l93 0 q-7 5 -18 9 q117 173 147 400 l67 -22 q-15 -85 -43 -168 l226 0 l0 -66 l-67 0 q-7 -249 -88 -405 q69 -108 179 -178 q-38 -21 -62 -54 q-95 76 -155 168 q-67 -100 -174 -173 q-20 27 -59 48 q126 82 194 190 q-58 109 -84 262 q-2 -4 -7 -11 q-13 -22 -21 -32 ZM162 -96 l0 547 q-43 -71 -77 -109 q-26 25 -60 39 q149 181 211 423 l66 -30 q-25 -85 -72 -192 l0 -678 l-68 0 ZM703 543 q-10 -26 -21 -50 q21 -163 75 -281 q59 136 62 331 l-116 0 ZM380 327 l0 -206 l133 0 l0 206 l-133 0 Z" /><glyph glyph-name="" unicode="&#x505c;" d="M405 395 l0 191 l415 0 l0 -191 l-415 0 ZM171 -96 l0 538 q-37 -57 -78 -106 q-27 30 -62 44 q153 176 218 420 l68 -34 q-32 -103 -75 -194 l0 -668 l-71 0 ZM304 183 l0 158 l617 0 l0 -158 l-69 0 l0 98 l-476 0 l0 -98 l-72 0 ZM402 146 l0 59 l423 0 l0 -59 l-159 0 l0 -128 q0 -105 -114 -105 q-34 0 -68 4 q-3 41 -20 71 q43 -8 74 -8 q57 -1 56 50 l0 116 l-192 0 ZM332 640 l0 60 l267 0 q-42 49 -79 82 l74 23 q67 -62 94 -101 l-9 -4 l214 0 l0 -60 l-561 0 ZM476 452 l275 0 l0 78 l-275 0 l0 -78 Z" /><glyph glyph-name="" unicode="&#x5065;" d="M486 517 l0 56 l175 0 l0 79 l-138 0 l0 57 l138 0 l0 87 l63 0 l0 -87 l154 0 l0 -136 l71 0 l0 -56 l-71 0 l0 -137 l-154 0 l0 -76 l171 0 l0 -58 l-171 0 l0 -77 l203 0 l0 -57 l-203 0 l0 -97 l-63 0 l0 97 l-170 0 l0 57 l170 0 l0 77 l-143 0 l0 58 l143 0 l0 76 l-138 0 l0 57 l138 0 l0 80 l-175 0 ZM934 -67 q-163 0 -233 3 q-81 4 -130 15 q-105 16 -171 79 q-33 -64 -95 -124 q-22 22 -62 35 q71 60 110 141 q-51 71 -84 176 l52 33 q27 -83 58 -137 q30 99 30 221 l-61 0 q-28 0 -48 -6 l-19 54 q30 11 48 56 l71 164 l-109 0 l0 63 l183 0 l0 -54 l-95 -218 l92 0 l0 -50 q0 -177 -44 -294 q55 -56 150 -71 q130 -24 381 -13 q-19 -35 -24 -73 ZM159 -96 l0 552 q-46 -73 -75 -104 q-23 25 -60 39 q144 173 208 412 l65 -30 q-25 -87 -70 -188 l0 -681 l-68 0 ZM724 437 l93 0 l0 80 l-93 0 l0 -80 ZM817 652 l-93 0 l0 -79 l93 0 l0 79 Z" /><glyph glyph-name="" unicode="&#x5076;" d="M476 50 l-26 61 q68 3 139 9 l0 124 l-169 0 l0 -340 l-70 0 l0 399 l239 0 l0 84 l-200 0 l0 363 l469 0 l0 -363 l-201 0 l0 -84 l250 0 l0 -277 q-1 -112 -112 -113 q-35 0 -77 4 q-2 34 -23 65 q6 0 19 -2 q45 -4 65 -4 q59 -1 58 58 l0 210 l-180 0 l0 -117 q21 2 62 7 q9 1 14 2 q-1 3 -4 9 q-13 32 -21 47 l48 10 q41 -77 63 -142 l-46 -23 q-1 3 -4 11 q-9 28 -16 42 q-124 -22 -277 -40 ZM184 -96 l0 540 q-49 -79 -88 -121 q-26 27 -66 41 q156 174 241 437 l68 -29 q-30 -93 -84 -202 l0 -666 l-71 0 ZM657 446 l132 0 l0 97 l-132 0 l0 -97 ZM458 446 l131 0 l0 97 l-131 0 l0 -97 ZM789 691 l-132 0 l0 -96 l132 0 l0 96 ZM458 691 l0 -96 l131 0 l0 96 l-131 0 Z" /><glyph glyph-name="" unicode="&#x5077;" d="M349 -94 l0 523 l250 0 l0 -427 q1 -94 -86 -93 q-22 0 -52 4 q-2 39 -19 64 q38 -8 58 -8 q37 -2 35 42 l0 78 l-121 0 l0 -183 l-65 0 ZM466 497 l0 51 q-59 -44 -127 -80 q-20 33 -61 50 q230 105 320 287 l66 -31 q-9 -13 -16 -27 q123 -146 312 -208 q-36 -24 -55 -62 q-79 35 -134 73 l0 -53 l-305 0 ZM180 -95 l0 539 q-45 -63 -89 -106 q-20 27 -60 44 q157 159 247 416 l65 -35 q-27 -86 -91 -202 l0 -656 l-72 0 ZM779 -90 q-34 0 -66 5 q-2 39 -23 68 q53 -7 75 -7 q44 -2 42 44 l0 415 l68 0 l0 -421 q-1 -103 -96 -104 ZM673 70 l0 317 l59 0 l0 -317 l-59 0 ZM612 694 q-56 -74 -136 -138 l287 0 q-85 57 -151 138 ZM414 231 l0 -87 l121 0 l0 87 l-121 0 ZM414 372 l0 -86 l121 0 l0 86 l-121 0 Z" /><glyph glyph-name="" unicode="&#x507f;" d="M861 -99 q-12 17 -37 50 q-11 14 -16 21 l-341 -31 q-34 -2 -76 -17 l-32 65 q38 14 69 52 q49 58 104 154 l-212 0 l0 66 l616 0 l0 -66 l-323 0 q-60 -104 -124 -186 l272 22 q-8 9 -23 27 q-39 44 -59 66 l60 30 q94 -95 171 -201 l-49 -52 ZM176 -96 l0 553 q-48 -77 -83 -114 q-26 27 -63 41 q145 165 222 415 l66 -28 q-25 -85 -72 -183 l0 -684 l-70 0 ZM332 421 l0 173 l258 0 l0 197 l72 0 l0 -197 l259 0 l0 -173 l-70 0 l0 109 l-449 0 l0 -109 l-70 0 ZM431 362 l0 65 l392 0 l0 -65 l-392 0 ZM768 611 q-29 21 -59 30 q69 62 116 132 l59 -34 q-54 -72 -116 -128 ZM486 612 q-62 74 -117 124 l60 31 q61 -54 105 -112 l-48 -43 Z" /><glyph glyph-name="" unicode="&#x5080;" d="M376 291 l0 404 l164 0 q33 52 53 107 l73 -20 q-25 -52 -45 -87 l251 0 l0 -404 l-237 0 q-3 -11 -10 -34 q-3 -11 -5 -17 l45 0 l0 -192 q-2 -56 52 -54 l104 0 q52 -6 68 60 q0 1 0 3 q1 5 4 14 l-22 -15 q-5 13 -13 27 l-117 -11 q-24 -3 -45 -12 l-30 44 q26 16 39 43 q30 65 49 130 l49 -15 q-30 -87 -59 -143 l92 9 q-17 32 -43 75 l44 16 q38 -60 66 -119 q22 -24 51 -35 q-4 -27 -10 -46 q-20 -90 -118 -86 l-120 0 q-108 -2 -107 106 l0 148 q-78 -170 -254 -281 q-24 29 -66 47 q222 134 283 338 l-186 0 ZM189 -94 l0 558 q-52 -78 -91 -117 q-23 27 -63 45 q151 157 241 409 l65 -37 q-30 -86 -80 -181 l0 -677 l-72 0 ZM649 355 l151 0 l0 109 l-140 0 q-2 -57 -11 -109 ZM448 632 l0 -109 l142 0 l0 109 l-142 0 ZM800 632 l-139 0 l0 -109 l139 0 l0 109 ZM448 355 l129 0 q11 51 12 109 l-141 0 l0 -109 Z" /><glyph glyph-name="" unicode="&#x5085;" d="M578 224 l0 60 l-153 0 l0 -67 l-70 0 l0 359 l223 0 l0 62 l-256 0 l0 57 l256 0 l0 101 l70 0 l0 -101 l131 0 q-40 37 -87 71 l53 32 q57 -42 85 -71 l-32 -32 l121 0 l0 -57 l-271 0 l0 -62 l224 0 l0 -359 l-64 0 l0 -39 l143 0 l0 -57 l-143 0 l0 -102 q-1 -106 -106 -107 q-43 0 -72 3 q-3 35 -21 68 q50 -6 82 -6 q46 -1 45 50 l0 94 l-446 0 l0 57 l446 0 l0 61 l67 0 l0 45 l-155 0 l0 -60 l-70 0 ZM173 -96 l0 559 q-48 -76 -88 -122 q-19 27 -60 45 q145 164 221 416 l67 -29 q-31 -98 -70 -180 l0 -689 l-70 0 ZM648 402 l0 -68 l155 0 l0 68 l-155 0 ZM803 520 l-155 0 l0 -68 l155 0 l0 68 ZM425 520 l0 -68 l153 0 l0 68 l-153 0 ZM425 402 l0 -68 l153 0 l0 68 l-153 0 ZM506 -36 q-43 60 -105 119 l64 32 q51 -49 95 -105 l-54 -46 Z" /><glyph glyph-name="" unicode="&#x508d;" d="M708 354 l-36 -23 l266 0 l0 -63 l-360 0 q-3 -43 -9 -80 l287 0 l-14 -160 q-6 -115 -122 -114 q-38 0 -80 7 q-3 36 -19 69 q39 -9 87 -9 q61 -2 62 57 l8 88 l-225 0 q-42 -147 -198 -226 q-26 34 -66 54 q210 89 216 314 l-181 0 l0 63 l308 0 q-38 45 -82 84 l71 29 q40 -36 87 -90 ZM184 -96 l0 566 q-46 -75 -94 -129 q-23 27 -62 45 q155 171 231 415 l68 -34 q-29 -83 -73 -174 l0 -689 l-70 0 ZM589 539 l-33 -22 l119 0 q39 45 80 115 l67 -24 q-30 -49 -65 -91 l160 0 l0 -148 l-71 0 l0 86 l-431 0 l0 -86 l-70 0 l0 148 l175 0 q-36 47 -81 90 l68 24 q46 -46 82 -92 ZM700 716 l-30 -18 l250 0 l0 -64 l-574 0 l0 64 l274 0 q-45 52 -78 82 l76 25 q47 -46 82 -89 Z" /><glyph glyph-name="" unicode="&#x50a8;" d="M525 601 l0 62 l114 0 l0 132 l67 0 l0 -132 l109 0 l0 -62 l-109 0 l0 -117 l32 0 q87 101 140 221 l59 -29 q-48 -106 -115 -192 l129 0 l0 -61 l-180 0 q-41 -47 -92 -90 l212 0 l0 -429 l-67 0 l0 50 l-186 0 l0 -50 l-67 0 l0 346 q-42 -27 -85 -52 q-16 26 -54 45 q141 74 248 180 l-198 0 l0 61 l157 0 l0 117 l-114 0 ZM170 -96 l0 563 q-45 -70 -82 -109 q-27 28 -60 41 q150 170 220 399 l64 -33 q-30 -89 -73 -174 l0 -687 l-69 0 ZM370 -55 l-42 54 q30 29 27 79 l0 351 l-84 0 l0 66 l152 0 l0 -417 l82 65 l37 -43 l-134 -116 q-25 -21 -38 -39 ZM638 115 l0 -101 l186 0 l0 101 l-186 0 ZM638 273 l0 -100 l186 0 l0 100 l-186 0 ZM426 561 q-55 80 -113 140 l61 30 q67 -73 102 -126 l-50 -44 Z" /><glyph glyph-name="" unicode="&#x50ac;" d="M396 -96 l0 410 q-29 -37 -74 -79 q-23 28 -58 43 q138 126 208 292 l63 -33 q-20 -46 -39 -76 l187 0 q-34 41 -73 79 l64 24 q23 -21 62 -67 q14 -16 20 -23 l-22 -13 l187 0 l0 -59 l-201 0 l0 -88 l181 0 l0 -57 l-181 0 l0 -89 l181 0 l0 -57 l-181 0 l0 -92 l221 0 l0 -59 l-473 0 l0 -56 l-72 0 ZM184 -96 l0 561 q-46 -67 -91 -113 q-22 26 -62 45 q154 162 239 403 l66 -36 q-27 -81 -81 -183 l0 -677 l-71 0 ZM374 575 l0 185 l70 0 l0 -123 l156 0 l0 159 l71 0 l0 -159 l157 0 l0 123 l71 0 l0 -185 l-525 0 ZM468 111 l0 -92 l180 0 l0 92 l-180 0 ZM468 257 l0 -89 l180 0 l0 89 l-180 0 ZM468 402 l0 -88 l180 0 l0 88 l-180 0 Z" /><glyph glyph-name="" unicode="&#x50b2;" d="M297 624 l0 58 l132 0 l0 114 l64 0 l0 -114 l133 0 l0 -58 l-133 0 l0 -84 l113 0 l0 -57 l-113 0 l0 -89 l139 0 q-14 16 -45 26 q101 141 135 379 l62 -21 q-20 -109 -43 -177 l209 0 l0 -63 l-62 0 q-6 -270 -71 -409 q55 -99 154 -172 q-37 -15 -64 -47 q-73 68 -126 152 q-53 -88 -144 -159 q-23 24 -64 38 q116 79 173 187 q-59 123 -83 294 q-5 -8 -15 -22 q-8 -10 -11 -15 l0 -50 l-204 0 q0 -45 -3 -86 l176 0 l-12 -208 q-5 -99 -107 -98 q-34 0 -57 3 q-2 38 -19 61 q34 -6 71 -6 q48 -2 49 53 l9 137 l-116 0 q-25 -171 -127 -272 q-25 21 -64 27 q142 130 137 389 l-97 0 l0 59 l156 0 l0 89 l-114 0 l0 57 l114 0 l0 84 l-132 0 ZM163 -95 l0 557 q-48 -76 -79 -106 q-23 26 -57 38 q141 155 213 409 l63 -27 q-30 -98 -75 -195 l0 -676 l-65 0 ZM779 205 q44 118 46 333 l-105 0 q-24 -57 -52 -108 l48 23 q21 -141 63 -248 Z" /><glyph glyph-name="" unicode="&#x50bb;" d="M366 372 l0 345 l158 0 q30 45 48 92 l75 -21 q-23 -47 -39 -71 l259 0 l0 -345 l-110 0 q117 -74 185 -130 l-25 -57 q-105 85 -210 151 l44 36 l-385 0 ZM362 -99 q-19 34 -47 57 q164 25 264 82 q-51 40 -94 91 q-53 -49 -112 -86 q-25 25 -61 38 q166 98 244 235 l56 -28 q-11 -21 -25 -40 l224 0 l0 -52 q-43 -93 -117 -156 q110 -55 249 -73 q-28 -25 -45 -65 q-146 28 -260 96 q-112 -73 -276 -99 ZM434 429 l364 0 l0 230 l-364 0 l0 -230 ZM177 -96 l0 538 q-48 -82 -83 -121 q-30 27 -68 40 q150 181 222 435 l70 -29 q-25 -86 -71 -188 l0 -675 l-70 0 ZM737 441 q-43 31 -109 73 q-57 -40 -118 -71 q-20 23 -47 36 q53 23 117 64 q-34 21 -95 54 q-4 2 -6 3 l40 34 q64 -34 107 -60 q45 33 75 68 l50 -27 q-31 -31 -79 -69 q44 -27 88 -56 l-23 -49 ZM321 175 q-26 24 -57 39 q118 66 191 154 l54 -30 q-79 -96 -188 -163 ZM544 192 q-9 -11 -18 -19 q48 -55 108 -96 q61 48 99 115 l-189 0 Z" /><glyph glyph-name="" unicode="&#x50cf;" d="M380 379 l0 157 q-13 -11 -28 -20 q-25 26 -60 40 q155 96 231 243 l60 -31 q-15 -28 -34 -54 l262 0 l0 -46 l-85 -88 l160 0 l0 -201 l-291 0 q-7 -7 -15 -15 q58 -42 92 -106 q107 50 173 108 l55 -39 q-53 -42 -109 -72 q49 -155 175 -229 q-39 -15 -69 -43 q-106 85 -160 244 q-22 -11 -45 -20 q17 -52 18 -127 q4 -175 -157 -170 q-23 0 -51 2 q-2 39 -22 67 q37 -7 64 -7 q100 -7 95 110 q0 26 -3 48 q-124 -117 -307 -180 q-14 27 -52 50 q200 57 345 193 q-10 28 -25 54 q-97 -90 -264 -150 q-17 29 -53 47 q174 46 286 146 q-15 18 -34 34 q-79 -60 -195 -100 q-1 1 -2 3 q-20 31 -48 45 q137 39 221 107 l-128 0 ZM181 -96 l0 539 q-47 -73 -84 -116 q-24 28 -65 42 q151 169 230 430 l68 -31 q-27 -91 -80 -199 l0 -665 l-69 0 ZM508 659 q-33 -41 -75 -79 l205 0 l76 79 l-206 0 ZM818 525 l-144 0 q-11 -49 -37 -91 l181 0 l0 91 ZM449 434 l113 0 q32 42 47 91 l-160 0 l0 -91 Z" /><glyph glyph-name="" unicode="&#x50da;" d="M333 627 l0 61 l222 0 q10 42 15 113 l70 -12 q-5 -58 -14 -101 l271 0 l0 -61 l-221 0 q33 -60 80 -106 q54 46 78 77 l51 -39 q-35 -39 -83 -79 q72 -54 164 -79 q-32 -22 -47 -58 q-45 18 -86 40 l0 -236 l-177 0 l0 -132 q-1 -102 -103 -103 q-39 0 -66 5 q-1 31 -19 66 q48 -8 74 -8 q46 -2 44 50 l0 122 l-199 0 l0 227 q-36 -21 -74 -38 q-19 33 -54 48 q96 39 168 98 q-43 37 -90 70 l49 37 q36 -25 84 -65 q42 48 65 103 l-202 0 ZM174 -96 l0 548 q-51 -73 -90 -116 q-25 30 -64 48 q161 164 238 416 l67 -29 q-33 -104 -80 -196 l0 -671 l-71 0 ZM609 627 q-40 -105 -131 -186 l271 0 q-93 76 -140 186 ZM457 385 l0 -64 l308 0 l0 64 l-308 0 ZM457 204 l308 0 l0 65 l-308 0 l0 -65 ZM339 -70 q-20 23 -61 39 q106 69 171 152 l54 -38 q-65 -83 -164 -153 ZM890 -67 q-72 71 -176 146 l50 39 q93 -62 163 -129 l-37 -56 Z" /><glyph glyph-name="" unicode="&#x50e7;" d="M346 354 l0 310 l178 0 q-65 69 -106 103 l56 31 q53 -42 103 -98 l-37 -36 l121 0 q64 62 117 137 l60 -31 q-44 -56 -92 -106 l163 0 l0 -310 l-563 0 ZM391 -96 l0 382 l471 0 l0 -382 l-70 0 l0 47 l-330 0 l0 -47 l-71 0 ZM179 -96 l0 539 q-46 -69 -85 -113 q-25 29 -64 43 q155 169 237 427 l67 -31 q-27 -87 -84 -201 l0 -664 l-71 0 ZM416 410 l180 0 l0 198 l-180 0 l0 -198 ZM839 608 l-180 0 l0 -198 l180 0 l0 198 ZM462 93 l0 -86 l330 0 l0 86 l-330 0 ZM462 231 l0 -86 l330 0 l0 86 l-330 0 ZM739 443 q-22 22 -50 25 q42 47 74 107 l51 -25 q-35 -61 -75 -107 ZM519 443 q-34 60 -75 108 l52 21 q39 -44 68 -95 l-45 -34 Z" /><glyph glyph-name="" unicode="&#x50f5;" d="M349 31 l0 239 l526 0 l0 -239 l-526 0 ZM351 415 l0 236 l522 0 l0 -236 l-522 0 ZM171 -96 l0 550 q-42 -64 -87 -117 q-22 30 -59 45 q161 186 222 421 l66 -28 q-26 -97 -73 -197 l0 -674 l-69 0 ZM277 -68 l0 52 l672 0 l0 -52 l-672 0 ZM297 316 l0 53 l635 0 l0 -53 l-635 0 ZM328 697 l0 53 l585 0 l0 -53 l-585 0 ZM416 80 l162 0 l0 49 l-162 0 l0 -49 ZM645 80 l163 0 l0 49 l-163 0 l0 -49 ZM416 222 l0 -48 l162 0 l0 48 l-162 0 ZM808 222 l-163 0 l0 -48 l163 0 l0 48 ZM645 463 l161 0 l0 48 l-161 0 l0 -48 ZM418 463 l160 0 l0 48 l-160 0 l0 -48 ZM418 603 l0 -46 l160 0 l0 46 l-160 0 ZM806 603 l-161 0 l0 -46 l161 0 l0 46 Z" /><glyph glyph-name="" unicode="&#x50fb;" d="M162 -96 l0 556 q-45 -72 -79 -107 q-17 23 -59 41 q143 164 212 408 l65 -30 q-29 -94 -72 -188 l0 -506 q90 152 88 416 l0 244 l255 0 l0 -291 l-192 0 q-2 -60 -7 -118 l206 0 l0 -369 l-60 0 l0 60 l-104 0 l0 -77 l-62 0 l0 282 q-21 -104 -74 -194 q-18 20 -50 32 l0 -159 l-67 0 ZM590 331 l0 64 l176 0 q55 105 83 193 l60 -26 q-34 -87 -78 -167 l118 0 l0 -64 l-145 0 l0 -139 l122 0 l0 -63 l-122 0 l0 -224 l-67 0 l0 224 l-123 0 l0 63 l123 0 l0 139 l-147 0 ZM614 607 l0 62 l144 0 q-26 46 -75 112 l67 20 q51 -67 77 -118 l-25 -14 l125 0 l0 -62 l-313 0 ZM381 675 l0 -165 l128 0 l0 165 l-128 0 ZM415 268 l0 -186 l104 0 l0 186 l-104 0 ZM702 410 q-45 101 -79 154 l60 19 q41 -63 73 -142 l-54 -31 Z" /><glyph glyph-name="" unicode="&#x5112;" d="M307 284 l0 56 l627 0 l0 -56 l-307 0 q-13 -41 -32 -73 l303 0 l0 -195 q2 -108 -98 -106 q-23 0 -47 4 q0 37 -20 65 q30 -5 56 -5 q44 -3 41 48 l0 134 l-103 0 l0 -215 l-63 0 l0 215 l-99 0 l0 -220 l-64 0 l0 220 l-98 0 l0 -251 l-68 0 l0 306 l187 0 q17 31 35 73 l-250 0 ZM580 386 l0 196 l-202 0 l0 -145 l-60 0 l0 200 l262 0 l0 61 l-227 0 l0 55 l523 0 l0 -55 l-230 0 l0 -61 l264 0 l0 -200 l-62 0 l0 145 l-202 0 l0 -196 l-66 0 ZM175 -96 l0 541 q-45 -71 -82 -114 q-26 29 -63 43 q149 169 217 428 l68 -32 q-26 -97 -70 -191 l0 -675 l-70 0 ZM680 488 l0 41 l134 0 l0 -41 l-134 0 ZM413 488 l0 41 l133 0 l0 -41 l-133 0 ZM413 397 l0 40 l133 0 l0 -40 l-133 0 ZM680 397 l0 40 l134 0 l0 -40 l-134 0 Z" /><glyph glyph-name="" unicode="&#x5121;" d="M369 412 l0 336 l468 0 l0 -336 l-468 0 ZM628 -93 l0 444 l289 0 l0 -444 l-57 0 l0 56 l-176 0 l0 -56 l-56 0 ZM291 -93 l0 444 l284 0 l0 -444 l-55 0 l0 56 l-171 0 l0 -56 l-58 0 ZM159 -96 l0 515 q-34 -57 -68 -97 q-33 30 -62 41 q148 190 214 434 l68 -27 q-36 -120 -83 -222 l0 -644 l-69 0 ZM634 468 l136 0 l0 86 l-136 0 l0 -86 ZM436 468 l136 0 l0 86 l-136 0 l0 -86 ZM436 692 l0 -85 l136 0 l0 85 l-136 0 ZM770 692 l-136 0 l0 -85 l136 0 l0 85 ZM684 130 l0 -116 l62 0 l0 116 l-62 0 ZM798 130 l0 -116 l62 0 l0 116 l-62 0 ZM860 296 l-62 0 l0 -116 l62 0 l0 116 ZM684 296 l0 -116 l62 0 l0 116 l-62 0 ZM460 130 l0 -116 l60 0 l0 116 l-60 0 ZM520 296 l-60 0 l0 -116 l60 0 l0 116 ZM349 130 l0 -116 l59 0 l0 116 l-59 0 ZM349 296 l0 -116 l59 0 l0 116 l-59 0 Z" /><glyph glyph-name="" unicode="&#x513f;" d="M120 -83 q-32 34 -69 51 q165 102 211 211 q52 105 50 356 l0 239 l79 0 l0 -238 q20 -477 -271 -619 ZM720 -58 q-131 -1 -130 123 l0 709 l80 0 l0 -699 q0 -58 57 -58 l82 0 q53 -4 65 65 q8 34 15 82 q29 -33 66 -48 q-9 -46 -14 -65 q-22 -115 -123 -109 l-98 0 Z" /><glyph glyph-name="" unicode="&#x5141;" d="M115 -94 q-14 32 -53 68 q285 58 289 313 q0 8 1 26 q2 48 3 74 l-113 -5 q-48 -1 -87 -13 l-31 68 q45 15 85 58 q129 139 232 300 l77 -34 q-118 -173 -246 -307 l457 16 q-87 103 -147 164 l66 37 q131 -138 243 -286 l-52 -57 q-28 37 -58 77 l-138 -6 l0 -339 q2 -53 51 -55 l96 0 q54 -1 67 59 q8 35 12 70 q32 -32 66 -42 q-8 -40 -13 -56 q-24 -104 -122 -103 l-117 0 q-114 -1 -113 120 l0 343 l-141 -6 q-2 -71 -3 -110 q-12 -294 -311 -374 Z" /><glyph glyph-name="" unicode="&#x5143;" d="M695 -66 q-125 -4 -122 133 l0 329 l-156 0 q12 -373 -304 -489 q-25 34 -66 59 q169 66 228 157 q62 89 64 273 l-262 0 l0 70 l846 0 l0 -70 l-274 0 l0 -319 q-2 -71 63 -69 l87 0 q61 -2 72 62 q7 33 12 72 q29 -29 67 -42 q-6 -29 -11 -60 q-19 -110 -134 -106 l-110 0 ZM180 660 l0 68 l639 0 l0 -68 l-639 0 Z" /><glyph glyph-name="" unicode="&#x5144;" d="M689 -67 q-127 -5 -123 133 l0 268 l-144 0 q-2 -52 -4 -74 q-16 -272 -313 -356 q-25 40 -59 63 q288 65 298 300 q2 18 4 63 q0 3 0 4 l-158 0 l0 406 l620 0 l0 -406 l-170 0 l0 -260 q-1 -70 62 -69 l94 0 q64 -3 73 63 q9 44 12 72 q30 -30 67 -42 q-5 -21 -11 -57 q-23 -110 -131 -108 l-117 0 ZM268 404 l465 0 l0 266 l-465 0 l0 -266 Z" /><glyph glyph-name="" unicode="&#x5145;" d="M81 602 l0 68 l413 0 q-49 56 -107 107 l78 26 q63 -53 112 -113 l-31 -20 l371 0 l0 -68 l-411 0 q-91 -108 -205 -212 l388 13 q-42 40 -116 102 l59 39 q112 -91 231 -211 l-45 -58 q-10 10 -30 31 q-21 21 -32 32 l-117 -4 l0 -277 q2 -54 51 -56 l106 0 q53 -2 67 60 q6 28 12 70 q33 -31 66 -42 q-7 -33 -13 -57 q-24 -105 -122 -102 l-127 0 q-114 1 -114 119 l0 282 l-134 -4 l-1 -51 q-4 -286 -319 -369 q-15 34 -52 66 q293 67 298 307 l1 45 l-93 -3 q-54 -1 -84 -11 l-32 65 q44 9 82 43 q77 67 180 183 l-330 0 Z" /><glyph glyph-name="" unicode="&#x5146;" d="M859 181 q-97 70 -206 135 l0 -239 q-1 -66 61 -65 l99 0 q59 -3 71 63 q5 25 13 80 q28 -32 62 -44 q-6 -33 -11 -58 q-22 -114 -130 -113 l-115 0 q-128 -1 -127 127 l0 724 l77 0 l0 -394 q121 -65 244 -147 l-38 -69 ZM123 175 l-50 62 l283 158 q1 34 1 74 l0 322 l77 0 l0 -317 q2 -248 -61 -359 q-60 -116 -246 -209 q-28 33 -70 49 q285 122 293 362 l-227 -142 ZM731 447 l-61 40 q97 91 155 182 l64 -45 q-86 -114 -158 -177 ZM267 452 q-83 91 -173 163 l61 44 q101 -80 163 -150 l-51 -57 Z" /><glyph glyph-name="" unicode="&#x5148;" d="M176 439 q-33 24 -80 30 q129 117 180 297 l72 -34 q-18 -56 -43 -107 l165 0 l0 171 l77 0 l0 -171 l294 0 l0 -66 l-294 0 l0 -160 l382 0 l0 -68 l-280 0 l0 -270 q0 -56 55 -56 l80 0 q57 -1 71 59 q10 41 16 80 q30 -30 64 -42 q-6 -28 -16 -66 q-24 -104 -126 -103 l-96 0 q-126 -2 -124 115 l0 283 l-156 0 q11 -328 -311 -428 q-24 44 -55 68 q302 71 290 360 l-272 0 l0 68 l401 0 l0 160 l-201 0 q-42 -68 -93 -120 Z" /><glyph glyph-name="" unicode="&#x5149;" d="M69 364 l0 67 l398 0 l0 365 l77 0 l0 -365 l385 0 l0 -67 l-279 0 l0 -302 q-1 -58 56 -57 l81 0 q54 -1 69 59 q5 18 14 71 q2 6 2 9 q31 -29 64 -42 q-5 -28 -15 -66 q-25 -105 -126 -103 l-97 0 q-124 -1 -123 115 l0 316 l-159 0 l0 -4 q11 -336 -311 -457 q-15 28 -58 60 q307 91 294 397 l0 4 l-272 0 ZM683 477 q-27 23 -66 33 q104 109 175 231 l66 -33 q-73 -121 -175 -231 ZM327 481 q-79 114 -181 223 l67 29 q86 -92 167 -201 l-53 -51 Z" /><glyph glyph-name="" unicode="&#x514b;" d="M82 620 l0 67 l378 0 l0 109 l77 0 l0 -109 l380 0 l0 -67 l-380 0 l0 -108 l252 0 l0 -296 l-153 0 l0 -164 q-2 -57 53 -54 l105 0 q53 -3 67 56 q5 15 13 57 q1 6 2 9 q28 -30 60 -41 q-7 -33 -14 -54 q-23 -99 -121 -95 l-123 0 q-117 -1 -116 113 l0 173 l-125 0 q0 -6 -1 -18 q0 -13 -1 -19 q-10 -223 -320 -279 q-16 37 -51 67 q293 40 298 217 q1 5 1 16 q1 11 1 16 l-155 0 l0 296 l251 0 l0 108 l-378 0 ZM284 280 l430 0 l0 166 l-430 0 l0 -166 Z" /><glyph glyph-name="" unicode="&#x514d;" d="M660 -67 q-115 -1 -114 107 l0 213 l-23 0 q-69 -259 -403 -349 q-19 34 -54 65 q307 74 377 284 l-245 0 l0 245 q-23 -17 -69 -44 q-27 30 -66 48 q224 128 320 308 l69 -35 q-1 -2 -3 -6 q-25 -42 -41 -63 l356 0 l0 -54 l-142 -128 l223 0 l0 -271 l-225 0 l0 -205 q0 -48 52 -48 l139 0 q55 -1 65 56 q8 28 14 65 q28 -32 60 -43 q-8 -40 -15 -60 q-21 -88 -117 -85 l-158 0 ZM358 643 q-55 -64 -126 -119 l288 0 l133 119 l-295 0 ZM553 461 q-3 -78 -16 -143 l233 0 l0 143 l-217 0 ZM273 318 l189 0 q13 57 15 143 l-204 0 l0 -143 Z" /><glyph glyph-name="" unicode="&#x5151;" d="M199 260 l0 356 l184 0 q-69 73 -154 141 l66 39 q83 -65 148 -137 l-45 -43 l139 0 q98 100 152 186 l73 -36 q-50 -65 -128 -150 l169 0 l0 -356 l-160 0 l0 -210 q1 -50 51 -51 l106 0 q52 -1 67 55 q2 9 6 32 q6 24 8 37 q28 -30 61 -43 q-8 -39 -16 -61 q-24 -90 -120 -87 l-125 0 q-113 -1 -112 109 l0 219 l-137 0 q-2 -47 -5 -67 q-26 -238 -322 -292 q-18 38 -52 63 q279 44 301 235 q4 27 4 61 l-159 0 ZM276 328 l450 0 l0 218 l-450 0 l0 -218 Z" /><glyph glyph-name="" unicode="&#x5154;" d="M643 -65 q-115 0 -115 108 l0 211 l-7 0 q-73 -261 -407 -350 q-23 40 -55 66 q312 74 383 284 l-248 0 l0 244 q-23 -17 -69 -44 q-27 30 -66 48 q223 125 321 307 l68 -34 q-19 -36 -43 -69 l359 0 l0 -54 l-125 -126 l210 0 l0 -272 l-246 0 l0 -203 q0 -48 51 -48 l157 0 q53 -2 65 56 q8 27 14 65 q30 -31 61 -44 q-5 -32 -14 -59 q-25 -89 -119 -86 l-175 0 ZM657 643 l-302 0 q-57 -64 -124 -117 l311 0 l115 117 ZM552 462 q-3 -77 -16 -143 l238 0 l0 143 l-222 0 ZM270 319 l191 0 q14 65 15 143 l-206 0 l0 -143 ZM775 58 q-61 72 -128 124 l58 33 q80 -66 115 -112 l-45 -45 Z" /><glyph glyph-name="" unicode="&#x515a;" d="M665 -70 q-115 0 -115 103 l0 152 l-103 0 q-2 -29 -8 -56 q-29 -187 -316 -229 q-26 44 -53 65 q272 31 297 174 q4 19 7 46 l-110 0 l0 261 l471 0 l0 -261 l-112 0 l0 -140 q0 -47 50 -47 l114 0 q54 -2 68 59 q6 27 12 65 q30 -31 62 -43 q-2 -12 -8 -36 q-3 -12 -4 -17 q-23 -99 -122 -96 l-130 0 ZM96 381 l0 213 l366 0 l0 202 l75 0 l0 -202 l366 0 l0 -213 l-76 0 l0 147 l-654 0 l0 -147 l-77 0 ZM338 248 l321 0 l0 135 l-321 0 l0 -135 ZM673 600 q-20 19 -61 36 q70 56 141 143 l61 -36 q-74 -90 -141 -143 ZM333 602 q-74 82 -142 136 l59 38 q76 -61 133 -125 l-50 -49 Z" /><glyph glyph-name="" unicode="&#x515c;" d="M355 280 l0 407 l83 0 q33 67 45 122 l68 -23 q-17 -54 -37 -99 l128 0 l0 -407 l-287 0 ZM143 215 l-37 51 q28 17 25 81 l0 345 q110 15 182 49 l38 -55 q-51 -27 -149 -47 l0 -314 l104 40 l23 -57 l-130 -57 q-27 -12 -56 -36 ZM659 -68 q-108 -2 -106 104 l0 204 l71 0 l0 -196 q0 -48 47 -48 l139 0 q57 -4 68 62 q8 28 12 61 q30 -32 64 -42 q-6 -33 -11 -50 q-19 -100 -122 -95 l-162 0 ZM683 266 l0 65 l114 0 l0 312 l-114 0 l0 66 l185 0 l0 -443 l-185 0 ZM106 -98 q-18 31 -54 63 q182 25 251 88 q72 59 71 192 l73 -8 q6 -290 -341 -335 ZM421 343 l155 0 l0 112 l-155 0 l0 -112 ZM421 624 l0 -110 l155 0 l0 110 l-155 0 Z" /><glyph glyph-name="" unicode="&#x5162;" d="M512 621 l0 63 l155 0 l0 112 l71 0 l0 -112 l178 0 l0 -63 l-178 0 l0 -108 l138 0 l0 -264 l-83 0 l0 -211 q-1 -44 37 -42 l19 0 q35 -1 46 54 q6 33 10 65 q22 -26 56 -36 q-1 -7 -4 -20 q-4 -19 -5 -28 q-19 -101 -99 -98 l-32 0 q-97 -5 -93 98 l0 218 l-63 0 q16 -265 -213 -351 q-22 30 -52 50 q120 51 159 113 q42 59 41 188 l-71 0 l0 264 l138 0 l0 108 l-155 0 ZM85 621 l0 63 l170 0 l0 112 l72 0 l0 -112 l149 0 l0 -63 l-149 0 l0 -108 l126 0 l0 -264 l-66 0 l0 -174 l89 70 l37 -43 l-132 -105 q-19 -15 -40 -39 l-37 54 q19 22 18 69 l0 168 l-59 0 q11 -240 -162 -346 q-26 29 -66 45 q94 54 127 119 q36 63 34 182 l-75 0 l0 264 l134 0 l0 108 l-170 0 ZM598 309 l209 0 l0 144 l-209 0 l0 -144 ZM189 309 l195 0 l0 144 l-195 0 l0 -144 Z" /><glyph glyph-name="" unicode="&#x5165;" d="M888 -67 q-241 159 -378 520 q-118 -348 -397 -529 q-39 36 -78 50 q328 200 434 600 q-31 93 -169 136 l52 60 q148 -43 187 -172 q147 -449 430 -605 q-41 -17 -81 -60 Z" /><glyph glyph-name="" unicode="&#x5168;" d="M227 386 l0 58 q-67 -40 -135 -69 q-21 31 -60 57 q310 132 456 380 l66 -35 q-9 -16 -19 -32 q177 -205 438 -289 q-40 -34 -59 -69 q-258 109 -416 303 q-100 -136 -258 -237 l531 0 l0 -67 l-235 0 l0 -154 l252 0 l0 -65 l-252 0 l0 -165 l357 0 l0 -68 l-787 0 l0 68 l355 0 l0 165 l-251 0 l0 65 l251 0 l0 154 l-234 0 Z" /><glyph glyph-name="" unicode="&#x516b;" d="M110 -82 q-40 29 -83 42 q284 211 292 774 l79 -16 q-14 -570 -288 -800 ZM893 -76 q-286 265 -313 840 l80 12 q23 -567 319 -797 q-50 -19 -86 -55 Z" /><glyph glyph-name="" unicode="&#x516c;" d="M772 -99 q-9 17 -34 56 q-11 19 -17 28 l-427 -35 q-44 -2 -95 -18 l-35 67 q47 15 82 63 q137 186 218 384 l73 -36 q-110 -234 -223 -384 l363 25 q-60 92 -119 171 l68 30 q120 -154 208 -299 l-62 -52 ZM891 285 q-231 158 -334 471 l69 28 q100 -310 346 -442 q-51 -23 -81 -57 ZM110 276 q-35 28 -74 42 q227 160 307 446 l75 -32 q-103 -302 -308 -456 Z" /><glyph glyph-name="" unicode="&#x516d;" d="M534 568 q-76 104 -166 191 l74 33 q83 -76 156 -173 l-64 -51 ZM87 462 l0 72 l828 0 l0 -72 l-828 0 ZM146 -76 q-27 23 -77 39 q173 157 275 369 l73 -34 q-103 -211 -271 -374 ZM867 -76 q-140 209 -286 376 l71 35 q152 -172 274 -353 l-59 -58 Z" /><glyph glyph-name="" unicode="&#x5170;" d="M114 489 l0 70 l417 0 q107 114 177 231 l72 -35 q-64 -101 -153 -196 l256 0 l0 -70 l-769 0 ZM65 -51 l0 71 l867 0 l0 -71 l-867 0 ZM183 224 l0 70 l630 0 l0 -70 l-630 0 ZM376 568 q-87 110 -165 182 l70 34 q75 -66 152 -168 l-57 -48 Z" /><glyph glyph-name="" unicode="&#x5171;" d="M114 526 l0 69 l170 0 l0 200 l79 0 l0 -200 l273 0 l0 200 l78 0 l0 -200 l171 0 l0 -69 l-171 0 l0 -232 l227 0 l0 -68 l-883 0 l0 68 l226 0 l0 232 l-170 0 ZM363 526 l0 -232 l273 0 l0 232 l-273 0 ZM147 -100 q-24 33 -64 53 q164 92 273 230 l63 -46 q-121 -144 -272 -237 ZM864 -95 q-133 127 -281 234 l59 45 q144 -102 264 -213 l-42 -66 Z" /><glyph glyph-name="" unicode="&#x5173;" d="M145 521 l0 70 l388 0 q100 100 171 205 l69 -36 q-59 -81 -145 -169 l225 0 l0 -70 l-316 0 q0 -76 -4 -163 l370 0 l0 -71 l-359 0 q103 -235 396 -305 q-35 -31 -59 -73 q-271 80 -380 311 q-78 -219 -376 -318 q-24 37 -63 66 q325 92 382 319 l-349 0 l0 71 l360 0 q3 49 5 163 l-315 0 ZM378 593 q-59 73 -157 164 l68 35 q75 -67 146 -151 l-57 -48 Z" /><glyph glyph-name="" unicode="&#x5174;" d="M64 289 l0 71 l516 0 q130 181 220 381 l71 -41 q-87 -177 -203 -340 l268 0 l0 -71 l-872 0 ZM149 -93 q-31 31 -70 49 q162 111 271 268 l69 -41 q-114 -162 -270 -276 ZM861 -93 q-150 164 -281 274 l64 44 q143 -119 265 -251 l-48 -67 ZM300 419 q-85 133 -182 251 l72 32 q93 -114 168 -235 l-58 -48 ZM507 487 q-56 145 -129 276 l77 16 q65 -118 119 -256 l-67 -36 Z" /><glyph glyph-name="" unicode="&#x5175;" d="M58 187 l0 68 l186 0 l0 471 q329 5 534 46 l47 -63 q-198 -38 -504 -47 l0 -151 l549 0 l0 -67 l-160 0 l0 -189 l232 0 l0 -68 l-884 0 ZM321 444 l0 -189 l312 0 l0 189 l-312 0 ZM156 -98 q-31 33 -67 51 q157 77 263 194 l63 -45 q-117 -120 -259 -200 ZM868 -98 q-146 114 -279 195 l53 49 q143 -84 263 -177 l-37 -67 Z" /><glyph glyph-name="" unicode="&#x5176;" d="M117 622 l0 64 l143 0 l0 110 l75 0 l0 -110 l328 0 l0 110 l75 0 l0 -110 l144 0 l0 -64 l-144 0 l0 -431 l206 0 l0 -63 l-889 0 l0 63 l205 0 l0 431 l-143 0 ZM335 296 l0 -105 l328 0 l0 105 l-328 0 ZM335 622 l0 -103 l328 0 l0 103 l-328 0 ZM335 459 l0 -103 l328 0 l0 103 l-328 0 ZM154 -101 q-23 34 -62 54 q166 63 288 164 l55 -47 q-126 -106 -281 -171 ZM860 -98 q-136 90 -298 166 l51 48 q148 -65 273 -146 l-26 -68 Z" /><glyph glyph-name="" unicode="&#x5177;" d="M53 104 l0 64 l164 0 l0 585 l565 0 l0 -585 l163 0 l0 -64 l-892 0 ZM291 256 l0 -88 l415 0 l0 88 l-415 0 ZM291 690 l0 -86 l415 0 l0 86 l-415 0 ZM291 545 l0 -86 l415 0 l0 86 l-415 0 ZM291 400 l0 -86 l415 0 l0 86 l-415 0 ZM868 -99 q-151 89 -290 150 l53 52 q152 -65 267 -133 l-30 -69 ZM151 -99 q-24 32 -63 55 q163 56 272 142 l59 -45 q-116 -94 -268 -152 Z" /><glyph glyph-name="" unicode="&#x5178;" d="M51 147 l0 68 l119 0 l0 451 l196 0 l0 130 l72 0 l0 -130 l122 0 l0 130 l71 0 l0 -130 l197 0 l0 -451 l119 0 l0 -68 l-896 0 ZM144 -102 q-22 32 -63 55 q162 73 277 179 l62 -47 q-122 -112 -276 -187 ZM862 -106 q-134 96 -289 190 l55 48 q140 -78 266 -168 l-32 -70 ZM631 374 l0 -159 l123 0 l0 159 l-123 0 ZM754 599 l-123 0 l0 -160 l123 0 l0 160 ZM438 599 l0 -160 l122 0 l0 160 l-122 0 ZM244 599 l0 -160 l122 0 l0 160 l-122 0 ZM244 374 l0 -159 l122 0 l0 159 l-122 0 ZM438 374 l0 -159 l122 0 l0 159 l-122 0 Z" /><glyph glyph-name="" unicode="&#x517b;" d="M145 604 l0 63 l232 0 q-44 46 -110 105 l65 30 q67 -56 110 -105 l-43 -30 l156 0 q61 66 107 137 l69 -25 q-39 -57 -89 -112 l211 0 l0 -63 l-329 0 q-3 -42 -10 -75 l287 0 l0 -61 l-301 0 q-11 -39 -26 -73 l433 0 l0 -62 l-259 0 q118 -109 318 -149 q-40 -27 -58 -66 q-132 39 -227 109 l0 -313 l-74 0 l0 329 l52 0 q-54 41 -97 90 l-123 0 q-33 -49 -81 -90 l48 0 l0 -81 q4 -196 -196 -265 q-23 33 -63 54 q193 51 184 214 l0 57 q-90 -66 -230 -112 q-23 32 -62 57 q215 60 309 166 l-258 0 l0 62 l301 0 q21 37 33 73 l-223 0 l0 61 l238 0 q6 28 11 75 l-305 0 Z" /></font>
</defs>
</svg>
